%TF.GenerationSoftware,KiCad,Pcbnew,6.0.11+dfsg-1~bpo11+1*%
%TF.CreationDate,2023-05-25T07:24:57+00:00*%
%TF.ProjectId,GPS02B,47505330-3242-42e6-9b69-6361645f7063,REV*%
%TF.SameCoordinates,Original*%
%TF.FileFunction,Soldermask,Bot*%
%TF.FilePolarity,Negative*%
%FSLAX46Y46*%
G04 Gerber Fmt 4.6, Leading zero omitted, Abs format (unit mm)*
G04 Created by KiCad (PCBNEW 6.0.11+dfsg-1~bpo11+1) date 2023-05-25 07:24:57*
%MOMM*%
%LPD*%
G01*
G04 APERTURE LIST*
G04 Aperture macros list*
%AMRoundRect*
0 Rectangle with rounded corners*
0 $1 Rounding radius*
0 $2 $3 $4 $5 $6 $7 $8 $9 X,Y pos of 4 corners*
0 Add a 4 corners polygon primitive as box body*
4,1,4,$2,$3,$4,$5,$6,$7,$8,$9,$2,$3,0*
0 Add four circle primitives for the rounded corners*
1,1,$1+$1,$2,$3*
1,1,$1+$1,$4,$5*
1,1,$1+$1,$6,$7*
1,1,$1+$1,$8,$9*
0 Add four rect primitives between the rounded corners*
20,1,$1+$1,$2,$3,$4,$5,0*
20,1,$1+$1,$4,$5,$6,$7,0*
20,1,$1+$1,$6,$7,$8,$9,0*
20,1,$1+$1,$8,$9,$2,$3,0*%
%AMFreePoly0*
4,1,41,0.586777,0.930194,0.656366,0.874698,0.694986,0.794504,0.700000,0.750000,0.700000,-0.750000,0.680194,-0.836777,0.624698,-0.906366,0.544504,-0.944986,0.500000,-0.950000,0.000000,-0.950000,-0.023504,-0.944635,-0.083606,-0.943534,-0.139582,-0.934468,-0.274897,-0.892193,-0.326080,-0.867780,-0.444090,-0.789225,-0.486362,-0.751429,-0.577582,-0.642910,-0.607548,-0.594768,-0.664643,-0.465009,
-0.679893,-0.410393,-0.697476,-0.275933,-0.697084,-0.275882,-0.700000,-0.250000,-0.700000,0.250000,-0.697921,0.259109,-0.697582,0.286880,-0.675771,0.426957,-0.659192,0.481183,-0.598944,0.609508,-0.567811,0.656904,-0.473967,0.763162,-0.430783,0.799915,-0.310888,0.875563,-0.259125,0.898717,-0.122818,0.937674,-0.066635,0.945370,-0.042411,0.945222,0.000000,0.950000,0.500000,0.950000,
0.586777,0.930194,0.586777,0.930194,$1*%
%AMFreePoly1*
4,1,41,0.022678,0.944824,0.075125,0.944504,0.131210,0.936123,0.267031,0.895504,0.318507,0.871718,0.437469,0.794611,0.480202,0.757333,0.572740,0.649936,0.603290,0.602165,0.661967,0.473113,0.677883,0.418686,0.697980,0.278353,0.700000,0.250000,0.700000,-0.250000,0.699985,-0.252439,0.699836,-0.264655,0.697079,-0.295398,0.673559,-0.435199,0.656318,-0.489221,0.594506,-0.616800,
0.562797,-0.663810,0.467662,-0.768914,0.424032,-0.805137,0.303222,-0.879314,0.251181,-0.901834,0.114408,-0.939123,0.058135,-0.946132,0.037663,-0.945757,0.000000,-0.950000,-0.500000,-0.950000,-0.586777,-0.930194,-0.656366,-0.874698,-0.694986,-0.794504,-0.700000,-0.750000,-0.700000,0.750000,-0.680194,0.836777,-0.624698,0.906366,-0.544504,0.944986,-0.500000,0.950000,0.000000,0.950000,
0.022678,0.944824,0.022678,0.944824,$1*%
G04 Aperture macros list end*
%ADD10RoundRect,0.200000X0.800000X0.800000X-0.800000X0.800000X-0.800000X-0.800000X0.800000X-0.800000X0*%
%ADD11C,2.000000*%
%ADD12RoundRect,0.200000X0.762000X-0.762000X0.762000X0.762000X-0.762000X0.762000X-0.762000X-0.762000X0*%
%ADD13RoundRect,0.200000X0.850000X0.850000X-0.850000X0.850000X-0.850000X-0.850000X0.850000X-0.850000X0*%
%ADD14C,2.100000*%
%ADD15C,3.900000*%
%ADD16RoundRect,0.200000X-0.762000X0.762000X-0.762000X-0.762000X0.762000X-0.762000X0.762000X0.762000X0*%
%ADD17C,2.900000*%
%ADD18C,3.100000*%
%ADD19RoundRect,0.200000X0.762000X0.762000X-0.762000X0.762000X-0.762000X-0.762000X0.762000X-0.762000X0*%
%ADD20C,6.400000*%
%ADD21RoundRect,0.200000X-0.762000X-0.762000X0.762000X-0.762000X0.762000X0.762000X-0.762000X0.762000X0*%
%ADD22RoundRect,0.200000X-0.698500X0.444500X-0.698500X-0.444500X0.698500X-0.444500X0.698500X0.444500X0*%
%ADD23RoundRect,0.200000X0.698500X-0.444500X0.698500X0.444500X-0.698500X0.444500X-0.698500X-0.444500X0*%
%ADD24RoundRect,0.200000X-0.444500X-0.698500X0.444500X-0.698500X0.444500X0.698500X-0.444500X0.698500X0*%
%ADD25RoundRect,0.200000X-1.250000X-0.900000X1.250000X-0.900000X1.250000X0.900000X-1.250000X0.900000X0*%
%ADD26RoundRect,0.200000X-0.900000X1.250000X-0.900000X-1.250000X0.900000X-1.250000X0.900000X1.250000X0*%
%ADD27RoundRect,0.200000X0.750000X-0.525000X0.750000X0.525000X-0.750000X0.525000X-0.750000X-0.525000X0*%
%ADD28RoundRect,0.200000X-0.950000X-1.700000X0.950000X-1.700000X0.950000X1.700000X-0.950000X1.700000X0*%
%ADD29RoundRect,0.450000X-0.375000X-1.075000X0.375000X-1.075000X0.375000X1.075000X-0.375000X1.075000X0*%
%ADD30RoundRect,0.347500X-0.172500X0.147500X-0.172500X-0.147500X0.172500X-0.147500X0.172500X0.147500X0*%
%ADD31RoundRect,0.200000X0.444500X0.698500X-0.444500X0.698500X-0.444500X-0.698500X0.444500X-0.698500X0*%
%ADD32RoundRect,0.200000X-0.400000X0.900000X-0.400000X-0.900000X0.400000X-0.900000X0.400000X0.900000X0*%
%ADD33RoundRect,0.200000X0.325000X-0.530000X0.325000X0.530000X-0.325000X0.530000X-0.325000X-0.530000X0*%
%ADD34FreePoly0,270.000000*%
%ADD35FreePoly1,270.000000*%
%ADD36RoundRect,0.200000X0.530000X0.325000X-0.530000X0.325000X-0.530000X-0.325000X0.530000X-0.325000X0*%
%ADD37RoundRect,0.200000X0.450000X0.400000X-0.450000X0.400000X-0.450000X-0.400000X0.450000X-0.400000X0*%
G04 APERTURE END LIST*
D10*
%TO.C,C1*%
X23876000Y18288000D03*
D11*
X20376000Y18288000D03*
%TD*%
D12*
%TO.C,J1*%
X11430000Y4572000D03*
X11430000Y7112000D03*
X13970000Y4572000D03*
X13970000Y7112000D03*
X16510000Y4572000D03*
X16510000Y7112000D03*
%TD*%
D13*
%TO.C,J2*%
X15494000Y19050000D03*
D14*
X15494000Y21550000D03*
X13494000Y21550000D03*
X13494000Y19050000D03*
D15*
X10784000Y14280000D03*
X10784000Y26320000D03*
%TD*%
D12*
%TO.C,J3*%
X24130000Y3810000D03*
X24130000Y6350000D03*
X26670000Y3810000D03*
X26670000Y6350000D03*
X29210000Y3810000D03*
X29210000Y6350000D03*
%TD*%
D16*
%TO.C,J4*%
X35560000Y6350000D03*
X35560000Y3810000D03*
%TD*%
%TO.C,J5*%
X33020000Y6350000D03*
X33020000Y3810000D03*
%TD*%
%TO.C,J6*%
X47244000Y6350000D03*
X47244000Y3810000D03*
%TD*%
%TO.C,J8*%
X44704000Y6350000D03*
X44704000Y3810000D03*
%TD*%
%TO.C,J9*%
X49784000Y6350000D03*
X49784000Y3810000D03*
%TD*%
%TO.C,J10*%
X39624000Y6350000D03*
X39624000Y3810000D03*
%TD*%
D12*
%TO.C,J11*%
X34544000Y34544000D03*
X34544000Y37084000D03*
%TD*%
D16*
%TO.C,J13*%
X37084000Y37084000D03*
X37084000Y34544000D03*
%TD*%
%TO.C,J14*%
X51054000Y16764000D03*
X51054000Y14224000D03*
%TD*%
D12*
%TO.C,J15*%
X44958000Y34544000D03*
X44958000Y37084000D03*
X47498000Y34544000D03*
X47498000Y37084000D03*
X50038000Y34544000D03*
X50038000Y37084000D03*
%TD*%
%TO.C,J16*%
X32004000Y34544000D03*
X32004000Y37084000D03*
%TD*%
D17*
%TO.C,J18*%
X55372000Y24384000D03*
D18*
X57912000Y21844000D03*
X52832000Y26924000D03*
X52832000Y21844000D03*
X57912000Y26924000D03*
%TD*%
D19*
%TO.C,JP6*%
X27178000Y25400000D03*
X27178000Y27940000D03*
%TD*%
%TO.C,JP7*%
X22098000Y25400000D03*
X22098000Y27940000D03*
%TD*%
%TO.C,JP8*%
X24638000Y25400000D03*
X24638000Y27940000D03*
%TD*%
D20*
%TO.C,M1*%
X5080000Y5080000D03*
%TD*%
%TO.C,M2*%
X55880000Y35560000D03*
%TD*%
%TO.C,M3*%
X55880000Y5080000D03*
%TD*%
%TO.C,M4*%
X5080000Y35560000D03*
%TD*%
D12*
%TO.C,JP1*%
X11430000Y10160000D03*
X13970000Y10160000D03*
X16510000Y10160000D03*
%TD*%
D19*
%TO.C,JP9*%
X19558000Y25400000D03*
X19558000Y27940000D03*
%TD*%
D21*
%TO.C,JP2*%
X39624000Y37084000D03*
X39624000Y34544000D03*
%TD*%
D16*
%TO.C,J12*%
X29464000Y37084000D03*
X29464000Y34544000D03*
%TD*%
%TO.C,J7*%
X42164000Y6350000D03*
X42164000Y3810000D03*
%TD*%
D22*
%TO.C,C3*%
X28956000Y13589000D03*
X28956000Y11684000D03*
%TD*%
D23*
%TO.C,C6*%
X42164000Y31877000D03*
X42164000Y33782000D03*
%TD*%
D24*
%TO.C,C7*%
X50800000Y30480000D03*
X52705000Y30480000D03*
%TD*%
D25*
%TO.C,D1*%
X25750000Y19410000D03*
X29750000Y19410000D03*
%TD*%
D26*
%TO.C,D2*%
X20574000Y6826000D03*
X20574000Y2826000D03*
%TD*%
D18*
%TO.C,D3*%
X12192000Y33274000D03*
D27*
X12192000Y35274000D03*
X12192000Y31274000D03*
%TD*%
D18*
%TO.C,D5*%
X16002000Y33274000D03*
D27*
X16002000Y35274000D03*
X16002000Y31274000D03*
%TD*%
D18*
%TO.C,D6*%
X23114000Y33306000D03*
D27*
X23114000Y35306000D03*
X23114000Y31306000D03*
%TD*%
D28*
%TO.C,F1*%
X16256000Y14732000D03*
X20156000Y14732000D03*
%TD*%
D29*
%TO.C,L1*%
X19812000Y10668000D03*
X22612000Y10668000D03*
%TD*%
D30*
%TO.C,L2*%
X49340000Y25475000D03*
X49340000Y24505000D03*
%TD*%
D23*
%TO.C,R1*%
X28956000Y15367000D03*
X28956000Y17272000D03*
%TD*%
D24*
%TO.C,R2*%
X46355000Y8890000D03*
X48260000Y8890000D03*
%TD*%
D31*
%TO.C,R3*%
X44704000Y8890000D03*
X42799000Y8890000D03*
%TD*%
%TO.C,R4*%
X36957000Y30480000D03*
X35052000Y30480000D03*
%TD*%
D22*
%TO.C,R6*%
X38100000Y11684000D03*
X38100000Y9779000D03*
%TD*%
%TO.C,R7*%
X35560000Y11684000D03*
X35560000Y9779000D03*
%TD*%
D24*
%TO.C,R8*%
X43561000Y11176000D03*
X45466000Y11176000D03*
%TD*%
D22*
%TO.C,R9*%
X40640000Y11684000D03*
X40640000Y9779000D03*
%TD*%
D23*
%TO.C,R10*%
X12192000Y36957000D03*
X12192000Y38862000D03*
%TD*%
D24*
%TO.C,R11*%
X47244000Y29972000D03*
X49149000Y29972000D03*
%TD*%
D23*
%TO.C,R13*%
X16002000Y36893500D03*
X16002000Y38798500D03*
%TD*%
D32*
%TO.C,U3*%
X32624000Y27082000D03*
X33724000Y27082000D03*
X34824000Y27082000D03*
X35924000Y27082000D03*
X37024000Y27082000D03*
X38124000Y27082000D03*
X39224000Y27082000D03*
X42224000Y27082000D03*
X43324000Y27082000D03*
X44424000Y27082000D03*
X45524000Y27082000D03*
X46624000Y27082000D03*
X46624000Y15082000D03*
X45524000Y15082000D03*
X44424000Y15082000D03*
X43324000Y15082000D03*
X42224000Y15082000D03*
X39224000Y15082000D03*
X38124000Y15082000D03*
X37024000Y15082000D03*
X35924000Y15082000D03*
X34824000Y15082000D03*
X33724000Y15082000D03*
X32624000Y15082000D03*
%TD*%
D24*
%TO.C,C2*%
X26543000Y9652000D03*
X28448000Y9652000D03*
%TD*%
D33*
%TO.C,U2*%
X26924000Y11684000D03*
X25974000Y11684000D03*
X25024000Y11684000D03*
X25024000Y13884000D03*
X26924000Y13884000D03*
%TD*%
D23*
%TO.C,R5*%
X39624000Y30480000D03*
X39624000Y32385000D03*
%TD*%
D34*
%TO.C,JP4*%
X26924000Y36083000D03*
D35*
X26924000Y34783000D03*
%TD*%
D23*
%TO.C,C4*%
X30988000Y9779000D03*
X30988000Y11684000D03*
%TD*%
D36*
%TO.C,U1*%
X21844000Y22286000D03*
X21844000Y21336000D03*
X21844000Y20386000D03*
X19644000Y20386000D03*
X19644000Y21336000D03*
X19644000Y22286000D03*
%TD*%
D23*
%TO.C,C5*%
X33020000Y9779000D03*
X33020000Y11684000D03*
%TD*%
D22*
%TO.C,R15*%
X42164000Y37465000D03*
X42164000Y35560000D03*
%TD*%
D23*
%TO.C,R12*%
X19558000Y36957000D03*
X19558000Y38862000D03*
%TD*%
D18*
%TO.C,D4*%
X19558000Y33306000D03*
D27*
X19558000Y35306000D03*
X19558000Y31306000D03*
%TD*%
D22*
%TO.C,R16*%
X23100000Y38905000D03*
X23100000Y37000000D03*
%TD*%
D23*
%TO.C,R14*%
X25840000Y31245000D03*
X25840000Y33150000D03*
%TD*%
D37*
%TO.C,Q1*%
X27035000Y38923000D03*
X27035000Y37023000D03*
X25035000Y37973000D03*
%TD*%
M02*
