%TF.GenerationSoftware,KiCad,Pcbnew,6.0.10+dfsg-1~bpo11+1*%
%TF.CreationDate,2023-02-14T08:10:47+00:00*%
%TF.ProjectId,GPS02B,47505330-3242-42e6-9b69-6361645f7063,REV*%
%TF.SameCoordinates,Original*%
%TF.FileFunction,Legend,Bot*%
%TF.FilePolarity,Positive*%
%FSLAX46Y46*%
G04 Gerber Fmt 4.6, Leading zero omitted, Abs format (unit mm)*
G04 Created by KiCad (PCBNEW 6.0.10+dfsg-1~bpo11+1) date 2023-02-14 08:10:47*
%MOMM*%
%LPD*%
G01*
G04 APERTURE LIST*
%ADD10C,0.304800*%
%ADD11C,0.099060*%
%ADD12C,0.150000*%
%ADD13C,0.120000*%
%ADD14C,2.700000*%
G04 APERTURE END LIST*
D10*
%TO.C,D3*%
X12881428Y34398857D02*
X11357428Y34398857D01*
X11357428Y34036000D01*
X11430000Y33818285D01*
X11575142Y33673142D01*
X11720285Y33600571D01*
X12010571Y33528000D01*
X12228285Y33528000D01*
X12518571Y33600571D01*
X12663714Y33673142D01*
X12808857Y33818285D01*
X12881428Y34036000D01*
X12881428Y34398857D01*
X11357428Y33020000D02*
X11357428Y32076571D01*
X11938000Y32584571D01*
X11938000Y32366857D01*
X12010571Y32221714D01*
X12083142Y32149142D01*
X12228285Y32076571D01*
X12591142Y32076571D01*
X12736285Y32149142D01*
X12808857Y32221714D01*
X12881428Y32366857D01*
X12881428Y32802285D01*
X12808857Y32947428D01*
X12736285Y33020000D01*
D11*
X10725996Y31592278D02*
X10725996Y31354001D01*
X10868962Y31639933D02*
X10368582Y31473140D01*
X10868962Y31306346D01*
X10868962Y35205911D02*
X10368582Y35205911D01*
X10868962Y34919980D02*
X10583030Y35134429D01*
X10368582Y34919980D02*
X10654513Y35205911D01*
D10*
%TO.C,D5*%
X16691428Y34398857D02*
X15167428Y34398857D01*
X15167428Y34036000D01*
X15240000Y33818285D01*
X15385142Y33673142D01*
X15530285Y33600571D01*
X15820571Y33528000D01*
X16038285Y33528000D01*
X16328571Y33600571D01*
X16473714Y33673142D01*
X16618857Y33818285D01*
X16691428Y34036000D01*
X16691428Y34398857D01*
X15167428Y32149142D02*
X15167428Y32874857D01*
X15893142Y32947428D01*
X15820571Y32874857D01*
X15748000Y32729714D01*
X15748000Y32366857D01*
X15820571Y32221714D01*
X15893142Y32149142D01*
X16038285Y32076571D01*
X16401142Y32076571D01*
X16546285Y32149142D01*
X16618857Y32221714D01*
X16691428Y32366857D01*
X16691428Y32729714D01*
X16618857Y32874857D01*
X16546285Y32947428D01*
D11*
X14535996Y31592278D02*
X14535996Y31354001D01*
X14678962Y31639933D02*
X14178582Y31473140D01*
X14678962Y31306346D01*
X14678962Y35205911D02*
X14178582Y35205911D01*
X14678962Y34919980D02*
X14393030Y35134429D01*
X14178582Y34919980D02*
X14464513Y35205911D01*
D10*
%TO.C,D6*%
X23803428Y34430857D02*
X22279428Y34430857D01*
X22279428Y34068000D01*
X22352000Y33850285D01*
X22497142Y33705142D01*
X22642285Y33632571D01*
X22932571Y33560000D01*
X23150285Y33560000D01*
X23440571Y33632571D01*
X23585714Y33705142D01*
X23730857Y33850285D01*
X23803428Y34068000D01*
X23803428Y34430857D01*
X22279428Y32253714D02*
X22279428Y32544000D01*
X22352000Y32689142D01*
X22424571Y32761714D01*
X22642285Y32906857D01*
X22932571Y32979428D01*
X23513142Y32979428D01*
X23658285Y32906857D01*
X23730857Y32834285D01*
X23803428Y32689142D01*
X23803428Y32398857D01*
X23730857Y32253714D01*
X23658285Y32181142D01*
X23513142Y32108571D01*
X23150285Y32108571D01*
X23005142Y32181142D01*
X22932571Y32253714D01*
X22860000Y32398857D01*
X22860000Y32689142D01*
X22932571Y32834285D01*
X23005142Y32906857D01*
X23150285Y32979428D01*
D11*
X21790962Y35237911D02*
X21290582Y35237911D01*
X21790962Y34951980D02*
X21505030Y35166429D01*
X21290582Y34951980D02*
X21576513Y35237911D01*
X21647996Y31624278D02*
X21647996Y31386001D01*
X21790962Y31671933D02*
X21290582Y31505140D01*
X21790962Y31338346D01*
D12*
%TO.C,L1*%
X21378666Y7935619D02*
X21854857Y7935619D01*
X21854857Y8935619D01*
X20521523Y7935619D02*
X21092952Y7935619D01*
X20807238Y7935619D02*
X20807238Y8935619D01*
X20902476Y8792761D01*
X20997714Y8697523D01*
X21092952Y8649904D01*
%TO.C,L2*%
X48622380Y25156666D02*
X48622380Y25632857D01*
X47622380Y25632857D01*
X47717619Y24870952D02*
X47670000Y24823333D01*
X47622380Y24728095D01*
X47622380Y24490000D01*
X47670000Y24394761D01*
X47717619Y24347142D01*
X47812857Y24299523D01*
X47908095Y24299523D01*
X48050952Y24347142D01*
X48622380Y24918571D01*
X48622380Y24299523D01*
%TO.C,U3*%
X30132380Y22871904D02*
X30941904Y22871904D01*
X31037142Y22824285D01*
X31084761Y22776666D01*
X31132380Y22681428D01*
X31132380Y22490952D01*
X31084761Y22395714D01*
X31037142Y22348095D01*
X30941904Y22300476D01*
X30132380Y22300476D01*
X30132380Y21919523D02*
X30132380Y21300476D01*
X30513333Y21633809D01*
X30513333Y21490952D01*
X30560952Y21395714D01*
X30608571Y21348095D01*
X30703809Y21300476D01*
X30941904Y21300476D01*
X31037142Y21348095D01*
X31084761Y21395714D01*
X31132380Y21490952D01*
X31132380Y21776666D01*
X31084761Y21871904D01*
X31037142Y21919523D01*
%TO.C,JP4*%
X24576380Y35885333D02*
X25290666Y35885333D01*
X25433523Y35932952D01*
X25528761Y36028190D01*
X25576380Y36171047D01*
X25576380Y36266285D01*
X25576380Y35409142D02*
X24576380Y35409142D01*
X24576380Y35028190D01*
X24624000Y34932952D01*
X24671619Y34885333D01*
X24766857Y34837714D01*
X24909714Y34837714D01*
X25004952Y34885333D01*
X25052571Y34932952D01*
X25100190Y35028190D01*
X25100190Y35409142D01*
X24909714Y33980571D02*
X25576380Y33980571D01*
X24528761Y34218666D02*
X25243047Y34456761D01*
X25243047Y33837714D01*
%TO.C,U1*%
X21505904Y24783619D02*
X21505904Y23974095D01*
X21458285Y23878857D01*
X21410666Y23831238D01*
X21315428Y23783619D01*
X21124952Y23783619D01*
X21029714Y23831238D01*
X20982095Y23878857D01*
X20934476Y23974095D01*
X20934476Y24783619D01*
X19934476Y23783619D02*
X20505904Y23783619D01*
X20220190Y23783619D02*
X20220190Y24783619D01*
X20315428Y24640761D01*
X20410666Y24545523D01*
X20505904Y24497904D01*
D10*
%TO.C,D4*%
X20247428Y34430857D02*
X18723428Y34430857D01*
X18723428Y34068000D01*
X18796000Y33850285D01*
X18941142Y33705142D01*
X19086285Y33632571D01*
X19376571Y33560000D01*
X19594285Y33560000D01*
X19884571Y33632571D01*
X20029714Y33705142D01*
X20174857Y33850285D01*
X20247428Y34068000D01*
X20247428Y34430857D01*
X19231428Y32253714D02*
X20247428Y32253714D01*
X18650857Y32616571D02*
X19739428Y32979428D01*
X19739428Y32036000D01*
D11*
X18091996Y31624278D02*
X18091996Y31386001D01*
X18234962Y31671933D02*
X17734582Y31505140D01*
X18234962Y31338346D01*
X18234962Y35237911D02*
X17734582Y35237911D01*
X18234962Y34951980D02*
X17949030Y35166429D01*
X17734582Y34951980D02*
X18020513Y35237911D01*
D12*
%TO.C,C3*%
X28194000Y11112500D02*
X29718000Y11112500D01*
X29718000Y13144500D02*
X29718000Y14160500D01*
X28194000Y12128500D02*
X28194000Y11112500D01*
X29718000Y11112500D02*
X29718000Y12128500D01*
X29718000Y14160500D02*
X28194000Y14160500D01*
X28194000Y14160500D02*
X28194000Y13144500D01*
X29845000Y14287500D02*
G75*
G03*
X29845000Y14287500I-127000J0D01*
G01*
%TO.C,C6*%
X42926000Y34353500D02*
X41402000Y34353500D01*
X41402000Y31305500D02*
X42926000Y31305500D01*
X42926000Y31305500D02*
X42926000Y32321500D01*
X42926000Y33337500D02*
X42926000Y34353500D01*
X41402000Y32321500D02*
X41402000Y31305500D01*
X41402000Y34353500D02*
X41402000Y33337500D01*
X41529000Y31178500D02*
G75*
G03*
X41529000Y31178500I-127000J0D01*
G01*
%TO.C,C7*%
X53276500Y29718000D02*
X53276500Y31242000D01*
X53276500Y31242000D02*
X52260500Y31242000D01*
X50228500Y31242000D02*
X50228500Y29718000D01*
X51244500Y31242000D02*
X50228500Y31242000D01*
X52260500Y29718000D02*
X53276500Y29718000D01*
X50228500Y29718000D02*
X51244500Y29718000D01*
X50228500Y31242000D02*
G75*
G03*
X50228500Y31242000I-127000J0D01*
G01*
D13*
%TO.C,D1*%
X24350000Y17760000D02*
X29750000Y17760000D01*
X24350000Y21060000D02*
X29750000Y21060000D01*
X24350000Y17760000D02*
X24350000Y21060000D01*
%TO.C,D2*%
X22224000Y8226000D02*
X22224000Y2826000D01*
X18924000Y8226000D02*
X18924000Y2826000D01*
X18924000Y8226000D02*
X22224000Y8226000D01*
D12*
%TO.C,F1*%
X17063000Y12954000D02*
X19349000Y12954000D01*
X17063000Y16510000D02*
X19349000Y16510000D01*
D13*
%TO.C,L1*%
X20609936Y12028000D02*
X21814064Y12028000D01*
X20609936Y9308000D02*
X21814064Y9308000D01*
D12*
%TO.C,R1*%
X28194000Y14795500D02*
X29718000Y14795500D01*
X28194000Y15811500D02*
X28194000Y14795500D01*
X29718000Y14795500D02*
X29718000Y15811500D01*
X28194000Y17843500D02*
X28194000Y16827500D01*
X29718000Y16827500D02*
X29718000Y17843500D01*
X29718000Y17843500D02*
X28194000Y17843500D01*
X28321000Y14668500D02*
G75*
G03*
X28321000Y14668500I-127000J0D01*
G01*
%TO.C,R2*%
X45783500Y9652000D02*
X45783500Y8128000D01*
X48831500Y8128000D02*
X48831500Y9652000D01*
X45783500Y8128000D02*
X46799500Y8128000D01*
X46799500Y9652000D02*
X45783500Y9652000D01*
X47815500Y8128000D02*
X48831500Y8128000D01*
X48831500Y9652000D02*
X47815500Y9652000D01*
X45783500Y9652000D02*
G75*
G03*
X45783500Y9652000I-127000J0D01*
G01*
%TO.C,R3*%
X42227500Y8128000D02*
X43243500Y8128000D01*
X45275500Y8128000D02*
X45275500Y9652000D01*
X45275500Y9652000D02*
X44259500Y9652000D01*
X44259500Y8128000D02*
X45275500Y8128000D01*
X42227500Y9652000D02*
X42227500Y8128000D01*
X43243500Y9652000D02*
X42227500Y9652000D01*
X45529500Y8128000D02*
G75*
G03*
X45529500Y8128000I-127000J0D01*
G01*
%TO.C,R4*%
X34480500Y29718000D02*
X35496500Y29718000D01*
X35496500Y31242000D02*
X34480500Y31242000D01*
X37528500Y31242000D02*
X36512500Y31242000D01*
X34480500Y31242000D02*
X34480500Y29718000D01*
X36512500Y29718000D02*
X37528500Y29718000D01*
X37528500Y29718000D02*
X37528500Y31242000D01*
X37782500Y29718000D02*
G75*
G03*
X37782500Y29718000I-127000J0D01*
G01*
%TO.C,R6*%
X37338000Y9207500D02*
X38862000Y9207500D01*
X38862000Y9207500D02*
X38862000Y10223500D01*
X38862000Y12255500D02*
X37338000Y12255500D01*
X37338000Y10223500D02*
X37338000Y9207500D01*
X38862000Y11239500D02*
X38862000Y12255500D01*
X37338000Y12255500D02*
X37338000Y11239500D01*
X38989000Y12382500D02*
G75*
G03*
X38989000Y12382500I-127000J0D01*
G01*
%TO.C,R7*%
X36322000Y9207500D02*
X36322000Y10223500D01*
X34798000Y9207500D02*
X36322000Y9207500D01*
X36322000Y11239500D02*
X36322000Y12255500D01*
X36322000Y12255500D02*
X34798000Y12255500D01*
X34798000Y10223500D02*
X34798000Y9207500D01*
X34798000Y12255500D02*
X34798000Y11239500D01*
X36449000Y12382500D02*
G75*
G03*
X36449000Y12382500I-127000J0D01*
G01*
%TO.C,R8*%
X45021500Y10414000D02*
X46037500Y10414000D01*
X42989500Y10414000D02*
X44005500Y10414000D01*
X42989500Y11938000D02*
X42989500Y10414000D01*
X46037500Y10414000D02*
X46037500Y11938000D01*
X46037500Y11938000D02*
X45021500Y11938000D01*
X44005500Y11938000D02*
X42989500Y11938000D01*
X42989500Y11938000D02*
G75*
G03*
X42989500Y11938000I-127000J0D01*
G01*
%TO.C,R9*%
X41402000Y11239500D02*
X41402000Y12255500D01*
X39878000Y12255500D02*
X39878000Y11239500D01*
X41402000Y9207500D02*
X41402000Y10223500D01*
X39878000Y10223500D02*
X39878000Y9207500D01*
X39878000Y9207500D02*
X41402000Y9207500D01*
X41402000Y12255500D02*
X39878000Y12255500D01*
X41529000Y12382500D02*
G75*
G03*
X41529000Y12382500I-127000J0D01*
G01*
%TO.C,R10*%
X11430000Y36385500D02*
X12954000Y36385500D01*
X11430000Y39433500D02*
X11430000Y38417500D01*
X11430000Y37401500D02*
X11430000Y36385500D01*
X12954000Y39433500D02*
X11430000Y39433500D01*
X12954000Y38417500D02*
X12954000Y39433500D01*
X12954000Y36385500D02*
X12954000Y37401500D01*
X11557000Y36258500D02*
G75*
G03*
X11557000Y36258500I-127000J0D01*
G01*
%TO.C,R11*%
X48704500Y29210000D02*
X49720500Y29210000D01*
X46672500Y29210000D02*
X47688500Y29210000D01*
X46672500Y30734000D02*
X46672500Y29210000D01*
X49720500Y30734000D02*
X48704500Y30734000D01*
X47688500Y30734000D02*
X46672500Y30734000D01*
X49720500Y29210000D02*
X49720500Y30734000D01*
X46672500Y30734000D02*
G75*
G03*
X46672500Y30734000I-127000J0D01*
G01*
%TO.C,R13*%
X15240000Y36322000D02*
X16764000Y36322000D01*
X16764000Y38354000D02*
X16764000Y39370000D01*
X15240000Y39370000D02*
X15240000Y38354000D01*
X16764000Y36322000D02*
X16764000Y37338000D01*
X15240000Y37338000D02*
X15240000Y36322000D01*
X16764000Y39370000D02*
X15240000Y39370000D01*
X15367000Y36195000D02*
G75*
G03*
X15367000Y36195000I-127000J0D01*
G01*
D13*
%TO.C,U3*%
X47124000Y27292000D02*
X47734000Y27292000D01*
X39724000Y14872000D02*
X41724000Y14872000D01*
X47124000Y14872000D02*
X47724000Y14872000D01*
X39724000Y27292000D02*
X41724000Y27292000D01*
X47734000Y27292000D02*
X47734000Y14872000D01*
X31514000Y27182000D02*
X31514000Y14872000D01*
X31514000Y14872000D02*
X32124000Y14872000D01*
D12*
%TO.C,C2*%
X25971500Y10414000D02*
X25971500Y8890000D01*
X28003500Y8890000D02*
X29019500Y8890000D01*
X26987500Y10414000D02*
X25971500Y10414000D01*
X29019500Y10414000D02*
X28003500Y10414000D01*
X29019500Y8890000D02*
X29019500Y10414000D01*
X25971500Y8890000D02*
X26987500Y8890000D01*
X25971500Y10414000D02*
G75*
G03*
X25971500Y10414000I-127000J0D01*
G01*
D13*
%TO.C,U2*%
X27584000Y13684000D02*
X27584000Y11234000D01*
X24364000Y11884000D02*
X24364000Y13684000D01*
D12*
%TO.C,R5*%
X38862000Y30924500D02*
X38862000Y29908500D01*
X40386000Y31940500D02*
X40386000Y32956500D01*
X38862000Y29908500D02*
X40386000Y29908500D01*
X38862000Y32956500D02*
X38862000Y31940500D01*
X40386000Y32956500D02*
X38862000Y32956500D01*
X40386000Y29908500D02*
X40386000Y30924500D01*
X38989000Y29781500D02*
G75*
G03*
X38989000Y29781500I-127000J0D01*
G01*
D13*
%TO.C,JP4*%
X26624000Y34033000D02*
X27224000Y34033000D01*
X27924000Y34733000D02*
X27924000Y36133000D01*
X27224000Y36833000D02*
X26624000Y36833000D01*
X25924000Y36133000D02*
X25924000Y34733000D01*
X27224000Y34033000D02*
G75*
G03*
X27924000Y34733000I0J700000D01*
G01*
X25924000Y34733000D02*
G75*
G03*
X26624000Y34033000I700000J0D01*
G01*
X26624000Y36833000D02*
G75*
G03*
X25924000Y36133000I-1J-699999D01*
G01*
X27924000Y36133000D02*
G75*
G03*
X27224000Y36833000I-699999J1D01*
G01*
D12*
%TO.C,C4*%
X30226000Y12255500D02*
X30226000Y11239500D01*
X31750000Y11239500D02*
X31750000Y12255500D01*
X31750000Y12255500D02*
X30226000Y12255500D01*
X30226000Y10223500D02*
X30226000Y9207500D01*
X31750000Y9207500D02*
X31750000Y10223500D01*
X30226000Y9207500D02*
X31750000Y9207500D01*
X30353000Y9080500D02*
G75*
G03*
X30353000Y9080500I-127000J0D01*
G01*
D13*
%TO.C,U1*%
X19844000Y22946000D02*
X22294000Y22946000D01*
X21644000Y19726000D02*
X19844000Y19726000D01*
D12*
%TO.C,C5*%
X32258000Y12255500D02*
X32258000Y11239500D01*
X33782000Y11239500D02*
X33782000Y12255500D01*
X32258000Y9207500D02*
X33782000Y9207500D01*
X33782000Y12255500D02*
X32258000Y12255500D01*
X32258000Y10223500D02*
X32258000Y9207500D01*
X33782000Y9207500D02*
X33782000Y10223500D01*
X32385000Y9080500D02*
G75*
G03*
X32385000Y9080500I-127000J0D01*
G01*
%TO.C,R15*%
X42926000Y37020500D02*
X42926000Y38036500D01*
X41402000Y34988500D02*
X42926000Y34988500D01*
X42926000Y34988500D02*
X42926000Y36004500D01*
X41402000Y38036500D02*
X41402000Y37020500D01*
X41402000Y36004500D02*
X41402000Y34988500D01*
X42926000Y38036500D02*
X41402000Y38036500D01*
X43053000Y38163500D02*
G75*
G03*
X43053000Y38163500I-127000J0D01*
G01*
%TO.C,R12*%
X18796000Y39433500D02*
X18796000Y38417500D01*
X20320000Y38417500D02*
X20320000Y39433500D01*
X20320000Y39433500D02*
X18796000Y39433500D01*
X18796000Y37401500D02*
X18796000Y36385500D01*
X20320000Y36385500D02*
X20320000Y37401500D01*
X18796000Y36385500D02*
X20320000Y36385500D01*
X18923000Y36258500D02*
G75*
G03*
X18923000Y36258500I-127000J0D01*
G01*
%TO.C,R16*%
X23862000Y39476500D02*
X22338000Y39476500D01*
D13*
X23862000Y38333500D02*
X23862000Y37571500D01*
D12*
X22338000Y36428500D02*
X23862000Y36428500D01*
D13*
X22338000Y38333500D02*
X22338000Y37571500D01*
%TO.C,R14*%
X25078000Y31816500D02*
X25078000Y32578500D01*
D12*
X25078000Y30673500D02*
X26602000Y30673500D01*
D13*
X26602000Y31816500D02*
X26602000Y32578500D01*
D12*
X26602000Y33721500D02*
X25078000Y33721500D01*
D13*
%TO.C,Q1*%
X25275000Y36393000D02*
X25275000Y37323000D01*
X25275000Y39553000D02*
X25275000Y38623000D01*
X25275000Y36393000D02*
X26735000Y36393000D01*
X25275000Y39553000D02*
X27435000Y39553000D01*
%TD*%
D14*
%TO.C,D3*%
X12192000Y33274000D03*
%TD*%
%TO.C,D5*%
X16002000Y33274000D03*
%TD*%
%TO.C,D6*%
X23114000Y33306000D03*
%TD*%
%TO.C,D4*%
X19558000Y33306000D03*
%TD*%
M02*
