%TF.GenerationSoftware,KiCad,Pcbnew,6.0.4-6f826c9f35~116~ubuntu20.04.1*%
%TF.CreationDate,2022-08-14T20:25:35+00:00*%
%TF.ProjectId,GPS02B,47505330-3242-42e6-9b69-6361645f7063,REV*%
%TF.SameCoordinates,Original*%
%TF.FileFunction,Soldermask,Top*%
%TF.FilePolarity,Negative*%
%FSLAX46Y46*%
G04 Gerber Fmt 4.6, Leading zero omitted, Abs format (unit mm)*
G04 Created by KiCad (PCBNEW 6.0.4-6f826c9f35~116~ubuntu20.04.1) date 2022-08-14 20:25:35*
%MOMM*%
%LPD*%
G01*
G04 APERTURE LIST*
G04 Aperture macros list*
%AMRoundRect*
0 Rectangle with rounded corners*
0 $1 Rounding radius*
0 $2 $3 $4 $5 $6 $7 $8 $9 X,Y pos of 4 corners*
0 Add a 4 corners polygon primitive as box body*
4,1,4,$2,$3,$4,$5,$6,$7,$8,$9,$2,$3,0*
0 Add four circle primitives for the rounded corners*
1,1,$1+$1,$2,$3*
1,1,$1+$1,$4,$5*
1,1,$1+$1,$6,$7*
1,1,$1+$1,$8,$9*
0 Add four rect primitives between the rounded corners*
20,1,$1+$1,$2,$3,$4,$5,0*
20,1,$1+$1,$4,$5,$6,$7,0*
20,1,$1+$1,$6,$7,$8,$9,0*
20,1,$1+$1,$8,$9,$2,$3,0*%
G04 Aperture macros list end*
%ADD10RoundRect,0.200000X0.800000X0.800000X-0.800000X0.800000X-0.800000X-0.800000X0.800000X-0.800000X0*%
%ADD11C,2.000000*%
%ADD12RoundRect,0.200000X0.762000X-0.762000X0.762000X0.762000X-0.762000X0.762000X-0.762000X-0.762000X0*%
%ADD13RoundRect,0.200000X0.850000X0.850000X-0.850000X0.850000X-0.850000X-0.850000X0.850000X-0.850000X0*%
%ADD14C,2.100000*%
%ADD15C,3.900000*%
%ADD16RoundRect,0.200000X-0.762000X0.762000X-0.762000X-0.762000X0.762000X-0.762000X0.762000X0.762000X0*%
%ADD17C,2.900000*%
%ADD18C,3.100000*%
%ADD19RoundRect,0.200000X0.762000X0.762000X-0.762000X0.762000X-0.762000X-0.762000X0.762000X-0.762000X0*%
%ADD20C,6.400000*%
%ADD21RoundRect,0.200000X-0.762000X-0.762000X0.762000X-0.762000X0.762000X0.762000X-0.762000X0.762000X0*%
G04 APERTURE END LIST*
D10*
%TO.C,C1*%
X23876000Y18288000D03*
D11*
X20376000Y18288000D03*
%TD*%
D12*
%TO.C,J1*%
X11430000Y4572000D03*
X11430000Y7112000D03*
X13970000Y4572000D03*
X13970000Y7112000D03*
X16510000Y4572000D03*
X16510000Y7112000D03*
%TD*%
D13*
%TO.C,J2*%
X15494000Y19050000D03*
D14*
X15494000Y21550000D03*
X13494000Y21550000D03*
X13494000Y19050000D03*
D15*
X10784000Y14280000D03*
X10784000Y26320000D03*
%TD*%
D12*
%TO.C,J3*%
X24130000Y3810000D03*
X24130000Y6350000D03*
X26670000Y3810000D03*
X26670000Y6350000D03*
X29210000Y3810000D03*
X29210000Y6350000D03*
%TD*%
D16*
%TO.C,J4*%
X35560000Y6350000D03*
X35560000Y3810000D03*
%TD*%
%TO.C,J5*%
X33020000Y6350000D03*
X33020000Y3810000D03*
%TD*%
%TO.C,J6*%
X47244000Y6350000D03*
X47244000Y3810000D03*
%TD*%
%TO.C,J8*%
X44704000Y6350000D03*
X44704000Y3810000D03*
%TD*%
%TO.C,J9*%
X49784000Y6350000D03*
X49784000Y3810000D03*
%TD*%
%TO.C,J10*%
X39624000Y6350000D03*
X39624000Y3810000D03*
%TD*%
D12*
%TO.C,J11*%
X34544000Y34544000D03*
X34544000Y37084000D03*
%TD*%
D16*
%TO.C,J13*%
X37084000Y37084000D03*
X37084000Y34544000D03*
%TD*%
%TO.C,J14*%
X51054000Y16764000D03*
X51054000Y14224000D03*
%TD*%
D12*
%TO.C,J15*%
X44958000Y34544000D03*
X44958000Y37084000D03*
X47498000Y34544000D03*
X47498000Y37084000D03*
X50038000Y34544000D03*
X50038000Y37084000D03*
%TD*%
%TO.C,J16*%
X32004000Y34544000D03*
X32004000Y37084000D03*
%TD*%
D17*
%TO.C,J18*%
X55372000Y24384000D03*
D18*
X57912000Y21844000D03*
X52832000Y26924000D03*
X52832000Y21844000D03*
X57912000Y26924000D03*
%TD*%
D19*
%TO.C,JP6*%
X27178000Y25400000D03*
X27178000Y27940000D03*
%TD*%
%TO.C,JP7*%
X22098000Y25400000D03*
X22098000Y27940000D03*
%TD*%
%TO.C,JP8*%
X24638000Y25400000D03*
X24638000Y27940000D03*
%TD*%
D20*
%TO.C,M1*%
X5080000Y5080000D03*
%TD*%
%TO.C,M2*%
X55880000Y35560000D03*
%TD*%
%TO.C,M3*%
X55880000Y5080000D03*
%TD*%
%TO.C,M4*%
X5080000Y35560000D03*
%TD*%
D12*
%TO.C,JP1*%
X11430000Y10160000D03*
X13970000Y10160000D03*
X16510000Y10160000D03*
%TD*%
D19*
%TO.C,JP9*%
X19558000Y25400000D03*
X19558000Y27940000D03*
%TD*%
D21*
%TO.C,JP2*%
X39624000Y37084000D03*
X39624000Y34544000D03*
%TD*%
D16*
%TO.C,J12*%
X29464000Y37084000D03*
X29464000Y34544000D03*
%TD*%
%TO.C,J7*%
X42164000Y6350000D03*
X42164000Y3810000D03*
%TD*%
D18*
%TO.C,D3*%
X12192000Y33274000D03*
%TD*%
%TO.C,D5*%
X16002000Y33274000D03*
%TD*%
%TO.C,D6*%
X23114000Y33306000D03*
%TD*%
%TO.C,D4*%
X19558000Y33306000D03*
%TD*%
M02*
