M48
; DRILL file {KiCad 6.0.4-6f826c9f35~116~ubuntu20.04.1} date Sun Aug 14 20:25:35 2022
; FORMAT={-:-/ absolute / metric / decimal}
; #@! TF.CreationDate,2022-08-14T20:25:35+00:00
; #@! TF.GenerationSoftware,Kicad,Pcbnew,6.0.4-6f826c9f35~116~ubuntu20.04.1
; #@! TF.FileFunction,Plated,1,2,PTH
FMAT,2
METRIC
; #@! TA.AperFunction,Plated,PTH,ViaDrill
T1C0.400
; #@! TA.AperFunction,Plated,PTH,ComponentDrill
T2C0.800
; #@! TA.AperFunction,Plated,PTH,ComponentDrill
T3C0.889
; #@! TA.AperFunction,Plated,PTH,ComponentDrill
T4C0.920
; #@! TA.AperFunction,Plated,PTH,ComponentDrill
T5C1.500
; #@! TA.AperFunction,Plated,PTH,ComponentDrill
T6C1.700
; #@! TA.AperFunction,Plated,PTH,ComponentDrill
T7C2.330
; #@! TA.AperFunction,Plated,PTH,ComponentDrill
T8C3.000
%
G90
G05
T1
X1.524Y31.496
X1.524Y30.48
X1.524Y29.464
X1.524Y28.448
X1.524Y27.432
X1.524Y26.416
X1.524Y25.4
X1.524Y24.384
X1.524Y23.368
X1.524Y22.352
X1.524Y21.336
X1.524Y20.32
X1.524Y19.304
X1.524Y18.288
X1.524Y17.272
X1.524Y16.256
X1.524Y15.24
X1.524Y14.224
X1.524Y13.208
X1.524Y12.192
X1.524Y11.176
X1.524Y10.16
X6.35Y28.702
X7.112Y25.908
X7.112Y24.384
X7.112Y22.86
X7.112Y18.288
X7.112Y16.764
X7.112Y15.24
X7.366Y28.702
X7.747Y11.049
X7.747Y9.906
X8.382Y28.702
X8.636Y22.86
X8.636Y18.288
X8.89Y11.049
X8.89Y9.906
X10.16Y38.608
X10.16Y22.86
X10.16Y18.288
X10.16Y2.032
X11.176Y29.972
X11.176Y20.828
X11.176Y19.304
X11.176Y17.78
X12.192Y23.368
X12.192Y2.032
X13.208Y28.448
X13.208Y24.384
X14.224Y38.608
X14.224Y26.924
X14.224Y25.4
X14.732Y2.032
X15.748Y26.924
X15.748Y25.4
X16.764Y2.032
X17.272Y26.924
X17.272Y25.4
X17.78Y38.608
X17.78Y18.796
X18.288Y23.368
X18.288Y21.336
X18.288Y17.272
X18.288Y11.684
X18.288Y9.144
X18.796Y6.096
X18.796Y4.572
X18.796Y3.048
X18.796Y2.032
X21.336Y38.608
X21.844Y23.368
X21.971Y12.954
X22.246Y15.642
X23.876Y1.524
X24.892Y15.24
X25.4Y1.524
X26.924Y1.524
X27.432Y31.496
X27.432Y17.78
X27.94Y8.128
X28.178Y10.398
X28.448Y1.524
X29.083Y39.243
X30.464Y8.112
X30.48Y1.524
X30.607Y39.243
X30.861Y15.24
X32.004Y39.243
X32.004Y23.876
X32.004Y22.352
X32.004Y20.828
X32.004Y19.304
X32.004Y17.78
X32.004Y8.636
X32.004Y1.524
X32.512Y30.48
X33.02Y24.892
X33.528Y29.464
X33.528Y17.272
X33.528Y1.524
X33.655Y39.243
X33.655Y30.734
X34.544Y28.956
X34.544Y24.892
X34.544Y13.208
X35.052Y17.272
X35.052Y1.524
X35.179Y39.243
X36.068Y28.956
X36.068Y24.892
X36.576Y17.272
X36.576Y1.524
X36.703Y39.243
X37.592Y24.892
X37.592Y6.604
X37.592Y4.572
X37.592Y3.048
X38.1Y17.272
X38.1Y1.524
X38.481Y39.243
X39.116Y24.892
X39.116Y23.368
X39.116Y21.844
X39.116Y20.32
X39.116Y18.796
X39.624Y17.272
X39.624Y1.524
X40.259Y39.243
X40.64Y24.892
X41.148Y17.272
X41.148Y1.524
X41.656Y29.972
X42.164Y28.956
X42.164Y24.892
X42.672Y17.272
X42.672Y1.524
X43.18Y12.7
X43.307Y39.37
X43.307Y30.353
X43.688Y24.892
X44.196Y17.272
X44.196Y1.524
X44.45Y12.7
X44.704Y23.876
X45.72Y22.86
X45.72Y17.272
X45.72Y1.524
X46.609Y12.192
X47.244Y22.86
X47.244Y17.272
X47.244Y1.524
X47.752Y28.448
X47.752Y26.416
X48.26Y18.288
X48.26Y11.684
X48.768Y32.004
X48.768Y19.812
X48.768Y1.524
X49.276Y22.86
X49.276Y10.668
X49.784Y21.336
X50.292Y32.004
X50.292Y19.812
X50.292Y11.684
X50.292Y1.524
X50.8Y8.636
X51.816Y18.796
X52.324Y32.004
X52.324Y10.16
X52.324Y8.128
X52.324Y6.604
X52.324Y5.08
X52.324Y3.556
X52.324Y2.032
X53.34Y18.288
X53.34Y16.764
X53.34Y14.732
X53.34Y12.192
X54.356Y10.16
X54.991Y18.288
X54.991Y16.51
X54.991Y14.605
X54.991Y12.192
X55.88Y30.988
X55.88Y29.464
X56.388Y10.16
X56.896Y18.288
X57.912Y16.383
X57.912Y13.081
X58.42Y10.16
X58.801Y18.796
X59.69Y19.685
T2
X20.376Y18.288
X23.876Y18.288
T3
X11.43Y10.16
X11.43Y7.112
X11.43Y4.572
X13.97Y10.16
X13.97Y7.112
X13.97Y4.572
X16.51Y10.16
X16.51Y7.112
X16.51Y4.572
X19.558Y27.94
X19.558Y25.4
X22.098Y27.94
X22.098Y25.4
X24.13Y6.35
X24.13Y3.81
X24.638Y27.94
X24.638Y25.4
X26.67Y6.35
X26.67Y3.81
X27.178Y27.94
X27.178Y25.4
X29.21Y6.35
X29.21Y3.81
X29.464Y37.084
X29.464Y34.544
X32.004Y37.084
X32.004Y34.544
X33.02Y6.35
X33.02Y3.81
X34.544Y37.084
X34.544Y34.544
X35.56Y6.35
X35.56Y3.81
X37.084Y37.084
X37.084Y34.544
X39.624Y37.084
X39.624Y34.544
X39.624Y6.35
X39.624Y3.81
X42.164Y6.35
X42.164Y3.81
X44.704Y6.35
X44.704Y3.81
X44.958Y37.084
X44.958Y34.544
X47.244Y6.35
X47.244Y3.81
X47.498Y37.084
X47.498Y34.544
X49.784Y6.35
X49.784Y3.81
X50.038Y37.084
X50.038Y34.544
X51.054Y16.764
X51.054Y14.224
T4
X13.494Y21.55
X13.494Y19.05
X15.494Y21.55
X15.494Y19.05
T5
X55.372Y24.384
T6
X52.832Y26.924
X52.832Y21.844
X57.912Y26.924
X57.912Y21.844
T7
X10.784Y26.32
X10.784Y14.28
T8
X5.08Y35.56
X5.08Y5.08
X55.88Y35.56
X55.88Y5.08
T0
M30
