G04 #@! TF.GenerationSoftware,KiCad,Pcbnew,(5.99.0-10394-g2e15de97e0)*
G04 #@! TF.CreationDate,2021-07-20T09:33:55+02:00*
G04 #@! TF.ProjectId,GPS02B,47505330-3242-42e6-9b69-6361645f7063,REV*
G04 #@! TF.SameCoordinates,Original*
G04 #@! TF.FileFunction,Copper,L1,Top*
G04 #@! TF.FilePolarity,Positive*
%FSLAX46Y46*%
G04 Gerber Fmt 4.6, Leading zero omitted, Abs format (unit mm)*
G04 Created by KiCad (PCBNEW (5.99.0-10394-g2e15de97e0)) date 2021-07-20 09:33:55*
%MOMM*%
%LPD*%
G01*
G04 APERTURE LIST*
G04 #@! TA.AperFunction,ComponentPad*
%ADD10C,2.500000*%
G04 #@! TD*
G04 #@! TA.AperFunction,ComponentPad*
%ADD11C,2.700000*%
G04 #@! TD*
G04 #@! TA.AperFunction,ComponentPad*
%ADD12R,1.600000X1.600000*%
G04 #@! TD*
G04 #@! TA.AperFunction,ComponentPad*
%ADD13C,1.600000*%
G04 #@! TD*
G04 #@! TA.AperFunction,ComponentPad*
%ADD14R,1.524000X1.524000*%
G04 #@! TD*
G04 #@! TA.AperFunction,ComponentPad*
%ADD15R,1.700000X1.700000*%
G04 #@! TD*
G04 #@! TA.AperFunction,ComponentPad*
%ADD16C,1.700000*%
G04 #@! TD*
G04 #@! TA.AperFunction,ComponentPad*
%ADD17C,3.500000*%
G04 #@! TD*
G04 #@! TA.AperFunction,ComponentPad*
%ADD18C,6.000000*%
G04 #@! TD*
G04 #@! TA.AperFunction,ViaPad*
%ADD19C,0.800000*%
G04 #@! TD*
G04 #@! TA.AperFunction,Conductor*
%ADD20C,0.500000*%
G04 #@! TD*
G04 #@! TA.AperFunction,Conductor*
%ADD21C,0.400000*%
G04 #@! TD*
G04 #@! TA.AperFunction,Conductor*
%ADD22C,1.000000*%
G04 #@! TD*
G04 APERTURE END LIST*
D10*
X55372000Y24384000D03*
D11*
X52832000Y26924000D03*
X57912000Y21844000D03*
X52832000Y21844000D03*
X57912000Y26924000D03*
D12*
X23876000Y18288000D03*
D13*
X20376000Y18288000D03*
D14*
X11430000Y4572000D03*
X11430000Y7112000D03*
X13970000Y4572000D03*
X13970000Y7112000D03*
X16510000Y4572000D03*
X16510000Y7112000D03*
D15*
X15494000Y19050000D03*
D16*
X15494000Y21550000D03*
X13494000Y21550000D03*
X13494000Y19050000D03*
D17*
X10784000Y14280000D03*
X10784000Y26320000D03*
D14*
X24130000Y3810000D03*
X24130000Y6350000D03*
X26670000Y3810000D03*
X26670000Y6350000D03*
X29210000Y3810000D03*
X29210000Y6350000D03*
X35560000Y6350000D03*
X35560000Y3810000D03*
X33020000Y6350000D03*
X33020000Y3810000D03*
X47244000Y6350000D03*
X47244000Y3810000D03*
X44704000Y6350000D03*
X44704000Y3810000D03*
X49784000Y6350000D03*
X49784000Y3810000D03*
X39624000Y6350000D03*
X39624000Y3810000D03*
X34544000Y34544000D03*
X34544000Y37084000D03*
X37084000Y37084000D03*
X37084000Y34544000D03*
X51054000Y16764000D03*
X51054000Y14224000D03*
X44958000Y34544000D03*
X44958000Y37084000D03*
X47498000Y34544000D03*
X47498000Y37084000D03*
X50038000Y34544000D03*
X50038000Y37084000D03*
X32004000Y34544000D03*
X32004000Y37084000D03*
X27178000Y25400000D03*
X27178000Y27940000D03*
X22098000Y25400000D03*
X22098000Y27940000D03*
X24638000Y25400000D03*
X24638000Y27940000D03*
D18*
X5080000Y5080000D03*
X55880000Y35560000D03*
X55880000Y5080000D03*
X5080000Y35560000D03*
D14*
X11430000Y10160000D03*
X13970000Y10160000D03*
X16510000Y10160000D03*
X19558000Y25400000D03*
X19558000Y27940000D03*
X39624000Y37084000D03*
X39624000Y34544000D03*
X29464000Y37084000D03*
X29464000Y34544000D03*
X42164000Y6350000D03*
X42164000Y3810000D03*
D19*
X43307000Y39370000D03*
X40259000Y39243000D03*
X38481000Y39243000D03*
X36703000Y39243000D03*
X35179000Y39243000D03*
X33655000Y39243000D03*
X32004000Y39243000D03*
X30607000Y39243000D03*
X29083000Y39243000D03*
X57912000Y13081000D03*
X57912000Y16383000D03*
X59690000Y19685000D03*
X58801000Y18796000D03*
X56896000Y18288000D03*
X54991000Y16510000D03*
X54991000Y18288000D03*
X54991000Y14605000D03*
X54991000Y12192000D03*
X21336000Y38608000D03*
X7366000Y28702000D03*
X6350000Y28702000D03*
X21844000Y23368000D03*
X33655000Y30734000D03*
X43307000Y30353000D03*
X46609000Y12192000D03*
X30861000Y15240000D03*
X21971000Y12954000D03*
X7747000Y11049000D03*
X7747000Y9906000D03*
X8890000Y9906000D03*
X8890000Y11049000D03*
X34544000Y24892000D03*
X13208000Y28448000D03*
X52324000Y2032000D03*
X30480000Y1524000D03*
X12192000Y23368000D03*
X44704000Y23876000D03*
X33020000Y24892000D03*
X53340000Y16764000D03*
X40640000Y24892000D03*
X7112000Y15240000D03*
X39116000Y21844000D03*
X49276000Y10668000D03*
X41148000Y17272000D03*
X11176000Y17780000D03*
X37592000Y24892000D03*
X18288000Y9144000D03*
X35052000Y1524000D03*
X28178182Y10398182D03*
X53340000Y12192000D03*
X36576000Y1524000D03*
X37592000Y3048000D03*
X1524000Y26416000D03*
X39624000Y1524000D03*
X45720000Y17272000D03*
X13208000Y24384000D03*
X45720000Y1524000D03*
X44196000Y17272000D03*
X18288000Y17272000D03*
X48768000Y19812000D03*
X15748000Y26924000D03*
X1524000Y30480000D03*
X28448000Y1524000D03*
X32004000Y23876000D03*
X7112000Y22860000D03*
X27940000Y8128000D03*
X32004000Y22352000D03*
X15748000Y25400000D03*
X50292000Y1524000D03*
X7112000Y24384000D03*
X37592000Y4572000D03*
X33528000Y17272000D03*
X1524000Y10160000D03*
X47244000Y17272000D03*
X10160000Y18288000D03*
X1524000Y15240000D03*
X33528000Y1524000D03*
X36068000Y24892000D03*
X37592000Y6604000D03*
X38100000Y17272000D03*
X1524000Y25400000D03*
X8636000Y18288000D03*
X17272000Y26924000D03*
X50292000Y11684000D03*
X32004000Y20828000D03*
X56388000Y10160000D03*
X53340000Y14732000D03*
X18288000Y11684000D03*
X58420000Y10160000D03*
X47244000Y22860000D03*
X32004000Y17780000D03*
X1524000Y29464000D03*
X41148000Y1524000D03*
X50292000Y19812000D03*
X8382000Y28702000D03*
X16764000Y2032000D03*
X10160000Y38608000D03*
X55880000Y29464000D03*
X1524000Y17272000D03*
X7112000Y18288000D03*
X22246182Y15642182D03*
X11176000Y19304000D03*
X39116000Y23368000D03*
X52324000Y3556000D03*
X11176000Y29972000D03*
X36576000Y17272000D03*
X1524000Y18288000D03*
X42672000Y17272000D03*
X26924000Y1524000D03*
X35052000Y17272000D03*
X43688000Y24892000D03*
X10160000Y22860000D03*
X54356000Y10160000D03*
X1524000Y19304000D03*
X1524000Y23368000D03*
X52324000Y10160000D03*
X1524000Y13208000D03*
X51816000Y18796000D03*
X18796000Y3048000D03*
X17272000Y25400000D03*
X39116000Y20320000D03*
X50292000Y32004000D03*
X17780000Y38608000D03*
X53340000Y18288000D03*
X1524000Y16256000D03*
X32004000Y19304000D03*
X1524000Y31496000D03*
X48768000Y1524000D03*
X12192000Y2032000D03*
X49784000Y21336000D03*
X25400000Y1524000D03*
X52324000Y5080000D03*
X14224000Y38608000D03*
X14732000Y2032000D03*
X1524000Y12192000D03*
X14224000Y26924000D03*
X52324000Y6604000D03*
X39116000Y18796000D03*
X47752000Y28448000D03*
X42672000Y1524000D03*
X42164000Y24892000D03*
X1524000Y11176000D03*
X44196000Y1524000D03*
X50800000Y8636000D03*
X18796000Y2032000D03*
X23876000Y1524000D03*
X55880000Y30988000D03*
X30464182Y8112182D03*
X48260000Y11684000D03*
X7112000Y25908000D03*
X47752000Y26416000D03*
X1524000Y24384000D03*
X17780000Y18796000D03*
X10160000Y2032000D03*
X1524000Y22352000D03*
X18288000Y23368000D03*
X1524000Y28448000D03*
X39624000Y17272000D03*
X52324000Y8128000D03*
X48768000Y32004000D03*
X1524000Y20320000D03*
X39116000Y24892000D03*
X45720000Y22860000D03*
X1524000Y27432000D03*
X18796000Y4572000D03*
X1524000Y14224000D03*
X18796000Y6096000D03*
X38100000Y1524000D03*
X7112000Y16764000D03*
X49276000Y22860000D03*
X47244000Y1524000D03*
X1524000Y21336000D03*
X52324000Y32004000D03*
X32004000Y1524000D03*
X11176000Y20828000D03*
X8636000Y22860000D03*
X14224000Y25400000D03*
X48260000Y18288000D03*
X27432000Y17780000D03*
X34544000Y13208000D03*
X32004000Y8636000D03*
X24892000Y15240000D03*
X18288000Y21336000D03*
X44450000Y12700000D03*
X43180000Y12700000D03*
X34544000Y28956000D03*
X36068000Y28956000D03*
X32512000Y30480000D03*
X42164000Y28956000D03*
X41656000Y29972000D03*
X27432000Y31496000D03*
X33528000Y29464000D03*
D20*
X16764000Y2032000D02*
X14732000Y2032000D01*
X47244000Y17272000D02*
X48260000Y18288000D01*
X43688000Y24892000D02*
X42164000Y24892000D01*
X49784000Y20320000D02*
X50292000Y19812000D01*
X52324000Y11176000D02*
X52324000Y10160000D01*
X12192000Y2032000D02*
X10160000Y2032000D01*
X18796000Y4572000D02*
X18796000Y6096000D01*
X51816000Y11684000D02*
X52324000Y11176000D01*
X15748000Y26924000D02*
X14224000Y26924000D01*
X41148000Y1524000D02*
X42672000Y1524000D01*
X35052000Y17272000D02*
X36576000Y17272000D01*
X52324000Y2032000D02*
X52324000Y3556000D01*
X22246182Y15642182D02*
X22246182Y15272180D01*
X44196000Y1524000D02*
X45720000Y1524000D01*
X18288000Y18288000D02*
X17780000Y18796000D01*
X32004000Y23876000D02*
X32004000Y22352000D01*
X39116000Y24892000D02*
X39116000Y23368000D01*
X52324000Y11176000D02*
X53340000Y12192000D01*
X18288000Y17272000D02*
X18288000Y18288000D01*
X41148000Y17272000D02*
X42672000Y17272000D01*
X49276000Y10668000D02*
X48260000Y11684000D01*
X54356000Y10160000D02*
X56388000Y10160000D01*
X18796000Y3048000D02*
X18796000Y2032000D01*
X48768000Y1524000D02*
X50292000Y1524000D01*
X44704000Y23876000D02*
X45720000Y22860000D01*
X30448364Y8128000D02*
X30464182Y8112182D01*
X51308000Y8128000D02*
X50800000Y8636000D01*
X34544000Y24892000D02*
X33020000Y24892000D01*
X36576000Y1524000D02*
X38100000Y1524000D01*
X10784000Y26320000D02*
X10764000Y26320000D01*
X50292000Y11684000D02*
X51816000Y11684000D01*
X52324000Y8128000D02*
X51308000Y8128000D01*
X50038000Y34544000D02*
X50038000Y32258000D01*
X33528000Y1524000D02*
X35052000Y1524000D01*
X44196000Y17272000D02*
X45720000Y17272000D01*
X52324000Y5080000D02*
X52324000Y6604000D01*
X14224000Y25400000D02*
X15748000Y25400000D01*
X22246182Y15272180D02*
X21706002Y14732000D01*
X39116000Y21844000D02*
X39116000Y20320000D01*
X33020000Y17780000D02*
X33528000Y17272000D01*
X38100000Y17272000D02*
X39624000Y17272000D01*
X12700000Y28448000D02*
X11176000Y29972000D01*
X47244000Y1524000D02*
X48768000Y1524000D01*
X49784000Y21336000D02*
X49784000Y20320000D01*
X40640000Y24892000D02*
X39116000Y24892000D01*
X30480000Y1524000D02*
X32004000Y1524000D01*
X37592000Y3048000D02*
X37592000Y4572000D01*
X32004000Y17780000D02*
X33020000Y17780000D01*
X13208000Y28448000D02*
X12700000Y28448000D01*
X32004000Y20828000D02*
X32004000Y19304000D01*
X18288000Y9144000D02*
X18288000Y11684000D01*
X47244000Y22860000D02*
X49276000Y22860000D01*
X39624000Y1524000D02*
X41148000Y1524000D01*
X58420000Y10160000D02*
X58420000Y10668000D01*
X37592000Y24892000D02*
X36068000Y24892000D01*
X27940000Y8128000D02*
X30448364Y8128000D01*
X21336000Y38608000D02*
X17780000Y38608000D01*
X55880000Y30988000D02*
X55880000Y29464000D01*
X47752000Y28448000D02*
X47752000Y26416000D01*
X17272000Y25400000D02*
X17272000Y26924000D01*
X10764000Y26320000D02*
X8382000Y28702000D01*
X17780000Y38608000D02*
X14224000Y38608000D01*
X53340000Y14732000D02*
X53340000Y16764000D01*
X50038000Y32258000D02*
X50292000Y32004000D01*
X12192000Y23368000D02*
X13208000Y24384000D01*
X50292000Y32004000D02*
X52324000Y32004000D01*
X23876000Y1524000D02*
X25400000Y1524000D01*
X26924000Y1524000D02*
X28448000Y1524000D01*
D21*
X27432000Y16256000D02*
X27432000Y17780000D01*
X34544000Y13208000D02*
X30480000Y13208000D01*
X30480000Y13208000D02*
X27432000Y16256000D01*
D22*
X32004000Y8636000D02*
X31496000Y8636000D01*
X19558000Y25400000D02*
X19558000Y23638000D01*
X44704000Y8112000D02*
X44180000Y8636000D01*
X19558000Y23638000D02*
X22262000Y20934000D01*
X24892000Y15240000D02*
X24204000Y15240000D01*
X24204000Y15240000D02*
X22262000Y17182000D01*
X44180000Y8636000D02*
X32004000Y8636000D01*
X31496000Y8636000D02*
X24892000Y15240000D01*
X22262000Y20934000D02*
X22262000Y17182000D01*
X44704000Y6350000D02*
X44704000Y8112000D01*
D21*
X18288000Y21336000D02*
X17780000Y21336000D01*
X17780000Y21336000D02*
X15494000Y19050000D01*
X16256000Y19812000D02*
X15494000Y19050000D01*
X25729448Y21514552D02*
X25729449Y16094009D01*
X22098000Y25400000D02*
X22098000Y25146000D01*
X30431462Y11391996D02*
X43141996Y11391996D01*
X22098000Y25146000D02*
X25729448Y21514552D01*
X25729449Y16094009D02*
X30431462Y11391996D01*
X43141996Y11391996D02*
X44450000Y12700000D01*
X26329458Y22546542D02*
X24638000Y24238000D01*
X42729693Y12249693D02*
X30422307Y12249693D01*
X26329458Y16342542D02*
X26329458Y22546542D01*
X43180000Y12700000D02*
X42729693Y12249693D01*
X24638000Y24238000D02*
X24638000Y25400000D01*
X30422307Y12249693D02*
X26329458Y16342542D01*
X27178000Y25654000D02*
X30080001Y28556001D01*
X27178000Y25400000D02*
X27178000Y25654000D01*
X32004000Y34544000D02*
X34544000Y32004000D01*
X34144001Y28556001D02*
X34544000Y28956000D01*
X34544000Y32004000D02*
X34544000Y28956000D01*
X30080001Y28556001D02*
X34144001Y28556001D01*
X36068000Y31858000D02*
X36068000Y29521685D01*
X34544000Y33382000D02*
X36068000Y31858000D01*
X36068000Y29521685D02*
X36068000Y28956000D01*
X34544000Y34544000D02*
X34544000Y33382000D01*
X32366000Y30480000D02*
X32512000Y30480000D01*
X29464000Y33382000D02*
X32366000Y30480000D01*
X29464000Y34544000D02*
X29464000Y33382000D01*
X37084000Y34544000D02*
X37084000Y33359998D01*
X41487998Y28956000D02*
X42164000Y28956000D01*
X37084000Y33359998D02*
X41487998Y28956000D01*
X41656000Y36214000D02*
X40786000Y37084000D01*
X40786000Y37084000D02*
X39624000Y37084000D01*
X41656000Y29972000D02*
X41656000Y36214000D01*
X31496000Y29464000D02*
X32004000Y29464000D01*
X29464000Y29464000D02*
X27432000Y31496000D01*
X32004000Y29464000D02*
X29464000Y29464000D01*
X32004000Y29464000D02*
X33528000Y29464000D01*
G04 #@! TA.AperFunction,Conductor*
G36*
X60165191Y39867093D02*
G01*
X60201155Y39817593D01*
X60206000Y39787000D01*
X60206000Y853000D01*
X60187093Y794809D01*
X60137593Y758845D01*
X60107000Y754000D01*
X853000Y754000D01*
X794809Y772907D01*
X758845Y822407D01*
X754000Y853000D01*
X754000Y4309757D01*
X10155000Y4309757D01*
X10155000Y3811764D01*
X10155126Y3808244D01*
X10159843Y3742285D01*
X10161717Y3731900D01*
X10199364Y3603686D01*
X10205187Y3590935D01*
X10276472Y3480013D01*
X10285651Y3469419D01*
X10385299Y3383074D01*
X10397090Y3375496D01*
X10517029Y3320722D01*
X10530484Y3316772D01*
X10664491Y3297505D01*
X10671543Y3297000D01*
X11160320Y3297000D01*
X11173005Y3301122D01*
X11176000Y3305243D01*
X11176000Y4302320D01*
X11171878Y4315005D01*
X11167757Y4318000D01*
X10170680Y4318000D01*
X10157995Y4313878D01*
X10155000Y4309757D01*
X754000Y4309757D01*
X754000Y6849757D01*
X10155000Y6849757D01*
X10155000Y6351764D01*
X10155126Y6348244D01*
X10159843Y6282285D01*
X10161717Y6271900D01*
X10199364Y6143686D01*
X10205187Y6130935D01*
X10276472Y6020013D01*
X10285651Y6009419D01*
X10385305Y5923069D01*
X10385766Y5922773D01*
X10386055Y5922419D01*
X10390651Y5918437D01*
X10389961Y5917641D01*
X10424492Y5875403D01*
X10427979Y5814317D01*
X10394894Y5762848D01*
X10385757Y5756211D01*
X10338013Y5725528D01*
X10327419Y5716349D01*
X10241074Y5616701D01*
X10233496Y5604910D01*
X10178722Y5484971D01*
X10174772Y5471516D01*
X10155505Y5337509D01*
X10155000Y5330457D01*
X10155000Y4841680D01*
X10159122Y4828995D01*
X10163243Y4826000D01*
X11160320Y4826000D01*
X11173005Y4830122D01*
X11176000Y4834243D01*
X11176000Y6842320D01*
X11171878Y6855005D01*
X11167757Y6858000D01*
X10170680Y6858000D01*
X10157995Y6853878D01*
X10155000Y6849757D01*
X754000Y6849757D01*
X754000Y7870457D01*
X10155000Y7870457D01*
X10155000Y7381680D01*
X10159122Y7368995D01*
X10163243Y7366000D01*
X11160320Y7366000D01*
X11173005Y7370122D01*
X11176000Y7374243D01*
X11176000Y8371320D01*
X11173583Y8378757D01*
X11684000Y8378757D01*
X11684000Y3312680D01*
X11688122Y3299995D01*
X11692243Y3297000D01*
X12190236Y3297000D01*
X12193756Y3297126D01*
X12259715Y3301843D01*
X12270100Y3303717D01*
X12398314Y3341364D01*
X12411065Y3347187D01*
X12521987Y3418472D01*
X12532581Y3427651D01*
X12618926Y3527299D01*
X12626504Y3539090D01*
X12681278Y3659029D01*
X12685228Y3672484D01*
X12704496Y3806493D01*
X12704884Y3811922D01*
X12727894Y3868616D01*
X12779834Y3900957D01*
X12840863Y3896592D01*
X12887672Y3857189D01*
X12902526Y3809433D01*
X12903803Y3781812D01*
X12934528Y3673827D01*
X13002186Y3584233D01*
X13097641Y3525130D01*
X13145314Y3516218D01*
X13203493Y3505342D01*
X13203498Y3505341D01*
X13208000Y3504500D01*
X14732000Y3504500D01*
X14760188Y3505803D01*
X14835737Y3527299D01*
X14859352Y3534018D01*
X14859353Y3534018D01*
X14868173Y3536528D01*
X14957767Y3604186D01*
X15016870Y3699641D01*
X15033300Y3787531D01*
X15036658Y3805493D01*
X15036659Y3805498D01*
X15037500Y3810000D01*
X15037500Y3814582D01*
X15037561Y3815241D01*
X15061758Y3871439D01*
X15114366Y3902681D01*
X15175290Y3897034D01*
X15221260Y3856656D01*
X15234969Y3809998D01*
X15235000Y3810000D01*
X15235010Y3809858D01*
X15235076Y3809634D01*
X15235126Y3808245D01*
X15239843Y3742285D01*
X15241717Y3731900D01*
X15279364Y3603686D01*
X15285187Y3590935D01*
X15356472Y3480013D01*
X15365651Y3469419D01*
X15465299Y3383074D01*
X15477090Y3375496D01*
X15597029Y3320722D01*
X15610484Y3316772D01*
X15744491Y3297505D01*
X15751543Y3297000D01*
X16240320Y3297000D01*
X16253005Y3301122D01*
X16256000Y3305243D01*
X16256000Y4309757D01*
X16764000Y4309757D01*
X16764000Y3312680D01*
X16768122Y3299995D01*
X16772243Y3297000D01*
X17270236Y3297000D01*
X17273756Y3297126D01*
X17339715Y3301843D01*
X17350100Y3303717D01*
X17478314Y3341364D01*
X17491065Y3347187D01*
X17601987Y3418472D01*
X17612581Y3427651D01*
X17698926Y3527299D01*
X17706504Y3539090D01*
X17710462Y3547757D01*
X22855000Y3547757D01*
X22855000Y3049764D01*
X22855126Y3046244D01*
X22859843Y2980285D01*
X22861717Y2969900D01*
X22899364Y2841686D01*
X22905187Y2828935D01*
X22976472Y2718013D01*
X22985651Y2707419D01*
X23085299Y2621074D01*
X23097090Y2613496D01*
X23217029Y2558722D01*
X23230484Y2554772D01*
X23364491Y2535505D01*
X23371543Y2535000D01*
X23860320Y2535000D01*
X23873005Y2539122D01*
X23876000Y2543243D01*
X23876000Y3540320D01*
X23871878Y3553005D01*
X23867757Y3556000D01*
X22870680Y3556000D01*
X22857995Y3551878D01*
X22855000Y3547757D01*
X17710462Y3547757D01*
X17761278Y3659029D01*
X17765228Y3672484D01*
X17784495Y3806491D01*
X17785000Y3813543D01*
X17785000Y4302320D01*
X17780878Y4315005D01*
X17776757Y4318000D01*
X16779680Y4318000D01*
X16766995Y4313878D01*
X16764000Y4309757D01*
X16256000Y4309757D01*
X16256000Y6849757D01*
X16764000Y6849757D01*
X16764000Y4841680D01*
X16768122Y4828995D01*
X16772243Y4826000D01*
X17769320Y4826000D01*
X17782005Y4830122D01*
X17785000Y4834243D01*
X17785000Y5332236D01*
X17784874Y5335756D01*
X17780157Y5401715D01*
X17778283Y5412100D01*
X17740636Y5540314D01*
X17734813Y5553065D01*
X17663528Y5663987D01*
X17654349Y5674581D01*
X17554695Y5760931D01*
X17554234Y5761227D01*
X17553945Y5761581D01*
X17549349Y5765563D01*
X17550039Y5766359D01*
X17515508Y5808597D01*
X17512021Y5869683D01*
X17545106Y5921152D01*
X17554243Y5927789D01*
X17601987Y5958472D01*
X17612581Y5967651D01*
X17698926Y6067299D01*
X17706504Y6079090D01*
X17710462Y6087757D01*
X22855000Y6087757D01*
X22855000Y5589764D01*
X22855126Y5586244D01*
X22859843Y5520285D01*
X22861717Y5509900D01*
X22899364Y5381686D01*
X22905187Y5368935D01*
X22976472Y5258013D01*
X22985651Y5247419D01*
X23085305Y5161069D01*
X23085766Y5160773D01*
X23086055Y5160419D01*
X23090651Y5156437D01*
X23089961Y5155641D01*
X23124492Y5113403D01*
X23127979Y5052317D01*
X23094894Y5000848D01*
X23085757Y4994211D01*
X23038013Y4963528D01*
X23027419Y4954349D01*
X22941074Y4854701D01*
X22933496Y4842910D01*
X22878722Y4722971D01*
X22874772Y4709516D01*
X22855505Y4575509D01*
X22855000Y4568457D01*
X22855000Y4079680D01*
X22859122Y4066995D01*
X22863243Y4064000D01*
X23860320Y4064000D01*
X23873005Y4068122D01*
X23876000Y4072243D01*
X23876000Y6080320D01*
X23871878Y6093005D01*
X23867757Y6096000D01*
X22870680Y6096000D01*
X22857995Y6091878D01*
X22855000Y6087757D01*
X17710462Y6087757D01*
X17761278Y6199029D01*
X17765228Y6212484D01*
X17784495Y6346491D01*
X17785000Y6353543D01*
X17785000Y6842320D01*
X17780878Y6855005D01*
X17776757Y6858000D01*
X16779680Y6858000D01*
X16766995Y6853878D01*
X16764000Y6849757D01*
X16256000Y6849757D01*
X16256000Y7108457D01*
X22855000Y7108457D01*
X22855000Y6619680D01*
X22859122Y6606995D01*
X22863243Y6604000D01*
X23860320Y6604000D01*
X23873005Y6608122D01*
X23876000Y6612243D01*
X23876000Y7609320D01*
X23873583Y7616757D01*
X24384000Y7616757D01*
X24384000Y2550680D01*
X24388122Y2537995D01*
X24392243Y2535000D01*
X24890236Y2535000D01*
X24893756Y2535126D01*
X24959715Y2539843D01*
X24970100Y2541717D01*
X25098314Y2579364D01*
X25111065Y2585187D01*
X25221987Y2656472D01*
X25232581Y2665651D01*
X25318926Y2765299D01*
X25326504Y2777090D01*
X25381278Y2897029D01*
X25385228Y2910484D01*
X25404496Y3044493D01*
X25404884Y3049922D01*
X25427894Y3106616D01*
X25479834Y3138957D01*
X25540863Y3134592D01*
X25587672Y3095189D01*
X25602526Y3047433D01*
X25602581Y3046245D01*
X25603803Y3019812D01*
X25634528Y2911827D01*
X25702186Y2822233D01*
X25797641Y2763130D01*
X25845314Y2754218D01*
X25903493Y2743342D01*
X25903498Y2743341D01*
X25908000Y2742500D01*
X27432000Y2742500D01*
X27460188Y2743803D01*
X27535737Y2765299D01*
X27559352Y2772018D01*
X27559353Y2772018D01*
X27568173Y2774528D01*
X27657767Y2842186D01*
X27716870Y2937641D01*
X27733300Y3025531D01*
X27736658Y3043493D01*
X27736659Y3043498D01*
X27737500Y3048000D01*
X27737500Y3052583D01*
X27737561Y3053241D01*
X27761758Y3109439D01*
X27814366Y3140681D01*
X27875290Y3135034D01*
X27921260Y3094656D01*
X27934969Y3047998D01*
X27935000Y3048000D01*
X27935010Y3047858D01*
X27935076Y3047634D01*
X27935126Y3046245D01*
X27939843Y2980285D01*
X27941717Y2969900D01*
X27979364Y2841686D01*
X27985187Y2828935D01*
X28056472Y2718013D01*
X28065651Y2707419D01*
X28165299Y2621074D01*
X28177090Y2613496D01*
X28297029Y2558722D01*
X28310484Y2554772D01*
X28444491Y2535505D01*
X28451543Y2535000D01*
X28940320Y2535000D01*
X28953005Y2539122D01*
X28956000Y2543243D01*
X28956000Y3547757D01*
X29464000Y3547757D01*
X29464000Y2550680D01*
X29468122Y2537995D01*
X29472243Y2535000D01*
X29970236Y2535000D01*
X29973756Y2535126D01*
X30039715Y2539843D01*
X30050100Y2541717D01*
X30178314Y2579364D01*
X30191065Y2585187D01*
X30301987Y2656472D01*
X30312581Y2665651D01*
X30398926Y2765299D01*
X30406504Y2777090D01*
X30461278Y2897029D01*
X30465228Y2910484D01*
X30484495Y3044491D01*
X30485000Y3051543D01*
X30485000Y3540320D01*
X30480878Y3553005D01*
X30476757Y3556000D01*
X29479680Y3556000D01*
X29466995Y3551878D01*
X29464000Y3547757D01*
X28956000Y3547757D01*
X28956000Y6087757D01*
X29464000Y6087757D01*
X29464000Y4079680D01*
X29468122Y4066995D01*
X29472243Y4064000D01*
X30469320Y4064000D01*
X30482005Y4068122D01*
X30485000Y4072243D01*
X30485000Y4570236D01*
X30484937Y4572000D01*
X31952500Y4572000D01*
X31952500Y3048000D01*
X31953803Y3019812D01*
X31984528Y2911827D01*
X32052186Y2822233D01*
X32147641Y2763130D01*
X32195314Y2754218D01*
X32253493Y2743342D01*
X32253498Y2743341D01*
X32258000Y2742500D01*
X33782000Y2742500D01*
X33810188Y2743803D01*
X33885737Y2765299D01*
X33909352Y2772018D01*
X33909353Y2772018D01*
X33918173Y2774528D01*
X34007767Y2842186D01*
X34066870Y2937641D01*
X34083300Y3025531D01*
X34086658Y3043493D01*
X34086659Y3043498D01*
X34087500Y3048000D01*
X34087500Y4572000D01*
X34492500Y4572000D01*
X34492500Y3048000D01*
X34493803Y3019812D01*
X34524528Y2911827D01*
X34592186Y2822233D01*
X34687641Y2763130D01*
X34735314Y2754218D01*
X34793493Y2743342D01*
X34793498Y2743341D01*
X34798000Y2742500D01*
X36322000Y2742500D01*
X36350188Y2743803D01*
X36425737Y2765299D01*
X36449352Y2772018D01*
X36449353Y2772018D01*
X36458173Y2774528D01*
X36547767Y2842186D01*
X36606870Y2937641D01*
X36623300Y3025531D01*
X36626658Y3043493D01*
X36626659Y3043498D01*
X36627500Y3048000D01*
X36627500Y3547757D01*
X38349000Y3547757D01*
X38349000Y3049764D01*
X38349126Y3046244D01*
X38353843Y2980285D01*
X38355717Y2969900D01*
X38393364Y2841686D01*
X38399187Y2828935D01*
X38470472Y2718013D01*
X38479651Y2707419D01*
X38579299Y2621074D01*
X38591090Y2613496D01*
X38711029Y2558722D01*
X38724484Y2554772D01*
X38858491Y2535505D01*
X38865543Y2535000D01*
X39354320Y2535000D01*
X39367005Y2539122D01*
X39370000Y2543243D01*
X39370000Y3540320D01*
X39365878Y3553005D01*
X39361757Y3556000D01*
X38364680Y3556000D01*
X38351995Y3551878D01*
X38349000Y3547757D01*
X36627500Y3547757D01*
X36627500Y4572000D01*
X36626197Y4600188D01*
X36595472Y4708173D01*
X36527814Y4797767D01*
X36432359Y4856870D01*
X36384686Y4865782D01*
X36326507Y4876658D01*
X36326502Y4876659D01*
X36322000Y4877500D01*
X34798000Y4877500D01*
X34769812Y4876197D01*
X34708874Y4858858D01*
X34670648Y4847982D01*
X34670647Y4847982D01*
X34661827Y4845472D01*
X34572233Y4777814D01*
X34513130Y4682359D01*
X34511444Y4673338D01*
X34493342Y4576507D01*
X34493341Y4576502D01*
X34492500Y4572000D01*
X34087500Y4572000D01*
X34086197Y4600188D01*
X34055472Y4708173D01*
X33987814Y4797767D01*
X33892359Y4856870D01*
X33844686Y4865782D01*
X33786507Y4876658D01*
X33786502Y4876659D01*
X33782000Y4877500D01*
X32258000Y4877500D01*
X32229812Y4876197D01*
X32168874Y4858858D01*
X32130648Y4847982D01*
X32130647Y4847982D01*
X32121827Y4845472D01*
X32032233Y4777814D01*
X31973130Y4682359D01*
X31971444Y4673338D01*
X31953342Y4576507D01*
X31953341Y4576502D01*
X31952500Y4572000D01*
X30484937Y4572000D01*
X30484874Y4573756D01*
X30480157Y4639715D01*
X30478283Y4650100D01*
X30440636Y4778314D01*
X30434813Y4791065D01*
X30363528Y4901987D01*
X30354349Y4912581D01*
X30254695Y4998931D01*
X30254234Y4999227D01*
X30253945Y4999581D01*
X30249349Y5003563D01*
X30250039Y5004359D01*
X30215508Y5046597D01*
X30212021Y5107683D01*
X30245106Y5159152D01*
X30254243Y5165789D01*
X30301987Y5196472D01*
X30312581Y5205651D01*
X30398926Y5305299D01*
X30406504Y5317090D01*
X30461278Y5437029D01*
X30465228Y5450484D01*
X30484495Y5584491D01*
X30485000Y5591543D01*
X30485000Y6080320D01*
X30480878Y6093005D01*
X30476757Y6096000D01*
X29479680Y6096000D01*
X29466995Y6091878D01*
X29464000Y6087757D01*
X28956000Y6087757D01*
X28956000Y7609320D01*
X28953583Y7616757D01*
X29464000Y7616757D01*
X29464000Y6619680D01*
X29468122Y6606995D01*
X29472243Y6604000D01*
X30469320Y6604000D01*
X30482005Y6608122D01*
X30485000Y6612243D01*
X30485000Y7110236D01*
X30484937Y7112000D01*
X31952500Y7112000D01*
X31952500Y5588000D01*
X31953803Y5559812D01*
X31971142Y5498874D01*
X31975098Y5484971D01*
X31984528Y5451827D01*
X32052186Y5362233D01*
X32147641Y5303130D01*
X32195314Y5294218D01*
X32253493Y5283342D01*
X32253498Y5283341D01*
X32258000Y5282500D01*
X33782000Y5282500D01*
X33810188Y5283803D01*
X33885737Y5305299D01*
X33909352Y5312018D01*
X33909353Y5312018D01*
X33918173Y5314528D01*
X33983401Y5363786D01*
X34000447Y5376658D01*
X34000448Y5376659D01*
X34007767Y5382186D01*
X34066870Y5477641D01*
X34080854Y5552447D01*
X34086658Y5583493D01*
X34086659Y5583498D01*
X34087500Y5588000D01*
X34087500Y7112000D01*
X34492500Y7112000D01*
X34492500Y5588000D01*
X34493803Y5559812D01*
X34511142Y5498874D01*
X34515098Y5484971D01*
X34524528Y5451827D01*
X34592186Y5362233D01*
X34687641Y5303130D01*
X34735314Y5294218D01*
X34793493Y5283342D01*
X34793498Y5283341D01*
X34798000Y5282500D01*
X36322000Y5282500D01*
X36350188Y5283803D01*
X36425737Y5305299D01*
X36449352Y5312018D01*
X36449353Y5312018D01*
X36458173Y5314528D01*
X36523401Y5363786D01*
X36540447Y5376658D01*
X36540448Y5376659D01*
X36547767Y5382186D01*
X36606870Y5477641D01*
X36620854Y5552447D01*
X36626658Y5583493D01*
X36626659Y5583498D01*
X36627500Y5588000D01*
X36627500Y6087757D01*
X38349000Y6087757D01*
X38349000Y5589764D01*
X38349126Y5586244D01*
X38353843Y5520285D01*
X38355717Y5509900D01*
X38393364Y5381686D01*
X38399187Y5368935D01*
X38470472Y5258013D01*
X38479651Y5247419D01*
X38579305Y5161069D01*
X38579766Y5160773D01*
X38580055Y5160419D01*
X38584651Y5156437D01*
X38583961Y5155641D01*
X38618492Y5113403D01*
X38621979Y5052317D01*
X38588894Y5000848D01*
X38579757Y4994211D01*
X38532013Y4963528D01*
X38521419Y4954349D01*
X38435074Y4854701D01*
X38427496Y4842910D01*
X38372722Y4722971D01*
X38368772Y4709516D01*
X38349505Y4575509D01*
X38349000Y4568457D01*
X38349000Y4079680D01*
X38353122Y4066995D01*
X38357243Y4064000D01*
X39354320Y4064000D01*
X39367005Y4068122D01*
X39370000Y4072243D01*
X39370000Y6080320D01*
X39365878Y6093005D01*
X39361757Y6096000D01*
X38364680Y6096000D01*
X38351995Y6091878D01*
X38349000Y6087757D01*
X36627500Y6087757D01*
X36627500Y7108457D01*
X38349000Y7108457D01*
X38349000Y6619680D01*
X38353122Y6606995D01*
X38357243Y6604000D01*
X39354320Y6604000D01*
X39367005Y6608122D01*
X39370000Y6612243D01*
X39370000Y7609320D01*
X39367583Y7616757D01*
X39878000Y7616757D01*
X39878000Y2550680D01*
X39882122Y2537995D01*
X39886243Y2535000D01*
X40384236Y2535000D01*
X40387756Y2535126D01*
X40453715Y2539843D01*
X40464100Y2541717D01*
X40592314Y2579364D01*
X40605065Y2585187D01*
X40715987Y2656472D01*
X40726581Y2665651D01*
X40812926Y2765299D01*
X40820504Y2777090D01*
X40875278Y2897029D01*
X40879228Y2910484D01*
X40898496Y3044493D01*
X40898884Y3049922D01*
X40921894Y3106616D01*
X40973834Y3138957D01*
X41034863Y3134592D01*
X41081672Y3095189D01*
X41096526Y3047433D01*
X41096581Y3046245D01*
X41097803Y3019812D01*
X41128528Y2911827D01*
X41196186Y2822233D01*
X41291641Y2763130D01*
X41339314Y2754218D01*
X41397493Y2743342D01*
X41397498Y2743341D01*
X41402000Y2742500D01*
X42926000Y2742500D01*
X42954188Y2743803D01*
X43029737Y2765299D01*
X43053352Y2772018D01*
X43053353Y2772018D01*
X43062173Y2774528D01*
X43151767Y2842186D01*
X43210870Y2937641D01*
X43227300Y3025531D01*
X43230658Y3043493D01*
X43230659Y3043498D01*
X43231500Y3048000D01*
X43231500Y4572000D01*
X43636500Y4572000D01*
X43636500Y3048000D01*
X43637803Y3019812D01*
X43668528Y2911827D01*
X43736186Y2822233D01*
X43831641Y2763130D01*
X43879314Y2754218D01*
X43937493Y2743342D01*
X43937498Y2743341D01*
X43942000Y2742500D01*
X45466000Y2742500D01*
X45494188Y2743803D01*
X45569737Y2765299D01*
X45593352Y2772018D01*
X45593353Y2772018D01*
X45602173Y2774528D01*
X45691767Y2842186D01*
X45750870Y2937641D01*
X45767300Y3025531D01*
X45770658Y3043493D01*
X45770659Y3043498D01*
X45771500Y3048000D01*
X45771500Y4572000D01*
X45770197Y4600188D01*
X45739472Y4708173D01*
X45671814Y4797767D01*
X45576359Y4856870D01*
X45528686Y4865782D01*
X45470507Y4876658D01*
X45470502Y4876659D01*
X45466000Y4877500D01*
X43942000Y4877500D01*
X43913812Y4876197D01*
X43852874Y4858858D01*
X43814648Y4847982D01*
X43814647Y4847982D01*
X43805827Y4845472D01*
X43716233Y4777814D01*
X43657130Y4682359D01*
X43655444Y4673338D01*
X43637342Y4576507D01*
X43637341Y4576502D01*
X43636500Y4572000D01*
X43231500Y4572000D01*
X43230197Y4600188D01*
X43199472Y4708173D01*
X43131814Y4797767D01*
X43036359Y4856870D01*
X42988686Y4865782D01*
X42930507Y4876658D01*
X42930502Y4876659D01*
X42926000Y4877500D01*
X41402000Y4877500D01*
X41373812Y4876197D01*
X41312874Y4858858D01*
X41274648Y4847982D01*
X41274647Y4847982D01*
X41265827Y4845472D01*
X41176233Y4777814D01*
X41117130Y4682359D01*
X41115444Y4673338D01*
X41097342Y4576507D01*
X41097341Y4576502D01*
X41096500Y4572000D01*
X41096500Y4567418D01*
X41096439Y4566759D01*
X41072242Y4510561D01*
X41019634Y4479319D01*
X40958710Y4484966D01*
X40912740Y4525344D01*
X40899031Y4572002D01*
X40899000Y4572000D01*
X40898990Y4572142D01*
X40898924Y4572366D01*
X40898874Y4573755D01*
X40894157Y4639715D01*
X40892283Y4650100D01*
X40854636Y4778314D01*
X40848813Y4791065D01*
X40777528Y4901987D01*
X40768349Y4912581D01*
X40668695Y4998931D01*
X40668234Y4999227D01*
X40667945Y4999581D01*
X40663349Y5003563D01*
X40664039Y5004359D01*
X40629508Y5046597D01*
X40626021Y5107683D01*
X40659106Y5159152D01*
X40668243Y5165789D01*
X40715987Y5196472D01*
X40726581Y5205651D01*
X40812926Y5305299D01*
X40820504Y5317090D01*
X40875278Y5437029D01*
X40879228Y5450484D01*
X40898496Y5584493D01*
X40898884Y5589922D01*
X40921894Y5646616D01*
X40973834Y5678957D01*
X41034863Y5674592D01*
X41081672Y5635189D01*
X41096526Y5587433D01*
X41096581Y5586245D01*
X41097803Y5559812D01*
X41115142Y5498874D01*
X41119098Y5484971D01*
X41128528Y5451827D01*
X41196186Y5362233D01*
X41291641Y5303130D01*
X41339314Y5294218D01*
X41397493Y5283342D01*
X41397498Y5283341D01*
X41402000Y5282500D01*
X42926000Y5282500D01*
X42954188Y5283803D01*
X43029737Y5305299D01*
X43053352Y5312018D01*
X43053353Y5312018D01*
X43062173Y5314528D01*
X43127401Y5363786D01*
X43144447Y5376658D01*
X43144448Y5376659D01*
X43151767Y5382186D01*
X43210870Y5477641D01*
X43224854Y5552447D01*
X43230658Y5583493D01*
X43230659Y5583498D01*
X43231500Y5588000D01*
X43231500Y7112000D01*
X43230197Y7140188D01*
X43199472Y7248173D01*
X43131814Y7337767D01*
X43036359Y7396870D01*
X42988686Y7405782D01*
X42930507Y7416658D01*
X42930502Y7416659D01*
X42926000Y7417500D01*
X41402000Y7417500D01*
X41373812Y7416197D01*
X41312874Y7398858D01*
X41274648Y7387982D01*
X41274647Y7387982D01*
X41265827Y7385472D01*
X41176233Y7317814D01*
X41117130Y7222359D01*
X41115444Y7213338D01*
X41097342Y7116507D01*
X41097341Y7116502D01*
X41096500Y7112000D01*
X41096500Y7107418D01*
X41096439Y7106759D01*
X41072242Y7050561D01*
X41019634Y7019319D01*
X40958710Y7024966D01*
X40912740Y7065344D01*
X40899031Y7112002D01*
X40899000Y7112000D01*
X40898990Y7112142D01*
X40898924Y7112366D01*
X40898874Y7113755D01*
X40894157Y7179715D01*
X40892283Y7190100D01*
X40854636Y7318314D01*
X40848813Y7331065D01*
X40777528Y7441987D01*
X40768349Y7452581D01*
X40668701Y7538926D01*
X40656910Y7546504D01*
X40536971Y7601278D01*
X40523516Y7605228D01*
X40389509Y7624495D01*
X40382457Y7625000D01*
X39893680Y7625000D01*
X39880995Y7620878D01*
X39878000Y7616757D01*
X39367583Y7616757D01*
X39365878Y7622005D01*
X39361757Y7625000D01*
X38863764Y7625000D01*
X38860244Y7624874D01*
X38794285Y7620157D01*
X38783900Y7618283D01*
X38655686Y7580636D01*
X38642935Y7574813D01*
X38532013Y7503528D01*
X38521419Y7494349D01*
X38435074Y7394701D01*
X38427496Y7382910D01*
X38372722Y7262971D01*
X38368772Y7249516D01*
X38349505Y7115509D01*
X38349000Y7108457D01*
X36627500Y7108457D01*
X36627500Y7112000D01*
X36626197Y7140188D01*
X36595472Y7248173D01*
X36527814Y7337767D01*
X36432359Y7396870D01*
X36384686Y7405782D01*
X36326507Y7416658D01*
X36326502Y7416659D01*
X36322000Y7417500D01*
X34798000Y7417500D01*
X34769812Y7416197D01*
X34708874Y7398858D01*
X34670648Y7387982D01*
X34670647Y7387982D01*
X34661827Y7385472D01*
X34572233Y7317814D01*
X34513130Y7222359D01*
X34511444Y7213338D01*
X34493342Y7116507D01*
X34493341Y7116502D01*
X34492500Y7112000D01*
X34087500Y7112000D01*
X34086197Y7140188D01*
X34055472Y7248173D01*
X33987814Y7337767D01*
X33892359Y7396870D01*
X33844686Y7405782D01*
X33786507Y7416658D01*
X33786502Y7416659D01*
X33782000Y7417500D01*
X32258000Y7417500D01*
X32229812Y7416197D01*
X32168874Y7398858D01*
X32130648Y7387982D01*
X32130647Y7387982D01*
X32121827Y7385472D01*
X32032233Y7317814D01*
X31973130Y7222359D01*
X31971444Y7213338D01*
X31953342Y7116507D01*
X31953341Y7116502D01*
X31952500Y7112000D01*
X30484937Y7112000D01*
X30484874Y7113756D01*
X30480157Y7179715D01*
X30478283Y7190100D01*
X30440636Y7318314D01*
X30434813Y7331065D01*
X30363528Y7441987D01*
X30354349Y7452581D01*
X30254701Y7538926D01*
X30242910Y7546504D01*
X30122971Y7601278D01*
X30109516Y7605228D01*
X29975509Y7624495D01*
X29968457Y7625000D01*
X29479680Y7625000D01*
X29466995Y7620878D01*
X29464000Y7616757D01*
X28953583Y7616757D01*
X28951878Y7622005D01*
X28947757Y7625000D01*
X28449764Y7625000D01*
X28446244Y7624874D01*
X28380285Y7620157D01*
X28369900Y7618283D01*
X28241686Y7580636D01*
X28228935Y7574813D01*
X28118013Y7503528D01*
X28107419Y7494349D01*
X28021074Y7394701D01*
X28013496Y7382910D01*
X27958722Y7262971D01*
X27954772Y7249516D01*
X27935504Y7115507D01*
X27935116Y7110078D01*
X27912106Y7053384D01*
X27860166Y7021043D01*
X27799137Y7025408D01*
X27752328Y7064811D01*
X27737474Y7112567D01*
X27736461Y7134469D01*
X27736197Y7140188D01*
X27705472Y7248173D01*
X27637814Y7337767D01*
X27542359Y7396870D01*
X27494686Y7405782D01*
X27436507Y7416658D01*
X27436502Y7416659D01*
X27432000Y7417500D01*
X25908000Y7417500D01*
X25879812Y7416197D01*
X25818874Y7398858D01*
X25780648Y7387982D01*
X25780647Y7387982D01*
X25771827Y7385472D01*
X25682233Y7317814D01*
X25623130Y7222359D01*
X25621444Y7213338D01*
X25603342Y7116507D01*
X25603341Y7116502D01*
X25602500Y7112000D01*
X25602500Y7107418D01*
X25602439Y7106759D01*
X25578242Y7050561D01*
X25525634Y7019319D01*
X25464710Y7024966D01*
X25418740Y7065344D01*
X25405031Y7112002D01*
X25405000Y7112000D01*
X25404990Y7112142D01*
X25404924Y7112366D01*
X25404874Y7113755D01*
X25400157Y7179715D01*
X25398283Y7190100D01*
X25360636Y7318314D01*
X25354813Y7331065D01*
X25283528Y7441987D01*
X25274349Y7452581D01*
X25174701Y7538926D01*
X25162910Y7546504D01*
X25042971Y7601278D01*
X25029516Y7605228D01*
X24895509Y7624495D01*
X24888457Y7625000D01*
X24399680Y7625000D01*
X24386995Y7620878D01*
X24384000Y7616757D01*
X23873583Y7616757D01*
X23871878Y7622005D01*
X23867757Y7625000D01*
X23369764Y7625000D01*
X23366244Y7624874D01*
X23300285Y7620157D01*
X23289900Y7618283D01*
X23161686Y7580636D01*
X23148935Y7574813D01*
X23038013Y7503528D01*
X23027419Y7494349D01*
X22941074Y7394701D01*
X22933496Y7382910D01*
X22878722Y7262971D01*
X22874772Y7249516D01*
X22855505Y7115509D01*
X22855000Y7108457D01*
X16256000Y7108457D01*
X16256000Y8371320D01*
X16253583Y8378757D01*
X16764000Y8378757D01*
X16764000Y7381680D01*
X16768122Y7368995D01*
X16772243Y7366000D01*
X17769320Y7366000D01*
X17782005Y7370122D01*
X17785000Y7374243D01*
X17785000Y7872236D01*
X17784874Y7875756D01*
X17780157Y7941715D01*
X17778283Y7952100D01*
X17740636Y8080314D01*
X17734813Y8093065D01*
X17663528Y8203987D01*
X17654349Y8214581D01*
X17554701Y8300926D01*
X17542910Y8308504D01*
X17422971Y8363278D01*
X17409516Y8367228D01*
X17275509Y8386495D01*
X17268457Y8387000D01*
X16779680Y8387000D01*
X16766995Y8382878D01*
X16764000Y8378757D01*
X16253583Y8378757D01*
X16251878Y8384005D01*
X16247757Y8387000D01*
X15749764Y8387000D01*
X15746244Y8386874D01*
X15680285Y8382157D01*
X15669900Y8380283D01*
X15541686Y8342636D01*
X15528935Y8336813D01*
X15418013Y8265528D01*
X15407419Y8256349D01*
X15321074Y8156701D01*
X15313496Y8144910D01*
X15258722Y8024971D01*
X15254772Y8011516D01*
X15235504Y7877507D01*
X15235116Y7872078D01*
X15212106Y7815384D01*
X15160166Y7783043D01*
X15099137Y7787408D01*
X15052328Y7826811D01*
X15037474Y7874567D01*
X15036461Y7896469D01*
X15036197Y7902188D01*
X15005472Y8010173D01*
X14937814Y8099767D01*
X14842359Y8158870D01*
X14794686Y8167782D01*
X14736507Y8178658D01*
X14736502Y8178659D01*
X14732000Y8179500D01*
X13208000Y8179500D01*
X13179812Y8178197D01*
X13118874Y8160858D01*
X13080648Y8149982D01*
X13080647Y8149982D01*
X13071827Y8147472D01*
X12982233Y8079814D01*
X12923130Y7984359D01*
X12921444Y7975338D01*
X12903342Y7878507D01*
X12903341Y7878502D01*
X12902500Y7874000D01*
X12902500Y7869418D01*
X12902439Y7868759D01*
X12878242Y7812561D01*
X12825634Y7781319D01*
X12764710Y7786966D01*
X12718740Y7827344D01*
X12705031Y7874002D01*
X12705000Y7874000D01*
X12704990Y7874142D01*
X12704924Y7874366D01*
X12704874Y7875755D01*
X12700157Y7941715D01*
X12698283Y7952100D01*
X12660636Y8080314D01*
X12654813Y8093065D01*
X12583528Y8203987D01*
X12574349Y8214581D01*
X12474701Y8300926D01*
X12462910Y8308504D01*
X12342971Y8363278D01*
X12329516Y8367228D01*
X12195509Y8386495D01*
X12188457Y8387000D01*
X11699680Y8387000D01*
X11686995Y8382878D01*
X11684000Y8378757D01*
X11173583Y8378757D01*
X11171878Y8384005D01*
X11167757Y8387000D01*
X10669764Y8387000D01*
X10666244Y8386874D01*
X10600285Y8382157D01*
X10589900Y8380283D01*
X10461686Y8342636D01*
X10448935Y8336813D01*
X10338013Y8265528D01*
X10327419Y8256349D01*
X10241074Y8156701D01*
X10233496Y8144910D01*
X10178722Y8024971D01*
X10174772Y8011516D01*
X10155505Y7877509D01*
X10155000Y7870457D01*
X754000Y7870457D01*
X754000Y10922000D01*
X10362500Y10922000D01*
X10362500Y9398000D01*
X10363803Y9369812D01*
X10365369Y9364309D01*
X10387397Y9286891D01*
X10394528Y9261827D01*
X10462186Y9172233D01*
X10557641Y9113130D01*
X10605314Y9104218D01*
X10663493Y9093342D01*
X10663498Y9093341D01*
X10668000Y9092500D01*
X12192000Y9092500D01*
X12220188Y9093803D01*
X12288114Y9113130D01*
X12319352Y9122018D01*
X12319353Y9122018D01*
X12328173Y9124528D01*
X12417767Y9192186D01*
X12476870Y9287641D01*
X12489368Y9354499D01*
X12496658Y9393493D01*
X12496659Y9393498D01*
X12497500Y9398000D01*
X12497500Y10922000D01*
X12902500Y10922000D01*
X12902500Y9398000D01*
X12903803Y9369812D01*
X12905369Y9364309D01*
X12927397Y9286891D01*
X12934528Y9261827D01*
X13002186Y9172233D01*
X13097641Y9113130D01*
X13145314Y9104218D01*
X13203493Y9093342D01*
X13203498Y9093341D01*
X13208000Y9092500D01*
X14732000Y9092500D01*
X14760188Y9093803D01*
X14828114Y9113130D01*
X14859352Y9122018D01*
X14859353Y9122018D01*
X14868173Y9124528D01*
X14957767Y9192186D01*
X15016870Y9287641D01*
X15029368Y9354499D01*
X15036658Y9393493D01*
X15036659Y9393498D01*
X15037500Y9398000D01*
X15037500Y10922000D01*
X15442500Y10922000D01*
X15442500Y9398000D01*
X15443803Y9369812D01*
X15445369Y9364309D01*
X15467397Y9286891D01*
X15474528Y9261827D01*
X15542186Y9172233D01*
X15637641Y9113130D01*
X15685314Y9104218D01*
X15743493Y9093342D01*
X15743498Y9093341D01*
X15748000Y9092500D01*
X17272000Y9092500D01*
X17300188Y9093803D01*
X17368114Y9113130D01*
X17399352Y9122018D01*
X17399353Y9122018D01*
X17408173Y9124528D01*
X17497767Y9192186D01*
X17556870Y9287641D01*
X17569368Y9354499D01*
X17576658Y9393493D01*
X17576659Y9393498D01*
X17577500Y9398000D01*
X17577500Y10922000D01*
X17576197Y10950188D01*
X17545472Y11058173D01*
X17477814Y11147767D01*
X17382359Y11206870D01*
X17334686Y11215782D01*
X17276507Y11226658D01*
X17276502Y11226659D01*
X17272000Y11227500D01*
X15748000Y11227500D01*
X15719812Y11226197D01*
X15658874Y11208858D01*
X15620648Y11197982D01*
X15620647Y11197982D01*
X15611827Y11195472D01*
X15522233Y11127814D01*
X15463130Y11032359D01*
X15461444Y11023338D01*
X15443342Y10926507D01*
X15443341Y10926502D01*
X15442500Y10922000D01*
X15037500Y10922000D01*
X15036197Y10950188D01*
X15005472Y11058173D01*
X14937814Y11147767D01*
X14842359Y11206870D01*
X14794686Y11215782D01*
X14736507Y11226658D01*
X14736502Y11226659D01*
X14732000Y11227500D01*
X13208000Y11227500D01*
X13179812Y11226197D01*
X13118874Y11208858D01*
X13080648Y11197982D01*
X13080647Y11197982D01*
X13071827Y11195472D01*
X12982233Y11127814D01*
X12923130Y11032359D01*
X12921444Y11023338D01*
X12903342Y10926507D01*
X12903341Y10926502D01*
X12902500Y10922000D01*
X12497500Y10922000D01*
X12496197Y10950188D01*
X12465472Y11058173D01*
X12397814Y11147767D01*
X12302359Y11206870D01*
X12254686Y11215782D01*
X12196507Y11226658D01*
X12196502Y11226659D01*
X12192000Y11227500D01*
X10668000Y11227500D01*
X10639812Y11226197D01*
X10578874Y11208858D01*
X10540648Y11197982D01*
X10540647Y11197982D01*
X10531827Y11195472D01*
X10442233Y11127814D01*
X10383130Y11032359D01*
X10381444Y11023338D01*
X10363342Y10926507D01*
X10363341Y10926502D01*
X10362500Y10922000D01*
X754000Y10922000D01*
X754000Y12513038D01*
X9382078Y12513038D01*
X9382409Y12510944D01*
X9385498Y12507184D01*
X9502891Y12414805D01*
X9508318Y12411090D01*
X9760831Y12261753D01*
X9766691Y12258793D01*
X10036752Y12144159D01*
X10042943Y12142003D01*
X10325794Y12064093D01*
X10332212Y12062776D01*
X10622886Y12022959D01*
X10629429Y12022502D01*
X10922798Y12021478D01*
X10929365Y12021891D01*
X11220287Y12059674D01*
X11226726Y12060948D01*
X11510114Y12136883D01*
X11516321Y12138996D01*
X11787176Y12251741D01*
X11793050Y12254657D01*
X12046611Y12402233D01*
X12052053Y12405904D01*
X12178670Y12504119D01*
X12186168Y12515150D01*
X12186107Y12517086D01*
X12183335Y12521454D01*
X10795086Y13909704D01*
X10783203Y13915758D01*
X10778172Y13914962D01*
X9388132Y12524921D01*
X9382078Y12513038D01*
X754000Y12513038D01*
X754000Y14188518D01*
X8523065Y14188518D01*
X8523339Y14181974D01*
X8555024Y13890307D01*
X8556166Y13883834D01*
X8626145Y13598932D01*
X8628129Y13592677D01*
X8735180Y13319512D01*
X8737967Y13313592D01*
X8880201Y13056995D01*
X8883758Y13051474D01*
X9007590Y12884735D01*
X9018460Y12877011D01*
X9019840Y12877025D01*
X9025035Y12880246D01*
X10413704Y14268914D01*
X10418946Y14279203D01*
X11148242Y14279203D01*
X11149038Y14274172D01*
X12539634Y12883577D01*
X12551517Y12877523D01*
X12553061Y12877767D01*
X12557507Y12881497D01*
X12675623Y13038243D01*
X12679211Y13043727D01*
X12823233Y13299326D01*
X12826067Y13305241D01*
X12935017Y13577636D01*
X12937049Y13583889D01*
X13009016Y13868301D01*
X13010199Y13874745D01*
X13044040Y14167226D01*
X13044353Y14171700D01*
X13046945Y14277752D01*
X13046851Y14282243D01*
X13027339Y14576012D01*
X13026471Y14582518D01*
X12968483Y14870107D01*
X12966759Y14876450D01*
X12871248Y15153836D01*
X12868703Y15159890D01*
X12737342Y15422210D01*
X12734018Y15427876D01*
X12569115Y15670524D01*
X12565075Y15675695D01*
X12563173Y15677822D01*
X12551646Y15684531D01*
X12547881Y15684149D01*
X12546229Y15683018D01*
X11154296Y14291086D01*
X11148242Y14279203D01*
X10418946Y14279203D01*
X10419758Y14280797D01*
X10418962Y14285828D01*
X9028770Y15676019D01*
X9016887Y15682073D01*
X9014243Y15681655D01*
X9011191Y15679201D01*
X8946038Y15599882D01*
X8942222Y15594553D01*
X8787620Y15345205D01*
X8784546Y15339422D01*
X8664276Y15071813D01*
X8661993Y15065672D01*
X8578175Y14784510D01*
X8576723Y14778120D01*
X8530829Y14488353D01*
X8530234Y14481809D01*
X8523065Y14188518D01*
X754000Y14188518D01*
X754000Y16046126D01*
X9379462Y16046126D01*
X9383113Y16040098D01*
X10772914Y14650296D01*
X10784797Y14644242D01*
X10789828Y14645038D01*
X12180873Y16036084D01*
X12186927Y16047967D01*
X12186422Y16051156D01*
X12184587Y16053489D01*
X12142084Y16089918D01*
X12136834Y16093845D01*
X11890777Y16253636D01*
X11885066Y16256828D01*
X11620030Y16382677D01*
X11613944Y16385086D01*
X11334593Y16474776D01*
X11328237Y16476361D01*
X11039492Y16528314D01*
X11032969Y16529046D01*
X10739886Y16542355D01*
X10733336Y16542218D01*
X10441065Y16516647D01*
X10434591Y16515645D01*
X10148258Y16451643D01*
X10141987Y16449797D01*
X9866633Y16348485D01*
X9860654Y16345823D01*
X9601117Y16208986D01*
X9595551Y16205561D01*
X9387422Y16057652D01*
X9379471Y16046945D01*
X9379462Y16046126D01*
X754000Y16046126D01*
X754000Y17200101D01*
X19653140Y17200101D01*
X19653238Y17199479D01*
X19658065Y17193926D01*
X19715962Y17153386D01*
X19723412Y17149085D01*
X19923014Y17056009D01*
X19931100Y17053066D01*
X20143824Y16996066D01*
X20152311Y16994570D01*
X20371691Y16975377D01*
X20380309Y16975377D01*
X20599689Y16994570D01*
X20608176Y16996066D01*
X20820900Y17053066D01*
X20828986Y17056009D01*
X21028588Y17149085D01*
X21036038Y17153386D01*
X21091048Y17191905D01*
X21099074Y17202556D01*
X21099086Y17203188D01*
X21095298Y17209492D01*
X20387086Y17917704D01*
X20375203Y17923758D01*
X20370172Y17922962D01*
X19659194Y17211984D01*
X19653140Y17200101D01*
X754000Y17200101D01*
X754000Y18951996D01*
X12134877Y18951996D01*
X12135504Y18943666D01*
X12170820Y18724401D01*
X12172843Y18716289D01*
X12244596Y18506118D01*
X12247956Y18498462D01*
X12354097Y18303379D01*
X12358700Y18296400D01*
X12358905Y18296139D01*
X12369998Y18288728D01*
X12372141Y18288812D01*
X12376200Y18291410D01*
X13123704Y19038914D01*
X13129758Y19050797D01*
X13128962Y19055828D01*
X12378923Y19805867D01*
X12368054Y19811405D01*
X12360659Y19804344D01*
X12258774Y19625358D01*
X12255268Y19617771D01*
X12179493Y19409014D01*
X12177314Y19400938D01*
X12137795Y19182398D01*
X12137009Y19174072D01*
X12134877Y18951996D01*
X754000Y18951996D01*
X754000Y21580247D01*
X12338896Y21580247D01*
X12343509Y21509866D01*
X12350918Y21396830D01*
X12352726Y21369240D01*
X12353842Y21364847D01*
X12353842Y21364845D01*
X12396740Y21195936D01*
X12404778Y21164286D01*
X12493308Y20972250D01*
X12615351Y20799563D01*
X12766820Y20652008D01*
X12770595Y20649486D01*
X12770597Y20649484D01*
X12797635Y20631418D01*
X12942643Y20534527D01*
X12946819Y20532733D01*
X13015542Y20503207D01*
X13061544Y20462865D01*
X13075048Y20403189D01*
X13050895Y20346972D01*
X13012827Y20320167D01*
X12891856Y20272393D01*
X12884379Y20268681D01*
X12742292Y20182461D01*
X12734022Y20172863D01*
X12738645Y20164565D01*
X13783206Y19120004D01*
X13810983Y19065487D01*
X13801412Y19005055D01*
X13783206Y18979996D01*
X12740775Y17937565D01*
X12734884Y17926002D01*
X12740939Y17919353D01*
X12861095Y17843248D01*
X12868506Y17839390D01*
X13073468Y17753862D01*
X13081425Y17751308D01*
X13297868Y17701537D01*
X13306135Y17700360D01*
X13527876Y17687768D01*
X13536222Y17688002D01*
X13756907Y17712951D01*
X13765103Y17714588D01*
X13978432Y17776365D01*
X13986224Y17779356D01*
X14186099Y17876194D01*
X14193281Y17880459D01*
X14324521Y17974244D01*
X14382859Y17992694D01*
X14438184Y17974236D01*
X14438186Y17974233D01*
X14533641Y17915130D01*
X14581314Y17906218D01*
X14639493Y17895342D01*
X14639498Y17895341D01*
X14644000Y17894500D01*
X16344000Y17894500D01*
X16372188Y17895803D01*
X16440114Y17915130D01*
X16471352Y17924018D01*
X16471353Y17924018D01*
X16480173Y17926528D01*
X16569767Y17994186D01*
X16628870Y18089641D01*
X16644231Y18171812D01*
X16648658Y18195493D01*
X16648659Y18195498D01*
X16649500Y18200000D01*
X16649500Y18292309D01*
X19063377Y18292309D01*
X19063377Y18283691D01*
X19082570Y18064311D01*
X19084066Y18055824D01*
X19141066Y17843100D01*
X19144009Y17835014D01*
X19237085Y17635412D01*
X19241386Y17627962D01*
X19279905Y17572952D01*
X19290556Y17564926D01*
X19291188Y17564914D01*
X19297492Y17568702D01*
X20005704Y18276914D01*
X20011758Y18288797D01*
X20010962Y18293828D01*
X19299984Y19004806D01*
X19288101Y19010860D01*
X19287479Y19010762D01*
X19281926Y19005935D01*
X19241386Y18948038D01*
X19237085Y18940588D01*
X19144009Y18740986D01*
X19141066Y18732900D01*
X19084066Y18520176D01*
X19082570Y18511689D01*
X19063377Y18292309D01*
X16649500Y18292309D01*
X16649500Y19372812D01*
X19652914Y19372812D01*
X19656702Y19366508D01*
X20364914Y18658296D01*
X20376797Y18652242D01*
X20381828Y18653038D01*
X21092806Y19364016D01*
X21098860Y19375899D01*
X21098762Y19376521D01*
X21093935Y19382074D01*
X21036038Y19422614D01*
X21028588Y19426915D01*
X20828986Y19519991D01*
X20820900Y19522934D01*
X20608176Y19579934D01*
X20599689Y19581430D01*
X20380309Y19600623D01*
X20371691Y19600623D01*
X20152311Y19581430D01*
X20143824Y19579934D01*
X19931100Y19522934D01*
X19923014Y19519991D01*
X19723412Y19426915D01*
X19715962Y19422614D01*
X19660952Y19384095D01*
X19652926Y19373444D01*
X19652914Y19372812D01*
X16649500Y19372812D01*
X16649500Y19456678D01*
X16668407Y19514869D01*
X16678496Y19526682D01*
X17848706Y20696892D01*
X17903223Y20724669D01*
X17965946Y20713892D01*
X18028288Y20680043D01*
X18034058Y20678529D01*
X18034061Y20678528D01*
X18144770Y20649484D01*
X18192253Y20637027D01*
X18198222Y20636933D01*
X18198224Y20636933D01*
X18261307Y20635942D01*
X18361745Y20634365D01*
X18367561Y20635697D01*
X18521157Y20670875D01*
X18521160Y20670876D01*
X18526980Y20672209D01*
X18539544Y20678528D01*
X18673084Y20745691D01*
X18673086Y20745692D01*
X18678418Y20748374D01*
X18742687Y20803265D01*
X18802781Y20854590D01*
X18802784Y20854593D01*
X18807316Y20858464D01*
X18830545Y20890790D01*
X18902750Y20991274D01*
X18902751Y20991276D01*
X18906234Y20996123D01*
X18916159Y21020810D01*
X18967237Y21147870D01*
X18967238Y21147872D01*
X18969461Y21153403D01*
X18971637Y21168688D01*
X18992889Y21318019D01*
X18992889Y21318023D01*
X18993345Y21321225D01*
X18993500Y21336000D01*
X18976836Y21473704D01*
X18973852Y21498363D01*
X18973851Y21498366D01*
X18973135Y21504285D01*
X18913217Y21662855D01*
X18906310Y21672906D01*
X18820583Y21797638D01*
X18817203Y21802556D01*
X18690638Y21915321D01*
X18606774Y21959725D01*
X18546103Y21991849D01*
X18546100Y21991850D01*
X18540829Y21994641D01*
X18458626Y22015289D01*
X18382213Y22034483D01*
X18382210Y22034483D01*
X18376423Y22035937D01*
X18290734Y22036385D01*
X18212878Y22036793D01*
X18212876Y22036793D01*
X18206912Y22036824D01*
X18042082Y21997252D01*
X17985733Y21968168D01*
X17896756Y21922244D01*
X17896754Y21922242D01*
X17891450Y21919505D01*
X17886952Y21915581D01*
X17824266Y21860897D01*
X17767986Y21836892D01*
X17759186Y21836500D01*
X17745086Y21836500D01*
X17741596Y21836000D01*
X17741593Y21836000D01*
X17735207Y21835085D01*
X17732892Y21834754D01*
X17724990Y21833944D01*
X17684529Y21831434D01*
X17684527Y21831434D01*
X17677491Y21830997D01*
X17668739Y21827837D01*
X17667854Y21827518D01*
X17648270Y21822635D01*
X17638123Y21821182D01*
X17631700Y21818262D01*
X17631698Y21818261D01*
X17594792Y21801481D01*
X17587432Y21798485D01*
X17549318Y21784726D01*
X17549316Y21784725D01*
X17542682Y21782330D01*
X17536986Y21778169D01*
X17536981Y21778166D01*
X17534408Y21776286D01*
X17516982Y21766103D01*
X17514073Y21764780D01*
X17514072Y21764779D01*
X17507651Y21761860D01*
X17502310Y21757258D01*
X17502307Y21757256D01*
X17471590Y21730789D01*
X17465370Y21725850D01*
X17456081Y21719064D01*
X17456077Y21719060D01*
X17452995Y21716809D01*
X17440815Y21704629D01*
X17435435Y21699634D01*
X17399074Y21668303D01*
X17394780Y21661679D01*
X17381712Y21645526D01*
X16712530Y20976344D01*
X16658013Y20948567D01*
X16597581Y20958138D01*
X16554316Y21001403D01*
X16544745Y21061835D01*
X16550083Y21079853D01*
X16549602Y21080016D01*
X16616113Y21275952D01*
X16616114Y21275955D01*
X16617573Y21280254D01*
X16620164Y21298124D01*
X16647496Y21486626D01*
X16647497Y21486634D01*
X16647916Y21489526D01*
X16648067Y21495270D01*
X16649424Y21547087D01*
X16649424Y21547092D01*
X16649500Y21550000D01*
X16648606Y21559737D01*
X16631516Y21745718D01*
X16630151Y21760573D01*
X16572752Y21964094D01*
X16556400Y21997252D01*
X16481237Y22149670D01*
X16481235Y22149674D01*
X16479226Y22153747D01*
X16376604Y22291174D01*
X16355420Y22319543D01*
X16355419Y22319544D01*
X16352704Y22323180D01*
X16197424Y22466720D01*
X16176317Y22480038D01*
X16022423Y22577137D01*
X16018586Y22579558D01*
X15822180Y22657916D01*
X15614783Y22699170D01*
X15509062Y22700554D01*
X15407880Y22701879D01*
X15407875Y22701879D01*
X15403341Y22701938D01*
X15398866Y22701169D01*
X15398865Y22701169D01*
X15199404Y22666895D01*
X15194935Y22666127D01*
X15129571Y22642013D01*
X15000807Y22594510D01*
X15000804Y22594509D01*
X14996544Y22592937D01*
X14992641Y22590615D01*
X14992639Y22590614D01*
X14936627Y22557290D01*
X14814814Y22484819D01*
X14811399Y22481824D01*
X14811396Y22481822D01*
X14809362Y22480038D01*
X14655830Y22345394D01*
X14653018Y22341827D01*
X14571516Y22238442D01*
X14520643Y22204449D01*
X14459504Y22206851D01*
X14414446Y22240498D01*
X14355420Y22319543D01*
X14355419Y22319544D01*
X14352704Y22323180D01*
X14197424Y22466720D01*
X14176317Y22480038D01*
X14022423Y22577137D01*
X14018586Y22579558D01*
X13822180Y22657916D01*
X13614783Y22699170D01*
X13509062Y22700554D01*
X13407880Y22701879D01*
X13407875Y22701879D01*
X13403341Y22701938D01*
X13398866Y22701169D01*
X13398865Y22701169D01*
X13199404Y22666895D01*
X13194935Y22666127D01*
X13129571Y22642013D01*
X13000807Y22594510D01*
X13000804Y22594509D01*
X12996544Y22592937D01*
X12992641Y22590615D01*
X12992639Y22590614D01*
X12936627Y22557290D01*
X12814814Y22484819D01*
X12811399Y22481824D01*
X12811396Y22481822D01*
X12809362Y22480038D01*
X12655830Y22345394D01*
X12524916Y22179330D01*
X12522803Y22175315D01*
X12522803Y22175314D01*
X12429120Y21997252D01*
X12426457Y21992191D01*
X12425113Y21987862D01*
X12366047Y21797638D01*
X12363750Y21790242D01*
X12363216Y21785732D01*
X12363216Y21785731D01*
X12348618Y21662386D01*
X12338896Y21580247D01*
X754000Y21580247D01*
X754000Y24553038D01*
X9382078Y24553038D01*
X9382409Y24550944D01*
X9385498Y24547184D01*
X9502891Y24454805D01*
X9508318Y24451090D01*
X9760831Y24301753D01*
X9766691Y24298793D01*
X10036752Y24184159D01*
X10042943Y24182003D01*
X10325794Y24104093D01*
X10332212Y24102776D01*
X10622886Y24062959D01*
X10629429Y24062502D01*
X10922798Y24061478D01*
X10929365Y24061891D01*
X11220287Y24099674D01*
X11226726Y24100948D01*
X11510114Y24176883D01*
X11516321Y24178996D01*
X11787176Y24291741D01*
X11793050Y24294657D01*
X12046611Y24442233D01*
X12052053Y24445904D01*
X12178670Y24544119D01*
X12186168Y24555150D01*
X12186107Y24557086D01*
X12183335Y24561454D01*
X10795086Y25949704D01*
X10783203Y25955758D01*
X10778172Y25954962D01*
X9388132Y24564921D01*
X9382078Y24553038D01*
X754000Y24553038D01*
X754000Y26228518D01*
X8523065Y26228518D01*
X8523339Y26221974D01*
X8555024Y25930307D01*
X8556166Y25923834D01*
X8626145Y25638932D01*
X8628129Y25632677D01*
X8735180Y25359512D01*
X8737967Y25353592D01*
X8880201Y25096995D01*
X8883758Y25091474D01*
X9007590Y24924735D01*
X9018460Y24917011D01*
X9019840Y24917025D01*
X9025035Y24920246D01*
X10413704Y26308914D01*
X10418946Y26319203D01*
X11148242Y26319203D01*
X11149038Y26314172D01*
X12539634Y24923577D01*
X12551517Y24917523D01*
X12553061Y24917767D01*
X12557507Y24921497D01*
X12675623Y25078243D01*
X12679211Y25083727D01*
X12823233Y25339326D01*
X12826067Y25345241D01*
X12935017Y25617636D01*
X12937049Y25623889D01*
X13009016Y25908301D01*
X13010199Y25914745D01*
X13038807Y26162000D01*
X18490500Y26162000D01*
X18490500Y24638000D01*
X18491803Y24609812D01*
X18493369Y24604309D01*
X18515941Y24524979D01*
X18522528Y24501827D01*
X18590186Y24412233D01*
X18685641Y24353130D01*
X18694389Y24351495D01*
X18741693Y24312948D01*
X18757500Y24259283D01*
X18757500Y23640881D01*
X18757495Y23639844D01*
X18756623Y23556599D01*
X18758155Y23549514D01*
X18765969Y23513374D01*
X18767587Y23503490D01*
X18772517Y23459543D01*
X18783954Y23426699D01*
X18787223Y23415070D01*
X18794572Y23381078D01*
X18813268Y23340984D01*
X18817031Y23331716D01*
X18818953Y23326196D01*
X18831574Y23289955D01*
X18834505Y23285265D01*
X18834508Y23285258D01*
X18849999Y23260467D01*
X18855766Y23249846D01*
X18868125Y23223343D01*
X18868127Y23223339D01*
X18870465Y23218326D01*
X18897577Y23183373D01*
X18903299Y23175170D01*
X18926735Y23137665D01*
X18954595Y23109610D01*
X18955763Y23108362D01*
X18956463Y23107459D01*
X18995002Y23068920D01*
X18995245Y23068675D01*
X19030131Y23033545D01*
X19053271Y23010243D01*
X19054109Y23009711D01*
X19055101Y23008821D01*
X21432504Y20631418D01*
X21460281Y20576901D01*
X21461500Y20561414D01*
X21461500Y19055298D01*
X21442593Y18997107D01*
X21432504Y18985294D01*
X20746296Y18299086D01*
X20740242Y18287203D01*
X20741038Y18282172D01*
X21432504Y17590706D01*
X21460281Y17536189D01*
X21461500Y17520702D01*
X21461500Y17184881D01*
X21461495Y17183844D01*
X21460623Y17100599D01*
X21469969Y17057374D01*
X21471588Y17047487D01*
X21475401Y17013496D01*
X21476517Y17003543D01*
X21487954Y16970699D01*
X21491223Y16959070D01*
X21498572Y16925078D01*
X21517268Y16884984D01*
X21521031Y16875716D01*
X21535574Y16833955D01*
X21538505Y16829265D01*
X21538508Y16829258D01*
X21553999Y16804467D01*
X21559766Y16793846D01*
X21572125Y16767343D01*
X21572127Y16767339D01*
X21574465Y16762326D01*
X21601577Y16727373D01*
X21607299Y16719170D01*
X21630735Y16681665D01*
X21658595Y16653610D01*
X21659763Y16652362D01*
X21660463Y16651459D01*
X21699002Y16612920D01*
X21757271Y16554243D01*
X21758109Y16553711D01*
X21759101Y16552821D01*
X23635979Y14675943D01*
X23636708Y14675206D01*
X23694900Y14615782D01*
X23699552Y14612784D01*
X23732071Y14591827D01*
X23740207Y14585981D01*
X23774768Y14558391D01*
X23779745Y14555985D01*
X23779753Y14555980D01*
X23806080Y14543253D01*
X23816621Y14537338D01*
X23841195Y14521501D01*
X23841197Y14521500D01*
X23845846Y14518504D01*
X23887421Y14503371D01*
X23896629Y14499481D01*
X23919649Y14488353D01*
X23936444Y14480234D01*
X23941841Y14478988D01*
X23970330Y14472411D01*
X23981905Y14468983D01*
X24014593Y14457085D01*
X24037210Y14454228D01*
X24058461Y14451543D01*
X24068322Y14449787D01*
X24097648Y14443017D01*
X24111419Y14439838D01*
X24150963Y14439700D01*
X24152660Y14439643D01*
X24153798Y14439500D01*
X24208163Y14439500D01*
X24208511Y14439499D01*
X24290994Y14439211D01*
X24291963Y14439428D01*
X24293300Y14439500D01*
X24519414Y14439500D01*
X24577605Y14420593D01*
X24589418Y14410504D01*
X30927979Y8071943D01*
X30928708Y8071206D01*
X30986900Y8011782D01*
X30991552Y8008784D01*
X31024074Y7987825D01*
X31032208Y7981981D01*
X31066768Y7954392D01*
X31071747Y7951985D01*
X31071755Y7951980D01*
X31098074Y7939257D01*
X31108615Y7933342D01*
X31133195Y7917501D01*
X31133198Y7917500D01*
X31137846Y7914504D01*
X31179429Y7899368D01*
X31188619Y7895487D01*
X31228444Y7876235D01*
X31233832Y7874991D01*
X31245474Y7872303D01*
X31260826Y7868759D01*
X31262320Y7868414D01*
X31273911Y7864980D01*
X31301390Y7854978D01*
X31301396Y7854977D01*
X31306593Y7853085D01*
X31350492Y7847540D01*
X31360326Y7845787D01*
X31379958Y7841254D01*
X31398020Y7837084D01*
X31398022Y7837084D01*
X31403418Y7835838D01*
X31442957Y7835700D01*
X31444661Y7835644D01*
X31445798Y7835500D01*
X31500320Y7835500D01*
X31500664Y7835499D01*
X31582994Y7835212D01*
X31583960Y7835428D01*
X31585290Y7835500D01*
X43804500Y7835500D01*
X43862691Y7816593D01*
X43898655Y7767093D01*
X43903500Y7736500D01*
X43903500Y7488024D01*
X43884593Y7429833D01*
X43831592Y7392803D01*
X43805827Y7385472D01*
X43716233Y7317814D01*
X43657130Y7222359D01*
X43655444Y7213338D01*
X43637342Y7116507D01*
X43637341Y7116502D01*
X43636500Y7112000D01*
X43636500Y5588000D01*
X43637803Y5559812D01*
X43655142Y5498874D01*
X43659098Y5484971D01*
X43668528Y5451827D01*
X43736186Y5362233D01*
X43831641Y5303130D01*
X43879314Y5294218D01*
X43937493Y5283342D01*
X43937498Y5283341D01*
X43942000Y5282500D01*
X45466000Y5282500D01*
X45494188Y5283803D01*
X45569737Y5305299D01*
X45593352Y5312018D01*
X45593353Y5312018D01*
X45602173Y5314528D01*
X45667401Y5363786D01*
X45684447Y5376658D01*
X45684448Y5376659D01*
X45691767Y5382186D01*
X45750870Y5477641D01*
X45764854Y5552447D01*
X45770658Y5583493D01*
X45770659Y5583498D01*
X45771500Y5588000D01*
X45771500Y7112000D01*
X46176500Y7112000D01*
X46176500Y5588000D01*
X46177803Y5559812D01*
X46195142Y5498874D01*
X46199098Y5484971D01*
X46208528Y5451827D01*
X46276186Y5362233D01*
X46371641Y5303130D01*
X46419314Y5294218D01*
X46477493Y5283342D01*
X46477498Y5283341D01*
X46482000Y5282500D01*
X48006000Y5282500D01*
X48034188Y5283803D01*
X48109737Y5305299D01*
X48133352Y5312018D01*
X48133353Y5312018D01*
X48142173Y5314528D01*
X48207401Y5363786D01*
X48224447Y5376658D01*
X48224448Y5376659D01*
X48231767Y5382186D01*
X48290870Y5477641D01*
X48304854Y5552447D01*
X48310658Y5583493D01*
X48310659Y5583498D01*
X48311500Y5588000D01*
X48311500Y5592583D01*
X48311561Y5593241D01*
X48335758Y5649439D01*
X48388366Y5680681D01*
X48449290Y5675034D01*
X48495260Y5634656D01*
X48508969Y5587998D01*
X48509000Y5588000D01*
X48509010Y5587858D01*
X48509076Y5587634D01*
X48509126Y5586245D01*
X48513843Y5520285D01*
X48515717Y5509900D01*
X48553364Y5381686D01*
X48559187Y5368935D01*
X48630472Y5258013D01*
X48639651Y5247419D01*
X48739305Y5161069D01*
X48739766Y5160773D01*
X48740055Y5160419D01*
X48744651Y5156437D01*
X48743961Y5155641D01*
X48778492Y5113403D01*
X48781979Y5052317D01*
X48748894Y5000848D01*
X48739757Y4994211D01*
X48692013Y4963528D01*
X48681419Y4954349D01*
X48595074Y4854701D01*
X48587496Y4842910D01*
X48532722Y4722971D01*
X48528772Y4709516D01*
X48509504Y4575507D01*
X48509116Y4570078D01*
X48486106Y4513384D01*
X48434166Y4481043D01*
X48373137Y4485408D01*
X48326328Y4524811D01*
X48311474Y4572567D01*
X48310461Y4594469D01*
X48310197Y4600188D01*
X48279472Y4708173D01*
X48211814Y4797767D01*
X48116359Y4856870D01*
X48068686Y4865782D01*
X48010507Y4876658D01*
X48010502Y4876659D01*
X48006000Y4877500D01*
X46482000Y4877500D01*
X46453812Y4876197D01*
X46392874Y4858858D01*
X46354648Y4847982D01*
X46354647Y4847982D01*
X46345827Y4845472D01*
X46256233Y4777814D01*
X46197130Y4682359D01*
X46195444Y4673338D01*
X46177342Y4576507D01*
X46177341Y4576502D01*
X46176500Y4572000D01*
X46176500Y3048000D01*
X46177803Y3019812D01*
X46208528Y2911827D01*
X46276186Y2822233D01*
X46371641Y2763130D01*
X46419314Y2754218D01*
X46477493Y2743342D01*
X46477498Y2743341D01*
X46482000Y2742500D01*
X48006000Y2742500D01*
X48034188Y2743803D01*
X48109737Y2765299D01*
X48133352Y2772018D01*
X48133353Y2772018D01*
X48142173Y2774528D01*
X48231767Y2842186D01*
X48290870Y2937641D01*
X48307300Y3025531D01*
X48310658Y3043493D01*
X48310659Y3043498D01*
X48311500Y3048000D01*
X48311500Y3052583D01*
X48311561Y3053241D01*
X48335758Y3109439D01*
X48388366Y3140681D01*
X48449290Y3135034D01*
X48495260Y3094656D01*
X48508969Y3047998D01*
X48509000Y3048000D01*
X48509010Y3047858D01*
X48509076Y3047634D01*
X48509126Y3046245D01*
X48513843Y2980285D01*
X48515717Y2969900D01*
X48553364Y2841686D01*
X48559187Y2828935D01*
X48630472Y2718013D01*
X48639651Y2707419D01*
X48739299Y2621074D01*
X48751090Y2613496D01*
X48871029Y2558722D01*
X48884484Y2554772D01*
X49018491Y2535505D01*
X49025543Y2535000D01*
X49514320Y2535000D01*
X49527005Y2539122D01*
X49530000Y2543243D01*
X49530000Y3547757D01*
X50038000Y3547757D01*
X50038000Y2550680D01*
X50042122Y2537995D01*
X50046243Y2535000D01*
X50544236Y2535000D01*
X50547756Y2535126D01*
X50613715Y2539843D01*
X50624100Y2541717D01*
X50752314Y2579364D01*
X50765065Y2585187D01*
X50875987Y2656472D01*
X50886581Y2665651D01*
X50972926Y2765299D01*
X50980504Y2777090D01*
X51035278Y2897029D01*
X51039228Y2910484D01*
X51058495Y3044491D01*
X51059000Y3051543D01*
X51059000Y3540320D01*
X51054878Y3553005D01*
X51050757Y3556000D01*
X50053680Y3556000D01*
X50040995Y3551878D01*
X50038000Y3547757D01*
X49530000Y3547757D01*
X49530000Y6087757D01*
X50038000Y6087757D01*
X50038000Y4079680D01*
X50042122Y4066995D01*
X50046243Y4064000D01*
X51043320Y4064000D01*
X51056005Y4068122D01*
X51059000Y4072243D01*
X51059000Y4570236D01*
X51058874Y4573756D01*
X51054157Y4639715D01*
X51052283Y4650100D01*
X51014636Y4778314D01*
X51008813Y4791065D01*
X50937528Y4901987D01*
X50928349Y4912581D01*
X50828695Y4998931D01*
X50828234Y4999227D01*
X50827945Y4999581D01*
X50823349Y5003563D01*
X50824039Y5004359D01*
X50789508Y5046597D01*
X50786021Y5107683D01*
X50819106Y5159152D01*
X50828243Y5165789D01*
X50875987Y5196472D01*
X50886581Y5205651D01*
X50972926Y5305299D01*
X50980504Y5317090D01*
X51035278Y5437029D01*
X51039228Y5450484D01*
X51058495Y5584491D01*
X51059000Y5591543D01*
X51059000Y6080320D01*
X51054878Y6093005D01*
X51050757Y6096000D01*
X50053680Y6096000D01*
X50040995Y6091878D01*
X50038000Y6087757D01*
X49530000Y6087757D01*
X49530000Y7609320D01*
X49527583Y7616757D01*
X50038000Y7616757D01*
X50038000Y6619680D01*
X50042122Y6606995D01*
X50046243Y6604000D01*
X51043320Y6604000D01*
X51056005Y6608122D01*
X51059000Y6612243D01*
X51059000Y7110236D01*
X51058874Y7113756D01*
X51054157Y7179715D01*
X51052283Y7190100D01*
X51014636Y7318314D01*
X51008813Y7331065D01*
X50937528Y7441987D01*
X50928349Y7452581D01*
X50828701Y7538926D01*
X50816910Y7546504D01*
X50696971Y7601278D01*
X50683516Y7605228D01*
X50549509Y7624495D01*
X50542457Y7625000D01*
X50053680Y7625000D01*
X50040995Y7620878D01*
X50038000Y7616757D01*
X49527583Y7616757D01*
X49525878Y7622005D01*
X49521757Y7625000D01*
X49023764Y7625000D01*
X49020244Y7624874D01*
X48954285Y7620157D01*
X48943900Y7618283D01*
X48815686Y7580636D01*
X48802935Y7574813D01*
X48692013Y7503528D01*
X48681419Y7494349D01*
X48595074Y7394701D01*
X48587496Y7382910D01*
X48532722Y7262971D01*
X48528772Y7249516D01*
X48509504Y7115507D01*
X48509116Y7110078D01*
X48486106Y7053384D01*
X48434166Y7021043D01*
X48373137Y7025408D01*
X48326328Y7064811D01*
X48311474Y7112567D01*
X48310461Y7134469D01*
X48310197Y7140188D01*
X48279472Y7248173D01*
X48211814Y7337767D01*
X48116359Y7396870D01*
X48068686Y7405782D01*
X48010507Y7416658D01*
X48010502Y7416659D01*
X48006000Y7417500D01*
X46482000Y7417500D01*
X46453812Y7416197D01*
X46392874Y7398858D01*
X46354648Y7387982D01*
X46354647Y7387982D01*
X46345827Y7385472D01*
X46256233Y7317814D01*
X46197130Y7222359D01*
X46195444Y7213338D01*
X46177342Y7116507D01*
X46177341Y7116502D01*
X46176500Y7112000D01*
X45771500Y7112000D01*
X45770197Y7140188D01*
X45739472Y7248173D01*
X45671814Y7337767D01*
X45576359Y7396870D01*
X45567611Y7398505D01*
X45520307Y7437052D01*
X45504500Y7490717D01*
X45504500Y8109119D01*
X45504505Y8110156D01*
X45505218Y8178197D01*
X45505377Y8193401D01*
X45496029Y8236635D01*
X45494412Y8246513D01*
X45490100Y8284960D01*
X45490099Y8284964D01*
X45489483Y8290457D01*
X45478046Y8323301D01*
X45474777Y8334931D01*
X45468598Y8363509D01*
X45467428Y8368922D01*
X45448734Y8409011D01*
X45444965Y8418294D01*
X45432247Y8454816D01*
X45432247Y8454817D01*
X45430426Y8460045D01*
X45412002Y8489530D01*
X45406236Y8500151D01*
X45393875Y8526659D01*
X45393871Y8526666D01*
X45391536Y8531673D01*
X45388149Y8536039D01*
X45388145Y8536046D01*
X45364426Y8566624D01*
X45358694Y8574840D01*
X45338197Y8607643D01*
X45338196Y8607644D01*
X45335265Y8612335D01*
X45307405Y8640390D01*
X45306237Y8641638D01*
X45305537Y8642541D01*
X45266998Y8681080D01*
X45208729Y8739757D01*
X45207891Y8740289D01*
X45206899Y8741179D01*
X44748021Y9200057D01*
X44747292Y9200794D01*
X44692971Y9256265D01*
X44689100Y9260218D01*
X44651929Y9284173D01*
X44643793Y9290019D01*
X44635471Y9296662D01*
X44609232Y9317609D01*
X44604255Y9320015D01*
X44604247Y9320020D01*
X44577920Y9332747D01*
X44567379Y9338662D01*
X44542805Y9354499D01*
X44542803Y9354500D01*
X44538154Y9357496D01*
X44496579Y9372629D01*
X44487371Y9376519D01*
X44452544Y9393355D01*
X44452542Y9393356D01*
X44447556Y9395766D01*
X44413669Y9403589D01*
X44402095Y9407017D01*
X44369407Y9418915D01*
X44346790Y9421772D01*
X44325539Y9424457D01*
X44315678Y9426213D01*
X44286352Y9432983D01*
X44272581Y9436162D01*
X44233037Y9436300D01*
X44231340Y9436357D01*
X44230202Y9436500D01*
X44175837Y9436500D01*
X44175491Y9436501D01*
X44173834Y9436507D01*
X44093006Y9436789D01*
X44092037Y9436572D01*
X44090700Y9436500D01*
X31868586Y9436500D01*
X31810395Y9455407D01*
X31798582Y9465496D01*
X30541586Y10722492D01*
X30513809Y10777009D01*
X30523380Y10837441D01*
X30566645Y10880706D01*
X30611590Y10891496D01*
X43075492Y10891496D01*
X43087537Y10890150D01*
X43087545Y10890246D01*
X43094577Y10889680D01*
X43101455Y10888124D01*
X43152743Y10891306D01*
X43158874Y10891496D01*
X43176910Y10891496D01*
X43180400Y10891996D01*
X43180403Y10891996D01*
X43186789Y10892911D01*
X43189104Y10893242D01*
X43197006Y10894052D01*
X43237467Y10896562D01*
X43237469Y10896562D01*
X43244505Y10896999D01*
X43254141Y10900478D01*
X43273726Y10905361D01*
X43283873Y10906814D01*
X43290296Y10909734D01*
X43290298Y10909735D01*
X43327204Y10926515D01*
X43334564Y10929511D01*
X43372678Y10943270D01*
X43372680Y10943271D01*
X43379314Y10945666D01*
X43385010Y10949827D01*
X43385015Y10949830D01*
X43387588Y10951710D01*
X43405014Y10961893D01*
X43407923Y10963216D01*
X43407924Y10963217D01*
X43414345Y10966136D01*
X43419686Y10970738D01*
X43419689Y10970740D01*
X43450406Y10997207D01*
X43456626Y11002146D01*
X43465915Y11008932D01*
X43465919Y11008936D01*
X43469001Y11011187D01*
X43481181Y11023367D01*
X43486561Y11028362D01*
X43517580Y11055090D01*
X43522922Y11059693D01*
X43527216Y11066317D01*
X43540284Y11082470D01*
X44427582Y11969768D01*
X44482099Y11997545D01*
X44499137Y11998752D01*
X44523745Y11998365D01*
X44529561Y11999697D01*
X44683157Y12034875D01*
X44683160Y12034876D01*
X44688980Y12036209D01*
X44694315Y12038892D01*
X44835084Y12109691D01*
X44835086Y12109692D01*
X44840418Y12112374D01*
X44880463Y12146576D01*
X44964781Y12218590D01*
X44964784Y12218593D01*
X44969316Y12222464D01*
X45068234Y12360123D01*
X45085163Y12402233D01*
X45129237Y12511870D01*
X45129238Y12511872D01*
X45131461Y12517403D01*
X45155345Y12685225D01*
X45155500Y12700000D01*
X45135135Y12868285D01*
X45075217Y13026855D01*
X45067391Y13038243D01*
X44982583Y13161638D01*
X44979203Y13166556D01*
X44852638Y13279321D01*
X44839563Y13286244D01*
X44708103Y13355849D01*
X44708100Y13355850D01*
X44702829Y13358641D01*
X44610367Y13381866D01*
X44544213Y13398483D01*
X44544210Y13398483D01*
X44538423Y13399937D01*
X44452734Y13400385D01*
X44374878Y13400793D01*
X44374876Y13400793D01*
X44368912Y13400824D01*
X44204082Y13361252D01*
X44170349Y13343841D01*
X44058756Y13286244D01*
X44058754Y13286242D01*
X44053450Y13283505D01*
X44048955Y13279583D01*
X44048951Y13279581D01*
X43993726Y13231405D01*
X43925711Y13172072D01*
X43922283Y13167194D01*
X43922279Y13167190D01*
X43896236Y13130134D01*
X43847307Y13093397D01*
X43786129Y13092435D01*
X43733651Y13130984D01*
X43733645Y13130993D01*
X43709203Y13166556D01*
X43582638Y13279321D01*
X43569563Y13286244D01*
X43438103Y13355849D01*
X43438100Y13355850D01*
X43432829Y13358641D01*
X43340367Y13381866D01*
X43274213Y13398483D01*
X43274210Y13398483D01*
X43268423Y13399937D01*
X43182734Y13400385D01*
X43104878Y13400793D01*
X43104876Y13400793D01*
X43098912Y13400824D01*
X42934082Y13361252D01*
X42900349Y13343841D01*
X42788756Y13286244D01*
X42788754Y13286242D01*
X42783450Y13283505D01*
X42778955Y13279583D01*
X42778951Y13279581D01*
X42723726Y13231405D01*
X42655711Y13172072D01*
X42558240Y13033385D01*
X42556073Y13027827D01*
X42556072Y13027825D01*
X42500285Y12884735D01*
X42496665Y12875451D01*
X42495886Y12869536D01*
X42495886Y12869535D01*
X42491507Y12836271D01*
X42465166Y12781046D01*
X42411396Y12751851D01*
X42393354Y12750193D01*
X35261324Y12750193D01*
X35203133Y12769100D01*
X35167169Y12818600D01*
X35167169Y12879786D01*
X35169468Y12886119D01*
X35223237Y13019870D01*
X35223238Y13019872D01*
X35225461Y13025403D01*
X35227289Y13038243D01*
X35248889Y13190019D01*
X35248889Y13190023D01*
X35249345Y13193225D01*
X35249500Y13208000D01*
X35233061Y13343841D01*
X35229852Y13370363D01*
X35229851Y13370366D01*
X35229135Y13376285D01*
X35169217Y13534855D01*
X35139815Y13577636D01*
X35076583Y13669638D01*
X35073203Y13674556D01*
X34946638Y13787321D01*
X34933563Y13794244D01*
X34802103Y13863849D01*
X34802100Y13863850D01*
X34796829Y13866641D01*
X34702611Y13890307D01*
X34638213Y13906483D01*
X34638210Y13906483D01*
X34632423Y13907937D01*
X34546734Y13908385D01*
X34468878Y13908793D01*
X34468876Y13908793D01*
X34462912Y13908824D01*
X34298082Y13869252D01*
X34219827Y13828862D01*
X34152756Y13794244D01*
X34152754Y13794242D01*
X34147450Y13791505D01*
X34142952Y13787581D01*
X34080266Y13732897D01*
X34023986Y13708892D01*
X34015186Y13708500D01*
X30728322Y13708500D01*
X30670131Y13727407D01*
X30658318Y13737496D01*
X29409814Y14986000D01*
X49986500Y14986000D01*
X49986500Y13462000D01*
X49987803Y13433812D01*
X49997855Y13398483D01*
X50009228Y13358514D01*
X50018528Y13325827D01*
X50086186Y13236233D01*
X50181641Y13177130D01*
X50229314Y13168218D01*
X50287493Y13157342D01*
X50287498Y13157341D01*
X50292000Y13156500D01*
X51816000Y13156500D01*
X51844188Y13157803D01*
X51912114Y13177130D01*
X51943352Y13186018D01*
X51943353Y13186018D01*
X51952173Y13188528D01*
X52041767Y13256186D01*
X52100870Y13351641D01*
X52117300Y13439531D01*
X52120658Y13457493D01*
X52120659Y13457498D01*
X52121500Y13462000D01*
X52121500Y14986000D01*
X52120197Y15014188D01*
X52089472Y15122173D01*
X52021814Y15211767D01*
X51926359Y15270870D01*
X51878686Y15279782D01*
X51820507Y15290658D01*
X51820502Y15290659D01*
X51816000Y15291500D01*
X50292000Y15291500D01*
X50263812Y15290197D01*
X50202874Y15272858D01*
X50164648Y15261982D01*
X50164647Y15261982D01*
X50155827Y15259472D01*
X50066233Y15191814D01*
X50007130Y15096359D01*
X50001394Y15065672D01*
X49987342Y14990507D01*
X49987341Y14990502D01*
X49986500Y14986000D01*
X29409814Y14986000D01*
X27961496Y16434318D01*
X27933719Y16488835D01*
X27932500Y16504322D01*
X27932500Y17244462D01*
X27951340Y17302447D01*
X27951316Y17302464D01*
X27951370Y17302539D01*
X27999732Y17369841D01*
X28046750Y17435274D01*
X28046751Y17435276D01*
X28050234Y17440123D01*
X28082915Y17521417D01*
X28084757Y17526000D01*
X49986500Y17526000D01*
X49986500Y16002000D01*
X49987803Y15973812D01*
X50018528Y15865827D01*
X50086186Y15776233D01*
X50181641Y15717130D01*
X50229314Y15708218D01*
X50287493Y15697342D01*
X50287498Y15697341D01*
X50292000Y15696500D01*
X51816000Y15696500D01*
X51844188Y15697803D01*
X51912114Y15717130D01*
X51943352Y15726018D01*
X51943353Y15726018D01*
X51952173Y15728528D01*
X52041767Y15796186D01*
X52100870Y15891641D01*
X52117300Y15979531D01*
X52120658Y15997493D01*
X52120659Y15997498D01*
X52121500Y16002000D01*
X52121500Y17526000D01*
X52120197Y17554188D01*
X52089472Y17662173D01*
X52021814Y17751767D01*
X51926359Y17810870D01*
X51878686Y17819782D01*
X51820507Y17830658D01*
X51820502Y17830659D01*
X51816000Y17831500D01*
X50292000Y17831500D01*
X50263812Y17830197D01*
X50202874Y17812858D01*
X50164648Y17801982D01*
X50164647Y17801982D01*
X50155827Y17799472D01*
X50066233Y17731814D01*
X50007130Y17636359D01*
X50005444Y17627338D01*
X49987342Y17530507D01*
X49987341Y17530502D01*
X49986500Y17526000D01*
X28084757Y17526000D01*
X28111237Y17591870D01*
X28111238Y17591872D01*
X28113461Y17597403D01*
X28117722Y17627338D01*
X28136889Y17762019D01*
X28136889Y17762023D01*
X28137345Y17765225D01*
X28137500Y17780000D01*
X28120563Y17919960D01*
X28117852Y17942363D01*
X28117851Y17942366D01*
X28117135Y17948285D01*
X28057217Y18106855D01*
X27961203Y18246556D01*
X27834638Y18359321D01*
X27829367Y18362112D01*
X27690103Y18435849D01*
X27690100Y18435850D01*
X27684829Y18438641D01*
X27602626Y18459289D01*
X27526213Y18478483D01*
X27526210Y18478483D01*
X27520423Y18479937D01*
X27434734Y18480385D01*
X27356878Y18480793D01*
X27356876Y18480793D01*
X27350912Y18480824D01*
X27186082Y18441252D01*
X27109998Y18401982D01*
X27040756Y18366244D01*
X27040754Y18366242D01*
X27035450Y18363505D01*
X27030952Y18359581D01*
X26994038Y18327379D01*
X26937759Y18303374D01*
X26878117Y18317034D01*
X26837896Y18363141D01*
X26829958Y18401982D01*
X26829958Y20359311D01*
X51712325Y20359311D01*
X51717979Y20352982D01*
X51917288Y20221312D01*
X51923523Y20217812D01*
X52161122Y20106261D01*
X52167786Y20103703D01*
X52419003Y20027616D01*
X52425967Y20026047D01*
X52685532Y19987023D01*
X52692653Y19986475D01*
X52955117Y19985330D01*
X52962274Y19985818D01*
X53222144Y20022571D01*
X53229143Y20024085D01*
X53480993Y20097970D01*
X53487697Y20100477D01*
X53726244Y20209944D01*
X53732518Y20213393D01*
X53947806Y20352935D01*
X53951600Y20359311D01*
X56792325Y20359311D01*
X56797979Y20352982D01*
X56997288Y20221312D01*
X57003523Y20217812D01*
X57241122Y20106261D01*
X57247786Y20103703D01*
X57499003Y20027616D01*
X57505967Y20026047D01*
X57765532Y19987023D01*
X57772653Y19986475D01*
X58035117Y19985330D01*
X58042274Y19985818D01*
X58302144Y20022571D01*
X58309143Y20024085D01*
X58560993Y20097970D01*
X58567697Y20100477D01*
X58806244Y20209944D01*
X58812518Y20213393D01*
X59027806Y20352935D01*
X59032359Y20360586D01*
X59032036Y20364102D01*
X59030665Y20366125D01*
X57923086Y21473704D01*
X57911203Y21479758D01*
X57906172Y21478962D01*
X56798354Y20371144D01*
X56792325Y20359311D01*
X53951600Y20359311D01*
X53952359Y20360586D01*
X53952036Y20364102D01*
X53950665Y20366125D01*
X52843086Y21473704D01*
X52831203Y21479758D01*
X52826172Y21478962D01*
X51718354Y20371144D01*
X51712325Y20359311D01*
X26829958Y20359311D01*
X26829958Y21763071D01*
X50971015Y21763071D01*
X50971339Y21755931D01*
X51002190Y21495270D01*
X51003541Y21488256D01*
X51071696Y21234784D01*
X51074048Y21228029D01*
X51178078Y20987054D01*
X51181379Y20980712D01*
X51319111Y20757269D01*
X51323284Y20751483D01*
X51339191Y20732491D01*
X51350497Y20725412D01*
X51353421Y20725614D01*
X51356324Y20727534D01*
X52461704Y21832914D01*
X52467758Y21844797D01*
X52466962Y21849828D01*
X51360764Y22956026D01*
X51348881Y22962080D01*
X51348374Y22962000D01*
X51342687Y22957034D01*
X51230487Y22795298D01*
X51226839Y22789130D01*
X51109930Y22554136D01*
X51107217Y22547518D01*
X51025455Y22298105D01*
X51023727Y22291174D01*
X50978825Y22032568D01*
X50978114Y22025445D01*
X50971015Y21763071D01*
X26829958Y21763071D01*
X26829958Y22480038D01*
X26831304Y22492083D01*
X26831208Y22492091D01*
X26831774Y22499123D01*
X26833330Y22506001D01*
X26830148Y22557290D01*
X26829958Y22563420D01*
X26829958Y22581456D01*
X26828212Y22593650D01*
X26827402Y22601552D01*
X26824892Y22642013D01*
X26824892Y22642015D01*
X26824455Y22649051D01*
X26820976Y22658688D01*
X26816093Y22678272D01*
X26814640Y22688419D01*
X26808520Y22701879D01*
X26794939Y22731750D01*
X26791943Y22739110D01*
X26778184Y22777224D01*
X26778183Y22777226D01*
X26775788Y22783860D01*
X26771627Y22789556D01*
X26771624Y22789561D01*
X26769744Y22792134D01*
X26759561Y22809560D01*
X26758238Y22812469D01*
X26758237Y22812470D01*
X26755318Y22818891D01*
X26750716Y22824232D01*
X26750714Y22824235D01*
X26724247Y22854952D01*
X26719308Y22861172D01*
X26712522Y22870461D01*
X26712518Y22870465D01*
X26710267Y22873547D01*
X26698087Y22885727D01*
X26693092Y22891107D01*
X26666364Y22922126D01*
X26661761Y22927468D01*
X26655137Y22931762D01*
X26638984Y22944830D01*
X25408600Y24175214D01*
X25380823Y24229731D01*
X25390394Y24290163D01*
X25433659Y24333428D01*
X25451511Y24340439D01*
X25527352Y24362018D01*
X25527353Y24362018D01*
X25536173Y24364528D01*
X25625767Y24432186D01*
X25684870Y24527641D01*
X25702910Y24624145D01*
X25704658Y24633493D01*
X25704659Y24633498D01*
X25705500Y24638000D01*
X25705500Y26162000D01*
X25704197Y26190188D01*
X25673472Y26298173D01*
X25605814Y26387767D01*
X25510359Y26446870D01*
X25462686Y26455782D01*
X25404507Y26466658D01*
X25404502Y26466659D01*
X25400000Y26467500D01*
X23876000Y26467500D01*
X23847812Y26466197D01*
X23786874Y26448858D01*
X23748648Y26437982D01*
X23748647Y26437982D01*
X23739827Y26435472D01*
X23650233Y26367814D01*
X23591130Y26272359D01*
X23589444Y26263338D01*
X23571342Y26166507D01*
X23571341Y26166502D01*
X23570500Y26162000D01*
X23570500Y24638000D01*
X23571141Y24624143D01*
X23554939Y24565144D01*
X23507151Y24526934D01*
X23446031Y24524110D01*
X23402242Y24549572D01*
X23194496Y24757318D01*
X23166719Y24811835D01*
X23165500Y24827322D01*
X23165500Y26162000D01*
X23164197Y26190188D01*
X23133472Y26298173D01*
X23065814Y26387767D01*
X22970359Y26446870D01*
X22922686Y26455782D01*
X22864507Y26466658D01*
X22864502Y26466659D01*
X22860000Y26467500D01*
X21336000Y26467500D01*
X21307812Y26466197D01*
X21246874Y26448858D01*
X21208648Y26437982D01*
X21208647Y26437982D01*
X21199827Y26435472D01*
X21110233Y26367814D01*
X21051130Y26272359D01*
X21049444Y26263338D01*
X21031342Y26166507D01*
X21031341Y26166502D01*
X21030500Y26162000D01*
X21030500Y24638000D01*
X21031803Y24609812D01*
X21033369Y24604309D01*
X21055941Y24524979D01*
X21062528Y24501827D01*
X21130186Y24412233D01*
X21225641Y24353130D01*
X21273314Y24344218D01*
X21331493Y24333342D01*
X21331498Y24333341D01*
X21336000Y24332500D01*
X22162678Y24332500D01*
X22220869Y24313593D01*
X22232682Y24303504D01*
X25199952Y21336234D01*
X25227729Y21281717D01*
X25228948Y21266230D01*
X25228949Y16160513D01*
X25227603Y16148468D01*
X25227699Y16148460D01*
X25227133Y16141428D01*
X25225577Y16134550D01*
X25226635Y16117504D01*
X25211368Y16058255D01*
X25164191Y16019294D01*
X25103123Y16015504D01*
X25093980Y16018339D01*
X25081407Y16022915D01*
X25058790Y16025772D01*
X25037539Y16028457D01*
X25027678Y16030213D01*
X24998352Y16036983D01*
X24984581Y16040162D01*
X24945037Y16040300D01*
X24943340Y16040357D01*
X24942202Y16040500D01*
X24887837Y16040500D01*
X24887491Y16040501D01*
X24885834Y16040507D01*
X24805006Y16040789D01*
X24804037Y16040572D01*
X24802700Y16040500D01*
X24576586Y16040500D01*
X24518395Y16059407D01*
X24506582Y16069496D01*
X23562582Y17013496D01*
X23534805Y17068013D01*
X23544376Y17128445D01*
X23587641Y17171710D01*
X23632586Y17182500D01*
X24676000Y17182500D01*
X24704188Y17183803D01*
X24794474Y17209492D01*
X24803352Y17212018D01*
X24803353Y17212018D01*
X24812173Y17214528D01*
X24901767Y17282186D01*
X24960870Y17377641D01*
X24973586Y17445662D01*
X24980658Y17483493D01*
X24980659Y17483498D01*
X24981500Y17488000D01*
X24981500Y19088000D01*
X24980197Y19116188D01*
X24949472Y19224173D01*
X24881814Y19313767D01*
X24786359Y19372870D01*
X24726312Y19384095D01*
X24680507Y19392658D01*
X24680502Y19392659D01*
X24676000Y19393500D01*
X23161500Y19393500D01*
X23103309Y19412407D01*
X23067345Y19461907D01*
X23062500Y19492500D01*
X23062500Y20931119D01*
X23062505Y20932156D01*
X23063319Y21009868D01*
X23063377Y21015401D01*
X23054029Y21058635D01*
X23052412Y21068513D01*
X23048100Y21106960D01*
X23048099Y21106964D01*
X23047483Y21112457D01*
X23036046Y21145301D01*
X23032777Y21156931D01*
X23026599Y21185506D01*
X23025428Y21190922D01*
X23006732Y21231016D01*
X23002969Y21240284D01*
X22990246Y21276818D01*
X22988426Y21282045D01*
X22985495Y21286735D01*
X22985492Y21286742D01*
X22970001Y21311533D01*
X22964234Y21322154D01*
X22951875Y21348657D01*
X22951873Y21348661D01*
X22949535Y21353674D01*
X22922423Y21388627D01*
X22916701Y21396830D01*
X22896198Y21429642D01*
X22896196Y21429645D01*
X22893265Y21434335D01*
X22865405Y21462390D01*
X22864237Y21463638D01*
X22863537Y21464541D01*
X22824998Y21503080D01*
X22823802Y21504285D01*
X22768735Y21559737D01*
X22766729Y21561757D01*
X22765891Y21562289D01*
X22764899Y21563179D01*
X20387496Y23940582D01*
X20359719Y23995099D01*
X20358500Y24010586D01*
X20358500Y24261976D01*
X20377407Y24320167D01*
X20430408Y24357197D01*
X20447351Y24362018D01*
X20447350Y24362018D01*
X20456173Y24364528D01*
X20545767Y24432186D01*
X20604870Y24527641D01*
X20622910Y24624145D01*
X20624658Y24633493D01*
X20624659Y24633498D01*
X20625500Y24638000D01*
X20625500Y26162000D01*
X20624197Y26190188D01*
X20593472Y26298173D01*
X20525814Y26387767D01*
X20430359Y26446870D01*
X20382686Y26455782D01*
X20324507Y26466658D01*
X20324502Y26466659D01*
X20320000Y26467500D01*
X18796000Y26467500D01*
X18767812Y26466197D01*
X18706874Y26448858D01*
X18668648Y26437982D01*
X18668647Y26437982D01*
X18659827Y26435472D01*
X18570233Y26367814D01*
X18511130Y26272359D01*
X18509444Y26263338D01*
X18491342Y26166507D01*
X18491341Y26166502D01*
X18490500Y26162000D01*
X13038807Y26162000D01*
X13044040Y26207226D01*
X13044353Y26211700D01*
X13046945Y26317752D01*
X13046851Y26322243D01*
X13027339Y26616012D01*
X13026471Y26622518D01*
X12968483Y26910107D01*
X12966759Y26916450D01*
X12871248Y27193836D01*
X12868703Y27199890D01*
X12737342Y27462210D01*
X12734018Y27467876D01*
X12569115Y27710524D01*
X12565075Y27715695D01*
X12563173Y27717822D01*
X12551646Y27724531D01*
X12547881Y27724149D01*
X12546229Y27723018D01*
X11154296Y26331086D01*
X11148242Y26319203D01*
X10418946Y26319203D01*
X10419758Y26320797D01*
X10418962Y26325828D01*
X9028770Y27716019D01*
X9016887Y27722073D01*
X9014243Y27721655D01*
X9011191Y27719201D01*
X8946038Y27639882D01*
X8942222Y27634553D01*
X8787620Y27385205D01*
X8784546Y27379422D01*
X8664276Y27111813D01*
X8661993Y27105672D01*
X8578175Y26824510D01*
X8576723Y26818120D01*
X8530829Y26528353D01*
X8530234Y26521809D01*
X8523065Y26228518D01*
X754000Y26228518D01*
X754000Y28086126D01*
X9379462Y28086126D01*
X9383113Y28080098D01*
X10772914Y26690296D01*
X10784797Y26684242D01*
X10789828Y26685038D01*
X12180873Y28076084D01*
X12186927Y28087967D01*
X12186422Y28091156D01*
X12184587Y28093489D01*
X12142084Y28129918D01*
X12136834Y28133845D01*
X11890777Y28293636D01*
X11885066Y28296828D01*
X11620030Y28422677D01*
X11613944Y28425086D01*
X11334593Y28514776D01*
X11328237Y28516361D01*
X11039492Y28568314D01*
X11032969Y28569046D01*
X10739886Y28582355D01*
X10733336Y28582218D01*
X10441065Y28556647D01*
X10434591Y28555645D01*
X10148258Y28491643D01*
X10141987Y28489797D01*
X9866633Y28388485D01*
X9860654Y28385823D01*
X9601117Y28248986D01*
X9595551Y28245561D01*
X9387422Y28097652D01*
X9379471Y28086945D01*
X9379462Y28086126D01*
X754000Y28086126D01*
X754000Y28702000D01*
X18490500Y28702000D01*
X18490500Y27178000D01*
X18491803Y27149812D01*
X18522528Y27041827D01*
X18590186Y26952233D01*
X18685641Y26893130D01*
X18733314Y26884218D01*
X18791493Y26873342D01*
X18791498Y26873341D01*
X18796000Y26872500D01*
X20320000Y26872500D01*
X20348188Y26873803D01*
X20416114Y26893130D01*
X20447352Y26902018D01*
X20447353Y26902018D01*
X20456173Y26904528D01*
X20545767Y26972186D01*
X20604870Y27067641D01*
X20621300Y27155531D01*
X20624658Y27173493D01*
X20624659Y27173498D01*
X20625500Y27178000D01*
X20625500Y28702000D01*
X21030500Y28702000D01*
X21030500Y27178000D01*
X21031803Y27149812D01*
X21062528Y27041827D01*
X21130186Y26952233D01*
X21225641Y26893130D01*
X21273314Y26884218D01*
X21331493Y26873342D01*
X21331498Y26873341D01*
X21336000Y26872500D01*
X22860000Y26872500D01*
X22888188Y26873803D01*
X22956114Y26893130D01*
X22987352Y26902018D01*
X22987353Y26902018D01*
X22996173Y26904528D01*
X23085767Y26972186D01*
X23144870Y27067641D01*
X23161300Y27155531D01*
X23164658Y27173493D01*
X23164659Y27173498D01*
X23165500Y27178000D01*
X23165500Y28702000D01*
X23570500Y28702000D01*
X23570500Y27178000D01*
X23571803Y27149812D01*
X23602528Y27041827D01*
X23670186Y26952233D01*
X23765641Y26893130D01*
X23813314Y26884218D01*
X23871493Y26873342D01*
X23871498Y26873341D01*
X23876000Y26872500D01*
X25400000Y26872500D01*
X25428188Y26873803D01*
X25496114Y26893130D01*
X25527352Y26902018D01*
X25527353Y26902018D01*
X25536173Y26904528D01*
X25625767Y26972186D01*
X25684870Y27067641D01*
X25701300Y27155531D01*
X25704658Y27173493D01*
X25704659Y27173498D01*
X25705500Y27178000D01*
X25705500Y28702000D01*
X26110500Y28702000D01*
X26110500Y27178000D01*
X26111803Y27149812D01*
X26142528Y27041827D01*
X26210186Y26952233D01*
X26305641Y26893130D01*
X26353314Y26884218D01*
X26411493Y26873342D01*
X26411498Y26873341D01*
X26416000Y26872500D01*
X27449678Y26872500D01*
X27507869Y26853593D01*
X27543833Y26804093D01*
X27543833Y26742907D01*
X27519682Y26703496D01*
X27312682Y26496496D01*
X27258165Y26468719D01*
X27242678Y26467500D01*
X26416000Y26467500D01*
X26387812Y26466197D01*
X26326874Y26448858D01*
X26288648Y26437982D01*
X26288647Y26437982D01*
X26279827Y26435472D01*
X26190233Y26367814D01*
X26131130Y26272359D01*
X26129444Y26263338D01*
X26111342Y26166507D01*
X26111341Y26166502D01*
X26110500Y26162000D01*
X26110500Y24638000D01*
X26111803Y24609812D01*
X26113369Y24604309D01*
X26135941Y24524979D01*
X26142528Y24501827D01*
X26210186Y24412233D01*
X26305641Y24353130D01*
X26353314Y24344218D01*
X26411493Y24333342D01*
X26411498Y24333341D01*
X26416000Y24332500D01*
X27940000Y24332500D01*
X27968188Y24333803D01*
X28050408Y24357197D01*
X28067352Y24362018D01*
X28067353Y24362018D01*
X28076173Y24364528D01*
X28165767Y24432186D01*
X28224870Y24527641D01*
X28242910Y24624145D01*
X28244658Y24633493D01*
X28244659Y24633498D01*
X28245500Y24638000D01*
X28245500Y25439311D01*
X51712325Y25439311D01*
X51717979Y25432982D01*
X51917288Y25301312D01*
X51923523Y25297812D01*
X52161122Y25186261D01*
X52167786Y25183703D01*
X52419003Y25107616D01*
X52425967Y25106047D01*
X52685532Y25067023D01*
X52692653Y25066475D01*
X52955117Y25065330D01*
X52962274Y25065818D01*
X53222144Y25102571D01*
X53229143Y25104085D01*
X53480993Y25177970D01*
X53487697Y25180477D01*
X53726244Y25289944D01*
X53732518Y25293393D01*
X53952759Y25436145D01*
X53958479Y25440472D01*
X54027411Y25500923D01*
X54083628Y25525076D01*
X54143304Y25511572D01*
X54183646Y25465570D01*
X54189245Y25404642D01*
X54171333Y25366361D01*
X54066915Y25229788D01*
X54066911Y25229782D01*
X54064499Y25226627D01*
X54062621Y25223125D01*
X54062620Y25223123D01*
X53984936Y25078243D01*
X53946598Y25006743D01*
X53865369Y24770837D01*
X53822902Y24524979D01*
X53822860Y24521012D01*
X53822860Y24521007D01*
X53822583Y24494509D01*
X53820289Y24275494D01*
X53857598Y24028800D01*
X53933869Y23791245D01*
X53935671Y23787708D01*
X53935672Y23787706D01*
X54023429Y23615474D01*
X54047139Y23568940D01*
X54123182Y23465040D01*
X54160112Y23414581D01*
X54179222Y23356456D01*
X54160518Y23298200D01*
X54111144Y23262064D01*
X54049959Y23261850D01*
X54021962Y23276069D01*
X53819373Y23423529D01*
X53813315Y23427300D01*
X53581024Y23549514D01*
X53574463Y23552380D01*
X53326985Y23639773D01*
X53320070Y23641665D01*
X53062569Y23692418D01*
X53055458Y23693291D01*
X52793307Y23706342D01*
X52786164Y23706179D01*
X52524880Y23681252D01*
X52517832Y23680060D01*
X52262878Y23617672D01*
X52256072Y23615474D01*
X52012801Y23516939D01*
X52006380Y23513780D01*
X51779878Y23381158D01*
X51773982Y23377106D01*
X51721842Y23335407D01*
X51714509Y23324265D01*
X51714617Y23321937D01*
X51717059Y23318151D01*
X54304266Y20730944D01*
X54316149Y20724890D01*
X54319271Y20725384D01*
X54321692Y20727294D01*
X54331119Y20738352D01*
X54335351Y20744113D01*
X54475024Y20966339D01*
X54478381Y20972653D01*
X54584508Y21212707D01*
X54586923Y21219453D01*
X54657283Y21472305D01*
X54658698Y21479327D01*
X54691962Y21740796D01*
X54692341Y21745718D01*
X54694934Y21841546D01*
X54694822Y21846455D01*
X54675747Y22109347D01*
X54674712Y22116446D01*
X54618128Y22372738D01*
X54616085Y22379590D01*
X54523094Y22625034D01*
X54520080Y22631527D01*
X54392636Y22860971D01*
X54388715Y22866963D01*
X54261584Y23033545D01*
X54241311Y23091274D01*
X54258843Y23149894D01*
X54307482Y23187014D01*
X54368650Y23188455D01*
X54397632Y23174304D01*
X54575517Y23047888D01*
X54579076Y23046137D01*
X54579079Y23046135D01*
X54767357Y22953491D01*
X54799382Y22937733D01*
X55037979Y22864786D01*
X55109769Y22854952D01*
X55281226Y22831465D01*
X55281229Y22831465D01*
X55285170Y22830925D01*
X55289148Y22831022D01*
X55289152Y22831022D01*
X55453689Y22835044D01*
X55534594Y22837021D01*
X55689163Y22865948D01*
X55775926Y22882185D01*
X55775931Y22882186D01*
X55779835Y22882917D01*
X55783577Y22884264D01*
X55783580Y22884265D01*
X55914232Y22931303D01*
X56014584Y22967432D01*
X56232801Y23088391D01*
X56341977Y23174304D01*
X56344346Y23176168D01*
X56401768Y23197295D01*
X56460641Y23180635D01*
X56498479Y23132552D01*
X56500828Y23071412D01*
X56477912Y23030786D01*
X56464584Y23016518D01*
X56460088Y23010947D01*
X56310486Y22795296D01*
X56306839Y22789129D01*
X56189930Y22554136D01*
X56187217Y22547518D01*
X56105455Y22298105D01*
X56103727Y22291174D01*
X56058825Y22032568D01*
X56058114Y22025445D01*
X56051015Y21763071D01*
X56051339Y21755931D01*
X56082190Y21495270D01*
X56083541Y21488256D01*
X56151696Y21234784D01*
X56154048Y21228029D01*
X56258078Y20987054D01*
X56261379Y20980712D01*
X56399111Y20757269D01*
X56403284Y20751483D01*
X56419191Y20732491D01*
X56430497Y20725412D01*
X56433421Y20725614D01*
X56436324Y20727534D01*
X57551993Y21843203D01*
X58276242Y21843203D01*
X58277038Y21838172D01*
X59384266Y20730944D01*
X59396149Y20724890D01*
X59399271Y20725384D01*
X59401692Y20727294D01*
X59411119Y20738352D01*
X59415351Y20744113D01*
X59555024Y20966339D01*
X59558381Y20972653D01*
X59664508Y21212707D01*
X59666923Y21219453D01*
X59737283Y21472305D01*
X59738698Y21479327D01*
X59771962Y21740796D01*
X59772341Y21745718D01*
X59774934Y21841546D01*
X59774822Y21846455D01*
X59755747Y22109347D01*
X59754712Y22116446D01*
X59698128Y22372738D01*
X59696085Y22379590D01*
X59603094Y22625034D01*
X59600080Y22631527D01*
X59472636Y22860971D01*
X59468715Y22866963D01*
X59402679Y22953491D01*
X59391707Y22961074D01*
X59389980Y22961034D01*
X59385299Y22958089D01*
X58282296Y21855086D01*
X58276242Y21843203D01*
X57551993Y21843203D01*
X59023103Y23314313D01*
X59029157Y23326196D01*
X59028982Y23327304D01*
X59024736Y23332280D01*
X58899373Y23423529D01*
X58893315Y23427300D01*
X58661024Y23549514D01*
X58654463Y23552380D01*
X58406985Y23639773D01*
X58400070Y23641665D01*
X58142569Y23692418D01*
X58135458Y23693291D01*
X57873307Y23706342D01*
X57866164Y23706179D01*
X57604880Y23681252D01*
X57597832Y23680060D01*
X57342878Y23617672D01*
X57336072Y23615474D01*
X57092801Y23516939D01*
X57086380Y23513780D01*
X56859878Y23381158D01*
X56853987Y23377109D01*
X56725189Y23274107D01*
X56667934Y23252530D01*
X56608932Y23268726D01*
X56570718Y23316511D01*
X56567889Y23377631D01*
X56590483Y23418434D01*
X56595054Y23423405D01*
X56595059Y23423412D01*
X56597751Y23426339D01*
X56687290Y23562132D01*
X56732909Y23631316D01*
X56732912Y23631321D01*
X56735095Y23634632D01*
X56736724Y23638256D01*
X56835740Y23858577D01*
X56835742Y23858582D01*
X56837370Y23862205D01*
X56846484Y23896218D01*
X56900917Y24099364D01*
X56900918Y24099369D01*
X56901945Y24103202D01*
X56909260Y24175214D01*
X56926933Y24349195D01*
X56926934Y24349204D01*
X56927159Y24351424D01*
X56927500Y24384000D01*
X56925229Y24412233D01*
X56907809Y24628732D01*
X56907809Y24628734D01*
X56907490Y24632695D01*
X56847977Y24874992D01*
X56750490Y25104657D01*
X56617538Y25315781D01*
X56582199Y25355865D01*
X56557899Y25412018D01*
X56571246Y25471730D01*
X56617142Y25512193D01*
X56678056Y25517951D01*
X56722382Y25495195D01*
X56772630Y25450347D01*
X56778287Y25445991D01*
X56997288Y25301312D01*
X57003523Y25297812D01*
X57241122Y25186261D01*
X57247786Y25183703D01*
X57499003Y25107616D01*
X57505967Y25106047D01*
X57765532Y25067023D01*
X57772653Y25066475D01*
X58035117Y25065330D01*
X58042274Y25065818D01*
X58302144Y25102571D01*
X58309143Y25104085D01*
X58560993Y25177970D01*
X58567697Y25180477D01*
X58806244Y25289944D01*
X58812518Y25293393D01*
X59027806Y25432935D01*
X59032359Y25440586D01*
X59032036Y25444102D01*
X59030665Y25446125D01*
X57553587Y26923203D01*
X58276242Y26923203D01*
X58277038Y26918172D01*
X59384266Y25810944D01*
X59396149Y25804890D01*
X59399271Y25805384D01*
X59401692Y25807294D01*
X59411119Y25818352D01*
X59415351Y25824113D01*
X59555024Y26046339D01*
X59558381Y26052653D01*
X59664508Y26292707D01*
X59666923Y26299453D01*
X59737283Y26552305D01*
X59738698Y26559327D01*
X59771962Y26820796D01*
X59772341Y26825718D01*
X59774934Y26921546D01*
X59774822Y26926455D01*
X59755747Y27189347D01*
X59754712Y27196446D01*
X59698128Y27452738D01*
X59696085Y27459590D01*
X59603094Y27705034D01*
X59600080Y27711527D01*
X59472636Y27940971D01*
X59468715Y27946963D01*
X59402679Y28033491D01*
X59391707Y28041074D01*
X59389980Y28041034D01*
X59385299Y28038089D01*
X58282296Y26935086D01*
X58276242Y26923203D01*
X57553587Y26923203D01*
X56440764Y28036026D01*
X56428881Y28042080D01*
X56428374Y28042000D01*
X56422687Y28037034D01*
X56310487Y27875298D01*
X56306839Y27869130D01*
X56189930Y27634136D01*
X56187217Y27627518D01*
X56105455Y27378105D01*
X56103727Y27371174D01*
X56058825Y27112568D01*
X56058114Y27105445D01*
X56051015Y26843071D01*
X56051339Y26835931D01*
X56082190Y26575270D01*
X56083541Y26568256D01*
X56151696Y26314784D01*
X56154048Y26308029D01*
X56258078Y26067054D01*
X56261379Y26060712D01*
X56399108Y25837274D01*
X56403288Y25831478D01*
X56494737Y25722300D01*
X56517608Y25665550D01*
X56502754Y25606195D01*
X56455849Y25566906D01*
X56394809Y25562692D01*
X56356005Y25582229D01*
X56262818Y25658774D01*
X56262816Y25658775D01*
X56259745Y25661298D01*
X56130536Y25736499D01*
X56047546Y25784800D01*
X56047542Y25784802D01*
X56044109Y25786800D01*
X55995624Y25805412D01*
X55900460Y25841942D01*
X55811182Y25876213D01*
X55787960Y25881064D01*
X55570854Y25926420D01*
X55570850Y25926421D01*
X55566956Y25927234D01*
X55562981Y25927415D01*
X55562977Y25927415D01*
X55463790Y25931919D01*
X55317714Y25938552D01*
X55313766Y25938095D01*
X55313761Y25938095D01*
X55073814Y25910333D01*
X55073809Y25910332D01*
X55069868Y25909876D01*
X54829796Y25841942D01*
X54826193Y25840262D01*
X54826188Y25840260D01*
X54756008Y25807534D01*
X54603673Y25736499D01*
X54397327Y25596266D01*
X54338571Y25579196D01*
X54281003Y25599922D01*
X54246612Y25650527D01*
X54248534Y25711682D01*
X54266345Y25742377D01*
X54331120Y25818353D01*
X54335350Y25824111D01*
X54475024Y26046339D01*
X54478381Y26052653D01*
X54584508Y26292707D01*
X54586923Y26299453D01*
X54657283Y26552305D01*
X54658698Y26559327D01*
X54691962Y26820796D01*
X54692341Y26825718D01*
X54694934Y26921546D01*
X54694822Y26926455D01*
X54675747Y27189347D01*
X54674712Y27196446D01*
X54618128Y27452738D01*
X54616085Y27459590D01*
X54523094Y27705034D01*
X54520080Y27711527D01*
X54392636Y27940971D01*
X54388715Y27946963D01*
X54322679Y28033491D01*
X54311707Y28041074D01*
X54309980Y28041034D01*
X54305299Y28038089D01*
X51718354Y25451144D01*
X51712325Y25439311D01*
X28245500Y25439311D01*
X28245500Y25972678D01*
X28264407Y26030869D01*
X28274496Y26042682D01*
X29074885Y26843071D01*
X50971015Y26843071D01*
X50971339Y26835931D01*
X51002190Y26575270D01*
X51003541Y26568256D01*
X51071696Y26314784D01*
X51074048Y26308029D01*
X51178078Y26067054D01*
X51181379Y26060712D01*
X51319111Y25837269D01*
X51323284Y25831483D01*
X51339191Y25812491D01*
X51350497Y25805412D01*
X51353421Y25805614D01*
X51356324Y25807534D01*
X52461704Y26912914D01*
X52467758Y26924797D01*
X52466962Y26929828D01*
X51360764Y28036026D01*
X51348881Y28042080D01*
X51348374Y28042000D01*
X51342687Y28037034D01*
X51230487Y27875298D01*
X51226839Y27869130D01*
X51109930Y27634136D01*
X51107217Y27627518D01*
X51025455Y27378105D01*
X51023727Y27371174D01*
X50978825Y27112568D01*
X50978114Y27105445D01*
X50971015Y26843071D01*
X29074885Y26843071D01*
X30258319Y28026505D01*
X30312836Y28054282D01*
X30328323Y28055501D01*
X34077497Y28055501D01*
X34089542Y28054155D01*
X34089550Y28054251D01*
X34096582Y28053685D01*
X34103460Y28052129D01*
X34154748Y28055311D01*
X34160879Y28055501D01*
X34178915Y28055501D01*
X34182405Y28056001D01*
X34182408Y28056001D01*
X34188794Y28056916D01*
X34191109Y28057247D01*
X34199011Y28058057D01*
X34239472Y28060567D01*
X34239474Y28060567D01*
X34246510Y28061004D01*
X34256146Y28064483D01*
X34275731Y28069366D01*
X34285878Y28070819D01*
X34292301Y28073739D01*
X34292303Y28073740D01*
X34329209Y28090520D01*
X34336569Y28093516D01*
X34374683Y28107275D01*
X34374685Y28107276D01*
X34381319Y28109671D01*
X34387015Y28113832D01*
X34387020Y28113835D01*
X34389593Y28115715D01*
X34407019Y28125898D01*
X34409928Y28127221D01*
X34409929Y28127222D01*
X34416350Y28130141D01*
X34421691Y28134743D01*
X34421694Y28134745D01*
X34452411Y28161212D01*
X34458631Y28166151D01*
X34467920Y28172937D01*
X34467924Y28172941D01*
X34471006Y28175192D01*
X34483186Y28187372D01*
X34488566Y28192367D01*
X34519585Y28219095D01*
X34524927Y28223698D01*
X34525269Y28223301D01*
X34573553Y28252201D01*
X34597211Y28254688D01*
X34617745Y28254365D01*
X34623561Y28255697D01*
X34777157Y28290875D01*
X34777160Y28290876D01*
X34782980Y28292209D01*
X34795544Y28298528D01*
X34929084Y28365691D01*
X34929086Y28365692D01*
X34934418Y28368374D01*
X35031946Y28451671D01*
X35058781Y28474590D01*
X35058784Y28474593D01*
X35063316Y28478464D01*
X35073624Y28492809D01*
X35158750Y28611274D01*
X35158751Y28611276D01*
X35162234Y28616123D01*
X35167160Y28628375D01*
X35214877Y28747075D01*
X35254125Y28794014D01*
X35313467Y28808920D01*
X35370237Y28786098D01*
X35399703Y28744172D01*
X35407940Y28721665D01*
X35439395Y28635710D01*
X35442720Y28630762D01*
X35442721Y28630760D01*
X35444324Y28628375D01*
X35533940Y28495012D01*
X35538352Y28490997D01*
X35538355Y28490994D01*
X35630329Y28407304D01*
X35659317Y28380927D01*
X35808288Y28300043D01*
X35814058Y28298529D01*
X35814061Y28298528D01*
X35966474Y28258543D01*
X35972253Y28257027D01*
X35978222Y28256933D01*
X35978224Y28256933D01*
X36041307Y28255942D01*
X36141745Y28254365D01*
X36147561Y28255697D01*
X36301157Y28290875D01*
X36301160Y28290876D01*
X36306980Y28292209D01*
X36319544Y28298528D01*
X36453084Y28365691D01*
X36453086Y28365692D01*
X36458418Y28368374D01*
X36555946Y28451671D01*
X36582781Y28474590D01*
X36582784Y28474593D01*
X36587316Y28478464D01*
X36597624Y28492809D01*
X36682750Y28611274D01*
X36682751Y28611276D01*
X36686234Y28616123D01*
X36691160Y28628375D01*
X36747237Y28767870D01*
X36747238Y28767872D01*
X36749461Y28773403D01*
X36751280Y28786179D01*
X36772889Y28938019D01*
X36772889Y28938023D01*
X36773345Y28941225D01*
X36773500Y28956000D01*
X36759342Y29072997D01*
X36753852Y29118363D01*
X36753851Y29118366D01*
X36753135Y29124285D01*
X36693217Y29282855D01*
X36597203Y29422556D01*
X36593154Y29426164D01*
X36568939Y29482125D01*
X36568500Y29491438D01*
X36568500Y31791497D01*
X36569846Y31803542D01*
X36569750Y31803550D01*
X36570316Y31810582D01*
X36571872Y31817460D01*
X36568690Y31868749D01*
X36568500Y31874879D01*
X36568500Y31892914D01*
X36568001Y31896400D01*
X36568000Y31896411D01*
X36566754Y31905109D01*
X36565944Y31913011D01*
X36563434Y31953473D01*
X36563433Y31953476D01*
X36562997Y31960510D01*
X36560603Y31967141D01*
X36560602Y31967146D01*
X36559517Y31970152D01*
X36554635Y31989730D01*
X36554182Y31992895D01*
X36554182Y31992896D01*
X36553182Y31999877D01*
X36533483Y32043204D01*
X36530489Y32050558D01*
X36516726Y32088682D01*
X36516725Y32088684D01*
X36514330Y32095318D01*
X36510170Y32101012D01*
X36510166Y32101020D01*
X36508284Y32103596D01*
X36498105Y32121014D01*
X36496781Y32123926D01*
X36496779Y32123929D01*
X36493860Y32130349D01*
X36489256Y32135692D01*
X36489254Y32135695D01*
X36462789Y32166408D01*
X36457843Y32172637D01*
X36451062Y32181920D01*
X36451059Y32181923D01*
X36448808Y32185005D01*
X36436635Y32197178D01*
X36431640Y32202558D01*
X36404906Y32233584D01*
X36400303Y32238926D01*
X36394383Y32242763D01*
X36394381Y32242765D01*
X36393679Y32243220D01*
X36377523Y32256290D01*
X35314600Y33319214D01*
X35286823Y33373731D01*
X35296394Y33434163D01*
X35339659Y33477428D01*
X35357511Y33484439D01*
X35433352Y33506018D01*
X35433353Y33506018D01*
X35442173Y33508528D01*
X35531767Y33576186D01*
X35590870Y33671641D01*
X35607300Y33759531D01*
X35610658Y33777493D01*
X35610659Y33777498D01*
X35611500Y33782000D01*
X35611500Y35306000D01*
X36016500Y35306000D01*
X36016500Y33782000D01*
X36017803Y33753812D01*
X36048528Y33645827D01*
X36097786Y33580599D01*
X36106734Y33568750D01*
X36116186Y33556233D01*
X36211641Y33497130D01*
X36259314Y33488218D01*
X36317493Y33477342D01*
X36317498Y33477341D01*
X36322000Y33476500D01*
X36482367Y33476500D01*
X36540558Y33457593D01*
X36576522Y33408093D01*
X36581177Y33383630D01*
X36583310Y33349250D01*
X36583500Y33343120D01*
X36583500Y33325084D01*
X36584000Y33321594D01*
X36584000Y33321591D01*
X36585246Y33312892D01*
X36586056Y33304988D01*
X36587979Y33274000D01*
X36589003Y33257489D01*
X36591398Y33250856D01*
X36592482Y33247852D01*
X36597365Y33228268D01*
X36598818Y33218121D01*
X36601738Y33211698D01*
X36601739Y33211696D01*
X36618519Y33174790D01*
X36621515Y33167430D01*
X36627332Y33151318D01*
X36637670Y33122680D01*
X36641831Y33116984D01*
X36641834Y33116979D01*
X36643714Y33114406D01*
X36653897Y33096980D01*
X36655220Y33094071D01*
X36658140Y33087649D01*
X36662742Y33082308D01*
X36662744Y33082305D01*
X36689211Y33051588D01*
X36694150Y33045368D01*
X36700936Y33036079D01*
X36700940Y33036075D01*
X36703191Y33032993D01*
X36715371Y33020813D01*
X36720366Y33015433D01*
X36751697Y32979072D01*
X36758321Y32974778D01*
X36774474Y32961710D01*
X41087066Y28649118D01*
X41094632Y28639649D01*
X41094705Y28639711D01*
X41099277Y28634339D01*
X41103040Y28628375D01*
X41138635Y28596939D01*
X41141557Y28594358D01*
X41146026Y28590158D01*
X41158779Y28577405D01*
X41161597Y28575293D01*
X41161605Y28575286D01*
X41168641Y28570013D01*
X41174800Y28564998D01*
X41210467Y28533499D01*
X41216845Y28530505D01*
X41216849Y28530502D01*
X41219747Y28529142D01*
X41237044Y28518749D01*
X41245245Y28512602D01*
X41278954Y28499965D01*
X41289813Y28495894D01*
X41297133Y28492809D01*
X41333822Y28475584D01*
X41333824Y28475583D01*
X41340204Y28472588D01*
X41347170Y28471503D01*
X41347171Y28471503D01*
X41350325Y28471012D01*
X41369844Y28465892D01*
X41372849Y28464765D01*
X41372852Y28464764D01*
X41379450Y28462291D01*
X41407029Y28460242D01*
X41426918Y28458764D01*
X41434805Y28457859D01*
X41449953Y28455500D01*
X41467172Y28455500D01*
X41474507Y28455228D01*
X41522380Y28451671D01*
X41529281Y28453144D01*
X41530103Y28453319D01*
X41550768Y28455500D01*
X41635062Y28455500D01*
X41693253Y28436593D01*
X41701690Y28429723D01*
X41750894Y28384951D01*
X41750897Y28384949D01*
X41755317Y28380927D01*
X41904288Y28300043D01*
X41910058Y28298529D01*
X41910061Y28298528D01*
X42062474Y28258543D01*
X42068253Y28257027D01*
X42074222Y28256933D01*
X42074224Y28256933D01*
X42137307Y28255942D01*
X42237745Y28254365D01*
X42243561Y28255697D01*
X42397157Y28290875D01*
X42397160Y28290876D01*
X42402980Y28292209D01*
X42415544Y28298528D01*
X42549084Y28365691D01*
X42549086Y28365692D01*
X42554418Y28368374D01*
X42596441Y28404265D01*
X51714509Y28404265D01*
X51714617Y28401937D01*
X51717059Y28398151D01*
X52820914Y27294296D01*
X52832797Y27288242D01*
X52837828Y27289038D01*
X53943103Y28394313D01*
X53948173Y28404265D01*
X56794509Y28404265D01*
X56794617Y28401937D01*
X56797059Y28398151D01*
X57900914Y27294296D01*
X57912797Y27288242D01*
X57917828Y27289038D01*
X59023103Y28394313D01*
X59029157Y28406196D01*
X59028982Y28407304D01*
X59024736Y28412280D01*
X58899373Y28503529D01*
X58893315Y28507300D01*
X58661024Y28629514D01*
X58654463Y28632380D01*
X58406985Y28719773D01*
X58400070Y28721665D01*
X58142569Y28772418D01*
X58135458Y28773291D01*
X57873307Y28786342D01*
X57866164Y28786179D01*
X57604880Y28761252D01*
X57597832Y28760060D01*
X57342878Y28697672D01*
X57336072Y28695474D01*
X57092801Y28596939D01*
X57086380Y28593780D01*
X56859878Y28461158D01*
X56853982Y28457106D01*
X56801842Y28415407D01*
X56794509Y28404265D01*
X53948173Y28404265D01*
X53949157Y28406196D01*
X53948982Y28407304D01*
X53944736Y28412280D01*
X53819373Y28503529D01*
X53813315Y28507300D01*
X53581024Y28629514D01*
X53574463Y28632380D01*
X53326985Y28719773D01*
X53320070Y28721665D01*
X53062569Y28772418D01*
X53055458Y28773291D01*
X52793307Y28786342D01*
X52786164Y28786179D01*
X52524880Y28761252D01*
X52517832Y28760060D01*
X52262878Y28697672D01*
X52256072Y28695474D01*
X52012801Y28596939D01*
X52006380Y28593780D01*
X51779878Y28461158D01*
X51773982Y28457106D01*
X51721842Y28415407D01*
X51714509Y28404265D01*
X42596441Y28404265D01*
X42651946Y28451671D01*
X42678781Y28474590D01*
X42678784Y28474593D01*
X42683316Y28478464D01*
X42693624Y28492809D01*
X42778750Y28611274D01*
X42778751Y28611276D01*
X42782234Y28616123D01*
X42787160Y28628375D01*
X42843237Y28767870D01*
X42843238Y28767872D01*
X42845461Y28773403D01*
X42847280Y28786179D01*
X42868889Y28938019D01*
X42868889Y28938023D01*
X42869345Y28941225D01*
X42869500Y28956000D01*
X42855342Y29072997D01*
X42849852Y29118363D01*
X42849851Y29118366D01*
X42849135Y29124285D01*
X42789217Y29282855D01*
X42693203Y29422556D01*
X42566638Y29535321D01*
X42561367Y29538112D01*
X42422103Y29611849D01*
X42422100Y29611850D01*
X42416829Y29614641D01*
X42411042Y29616095D01*
X42411041Y29616095D01*
X42390995Y29621130D01*
X42339164Y29653644D01*
X42316343Y29710414D01*
X42323259Y29754074D01*
X42335236Y29783866D01*
X42335238Y29783873D01*
X42337461Y29789403D01*
X42361345Y29957225D01*
X42361500Y29972000D01*
X42343270Y30122641D01*
X42341852Y30134363D01*
X42341851Y30134366D01*
X42341135Y30140285D01*
X42281217Y30298855D01*
X42273786Y30309668D01*
X42188583Y30433638D01*
X42185203Y30438556D01*
X42181154Y30442164D01*
X42156939Y30498125D01*
X42156500Y30507438D01*
X42156500Y34281757D01*
X43683000Y34281757D01*
X43683000Y33783764D01*
X43683126Y33780244D01*
X43687843Y33714285D01*
X43689717Y33703900D01*
X43727364Y33575686D01*
X43733187Y33562935D01*
X43804472Y33452013D01*
X43813651Y33441419D01*
X43913299Y33355074D01*
X43925090Y33347496D01*
X44045029Y33292722D01*
X44058484Y33288772D01*
X44192491Y33269505D01*
X44199543Y33269000D01*
X44688320Y33269000D01*
X44701005Y33273122D01*
X44704000Y33277243D01*
X44704000Y34274320D01*
X44699878Y34287005D01*
X44695757Y34290000D01*
X43698680Y34290000D01*
X43685995Y34285878D01*
X43683000Y34281757D01*
X42156500Y34281757D01*
X42156500Y36147496D01*
X42157846Y36159541D01*
X42157750Y36159549D01*
X42158316Y36166581D01*
X42159872Y36173459D01*
X42156690Y36224753D01*
X42156500Y36230883D01*
X42156500Y36248914D01*
X42156001Y36252400D01*
X42156000Y36252411D01*
X42154755Y36261102D01*
X42153945Y36269005D01*
X42151435Y36309469D01*
X42151435Y36309471D01*
X42150998Y36316509D01*
X42147517Y36326151D01*
X42142635Y36345733D01*
X42142183Y36348891D01*
X42142182Y36348894D01*
X42141182Y36355877D01*
X42138262Y36362298D01*
X42138261Y36362303D01*
X42121485Y36399198D01*
X42118488Y36406559D01*
X42117755Y36408592D01*
X42102330Y36451318D01*
X42098169Y36457014D01*
X42098166Y36457019D01*
X42096286Y36459592D01*
X42086103Y36477018D01*
X42084780Y36479927D01*
X42084779Y36479928D01*
X42081860Y36486349D01*
X42077258Y36491690D01*
X42077256Y36491693D01*
X42050789Y36522410D01*
X42045850Y36528630D01*
X42039064Y36537919D01*
X42039060Y36537923D01*
X42036809Y36541005D01*
X42024629Y36553185D01*
X42019634Y36558565D01*
X41992906Y36589584D01*
X41988303Y36594926D01*
X41981679Y36599220D01*
X41965526Y36612288D01*
X41756057Y36821757D01*
X43683000Y36821757D01*
X43683000Y36323764D01*
X43683126Y36320244D01*
X43687843Y36254285D01*
X43689717Y36243900D01*
X43727364Y36115686D01*
X43733187Y36102935D01*
X43804472Y35992013D01*
X43813651Y35981419D01*
X43913305Y35895069D01*
X43913766Y35894773D01*
X43914055Y35894419D01*
X43918651Y35890437D01*
X43917961Y35889641D01*
X43952492Y35847403D01*
X43955979Y35786317D01*
X43922894Y35734848D01*
X43913757Y35728211D01*
X43866013Y35697528D01*
X43855419Y35688349D01*
X43769074Y35588701D01*
X43761496Y35576910D01*
X43706722Y35456971D01*
X43702772Y35443516D01*
X43683505Y35309509D01*
X43683000Y35302457D01*
X43683000Y34813680D01*
X43687122Y34800995D01*
X43691243Y34798000D01*
X44688320Y34798000D01*
X44701005Y34802122D01*
X44704000Y34806243D01*
X44704000Y36814320D01*
X44699878Y36827005D01*
X44695757Y36830000D01*
X43698680Y36830000D01*
X43685995Y36825878D01*
X43683000Y36821757D01*
X41756057Y36821757D01*
X41186932Y37390882D01*
X41179366Y37400351D01*
X41179293Y37400289D01*
X41174721Y37405661D01*
X41170958Y37411625D01*
X41132441Y37445642D01*
X41127972Y37449842D01*
X41115219Y37462595D01*
X41112401Y37464707D01*
X41112393Y37464714D01*
X41105357Y37469987D01*
X41099196Y37475003D01*
X41063531Y37506501D01*
X41057153Y37509495D01*
X41057149Y37509498D01*
X41054251Y37510858D01*
X41036953Y37521252D01*
X41034395Y37523169D01*
X41028753Y37527398D01*
X41002057Y37537406D01*
X40984188Y37544105D01*
X40976867Y37547190D01*
X40960251Y37554991D01*
X40933794Y37567412D01*
X40923664Y37568989D01*
X40904152Y37574108D01*
X40901152Y37575233D01*
X40901150Y37575233D01*
X40894549Y37577708D01*
X40864253Y37579959D01*
X40847086Y37581235D01*
X40839197Y37582141D01*
X40824045Y37584500D01*
X40806822Y37584500D01*
X40799486Y37584772D01*
X40793600Y37585209D01*
X40783163Y37585985D01*
X40726533Y37609153D01*
X40694337Y37661182D01*
X40691500Y37684713D01*
X40691500Y37842457D01*
X43683000Y37842457D01*
X43683000Y37353680D01*
X43687122Y37340995D01*
X43691243Y37338000D01*
X44688320Y37338000D01*
X44701005Y37342122D01*
X44704000Y37346243D01*
X44704000Y38343320D01*
X44701583Y38350757D01*
X45212000Y38350757D01*
X45212000Y33284680D01*
X45216122Y33271995D01*
X45220243Y33269000D01*
X45718236Y33269000D01*
X45721756Y33269126D01*
X45787715Y33273843D01*
X45798100Y33275717D01*
X45926314Y33313364D01*
X45939065Y33319187D01*
X46049987Y33390472D01*
X46060581Y33399651D01*
X46146926Y33499299D01*
X46154504Y33511090D01*
X46209278Y33631029D01*
X46213228Y33644484D01*
X46232496Y33778493D01*
X46232884Y33783922D01*
X46255894Y33840616D01*
X46307834Y33872957D01*
X46368863Y33868592D01*
X46415672Y33829189D01*
X46430526Y33781433D01*
X46430581Y33780245D01*
X46431803Y33753812D01*
X46462528Y33645827D01*
X46511786Y33580599D01*
X46520734Y33568750D01*
X46530186Y33556233D01*
X46625641Y33497130D01*
X46673314Y33488218D01*
X46731493Y33477342D01*
X46731498Y33477341D01*
X46736000Y33476500D01*
X48260000Y33476500D01*
X48288188Y33477803D01*
X48363737Y33499299D01*
X48387352Y33506018D01*
X48387353Y33506018D01*
X48396173Y33508528D01*
X48485767Y33576186D01*
X48544870Y33671641D01*
X48561300Y33759531D01*
X48564658Y33777493D01*
X48564659Y33777498D01*
X48565500Y33782000D01*
X48565500Y33786583D01*
X48565561Y33787241D01*
X48589758Y33843439D01*
X48642366Y33874681D01*
X48703290Y33869034D01*
X48749260Y33828656D01*
X48762969Y33781998D01*
X48763000Y33782000D01*
X48763010Y33781858D01*
X48763076Y33781634D01*
X48763126Y33780245D01*
X48767843Y33714285D01*
X48769717Y33703900D01*
X48807364Y33575686D01*
X48813187Y33562935D01*
X48884472Y33452013D01*
X48893651Y33441419D01*
X48993299Y33355074D01*
X49005090Y33347496D01*
X49125029Y33292722D01*
X49138484Y33288772D01*
X49272491Y33269505D01*
X49279543Y33269000D01*
X49768320Y33269000D01*
X49781005Y33273122D01*
X49784000Y33277243D01*
X49784000Y34281757D01*
X50292000Y34281757D01*
X50292000Y33284680D01*
X50296122Y33271995D01*
X50300243Y33269000D01*
X50798236Y33269000D01*
X50801756Y33269126D01*
X50867715Y33273843D01*
X50878100Y33275717D01*
X51006314Y33313364D01*
X51019065Y33319187D01*
X51129987Y33390472D01*
X51140581Y33399651D01*
X51226926Y33499299D01*
X51234504Y33511090D01*
X51289278Y33631029D01*
X51293228Y33644484D01*
X51312495Y33778491D01*
X51313000Y33785543D01*
X51313000Y34274320D01*
X51308878Y34287005D01*
X51304757Y34290000D01*
X50307680Y34290000D01*
X50294995Y34285878D01*
X50292000Y34281757D01*
X49784000Y34281757D01*
X49784000Y36821757D01*
X50292000Y36821757D01*
X50292000Y34813680D01*
X50296122Y34800995D01*
X50300243Y34798000D01*
X51297320Y34798000D01*
X51310005Y34802122D01*
X51313000Y34806243D01*
X51313000Y35304236D01*
X51312874Y35307756D01*
X51308157Y35373715D01*
X51306283Y35384100D01*
X51268636Y35512314D01*
X51262813Y35525065D01*
X51191528Y35635987D01*
X51182349Y35646581D01*
X51082695Y35732931D01*
X51082234Y35733227D01*
X51081945Y35733581D01*
X51077349Y35737563D01*
X51078039Y35738359D01*
X51043508Y35780597D01*
X51040021Y35841683D01*
X51073106Y35893152D01*
X51082243Y35899789D01*
X51129987Y35930472D01*
X51140581Y35939651D01*
X51226926Y36039299D01*
X51234504Y36051090D01*
X51289278Y36171029D01*
X51293228Y36184484D01*
X51312495Y36318491D01*
X51313000Y36325543D01*
X51313000Y36814320D01*
X51308878Y36827005D01*
X51304757Y36830000D01*
X50307680Y36830000D01*
X50294995Y36825878D01*
X50292000Y36821757D01*
X49784000Y36821757D01*
X49784000Y38343320D01*
X49781583Y38350757D01*
X50292000Y38350757D01*
X50292000Y37353680D01*
X50296122Y37340995D01*
X50300243Y37338000D01*
X51297320Y37338000D01*
X51310005Y37342122D01*
X51313000Y37346243D01*
X51313000Y37844236D01*
X51312874Y37847756D01*
X51308157Y37913715D01*
X51306283Y37924100D01*
X51268636Y38052314D01*
X51262813Y38065065D01*
X51191528Y38175987D01*
X51182349Y38186581D01*
X51082701Y38272926D01*
X51070910Y38280504D01*
X50950971Y38335278D01*
X50937516Y38339228D01*
X50803509Y38358495D01*
X50796457Y38359000D01*
X50307680Y38359000D01*
X50294995Y38354878D01*
X50292000Y38350757D01*
X49781583Y38350757D01*
X49779878Y38356005D01*
X49775757Y38359000D01*
X49277764Y38359000D01*
X49274244Y38358874D01*
X49208285Y38354157D01*
X49197900Y38352283D01*
X49069686Y38314636D01*
X49056935Y38308813D01*
X48946013Y38237528D01*
X48935419Y38228349D01*
X48849074Y38128701D01*
X48841496Y38116910D01*
X48786722Y37996971D01*
X48782772Y37983516D01*
X48763504Y37849507D01*
X48763116Y37844078D01*
X48740106Y37787384D01*
X48688166Y37755043D01*
X48627137Y37759408D01*
X48580328Y37798811D01*
X48565474Y37846567D01*
X48564461Y37868469D01*
X48564197Y37874188D01*
X48533472Y37982173D01*
X48465814Y38071767D01*
X48370359Y38130870D01*
X48322686Y38139782D01*
X48264507Y38150658D01*
X48264502Y38150659D01*
X48260000Y38151500D01*
X46736000Y38151500D01*
X46707812Y38150197D01*
X46646874Y38132858D01*
X46608648Y38121982D01*
X46608647Y38121982D01*
X46599827Y38119472D01*
X46510233Y38051814D01*
X46451130Y37956359D01*
X46449444Y37947338D01*
X46431342Y37850507D01*
X46431341Y37850502D01*
X46430500Y37846000D01*
X46430500Y37841418D01*
X46430439Y37840759D01*
X46406242Y37784561D01*
X46353634Y37753319D01*
X46292710Y37758966D01*
X46246740Y37799344D01*
X46233031Y37846002D01*
X46233000Y37846000D01*
X46232990Y37846142D01*
X46232924Y37846366D01*
X46232874Y37847755D01*
X46228157Y37913715D01*
X46226283Y37924100D01*
X46188636Y38052314D01*
X46182813Y38065065D01*
X46111528Y38175987D01*
X46102349Y38186581D01*
X46002701Y38272926D01*
X45990910Y38280504D01*
X45870971Y38335278D01*
X45857516Y38339228D01*
X45723509Y38358495D01*
X45716457Y38359000D01*
X45227680Y38359000D01*
X45214995Y38354878D01*
X45212000Y38350757D01*
X44701583Y38350757D01*
X44699878Y38356005D01*
X44695757Y38359000D01*
X44197764Y38359000D01*
X44194244Y38358874D01*
X44128285Y38354157D01*
X44117900Y38352283D01*
X43989686Y38314636D01*
X43976935Y38308813D01*
X43866013Y38237528D01*
X43855419Y38228349D01*
X43769074Y38128701D01*
X43761496Y38116910D01*
X43706722Y37996971D01*
X43702772Y37983516D01*
X43683505Y37849509D01*
X43683000Y37842457D01*
X40691500Y37842457D01*
X40691500Y37846000D01*
X40690197Y37874188D01*
X40659472Y37982173D01*
X40591814Y38071767D01*
X40496359Y38130870D01*
X40448686Y38139782D01*
X40390507Y38150658D01*
X40390502Y38150659D01*
X40386000Y38151500D01*
X38862000Y38151500D01*
X38833812Y38150197D01*
X38772874Y38132858D01*
X38734648Y38121982D01*
X38734647Y38121982D01*
X38725827Y38119472D01*
X38636233Y38051814D01*
X38577130Y37956359D01*
X38575444Y37947338D01*
X38557342Y37850507D01*
X38557341Y37850502D01*
X38556500Y37846000D01*
X38556500Y36322000D01*
X38557803Y36293812D01*
X38588528Y36185827D01*
X38656186Y36096233D01*
X38751641Y36037130D01*
X38799314Y36028218D01*
X38857493Y36017342D01*
X38857498Y36017341D01*
X38862000Y36016500D01*
X40386000Y36016500D01*
X40414188Y36017803D01*
X40489737Y36039299D01*
X40513352Y36046018D01*
X40513353Y36046018D01*
X40522173Y36048528D01*
X40611767Y36116186D01*
X40670870Y36211641D01*
X40680406Y36262651D01*
X40709682Y36316376D01*
X40764948Y36342632D01*
X40825091Y36331389D01*
X40847723Y36314463D01*
X41126504Y36035682D01*
X41154281Y35981165D01*
X41155500Y35965678D01*
X41155500Y30507424D01*
X41136593Y30449233D01*
X41134103Y30446159D01*
X41131711Y30444072D01*
X41034240Y30305385D01*
X41032149Y30300021D01*
X40988048Y30257730D01*
X40927429Y30249425D01*
X40874955Y30276857D01*
X37837471Y33314341D01*
X37809694Y33368858D01*
X37819265Y33429290D01*
X37862530Y33472555D01*
X37880376Y33479564D01*
X37934586Y33494988D01*
X37973353Y33506018D01*
X37973355Y33506019D01*
X37982173Y33508528D01*
X38071767Y33576186D01*
X38130870Y33671641D01*
X38147300Y33759531D01*
X38150658Y33777493D01*
X38150659Y33777498D01*
X38151500Y33782000D01*
X38151500Y35306000D01*
X38556500Y35306000D01*
X38556500Y33782000D01*
X38557803Y33753812D01*
X38588528Y33645827D01*
X38637786Y33580599D01*
X38646734Y33568750D01*
X38656186Y33556233D01*
X38751641Y33497130D01*
X38799314Y33488218D01*
X38857493Y33477342D01*
X38857498Y33477341D01*
X38862000Y33476500D01*
X40386000Y33476500D01*
X40414188Y33477803D01*
X40489737Y33499299D01*
X40513352Y33506018D01*
X40513353Y33506018D01*
X40522173Y33508528D01*
X40611767Y33576186D01*
X40670870Y33671641D01*
X40687300Y33759531D01*
X40690658Y33777493D01*
X40690659Y33777498D01*
X40691500Y33782000D01*
X40691500Y35306000D01*
X40690197Y35334188D01*
X40659472Y35442173D01*
X40591814Y35531767D01*
X40496359Y35590870D01*
X40448686Y35599782D01*
X40390507Y35610658D01*
X40390502Y35610659D01*
X40386000Y35611500D01*
X38862000Y35611500D01*
X38833812Y35610197D01*
X38772874Y35592858D01*
X38734648Y35581982D01*
X38734647Y35581982D01*
X38725827Y35579472D01*
X38636233Y35511814D01*
X38577130Y35416359D01*
X38575444Y35407338D01*
X38557342Y35310507D01*
X38557341Y35310502D01*
X38556500Y35306000D01*
X38151500Y35306000D01*
X38150197Y35334188D01*
X38119472Y35442173D01*
X38051814Y35531767D01*
X37956359Y35590870D01*
X37908686Y35599782D01*
X37850507Y35610658D01*
X37850502Y35610659D01*
X37846000Y35611500D01*
X36322000Y35611500D01*
X36293812Y35610197D01*
X36232874Y35592858D01*
X36194648Y35581982D01*
X36194647Y35581982D01*
X36185827Y35579472D01*
X36096233Y35511814D01*
X36037130Y35416359D01*
X36035444Y35407338D01*
X36017342Y35310507D01*
X36017341Y35310502D01*
X36016500Y35306000D01*
X35611500Y35306000D01*
X35610197Y35334188D01*
X35579472Y35442173D01*
X35511814Y35531767D01*
X35416359Y35590870D01*
X35368686Y35599782D01*
X35310507Y35610658D01*
X35310502Y35610659D01*
X35306000Y35611500D01*
X33782000Y35611500D01*
X33753812Y35610197D01*
X33692874Y35592858D01*
X33654648Y35581982D01*
X33654647Y35581982D01*
X33645827Y35579472D01*
X33556233Y35511814D01*
X33497130Y35416359D01*
X33495444Y35407338D01*
X33477342Y35310507D01*
X33477341Y35310502D01*
X33476500Y35306000D01*
X33476500Y34018322D01*
X33457593Y33960131D01*
X33408093Y33924167D01*
X33346907Y33924167D01*
X33307496Y33948318D01*
X33100496Y34155318D01*
X33072719Y34209835D01*
X33071500Y34225322D01*
X33071500Y35306000D01*
X33070197Y35334188D01*
X33039472Y35442173D01*
X32971814Y35531767D01*
X32876359Y35590870D01*
X32828686Y35599782D01*
X32770507Y35610658D01*
X32770502Y35610659D01*
X32766000Y35611500D01*
X31242000Y35611500D01*
X31213812Y35610197D01*
X31152874Y35592858D01*
X31114648Y35581982D01*
X31114647Y35581982D01*
X31105827Y35579472D01*
X31016233Y35511814D01*
X30957130Y35416359D01*
X30955444Y35407338D01*
X30937342Y35310507D01*
X30937341Y35310502D01*
X30936500Y35306000D01*
X30936500Y33782000D01*
X30937803Y33753812D01*
X30968528Y33645827D01*
X31017786Y33580599D01*
X31026734Y33568750D01*
X31036186Y33556233D01*
X31131641Y33497130D01*
X31179314Y33488218D01*
X31237493Y33477342D01*
X31237498Y33477341D01*
X31242000Y33476500D01*
X32322678Y33476500D01*
X32380869Y33457593D01*
X32392682Y33447504D01*
X34014504Y31825682D01*
X34042281Y31771165D01*
X34043500Y31755678D01*
X34043500Y30148002D01*
X34024593Y30089811D01*
X33975093Y30053847D01*
X33913907Y30053847D01*
X33898178Y30060508D01*
X33842834Y30089811D01*
X33786103Y30119849D01*
X33786100Y30119850D01*
X33780829Y30122641D01*
X33679863Y30148002D01*
X33622213Y30162483D01*
X33622210Y30162483D01*
X33616423Y30163937D01*
X33530734Y30164385D01*
X33452878Y30164793D01*
X33452876Y30164793D01*
X33446912Y30164824D01*
X33293907Y30128091D01*
X33232910Y30132892D01*
X33186385Y30172629D01*
X33172101Y30232124D01*
X33178941Y30261283D01*
X33191236Y30291866D01*
X33191238Y30291873D01*
X33193461Y30297403D01*
X33195293Y30310270D01*
X33216889Y30462019D01*
X33216889Y30462023D01*
X33217345Y30465225D01*
X33217500Y30480000D01*
X33197135Y30648285D01*
X33137217Y30806855D01*
X33114408Y30840043D01*
X33044583Y30941638D01*
X33041203Y30946556D01*
X32914638Y31059321D01*
X32909367Y31062112D01*
X32770103Y31135849D01*
X32770100Y31135850D01*
X32764829Y31138641D01*
X32682626Y31159289D01*
X32606213Y31178483D01*
X32606210Y31178483D01*
X32600423Y31179937D01*
X32517471Y31180371D01*
X32436881Y31180793D01*
X32436879Y31180793D01*
X32430912Y31180824D01*
X32426602Y31179789D01*
X32367209Y31191764D01*
X32345803Y31208011D01*
X30234600Y33319214D01*
X30206823Y33373731D01*
X30216394Y33434163D01*
X30259659Y33477428D01*
X30277511Y33484439D01*
X30353352Y33506018D01*
X30353353Y33506018D01*
X30362173Y33508528D01*
X30451767Y33576186D01*
X30510870Y33671641D01*
X30527300Y33759531D01*
X30530658Y33777493D01*
X30530659Y33777498D01*
X30531500Y33782000D01*
X30531500Y35306000D01*
X30530197Y35334188D01*
X30499472Y35442173D01*
X30431814Y35531767D01*
X30336359Y35590870D01*
X30288686Y35599782D01*
X30230507Y35610658D01*
X30230502Y35610659D01*
X30226000Y35611500D01*
X28702000Y35611500D01*
X28673812Y35610197D01*
X28612874Y35592858D01*
X28574648Y35581982D01*
X28574647Y35581982D01*
X28565827Y35579472D01*
X28476233Y35511814D01*
X28417130Y35416359D01*
X28415444Y35407338D01*
X28397342Y35310507D01*
X28397341Y35310502D01*
X28396500Y35306000D01*
X28396500Y33782000D01*
X28397803Y33753812D01*
X28428528Y33645827D01*
X28477786Y33580599D01*
X28486734Y33568750D01*
X28496186Y33556233D01*
X28591641Y33497130D01*
X28639314Y33488218D01*
X28697493Y33477342D01*
X28697498Y33477341D01*
X28702000Y33476500D01*
X28863732Y33476500D01*
X28921923Y33457593D01*
X28957887Y33408093D01*
X28962542Y33383631D01*
X28963310Y33371253D01*
X28963500Y33365122D01*
X28963500Y33347086D01*
X28964000Y33343596D01*
X28964000Y33343593D01*
X28965246Y33334894D01*
X28966056Y33326990D01*
X28969003Y33279491D01*
X28971398Y33272858D01*
X28972482Y33269854D01*
X28977365Y33250270D01*
X28978818Y33240123D01*
X28981738Y33233700D01*
X28981739Y33233698D01*
X28998519Y33196792D01*
X29001515Y33189432D01*
X29008106Y33171176D01*
X29017670Y33144682D01*
X29021831Y33138986D01*
X29021834Y33138981D01*
X29023714Y33136408D01*
X29033897Y33118982D01*
X29034808Y33116979D01*
X29038140Y33109651D01*
X29042742Y33104310D01*
X29042744Y33104307D01*
X29069211Y33073590D01*
X29074150Y33067370D01*
X29080936Y33058081D01*
X29080940Y33058077D01*
X29083191Y33054995D01*
X29095371Y33042815D01*
X29100366Y33037435D01*
X29131697Y33001074D01*
X29138321Y32996780D01*
X29154474Y32983712D01*
X31813064Y30325122D01*
X31836030Y30289142D01*
X31883395Y30159710D01*
X31886724Y30154756D01*
X31910941Y30118717D01*
X31927704Y30059872D01*
X31906676Y30002413D01*
X31855892Y29968288D01*
X31828770Y29964500D01*
X29712322Y29964500D01*
X29654131Y29983407D01*
X29642318Y29993496D01*
X28161353Y31474461D01*
X28133074Y31532571D01*
X28123743Y31609678D01*
X28117135Y31664285D01*
X28114758Y31670577D01*
X28065485Y31800973D01*
X28057217Y31822855D01*
X28023571Y31871811D01*
X27964583Y31957638D01*
X27961203Y31962556D01*
X27886815Y32028833D01*
X27839092Y32071353D01*
X27839090Y32071354D01*
X27834638Y32075321D01*
X27809404Y32088682D01*
X27690103Y32151849D01*
X27690100Y32151850D01*
X27684829Y32154641D01*
X27576227Y32181920D01*
X27526213Y32194483D01*
X27526210Y32194483D01*
X27520423Y32195937D01*
X27434734Y32196385D01*
X27356878Y32196793D01*
X27356876Y32196793D01*
X27350912Y32196824D01*
X27186082Y32157252D01*
X27124930Y32125689D01*
X27040756Y32082244D01*
X27040754Y32082242D01*
X27035450Y32079505D01*
X27030955Y32075583D01*
X27030951Y32075581D01*
X27002267Y32050558D01*
X26907711Y31968072D01*
X26904282Y31963193D01*
X26837906Y31868749D01*
X26810240Y31829385D01*
X26808073Y31823827D01*
X26808072Y31823825D01*
X26760191Y31701013D01*
X26748665Y31671451D01*
X26726539Y31503388D01*
X26745140Y31334898D01*
X26803395Y31175710D01*
X26897940Y31035012D01*
X26902352Y31030997D01*
X26902355Y31030994D01*
X26995151Y30946556D01*
X27023317Y30920927D01*
X27172288Y30840043D01*
X27178058Y30838529D01*
X27178061Y30838528D01*
X27298791Y30806855D01*
X27336253Y30797027D01*
X27342222Y30796933D01*
X27342224Y30796933D01*
X27366747Y30796548D01*
X27384451Y30796270D01*
X27442337Y30776451D01*
X27452900Y30767286D01*
X29063068Y29157118D01*
X29070634Y29147649D01*
X29070707Y29147711D01*
X29075279Y29142339D01*
X29079042Y29136375D01*
X29099437Y29118363D01*
X29117559Y29102358D01*
X29122028Y29098158D01*
X29134781Y29085405D01*
X29137599Y29083293D01*
X29137607Y29083286D01*
X29144643Y29078013D01*
X29150802Y29072998D01*
X29186469Y29041499D01*
X29192847Y29038505D01*
X29192851Y29038502D01*
X29195749Y29037142D01*
X29213046Y29026749D01*
X29221247Y29020602D01*
X29247943Y29010594D01*
X29265812Y29003895D01*
X29273133Y29000810D01*
X29289749Y28993009D01*
X29316206Y28980588D01*
X29326335Y28979011D01*
X29345848Y28973892D01*
X29348848Y28972767D01*
X29348850Y28972767D01*
X29355451Y28970292D01*
X29385747Y28968041D01*
X29402914Y28966765D01*
X29410803Y28965859D01*
X29425955Y28963500D01*
X29443178Y28963500D01*
X29450515Y28963228D01*
X29498382Y28959671D01*
X29505283Y28961144D01*
X29506105Y28961319D01*
X29526770Y28963500D01*
X29540678Y28963500D01*
X29598869Y28944593D01*
X29634833Y28895093D01*
X29634833Y28833907D01*
X29610682Y28794496D01*
X28414504Y27598318D01*
X28359987Y27570541D01*
X28299555Y27580112D01*
X28256290Y27623377D01*
X28245500Y27668322D01*
X28245500Y28702000D01*
X28244197Y28730188D01*
X28213472Y28838173D01*
X28145814Y28927767D01*
X28050359Y28986870D01*
X28002686Y28995782D01*
X27944507Y29006658D01*
X27944502Y29006659D01*
X27940000Y29007500D01*
X26416000Y29007500D01*
X26387812Y29006197D01*
X26326874Y28988858D01*
X26288648Y28977982D01*
X26288647Y28977982D01*
X26279827Y28975472D01*
X26190233Y28907814D01*
X26131130Y28812359D01*
X26129444Y28803338D01*
X26111342Y28706507D01*
X26111341Y28706502D01*
X26110500Y28702000D01*
X25705500Y28702000D01*
X25704197Y28730188D01*
X25673472Y28838173D01*
X25605814Y28927767D01*
X25510359Y28986870D01*
X25462686Y28995782D01*
X25404507Y29006658D01*
X25404502Y29006659D01*
X25400000Y29007500D01*
X23876000Y29007500D01*
X23847812Y29006197D01*
X23786874Y28988858D01*
X23748648Y28977982D01*
X23748647Y28977982D01*
X23739827Y28975472D01*
X23650233Y28907814D01*
X23591130Y28812359D01*
X23589444Y28803338D01*
X23571342Y28706507D01*
X23571341Y28706502D01*
X23570500Y28702000D01*
X23165500Y28702000D01*
X23164197Y28730188D01*
X23133472Y28838173D01*
X23065814Y28927767D01*
X22970359Y28986870D01*
X22922686Y28995782D01*
X22864507Y29006658D01*
X22864502Y29006659D01*
X22860000Y29007500D01*
X21336000Y29007500D01*
X21307812Y29006197D01*
X21246874Y28988858D01*
X21208648Y28977982D01*
X21208647Y28977982D01*
X21199827Y28975472D01*
X21110233Y28907814D01*
X21051130Y28812359D01*
X21049444Y28803338D01*
X21031342Y28706507D01*
X21031341Y28706502D01*
X21030500Y28702000D01*
X20625500Y28702000D01*
X20624197Y28730188D01*
X20593472Y28838173D01*
X20525814Y28927767D01*
X20430359Y28986870D01*
X20382686Y28995782D01*
X20324507Y29006658D01*
X20324502Y29006659D01*
X20320000Y29007500D01*
X18796000Y29007500D01*
X18767812Y29006197D01*
X18706874Y28988858D01*
X18668648Y28977982D01*
X18668647Y28977982D01*
X18659827Y28975472D01*
X18570233Y28907814D01*
X18511130Y28812359D01*
X18509444Y28803338D01*
X18491342Y28706507D01*
X18491341Y28706502D01*
X18490500Y28702000D01*
X754000Y28702000D01*
X754000Y33274000D01*
X10536500Y33274000D01*
X10536805Y33270125D01*
X10555468Y33032993D01*
X10556882Y33015023D01*
X10617526Y32762422D01*
X10716939Y32522419D01*
X10852672Y32300922D01*
X11021385Y32103385D01*
X11024352Y32100851D01*
X11154458Y31989730D01*
X11218922Y31934672D01*
X11440419Y31798939D01*
X11680422Y31699526D01*
X11684196Y31698620D01*
X11684199Y31698619D01*
X11803969Y31669865D01*
X11933023Y31638882D01*
X11936888Y31638578D01*
X11936893Y31638577D01*
X12188125Y31618805D01*
X12192000Y31618500D01*
X12195875Y31618805D01*
X12447107Y31638577D01*
X12447112Y31638578D01*
X12450977Y31638882D01*
X12580031Y31669865D01*
X12699801Y31698619D01*
X12699804Y31698620D01*
X12703578Y31699526D01*
X12943581Y31798939D01*
X13165078Y31934672D01*
X13229543Y31989730D01*
X13359648Y32100851D01*
X13362615Y32103385D01*
X13531328Y32300922D01*
X13667061Y32522419D01*
X13766474Y32762422D01*
X13827118Y33015023D01*
X13828533Y33032993D01*
X13847195Y33270125D01*
X13847500Y33274000D01*
X14346500Y33274000D01*
X14346805Y33270125D01*
X14365468Y33032993D01*
X14366882Y33015023D01*
X14427526Y32762422D01*
X14526939Y32522419D01*
X14662672Y32300922D01*
X14831385Y32103385D01*
X14834352Y32100851D01*
X14964458Y31989730D01*
X15028922Y31934672D01*
X15250419Y31798939D01*
X15490422Y31699526D01*
X15494196Y31698620D01*
X15494199Y31698619D01*
X15613969Y31669865D01*
X15743023Y31638882D01*
X15746888Y31638578D01*
X15746893Y31638577D01*
X15998125Y31618805D01*
X16002000Y31618500D01*
X16005875Y31618805D01*
X16257107Y31638577D01*
X16257112Y31638578D01*
X16260977Y31638882D01*
X16390031Y31669865D01*
X16509801Y31698619D01*
X16509804Y31698620D01*
X16513578Y31699526D01*
X16753581Y31798939D01*
X16975078Y31934672D01*
X17039543Y31989730D01*
X17169648Y32100851D01*
X17172615Y32103385D01*
X17341328Y32300922D01*
X17477061Y32522419D01*
X17576474Y32762422D01*
X17637118Y33015023D01*
X17638533Y33032993D01*
X17657195Y33270125D01*
X17657500Y33274000D01*
X17654982Y33306000D01*
X17902500Y33306000D01*
X17902805Y33302125D01*
X17922523Y33051588D01*
X17922882Y33047023D01*
X17983526Y32794422D01*
X18082939Y32554419D01*
X18218672Y32332922D01*
X18387385Y32135385D01*
X18584922Y31966672D01*
X18806419Y31830939D01*
X19046422Y31731526D01*
X19050196Y31730620D01*
X19050199Y31730619D01*
X19173518Y31701013D01*
X19299023Y31670882D01*
X19302888Y31670578D01*
X19302893Y31670577D01*
X19554125Y31650805D01*
X19558000Y31650500D01*
X19561875Y31650805D01*
X19813107Y31670577D01*
X19813112Y31670578D01*
X19816977Y31670882D01*
X19942482Y31701013D01*
X20065801Y31730619D01*
X20065804Y31730620D01*
X20069578Y31731526D01*
X20309581Y31830939D01*
X20531078Y31966672D01*
X20728615Y32135385D01*
X20897328Y32332922D01*
X21033061Y32554419D01*
X21132474Y32794422D01*
X21193118Y33047023D01*
X21193478Y33051588D01*
X21213195Y33302125D01*
X21213500Y33306000D01*
X21458500Y33306000D01*
X21458805Y33302125D01*
X21478523Y33051588D01*
X21478882Y33047023D01*
X21539526Y32794422D01*
X21638939Y32554419D01*
X21774672Y32332922D01*
X21943385Y32135385D01*
X22140922Y31966672D01*
X22362419Y31830939D01*
X22602422Y31731526D01*
X22606196Y31730620D01*
X22606199Y31730619D01*
X22729518Y31701013D01*
X22855023Y31670882D01*
X22858888Y31670578D01*
X22858893Y31670577D01*
X23110125Y31650805D01*
X23114000Y31650500D01*
X23117875Y31650805D01*
X23369107Y31670577D01*
X23369112Y31670578D01*
X23372977Y31670882D01*
X23498482Y31701013D01*
X23621801Y31730619D01*
X23621804Y31730620D01*
X23625578Y31731526D01*
X23865581Y31830939D01*
X24087078Y31966672D01*
X24284615Y32135385D01*
X24453328Y32332922D01*
X24589061Y32554419D01*
X24688474Y32794422D01*
X24749118Y33047023D01*
X24749478Y33051588D01*
X24769195Y33302125D01*
X24769500Y33306000D01*
X24764553Y33368858D01*
X24749423Y33561107D01*
X24749422Y33561112D01*
X24749118Y33564977D01*
X24697858Y33778491D01*
X24689381Y33813801D01*
X24689380Y33813804D01*
X24688474Y33817578D01*
X24589061Y34057581D01*
X24453328Y34279078D01*
X24284615Y34476615D01*
X24087078Y34645328D01*
X23865581Y34781061D01*
X23625578Y34880474D01*
X23621804Y34881380D01*
X23621801Y34881381D01*
X23422640Y34929195D01*
X23372977Y34941118D01*
X23369112Y34941422D01*
X23369107Y34941423D01*
X23117875Y34961195D01*
X23114000Y34961500D01*
X23110125Y34961195D01*
X22858893Y34941423D01*
X22858888Y34941422D01*
X22855023Y34941118D01*
X22805360Y34929195D01*
X22606199Y34881381D01*
X22606196Y34881380D01*
X22602422Y34880474D01*
X22362419Y34781061D01*
X22140922Y34645328D01*
X21943385Y34476615D01*
X21774672Y34279078D01*
X21638939Y34057581D01*
X21539526Y33817578D01*
X21538620Y33813804D01*
X21538619Y33813801D01*
X21530142Y33778491D01*
X21478882Y33564977D01*
X21478578Y33561112D01*
X21478577Y33561107D01*
X21463447Y33368858D01*
X21458500Y33306000D01*
X21213500Y33306000D01*
X21208553Y33368858D01*
X21193423Y33561107D01*
X21193422Y33561112D01*
X21193118Y33564977D01*
X21141858Y33778491D01*
X21133381Y33813801D01*
X21133380Y33813804D01*
X21132474Y33817578D01*
X21033061Y34057581D01*
X20897328Y34279078D01*
X20728615Y34476615D01*
X20531078Y34645328D01*
X20309581Y34781061D01*
X20069578Y34880474D01*
X20065804Y34881380D01*
X20065801Y34881381D01*
X19866640Y34929195D01*
X19816977Y34941118D01*
X19813112Y34941422D01*
X19813107Y34941423D01*
X19561875Y34961195D01*
X19558000Y34961500D01*
X19554125Y34961195D01*
X19302893Y34941423D01*
X19302888Y34941422D01*
X19299023Y34941118D01*
X19249360Y34929195D01*
X19050199Y34881381D01*
X19050196Y34881380D01*
X19046422Y34880474D01*
X18806419Y34781061D01*
X18584922Y34645328D01*
X18387385Y34476615D01*
X18218672Y34279078D01*
X18082939Y34057581D01*
X17983526Y33817578D01*
X17982620Y33813804D01*
X17982619Y33813801D01*
X17974142Y33778491D01*
X17922882Y33564977D01*
X17922578Y33561112D01*
X17922577Y33561107D01*
X17907447Y33368858D01*
X17902500Y33306000D01*
X17654982Y33306000D01*
X17653942Y33319214D01*
X17637423Y33529107D01*
X17637422Y33529112D01*
X17637118Y33532977D01*
X17593590Y33714285D01*
X17577381Y33781801D01*
X17577380Y33781804D01*
X17576474Y33785578D01*
X17477061Y34025581D01*
X17341328Y34247078D01*
X17172615Y34444615D01*
X16975078Y34613328D01*
X16753581Y34749061D01*
X16513578Y34848474D01*
X16509804Y34849380D01*
X16509801Y34849381D01*
X16375398Y34881648D01*
X16260977Y34909118D01*
X16257112Y34909422D01*
X16257107Y34909423D01*
X16005875Y34929195D01*
X16002000Y34929500D01*
X15998125Y34929195D01*
X15746893Y34909423D01*
X15746888Y34909422D01*
X15743023Y34909118D01*
X15628602Y34881648D01*
X15494199Y34849381D01*
X15494196Y34849380D01*
X15490422Y34848474D01*
X15250419Y34749061D01*
X15028922Y34613328D01*
X14831385Y34444615D01*
X14662672Y34247078D01*
X14526939Y34025581D01*
X14427526Y33785578D01*
X14426620Y33781804D01*
X14426619Y33781801D01*
X14410410Y33714285D01*
X14366882Y33532977D01*
X14366578Y33529112D01*
X14366577Y33529107D01*
X14350058Y33319214D01*
X14346500Y33274000D01*
X13847500Y33274000D01*
X13843942Y33319214D01*
X13827423Y33529107D01*
X13827422Y33529112D01*
X13827118Y33532977D01*
X13783590Y33714285D01*
X13767381Y33781801D01*
X13767380Y33781804D01*
X13766474Y33785578D01*
X13667061Y34025581D01*
X13531328Y34247078D01*
X13362615Y34444615D01*
X13165078Y34613328D01*
X12943581Y34749061D01*
X12703578Y34848474D01*
X12699804Y34849380D01*
X12699801Y34849381D01*
X12565398Y34881648D01*
X12450977Y34909118D01*
X12447112Y34909422D01*
X12447107Y34909423D01*
X12195875Y34929195D01*
X12192000Y34929500D01*
X12188125Y34929195D01*
X11936893Y34909423D01*
X11936888Y34909422D01*
X11933023Y34909118D01*
X11818602Y34881648D01*
X11684199Y34849381D01*
X11684196Y34849380D01*
X11680422Y34848474D01*
X11440419Y34749061D01*
X11218922Y34613328D01*
X11021385Y34444615D01*
X10852672Y34247078D01*
X10716939Y34025581D01*
X10617526Y33785578D01*
X10616620Y33781804D01*
X10616619Y33781801D01*
X10600410Y33714285D01*
X10556882Y33532977D01*
X10556578Y33529112D01*
X10556577Y33529107D01*
X10540058Y33319214D01*
X10536500Y33274000D01*
X754000Y33274000D01*
X754000Y37846000D01*
X28396500Y37846000D01*
X28396500Y36322000D01*
X28397803Y36293812D01*
X28428528Y36185827D01*
X28496186Y36096233D01*
X28591641Y36037130D01*
X28639314Y36028218D01*
X28697493Y36017342D01*
X28697498Y36017341D01*
X28702000Y36016500D01*
X30226000Y36016500D01*
X30254188Y36017803D01*
X30329737Y36039299D01*
X30353352Y36046018D01*
X30353353Y36046018D01*
X30362173Y36048528D01*
X30451767Y36116186D01*
X30510870Y36211641D01*
X30529158Y36309469D01*
X30530658Y36317493D01*
X30530659Y36317498D01*
X30531500Y36322000D01*
X30531500Y37846000D01*
X30936500Y37846000D01*
X30936500Y36322000D01*
X30937803Y36293812D01*
X30968528Y36185827D01*
X31036186Y36096233D01*
X31131641Y36037130D01*
X31179314Y36028218D01*
X31237493Y36017342D01*
X31237498Y36017341D01*
X31242000Y36016500D01*
X32766000Y36016500D01*
X32794188Y36017803D01*
X32869737Y36039299D01*
X32893352Y36046018D01*
X32893353Y36046018D01*
X32902173Y36048528D01*
X32991767Y36116186D01*
X33050870Y36211641D01*
X33069158Y36309469D01*
X33070658Y36317493D01*
X33070659Y36317498D01*
X33071500Y36322000D01*
X33071500Y37846000D01*
X33476500Y37846000D01*
X33476500Y36322000D01*
X33477803Y36293812D01*
X33508528Y36185827D01*
X33576186Y36096233D01*
X33671641Y36037130D01*
X33719314Y36028218D01*
X33777493Y36017342D01*
X33777498Y36017341D01*
X33782000Y36016500D01*
X35306000Y36016500D01*
X35334188Y36017803D01*
X35409737Y36039299D01*
X35433352Y36046018D01*
X35433353Y36046018D01*
X35442173Y36048528D01*
X35531767Y36116186D01*
X35590870Y36211641D01*
X35609158Y36309469D01*
X35610658Y36317493D01*
X35610659Y36317498D01*
X35611500Y36322000D01*
X35611500Y37846000D01*
X36016500Y37846000D01*
X36016500Y36322000D01*
X36017803Y36293812D01*
X36048528Y36185827D01*
X36116186Y36096233D01*
X36211641Y36037130D01*
X36259314Y36028218D01*
X36317493Y36017342D01*
X36317498Y36017341D01*
X36322000Y36016500D01*
X37846000Y36016500D01*
X37874188Y36017803D01*
X37949737Y36039299D01*
X37973352Y36046018D01*
X37973353Y36046018D01*
X37982173Y36048528D01*
X38071767Y36116186D01*
X38130870Y36211641D01*
X38149158Y36309469D01*
X38150658Y36317493D01*
X38150659Y36317498D01*
X38151500Y36322000D01*
X38151500Y37846000D01*
X38150197Y37874188D01*
X38119472Y37982173D01*
X38051814Y38071767D01*
X37956359Y38130870D01*
X37908686Y38139782D01*
X37850507Y38150658D01*
X37850502Y38150659D01*
X37846000Y38151500D01*
X36322000Y38151500D01*
X36293812Y38150197D01*
X36232874Y38132858D01*
X36194648Y38121982D01*
X36194647Y38121982D01*
X36185827Y38119472D01*
X36096233Y38051814D01*
X36037130Y37956359D01*
X36035444Y37947338D01*
X36017342Y37850507D01*
X36017341Y37850502D01*
X36016500Y37846000D01*
X35611500Y37846000D01*
X35610197Y37874188D01*
X35579472Y37982173D01*
X35511814Y38071767D01*
X35416359Y38130870D01*
X35368686Y38139782D01*
X35310507Y38150658D01*
X35310502Y38150659D01*
X35306000Y38151500D01*
X33782000Y38151500D01*
X33753812Y38150197D01*
X33692874Y38132858D01*
X33654648Y38121982D01*
X33654647Y38121982D01*
X33645827Y38119472D01*
X33556233Y38051814D01*
X33497130Y37956359D01*
X33495444Y37947338D01*
X33477342Y37850507D01*
X33477341Y37850502D01*
X33476500Y37846000D01*
X33071500Y37846000D01*
X33070197Y37874188D01*
X33039472Y37982173D01*
X32971814Y38071767D01*
X32876359Y38130870D01*
X32828686Y38139782D01*
X32770507Y38150658D01*
X32770502Y38150659D01*
X32766000Y38151500D01*
X31242000Y38151500D01*
X31213812Y38150197D01*
X31152874Y38132858D01*
X31114648Y38121982D01*
X31114647Y38121982D01*
X31105827Y38119472D01*
X31016233Y38051814D01*
X30957130Y37956359D01*
X30955444Y37947338D01*
X30937342Y37850507D01*
X30937341Y37850502D01*
X30936500Y37846000D01*
X30531500Y37846000D01*
X30530197Y37874188D01*
X30499472Y37982173D01*
X30431814Y38071767D01*
X30336359Y38130870D01*
X30288686Y38139782D01*
X30230507Y38150658D01*
X30230502Y38150659D01*
X30226000Y38151500D01*
X28702000Y38151500D01*
X28673812Y38150197D01*
X28612874Y38132858D01*
X28574648Y38121982D01*
X28574647Y38121982D01*
X28565827Y38119472D01*
X28476233Y38051814D01*
X28417130Y37956359D01*
X28415444Y37947338D01*
X28397342Y37850507D01*
X28397341Y37850502D01*
X28396500Y37846000D01*
X754000Y37846000D01*
X754000Y39787000D01*
X772907Y39845191D01*
X822407Y39881155D01*
X853000Y39886000D01*
X60107000Y39886000D01*
X60165191Y39867093D01*
G37*
G04 #@! TD.AperFunction*
M02*
