  0
SECTION
  2
HEADER
  9
$ANGBASE
  50
0.0
  9
$ANGDIR
  70
1
  9
$MEASUREMENT
  70
0
  0
ENDSEC
  0
SECTION
  2
TABLES
  0
TABLE
  2
LTYPE
  70
4
  0
LTYPE
  5
40F
  2
CONTINUOUS
  70
0
  3
Solid line
  72
65
  73
0
  40
0.0
  0
LTYPE
  5
410
  2
DASHDOT
 70
0
  3
Dash Dot ____ _ ____ _
 72
65
 73
4
 40
2.0
 49
1.25
 49
-0.25
 49
0.25
 49
-0.25
  0
LTYPE
  5
411
  2
DASHED
 70
0
  3
Dashed __ __ __ __ __
 72
65
 73
2
 40
0.75
 49
0.5
 49
-0.25
  0
LTYPE
  5
43B
  2
DOTTED
 70
0
  3
Dotted .  .  .  .
 72
65
 73
2
 40
0.2
 49
0.0
 49
-0.2
  0
ENDTAB
  0
TABLE
  2
STYLE
  70
4
  0
STYLE
  2
KICAD
  70
0
  40
0
  41
1
  42
1
  50
0
  71
0
  3
isocp.shx
  0
STYLE
  2
KICADB
  70
0
  40
0
  41
1
  42
1
  50
0
  71
0
  3
isocp.shx
  0
STYLE
  2
KICADI
  70
0
  40
0
  41
1
  42
1
  50
15
  71
0
  3
isocp.shx
  0
STYLE
  2
KICADBI
  70
0
  40
0
  41
1
  42
1
  50
15
  71
0
  3
isocp.shx
  0
ENDTAB
  0
TABLE
  2
LAYER
  70
1
  0
LAYER
  2
BLACK
  70
0
  62
7
  6
CONTINUOUS
  0
ENDTAB
  0
ENDSEC
  0
SECTION
  2
ENTITIES
0
LINE
8
BLACK
6
CONTINUOUS
10
0.740406
20
0.0515087
11
0.740118
21
0.0522047
0
LINE
8
BLACK
6
CONTINUOUS
10
0.740118
20
0.0522047
11
0.740118
21
0.327795
0
LINE
8
BLACK
6
CONTINUOUS
10
0.740118
20
0.327795
11
0.740406
21
0.328491
0
LINE
8
BLACK
6
CONTINUOUS
10
0.740406
20
0.328491
11
0.741102
21
0.32878
0
LINE
8
BLACK
6
CONTINUOUS
10
0.741102
20
0.32878
11
0.878898
21
0.32878
0
LINE
8
BLACK
6
CONTINUOUS
10
0.878898
20
0.32878
11
0.879594
21
0.328491
0
LINE
8
BLACK
6
CONTINUOUS
10
0.879594
20
0.328491
11
0.879882
21
0.327795
0
LINE
8
BLACK
6
CONTINUOUS
10
0.879882
20
0.327795
11
0.879882
21
0.0522047
0
LINE
8
BLACK
6
CONTINUOUS
10
0.879882
20
0.0522047
11
0.879594
21
0.0515087
0
LINE
8
BLACK
6
CONTINUOUS
10
0.879594
20
0.0515087
11
0.878898
21
0.0512205
0
LINE
8
BLACK
6
CONTINUOUS
10
0.878898
20
0.0512205
11
0.741102
21
0.0512205
0
LINE
8
BLACK
6
CONTINUOUS
10
0.741102
20
0.0512205
11
0.740406
21
0.0515087
0
LINE
8
BLACK
6
CONTINUOUS
10
0.742087
20
0.326811
11
0.742087
21
0.053189
0
LINE
8
BLACK
6
CONTINUOUS
10
0.742087
20
0.053189
11
0.877913
21
0.053189
0
LINE
8
BLACK
6
CONTINUOUS
10
0.877913
20
0.053189
11
0.877913
21
0.326811
0
LINE
8
BLACK
6
CONTINUOUS
10
0.877913
20
0.326811
11
0.742087
21
0.326811
0
LINE
8
BLACK
6
CONTINUOUS
10
0.744658
20
0.357099
11
0.74437
21
0.357795
0
LINE
8
BLACK
6
CONTINUOUS
10
0.74437
20
0.357795
11
0.74437
21
0.482205
0
LINE
8
BLACK
6
CONTINUOUS
10
0.74437
20
0.482205
11
0.744658
21
0.482901
0
LINE
8
BLACK
6
CONTINUOUS
10
0.744658
20
0.482901
11
0.745354
21
0.483189
0
LINE
8
BLACK
6
CONTINUOUS
10
0.745354
20
0.483189
11
0.924882
21
0.483189
0
LINE
8
BLACK
6
CONTINUOUS
10
0.924882
20
0.483189
11
0.925578
21
0.482901
0
LINE
8
BLACK
6
CONTINUOUS
10
0.925578
20
0.482901
11
0.925866
21
0.482205
0
LINE
8
BLACK
6
CONTINUOUS
10
0.925866
20
0.482205
11
0.925866
21
0.357795
0
LINE
8
BLACK
6
CONTINUOUS
10
0.925866
20
0.357795
11
0.925578
21
0.357099
0
LINE
8
BLACK
6
CONTINUOUS
10
0.925578
20
0.357099
11
0.924882
21
0.356811
0
LINE
8
BLACK
6
CONTINUOUS
10
0.924882
20
0.356811
11
0.745354
21
0.356811
0
LINE
8
BLACK
6
CONTINUOUS
10
0.745354
20
0.356811
11
0.744658
21
0.357099
0
LINE
8
BLACK
6
CONTINUOUS
10
0.746339
20
0.48122
11
0.746339
21
0.35878
0
LINE
8
BLACK
6
CONTINUOUS
10
0.746339
20
0.35878
11
0.923898
21
0.35878
0
LINE
8
BLACK
6
CONTINUOUS
10
0.923898
20
0.35878
11
0.923898
21
0.48122
0
LINE
8
BLACK
6
CONTINUOUS
10
0.923898
20
0.48122
11
0.746339
21
0.48122
0
LINE
8
BLACK
6
CONTINUOUS
10
0.951036
20
0.427808
11
0.950748
21
0.428504
0
LINE
8
BLACK
6
CONTINUOUS
10
0.950748
20
0.428504
11
0.950748
21
0.57811
0
LINE
8
BLACK
6
CONTINUOUS
10
0.950748
20
0.57811
11
0.951036
21
0.578806
0
LINE
8
BLACK
6
CONTINUOUS
10
0.951036
20
0.578806
11
0.951732
21
0.579094
0
LINE
8
BLACK
6
CONTINUOUS
10
0.951732
20
0.579094
11
1.09346
21
0.579094
0
LINE
8
BLACK
6
CONTINUOUS
10
1.09346
20
0.579094
11
1.09416
21
0.578806
0
LINE
8
BLACK
6
CONTINUOUS
10
1.09416
20
0.578806
11
1.09445
21
0.57811
0
LINE
8
BLACK
6
CONTINUOUS
10
1.09445
20
0.57811
11
1.09445
21
0.428504
0
LINE
8
BLACK
6
CONTINUOUS
10
1.09445
20
0.428504
11
1.09416
21
0.427808
0
LINE
8
BLACK
6
CONTINUOUS
10
1.09416
20
0.427808
11
1.09346
21
0.42752
0
LINE
8
BLACK
6
CONTINUOUS
10
1.09346
20
0.42752
11
0.951732
21
0.42752
0
LINE
8
BLACK
6
CONTINUOUS
10
0.951732
20
0.42752
11
0.951036
21
0.427808
0
LINE
8
BLACK
6
CONTINUOUS
10
0.952717
20
0.577126
11
0.952717
21
0.429488
0
LINE
8
BLACK
6
CONTINUOUS
10
0.952717
20
0.429488
11
1.09248
21
0.429488
0
LINE
8
BLACK
6
CONTINUOUS
10
1.09248
20
0.429488
11
1.09248
21
0.577126
0
LINE
8
BLACK
6
CONTINUOUS
10
1.09248
20
0.577126
11
0.952717
21
0.577126
0
LINE
8
BLACK
6
CONTINUOUS
10
1.2345
20
0.547808
11
1.23421
21
0.548504
0
LINE
8
BLACK
6
CONTINUOUS
10
1.23421
20
0.548504
11
1.23421
21
1.1115
0
LINE
8
BLACK
6
CONTINUOUS
10
1.23421
20
1.1115
11
1.2345
21
1.11219
0
LINE
8
BLACK
6
CONTINUOUS
10
1.2345
20
1.11219
11
1.2352
21
1.11248
0
LINE
8
BLACK
6
CONTINUOUS
10
1.2352
20
1.11248
11
1.8848
21
1.11248
0
LINE
8
BLACK
6
CONTINUOUS
10
1.8848
20
1.11248
11
1.8855
21
1.11219
0
LINE
8
BLACK
6
CONTINUOUS
10
1.8855
20
1.11219
11
1.88579
21
1.1115
0
LINE
8
BLACK
6
CONTINUOUS
10
1.88579
20
1.1115
11
1.88579
21
0.548504
0
LINE
8
BLACK
6
CONTINUOUS
10
1.88579
20
0.548504
11
1.8855
21
0.547808
0
LINE
8
BLACK
6
CONTINUOUS
10
1.8855
20
0.547808
11
1.8848
21
0.54752
0
LINE
8
BLACK
6
CONTINUOUS
10
1.8848
20
0.54752
11
1.2352
21
0.54752
0
LINE
8
BLACK
6
CONTINUOUS
10
1.2352
20
0.54752
11
1.2345
21
0.547808
0
LINE
8
BLACK
6
CONTINUOUS
10
1.23618
20
1.11051
11
1.23618
21
0.549488
0
LINE
8
BLACK
6
CONTINUOUS
10
1.23618
20
0.549488
11
1.88382
21
0.549488
0
LINE
8
BLACK
6
CONTINUOUS
10
1.88382
20
0.549488
11
1.88382
21
1.11051
0
LINE
8
BLACK
6
CONTINUOUS
10
1.88382
20
1.11051
11
1.23618
21
1.11051
0
LINE
8
BLACK
6
CONTINUOUS
10
0.954028
20
0.69458
11
0.95374
21
0.695276
0
LINE
8
BLACK
6
CONTINUOUS
10
0.95374
20
0.695276
11
0.95374
21
0.833071
0
LINE
8
BLACK
6
CONTINUOUS
10
0.95374
20
0.833071
11
0.954028
21
0.833767
0
LINE
8
BLACK
6
CONTINUOUS
10
0.954028
20
0.833767
11
0.954724
21
0.834055
0
LINE
8
BLACK
6
CONTINUOUS
10
0.954724
20
0.834055
11
1.23031
21
0.834055
0
LINE
8
BLACK
6
CONTINUOUS
10
1.23031
20
0.834055
11
1.23101
21
0.833767
0
LINE
8
BLACK
6
CONTINUOUS
10
1.23101
20
0.833767
11
1.2313
21
0.833071
0
LINE
8
BLACK
6
CONTINUOUS
10
1.2313
20
0.833071
11
1.2313
21
0.695276
0
LINE
8
BLACK
6
CONTINUOUS
10
1.2313
20
0.695276
11
1.23101
21
0.69458
0
LINE
8
BLACK
6
CONTINUOUS
10
1.23101
20
0.69458
11
1.23031
21
0.694291
0
LINE
8
BLACK
6
CONTINUOUS
10
1.23031
20
0.694291
11
0.954724
21
0.694291
0
LINE
8
BLACK
6
CONTINUOUS
10
0.954724
20
0.694291
11
0.954028
21
0.69458
0
LINE
8
BLACK
6
CONTINUOUS
10
0.955709
20
0.832087
11
0.955709
21
0.69626
0
LINE
8
BLACK
6
CONTINUOUS
10
0.955709
20
0.69626
11
1.22933
21
0.69626
0
LINE
8
BLACK
6
CONTINUOUS
10
1.22933
20
0.69626
11
1.22933
21
0.832087
0
LINE
8
BLACK
6
CONTINUOUS
10
1.22933
20
0.832087
11
0.955709
21
0.832087
0
LINE
8
BLACK
6
CONTINUOUS
10
0.741194
20
0.768438
11
0.740906
21
0.769134
0
LINE
8
BLACK
6
CONTINUOUS
10
0.740906
20
0.769134
11
0.740906
21
0.910866
0
LINE
8
BLACK
6
CONTINUOUS
10
0.740906
20
0.910866
11
0.741194
21
0.911562
0
LINE
8
BLACK
6
CONTINUOUS
10
0.741194
20
0.911562
11
0.74189
21
0.91185
0
LINE
8
BLACK
6
CONTINUOUS
10
0.74189
20
0.91185
11
0.891496
21
0.91185
0
LINE
8
BLACK
6
CONTINUOUS
10
0.891496
20
0.91185
11
0.892192
21
0.911562
0
LINE
8
BLACK
6
CONTINUOUS
10
0.892192
20
0.911562
11
0.89248
21
0.910866
0
LINE
8
BLACK
6
CONTINUOUS
10
0.89248
20
0.910866
11
0.89248
21
0.769134
0
LINE
8
BLACK
6
CONTINUOUS
10
0.89248
20
0.769134
11
0.892192
21
0.768438
0
LINE
8
BLACK
6
CONTINUOUS
10
0.892192
20
0.768438
11
0.891496
21
0.76815
0
LINE
8
BLACK
6
CONTINUOUS
10
0.891496
20
0.76815
11
0.74189
21
0.76815
0
LINE
8
BLACK
6
CONTINUOUS
10
0.74189
20
0.76815
11
0.741194
21
0.768438
0
LINE
8
BLACK
6
CONTINUOUS
10
0.742874
20
0.909882
11
0.742874
21
0.770118
0
LINE
8
BLACK
6
CONTINUOUS
10
0.742874
20
0.770118
11
0.890512
21
0.770118
0
LINE
8
BLACK
6
CONTINUOUS
10
0.890512
20
0.770118
11
0.890512
21
0.909882
0
LINE
8
BLACK
6
CONTINUOUS
10
0.890512
20
0.909882
11
0.742874
21
0.909882
0
LINE
8
BLACK
6
CONTINUOUS
10
1.92332
20
0.946548
11
1.92303
21
0.947244
0
LINE
8
BLACK
6
CONTINUOUS
10
1.92303
20
0.947244
11
1.92303
21
1.02047
0
LINE
8
BLACK
6
CONTINUOUS
10
1.92303
20
1.02047
11
1.92332
21
1.02117
0
LINE
8
BLACK
6
CONTINUOUS
10
1.92332
20
1.02117
11
1.92402
21
1.02146
0
LINE
8
BLACK
6
CONTINUOUS
10
1.92402
20
1.02146
11
1.96102
21
1.02146
0
LINE
8
BLACK
6
CONTINUOUS
10
1.96102
20
1.02146
11
1.96172
21
1.02117
0
LINE
8
BLACK
6
CONTINUOUS
10
1.96172
20
1.02117
11
1.96201
21
1.02047
0
LINE
8
BLACK
6
CONTINUOUS
10
1.96201
20
1.02047
11
1.96201
21
0.947244
0
LINE
8
BLACK
6
CONTINUOUS
10
1.96201
20
0.947244
11
1.96172
21
0.946548
0
LINE
8
BLACK
6
CONTINUOUS
10
1.96172
20
0.946548
11
1.96102
21
0.94626
0
LINE
8
BLACK
6
CONTINUOUS
10
1.96102
20
0.94626
11
1.92402
21
0.94626
0
LINE
8
BLACK
6
CONTINUOUS
10
1.92402
20
0.94626
11
1.92332
21
0.946548
0
LINE
8
BLACK
6
CONTINUOUS
10
1.925
20
1.01949
11
1.925
21
0.948228
0
LINE
8
BLACK
6
CONTINUOUS
10
1.925
20
0.948228
11
1.96004
21
0.948228
0
LINE
8
BLACK
6
CONTINUOUS
10
1.96004
20
0.948228
11
1.96004
21
1.01949
0
LINE
8
BLACK
6
CONTINUOUS
10
1.96004
20
1.01949
11
1.925
21
1.01949
0
LINE
8
BLACK
6
CONTINUOUS
10
1.1102
20
1.45996
11
1.1102
21
1.33004
0
LINE
8
BLACK
6
CONTINUOUS
10
1.1102
20
1.33004
11
1.10991
21
1.32934
0
LINE
8
BLACK
6
CONTINUOUS
10
1.10991
20
1.32934
11
1.10921
21
1.32906
0
LINE
8
BLACK
6
CONTINUOUS
10
1.10921
20
1.32906
11
1.01079
21
1.32906
0
LINE
8
BLACK
6
CONTINUOUS
10
1.01079
20
1.32906
11
1.01009
21
1.32934
0
LINE
8
BLACK
6
CONTINUOUS
10
1.01009
20
1.32934
11
1.0098
21
1.33004
0
LINE
8
BLACK
6
CONTINUOUS
10
1.0098
20
1.33004
11
1.0098
21
1.42512
0
LINE
8
BLACK
6
CONTINUOUS
10
1.0098
20
1.42512
11
0.958071
21
1.42512
0
LINE
8
BLACK
6
CONTINUOUS
10
0.958071
20
1.42512
11
0.957375
21
1.42541
0
LINE
8
BLACK
6
CONTINUOUS
10
0.957375
20
1.42541
11
0.957087
21
1.4261
0
LINE
8
BLACK
6
CONTINUOUS
10
0.957087
20
1.4261
11
0.957087
21
1.5639
0
LINE
8
BLACK
6
CONTINUOUS
10
0.957087
20
1.5639
11
0.957375
21
1.56459
0
LINE
8
BLACK
6
CONTINUOUS
10
0.957375
20
1.56459
11
0.958071
21
1.56488
0
LINE
8
BLACK
6
CONTINUOUS
10
0.958071
20
1.56488
11
1.09193
21
1.56488
0
LINE
8
BLACK
6
CONTINUOUS
10
1.09193
20
1.56488
11
1.09263
21
1.56459
0
LINE
8
BLACK
6
CONTINUOUS
10
1.09263
20
1.56459
11
1.09291
21
1.5639
0
LINE
8
BLACK
6
CONTINUOUS
10
1.09291
20
1.5639
11
1.09291
21
1.46094
0
LINE
8
BLACK
6
CONTINUOUS
10
1.09291
20
1.46094
11
1.10921
21
1.46094
0
LINE
8
BLACK
6
CONTINUOUS
10
1.10921
20
1.46094
11
1.10991
21
1.46066
0
LINE
8
BLACK
6
CONTINUOUS
10
1.10991
20
1.46066
11
1.1102
21
1.45996
0
LINE
8
BLACK
6
CONTINUOUS
10
1.01177
20
1.33102
11
1.10823
21
1.33102
0
LINE
8
BLACK
6
CONTINUOUS
10
1.10823
20
1.33102
11
1.10823
21
1.45898
0
LINE
8
BLACK
6
CONTINUOUS
10
1.10823
20
1.45898
11
1.09291
21
1.45898
0
LINE
8
BLACK
6
CONTINUOUS
10
1.09291
20
1.45898
11
1.09291
21
1.4261
0
LINE
8
BLACK
6
CONTINUOUS
10
1.09291
20
1.4261
11
1.09263
21
1.42541
0
LINE
8
BLACK
6
CONTINUOUS
10
1.09263
20
1.42541
11
1.09193
21
1.42512
0
LINE
8
BLACK
6
CONTINUOUS
10
1.09193
20
1.42512
11
1.01177
21
1.42512
0
LINE
8
BLACK
6
CONTINUOUS
10
1.01177
20
1.42512
11
1.01177
21
1.33102
0
LINE
8
BLACK
6
CONTINUOUS
10
0.959055
20
1.56291
11
0.959055
21
1.42709
0
LINE
8
BLACK
6
CONTINUOUS
10
0.959055
20
1.42709
11
1.0098
21
1.42709
0
LINE
8
BLACK
6
CONTINUOUS
10
1.0098
20
1.42709
11
1.0098
21
1.45996
0
LINE
8
BLACK
6
CONTINUOUS
10
1.0098
20
1.45996
11
1.01009
21
1.46066
0
LINE
8
BLACK
6
CONTINUOUS
10
1.01009
20
1.46066
11
1.01079
21
1.46094
0
LINE
8
BLACK
6
CONTINUOUS
10
1.01079
20
1.46094
11
1.09094
21
1.46094
0
LINE
8
BLACK
6
CONTINUOUS
10
1.09094
20
1.46094
11
1.09094
21
1.56291
0
LINE
8
BLACK
6
CONTINUOUS
10
1.09094
20
1.56291
11
0.959055
21
1.56291
0
LINE
8
BLACK
6
CONTINUOUS
10
1.01177
20
1.45898
11
1.01177
21
1.42709
0
LINE
8
BLACK
6
CONTINUOUS
10
1.01177
20
1.42709
11
1.09094
21
1.42709
0
LINE
8
BLACK
6
CONTINUOUS
10
1.09094
20
1.42709
11
1.09094
21
1.45898
0
LINE
8
BLACK
6
CONTINUOUS
10
1.09094
20
1.45898
11
1.01177
21
1.45898
  0
ENDSEC
  0
EOF
