  0
SECTION
  2
HEADER
  9
$ANGBASE
  50
0.0
  9
$ANGDIR
  70
1
  9
$MEASUREMENT
  70
0
  0
ENDSEC
  0
SECTION
  2
TABLES
  0
TABLE
  2
LTYPE
  70
4
  0
LTYPE
  5
40F
  2
CONTINUOUS
  70
0
  3
Solid line
  72
65
  73
0
  40
0.0
  0
LTYPE
  5
410
  2
DASHDOT
 70
0
  3
Dash Dot ____ _ ____ _
 72
65
 73
4
 40
2.0
 49
1.25
 49
-0.25
 49
0.25
 49
-0.25
  0
LTYPE
  5
411
  2
DASHED
 70
0
  3
Dashed __ __ __ __ __
 72
65
 73
2
 40
0.75
 49
0.5
 49
-0.25
  0
LTYPE
  5
43B
  2
DOTTED
 70
0
  3
Dotted .  .  .  .
 72
65
 73
2
 40
0.2
 49
0.0
 49
-0.2
  0
ENDTAB
  0
TABLE
  2
STYLE
  70
4
  0
STYLE
  2
KICAD
  70
0
  40
0
  41
1
  42
1
  50
0
  71
0
  3
isocp.shx
  0
STYLE
  2
KICADB
  70
0
  40
0
  41
1
  42
1
  50
0
  71
0
  3
isocp.shx
  0
STYLE
  2
KICADI
  70
0
  40
0
  41
1
  42
1
  50
15
  71
0
  3
isocp.shx
  0
STYLE
  2
KICADBI
  70
0
  40
0
  41
1
  42
1
  50
15
  71
0
  3
isocp.shx
  0
ENDTAB
  0
TABLE
  2
LAYER
  70
1
  0
LAYER
  2
BLACK
  70
0
  62
7
  6
CONTINUOUS
  0
ENDTAB
  0
ENDSEC
  0
SECTION
  2
ENTITIES
0
LINE
8
BLACK
6
CONTINUOUS
10
0.845433
20
0.0620472
11
0.774567
21
0.0620472
0
LINE
8
BLACK
6
CONTINUOUS
10
0.774567
20
0.0620472
11
0.774567
21
0.160472
0
LINE
8
BLACK
6
CONTINUOUS
10
0.774567
20
0.160472
11
0.845433
21
0.160472
0
LINE
8
BLACK
6
CONTINUOUS
10
0.845433
20
0.160472
11
0.845433
21
0.0620472
0
LINE
8
BLACK
6
CONTINUOUS
10
0.845433
20
0.219528
11
0.774567
21
0.219528
0
LINE
8
BLACK
6
CONTINUOUS
10
0.774567
20
0.219528
11
0.774567
21
0.317953
0
LINE
8
BLACK
6
CONTINUOUS
10
0.774567
20
0.317953
11
0.845433
21
0.317953
0
LINE
8
BLACK
6
CONTINUOUS
10
0.845433
20
0.317953
11
0.845433
21
0.219528
0
LINE
8
BLACK
6
CONTINUOUS
10
1.8425
20
0.3225
11
1.8075
21
0.3225
0
LINE
8
BLACK
6
CONTINUOUS
10
1.8075
20
0.3225
11
1.8075
21
0.3775
0
LINE
8
BLACK
6
CONTINUOUS
10
1.8075
20
0.3775
11
1.8425
21
0.3775
0
LINE
8
BLACK
6
CONTINUOUS
10
1.8425
20
0.3775
11
1.8425
21
0.3225
0
LINE
8
BLACK
6
CONTINUOUS
10
1.9175
20
0.3225
11
1.8825
21
0.3225
0
LINE
8
BLACK
6
CONTINUOUS
10
1.8825
20
0.3225
11
1.8825
21
0.3775
0
LINE
8
BLACK
6
CONTINUOUS
10
1.8825
20
0.3775
11
1.9175
21
0.3775
0
LINE
8
BLACK
6
CONTINUOUS
10
1.9175
20
0.3775
11
1.9175
21
0.3225
0
LINE
8
BLACK
6
CONTINUOUS
10
1.7775
20
0.3225
11
1.7425
21
0.3225
0
LINE
8
BLACK
6
CONTINUOUS
10
1.7425
20
0.3225
11
1.7425
21
0.3775
0
LINE
8
BLACK
6
CONTINUOUS
10
1.7425
20
0.3775
11
1.7775
21
0.3775
0
LINE
8
BLACK
6
CONTINUOUS
10
1.7775
20
0.3775
11
1.7775
21
0.3225
0
LINE
8
BLACK
6
CONTINUOUS
10
1.7025
20
0.3225
11
1.6675
21
0.3225
0
LINE
8
BLACK
6
CONTINUOUS
10
1.6675
20
0.3225
11
1.6675
21
0.3775
0
LINE
8
BLACK
6
CONTINUOUS
10
1.6675
20
0.3775
11
1.7025
21
0.3775
0
LINE
8
BLACK
6
CONTINUOUS
10
1.7025
20
0.3775
11
1.7025
21
0.3225
0
LINE
8
BLACK
6
CONTINUOUS
10
1.0625
20
0.3525
11
1.0275
21
0.3525
0
LINE
8
BLACK
6
CONTINUOUS
10
1.0275
20
0.3525
11
1.0275
21
0.4075
0
LINE
8
BLACK
6
CONTINUOUS
10
1.0275
20
0.4075
11
1.0625
21
0.4075
0
LINE
8
BLACK
6
CONTINUOUS
10
1.0625
20
0.4075
11
1.0625
21
0.3525
0
LINE
8
BLACK
6
CONTINUOUS
10
1.1375
20
0.3525
11
1.1025
21
0.3525
0
LINE
8
BLACK
6
CONTINUOUS
10
1.1025
20
0.3525
11
1.1025
21
0.4075
0
LINE
8
BLACK
6
CONTINUOUS
10
1.1025
20
0.4075
11
1.1375
21
0.4075
0
LINE
8
BLACK
6
CONTINUOUS
10
1.1375
20
0.4075
11
1.1375
21
0.3525
0
LINE
8
BLACK
6
CONTINUOUS
10
1.6275
20
0.3675
11
1.5725
21
0.3675
0
LINE
8
BLACK
6
CONTINUOUS
10
1.5725
20
0.3675
11
1.5725
21
0.4025
0
LINE
8
BLACK
6
CONTINUOUS
10
1.5725
20
0.4025
11
1.6275
21
0.4025
0
LINE
8
BLACK
6
CONTINUOUS
10
1.6275
20
0.4025
11
1.6275
21
0.3675
0
LINE
8
BLACK
6
CONTINUOUS
10
1.3275
20
0.3675
11
1.2725
21
0.3675
0
LINE
8
BLACK
6
CONTINUOUS
10
1.2725
20
0.3675
11
1.2725
21
0.4025
0
LINE
8
BLACK
6
CONTINUOUS
10
1.2725
20
0.4025
11
1.3275
21
0.4025
0
LINE
8
BLACK
6
CONTINUOUS
10
1.3275
20
0.4025
11
1.3275
21
0.3675
0
LINE
8
BLACK
6
CONTINUOUS
10
1.4275
20
0.3675
11
1.3725
21
0.3675
0
LINE
8
BLACK
6
CONTINUOUS
10
1.3725
20
0.3675
11
1.3725
21
0.4025
0
LINE
8
BLACK
6
CONTINUOUS
10
1.3725
20
0.4025
11
1.4275
21
0.4025
0
LINE
8
BLACK
6
CONTINUOUS
10
1.4275
20
0.4025
11
1.4275
21
0.3675
0
LINE
8
BLACK
6
CONTINUOUS
10
1.2475
20
0.3675
11
1.1925
21
0.3675
0
LINE
8
BLACK
6
CONTINUOUS
10
1.1925
20
0.3675
11
1.1925
21
0.4025
0
LINE
8
BLACK
6
CONTINUOUS
10
1.1925
20
0.4025
11
1.2475
21
0.4025
0
LINE
8
BLACK
6
CONTINUOUS
10
1.2475
20
0.4025
11
1.2475
21
0.3675
0
LINE
8
BLACK
6
CONTINUOUS
10
1.5275
20
0.3675
11
1.4725
21
0.3675
0
LINE
8
BLACK
6
CONTINUOUS
10
1.4725
20
0.3675
11
1.4725
21
0.4025
0
LINE
8
BLACK
6
CONTINUOUS
10
1.4725
20
0.4025
11
1.5275
21
0.4025
0
LINE
8
BLACK
6
CONTINUOUS
10
1.5275
20
0.4025
11
1.5275
21
0.3675
0
LINE
8
BLACK
6
CONTINUOUS
10
0.908767
20
0.471416
11
0.91196
21
0.469283
0
LINE
8
BLACK
6
CONTINUOUS
10
0.91196
20
0.469283
11
0.914093
21
0.466089
0
LINE
8
BLACK
6
CONTINUOUS
10
0.914093
20
0.466089
11
0.914843
21
0.462323
0
LINE
8
BLACK
6
CONTINUOUS
10
0.914843
20
0.462323
11
0.914843
21
0.377677
0
LINE
8
BLACK
6
CONTINUOUS
10
0.914843
20
0.377677
11
0.914093
21
0.373911
0
LINE
8
BLACK
6
CONTINUOUS
10
0.914093
20
0.373911
11
0.91196
21
0.370717
0
LINE
8
BLACK
6
CONTINUOUS
10
0.91196
20
0.370717
11
0.908767
21
0.368584
0
LINE
8
BLACK
6
CONTINUOUS
10
0.908767
20
0.368584
11
0.905
21
0.367835
0
LINE
8
BLACK
6
CONTINUOUS
10
0.905
20
0.367835
11
0.875472
21
0.367835
0
LINE
8
BLACK
6
CONTINUOUS
10
0.875472
20
0.367835
11
0.871706
21
0.368584
0
LINE
8
BLACK
6
CONTINUOUS
10
0.871706
20
0.368584
11
0.868513
21
0.370717
0
LINE
8
BLACK
6
CONTINUOUS
10
0.868513
20
0.370717
11
0.866379
21
0.373911
0
LINE
8
BLACK
6
CONTINUOUS
10
0.866379
20
0.373911
11
0.86563
21
0.377677
0
LINE
8
BLACK
6
CONTINUOUS
10
0.86563
20
0.377677
11
0.86563
21
0.462323
0
LINE
8
BLACK
6
CONTINUOUS
10
0.86563
20
0.462323
11
0.866379
21
0.466089
0
LINE
8
BLACK
6
CONTINUOUS
10
0.866379
20
0.466089
11
0.868513
21
0.469283
0
LINE
8
BLACK
6
CONTINUOUS
10
0.868513
20
0.469283
11
0.871706
21
0.471416
0
LINE
8
BLACK
6
CONTINUOUS
10
0.871706
20
0.471416
11
0.875472
21
0.472165
0
LINE
8
BLACK
6
CONTINUOUS
10
0.875472
20
0.472165
11
0.905
21
0.472165
0
LINE
8
BLACK
6
CONTINUOUS
10
0.905
20
0.472165
11
0.908767
21
0.471416
0
LINE
8
BLACK
6
CONTINUOUS
10
0.79853
20
0.471416
11
0.801724
21
0.469283
0
LINE
8
BLACK
6
CONTINUOUS
10
0.801724
20
0.469283
11
0.803857
21
0.466089
0
LINE
8
BLACK
6
CONTINUOUS
10
0.803857
20
0.466089
11
0.804606
21
0.462323
0
LINE
8
BLACK
6
CONTINUOUS
10
0.804606
20
0.462323
11
0.804606
21
0.377677
0
LINE
8
BLACK
6
CONTINUOUS
10
0.804606
20
0.377677
11
0.803857
21
0.373911
0
LINE
8
BLACK
6
CONTINUOUS
10
0.803857
20
0.373911
11
0.801724
21
0.370717
0
LINE
8
BLACK
6
CONTINUOUS
10
0.801724
20
0.370717
11
0.79853
21
0.368584
0
LINE
8
BLACK
6
CONTINUOUS
10
0.79853
20
0.368584
11
0.794764
21
0.367835
0
LINE
8
BLACK
6
CONTINUOUS
10
0.794764
20
0.367835
11
0.765236
21
0.367835
0
LINE
8
BLACK
6
CONTINUOUS
10
0.765236
20
0.367835
11
0.76147
21
0.368584
0
LINE
8
BLACK
6
CONTINUOUS
10
0.76147
20
0.368584
11
0.758276
21
0.370717
0
LINE
8
BLACK
6
CONTINUOUS
10
0.758276
20
0.370717
11
0.756143
21
0.373911
0
LINE
8
BLACK
6
CONTINUOUS
10
0.756143
20
0.373911
11
0.755394
21
0.377677
0
LINE
8
BLACK
6
CONTINUOUS
10
0.755394
20
0.377677
11
0.755394
21
0.462323
0
LINE
8
BLACK
6
CONTINUOUS
10
0.755394
20
0.462323
11
0.756143
21
0.466089
0
LINE
8
BLACK
6
CONTINUOUS
10
0.756143
20
0.466089
11
0.758276
21
0.469283
0
LINE
8
BLACK
6
CONTINUOUS
10
0.758276
20
0.469283
11
0.76147
21
0.471416
0
LINE
8
BLACK
6
CONTINUOUS
10
0.76147
20
0.471416
11
0.765236
21
0.472165
0
LINE
8
BLACK
6
CONTINUOUS
10
0.765236
20
0.472165
11
0.794764
21
0.472165
0
LINE
8
BLACK
6
CONTINUOUS
10
0.794764
20
0.472165
11
0.79853
21
0.471416
0
LINE
8
BLACK
6
CONTINUOUS
10
1.8075
20
0.4125
11
1.7725
21
0.4125
0
LINE
8
BLACK
6
CONTINUOUS
10
1.7725
20
0.4125
11
1.7725
21
0.4675
0
LINE
8
BLACK
6
CONTINUOUS
10
1.7725
20
0.4675
11
1.8075
21
0.4675
0
LINE
8
BLACK
6
CONTINUOUS
10
1.8075
20
0.4675
11
1.8075
21
0.4125
0
LINE
8
BLACK
6
CONTINUOUS
10
1.7325
20
0.4125
11
1.6975
21
0.4125
0
LINE
8
BLACK
6
CONTINUOUS
10
1.6975
20
0.4125
11
1.6975
21
0.4675
0
LINE
8
BLACK
6
CONTINUOUS
10
1.6975
20
0.4675
11
1.7325
21
0.4675
0
LINE
8
BLACK
6
CONTINUOUS
10
1.7325
20
0.4675
11
1.7325
21
0.4125
0
LINE
8
BLACK
6
CONTINUOUS
10
0.997992
20
0.439134
11
0.972402
21
0.439134
0
LINE
8
BLACK
6
CONTINUOUS
10
0.972402
20
0.439134
11
0.972402
21
0.480866
0
LINE
8
BLACK
6
CONTINUOUS
10
0.972402
20
0.480866
11
0.997992
21
0.480866
0
LINE
8
BLACK
6
CONTINUOUS
10
0.997992
20
0.480866
11
0.997992
21
0.439134
0
LINE
8
BLACK
6
CONTINUOUS
10
1.0728
20
0.439134
11
1.0472
21
0.439134
0
LINE
8
BLACK
6
CONTINUOUS
10
1.0472
20
0.439134
11
1.0472
21
0.480866
0
LINE
8
BLACK
6
CONTINUOUS
10
1.0472
20
0.480866
11
1.0728
21
0.480866
0
LINE
8
BLACK
6
CONTINUOUS
10
1.0728
20
0.480866
11
1.0728
21
0.439134
0
LINE
8
BLACK
6
CONTINUOUS
10
1.03539
20
0.439134
11
1.0098
21
0.439134
0
LINE
8
BLACK
6
CONTINUOUS
10
1.0098
20
0.439134
11
1.0098
21
0.480866
0
LINE
8
BLACK
6
CONTINUOUS
10
1.0098
20
0.480866
11
1.03539
21
0.480866
0
LINE
8
BLACK
6
CONTINUOUS
10
1.03539
20
0.480866
11
1.03539
21
0.439134
0
LINE
8
BLACK
6
CONTINUOUS
10
1.5275
20
0.4425
11
1.4725
21
0.4425
0
LINE
8
BLACK
6
CONTINUOUS
10
1.4725
20
0.4425
11
1.4725
21
0.4775
0
LINE
8
BLACK
6
CONTINUOUS
10
1.4725
20
0.4775
11
1.5275
21
0.4775
0
LINE
8
BLACK
6
CONTINUOUS
10
1.5275
20
0.4775
11
1.5275
21
0.4425
0
LINE
8
BLACK
6
CONTINUOUS
10
1.4275
20
0.4425
11
1.3725
21
0.4425
0
LINE
8
BLACK
6
CONTINUOUS
10
1.3725
20
0.4425
11
1.3725
21
0.4775
0
LINE
8
BLACK
6
CONTINUOUS
10
1.3725
20
0.4775
11
1.4275
21
0.4775
0
LINE
8
BLACK
6
CONTINUOUS
10
1.4275
20
0.4775
11
1.4275
21
0.4425
0
LINE
8
BLACK
6
CONTINUOUS
10
1.6275
20
0.4425
11
1.5725
21
0.4425
0
LINE
8
BLACK
6
CONTINUOUS
10
1.5725
20
0.4425
11
1.5725
21
0.4775
0
LINE
8
BLACK
6
CONTINUOUS
10
1.5725
20
0.4775
11
1.6275
21
0.4775
0
LINE
8
BLACK
6
CONTINUOUS
10
1.6275
20
0.4775
11
1.6275
21
0.4425
0
LINE
8
BLACK
6
CONTINUOUS
10
1.1675
20
0.4425
11
1.1125
21
0.4425
0
LINE
8
BLACK
6
CONTINUOUS
10
1.1125
20
0.4425
11
1.1125
21
0.4775
0
LINE
8
BLACK
6
CONTINUOUS
10
1.1125
20
0.4775
11
1.1675
21
0.4775
0
LINE
8
BLACK
6
CONTINUOUS
10
1.1675
20
0.4775
11
1.1675
21
0.4425
0
LINE
8
BLACK
6
CONTINUOUS
10
1.3275
20
0.4425
11
1.2725
21
0.4425
0
LINE
8
BLACK
6
CONTINUOUS
10
1.2725
20
0.4425
11
1.2725
21
0.4775
0
LINE
8
BLACK
6
CONTINUOUS
10
1.2725
20
0.4775
11
1.3275
21
0.4775
0
LINE
8
BLACK
6
CONTINUOUS
10
1.3275
20
0.4775
11
1.3275
21
0.4425
0
LINE
8
BLACK
6
CONTINUOUS
10
1.2475
20
0.4425
11
1.1925
21
0.4425
0
LINE
8
BLACK
6
CONTINUOUS
10
1.1925
20
0.4425
11
1.1925
21
0.4775
0
LINE
8
BLACK
6
CONTINUOUS
10
1.1925
20
0.4775
11
1.2475
21
0.4775
0
LINE
8
BLACK
6
CONTINUOUS
10
1.2475
20
0.4775
11
1.2475
21
0.4425
0
LINE
8
BLACK
6
CONTINUOUS
10
0.830945
20
0.513071
11
0.756142
21
0.513071
0
LINE
8
BLACK
6
CONTINUOUS
10
0.756142
20
0.513071
11
0.756142
21
0.646929
0
LINE
8
BLACK
6
CONTINUOUS
10
0.756142
20
0.646929
11
0.830945
21
0.646929
0
LINE
8
BLACK
6
CONTINUOUS
10
0.830945
20
0.646929
11
0.830945
21
0.513071
0
LINE
8
BLACK
6
CONTINUOUS
10
0.677402
20
0.513071
11
0.602598
21
0.513071
0
LINE
8
BLACK
6
CONTINUOUS
10
0.602598
20
0.513071
11
0.602598
21
0.646929
0
LINE
8
BLACK
6
CONTINUOUS
10
0.602598
20
0.646929
11
0.677402
21
0.646929
0
LINE
8
BLACK
6
CONTINUOUS
10
0.677402
20
0.646929
11
0.677402
21
0.513071
0
LINE
8
BLACK
6
CONTINUOUS
10
1.1675
20
0.5175
11
1.1125
21
0.5175
0
LINE
8
BLACK
6
CONTINUOUS
10
1.1125
20
0.5175
11
1.1125
21
0.5525
0
LINE
8
BLACK
6
CONTINUOUS
10
1.1125
20
0.5525
11
1.1675
21
0.5525
0
LINE
8
BLACK
6
CONTINUOUS
10
1.1675
20
0.5525
11
1.1675
21
0.5175
0
LINE
8
BLACK
6
CONTINUOUS
10
1.0728
20
0.525748
11
1.0472
21
0.525748
0
LINE
8
BLACK
6
CONTINUOUS
10
1.0472
20
0.525748
11
1.0472
21
0.56748
0
LINE
8
BLACK
6
CONTINUOUS
10
1.0472
20
0.56748
11
1.0728
21
0.56748
0
LINE
8
BLACK
6
CONTINUOUS
10
1.0728
20
0.56748
11
1.0728
21
0.525748
0
LINE
8
BLACK
6
CONTINUOUS
10
0.997992
20
0.525748
11
0.972402
21
0.525748
0
LINE
8
BLACK
6
CONTINUOUS
10
0.972402
20
0.525748
11
0.972402
21
0.56748
0
LINE
8
BLACK
6
CONTINUOUS
10
0.972402
20
0.56748
11
0.997992
21
0.56748
0
LINE
8
BLACK
6
CONTINUOUS
10
0.997992
20
0.56748
11
0.997992
21
0.525748
0
LINE
8
BLACK
6
CONTINUOUS
10
1.72142
20
0.558346
11
1.68992
21
0.558346
0
LINE
8
BLACK
6
CONTINUOUS
10
1.68992
20
0.558346
11
1.68992
21
0.629213
0
LINE
8
BLACK
6
CONTINUOUS
10
1.68992
20
0.629213
11
1.72142
21
0.629213
0
LINE
8
BLACK
6
CONTINUOUS
10
1.72142
20
0.629213
11
1.72142
21
0.558346
0
LINE
8
BLACK
6
CONTINUOUS
10
1.30016
20
0.558346
11
1.26866
21
0.558346
0
LINE
8
BLACK
6
CONTINUOUS
10
1.26866
20
0.558346
11
1.26866
21
0.629213
0
LINE
8
BLACK
6
CONTINUOUS
10
1.26866
20
0.629213
11
1.30016
21
0.629213
0
LINE
8
BLACK
6
CONTINUOUS
10
1.30016
20
0.629213
11
1.30016
21
0.558346
0
LINE
8
BLACK
6
CONTINUOUS
10
1.38677
20
0.558346
11
1.35528
21
0.558346
0
LINE
8
BLACK
6
CONTINUOUS
10
1.35528
20
0.558346
11
1.35528
21
0.629213
0
LINE
8
BLACK
6
CONTINUOUS
10
1.35528
20
0.629213
11
1.38677
21
0.629213
0
LINE
8
BLACK
6
CONTINUOUS
10
1.38677
20
0.629213
11
1.38677
21
0.558346
0
LINE
8
BLACK
6
CONTINUOUS
10
1.43008
20
0.558346
11
1.39858
21
0.558346
0
LINE
8
BLACK
6
CONTINUOUS
10
1.39858
20
0.558346
11
1.39858
21
0.629213
0
LINE
8
BLACK
6
CONTINUOUS
10
1.39858
20
0.629213
11
1.43008
21
0.629213
0
LINE
8
BLACK
6
CONTINUOUS
10
1.43008
20
0.629213
11
1.43008
21
0.558346
0
LINE
8
BLACK
6
CONTINUOUS
10
1.47339
20
0.558346
11
1.44189
21
0.558346
0
LINE
8
BLACK
6
CONTINUOUS
10
1.44189
20
0.558346
11
1.44189
21
0.629213
0
LINE
8
BLACK
6
CONTINUOUS
10
1.44189
20
0.629213
11
1.47339
21
0.629213
0
LINE
8
BLACK
6
CONTINUOUS
10
1.47339
20
0.629213
11
1.47339
21
0.558346
0
LINE
8
BLACK
6
CONTINUOUS
10
1.51669
20
0.558346
11
1.4852
21
0.558346
0
LINE
8
BLACK
6
CONTINUOUS
10
1.4852
20
0.558346
11
1.4852
21
0.629213
0
LINE
8
BLACK
6
CONTINUOUS
10
1.4852
20
0.629213
11
1.51669
21
0.629213
0
LINE
8
BLACK
6
CONTINUOUS
10
1.51669
20
0.629213
11
1.51669
21
0.558346
0
LINE
8
BLACK
6
CONTINUOUS
10
1.56
20
0.558346
11
1.5285
21
0.558346
0
LINE
8
BLACK
6
CONTINUOUS
10
1.5285
20
0.558346
11
1.5285
21
0.629213
0
LINE
8
BLACK
6
CONTINUOUS
10
1.5285
20
0.629213
11
1.56
21
0.629213
0
LINE
8
BLACK
6
CONTINUOUS
10
1.56
20
0.629213
11
1.56
21
0.558346
0
LINE
8
BLACK
6
CONTINUOUS
10
1.67811
20
0.558346
11
1.64661
21
0.558346
0
LINE
8
BLACK
6
CONTINUOUS
10
1.64661
20
0.558346
11
1.64661
21
0.629213
0
LINE
8
BLACK
6
CONTINUOUS
10
1.64661
20
0.629213
11
1.67811
21
0.629213
0
LINE
8
BLACK
6
CONTINUOUS
10
1.67811
20
0.629213
11
1.67811
21
0.558346
0
LINE
8
BLACK
6
CONTINUOUS
10
1.76472
20
0.558346
11
1.73323
21
0.558346
0
LINE
8
BLACK
6
CONTINUOUS
10
1.73323
20
0.558346
11
1.73323
21
0.629213
0
LINE
8
BLACK
6
CONTINUOUS
10
1.73323
20
0.629213
11
1.76472
21
0.629213
0
LINE
8
BLACK
6
CONTINUOUS
10
1.76472
20
0.629213
11
1.76472
21
0.558346
0
LINE
8
BLACK
6
CONTINUOUS
10
1.80803
20
0.558346
11
1.77654
21
0.558346
0
LINE
8
BLACK
6
CONTINUOUS
10
1.77654
20
0.558346
11
1.77654
21
0.629213
0
LINE
8
BLACK
6
CONTINUOUS
10
1.77654
20
0.629213
11
1.80803
21
0.629213
0
LINE
8
BLACK
6
CONTINUOUS
10
1.80803
20
0.629213
11
1.80803
21
0.558346
0
LINE
8
BLACK
6
CONTINUOUS
10
1.85134
20
0.558346
11
1.81984
21
0.558346
0
LINE
8
BLACK
6
CONTINUOUS
10
1.81984
20
0.558346
11
1.81984
21
0.629213
0
LINE
8
BLACK
6
CONTINUOUS
10
1.81984
20
0.629213
11
1.85134
21
0.629213
0
LINE
8
BLACK
6
CONTINUOUS
10
1.85134
20
0.629213
11
1.85134
21
0.558346
0
LINE
8
BLACK
6
CONTINUOUS
10
1.1675
20
0.5875
11
1.1125
21
0.5875
0
LINE
8
BLACK
6
CONTINUOUS
10
1.1125
20
0.5875
11
1.1125
21
0.6225
0
LINE
8
BLACK
6
CONTINUOUS
10
1.1125
20
0.6225
11
1.1675
21
0.6225
0
LINE
8
BLACK
6
CONTINUOUS
10
1.1675
20
0.6225
11
1.1675
21
0.5875
0
LINE
8
BLACK
6
CONTINUOUS
10
1.1675
20
0.6625
11
1.1125
21
0.6625
0
LINE
8
BLACK
6
CONTINUOUS
10
1.1125
20
0.6625
11
1.1125
21
0.6975
0
LINE
8
BLACK
6
CONTINUOUS
10
1.1125
20
0.6975
11
1.1675
21
0.6975
0
LINE
8
BLACK
6
CONTINUOUS
10
1.1675
20
0.6975
11
1.1675
21
0.6625
0
LINE
8
BLACK
6
CONTINUOUS
10
1.06299
20
0.72874
11
0.964567
21
0.72874
0
LINE
8
BLACK
6
CONTINUOUS
10
0.964567
20
0.72874
11
0.964567
21
0.799606
0
LINE
8
BLACK
6
CONTINUOUS
10
0.964567
20
0.799606
11
1.06299
21
0.799606
0
LINE
8
BLACK
6
CONTINUOUS
10
1.06299
20
0.799606
11
1.06299
21
0.72874
0
LINE
8
BLACK
6
CONTINUOUS
10
1.22047
20
0.72874
11
1.12205
21
0.72874
0
LINE
8
BLACK
6
CONTINUOUS
10
1.12205
20
0.72874
11
1.12205
21
0.799606
0
LINE
8
BLACK
6
CONTINUOUS
10
1.12205
20
0.799606
11
1.22047
21
0.799606
0
LINE
8
BLACK
6
CONTINUOUS
10
1.22047
20
0.799606
11
1.22047
21
0.72874
0
LINE
8
BLACK
6
CONTINUOUS
10
0.794252
20
0.789803
11
0.75252
21
0.789803
0
LINE
8
BLACK
6
CONTINUOUS
10
0.75252
20
0.789803
11
0.75252
21
0.815394
0
LINE
8
BLACK
6
CONTINUOUS
10
0.75252
20
0.815394
11
0.794252
21
0.815394
0
LINE
8
BLACK
6
CONTINUOUS
10
0.794252
20
0.815394
11
0.794252
21
0.789803
0
LINE
8
BLACK
6
CONTINUOUS
10
0.880866
20
0.789803
11
0.839134
21
0.789803
0
LINE
8
BLACK
6
CONTINUOUS
10
0.839134
20
0.789803
11
0.839134
21
0.815394
0
LINE
8
BLACK
6
CONTINUOUS
10
0.839134
20
0.815394
11
0.880866
21
0.815394
0
LINE
8
BLACK
6
CONTINUOUS
10
0.880866
20
0.815394
11
0.880866
21
0.789803
0
LINE
8
BLACK
6
CONTINUOUS
10
0.794252
20
0.827205
11
0.75252
21
0.827205
0
LINE
8
BLACK
6
CONTINUOUS
10
0.75252
20
0.827205
11
0.75252
21
0.852795
0
LINE
8
BLACK
6
CONTINUOUS
10
0.75252
20
0.852795
11
0.794252
21
0.852795
0
LINE
8
BLACK
6
CONTINUOUS
10
0.794252
20
0.852795
11
0.794252
21
0.827205
0
LINE
8
BLACK
6
CONTINUOUS
10
0.880866
20
0.827205
11
0.839134
21
0.827205
0
LINE
8
BLACK
6
CONTINUOUS
10
0.839134
20
0.827205
11
0.839134
21
0.852795
0
LINE
8
BLACK
6
CONTINUOUS
10
0.839134
20
0.852795
11
0.880866
21
0.852795
0
LINE
8
BLACK
6
CONTINUOUS
10
0.880866
20
0.852795
11
0.880866
21
0.827205
0
LINE
8
BLACK
6
CONTINUOUS
10
0.794252
20
0.864606
11
0.75252
21
0.864606
0
LINE
8
BLACK
6
CONTINUOUS
10
0.75252
20
0.864606
11
0.75252
21
0.890197
0
LINE
8
BLACK
6
CONTINUOUS
10
0.75252
20
0.890197
11
0.794252
21
0.890197
0
LINE
8
BLACK
6
CONTINUOUS
10
0.794252
20
0.890197
11
0.794252
21
0.864606
0
LINE
8
BLACK
6
CONTINUOUS
10
0.880866
20
0.864606
11
0.839134
21
0.864606
0
LINE
8
BLACK
6
CONTINUOUS
10
0.839134
20
0.864606
11
0.839134
21
0.890197
0
LINE
8
BLACK
6
CONTINUOUS
10
0.839134
20
0.890197
11
0.880866
21
0.890197
0
LINE
8
BLACK
6
CONTINUOUS
10
0.880866
20
0.890197
11
0.880866
21
0.864606
0
LINE
8
BLACK
6
CONTINUOUS
10
1.95153
20
0.975936
11
1.95342
21
0.974677
0
LINE
8
BLACK
6
CONTINUOUS
10
1.95342
20
0.974677
11
1.95468
21
0.972793
0
LINE
8
BLACK
6
CONTINUOUS
10
1.95468
20
0.972793
11
1.95512
21
0.970571
0
LINE
8
BLACK
6
CONTINUOUS
10
1.95512
20
0.970571
11
1.95512
21
0.958957
0
LINE
8
BLACK
6
CONTINUOUS
10
1.95512
20
0.958957
11
1.95468
21
0.956734
0
LINE
8
BLACK
6
CONTINUOUS
10
1.95468
20
0.956734
11
1.95342
21
0.95485
0
LINE
8
BLACK
6
CONTINUOUS
10
1.95342
20
0.95485
11
1.95153
21
0.953592
0
LINE
8
BLACK
6
CONTINUOUS
10
1.95153
20
0.953592
11
1.94931
21
0.95315
0
LINE
8
BLACK
6
CONTINUOUS
10
1.94931
20
0.95315
11
1.93573
21
0.95315
0
LINE
8
BLACK
6
CONTINUOUS
10
1.93573
20
0.95315
11
1.93351
21
0.953592
0
LINE
8
BLACK
6
CONTINUOUS
10
1.93351
20
0.953592
11
1.93162
21
0.95485
0
LINE
8
BLACK
6
CONTINUOUS
10
1.93162
20
0.95485
11
1.93036
21
0.956734
0
LINE
8
BLACK
6
CONTINUOUS
10
1.93036
20
0.956734
11
1.92992
21
0.958957
0
LINE
8
BLACK
6
CONTINUOUS
10
1.92992
20
0.958957
11
1.92992
21
0.970571
0
LINE
8
BLACK
6
CONTINUOUS
10
1.92992
20
0.970571
11
1.93036
21
0.972793
0
LINE
8
BLACK
6
CONTINUOUS
10
1.93036
20
0.972793
11
1.93162
21
0.974677
0
LINE
8
BLACK
6
CONTINUOUS
10
1.93162
20
0.974677
11
1.93351
21
0.975936
0
LINE
8
BLACK
6
CONTINUOUS
10
1.93351
20
0.975936
11
1.93573
21
0.976378
0
LINE
8
BLACK
6
CONTINUOUS
10
1.93573
20
0.976378
11
1.94931
21
0.976378
0
LINE
8
BLACK
6
CONTINUOUS
10
1.94931
20
0.976378
11
1.95153
21
0.975936
0
LINE
8
BLACK
6
CONTINUOUS
10
1.95153
20
1.01412
11
1.95342
21
1.01287
0
LINE
8
BLACK
6
CONTINUOUS
10
1.95342
20
1.01287
11
1.95468
21
1.01098
0
LINE
8
BLACK
6
CONTINUOUS
10
1.95468
20
1.01098
11
1.95512
21
1.00876
0
LINE
8
BLACK
6
CONTINUOUS
10
1.95512
20
1.00876
11
1.95512
21
0.997146
0
LINE
8
BLACK
6
CONTINUOUS
10
1.95512
20
0.997146
11
1.95468
21
0.994923
0
LINE
8
BLACK
6
CONTINUOUS
10
1.95468
20
0.994923
11
1.95342
21
0.993039
0
LINE
8
BLACK
6
CONTINUOUS
10
1.95342
20
0.993039
11
1.95153
21
0.991781
0
LINE
8
BLACK
6
CONTINUOUS
10
1.95153
20
0.991781
11
1.94931
21
0.991339
0
LINE
8
BLACK
6
CONTINUOUS
10
1.94931
20
0.991339
11
1.93573
21
0.991339
0
LINE
8
BLACK
6
CONTINUOUS
10
1.93573
20
0.991339
11
1.93351
21
0.991781
0
LINE
8
BLACK
6
CONTINUOUS
10
1.93351
20
0.991781
11
1.93162
21
0.993039
0
LINE
8
BLACK
6
CONTINUOUS
10
1.93162
20
0.993039
11
1.93036
21
0.994923
0
LINE
8
BLACK
6
CONTINUOUS
10
1.93036
20
0.994923
11
1.92992
21
0.997146
0
LINE
8
BLACK
6
CONTINUOUS
10
1.92992
20
0.997146
11
1.92992
21
1.00876
0
LINE
8
BLACK
6
CONTINUOUS
10
1.92992
20
1.00876
11
1.93036
21
1.01098
0
LINE
8
BLACK
6
CONTINUOUS
10
1.93036
20
1.01098
11
1.93162
21
1.01287
0
LINE
8
BLACK
6
CONTINUOUS
10
1.93162
20
1.01287
11
1.93351
21
1.01412
0
LINE
8
BLACK
6
CONTINUOUS
10
1.93351
20
1.01412
11
1.93573
21
1.01457
0
LINE
8
BLACK
6
CONTINUOUS
10
1.93573
20
1.01457
11
1.94931
21
1.01457
0
LINE
8
BLACK
6
CONTINUOUS
10
1.94931
20
1.01457
11
1.95153
21
1.01412
0
LINE
8
BLACK
6
CONTINUOUS
10
1.51669
20
1.03079
11
1.4852
21
1.03079
0
LINE
8
BLACK
6
CONTINUOUS
10
1.4852
20
1.03079
11
1.4852
21
1.10165
0
LINE
8
BLACK
6
CONTINUOUS
10
1.4852
20
1.10165
11
1.51669
21
1.10165
0
LINE
8
BLACK
6
CONTINUOUS
10
1.51669
20
1.10165
11
1.51669
21
1.03079
0
LINE
8
BLACK
6
CONTINUOUS
10
1.30016
20
1.03079
11
1.26866
21
1.03079
0
LINE
8
BLACK
6
CONTINUOUS
10
1.26866
20
1.03079
11
1.26866
21
1.10165
0
LINE
8
BLACK
6
CONTINUOUS
10
1.26866
20
1.10165
11
1.30016
21
1.10165
0
LINE
8
BLACK
6
CONTINUOUS
10
1.30016
20
1.10165
11
1.30016
21
1.03079
0
LINE
8
BLACK
6
CONTINUOUS
10
1.85134
20
1.03079
11
1.81984
21
1.03079
0
LINE
8
BLACK
6
CONTINUOUS
10
1.81984
20
1.03079
11
1.81984
21
1.10165
0
LINE
8
BLACK
6
CONTINUOUS
10
1.81984
20
1.10165
11
1.85134
21
1.10165
0
LINE
8
BLACK
6
CONTINUOUS
10
1.85134
20
1.10165
11
1.85134
21
1.03079
0
LINE
8
BLACK
6
CONTINUOUS
10
1.34346
20
1.03079
11
1.31197
21
1.03079
0
LINE
8
BLACK
6
CONTINUOUS
10
1.31197
20
1.03079
11
1.31197
21
1.10165
0
LINE
8
BLACK
6
CONTINUOUS
10
1.31197
20
1.10165
11
1.34346
21
1.10165
0
LINE
8
BLACK
6
CONTINUOUS
10
1.34346
20
1.10165
11
1.34346
21
1.03079
0
LINE
8
BLACK
6
CONTINUOUS
10
1.38677
20
1.03079
11
1.35528
21
1.03079
0
LINE
8
BLACK
6
CONTINUOUS
10
1.35528
20
1.03079
11
1.35528
21
1.10165
0
LINE
8
BLACK
6
CONTINUOUS
10
1.35528
20
1.10165
11
1.38677
21
1.10165
0
LINE
8
BLACK
6
CONTINUOUS
10
1.38677
20
1.10165
11
1.38677
21
1.03079
0
LINE
8
BLACK
6
CONTINUOUS
10
1.43008
20
1.03079
11
1.39858
21
1.03079
0
LINE
8
BLACK
6
CONTINUOUS
10
1.39858
20
1.03079
11
1.39858
21
1.10165
0
LINE
8
BLACK
6
CONTINUOUS
10
1.39858
20
1.10165
11
1.43008
21
1.10165
0
LINE
8
BLACK
6
CONTINUOUS
10
1.43008
20
1.10165
11
1.43008
21
1.03079
0
LINE
8
BLACK
6
CONTINUOUS
10
1.47339
20
1.03079
11
1.44189
21
1.03079
0
LINE
8
BLACK
6
CONTINUOUS
10
1.44189
20
1.03079
11
1.44189
21
1.10165
0
LINE
8
BLACK
6
CONTINUOUS
10
1.44189
20
1.10165
11
1.47339
21
1.10165
0
LINE
8
BLACK
6
CONTINUOUS
10
1.47339
20
1.10165
11
1.47339
21
1.03079
0
LINE
8
BLACK
6
CONTINUOUS
10
1.56
20
1.03079
11
1.5285
21
1.03079
0
LINE
8
BLACK
6
CONTINUOUS
10
1.5285
20
1.03079
11
1.5285
21
1.10165
0
LINE
8
BLACK
6
CONTINUOUS
10
1.5285
20
1.10165
11
1.56
21
1.10165
0
LINE
8
BLACK
6
CONTINUOUS
10
1.56
20
1.10165
11
1.56
21
1.03079
0
LINE
8
BLACK
6
CONTINUOUS
10
1.67811
20
1.03079
11
1.64661
21
1.03079
0
LINE
8
BLACK
6
CONTINUOUS
10
1.64661
20
1.03079
11
1.64661
21
1.10165
0
LINE
8
BLACK
6
CONTINUOUS
10
1.64661
20
1.10165
11
1.67811
21
1.10165
0
LINE
8
BLACK
6
CONTINUOUS
10
1.67811
20
1.10165
11
1.67811
21
1.03079
0
LINE
8
BLACK
6
CONTINUOUS
10
1.72142
20
1.03079
11
1.68992
21
1.03079
0
LINE
8
BLACK
6
CONTINUOUS
10
1.68992
20
1.03079
11
1.68992
21
1.10165
0
LINE
8
BLACK
6
CONTINUOUS
10
1.68992
20
1.10165
11
1.72142
21
1.10165
0
LINE
8
BLACK
6
CONTINUOUS
10
1.72142
20
1.10165
11
1.72142
21
1.03079
0
LINE
8
BLACK
6
CONTINUOUS
10
1.76472
20
1.03079
11
1.73323
21
1.03079
0
LINE
8
BLACK
6
CONTINUOUS
10
1.73323
20
1.03079
11
1.73323
21
1.10165
0
LINE
8
BLACK
6
CONTINUOUS
10
1.73323
20
1.10165
11
1.76472
21
1.10165
0
LINE
8
BLACK
6
CONTINUOUS
10
1.76472
20
1.10165
11
1.76472
21
1.03079
0
LINE
8
BLACK
6
CONTINUOUS
10
1.80803
20
1.03079
11
1.77654
21
1.03079
0
LINE
8
BLACK
6
CONTINUOUS
10
1.77654
20
1.03079
11
1.77654
21
1.10165
0
LINE
8
BLACK
6
CONTINUOUS
10
1.77654
20
1.10165
11
1.80803
21
1.10165
0
LINE
8
BLACK
6
CONTINUOUS
10
1.80803
20
1.10165
11
1.80803
21
1.03079
0
LINE
8
BLACK
6
CONTINUOUS
10
1.9525
20
1.1525
11
1.9175
21
1.1525
0
LINE
8
BLACK
6
CONTINUOUS
10
1.9175
20
1.1525
11
1.9175
21
1.2075
0
LINE
8
BLACK
6
CONTINUOUS
10
1.9175
20
1.2075
11
1.9525
21
1.2075
0
LINE
8
BLACK
6
CONTINUOUS
10
1.9525
20
1.2075
11
1.9525
21
1.1525
0
LINE
8
BLACK
6
CONTINUOUS
10
1.8775
20
1.1525
11
1.8425
21
1.1525
0
LINE
8
BLACK
6
CONTINUOUS
10
1.8425
20
1.1525
11
1.8425
21
1.2075
0
LINE
8
BLACK
6
CONTINUOUS
10
1.8425
20
1.2075
11
1.8775
21
1.2075
0
LINE
8
BLACK
6
CONTINUOUS
10
1.8775
20
1.2075
11
1.8775
21
1.1525
0
LINE
8
BLACK
6
CONTINUOUS
10
2.0175
20
1.1725
11
1.9825
21
1.1725
0
LINE
8
BLACK
6
CONTINUOUS
10
1.9825
20
1.1725
11
1.9825
21
1.2275
0
LINE
8
BLACK
6
CONTINUOUS
10
1.9825
20
1.2275
11
2.0175
21
1.2275
0
LINE
8
BLACK
6
CONTINUOUS
10
2.0175
20
1.2275
11
2.0175
21
1.1725
0
LINE
8
BLACK
6
CONTINUOUS
10
2.0925
20
1.1725
11
2.0575
21
1.1725
0
LINE
8
BLACK
6
CONTINUOUS
10
2.0575
20
1.1725
11
2.0575
21
1.2275
0
LINE
8
BLACK
6
CONTINUOUS
10
2.0575
20
1.2275
11
2.0925
21
1.2275
0
LINE
8
BLACK
6
CONTINUOUS
10
2.0925
20
1.2275
11
2.0925
21
1.1725
0
LINE
8
BLACK
6
CONTINUOUS
10
1.3975
20
1.1725
11
1.3625
21
1.1725
0
LINE
8
BLACK
6
CONTINUOUS
10
1.3625
20
1.1725
11
1.3625
21
1.2275
0
LINE
8
BLACK
6
CONTINUOUS
10
1.3625
20
1.2275
11
1.3975
21
1.2275
0
LINE
8
BLACK
6
CONTINUOUS
10
1.3975
20
1.2275
11
1.3975
21
1.1725
0
LINE
8
BLACK
6
CONTINUOUS
10
1.4725
20
1.1725
11
1.4375
21
1.1725
0
LINE
8
BLACK
6
CONTINUOUS
10
1.4375
20
1.1725
11
1.4375
21
1.2275
0
LINE
8
BLACK
6
CONTINUOUS
10
1.4375
20
1.2275
11
1.4725
21
1.2275
0
LINE
8
BLACK
6
CONTINUOUS
10
1.4725
20
1.2275
11
1.4725
21
1.1725
0
LINE
8
BLACK
6
CONTINUOUS
10
1.5875
20
1.1825
11
1.5325
21
1.1825
0
LINE
8
BLACK
6
CONTINUOUS
10
1.5325
20
1.1825
11
1.5325
21
1.2175
0
LINE
8
BLACK
6
CONTINUOUS
10
1.5325
20
1.2175
11
1.5875
21
1.2175
0
LINE
8
BLACK
6
CONTINUOUS
10
1.5875
20
1.2175
11
1.5875
21
1.1825
0
LINE
8
BLACK
6
CONTINUOUS
10
0.509528
20
1.21059
11
0.450472
21
1.21059
0
LINE
8
BLACK
6
CONTINUOUS
10
0.450472
20
1.21059
11
0.450472
21
1.25193
0
LINE
8
BLACK
6
CONTINUOUS
10
0.450472
20
1.25193
11
0.509528
21
1.25193
0
LINE
8
BLACK
6
CONTINUOUS
10
0.509528
20
1.25193
11
0.509528
21
1.21059
0
LINE
8
BLACK
6
CONTINUOUS
10
0.659528
20
1.21059
11
0.600472
21
1.21059
0
LINE
8
BLACK
6
CONTINUOUS
10
0.600472
20
1.21059
11
0.600472
21
1.25193
0
LINE
8
BLACK
6
CONTINUOUS
10
0.600472
20
1.25193
11
0.659528
21
1.25193
0
LINE
8
BLACK
6
CONTINUOUS
10
0.659528
20
1.25193
11
0.659528
21
1.21059
0
LINE
8
BLACK
6
CONTINUOUS
10
0.799528
20
1.21185
11
0.740472
21
1.21185
0
LINE
8
BLACK
6
CONTINUOUS
10
0.740472
20
1.21185
11
0.740472
21
1.25319
0
LINE
8
BLACK
6
CONTINUOUS
10
0.740472
20
1.25319
11
0.799528
21
1.25319
0
LINE
8
BLACK
6
CONTINUOUS
10
0.799528
20
1.25319
11
0.799528
21
1.21185
0
LINE
8
BLACK
6
CONTINUOUS
10
0.939528
20
1.21185
11
0.880472
21
1.21185
0
LINE
8
BLACK
6
CONTINUOUS
10
0.880472
20
1.21185
11
0.880472
21
1.25319
0
LINE
8
BLACK
6
CONTINUOUS
10
0.880472
20
1.25319
11
0.939528
21
1.25319
0
LINE
8
BLACK
6
CONTINUOUS
10
0.939528
20
1.25319
11
0.939528
21
1.21185
0
LINE
8
BLACK
6
CONTINUOUS
10
1.04482
20
1.21262
11
0.989823
21
1.21262
0
LINE
8
BLACK
6
CONTINUOUS
10
0.989823
20
1.21262
11
0.989823
21
1.24762
0
LINE
8
BLACK
6
CONTINUOUS
10
0.989823
20
1.24762
11
1.04482
21
1.24762
0
LINE
8
BLACK
6
CONTINUOUS
10
1.04482
20
1.24762
11
1.04482
21
1.21262
0
LINE
8
BLACK
6
CONTINUOUS
10
1.6875
20
1.2375
11
1.6325
21
1.2375
0
LINE
8
BLACK
6
CONTINUOUS
10
1.6325
20
1.2375
11
1.6325
21
1.2725
0
LINE
8
BLACK
6
CONTINUOUS
10
1.6325
20
1.2725
11
1.6875
21
1.2725
0
LINE
8
BLACK
6
CONTINUOUS
10
1.6875
20
1.2725
11
1.6875
21
1.2375
0
LINE
8
BLACK
6
CONTINUOUS
10
1.5875
20
1.2575
11
1.5325
21
1.2575
0
LINE
8
BLACK
6
CONTINUOUS
10
1.5325
20
1.2575
11
1.5325
21
1.2925
0
LINE
8
BLACK
6
CONTINUOUS
10
1.5325
20
1.2925
11
1.5875
21
1.2925
0
LINE
8
BLACK
6
CONTINUOUS
10
1.5875
20
1.2925
11
1.5875
21
1.2575
0
LINE
8
BLACK
6
CONTINUOUS
10
1.04482
20
1.28762
11
0.989823
21
1.28762
0
LINE
8
BLACK
6
CONTINUOUS
10
0.989823
20
1.28762
11
0.989823
21
1.32262
0
LINE
8
BLACK
6
CONTINUOUS
10
0.989823
20
1.32262
11
1.04482
21
1.32262
0
LINE
8
BLACK
6
CONTINUOUS
10
1.04482
20
1.32262
11
1.04482
21
1.28762
0
LINE
8
BLACK
6
CONTINUOUS
10
1.6875
20
1.3125
11
1.6325
21
1.3125
0
LINE
8
BLACK
6
CONTINUOUS
10
1.6325
20
1.3125
11
1.6325
21
1.3475
0
LINE
8
BLACK
6
CONTINUOUS
10
1.6325
20
1.3475
11
1.6875
21
1.3475
0
LINE
8
BLACK
6
CONTINUOUS
10
1.6875
20
1.3475
11
1.6875
21
1.3125
0
LINE
8
BLACK
6
CONTINUOUS
10
0.659528
20
1.36807
11
0.600472
21
1.36807
0
LINE
8
BLACK
6
CONTINUOUS
10
0.600472
20
1.36807
11
0.600472
21
1.40941
0
LINE
8
BLACK
6
CONTINUOUS
10
0.600472
20
1.40941
11
0.659528
21
1.40941
0
LINE
8
BLACK
6
CONTINUOUS
10
0.659528
20
1.40941
11
0.659528
21
1.36807
0
LINE
8
BLACK
6
CONTINUOUS
10
0.509528
20
1.36807
11
0.450472
21
1.36807
0
LINE
8
BLACK
6
CONTINUOUS
10
0.450472
20
1.36807
11
0.450472
21
1.40941
0
LINE
8
BLACK
6
CONTINUOUS
10
0.450472
20
1.40941
11
0.509528
21
1.40941
0
LINE
8
BLACK
6
CONTINUOUS
10
0.509528
20
1.40941
11
0.509528
21
1.36807
0
LINE
8
BLACK
6
CONTINUOUS
10
0.799528
20
1.36933
11
0.740472
21
1.36933
0
LINE
8
BLACK
6
CONTINUOUS
10
0.740472
20
1.36933
11
0.740472
21
1.41067
0
LINE
8
BLACK
6
CONTINUOUS
10
0.740472
20
1.41067
11
0.799528
21
1.41067
0
LINE
8
BLACK
6
CONTINUOUS
10
0.799528
20
1.41067
11
0.799528
21
1.36933
0
LINE
8
BLACK
6
CONTINUOUS
10
0.939528
20
1.36933
11
0.880472
21
1.36933
0
LINE
8
BLACK
6
CONTINUOUS
10
0.880472
20
1.36933
11
0.880472
21
1.41067
0
LINE
8
BLACK
6
CONTINUOUS
10
0.880472
20
1.41067
11
0.939528
21
1.41067
0
LINE
8
BLACK
6
CONTINUOUS
10
0.939528
20
1.41067
11
0.939528
21
1.36933
0
LINE
8
BLACK
6
CONTINUOUS
10
1.6875
20
1.3825
11
1.6325
21
1.3825
0
LINE
8
BLACK
6
CONTINUOUS
10
1.6325
20
1.3825
11
1.6325
21
1.4175
0
LINE
8
BLACK
6
CONTINUOUS
10
1.6325
20
1.4175
11
1.6875
21
1.4175
0
LINE
8
BLACK
6
CONTINUOUS
10
1.6875
20
1.4175
11
1.6875
21
1.3825
0
LINE
8
BLACK
6
CONTINUOUS
10
0.6575
20
1.435
11
0.6025
21
1.435
0
LINE
8
BLACK
6
CONTINUOUS
10
0.6025
20
1.435
11
0.6025
21
1.47
0
LINE
8
BLACK
6
CONTINUOUS
10
0.6025
20
1.47
11
0.6575
21
1.47
0
LINE
8
BLACK
6
CONTINUOUS
10
0.6575
20
1.47
11
0.6575
21
1.435
0
LINE
8
BLACK
6
CONTINUOUS
10
0.7975
20
1.4375
11
0.7425
21
1.4375
0
LINE
8
BLACK
6
CONTINUOUS
10
0.7425
20
1.4375
11
0.7425
21
1.4725
0
LINE
8
BLACK
6
CONTINUOUS
10
0.7425
20
1.4725
11
0.7975
21
1.4725
0
LINE
8
BLACK
6
CONTINUOUS
10
0.7975
20
1.4725
11
0.7975
21
1.4375
0
LINE
8
BLACK
6
CONTINUOUS
10
0.5075
20
1.4375
11
0.4525
21
1.4375
0
LINE
8
BLACK
6
CONTINUOUS
10
0.4525
20
1.4375
11
0.4525
21
1.4725
0
LINE
8
BLACK
6
CONTINUOUS
10
0.4525
20
1.4725
11
0.5075
21
1.4725
0
LINE
8
BLACK
6
CONTINUOUS
10
0.5075
20
1.4725
11
0.5075
21
1.4375
0
LINE
8
BLACK
6
CONTINUOUS
10
0.936949
20
1.43919
11
0.881949
21
1.43919
0
LINE
8
BLACK
6
CONTINUOUS
10
0.881949
20
1.43919
11
0.881949
21
1.47419
0
LINE
8
BLACK
6
CONTINUOUS
10
0.881949
20
1.47419
11
0.936949
21
1.47419
0
LINE
8
BLACK
6
CONTINUOUS
10
0.936949
20
1.47419
11
0.936949
21
1.43919
0
LINE
8
BLACK
6
CONTINUOUS
10
1.08209
20
1.44185
11
1.04665
21
1.44185
0
LINE
8
BLACK
6
CONTINUOUS
10
1.04665
20
1.44185
11
1.04665
21
1.47335
0
LINE
8
BLACK
6
CONTINUOUS
10
1.04665
20
1.47335
11
1.08209
21
1.47335
0
LINE
8
BLACK
6
CONTINUOUS
10
1.08209
20
1.47335
11
1.08209
21
1.44185
0
LINE
8
BLACK
6
CONTINUOUS
10
1.6875
20
1.4575
11
1.6325
21
1.4575
0
LINE
8
BLACK
6
CONTINUOUS
10
1.6325
20
1.4575
11
1.6325
21
1.4925
0
LINE
8
BLACK
6
CONTINUOUS
10
1.6325
20
1.4925
11
1.6875
21
1.4925
0
LINE
8
BLACK
6
CONTINUOUS
10
1.6875
20
1.4925
11
1.6875
21
1.4575
0
LINE
8
BLACK
6
CONTINUOUS
10
1.00335
20
1.47925
11
0.967913
21
1.47925
0
LINE
8
BLACK
6
CONTINUOUS
10
0.967913
20
1.47925
11
0.967913
21
1.51075
0
LINE
8
BLACK
6
CONTINUOUS
10
0.967913
20
1.51075
11
1.00335
21
1.51075
0
LINE
8
BLACK
6
CONTINUOUS
10
1.00335
20
1.51075
11
1.00335
21
1.47925
0
LINE
8
BLACK
6
CONTINUOUS
10
0.6575
20
1.51
11
0.6025
21
1.51
0
LINE
8
BLACK
6
CONTINUOUS
10
0.6025
20
1.51
11
0.6025
21
1.545
0
LINE
8
BLACK
6
CONTINUOUS
10
0.6025
20
1.545
11
0.6575
21
1.545
0
LINE
8
BLACK
6
CONTINUOUS
10
0.6575
20
1.545
11
0.6575
21
1.51
0
LINE
8
BLACK
6
CONTINUOUS
10
0.7975
20
1.5125
11
0.7425
21
1.5125
0
LINE
8
BLACK
6
CONTINUOUS
10
0.7425
20
1.5125
11
0.7425
21
1.5475
0
LINE
8
BLACK
6
CONTINUOUS
10
0.7425
20
1.5475
11
0.7975
21
1.5475
0
LINE
8
BLACK
6
CONTINUOUS
10
0.7975
20
1.5475
11
0.7975
21
1.5125
0
LINE
8
BLACK
6
CONTINUOUS
10
0.5075
20
1.5125
11
0.4525
21
1.5125
0
LINE
8
BLACK
6
CONTINUOUS
10
0.4525
20
1.5125
11
0.4525
21
1.5475
0
LINE
8
BLACK
6
CONTINUOUS
10
0.4525
20
1.5475
11
0.5075
21
1.5475
0
LINE
8
BLACK
6
CONTINUOUS
10
0.5075
20
1.5475
11
0.5075
21
1.5125
0
LINE
8
BLACK
6
CONTINUOUS
10
0.936949
20
1.51419
11
0.881949
21
1.51419
0
LINE
8
BLACK
6
CONTINUOUS
10
0.881949
20
1.51419
11
0.881949
21
1.54919
0
LINE
8
BLACK
6
CONTINUOUS
10
0.881949
20
1.54919
11
0.936949
21
1.54919
0
LINE
8
BLACK
6
CONTINUOUS
10
0.936949
20
1.54919
11
0.936949
21
1.51419
0
LINE
8
BLACK
6
CONTINUOUS
10
1.08209
20
1.51665
11
1.04665
21
1.51665
0
LINE
8
BLACK
6
CONTINUOUS
10
1.04665
20
1.51665
11
1.04665
21
1.54815
0
LINE
8
BLACK
6
CONTINUOUS
10
1.04665
20
1.54815
11
1.08209
21
1.54815
0
LINE
8
BLACK
6
CONTINUOUS
10
1.08209
20
1.54815
11
1.08209
21
1.51665
  0
ENDSEC
  0
EOF
