  0
SECTION
  2
HEADER
  9
$ANGBASE
  50
0.0
  9
$ANGDIR
  70
1
  9
$MEASUREMENT
  70
0
  0
ENDSEC
  0
SECTION
  2
TABLES
  0
TABLE
  2
LTYPE
  70
4
  0
LTYPE
  5
40F
  2
CONTINUOUS
  70
0
  3
Solid line
  72
65
  73
0
  40
0.0
  0
LTYPE
  5
410
  2
DASHDOT
 70
0
  3
Dash Dot ____ _ ____ _
 72
65
 73
4
 40
2.0
 49
1.25
 49
-0.25
 49
0.25
 49
-0.25
  0
LTYPE
  5
411
  2
DASHED
 70
0
  3
Dashed __ __ __ __ __
 72
65
 73
2
 40
0.75
 49
0.5
 49
-0.25
  0
LTYPE
  5
43B
  2
DOTTED
 70
0
  3
Dotted .  .  .  .
 72
65
 73
2
 40
0.2
 49
0.0
 49
-0.2
  0
ENDTAB
  0
TABLE
  2
STYLE
  70
4
  0
STYLE
  2
KICAD
  70
0
  40
0
  41
1
  42
1
  50
0
  71
0
  3
isocp.shx
  0
STYLE
  2
KICADB
  70
0
  40
0
  41
1
  42
1
  50
0
  71
0
  3
isocp.shx
  0
STYLE
  2
KICADI
  70
0
  40
0
  41
1
  42
1
  50
15
  71
0
  3
isocp.shx
  0
STYLE
  2
KICADBI
  70
0
  40
0
  41
1
  42
1
  50
15
  71
0
  3
isocp.shx
  0
ENDTAB
  0
TABLE
  2
LAYER
  70
1
  0
LAYER
  2
BLACK
  70
0
  62
7
  6
CONTINUOUS
  0
ENDTAB
  0
ENDSEC
  0
SECTION
  2
ENTITIES
0
LINE
8
BLACK
6
CONTINUOUS
10
0.214917
20
0.325098
11
0.228769
21
0.322656
0
LINE
8
BLACK
6
CONTINUOUS
10
0.228769
20
0.322656
11
0.242262
21
0.318684
0
LINE
8
BLACK
6
CONTINUOUS
10
0.242262
20
0.318684
11
0.255228
21
0.313234
0
LINE
8
BLACK
6
CONTINUOUS
10
0.255228
20
0.313234
11
0.267506
21
0.306372
0
LINE
8
BLACK
6
CONTINUOUS
10
0.267506
20
0.306372
11
0.278942
21
0.298184
0
LINE
8
BLACK
6
CONTINUOUS
10
0.278942
20
0.298184
11
0.289395
21
0.288773
0
LINE
8
BLACK
6
CONTINUOUS
10
0.289395
20
0.288773
11
0.298733
21
0.278255
0
LINE
8
BLACK
6
CONTINUOUS
10
0.298733
20
0.278255
11
0.306841
21
0.266761
0
LINE
8
BLACK
6
CONTINUOUS
10
0.306841
20
0.266761
11
0.313617
21
0.254436
0
LINE
8
BLACK
6
CONTINUOUS
10
0.313617
20
0.254436
11
0.318977
21
0.241432
0
LINE
8
BLACK
6
CONTINUOUS
10
0.318977
20
0.241432
11
0.322853
21
0.227912
0
LINE
8
BLACK
6
CONTINUOUS
10
0.322853
20
0.227912
11
0.325199
21
0.214043
0
LINE
8
BLACK
6
CONTINUOUS
10
0.325199
20
0.214043
11
0.325984
21
0.2
0
LINE
8
BLACK
6
CONTINUOUS
10
0.325984
20
0.2
11
0.325935
21
0.196482
0
LINE
8
BLACK
6
CONTINUOUS
10
0.325935
20
0.196482
11
0.324758
21
0.182466
0
LINE
8
BLACK
6
CONTINUOUS
10
0.324758
20
0.182466
11
0.322026
21
0.168669
0
LINE
8
BLACK
6
CONTINUOUS
10
0.322026
20
0.168669
11
0.317773
21
0.155262
0
LINE
8
BLACK
6
CONTINUOUS
10
0.317773
20
0.155262
11
0.312052
21
0.142413
0
LINE
8
BLACK
6
CONTINUOUS
10
0.312052
20
0.142413
11
0.304935
21
0.130281
0
LINE
8
BLACK
6
CONTINUOUS
10
0.304935
20
0.130281
11
0.29651
21
0.119019
0
LINE
8
BLACK
6
CONTINUOUS
10
0.29651
20
0.119019
11
0.286881
21
0.108766
0
LINE
8
BLACK
6
CONTINUOUS
10
0.286881
20
0.108766
11
0.27617
21
0.0996498
0
LINE
8
BLACK
6
CONTINUOUS
10
0.27617
20
0.0996498
11
0.264509
21
0.0917846
0
LINE
8
BLACK
6
CONTINUOUS
10
0.264509
20
0.0917846
11
0.252045
21
0.0852682
0
LINE
8
BLACK
6
CONTINUOUS
10
0.252045
20
0.0852682
11
0.238931
21
0.0801819
0
LINE
8
BLACK
6
CONTINUOUS
10
0.238931
20
0.0801819
11
0.225333
21
0.0765889
0
LINE
8
BLACK
6
CONTINUOUS
10
0.225333
20
0.0765889
11
0.211418
21
0.0745343
0
LINE
8
BLACK
6
CONTINUOUS
10
0.211418
20
0.0745343
11
0.197362
21
0.0740434
0
LINE
8
BLACK
6
CONTINUOUS
10
0.197362
20
0.0740434
11
0.183338
21
0.0751224
0
LINE
8
BLACK
6
CONTINUOUS
10
0.183338
20
0.0751224
11
0.169522
21
0.077758
0
LINE
8
BLACK
6
CONTINUOUS
10
0.169522
20
0.077758
11
0.156085
21
0.0819172
0
LINE
8
BLACK
6
CONTINUOUS
10
0.156085
20
0.0819172
11
0.143197
21
0.0875482
0
LINE
8
BLACK
6
CONTINUOUS
10
0.143197
20
0.0875482
11
0.131016
21
0.0945809
0
LINE
8
BLACK
6
CONTINUOUS
10
0.131016
20
0.0945809
11
0.119695
21
0.102927
0
LINE
8
BLACK
6
CONTINUOUS
10
0.119695
20
0.102927
11
0.109375
21
0.112484
0
LINE
8
BLACK
6
CONTINUOUS
10
0.109375
20
0.112484
11
0.100184
21
0.123131
0
LINE
8
BLACK
6
CONTINUOUS
10
0.100184
20
0.123131
11
0.0922376
21
0.134737
0
LINE
8
BLACK
6
CONTINUOUS
10
0.0922376
20
0.134737
11
0.0856343
21
0.147156
0
LINE
8
BLACK
6
CONTINUOUS
10
0.0856343
20
0.147156
11
0.0804566
21
0.160233
0
LINE
8
BLACK
6
CONTINUOUS
10
0.0804566
20
0.160233
11
0.0767688
21
0.173806
0
LINE
8
BLACK
6
CONTINUOUS
10
0.0767688
20
0.173806
11
0.074617
21
0.187706
0
LINE
8
BLACK
6
CONTINUOUS
10
0.074617
20
0.187706
11
0.074028
21
0.201759
0
LINE
8
BLACK
6
CONTINUOUS
10
0.074028
20
0.201759
11
0.0750092
21
0.21579
0
LINE
8
BLACK
6
CONTINUOUS
10
0.0750092
20
0.21579
11
0.0775482
21
0.229624
0
LINE
8
BLACK
6
CONTINUOUS
10
0.0775482
20
0.229624
11
0.0816135
21
0.243089
0
LINE
8
BLACK
6
CONTINUOUS
10
0.0816135
20
0.243089
11
0.0871544
21
0.256017
0
LINE
8
BLACK
6
CONTINUOUS
10
0.0871544
20
0.256017
11
0.0941019
21
0.268247
0
LINE
8
BLACK
6
CONTINUOUS
10
0.0941019
20
0.268247
11
0.102369
21
0.279626
0
LINE
8
BLACK
6
CONTINUOUS
10
0.102369
20
0.279626
11
0.111853
21
0.290012
0
LINE
8
BLACK
6
CONTINUOUS
10
0.111853
20
0.290012
11
0.122436
21
0.299277
0
LINE
8
BLACK
6
CONTINUOUS
10
0.122436
20
0.299277
11
0.133986
21
0.307304
0
LINE
8
BLACK
6
CONTINUOUS
10
0.133986
20
0.307304
11
0.146359
21
0.313994
0
LINE
8
BLACK
6
CONTINUOUS
10
0.146359
20
0.313994
11
0.1594
21
0.319263
0
LINE
8
BLACK
6
CONTINUOUS
10
0.1594
20
0.319263
11
0.172947
21
0.323045
0
LINE
8
BLACK
6
CONTINUOUS
10
0.172947
20
0.323045
11
0.186831
21
0.325294
0
LINE
8
BLACK
6
CONTINUOUS
10
0.186831
20
0.325294
11
0.20088
21
0.325981
0
LINE
8
BLACK
6
CONTINUOUS
10
0.20088
20
0.325981
11
0.214917
21
0.325098
0
LINE
8
BLACK
6
CONTINUOUS
10
2.21492
20
0.325098
11
2.22877
21
0.322656
0
LINE
8
BLACK
6
CONTINUOUS
10
2.22877
20
0.322656
11
2.24226
21
0.318684
0
LINE
8
BLACK
6
CONTINUOUS
10
2.24226
20
0.318684
11
2.25523
21
0.313234
0
LINE
8
BLACK
6
CONTINUOUS
10
2.25523
20
0.313234
11
2.26751
21
0.306372
0
LINE
8
BLACK
6
CONTINUOUS
10
2.26751
20
0.306372
11
2.27894
21
0.298184
0
LINE
8
BLACK
6
CONTINUOUS
10
2.27894
20
0.298184
11
2.28939
21
0.288773
0
LINE
8
BLACK
6
CONTINUOUS
10
2.28939
20
0.288773
11
2.29873
21
0.278255
0
LINE
8
BLACK
6
CONTINUOUS
10
2.29873
20
0.278255
11
2.30684
21
0.266761
0
LINE
8
BLACK
6
CONTINUOUS
10
2.30684
20
0.266761
11
2.31362
21
0.254436
0
LINE
8
BLACK
6
CONTINUOUS
10
2.31362
20
0.254436
11
2.31898
21
0.241432
0
LINE
8
BLACK
6
CONTINUOUS
10
2.31898
20
0.241432
11
2.32285
21
0.227912
0
LINE
8
BLACK
6
CONTINUOUS
10
2.32285
20
0.227912
11
2.3252
21
0.214043
0
LINE
8
BLACK
6
CONTINUOUS
10
2.3252
20
0.214043
11
2.32598
21
0.2
0
LINE
8
BLACK
6
CONTINUOUS
10
2.32598
20
0.2
11
2.32594
21
0.196482
0
LINE
8
BLACK
6
CONTINUOUS
10
2.32594
20
0.196482
11
2.32476
21
0.182466
0
LINE
8
BLACK
6
CONTINUOUS
10
2.32476
20
0.182466
11
2.32203
21
0.168669
0
LINE
8
BLACK
6
CONTINUOUS
10
2.32203
20
0.168669
11
2.31777
21
0.155262
0
LINE
8
BLACK
6
CONTINUOUS
10
2.31777
20
0.155262
11
2.31205
21
0.142413
0
LINE
8
BLACK
6
CONTINUOUS
10
2.31205
20
0.142413
11
2.30493
21
0.130281
0
LINE
8
BLACK
6
CONTINUOUS
10
2.30493
20
0.130281
11
2.29651
21
0.119019
0
LINE
8
BLACK
6
CONTINUOUS
10
2.29651
20
0.119019
11
2.28688
21
0.108766
0
LINE
8
BLACK
6
CONTINUOUS
10
2.28688
20
0.108766
11
2.27617
21
0.0996498
0
LINE
8
BLACK
6
CONTINUOUS
10
2.27617
20
0.0996498
11
2.26451
21
0.0917846
0
LINE
8
BLACK
6
CONTINUOUS
10
2.26451
20
0.0917846
11
2.25204
21
0.0852682
0
LINE
8
BLACK
6
CONTINUOUS
10
2.25204
20
0.0852682
11
2.23893
21
0.0801819
0
LINE
8
BLACK
6
CONTINUOUS
10
2.23893
20
0.0801819
11
2.22533
21
0.0765889
0
LINE
8
BLACK
6
CONTINUOUS
10
2.22533
20
0.0765889
11
2.21142
21
0.0745343
0
LINE
8
BLACK
6
CONTINUOUS
10
2.21142
20
0.0745343
11
2.19736
21
0.0740434
0
LINE
8
BLACK
6
CONTINUOUS
10
2.19736
20
0.0740434
11
2.18334
21
0.0751224
0
LINE
8
BLACK
6
CONTINUOUS
10
2.18334
20
0.0751224
11
2.16952
21
0.077758
0
LINE
8
BLACK
6
CONTINUOUS
10
2.16952
20
0.077758
11
2.15609
21
0.0819172
0
LINE
8
BLACK
6
CONTINUOUS
10
2.15609
20
0.0819172
11
2.1432
21
0.0875482
0
LINE
8
BLACK
6
CONTINUOUS
10
2.1432
20
0.0875482
11
2.13102
21
0.0945809
0
LINE
8
BLACK
6
CONTINUOUS
10
2.13102
20
0.0945809
11
2.11969
21
0.102927
0
LINE
8
BLACK
6
CONTINUOUS
10
2.11969
20
0.102927
11
2.10937
21
0.112484
0
LINE
8
BLACK
6
CONTINUOUS
10
2.10937
20
0.112484
11
2.10018
21
0.123131
0
LINE
8
BLACK
6
CONTINUOUS
10
2.10018
20
0.123131
11
2.09224
21
0.134737
0
LINE
8
BLACK
6
CONTINUOUS
10
2.09224
20
0.134737
11
2.08563
21
0.147156
0
LINE
8
BLACK
6
CONTINUOUS
10
2.08563
20
0.147156
11
2.08046
21
0.160233
0
LINE
8
BLACK
6
CONTINUOUS
10
2.08046
20
0.160233
11
2.07677
21
0.173806
0
LINE
8
BLACK
6
CONTINUOUS
10
2.07677
20
0.173806
11
2.07462
21
0.187706
0
LINE
8
BLACK
6
CONTINUOUS
10
2.07462
20
0.187706
11
2.07403
21
0.201759
0
LINE
8
BLACK
6
CONTINUOUS
10
2.07403
20
0.201759
11
2.07501
21
0.21579
0
LINE
8
BLACK
6
CONTINUOUS
10
2.07501
20
0.21579
11
2.07755
21
0.229624
0
LINE
8
BLACK
6
CONTINUOUS
10
2.07755
20
0.229624
11
2.08161
21
0.243089
0
LINE
8
BLACK
6
CONTINUOUS
10
2.08161
20
0.243089
11
2.08715
21
0.256017
0
LINE
8
BLACK
6
CONTINUOUS
10
2.08715
20
0.256017
11
2.0941
21
0.268247
0
LINE
8
BLACK
6
CONTINUOUS
10
2.0941
20
0.268247
11
2.10237
21
0.279626
0
LINE
8
BLACK
6
CONTINUOUS
10
2.10237
20
0.279626
11
2.11185
21
0.290012
0
LINE
8
BLACK
6
CONTINUOUS
10
2.11185
20
0.290012
11
2.12244
21
0.299277
0
LINE
8
BLACK
6
CONTINUOUS
10
2.12244
20
0.299277
11
2.13399
21
0.307304
0
LINE
8
BLACK
6
CONTINUOUS
10
2.13399
20
0.307304
11
2.14636
21
0.313994
0
LINE
8
BLACK
6
CONTINUOUS
10
2.14636
20
0.313994
11
2.1594
21
0.319263
0
LINE
8
BLACK
6
CONTINUOUS
10
2.1594
20
0.319263
11
2.17295
21
0.323045
0
LINE
8
BLACK
6
CONTINUOUS
10
2.17295
20
0.323045
11
2.18683
21
0.325294
0
LINE
8
BLACK
6
CONTINUOUS
10
2.18683
20
0.325294
11
2.20088
21
0.325981
0
LINE
8
BLACK
6
CONTINUOUS
10
2.20088
20
0.325981
11
2.21492
21
0.325098
0
LINE
8
BLACK
6
CONTINUOUS
10
1.99301
20
0.187275
11
1.99557
21
0.185568
0
LINE
8
BLACK
6
CONTINUOUS
10
1.99557
20
0.185568
11
1.99727
21
0.183013
0
LINE
8
BLACK
6
CONTINUOUS
10
1.99727
20
0.183013
11
1.99787
21
0.18
0
LINE
8
BLACK
6
CONTINUOUS
10
1.99787
20
0.18
11
1.99787
21
0.12
0
LINE
8
BLACK
6
CONTINUOUS
10
1.99787
20
0.12
11
1.99727
21
0.116987
0
LINE
8
BLACK
6
CONTINUOUS
10
1.99727
20
0.116987
11
1.99557
21
0.114432
0
LINE
8
BLACK
6
CONTINUOUS
10
1.99557
20
0.114432
11
1.99301
21
0.112725
0
LINE
8
BLACK
6
CONTINUOUS
10
1.99301
20
0.112725
11
1.99
21
0.112126
0
LINE
8
BLACK
6
CONTINUOUS
10
1.99
20
0.112126
11
1.93
21
0.112126
0
LINE
8
BLACK
6
CONTINUOUS
10
1.93
20
0.112126
11
1.92699
21
0.112725
0
LINE
8
BLACK
6
CONTINUOUS
10
1.92699
20
0.112725
11
1.92443
21
0.114432
0
LINE
8
BLACK
6
CONTINUOUS
10
1.92443
20
0.114432
11
1.92273
21
0.116987
0
LINE
8
BLACK
6
CONTINUOUS
10
1.92273
20
0.116987
11
1.92213
21
0.12
0
LINE
8
BLACK
6
CONTINUOUS
10
1.92213
20
0.12
11
1.92213
21
0.18
0
LINE
8
BLACK
6
CONTINUOUS
10
1.92213
20
0.18
11
1.92273
21
0.183013
0
LINE
8
BLACK
6
CONTINUOUS
10
1.92273
20
0.183013
11
1.92443
21
0.185568
0
LINE
8
BLACK
6
CONTINUOUS
10
1.92443
20
0.185568
11
1.92699
21
0.187275
0
LINE
8
BLACK
6
CONTINUOUS
10
1.92699
20
0.187275
11
1.93
21
0.187874
0
LINE
8
BLACK
6
CONTINUOUS
10
1.93
20
0.187874
11
1.99
21
0.187874
0
LINE
8
BLACK
6
CONTINUOUS
10
1.99
20
0.187874
11
1.99301
21
0.187275
0
LINE
8
BLACK
6
CONTINUOUS
10
1.69301
20
0.187275
11
1.69557
21
0.185568
0
LINE
8
BLACK
6
CONTINUOUS
10
1.69557
20
0.185568
11
1.69727
21
0.183013
0
LINE
8
BLACK
6
CONTINUOUS
10
1.69727
20
0.183013
11
1.69787
21
0.18
0
LINE
8
BLACK
6
CONTINUOUS
10
1.69787
20
0.18
11
1.69787
21
0.12
0
LINE
8
BLACK
6
CONTINUOUS
10
1.69787
20
0.12
11
1.69727
21
0.116987
0
LINE
8
BLACK
6
CONTINUOUS
10
1.69727
20
0.116987
11
1.69557
21
0.114432
0
LINE
8
BLACK
6
CONTINUOUS
10
1.69557
20
0.114432
11
1.69301
21
0.112725
0
LINE
8
BLACK
6
CONTINUOUS
10
1.69301
20
0.112725
11
1.69
21
0.112126
0
LINE
8
BLACK
6
CONTINUOUS
10
1.69
20
0.112126
11
1.63
21
0.112126
0
LINE
8
BLACK
6
CONTINUOUS
10
1.63
20
0.112126
11
1.62699
21
0.112725
0
LINE
8
BLACK
6
CONTINUOUS
10
1.62699
20
0.112725
11
1.62443
21
0.114432
0
LINE
8
BLACK
6
CONTINUOUS
10
1.62443
20
0.114432
11
1.62273
21
0.116987
0
LINE
8
BLACK
6
CONTINUOUS
10
1.62273
20
0.116987
11
1.62213
21
0.12
0
LINE
8
BLACK
6
CONTINUOUS
10
1.62213
20
0.12
11
1.62213
21
0.18
0
LINE
8
BLACK
6
CONTINUOUS
10
1.62213
20
0.18
11
1.62273
21
0.183013
0
LINE
8
BLACK
6
CONTINUOUS
10
1.62273
20
0.183013
11
1.62443
21
0.185568
0
LINE
8
BLACK
6
CONTINUOUS
10
1.62443
20
0.185568
11
1.62699
21
0.187275
0
LINE
8
BLACK
6
CONTINUOUS
10
1.62699
20
0.187275
11
1.63
21
0.187874
0
LINE
8
BLACK
6
CONTINUOUS
10
1.63
20
0.187874
11
1.69
21
0.187874
0
LINE
8
BLACK
6
CONTINUOUS
10
1.69
20
0.187874
11
1.69301
21
0.187275
0
LINE
8
BLACK
6
CONTINUOUS
10
1.59301
20
0.187275
11
1.59557
21
0.185568
0
LINE
8
BLACK
6
CONTINUOUS
10
1.59557
20
0.185568
11
1.59727
21
0.183013
0
LINE
8
BLACK
6
CONTINUOUS
10
1.59727
20
0.183013
11
1.59787
21
0.18
0
LINE
8
BLACK
6
CONTINUOUS
10
1.59787
20
0.18
11
1.59787
21
0.12
0
LINE
8
BLACK
6
CONTINUOUS
10
1.59787
20
0.12
11
1.59727
21
0.116987
0
LINE
8
BLACK
6
CONTINUOUS
10
1.59727
20
0.116987
11
1.59557
21
0.114432
0
LINE
8
BLACK
6
CONTINUOUS
10
1.59557
20
0.114432
11
1.59301
21
0.112725
0
LINE
8
BLACK
6
CONTINUOUS
10
1.59301
20
0.112725
11
1.59
21
0.112126
0
LINE
8
BLACK
6
CONTINUOUS
10
1.59
20
0.112126
11
1.53
21
0.112126
0
LINE
8
BLACK
6
CONTINUOUS
10
1.53
20
0.112126
11
1.52699
21
0.112725
0
LINE
8
BLACK
6
CONTINUOUS
10
1.52699
20
0.112725
11
1.52443
21
0.114432
0
LINE
8
BLACK
6
CONTINUOUS
10
1.52443
20
0.114432
11
1.52273
21
0.116987
0
LINE
8
BLACK
6
CONTINUOUS
10
1.52273
20
0.116987
11
1.52213
21
0.12
0
LINE
8
BLACK
6
CONTINUOUS
10
1.52213
20
0.12
11
1.52213
21
0.18
0
LINE
8
BLACK
6
CONTINUOUS
10
1.52213
20
0.18
11
1.52273
21
0.183013
0
LINE
8
BLACK
6
CONTINUOUS
10
1.52273
20
0.183013
11
1.52443
21
0.185568
0
LINE
8
BLACK
6
CONTINUOUS
10
1.52443
20
0.185568
11
1.52699
21
0.187275
0
LINE
8
BLACK
6
CONTINUOUS
10
1.52699
20
0.187275
11
1.53
21
0.187874
0
LINE
8
BLACK
6
CONTINUOUS
10
1.53
20
0.187874
11
1.59
21
0.187874
0
LINE
8
BLACK
6
CONTINUOUS
10
1.59
20
0.187874
11
1.59301
21
0.187275
0
LINE
8
BLACK
6
CONTINUOUS
10
1.79301
20
0.187275
11
1.79557
21
0.185568
0
LINE
8
BLACK
6
CONTINUOUS
10
1.79557
20
0.185568
11
1.79727
21
0.183013
0
LINE
8
BLACK
6
CONTINUOUS
10
1.79727
20
0.183013
11
1.79787
21
0.18
0
LINE
8
BLACK
6
CONTINUOUS
10
1.79787
20
0.18
11
1.79787
21
0.12
0
LINE
8
BLACK
6
CONTINUOUS
10
1.79787
20
0.12
11
1.79727
21
0.116987
0
LINE
8
BLACK
6
CONTINUOUS
10
1.79727
20
0.116987
11
1.79557
21
0.114432
0
LINE
8
BLACK
6
CONTINUOUS
10
1.79557
20
0.114432
11
1.79301
21
0.112725
0
LINE
8
BLACK
6
CONTINUOUS
10
1.79301
20
0.112725
11
1.79
21
0.112126
0
LINE
8
BLACK
6
CONTINUOUS
10
1.79
20
0.112126
11
1.73
21
0.112126
0
LINE
8
BLACK
6
CONTINUOUS
10
1.73
20
0.112126
11
1.72699
21
0.112725
0
LINE
8
BLACK
6
CONTINUOUS
10
1.72699
20
0.112725
11
1.72443
21
0.114432
0
LINE
8
BLACK
6
CONTINUOUS
10
1.72443
20
0.114432
11
1.72273
21
0.116987
0
LINE
8
BLACK
6
CONTINUOUS
10
1.72273
20
0.116987
11
1.72213
21
0.12
0
LINE
8
BLACK
6
CONTINUOUS
10
1.72213
20
0.12
11
1.72213
21
0.18
0
LINE
8
BLACK
6
CONTINUOUS
10
1.72213
20
0.18
11
1.72273
21
0.183013
0
LINE
8
BLACK
6
CONTINUOUS
10
1.72273
20
0.183013
11
1.72443
21
0.185568
0
LINE
8
BLACK
6
CONTINUOUS
10
1.72443
20
0.185568
11
1.72699
21
0.187275
0
LINE
8
BLACK
6
CONTINUOUS
10
1.72699
20
0.187275
11
1.73
21
0.187874
0
LINE
8
BLACK
6
CONTINUOUS
10
1.73
20
0.187874
11
1.79
21
0.187874
0
LINE
8
BLACK
6
CONTINUOUS
10
1.79
20
0.187874
11
1.79301
21
0.187275
0
LINE
8
BLACK
6
CONTINUOUS
10
1.89301
20
0.187275
11
1.89557
21
0.185568
0
LINE
8
BLACK
6
CONTINUOUS
10
1.89557
20
0.185568
11
1.89727
21
0.183013
0
LINE
8
BLACK
6
CONTINUOUS
10
1.89727
20
0.183013
11
1.89787
21
0.18
0
LINE
8
BLACK
6
CONTINUOUS
10
1.89787
20
0.18
11
1.89787
21
0.12
0
LINE
8
BLACK
6
CONTINUOUS
10
1.89787
20
0.12
11
1.89727
21
0.116987
0
LINE
8
BLACK
6
CONTINUOUS
10
1.89727
20
0.116987
11
1.89557
21
0.114432
0
LINE
8
BLACK
6
CONTINUOUS
10
1.89557
20
0.114432
11
1.89301
21
0.112725
0
LINE
8
BLACK
6
CONTINUOUS
10
1.89301
20
0.112725
11
1.89
21
0.112126
0
LINE
8
BLACK
6
CONTINUOUS
10
1.89
20
0.112126
11
1.83
21
0.112126
0
LINE
8
BLACK
6
CONTINUOUS
10
1.83
20
0.112126
11
1.82699
21
0.112725
0
LINE
8
BLACK
6
CONTINUOUS
10
1.82699
20
0.112725
11
1.82443
21
0.114432
0
LINE
8
BLACK
6
CONTINUOUS
10
1.82443
20
0.114432
11
1.82273
21
0.116987
0
LINE
8
BLACK
6
CONTINUOUS
10
1.82273
20
0.116987
11
1.82213
21
0.12
0
LINE
8
BLACK
6
CONTINUOUS
10
1.82213
20
0.12
11
1.82213
21
0.18
0
LINE
8
BLACK
6
CONTINUOUS
10
1.82213
20
0.18
11
1.82273
21
0.183013
0
LINE
8
BLACK
6
CONTINUOUS
10
1.82273
20
0.183013
11
1.82443
21
0.185568
0
LINE
8
BLACK
6
CONTINUOUS
10
1.82443
20
0.185568
11
1.82699
21
0.187275
0
LINE
8
BLACK
6
CONTINUOUS
10
1.82699
20
0.187275
11
1.83
21
0.187874
0
LINE
8
BLACK
6
CONTINUOUS
10
1.83
20
0.187874
11
1.89
21
0.187874
0
LINE
8
BLACK
6
CONTINUOUS
10
1.89
20
0.187874
11
1.89301
21
0.187275
0
LINE
8
BLACK
6
CONTINUOUS
10
1.33301
20
0.187275
11
1.33557
21
0.185568
0
LINE
8
BLACK
6
CONTINUOUS
10
1.33557
20
0.185568
11
1.33727
21
0.183013
0
LINE
8
BLACK
6
CONTINUOUS
10
1.33727
20
0.183013
11
1.33787
21
0.18
0
LINE
8
BLACK
6
CONTINUOUS
10
1.33787
20
0.18
11
1.33787
21
0.12
0
LINE
8
BLACK
6
CONTINUOUS
10
1.33787
20
0.12
11
1.33727
21
0.116987
0
LINE
8
BLACK
6
CONTINUOUS
10
1.33727
20
0.116987
11
1.33557
21
0.114432
0
LINE
8
BLACK
6
CONTINUOUS
10
1.33557
20
0.114432
11
1.33301
21
0.112725
0
LINE
8
BLACK
6
CONTINUOUS
10
1.33301
20
0.112725
11
1.33
21
0.112126
0
LINE
8
BLACK
6
CONTINUOUS
10
1.33
20
0.112126
11
1.27
21
0.112126
0
LINE
8
BLACK
6
CONTINUOUS
10
1.27
20
0.112126
11
1.26699
21
0.112725
0
LINE
8
BLACK
6
CONTINUOUS
10
1.26699
20
0.112725
11
1.26443
21
0.114432
0
LINE
8
BLACK
6
CONTINUOUS
10
1.26443
20
0.114432
11
1.26273
21
0.116987
0
LINE
8
BLACK
6
CONTINUOUS
10
1.26273
20
0.116987
11
1.26213
21
0.12
0
LINE
8
BLACK
6
CONTINUOUS
10
1.26213
20
0.12
11
1.26213
21
0.18
0
LINE
8
BLACK
6
CONTINUOUS
10
1.26213
20
0.18
11
1.26273
21
0.183013
0
LINE
8
BLACK
6
CONTINUOUS
10
1.26273
20
0.183013
11
1.26443
21
0.185568
0
LINE
8
BLACK
6
CONTINUOUS
10
1.26443
20
0.185568
11
1.26699
21
0.187275
0
LINE
8
BLACK
6
CONTINUOUS
10
1.26699
20
0.187275
11
1.27
21
0.187874
0
LINE
8
BLACK
6
CONTINUOUS
10
1.27
20
0.187874
11
1.33
21
0.187874
0
LINE
8
BLACK
6
CONTINUOUS
10
1.33
20
0.187874
11
1.33301
21
0.187275
0
LINE
8
BLACK
6
CONTINUOUS
10
1.43301
20
0.187275
11
1.43557
21
0.185568
0
LINE
8
BLACK
6
CONTINUOUS
10
1.43557
20
0.185568
11
1.43727
21
0.183013
0
LINE
8
BLACK
6
CONTINUOUS
10
1.43727
20
0.183013
11
1.43787
21
0.18
0
LINE
8
BLACK
6
CONTINUOUS
10
1.43787
20
0.18
11
1.43787
21
0.12
0
LINE
8
BLACK
6
CONTINUOUS
10
1.43787
20
0.12
11
1.43727
21
0.116987
0
LINE
8
BLACK
6
CONTINUOUS
10
1.43727
20
0.116987
11
1.43557
21
0.114432
0
LINE
8
BLACK
6
CONTINUOUS
10
1.43557
20
0.114432
11
1.43301
21
0.112725
0
LINE
8
BLACK
6
CONTINUOUS
10
1.43301
20
0.112725
11
1.43
21
0.112126
0
LINE
8
BLACK
6
CONTINUOUS
10
1.43
20
0.112126
11
1.37
21
0.112126
0
LINE
8
BLACK
6
CONTINUOUS
10
1.37
20
0.112126
11
1.36699
21
0.112725
0
LINE
8
BLACK
6
CONTINUOUS
10
1.36699
20
0.112725
11
1.36443
21
0.114432
0
LINE
8
BLACK
6
CONTINUOUS
10
1.36443
20
0.114432
11
1.36273
21
0.116987
0
LINE
8
BLACK
6
CONTINUOUS
10
1.36273
20
0.116987
11
1.36213
21
0.12
0
LINE
8
BLACK
6
CONTINUOUS
10
1.36213
20
0.12
11
1.36213
21
0.18
0
LINE
8
BLACK
6
CONTINUOUS
10
1.36213
20
0.18
11
1.36273
21
0.183013
0
LINE
8
BLACK
6
CONTINUOUS
10
1.36273
20
0.183013
11
1.36443
21
0.185568
0
LINE
8
BLACK
6
CONTINUOUS
10
1.36443
20
0.185568
11
1.36699
21
0.187275
0
LINE
8
BLACK
6
CONTINUOUS
10
1.36699
20
0.187275
11
1.37
21
0.187874
0
LINE
8
BLACK
6
CONTINUOUS
10
1.37
20
0.187874
11
1.43
21
0.187874
0
LINE
8
BLACK
6
CONTINUOUS
10
1.43
20
0.187874
11
1.43301
21
0.187275
0
LINE
8
BLACK
6
CONTINUOUS
10
1.18301
20
0.187275
11
1.18557
21
0.185568
0
LINE
8
BLACK
6
CONTINUOUS
10
1.18557
20
0.185568
11
1.18727
21
0.183013
0
LINE
8
BLACK
6
CONTINUOUS
10
1.18727
20
0.183013
11
1.18787
21
0.18
0
LINE
8
BLACK
6
CONTINUOUS
10
1.18787
20
0.18
11
1.18787
21
0.12
0
LINE
8
BLACK
6
CONTINUOUS
10
1.18787
20
0.12
11
1.18727
21
0.116987
0
LINE
8
BLACK
6
CONTINUOUS
10
1.18727
20
0.116987
11
1.18557
21
0.114432
0
LINE
8
BLACK
6
CONTINUOUS
10
1.18557
20
0.114432
11
1.18301
21
0.112725
0
LINE
8
BLACK
6
CONTINUOUS
10
1.18301
20
0.112725
11
1.18
21
0.112126
0
LINE
8
BLACK
6
CONTINUOUS
10
1.18
20
0.112126
11
1.12
21
0.112126
0
LINE
8
BLACK
6
CONTINUOUS
10
1.12
20
0.112126
11
1.11699
21
0.112725
0
LINE
8
BLACK
6
CONTINUOUS
10
1.11699
20
0.112725
11
1.11443
21
0.114432
0
LINE
8
BLACK
6
CONTINUOUS
10
1.11443
20
0.114432
11
1.11273
21
0.116987
0
LINE
8
BLACK
6
CONTINUOUS
10
1.11273
20
0.116987
11
1.11213
21
0.12
0
LINE
8
BLACK
6
CONTINUOUS
10
1.11213
20
0.12
11
1.11213
21
0.18
0
LINE
8
BLACK
6
CONTINUOUS
10
1.11213
20
0.18
11
1.11273
21
0.183013
0
LINE
8
BLACK
6
CONTINUOUS
10
1.11273
20
0.183013
11
1.11443
21
0.185568
0
LINE
8
BLACK
6
CONTINUOUS
10
1.11443
20
0.185568
11
1.11699
21
0.187275
0
LINE
8
BLACK
6
CONTINUOUS
10
1.11699
20
0.187275
11
1.12
21
0.187874
0
LINE
8
BLACK
6
CONTINUOUS
10
1.12
20
0.187874
11
1.18
21
0.187874
0
LINE
8
BLACK
6
CONTINUOUS
10
1.18
20
0.187874
11
1.18301
21
0.187275
0
LINE
8
BLACK
6
CONTINUOUS
10
1.08301
20
0.187275
11
1.08557
21
0.185568
0
LINE
8
BLACK
6
CONTINUOUS
10
1.08557
20
0.185568
11
1.08727
21
0.183013
0
LINE
8
BLACK
6
CONTINUOUS
10
1.08727
20
0.183013
11
1.08787
21
0.18
0
LINE
8
BLACK
6
CONTINUOUS
10
1.08787
20
0.18
11
1.08787
21
0.12
0
LINE
8
BLACK
6
CONTINUOUS
10
1.08787
20
0.12
11
1.08727
21
0.116987
0
LINE
8
BLACK
6
CONTINUOUS
10
1.08727
20
0.116987
11
1.08557
21
0.114432
0
LINE
8
BLACK
6
CONTINUOUS
10
1.08557
20
0.114432
11
1.08301
21
0.112725
0
LINE
8
BLACK
6
CONTINUOUS
10
1.08301
20
0.112725
11
1.08
21
0.112126
0
LINE
8
BLACK
6
CONTINUOUS
10
1.08
20
0.112126
11
1.02
21
0.112126
0
LINE
8
BLACK
6
CONTINUOUS
10
1.02
20
0.112126
11
1.01699
21
0.112725
0
LINE
8
BLACK
6
CONTINUOUS
10
1.01699
20
0.112725
11
1.01443
21
0.114432
0
LINE
8
BLACK
6
CONTINUOUS
10
1.01443
20
0.114432
11
1.01273
21
0.116987
0
LINE
8
BLACK
6
CONTINUOUS
10
1.01273
20
0.116987
11
1.01213
21
0.12
0
LINE
8
BLACK
6
CONTINUOUS
10
1.01213
20
0.12
11
1.01213
21
0.18
0
LINE
8
BLACK
6
CONTINUOUS
10
1.01213
20
0.18
11
1.01273
21
0.183013
0
LINE
8
BLACK
6
CONTINUOUS
10
1.01273
20
0.183013
11
1.01443
21
0.185568
0
LINE
8
BLACK
6
CONTINUOUS
10
1.01443
20
0.185568
11
1.01699
21
0.187275
0
LINE
8
BLACK
6
CONTINUOUS
10
1.01699
20
0.187275
11
1.02
21
0.187874
0
LINE
8
BLACK
6
CONTINUOUS
10
1.02
20
0.187874
11
1.08
21
0.187874
0
LINE
8
BLACK
6
CONTINUOUS
10
1.08
20
0.187874
11
1.08301
21
0.187275
0
LINE
8
BLACK
6
CONTINUOUS
10
0.983013
20
0.187275
11
0.985568
21
0.185568
0
LINE
8
BLACK
6
CONTINUOUS
10
0.985568
20
0.185568
11
0.987275
21
0.183013
0
LINE
8
BLACK
6
CONTINUOUS
10
0.987275
20
0.183013
11
0.987874
21
0.18
0
LINE
8
BLACK
6
CONTINUOUS
10
0.987874
20
0.18
11
0.987874
21
0.12
0
LINE
8
BLACK
6
CONTINUOUS
10
0.987874
20
0.12
11
0.987275
21
0.116987
0
LINE
8
BLACK
6
CONTINUOUS
10
0.987275
20
0.116987
11
0.985568
21
0.114432
0
LINE
8
BLACK
6
CONTINUOUS
10
0.985568
20
0.114432
11
0.983013
21
0.112725
0
LINE
8
BLACK
6
CONTINUOUS
10
0.983013
20
0.112725
11
0.98
21
0.112126
0
LINE
8
BLACK
6
CONTINUOUS
10
0.98
20
0.112126
11
0.92
21
0.112126
0
LINE
8
BLACK
6
CONTINUOUS
10
0.92
20
0.112126
11
0.916987
21
0.112725
0
LINE
8
BLACK
6
CONTINUOUS
10
0.916987
20
0.112725
11
0.914432
21
0.114432
0
LINE
8
BLACK
6
CONTINUOUS
10
0.914432
20
0.114432
11
0.912725
21
0.116987
0
LINE
8
BLACK
6
CONTINUOUS
10
0.912725
20
0.116987
11
0.912126
21
0.12
0
LINE
8
BLACK
6
CONTINUOUS
10
0.912126
20
0.12
11
0.912126
21
0.18
0
LINE
8
BLACK
6
CONTINUOUS
10
0.912126
20
0.18
11
0.912725
21
0.183013
0
LINE
8
BLACK
6
CONTINUOUS
10
0.912725
20
0.183013
11
0.914432
21
0.185568
0
LINE
8
BLACK
6
CONTINUOUS
10
0.914432
20
0.185568
11
0.916987
21
0.187275
0
LINE
8
BLACK
6
CONTINUOUS
10
0.916987
20
0.187275
11
0.92
21
0.187874
0
LINE
8
BLACK
6
CONTINUOUS
10
0.92
20
0.187874
11
0.98
21
0.187874
0
LINE
8
BLACK
6
CONTINUOUS
10
0.98
20
0.187874
11
0.983013
21
0.187275
0
LINE
8
BLACK
6
CONTINUOUS
10
0.583013
20
0.217275
11
0.585568
21
0.215568
0
LINE
8
BLACK
6
CONTINUOUS
10
0.585568
20
0.215568
11
0.587275
21
0.213013
0
LINE
8
BLACK
6
CONTINUOUS
10
0.587275
20
0.213013
11
0.587874
21
0.21
0
LINE
8
BLACK
6
CONTINUOUS
10
0.587874
20
0.21
11
0.587874
21
0.15
0
LINE
8
BLACK
6
CONTINUOUS
10
0.587874
20
0.15
11
0.587275
21
0.146987
0
LINE
8
BLACK
6
CONTINUOUS
10
0.587275
20
0.146987
11
0.585568
21
0.144432
0
LINE
8
BLACK
6
CONTINUOUS
10
0.585568
20
0.144432
11
0.583013
21
0.142725
0
LINE
8
BLACK
6
CONTINUOUS
10
0.583013
20
0.142725
11
0.58
21
0.142126
0
LINE
8
BLACK
6
CONTINUOUS
10
0.58
20
0.142126
11
0.52
21
0.142126
0
LINE
8
BLACK
6
CONTINUOUS
10
0.52
20
0.142126
11
0.516987
21
0.142725
0
LINE
8
BLACK
6
CONTINUOUS
10
0.516987
20
0.142725
11
0.514432
21
0.144432
0
LINE
8
BLACK
6
CONTINUOUS
10
0.514432
20
0.144432
11
0.512725
21
0.146987
0
LINE
8
BLACK
6
CONTINUOUS
10
0.512725
20
0.146987
11
0.512126
21
0.15
0
LINE
8
BLACK
6
CONTINUOUS
10
0.512126
20
0.15
11
0.512126
21
0.21
0
LINE
8
BLACK
6
CONTINUOUS
10
0.512126
20
0.21
11
0.512725
21
0.213013
0
LINE
8
BLACK
6
CONTINUOUS
10
0.512725
20
0.213013
11
0.514432
21
0.215568
0
LINE
8
BLACK
6
CONTINUOUS
10
0.514432
20
0.215568
11
0.516987
21
0.217275
0
LINE
8
BLACK
6
CONTINUOUS
10
0.516987
20
0.217275
11
0.52
21
0.217874
0
LINE
8
BLACK
6
CONTINUOUS
10
0.52
20
0.217874
11
0.58
21
0.217874
0
LINE
8
BLACK
6
CONTINUOUS
10
0.58
20
0.217874
11
0.583013
21
0.217275
0
LINE
8
BLACK
6
CONTINUOUS
10
0.483013
20
0.217275
11
0.485568
21
0.215568
0
LINE
8
BLACK
6
CONTINUOUS
10
0.485568
20
0.215568
11
0.487275
21
0.213013
0
LINE
8
BLACK
6
CONTINUOUS
10
0.487275
20
0.213013
11
0.487874
21
0.21
0
LINE
8
BLACK
6
CONTINUOUS
10
0.487874
20
0.21
11
0.487874
21
0.15
0
LINE
8
BLACK
6
CONTINUOUS
10
0.487874
20
0.15
11
0.487275
21
0.146987
0
LINE
8
BLACK
6
CONTINUOUS
10
0.487275
20
0.146987
11
0.485568
21
0.144432
0
LINE
8
BLACK
6
CONTINUOUS
10
0.485568
20
0.144432
11
0.483013
21
0.142725
0
LINE
8
BLACK
6
CONTINUOUS
10
0.483013
20
0.142725
11
0.48
21
0.142126
0
LINE
8
BLACK
6
CONTINUOUS
10
0.48
20
0.142126
11
0.42
21
0.142126
0
LINE
8
BLACK
6
CONTINUOUS
10
0.42
20
0.142126
11
0.416987
21
0.142725
0
LINE
8
BLACK
6
CONTINUOUS
10
0.416987
20
0.142725
11
0.414432
21
0.144432
0
LINE
8
BLACK
6
CONTINUOUS
10
0.414432
20
0.144432
11
0.412725
21
0.146987
0
LINE
8
BLACK
6
CONTINUOUS
10
0.412725
20
0.146987
11
0.412126
21
0.15
0
LINE
8
BLACK
6
CONTINUOUS
10
0.412126
20
0.15
11
0.412126
21
0.21
0
LINE
8
BLACK
6
CONTINUOUS
10
0.412126
20
0.21
11
0.412725
21
0.213013
0
LINE
8
BLACK
6
CONTINUOUS
10
0.412725
20
0.213013
11
0.414432
21
0.215568
0
LINE
8
BLACK
6
CONTINUOUS
10
0.414432
20
0.215568
11
0.416987
21
0.217275
0
LINE
8
BLACK
6
CONTINUOUS
10
0.416987
20
0.217275
11
0.42
21
0.217874
0
LINE
8
BLACK
6
CONTINUOUS
10
0.42
20
0.217874
11
0.48
21
0.217874
0
LINE
8
BLACK
6
CONTINUOUS
10
0.48
20
0.217874
11
0.483013
21
0.217275
0
LINE
8
BLACK
6
CONTINUOUS
10
0.683013
20
0.217275
11
0.685568
21
0.215568
0
LINE
8
BLACK
6
CONTINUOUS
10
0.685568
20
0.215568
11
0.687275
21
0.213013
0
LINE
8
BLACK
6
CONTINUOUS
10
0.687275
20
0.213013
11
0.687874
21
0.21
0
LINE
8
BLACK
6
CONTINUOUS
10
0.687874
20
0.21
11
0.687874
21
0.15
0
LINE
8
BLACK
6
CONTINUOUS
10
0.687874
20
0.15
11
0.687275
21
0.146987
0
LINE
8
BLACK
6
CONTINUOUS
10
0.687275
20
0.146987
11
0.685568
21
0.144432
0
LINE
8
BLACK
6
CONTINUOUS
10
0.685568
20
0.144432
11
0.683013
21
0.142725
0
LINE
8
BLACK
6
CONTINUOUS
10
0.683013
20
0.142725
11
0.68
21
0.142126
0
LINE
8
BLACK
6
CONTINUOUS
10
0.68
20
0.142126
11
0.62
21
0.142126
0
LINE
8
BLACK
6
CONTINUOUS
10
0.62
20
0.142126
11
0.616987
21
0.142725
0
LINE
8
BLACK
6
CONTINUOUS
10
0.616987
20
0.142725
11
0.614432
21
0.144432
0
LINE
8
BLACK
6
CONTINUOUS
10
0.614432
20
0.144432
11
0.612725
21
0.146987
0
LINE
8
BLACK
6
CONTINUOUS
10
0.612725
20
0.146987
11
0.612126
21
0.15
0
LINE
8
BLACK
6
CONTINUOUS
10
0.612126
20
0.15
11
0.612126
21
0.21
0
LINE
8
BLACK
6
CONTINUOUS
10
0.612126
20
0.21
11
0.612725
21
0.213013
0
LINE
8
BLACK
6
CONTINUOUS
10
0.612725
20
0.213013
11
0.614432
21
0.215568
0
LINE
8
BLACK
6
CONTINUOUS
10
0.614432
20
0.215568
11
0.616987
21
0.217275
0
LINE
8
BLACK
6
CONTINUOUS
10
0.616987
20
0.217275
11
0.62
21
0.217874
0
LINE
8
BLACK
6
CONTINUOUS
10
0.62
20
0.217874
11
0.68
21
0.217874
0
LINE
8
BLACK
6
CONTINUOUS
10
0.68
20
0.217874
11
0.683013
21
0.217275
0
LINE
8
BLACK
6
CONTINUOUS
10
1.59301
20
0.287275
11
1.59557
21
0.285568
0
LINE
8
BLACK
6
CONTINUOUS
10
1.59557
20
0.285568
11
1.59727
21
0.283013
0
LINE
8
BLACK
6
CONTINUOUS
10
1.59727
20
0.283013
11
1.59787
21
0.28
0
LINE
8
BLACK
6
CONTINUOUS
10
1.59787
20
0.28
11
1.59787
21
0.22
0
LINE
8
BLACK
6
CONTINUOUS
10
1.59787
20
0.22
11
1.59727
21
0.216987
0
LINE
8
BLACK
6
CONTINUOUS
10
1.59727
20
0.216987
11
1.59557
21
0.214432
0
LINE
8
BLACK
6
CONTINUOUS
10
1.59557
20
0.214432
11
1.59301
21
0.212725
0
LINE
8
BLACK
6
CONTINUOUS
10
1.59301
20
0.212725
11
1.59
21
0.212126
0
LINE
8
BLACK
6
CONTINUOUS
10
1.59
20
0.212126
11
1.53
21
0.212126
0
LINE
8
BLACK
6
CONTINUOUS
10
1.53
20
0.212126
11
1.52699
21
0.212725
0
LINE
8
BLACK
6
CONTINUOUS
10
1.52699
20
0.212725
11
1.52443
21
0.214432
0
LINE
8
BLACK
6
CONTINUOUS
10
1.52443
20
0.214432
11
1.52273
21
0.216987
0
LINE
8
BLACK
6
CONTINUOUS
10
1.52273
20
0.216987
11
1.52213
21
0.22
0
LINE
8
BLACK
6
CONTINUOUS
10
1.52213
20
0.22
11
1.52213
21
0.28
0
LINE
8
BLACK
6
CONTINUOUS
10
1.52213
20
0.28
11
1.52273
21
0.283013
0
LINE
8
BLACK
6
CONTINUOUS
10
1.52273
20
0.283013
11
1.52443
21
0.285568
0
LINE
8
BLACK
6
CONTINUOUS
10
1.52443
20
0.285568
11
1.52699
21
0.287275
0
LINE
8
BLACK
6
CONTINUOUS
10
1.52699
20
0.287275
11
1.53
21
0.287874
0
LINE
8
BLACK
6
CONTINUOUS
10
1.53
20
0.287874
11
1.59
21
0.287874
0
LINE
8
BLACK
6
CONTINUOUS
10
1.59
20
0.287874
11
1.59301
21
0.287275
0
LINE
8
BLACK
6
CONTINUOUS
10
0.983013
20
0.287275
11
0.985568
21
0.285568
0
LINE
8
BLACK
6
CONTINUOUS
10
0.985568
20
0.285568
11
0.987275
21
0.283013
0
LINE
8
BLACK
6
CONTINUOUS
10
0.987275
20
0.283013
11
0.987874
21
0.28
0
LINE
8
BLACK
6
CONTINUOUS
10
0.987874
20
0.28
11
0.987874
21
0.22
0
LINE
8
BLACK
6
CONTINUOUS
10
0.987874
20
0.22
11
0.987275
21
0.216987
0
LINE
8
BLACK
6
CONTINUOUS
10
0.987275
20
0.216987
11
0.985568
21
0.214432
0
LINE
8
BLACK
6
CONTINUOUS
10
0.985568
20
0.214432
11
0.983013
21
0.212725
0
LINE
8
BLACK
6
CONTINUOUS
10
0.983013
20
0.212725
11
0.98
21
0.212126
0
LINE
8
BLACK
6
CONTINUOUS
10
0.98
20
0.212126
11
0.92
21
0.212126
0
LINE
8
BLACK
6
CONTINUOUS
10
0.92
20
0.212126
11
0.916987
21
0.212725
0
LINE
8
BLACK
6
CONTINUOUS
10
0.916987
20
0.212725
11
0.914432
21
0.214432
0
LINE
8
BLACK
6
CONTINUOUS
10
0.914432
20
0.214432
11
0.912725
21
0.216987
0
LINE
8
BLACK
6
CONTINUOUS
10
0.912725
20
0.216987
11
0.912126
21
0.22
0
LINE
8
BLACK
6
CONTINUOUS
10
0.912126
20
0.22
11
0.912126
21
0.28
0
LINE
8
BLACK
6
CONTINUOUS
10
0.912126
20
0.28
11
0.912725
21
0.283013
0
LINE
8
BLACK
6
CONTINUOUS
10
0.912725
20
0.283013
11
0.914432
21
0.285568
0
LINE
8
BLACK
6
CONTINUOUS
10
0.914432
20
0.285568
11
0.916987
21
0.287275
0
LINE
8
BLACK
6
CONTINUOUS
10
0.916987
20
0.287275
11
0.92
21
0.287874
0
LINE
8
BLACK
6
CONTINUOUS
10
0.92
20
0.287874
11
0.98
21
0.287874
0
LINE
8
BLACK
6
CONTINUOUS
10
0.98
20
0.287874
11
0.983013
21
0.287275
0
LINE
8
BLACK
6
CONTINUOUS
10
1.08301
20
0.287275
11
1.08557
21
0.285568
0
LINE
8
BLACK
6
CONTINUOUS
10
1.08557
20
0.285568
11
1.08727
21
0.283013
0
LINE
8
BLACK
6
CONTINUOUS
10
1.08727
20
0.283013
11
1.08787
21
0.28
0
LINE
8
BLACK
6
CONTINUOUS
10
1.08787
20
0.28
11
1.08787
21
0.22
0
LINE
8
BLACK
6
CONTINUOUS
10
1.08787
20
0.22
11
1.08727
21
0.216987
0
LINE
8
BLACK
6
CONTINUOUS
10
1.08727
20
0.216987
11
1.08557
21
0.214432
0
LINE
8
BLACK
6
CONTINUOUS
10
1.08557
20
0.214432
11
1.08301
21
0.212725
0
LINE
8
BLACK
6
CONTINUOUS
10
1.08301
20
0.212725
11
1.08
21
0.212126
0
LINE
8
BLACK
6
CONTINUOUS
10
1.08
20
0.212126
11
1.02
21
0.212126
0
LINE
8
BLACK
6
CONTINUOUS
10
1.02
20
0.212126
11
1.01699
21
0.212725
0
LINE
8
BLACK
6
CONTINUOUS
10
1.01699
20
0.212725
11
1.01443
21
0.214432
0
LINE
8
BLACK
6
CONTINUOUS
10
1.01443
20
0.214432
11
1.01273
21
0.216987
0
LINE
8
BLACK
6
CONTINUOUS
10
1.01273
20
0.216987
11
1.01213
21
0.22
0
LINE
8
BLACK
6
CONTINUOUS
10
1.01213
20
0.22
11
1.01213
21
0.28
0
LINE
8
BLACK
6
CONTINUOUS
10
1.01213
20
0.28
11
1.01273
21
0.283013
0
LINE
8
BLACK
6
CONTINUOUS
10
1.01273
20
0.283013
11
1.01443
21
0.285568
0
LINE
8
BLACK
6
CONTINUOUS
10
1.01443
20
0.285568
11
1.01699
21
0.287275
0
LINE
8
BLACK
6
CONTINUOUS
10
1.01699
20
0.287275
11
1.02
21
0.287874
0
LINE
8
BLACK
6
CONTINUOUS
10
1.02
20
0.287874
11
1.08
21
0.287874
0
LINE
8
BLACK
6
CONTINUOUS
10
1.08
20
0.287874
11
1.08301
21
0.287275
0
LINE
8
BLACK
6
CONTINUOUS
10
1.69301
20
0.287275
11
1.69557
21
0.285568
0
LINE
8
BLACK
6
CONTINUOUS
10
1.69557
20
0.285568
11
1.69727
21
0.283013
0
LINE
8
BLACK
6
CONTINUOUS
10
1.69727
20
0.283013
11
1.69787
21
0.28
0
LINE
8
BLACK
6
CONTINUOUS
10
1.69787
20
0.28
11
1.69787
21
0.22
0
LINE
8
BLACK
6
CONTINUOUS
10
1.69787
20
0.22
11
1.69727
21
0.216987
0
LINE
8
BLACK
6
CONTINUOUS
10
1.69727
20
0.216987
11
1.69557
21
0.214432
0
LINE
8
BLACK
6
CONTINUOUS
10
1.69557
20
0.214432
11
1.69301
21
0.212725
0
LINE
8
BLACK
6
CONTINUOUS
10
1.69301
20
0.212725
11
1.69
21
0.212126
0
LINE
8
BLACK
6
CONTINUOUS
10
1.69
20
0.212126
11
1.63
21
0.212126
0
LINE
8
BLACK
6
CONTINUOUS
10
1.63
20
0.212126
11
1.62699
21
0.212725
0
LINE
8
BLACK
6
CONTINUOUS
10
1.62699
20
0.212725
11
1.62443
21
0.214432
0
LINE
8
BLACK
6
CONTINUOUS
10
1.62443
20
0.214432
11
1.62273
21
0.216987
0
LINE
8
BLACK
6
CONTINUOUS
10
1.62273
20
0.216987
11
1.62213
21
0.22
0
LINE
8
BLACK
6
CONTINUOUS
10
1.62213
20
0.22
11
1.62213
21
0.28
0
LINE
8
BLACK
6
CONTINUOUS
10
1.62213
20
0.28
11
1.62273
21
0.283013
0
LINE
8
BLACK
6
CONTINUOUS
10
1.62273
20
0.283013
11
1.62443
21
0.285568
0
LINE
8
BLACK
6
CONTINUOUS
10
1.62443
20
0.285568
11
1.62699
21
0.287275
0
LINE
8
BLACK
6
CONTINUOUS
10
1.62699
20
0.287275
11
1.63
21
0.287874
0
LINE
8
BLACK
6
CONTINUOUS
10
1.63
20
0.287874
11
1.69
21
0.287874
0
LINE
8
BLACK
6
CONTINUOUS
10
1.69
20
0.287874
11
1.69301
21
0.287275
0
LINE
8
BLACK
6
CONTINUOUS
10
1.18301
20
0.287275
11
1.18557
21
0.285568
0
LINE
8
BLACK
6
CONTINUOUS
10
1.18557
20
0.285568
11
1.18727
21
0.283013
0
LINE
8
BLACK
6
CONTINUOUS
10
1.18727
20
0.283013
11
1.18787
21
0.28
0
LINE
8
BLACK
6
CONTINUOUS
10
1.18787
20
0.28
11
1.18787
21
0.22
0
LINE
8
BLACK
6
CONTINUOUS
10
1.18787
20
0.22
11
1.18727
21
0.216987
0
LINE
8
BLACK
6
CONTINUOUS
10
1.18727
20
0.216987
11
1.18557
21
0.214432
0
LINE
8
BLACK
6
CONTINUOUS
10
1.18557
20
0.214432
11
1.18301
21
0.212725
0
LINE
8
BLACK
6
CONTINUOUS
10
1.18301
20
0.212725
11
1.18
21
0.212126
0
LINE
8
BLACK
6
CONTINUOUS
10
1.18
20
0.212126
11
1.12
21
0.212126
0
LINE
8
BLACK
6
CONTINUOUS
10
1.12
20
0.212126
11
1.11699
21
0.212725
0
LINE
8
BLACK
6
CONTINUOUS
10
1.11699
20
0.212725
11
1.11443
21
0.214432
0
LINE
8
BLACK
6
CONTINUOUS
10
1.11443
20
0.214432
11
1.11273
21
0.216987
0
LINE
8
BLACK
6
CONTINUOUS
10
1.11273
20
0.216987
11
1.11213
21
0.22
0
LINE
8
BLACK
6
CONTINUOUS
10
1.11213
20
0.22
11
1.11213
21
0.28
0
LINE
8
BLACK
6
CONTINUOUS
10
1.11213
20
0.28
11
1.11273
21
0.283013
0
LINE
8
BLACK
6
CONTINUOUS
10
1.11273
20
0.283013
11
1.11443
21
0.285568
0
LINE
8
BLACK
6
CONTINUOUS
10
1.11443
20
0.285568
11
1.11699
21
0.287275
0
LINE
8
BLACK
6
CONTINUOUS
10
1.11699
20
0.287275
11
1.12
21
0.287874
0
LINE
8
BLACK
6
CONTINUOUS
10
1.12
20
0.287874
11
1.18
21
0.287874
0
LINE
8
BLACK
6
CONTINUOUS
10
1.18
20
0.287874
11
1.18301
21
0.287275
0
LINE
8
BLACK
6
CONTINUOUS
10
1.43301
20
0.287275
11
1.43557
21
0.285568
0
LINE
8
BLACK
6
CONTINUOUS
10
1.43557
20
0.285568
11
1.43727
21
0.283013
0
LINE
8
BLACK
6
CONTINUOUS
10
1.43727
20
0.283013
11
1.43787
21
0.28
0
LINE
8
BLACK
6
CONTINUOUS
10
1.43787
20
0.28
11
1.43787
21
0.22
0
LINE
8
BLACK
6
CONTINUOUS
10
1.43787
20
0.22
11
1.43727
21
0.216987
0
LINE
8
BLACK
6
CONTINUOUS
10
1.43727
20
0.216987
11
1.43557
21
0.214432
0
LINE
8
BLACK
6
CONTINUOUS
10
1.43557
20
0.214432
11
1.43301
21
0.212725
0
LINE
8
BLACK
6
CONTINUOUS
10
1.43301
20
0.212725
11
1.43
21
0.212126
0
LINE
8
BLACK
6
CONTINUOUS
10
1.43
20
0.212126
11
1.37
21
0.212126
0
LINE
8
BLACK
6
CONTINUOUS
10
1.37
20
0.212126
11
1.36699
21
0.212725
0
LINE
8
BLACK
6
CONTINUOUS
10
1.36699
20
0.212725
11
1.36443
21
0.214432
0
LINE
8
BLACK
6
CONTINUOUS
10
1.36443
20
0.214432
11
1.36273
21
0.216987
0
LINE
8
BLACK
6
CONTINUOUS
10
1.36273
20
0.216987
11
1.36213
21
0.22
0
LINE
8
BLACK
6
CONTINUOUS
10
1.36213
20
0.22
11
1.36213
21
0.28
0
LINE
8
BLACK
6
CONTINUOUS
10
1.36213
20
0.28
11
1.36273
21
0.283013
0
LINE
8
BLACK
6
CONTINUOUS
10
1.36273
20
0.283013
11
1.36443
21
0.285568
0
LINE
8
BLACK
6
CONTINUOUS
10
1.36443
20
0.285568
11
1.36699
21
0.287275
0
LINE
8
BLACK
6
CONTINUOUS
10
1.36699
20
0.287275
11
1.37
21
0.287874
0
LINE
8
BLACK
6
CONTINUOUS
10
1.37
20
0.287874
11
1.43
21
0.287874
0
LINE
8
BLACK
6
CONTINUOUS
10
1.43
20
0.287874
11
1.43301
21
0.287275
0
LINE
8
BLACK
6
CONTINUOUS
10
1.99301
20
0.287275
11
1.99557
21
0.285568
0
LINE
8
BLACK
6
CONTINUOUS
10
1.99557
20
0.285568
11
1.99727
21
0.283013
0
LINE
8
BLACK
6
CONTINUOUS
10
1.99727
20
0.283013
11
1.99787
21
0.28
0
LINE
8
BLACK
6
CONTINUOUS
10
1.99787
20
0.28
11
1.99787
21
0.22
0
LINE
8
BLACK
6
CONTINUOUS
10
1.99787
20
0.22
11
1.99727
21
0.216987
0
LINE
8
BLACK
6
CONTINUOUS
10
1.99727
20
0.216987
11
1.99557
21
0.214432
0
LINE
8
BLACK
6
CONTINUOUS
10
1.99557
20
0.214432
11
1.99301
21
0.212725
0
LINE
8
BLACK
6
CONTINUOUS
10
1.99301
20
0.212725
11
1.99
21
0.212126
0
LINE
8
BLACK
6
CONTINUOUS
10
1.99
20
0.212126
11
1.93
21
0.212126
0
LINE
8
BLACK
6
CONTINUOUS
10
1.93
20
0.212126
11
1.92699
21
0.212725
0
LINE
8
BLACK
6
CONTINUOUS
10
1.92699
20
0.212725
11
1.92443
21
0.214432
0
LINE
8
BLACK
6
CONTINUOUS
10
1.92443
20
0.214432
11
1.92273
21
0.216987
0
LINE
8
BLACK
6
CONTINUOUS
10
1.92273
20
0.216987
11
1.92213
21
0.22
0
LINE
8
BLACK
6
CONTINUOUS
10
1.92213
20
0.22
11
1.92213
21
0.28
0
LINE
8
BLACK
6
CONTINUOUS
10
1.92213
20
0.28
11
1.92273
21
0.283013
0
LINE
8
BLACK
6
CONTINUOUS
10
1.92273
20
0.283013
11
1.92443
21
0.285568
0
LINE
8
BLACK
6
CONTINUOUS
10
1.92443
20
0.285568
11
1.92699
21
0.287275
0
LINE
8
BLACK
6
CONTINUOUS
10
1.92699
20
0.287275
11
1.93
21
0.287874
0
LINE
8
BLACK
6
CONTINUOUS
10
1.93
20
0.287874
11
1.99
21
0.287874
0
LINE
8
BLACK
6
CONTINUOUS
10
1.99
20
0.287874
11
1.99301
21
0.287275
0
LINE
8
BLACK
6
CONTINUOUS
10
1.33301
20
0.287275
11
1.33557
21
0.285568
0
LINE
8
BLACK
6
CONTINUOUS
10
1.33557
20
0.285568
11
1.33727
21
0.283013
0
LINE
8
BLACK
6
CONTINUOUS
10
1.33727
20
0.283013
11
1.33787
21
0.28
0
LINE
8
BLACK
6
CONTINUOUS
10
1.33787
20
0.28
11
1.33787
21
0.22
0
LINE
8
BLACK
6
CONTINUOUS
10
1.33787
20
0.22
11
1.33727
21
0.216987
0
LINE
8
BLACK
6
CONTINUOUS
10
1.33727
20
0.216987
11
1.33557
21
0.214432
0
LINE
8
BLACK
6
CONTINUOUS
10
1.33557
20
0.214432
11
1.33301
21
0.212725
0
LINE
8
BLACK
6
CONTINUOUS
10
1.33301
20
0.212725
11
1.33
21
0.212126
0
LINE
8
BLACK
6
CONTINUOUS
10
1.33
20
0.212126
11
1.27
21
0.212126
0
LINE
8
BLACK
6
CONTINUOUS
10
1.27
20
0.212126
11
1.26699
21
0.212725
0
LINE
8
BLACK
6
CONTINUOUS
10
1.26699
20
0.212725
11
1.26443
21
0.214432
0
LINE
8
BLACK
6
CONTINUOUS
10
1.26443
20
0.214432
11
1.26273
21
0.216987
0
LINE
8
BLACK
6
CONTINUOUS
10
1.26273
20
0.216987
11
1.26213
21
0.22
0
LINE
8
BLACK
6
CONTINUOUS
10
1.26213
20
0.22
11
1.26213
21
0.28
0
LINE
8
BLACK
6
CONTINUOUS
10
1.26213
20
0.28
11
1.26273
21
0.283013
0
LINE
8
BLACK
6
CONTINUOUS
10
1.26273
20
0.283013
11
1.26443
21
0.285568
0
LINE
8
BLACK
6
CONTINUOUS
10
1.26443
20
0.285568
11
1.26699
21
0.287275
0
LINE
8
BLACK
6
CONTINUOUS
10
1.26699
20
0.287275
11
1.27
21
0.287874
0
LINE
8
BLACK
6
CONTINUOUS
10
1.27
20
0.287874
11
1.33
21
0.287874
0
LINE
8
BLACK
6
CONTINUOUS
10
1.33
20
0.287874
11
1.33301
21
0.287275
0
LINE
8
BLACK
6
CONTINUOUS
10
1.89301
20
0.287275
11
1.89557
21
0.285568
0
LINE
8
BLACK
6
CONTINUOUS
10
1.89557
20
0.285568
11
1.89727
21
0.283013
0
LINE
8
BLACK
6
CONTINUOUS
10
1.89727
20
0.283013
11
1.89787
21
0.28
0
LINE
8
BLACK
6
CONTINUOUS
10
1.89787
20
0.28
11
1.89787
21
0.22
0
LINE
8
BLACK
6
CONTINUOUS
10
1.89787
20
0.22
11
1.89727
21
0.216987
0
LINE
8
BLACK
6
CONTINUOUS
10
1.89727
20
0.216987
11
1.89557
21
0.214432
0
LINE
8
BLACK
6
CONTINUOUS
10
1.89557
20
0.214432
11
1.89301
21
0.212725
0
LINE
8
BLACK
6
CONTINUOUS
10
1.89301
20
0.212725
11
1.89
21
0.212126
0
LINE
8
BLACK
6
CONTINUOUS
10
1.89
20
0.212126
11
1.83
21
0.212126
0
LINE
8
BLACK
6
CONTINUOUS
10
1.83
20
0.212126
11
1.82699
21
0.212725
0
LINE
8
BLACK
6
CONTINUOUS
10
1.82699
20
0.212725
11
1.82443
21
0.214432
0
LINE
8
BLACK
6
CONTINUOUS
10
1.82443
20
0.214432
11
1.82273
21
0.216987
0
LINE
8
BLACK
6
CONTINUOUS
10
1.82273
20
0.216987
11
1.82213
21
0.22
0
LINE
8
BLACK
6
CONTINUOUS
10
1.82213
20
0.22
11
1.82213
21
0.28
0
LINE
8
BLACK
6
CONTINUOUS
10
1.82213
20
0.28
11
1.82273
21
0.283013
0
LINE
8
BLACK
6
CONTINUOUS
10
1.82273
20
0.283013
11
1.82443
21
0.285568
0
LINE
8
BLACK
6
CONTINUOUS
10
1.82443
20
0.285568
11
1.82699
21
0.287275
0
LINE
8
BLACK
6
CONTINUOUS
10
1.82699
20
0.287275
11
1.83
21
0.287874
0
LINE
8
BLACK
6
CONTINUOUS
10
1.83
20
0.287874
11
1.89
21
0.287874
0
LINE
8
BLACK
6
CONTINUOUS
10
1.89
20
0.287874
11
1.89301
21
0.287275
0
LINE
8
BLACK
6
CONTINUOUS
10
1.79301
20
0.287275
11
1.79557
21
0.285568
0
LINE
8
BLACK
6
CONTINUOUS
10
1.79557
20
0.285568
11
1.79727
21
0.283013
0
LINE
8
BLACK
6
CONTINUOUS
10
1.79727
20
0.283013
11
1.79787
21
0.28
0
LINE
8
BLACK
6
CONTINUOUS
10
1.79787
20
0.28
11
1.79787
21
0.22
0
LINE
8
BLACK
6
CONTINUOUS
10
1.79787
20
0.22
11
1.79727
21
0.216987
0
LINE
8
BLACK
6
CONTINUOUS
10
1.79727
20
0.216987
11
1.79557
21
0.214432
0
LINE
8
BLACK
6
CONTINUOUS
10
1.79557
20
0.214432
11
1.79301
21
0.212725
0
LINE
8
BLACK
6
CONTINUOUS
10
1.79301
20
0.212725
11
1.79
21
0.212126
0
LINE
8
BLACK
6
CONTINUOUS
10
1.79
20
0.212126
11
1.73
21
0.212126
0
LINE
8
BLACK
6
CONTINUOUS
10
1.73
20
0.212126
11
1.72699
21
0.212725
0
LINE
8
BLACK
6
CONTINUOUS
10
1.72699
20
0.212725
11
1.72443
21
0.214432
0
LINE
8
BLACK
6
CONTINUOUS
10
1.72443
20
0.214432
11
1.72273
21
0.216987
0
LINE
8
BLACK
6
CONTINUOUS
10
1.72273
20
0.216987
11
1.72213
21
0.22
0
LINE
8
BLACK
6
CONTINUOUS
10
1.72213
20
0.22
11
1.72213
21
0.28
0
LINE
8
BLACK
6
CONTINUOUS
10
1.72213
20
0.28
11
1.72273
21
0.283013
0
LINE
8
BLACK
6
CONTINUOUS
10
1.72273
20
0.283013
11
1.72443
21
0.285568
0
LINE
8
BLACK
6
CONTINUOUS
10
1.72443
20
0.285568
11
1.72699
21
0.287275
0
LINE
8
BLACK
6
CONTINUOUS
10
1.72699
20
0.287275
11
1.73
21
0.287874
0
LINE
8
BLACK
6
CONTINUOUS
10
1.73
20
0.287874
11
1.79
21
0.287874
0
LINE
8
BLACK
6
CONTINUOUS
10
1.79
20
0.287874
11
1.79301
21
0.287275
0
LINE
8
BLACK
6
CONTINUOUS
10
0.483013
20
0.317275
11
0.485568
21
0.315568
0
LINE
8
BLACK
6
CONTINUOUS
10
0.485568
20
0.315568
11
0.487275
21
0.313013
0
LINE
8
BLACK
6
CONTINUOUS
10
0.487275
20
0.313013
11
0.487874
21
0.31
0
LINE
8
BLACK
6
CONTINUOUS
10
0.487874
20
0.31
11
0.487874
21
0.25
0
LINE
8
BLACK
6
CONTINUOUS
10
0.487874
20
0.25
11
0.487275
21
0.246987
0
LINE
8
BLACK
6
CONTINUOUS
10
0.487275
20
0.246987
11
0.485568
21
0.244432
0
LINE
8
BLACK
6
CONTINUOUS
10
0.485568
20
0.244432
11
0.483013
21
0.242725
0
LINE
8
BLACK
6
CONTINUOUS
10
0.483013
20
0.242725
11
0.48
21
0.242126
0
LINE
8
BLACK
6
CONTINUOUS
10
0.48
20
0.242126
11
0.42
21
0.242126
0
LINE
8
BLACK
6
CONTINUOUS
10
0.42
20
0.242126
11
0.416987
21
0.242725
0
LINE
8
BLACK
6
CONTINUOUS
10
0.416987
20
0.242725
11
0.414432
21
0.244432
0
LINE
8
BLACK
6
CONTINUOUS
10
0.414432
20
0.244432
11
0.412725
21
0.246987
0
LINE
8
BLACK
6
CONTINUOUS
10
0.412725
20
0.246987
11
0.412126
21
0.25
0
LINE
8
BLACK
6
CONTINUOUS
10
0.412126
20
0.25
11
0.412126
21
0.31
0
LINE
8
BLACK
6
CONTINUOUS
10
0.412126
20
0.31
11
0.412725
21
0.313013
0
LINE
8
BLACK
6
CONTINUOUS
10
0.412725
20
0.313013
11
0.414432
21
0.315568
0
LINE
8
BLACK
6
CONTINUOUS
10
0.414432
20
0.315568
11
0.416987
21
0.317275
0
LINE
8
BLACK
6
CONTINUOUS
10
0.416987
20
0.317275
11
0.42
21
0.317874
0
LINE
8
BLACK
6
CONTINUOUS
10
0.42
20
0.317874
11
0.48
21
0.317874
0
LINE
8
BLACK
6
CONTINUOUS
10
0.48
20
0.317874
11
0.483013
21
0.317275
0
LINE
8
BLACK
6
CONTINUOUS
10
0.583013
20
0.317275
11
0.585568
21
0.315568
0
LINE
8
BLACK
6
CONTINUOUS
10
0.585568
20
0.315568
11
0.587275
21
0.313013
0
LINE
8
BLACK
6
CONTINUOUS
10
0.587275
20
0.313013
11
0.587874
21
0.31
0
LINE
8
BLACK
6
CONTINUOUS
10
0.587874
20
0.31
11
0.587874
21
0.25
0
LINE
8
BLACK
6
CONTINUOUS
10
0.587874
20
0.25
11
0.587275
21
0.246987
0
LINE
8
BLACK
6
CONTINUOUS
10
0.587275
20
0.246987
11
0.585568
21
0.244432
0
LINE
8
BLACK
6
CONTINUOUS
10
0.585568
20
0.244432
11
0.583013
21
0.242725
0
LINE
8
BLACK
6
CONTINUOUS
10
0.583013
20
0.242725
11
0.58
21
0.242126
0
LINE
8
BLACK
6
CONTINUOUS
10
0.58
20
0.242126
11
0.52
21
0.242126
0
LINE
8
BLACK
6
CONTINUOUS
10
0.52
20
0.242126
11
0.516987
21
0.242725
0
LINE
8
BLACK
6
CONTINUOUS
10
0.516987
20
0.242725
11
0.514432
21
0.244432
0
LINE
8
BLACK
6
CONTINUOUS
10
0.514432
20
0.244432
11
0.512725
21
0.246987
0
LINE
8
BLACK
6
CONTINUOUS
10
0.512725
20
0.246987
11
0.512126
21
0.25
0
LINE
8
BLACK
6
CONTINUOUS
10
0.512126
20
0.25
11
0.512126
21
0.31
0
LINE
8
BLACK
6
CONTINUOUS
10
0.512126
20
0.31
11
0.512725
21
0.313013
0
LINE
8
BLACK
6
CONTINUOUS
10
0.512725
20
0.313013
11
0.514432
21
0.315568
0
LINE
8
BLACK
6
CONTINUOUS
10
0.514432
20
0.315568
11
0.516987
21
0.317275
0
LINE
8
BLACK
6
CONTINUOUS
10
0.516987
20
0.317275
11
0.52
21
0.317874
0
LINE
8
BLACK
6
CONTINUOUS
10
0.52
20
0.317874
11
0.58
21
0.317874
0
LINE
8
BLACK
6
CONTINUOUS
10
0.58
20
0.317874
11
0.583013
21
0.317275
0
LINE
8
BLACK
6
CONTINUOUS
10
0.683013
20
0.317275
11
0.685568
21
0.315568
0
LINE
8
BLACK
6
CONTINUOUS
10
0.685568
20
0.315568
11
0.687275
21
0.313013
0
LINE
8
BLACK
6
CONTINUOUS
10
0.687275
20
0.313013
11
0.687874
21
0.31
0
LINE
8
BLACK
6
CONTINUOUS
10
0.687874
20
0.31
11
0.687874
21
0.25
0
LINE
8
BLACK
6
CONTINUOUS
10
0.687874
20
0.25
11
0.687275
21
0.246987
0
LINE
8
BLACK
6
CONTINUOUS
10
0.687275
20
0.246987
11
0.685568
21
0.244432
0
LINE
8
BLACK
6
CONTINUOUS
10
0.685568
20
0.244432
11
0.683013
21
0.242725
0
LINE
8
BLACK
6
CONTINUOUS
10
0.683013
20
0.242725
11
0.68
21
0.242126
0
LINE
8
BLACK
6
CONTINUOUS
10
0.68
20
0.242126
11
0.62
21
0.242126
0
LINE
8
BLACK
6
CONTINUOUS
10
0.62
20
0.242126
11
0.616987
21
0.242725
0
LINE
8
BLACK
6
CONTINUOUS
10
0.616987
20
0.242725
11
0.614432
21
0.244432
0
LINE
8
BLACK
6
CONTINUOUS
10
0.614432
20
0.244432
11
0.612725
21
0.246987
0
LINE
8
BLACK
6
CONTINUOUS
10
0.612725
20
0.246987
11
0.612126
21
0.25
0
LINE
8
BLACK
6
CONTINUOUS
10
0.612126
20
0.25
11
0.612126
21
0.31
0
LINE
8
BLACK
6
CONTINUOUS
10
0.612126
20
0.31
11
0.612725
21
0.313013
0
LINE
8
BLACK
6
CONTINUOUS
10
0.612725
20
0.313013
11
0.614432
21
0.315568
0
LINE
8
BLACK
6
CONTINUOUS
10
0.614432
20
0.315568
11
0.616987
21
0.317275
0
LINE
8
BLACK
6
CONTINUOUS
10
0.616987
20
0.317275
11
0.62
21
0.317874
0
LINE
8
BLACK
6
CONTINUOUS
10
0.62
20
0.317874
11
0.68
21
0.317874
0
LINE
8
BLACK
6
CONTINUOUS
10
0.68
20
0.317874
11
0.683013
21
0.317275
0
LINE
8
BLACK
6
CONTINUOUS
10
0.583013
20
0.437275
11
0.585568
21
0.435568
0
LINE
8
BLACK
6
CONTINUOUS
10
0.585568
20
0.435568
11
0.587275
21
0.433013
0
LINE
8
BLACK
6
CONTINUOUS
10
0.587275
20
0.433013
11
0.587874
21
0.43
0
LINE
8
BLACK
6
CONTINUOUS
10
0.587874
20
0.43
11
0.587874
21
0.37
0
LINE
8
BLACK
6
CONTINUOUS
10
0.587874
20
0.37
11
0.587275
21
0.366987
0
LINE
8
BLACK
6
CONTINUOUS
10
0.587275
20
0.366987
11
0.585568
21
0.364432
0
LINE
8
BLACK
6
CONTINUOUS
10
0.585568
20
0.364432
11
0.583013
21
0.362725
0
LINE
8
BLACK
6
CONTINUOUS
10
0.583013
20
0.362725
11
0.58
21
0.362126
0
LINE
8
BLACK
6
CONTINUOUS
10
0.58
20
0.362126
11
0.52
21
0.362126
0
LINE
8
BLACK
6
CONTINUOUS
10
0.52
20
0.362126
11
0.516987
21
0.362725
0
LINE
8
BLACK
6
CONTINUOUS
10
0.516987
20
0.362725
11
0.514432
21
0.364432
0
LINE
8
BLACK
6
CONTINUOUS
10
0.514432
20
0.364432
11
0.512725
21
0.366987
0
LINE
8
BLACK
6
CONTINUOUS
10
0.512725
20
0.366987
11
0.512126
21
0.37
0
LINE
8
BLACK
6
CONTINUOUS
10
0.512126
20
0.37
11
0.512126
21
0.43
0
LINE
8
BLACK
6
CONTINUOUS
10
0.512126
20
0.43
11
0.512725
21
0.433013
0
LINE
8
BLACK
6
CONTINUOUS
10
0.512725
20
0.433013
11
0.514432
21
0.435568
0
LINE
8
BLACK
6
CONTINUOUS
10
0.514432
20
0.435568
11
0.516987
21
0.437275
0
LINE
8
BLACK
6
CONTINUOUS
10
0.516987
20
0.437275
11
0.52
21
0.437874
0
LINE
8
BLACK
6
CONTINUOUS
10
0.52
20
0.437874
11
0.58
21
0.437874
0
LINE
8
BLACK
6
CONTINUOUS
10
0.58
20
0.437874
11
0.583013
21
0.437275
0
LINE
8
BLACK
6
CONTINUOUS
10
0.483013
20
0.437275
11
0.485568
21
0.435568
0
LINE
8
BLACK
6
CONTINUOUS
10
0.485568
20
0.435568
11
0.487275
21
0.433013
0
LINE
8
BLACK
6
CONTINUOUS
10
0.487275
20
0.433013
11
0.487874
21
0.43
0
LINE
8
BLACK
6
CONTINUOUS
10
0.487874
20
0.43
11
0.487874
21
0.37
0
LINE
8
BLACK
6
CONTINUOUS
10
0.487874
20
0.37
11
0.487275
21
0.366987
0
LINE
8
BLACK
6
CONTINUOUS
10
0.487275
20
0.366987
11
0.485568
21
0.364432
0
LINE
8
BLACK
6
CONTINUOUS
10
0.485568
20
0.364432
11
0.483013
21
0.362725
0
LINE
8
BLACK
6
CONTINUOUS
10
0.483013
20
0.362725
11
0.48
21
0.362126
0
LINE
8
BLACK
6
CONTINUOUS
10
0.48
20
0.362126
11
0.42
21
0.362126
0
LINE
8
BLACK
6
CONTINUOUS
10
0.42
20
0.362126
11
0.416987
21
0.362725
0
LINE
8
BLACK
6
CONTINUOUS
10
0.416987
20
0.362725
11
0.414432
21
0.364432
0
LINE
8
BLACK
6
CONTINUOUS
10
0.414432
20
0.364432
11
0.412725
21
0.366987
0
LINE
8
BLACK
6
CONTINUOUS
10
0.412725
20
0.366987
11
0.412126
21
0.37
0
LINE
8
BLACK
6
CONTINUOUS
10
0.412126
20
0.37
11
0.412126
21
0.43
0
LINE
8
BLACK
6
CONTINUOUS
10
0.412126
20
0.43
11
0.412725
21
0.433013
0
LINE
8
BLACK
6
CONTINUOUS
10
0.412725
20
0.433013
11
0.414432
21
0.435568
0
LINE
8
BLACK
6
CONTINUOUS
10
0.414432
20
0.435568
11
0.416987
21
0.437275
0
LINE
8
BLACK
6
CONTINUOUS
10
0.416987
20
0.437275
11
0.42
21
0.437874
0
LINE
8
BLACK
6
CONTINUOUS
10
0.42
20
0.437874
11
0.48
21
0.437874
0
LINE
8
BLACK
6
CONTINUOUS
10
0.48
20
0.437874
11
0.483013
21
0.437275
0
LINE
8
BLACK
6
CONTINUOUS
10
0.683013
20
0.437275
11
0.685568
21
0.435568
0
LINE
8
BLACK
6
CONTINUOUS
10
0.685568
20
0.435568
11
0.687275
21
0.433013
0
LINE
8
BLACK
6
CONTINUOUS
10
0.687275
20
0.433013
11
0.687874
21
0.43
0
LINE
8
BLACK
6
CONTINUOUS
10
0.687874
20
0.43
11
0.687874
21
0.37
0
LINE
8
BLACK
6
CONTINUOUS
10
0.687874
20
0.37
11
0.687275
21
0.366987
0
LINE
8
BLACK
6
CONTINUOUS
10
0.687275
20
0.366987
11
0.685568
21
0.364432
0
LINE
8
BLACK
6
CONTINUOUS
10
0.685568
20
0.364432
11
0.683013
21
0.362725
0
LINE
8
BLACK
6
CONTINUOUS
10
0.683013
20
0.362725
11
0.68
21
0.362126
0
LINE
8
BLACK
6
CONTINUOUS
10
0.68
20
0.362126
11
0.62
21
0.362126
0
LINE
8
BLACK
6
CONTINUOUS
10
0.62
20
0.362126
11
0.616987
21
0.362725
0
LINE
8
BLACK
6
CONTINUOUS
10
0.616987
20
0.362725
11
0.614432
21
0.364432
0
LINE
8
BLACK
6
CONTINUOUS
10
0.614432
20
0.364432
11
0.612725
21
0.366987
0
LINE
8
BLACK
6
CONTINUOUS
10
0.612725
20
0.366987
11
0.612126
21
0.37
0
LINE
8
BLACK
6
CONTINUOUS
10
0.612126
20
0.37
11
0.612126
21
0.43
0
LINE
8
BLACK
6
CONTINUOUS
10
0.612126
20
0.43
11
0.612725
21
0.433013
0
LINE
8
BLACK
6
CONTINUOUS
10
0.612725
20
0.433013
11
0.614432
21
0.435568
0
LINE
8
BLACK
6
CONTINUOUS
10
0.614432
20
0.435568
11
0.616987
21
0.437275
0
LINE
8
BLACK
6
CONTINUOUS
10
0.616987
20
0.437275
11
0.62
21
0.437874
0
LINE
8
BLACK
6
CONTINUOUS
10
0.62
20
0.437874
11
0.68
21
0.437874
0
LINE
8
BLACK
6
CONTINUOUS
10
0.68
20
0.437874
11
0.683013
21
0.437275
0
LINE
8
BLACK
6
CONTINUOUS
10
0.436577
20
0.638031
11
0.447141
21
0.635583
0
LINE
8
BLACK
6
CONTINUOUS
10
0.447141
20
0.635583
11
0.457255
21
0.63167
0
LINE
8
BLACK
6
CONTINUOUS
10
0.457255
20
0.63167
11
0.466716
21
0.626371
0
LINE
8
BLACK
6
CONTINUOUS
10
0.466716
20
0.626371
11
0.475337
21
0.619792
0
LINE
8
BLACK
6
CONTINUOUS
10
0.475337
20
0.619792
11
0.482945
21
0.612064
0
LINE
8
BLACK
6
CONTINUOUS
10
0.482945
20
0.612064
11
0.489387
21
0.603341
0
LINE
8
BLACK
6
CONTINUOUS
10
0.489387
20
0.603341
11
0.494537
21
0.593797
0
LINE
8
BLACK
6
CONTINUOUS
10
0.494537
20
0.593797
11
0.49829
21
0.583623
0
LINE
8
BLACK
6
CONTINUOUS
10
0.49829
20
0.583623
11
0.500573
21
0.573022
0
LINE
8
BLACK
6
CONTINUOUS
10
0.500573
20
0.573022
11
0.501339
21
0.562205
0
LINE
8
BLACK
6
CONTINUOUS
10
0.501339
20
0.562205
11
0.501187
21
0.557384
0
LINE
8
BLACK
6
CONTINUOUS
10
0.501187
20
0.557384
11
0.499743
21
0.546636
0
LINE
8
BLACK
6
CONTINUOUS
10
0.499743
20
0.546636
11
0.4968
21
0.536199
0
LINE
8
BLACK
6
CONTINUOUS
10
0.4968
20
0.536199
11
0.492415
21
0.526281
0
LINE
8
BLACK
6
CONTINUOUS
10
0.492415
20
0.526281
11
0.486676
21
0.517079
0
LINE
8
BLACK
6
CONTINUOUS
10
0.486676
20
0.517079
11
0.479699
21
0.508778
0
LINE
8
BLACK
6
CONTINUOUS
10
0.479699
20
0.508778
11
0.471621
21
0.501543
0
LINE
8
BLACK
6
CONTINUOUS
10
0.471621
20
0.501543
11
0.462604
21
0.495518
0
LINE
8
BLACK
6
CONTINUOUS
10
0.462604
20
0.495518
11
0.452828
21
0.490824
0
LINE
8
BLACK
6
CONTINUOUS
10
0.452828
20
0.490824
11
0.442489
21
0.487554
0
LINE
8
BLACK
6
CONTINUOUS
10
0.442489
20
0.487554
11
0.431792
21
0.485774
0
LINE
8
BLACK
6
CONTINUOUS
10
0.431792
20
0.485774
11
0.42095
21
0.485518
0
LINE
8
BLACK
6
CONTINUOUS
10
0.42095
20
0.485518
11
0.410181
21
0.486793
0
LINE
8
BLACK
6
CONTINUOUS
10
0.410181
20
0.486793
11
0.399699
21
0.489572
0
LINE
8
BLACK
6
CONTINUOUS
10
0.399699
20
0.489572
11
0.389713
21
0.493801
0
LINE
8
BLACK
6
CONTINUOUS
10
0.389713
20
0.493801
11
0.380423
21
0.499394
0
LINE
8
BLACK
6
CONTINUOUS
10
0.380423
20
0.499394
11
0.372013
21
0.506241
0
LINE
8
BLACK
6
CONTINUOUS
10
0.372013
20
0.506241
11
0.364652
21
0.514204
0
LINE
8
BLACK
6
CONTINUOUS
10
0.364652
20
0.514204
11
0.358486
21
0.523125
0
LINE
8
BLACK
6
CONTINUOUS
10
0.358486
20
0.523125
11
0.353639
21
0.532825
0
LINE
8
BLACK
6
CONTINUOUS
10
0.353639
20
0.532825
11
0.350207
21
0.543112
0
LINE
8
BLACK
6
CONTINUOUS
10
0.350207
20
0.543112
11
0.348259
21
0.55378
0
LINE
8
BLACK
6
CONTINUOUS
10
0.348259
20
0.55378
11
0.347833
21
0.564616
0
LINE
8
BLACK
6
CONTINUOUS
10
0.347833
20
0.564616
11
0.348938
21
0.575404
0
LINE
8
BLACK
6
CONTINUOUS
10
0.348938
20
0.575404
11
0.351553
21
0.585928
0
LINE
8
BLACK
6
CONTINUOUS
10
0.351553
20
0.585928
11
0.355624
21
0.59598
0
LINE
8
BLACK
6
CONTINUOUS
10
0.355624
20
0.59598
11
0.361071
21
0.605357
0
LINE
8
BLACK
6
CONTINUOUS
10
0.361071
20
0.605357
11
0.367784
21
0.613873
0
LINE
8
BLACK
6
CONTINUOUS
10
0.367784
20
0.613873
11
0.375631
21
0.621358
0
LINE
8
BLACK
6
CONTINUOUS
10
0.375631
20
0.621358
11
0.384454
21
0.627663
0
LINE
8
BLACK
6
CONTINUOUS
10
0.384454
20
0.627663
11
0.394077
21
0.632662
0
LINE
8
BLACK
6
CONTINUOUS
10
0.394077
20
0.632662
11
0.404309
21
0.636255
0
LINE
8
BLACK
6
CONTINUOUS
10
0.404309
20
0.636255
11
0.414945
21
0.638371
0
LINE
8
BLACK
6
CONTINUOUS
10
0.414945
20
0.638371
11
0.425773
21
0.638967
0
LINE
8
BLACK
6
CONTINUOUS
10
0.425773
20
0.638967
11
0.436577
21
0.638031
0
LINE
8
BLACK
6
CONTINUOUS
10
2.04301
20
0.597275
11
2.04557
21
0.595568
0
LINE
8
BLACK
6
CONTINUOUS
10
2.04557
20
0.595568
11
2.04727
21
0.593013
0
LINE
8
BLACK
6
CONTINUOUS
10
2.04727
20
0.593013
11
2.04787
21
0.59
0
LINE
8
BLACK
6
CONTINUOUS
10
2.04787
20
0.59
11
2.04787
21
0.53
0
LINE
8
BLACK
6
CONTINUOUS
10
2.04787
20
0.53
11
2.04727
21
0.526987
0
LINE
8
BLACK
6
CONTINUOUS
10
2.04727
20
0.526987
11
2.04557
21
0.524432
0
LINE
8
BLACK
6
CONTINUOUS
10
2.04557
20
0.524432
11
2.04301
21
0.522725
0
LINE
8
BLACK
6
CONTINUOUS
10
2.04301
20
0.522725
11
2.04
21
0.522126
0
LINE
8
BLACK
6
CONTINUOUS
10
2.04
20
0.522126
11
1.98
21
0.522126
0
LINE
8
BLACK
6
CONTINUOUS
10
1.98
20
0.522126
11
1.97699
21
0.522725
0
LINE
8
BLACK
6
CONTINUOUS
10
1.97699
20
0.522725
11
1.97443
21
0.524432
0
LINE
8
BLACK
6
CONTINUOUS
10
1.97443
20
0.524432
11
1.97273
21
0.526987
0
LINE
8
BLACK
6
CONTINUOUS
10
1.97273
20
0.526987
11
1.97213
21
0.53
0
LINE
8
BLACK
6
CONTINUOUS
10
1.97213
20
0.53
11
1.97213
21
0.59
0
LINE
8
BLACK
6
CONTINUOUS
10
1.97213
20
0.59
11
1.97273
21
0.593013
0
LINE
8
BLACK
6
CONTINUOUS
10
1.97273
20
0.593013
11
1.97443
21
0.595568
0
LINE
8
BLACK
6
CONTINUOUS
10
1.97443
20
0.595568
11
1.97699
21
0.597275
0
LINE
8
BLACK
6
CONTINUOUS
10
1.97699
20
0.597275
11
1.98
21
0.597874
0
LINE
8
BLACK
6
CONTINUOUS
10
1.98
20
0.597874
11
2.04
21
0.597874
0
LINE
8
BLACK
6
CONTINUOUS
10
2.04
20
0.597874
11
2.04301
21
0.597275
0
LINE
8
BLACK
6
CONTINUOUS
10
2.04301
20
0.697275
11
2.04557
21
0.695568
0
LINE
8
BLACK
6
CONTINUOUS
10
2.04557
20
0.695568
11
2.04727
21
0.693013
0
LINE
8
BLACK
6
CONTINUOUS
10
2.04727
20
0.693013
11
2.04787
21
0.69
0
LINE
8
BLACK
6
CONTINUOUS
10
2.04787
20
0.69
11
2.04787
21
0.63
0
LINE
8
BLACK
6
CONTINUOUS
10
2.04787
20
0.63
11
2.04727
21
0.626987
0
LINE
8
BLACK
6
CONTINUOUS
10
2.04727
20
0.626987
11
2.04557
21
0.624432
0
LINE
8
BLACK
6
CONTINUOUS
10
2.04557
20
0.624432
11
2.04301
21
0.622725
0
LINE
8
BLACK
6
CONTINUOUS
10
2.04301
20
0.622725
11
2.04
21
0.622126
0
LINE
8
BLACK
6
CONTINUOUS
10
2.04
20
0.622126
11
1.98
21
0.622126
0
LINE
8
BLACK
6
CONTINUOUS
10
1.98
20
0.622126
11
1.97699
21
0.622725
0
LINE
8
BLACK
6
CONTINUOUS
10
1.97699
20
0.622725
11
1.97443
21
0.624432
0
LINE
8
BLACK
6
CONTINUOUS
10
1.97443
20
0.624432
11
1.97273
21
0.626987
0
LINE
8
BLACK
6
CONTINUOUS
10
1.97273
20
0.626987
11
1.97213
21
0.63
0
LINE
8
BLACK
6
CONTINUOUS
10
1.97213
20
0.63
11
1.97213
21
0.69
0
LINE
8
BLACK
6
CONTINUOUS
10
1.97213
20
0.69
11
1.97273
21
0.693013
0
LINE
8
BLACK
6
CONTINUOUS
10
1.97273
20
0.693013
11
1.97443
21
0.695568
0
LINE
8
BLACK
6
CONTINUOUS
10
1.97443
20
0.695568
11
1.97699
21
0.697275
0
LINE
8
BLACK
6
CONTINUOUS
10
1.97699
20
0.697275
11
1.98
21
0.697874
0
LINE
8
BLACK
6
CONTINUOUS
10
1.98
20
0.697874
11
2.04
21
0.697874
0
LINE
8
BLACK
6
CONTINUOUS
10
2.04
20
0.697874
11
2.04301
21
0.697275
0
LINE
8
BLACK
6
CONTINUOUS
10
0.974509
20
0.758771
11
0.977064
21
0.757064
0
LINE
8
BLACK
6
CONTINUOUS
10
0.977064
20
0.757064
11
0.978771
21
0.754509
0
LINE
8
BLACK
6
CONTINUOUS
10
0.978771
20
0.754509
11
0.97937
21
0.751496
0
LINE
8
BLACK
6
CONTINUOUS
10
0.97937
20
0.751496
11
0.97937
21
0.688504
0
LINE
8
BLACK
6
CONTINUOUS
10
0.97937
20
0.688504
11
0.978771
21
0.685491
0
LINE
8
BLACK
6
CONTINUOUS
10
0.978771
20
0.685491
11
0.977064
21
0.682936
0
LINE
8
BLACK
6
CONTINUOUS
10
0.977064
20
0.682936
11
0.974509
21
0.681229
0
LINE
8
BLACK
6
CONTINUOUS
10
0.974509
20
0.681229
11
0.971496
21
0.68063
0
LINE
8
BLACK
6
CONTINUOUS
10
0.971496
20
0.68063
11
0.908504
21
0.68063
0
LINE
8
BLACK
6
CONTINUOUS
10
0.908504
20
0.68063
11
0.905491
21
0.681229
0
LINE
8
BLACK
6
CONTINUOUS
10
0.905491
20
0.681229
11
0.902936
21
0.682936
0
LINE
8
BLACK
6
CONTINUOUS
10
0.902936
20
0.682936
11
0.901229
21
0.685491
0
LINE
8
BLACK
6
CONTINUOUS
10
0.901229
20
0.685491
11
0.90063
21
0.688504
0
LINE
8
BLACK
6
CONTINUOUS
10
0.90063
20
0.688504
11
0.90063
21
0.751496
0
LINE
8
BLACK
6
CONTINUOUS
10
0.90063
20
0.751496
11
0.901229
21
0.754509
0
LINE
8
BLACK
6
CONTINUOUS
10
0.901229
20
0.754509
11
0.902936
21
0.757064
0
LINE
8
BLACK
6
CONTINUOUS
10
0.902936
20
0.757064
11
0.905491
21
0.758771
0
LINE
8
BLACK
6
CONTINUOUS
10
0.905491
20
0.758771
11
0.908504
21
0.75937
0
LINE
8
BLACK
6
CONTINUOUS
10
0.908504
20
0.75937
11
0.971496
21
0.75937
0
LINE
8
BLACK
6
CONTINUOUS
10
0.971496
20
0.75937
11
0.974509
21
0.758771
0
LINE
8
BLACK
6
CONTINUOUS
10
0.810121
20
0.758566
11
0.817461
21
0.756294
0
LINE
8
BLACK
6
CONTINUOUS
10
0.817461
20
0.756294
11
0.82422
21
0.752639
0
LINE
8
BLACK
6
CONTINUOUS
10
0.82422
20
0.752639
11
0.830141
21
0.747741
0
LINE
8
BLACK
6
CONTINUOUS
10
0.830141
20
0.747741
11
0.834997
21
0.741787
0
LINE
8
BLACK
6
CONTINUOUS
10
0.834997
20
0.741787
11
0.838604
21
0.735003
0
LINE
8
BLACK
6
CONTINUOUS
10
0.838604
20
0.735003
11
0.840825
21
0.727647
0
LINE
8
BLACK
6
CONTINUOUS
10
0.840825
20
0.727647
11
0.841575
21
0.72
0
LINE
8
BLACK
6
CONTINUOUS
10
0.841575
20
0.72
11
0.841559
21
0.718901
0
LINE
8
BLACK
6
CONTINUOUS
10
0.841559
20
0.718901
11
0.840596
21
0.711278
0
LINE
8
BLACK
6
CONTINUOUS
10
0.840596
20
0.711278
11
0.838171
21
0.703987
0
LINE
8
BLACK
6
CONTINUOUS
10
0.838171
20
0.703987
11
0.834376
21
0.697306
0
LINE
8
BLACK
6
CONTINUOUS
10
0.834376
20
0.697306
11
0.829355
21
0.691489
0
LINE
8
BLACK
6
CONTINUOUS
10
0.829355
20
0.691489
11
0.8233
21
0.686759
0
LINE
8
BLACK
6
CONTINUOUS
10
0.8233
20
0.686759
11
0.816442
21
0.683294
0
LINE
8
BLACK
6
CONTINUOUS
10
0.816442
20
0.683294
11
0.809041
21
0.681228
0
LINE
8
BLACK
6
CONTINUOUS
10
0.809041
20
0.681228
11
0.80138
21
0.680639
0
LINE
8
BLACK
6
CONTINUOUS
10
0.80138
20
0.680639
11
0.793751
21
0.681548
0
LINE
8
BLACK
6
CONTINUOUS
10
0.793751
20
0.681548
11
0.786443
21
0.683923
0
LINE
8
BLACK
6
CONTINUOUS
10
0.786443
20
0.683923
11
0.779736
21
0.687671
0
LINE
8
BLACK
6
CONTINUOUS
10
0.779736
20
0.687671
11
0.773884
21
0.692651
0
LINE
8
BLACK
6
CONTINUOUS
10
0.773884
20
0.692651
11
0.769112
21
0.698673
0
LINE
8
BLACK
6
CONTINUOUS
10
0.769112
20
0.698673
11
0.765599
21
0.705507
0
LINE
8
BLACK
6
CONTINUOUS
10
0.765599
20
0.705507
11
0.763481
21
0.712893
0
LINE
8
BLACK
6
CONTINUOUS
10
0.763481
20
0.712893
11
0.762838
21
0.72055
0
LINE
8
BLACK
6
CONTINUOUS
10
0.762838
20
0.72055
11
0.763695
21
0.728186
0
LINE
8
BLACK
6
CONTINUOUS
10
0.763695
20
0.728186
11
0.766018
21
0.73551
0
LINE
8
BLACK
6
CONTINUOUS
10
0.766018
20
0.73551
11
0.76972
21
0.742243
0
LINE
8
BLACK
6
CONTINUOUS
10
0.76972
20
0.742243
11
0.774659
21
0.748129
0
LINE
8
BLACK
6
CONTINUOUS
10
0.774659
20
0.748129
11
0.780647
21
0.752943
0
LINE
8
BLACK
6
CONTINUOUS
10
0.780647
20
0.752943
11
0.787456
21
0.756503
0
LINE
8
BLACK
6
CONTINUOUS
10
0.787456
20
0.756503
11
0.794828
21
0.758673
0
LINE
8
BLACK
6
CONTINUOUS
10
0.794828
20
0.758673
11
0.80248
21
0.759369
0
LINE
8
BLACK
6
CONTINUOUS
10
0.80248
20
0.759369
11
0.810121
21
0.758566
0
LINE
8
BLACK
6
CONTINUOUS
10
0.646478
20
0.790739
11
0.649032
21
0.789032
0
LINE
8
BLACK
6
CONTINUOUS
10
0.649032
20
0.789032
11
0.650739
21
0.786478
0
LINE
8
BLACK
6
CONTINUOUS
10
0.650739
20
0.786478
11
0.651339
21
0.783465
0
LINE
8
BLACK
6
CONTINUOUS
10
0.651339
20
0.783465
11
0.651339
21
0.716535
0
LINE
8
BLACK
6
CONTINUOUS
10
0.651339
20
0.716535
11
0.650739
21
0.713522
0
LINE
8
BLACK
6
CONTINUOUS
10
0.650739
20
0.713522
11
0.649032
21
0.710968
0
LINE
8
BLACK
6
CONTINUOUS
10
0.649032
20
0.710968
11
0.646478
21
0.709261
0
LINE
8
BLACK
6
CONTINUOUS
10
0.646478
20
0.709261
11
0.643465
21
0.708661
0
LINE
8
BLACK
6
CONTINUOUS
10
0.643465
20
0.708661
11
0.576535
21
0.708661
0
LINE
8
BLACK
6
CONTINUOUS
10
0.576535
20
0.708661
11
0.573522
21
0.709261
0
LINE
8
BLACK
6
CONTINUOUS
10
0.573522
20
0.709261
11
0.570968
21
0.710968
0
LINE
8
BLACK
6
CONTINUOUS
10
0.570968
20
0.710968
11
0.569261
21
0.713522
0
LINE
8
BLACK
6
CONTINUOUS
10
0.569261
20
0.713522
11
0.568661
21
0.716535
0
LINE
8
BLACK
6
CONTINUOUS
10
0.568661
20
0.716535
11
0.568661
21
0.732547
0
LINE
8
BLACK
6
CONTINUOUS
10
0.568661
20
0.732547
11
0.565039
21
0.726171
0
LINE
8
BLACK
6
CONTINUOUS
10
0.565039
20
0.726171
11
0.559768
21
0.720064
0
LINE
8
BLACK
6
CONTINUOUS
10
0.559768
20
0.720064
11
0.55341
21
0.715097
0
LINE
8
BLACK
6
CONTINUOUS
10
0.55341
20
0.715097
11
0.546209
21
0.711459
0
LINE
8
BLACK
6
CONTINUOUS
10
0.546209
20
0.711459
11
0.538438
21
0.709289
0
LINE
8
BLACK
6
CONTINUOUS
10
0.538438
20
0.709289
11
0.530394
21
0.70867
0
LINE
8
BLACK
6
CONTINUOUS
10
0.530394
20
0.70867
11
0.522383
21
0.709626
0
LINE
8
BLACK
6
CONTINUOUS
10
0.522383
20
0.709626
11
0.51471
21
0.712119
0
LINE
8
BLACK
6
CONTINUOUS
10
0.51471
20
0.712119
11
0.507667
21
0.716055
0
LINE
8
BLACK
6
CONTINUOUS
10
0.507667
20
0.716055
11
0.501523
21
0.721284
0
LINE
8
BLACK
6
CONTINUOUS
10
0.501523
20
0.721284
11
0.496512
21
0.727607
0
LINE
8
BLACK
6
CONTINUOUS
10
0.496512
20
0.727607
11
0.492824
21
0.734782
0
LINE
8
BLACK
6
CONTINUOUS
10
0.492824
20
0.734782
11
0.4906
21
0.742538
0
LINE
8
BLACK
6
CONTINUOUS
10
0.4906
20
0.742538
11
0.489925
21
0.750577
0
LINE
8
BLACK
6
CONTINUOUS
10
0.489925
20
0.750577
11
0.490825
21
0.758595
0
LINE
8
BLACK
6
CONTINUOUS
10
0.490825
20
0.758595
11
0.493264
21
0.766285
0
LINE
8
BLACK
6
CONTINUOUS
10
0.493264
20
0.766285
11
0.497151
21
0.773355
0
LINE
8
BLACK
6
CONTINUOUS
10
0.497151
20
0.773355
11
0.502337
21
0.779535
0
LINE
8
BLACK
6
CONTINUOUS
10
0.502337
20
0.779535
11
0.508624
21
0.784591
0
LINE
8
BLACK
6
CONTINUOUS
10
0.508624
20
0.784591
11
0.515774
21
0.788328
0
LINE
8
BLACK
6
CONTINUOUS
10
0.515774
20
0.788328
11
0.523514
21
0.790606
0
LINE
8
BLACK
6
CONTINUOUS
10
0.523514
20
0.790606
11
0.531548
21
0.791338
0
LINE
8
BLACK
6
CONTINUOUS
10
0.531548
20
0.791338
11
0.539572
21
0.790494
0
LINE
8
BLACK
6
CONTINUOUS
10
0.539572
20
0.790494
11
0.547279
21
0.788109
0
LINE
8
BLACK
6
CONTINUOUS
10
0.547279
20
0.788109
11
0.554376
21
0.784271
0
LINE
8
BLACK
6
CONTINUOUS
10
0.554376
20
0.784271
11
0.560592
21
0.779129
0
LINE
8
BLACK
6
CONTINUOUS
10
0.560592
20
0.779129
11
0.565692
21
0.772876
0
LINE
8
BLACK
6
CONTINUOUS
10
0.565692
20
0.772876
11
0.568661
21
0.767291
0
LINE
8
BLACK
6
CONTINUOUS
10
0.568661
20
0.767291
11
0.568661
21
0.783465
0
LINE
8
BLACK
6
CONTINUOUS
10
0.568661
20
0.783465
11
0.569261
21
0.786478
0
LINE
8
BLACK
6
CONTINUOUS
10
0.569261
20
0.786478
11
0.570968
21
0.789032
0
LINE
8
BLACK
6
CONTINUOUS
10
0.570968
20
0.789032
11
0.573522
21
0.790739
0
LINE
8
BLACK
6
CONTINUOUS
10
0.573522
20
0.790739
11
0.576535
21
0.791339
0
LINE
8
BLACK
6
CONTINUOUS
10
0.576535
20
0.791339
11
0.643465
21
0.791339
0
LINE
8
BLACK
6
CONTINUOUS
10
0.643465
20
0.791339
11
0.646478
21
0.790739
0
LINE
8
BLACK
6
CONTINUOUS
10
2.08955
20
0.920272
11
2.09886
21
0.918037
0
LINE
8
BLACK
6
CONTINUOUS
10
2.09886
20
0.918037
11
2.1077
21
0.914372
0
LINE
8
BLACK
6
CONTINUOUS
10
2.1077
20
0.914372
11
2.11587
21
0.909369
0
LINE
8
BLACK
6
CONTINUOUS
10
2.11587
20
0.909369
11
2.12315
21
0.90315
0
LINE
8
BLACK
6
CONTINUOUS
10
2.12315
20
0.90315
11
2.12937
21
0.895869
0
LINE
8
BLACK
6
CONTINUOUS
10
2.12937
20
0.895869
11
2.13437
21
0.887704
0
LINE
8
BLACK
6
CONTINUOUS
10
2.13437
20
0.887704
11
2.13804
21
0.878857
0
LINE
8
BLACK
6
CONTINUOUS
10
2.13804
20
0.878857
11
2.14027
21
0.869546
0
LINE
8
BLACK
6
CONTINUOUS
10
2.14027
20
0.869546
11
2.14102
21
0.86
0
LINE
8
BLACK
6
CONTINUOUS
10
2.14102
20
0.86
11
2.14027
21
0.850454
0
LINE
8
BLACK
6
CONTINUOUS
10
2.14027
20
0.850454
11
2.13804
21
0.841143
0
LINE
8
BLACK
6
CONTINUOUS
10
2.13804
20
0.841143
11
2.13437
21
0.832296
0
LINE
8
BLACK
6
CONTINUOUS
10
2.13437
20
0.832296
11
2.12937
21
0.824131
0
LINE
8
BLACK
6
CONTINUOUS
10
2.12937
20
0.824131
11
2.12315
21
0.81685
0
LINE
8
BLACK
6
CONTINUOUS
10
2.12315
20
0.81685
11
2.11587
21
0.810631
0
LINE
8
BLACK
6
CONTINUOUS
10
2.11587
20
0.810631
11
2.1077
21
0.805628
0
LINE
8
BLACK
6
CONTINUOUS
10
2.1077
20
0.805628
11
2.09886
21
0.801963
0
LINE
8
BLACK
6
CONTINUOUS
10
2.09886
20
0.801963
11
2.08955
21
0.799728
0
LINE
8
BLACK
6
CONTINUOUS
10
2.08955
20
0.799728
11
2.08
21
0.798976
0
LINE
8
BLACK
6
CONTINUOUS
10
2.08
20
0.798976
11
2.07045
21
0.799728
0
LINE
8
BLACK
6
CONTINUOUS
10
2.07045
20
0.799728
11
2.06114
21
0.801963
0
LINE
8
BLACK
6
CONTINUOUS
10
2.06114
20
0.801963
11
2.0523
21
0.805628
0
LINE
8
BLACK
6
CONTINUOUS
10
2.0523
20
0.805628
11
2.04413
21
0.810631
0
LINE
8
BLACK
6
CONTINUOUS
10
2.04413
20
0.810631
11
2.03685
21
0.81685
0
LINE
8
BLACK
6
CONTINUOUS
10
2.03685
20
0.81685
11
2.03063
21
0.824131
0
LINE
8
BLACK
6
CONTINUOUS
10
2.03063
20
0.824131
11
2.02563
21
0.832296
0
LINE
8
BLACK
6
CONTINUOUS
10
2.02563
20
0.832296
11
2.02196
21
0.841143
0
LINE
8
BLACK
6
CONTINUOUS
10
2.02196
20
0.841143
11
2.01973
21
0.850454
0
LINE
8
BLACK
6
CONTINUOUS
10
2.01973
20
0.850454
11
2.01898
21
0.86
0
LINE
8
BLACK
6
CONTINUOUS
10
2.01898
20
0.86
11
2.01973
21
0.869546
0
LINE
8
BLACK
6
CONTINUOUS
10
2.01973
20
0.869546
11
2.02196
21
0.878857
0
LINE
8
BLACK
6
CONTINUOUS
10
2.02196
20
0.878857
11
2.02563
21
0.887704
0
LINE
8
BLACK
6
CONTINUOUS
10
2.02563
20
0.887704
11
2.03063
21
0.895869
0
LINE
8
BLACK
6
CONTINUOUS
10
2.03063
20
0.895869
11
2.03685
21
0.90315
0
LINE
8
BLACK
6
CONTINUOUS
10
2.03685
20
0.90315
11
2.04413
21
0.909369
0
LINE
8
BLACK
6
CONTINUOUS
10
2.04413
20
0.909369
11
2.0523
21
0.914372
0
LINE
8
BLACK
6
CONTINUOUS
10
2.0523
20
0.914372
11
2.06114
21
0.918037
0
LINE
8
BLACK
6
CONTINUOUS
10
2.06114
20
0.918037
11
2.07045
21
0.920272
0
LINE
8
BLACK
6
CONTINUOUS
10
2.07045
20
0.920272
11
2.08
21
0.921024
0
LINE
8
BLACK
6
CONTINUOUS
10
2.08
20
0.921024
11
2.08955
21
0.920272
0
LINE
8
BLACK
6
CONTINUOUS
10
2.28955
20
0.920272
11
2.29886
21
0.918037
0
LINE
8
BLACK
6
CONTINUOUS
10
2.29886
20
0.918037
11
2.3077
21
0.914372
0
LINE
8
BLACK
6
CONTINUOUS
10
2.3077
20
0.914372
11
2.31587
21
0.909369
0
LINE
8
BLACK
6
CONTINUOUS
10
2.31587
20
0.909369
11
2.32315
21
0.90315
0
LINE
8
BLACK
6
CONTINUOUS
10
2.32315
20
0.90315
11
2.32937
21
0.895869
0
LINE
8
BLACK
6
CONTINUOUS
10
2.32937
20
0.895869
11
2.33437
21
0.887704
0
LINE
8
BLACK
6
CONTINUOUS
10
2.33437
20
0.887704
11
2.33804
21
0.878857
0
LINE
8
BLACK
6
CONTINUOUS
10
2.33804
20
0.878857
11
2.34027
21
0.869546
0
LINE
8
BLACK
6
CONTINUOUS
10
2.34027
20
0.869546
11
2.34102
21
0.86
0
LINE
8
BLACK
6
CONTINUOUS
10
2.34102
20
0.86
11
2.34027
21
0.850454
0
LINE
8
BLACK
6
CONTINUOUS
10
2.34027
20
0.850454
11
2.33804
21
0.841143
0
LINE
8
BLACK
6
CONTINUOUS
10
2.33804
20
0.841143
11
2.33437
21
0.832296
0
LINE
8
BLACK
6
CONTINUOUS
10
2.33437
20
0.832296
11
2.32937
21
0.824131
0
LINE
8
BLACK
6
CONTINUOUS
10
2.32937
20
0.824131
11
2.32315
21
0.81685
0
LINE
8
BLACK
6
CONTINUOUS
10
2.32315
20
0.81685
11
2.31587
21
0.810631
0
LINE
8
BLACK
6
CONTINUOUS
10
2.31587
20
0.810631
11
2.3077
21
0.805628
0
LINE
8
BLACK
6
CONTINUOUS
10
2.3077
20
0.805628
11
2.29886
21
0.801963
0
LINE
8
BLACK
6
CONTINUOUS
10
2.29886
20
0.801963
11
2.28955
21
0.799728
0
LINE
8
BLACK
6
CONTINUOUS
10
2.28955
20
0.799728
11
2.28
21
0.798976
0
LINE
8
BLACK
6
CONTINUOUS
10
2.28
20
0.798976
11
2.27045
21
0.799728
0
LINE
8
BLACK
6
CONTINUOUS
10
2.27045
20
0.799728
11
2.26114
21
0.801963
0
LINE
8
BLACK
6
CONTINUOUS
10
2.26114
20
0.801963
11
2.2523
21
0.805628
0
LINE
8
BLACK
6
CONTINUOUS
10
2.2523
20
0.805628
11
2.24413
21
0.810631
0
LINE
8
BLACK
6
CONTINUOUS
10
2.24413
20
0.810631
11
2.23685
21
0.81685
0
LINE
8
BLACK
6
CONTINUOUS
10
2.23685
20
0.81685
11
2.23063
21
0.824131
0
LINE
8
BLACK
6
CONTINUOUS
10
2.23063
20
0.824131
11
2.22563
21
0.832296
0
LINE
8
BLACK
6
CONTINUOUS
10
2.22563
20
0.832296
11
2.22196
21
0.841143
0
LINE
8
BLACK
6
CONTINUOUS
10
2.22196
20
0.841143
11
2.21973
21
0.850454
0
LINE
8
BLACK
6
CONTINUOUS
10
2.21973
20
0.850454
11
2.21898
21
0.86
0
LINE
8
BLACK
6
CONTINUOUS
10
2.21898
20
0.86
11
2.21973
21
0.869546
0
LINE
8
BLACK
6
CONTINUOUS
10
2.21973
20
0.869546
11
2.22196
21
0.878857
0
LINE
8
BLACK
6
CONTINUOUS
10
2.22196
20
0.878857
11
2.22563
21
0.887704
0
LINE
8
BLACK
6
CONTINUOUS
10
2.22563
20
0.887704
11
2.23063
21
0.895869
0
LINE
8
BLACK
6
CONTINUOUS
10
2.23063
20
0.895869
11
2.23685
21
0.90315
0
LINE
8
BLACK
6
CONTINUOUS
10
2.23685
20
0.90315
11
2.24413
21
0.909369
0
LINE
8
BLACK
6
CONTINUOUS
10
2.24413
20
0.909369
11
2.2523
21
0.914372
0
LINE
8
BLACK
6
CONTINUOUS
10
2.2523
20
0.914372
11
2.26114
21
0.918037
0
LINE
8
BLACK
6
CONTINUOUS
10
2.26114
20
0.918037
11
2.27045
21
0.920272
0
LINE
8
BLACK
6
CONTINUOUS
10
2.27045
20
0.920272
11
2.28
21
0.921024
0
LINE
8
BLACK
6
CONTINUOUS
10
2.28
20
0.921024
11
2.28955
21
0.920272
0
LINE
8
BLACK
6
CONTINUOUS
10
0.618312
20
0.888919
11
0.626019
21
0.886534
0
LINE
8
BLACK
6
CONTINUOUS
10
0.626019
20
0.886534
11
0.633116
21
0.882696
0
LINE
8
BLACK
6
CONTINUOUS
10
0.633116
20
0.882696
11
0.639333
21
0.877554
0
LINE
8
BLACK
6
CONTINUOUS
10
0.639333
20
0.877554
11
0.644432
21
0.871302
0
LINE
8
BLACK
6
CONTINUOUS
10
0.644432
20
0.871302
11
0.648219
21
0.864178
0
LINE
8
BLACK
6
CONTINUOUS
10
0.648219
20
0.864178
11
0.650551
21
0.856455
0
LINE
8
BLACK
6
CONTINUOUS
10
0.650551
20
0.856455
11
0.651339
21
0.848425
0
LINE
8
BLACK
6
CONTINUOUS
10
0.651339
20
0.848425
11
0.651322
21
0.847271
0
LINE
8
BLACK
6
CONTINUOUS
10
0.651322
20
0.847271
11
0.650311
21
0.839267
0
LINE
8
BLACK
6
CONTINUOUS
10
0.650311
20
0.839267
11
0.647765
21
0.831611
0
LINE
8
BLACK
6
CONTINUOUS
10
0.647765
20
0.831611
11
0.64378
21
0.824596
0
LINE
8
BLACK
6
CONTINUOUS
10
0.64378
20
0.824596
11
0.638508
21
0.818489
0
LINE
8
BLACK
6
CONTINUOUS
10
0.638508
20
0.818489
11
0.63215
21
0.813522
0
LINE
8
BLACK
6
CONTINUOUS
10
0.63215
20
0.813522
11
0.624949
21
0.809884
0
LINE
8
BLACK
6
CONTINUOUS
10
0.624949
20
0.809884
11
0.617178
21
0.807715
0
LINE
8
BLACK
6
CONTINUOUS
10
0.617178
20
0.807715
11
0.609134
21
0.807096
0
LINE
8
BLACK
6
CONTINUOUS
10
0.609134
20
0.807096
11
0.601123
21
0.808051
0
LINE
8
BLACK
6
CONTINUOUS
10
0.601123
20
0.808051
11
0.59345
21
0.810544
0
LINE
8
BLACK
6
CONTINUOUS
10
0.59345
20
0.810544
11
0.586408
21
0.81448
0
LINE
8
BLACK
6
CONTINUOUS
10
0.586408
20
0.81448
11
0.580264
21
0.819709
0
LINE
8
BLACK
6
CONTINUOUS
10
0.580264
20
0.819709
11
0.575252
21
0.826032
0
LINE
8
BLACK
6
CONTINUOUS
10
0.575252
20
0.826032
11
0.571564
21
0.833207
0
LINE
8
BLACK
6
CONTINUOUS
10
0.571564
20
0.833207
11
0.570634
21
0.836451
0
LINE
8
BLACK
6
CONTINUOUS
10
0.570634
20
0.836451
11
0.569025
21
0.831611
0
LINE
8
BLACK
6
CONTINUOUS
10
0.569025
20
0.831611
11
0.565039
21
0.824596
0
LINE
8
BLACK
6
CONTINUOUS
10
0.565039
20
0.824596
11
0.559768
21
0.818489
0
LINE
8
BLACK
6
CONTINUOUS
10
0.559768
20
0.818489
11
0.55341
21
0.813522
0
LINE
8
BLACK
6
CONTINUOUS
10
0.55341
20
0.813522
11
0.546209
21
0.809884
0
LINE
8
BLACK
6
CONTINUOUS
10
0.546209
20
0.809884
11
0.538438
21
0.807715
0
LINE
8
BLACK
6
CONTINUOUS
10
0.538438
20
0.807715
11
0.530394
21
0.807096
0
LINE
8
BLACK
6
CONTINUOUS
10
0.530394
20
0.807096
11
0.522383
21
0.808051
0
LINE
8
BLACK
6
CONTINUOUS
10
0.522383
20
0.808051
11
0.51471
21
0.810544
0
LINE
8
BLACK
6
CONTINUOUS
10
0.51471
20
0.810544
11
0.507667
21
0.81448
0
LINE
8
BLACK
6
CONTINUOUS
10
0.507667
20
0.81448
11
0.501523
21
0.819709
0
LINE
8
BLACK
6
CONTINUOUS
10
0.501523
20
0.819709
11
0.496512
21
0.826032
0
LINE
8
BLACK
6
CONTINUOUS
10
0.496512
20
0.826032
11
0.492824
21
0.833207
0
LINE
8
BLACK
6
CONTINUOUS
10
0.492824
20
0.833207
11
0.4906
21
0.840963
0
LINE
8
BLACK
6
CONTINUOUS
10
0.4906
20
0.840963
11
0.489925
21
0.849002
0
LINE
8
BLACK
6
CONTINUOUS
10
0.489925
20
0.849002
11
0.490825
21
0.85702
0
LINE
8
BLACK
6
CONTINUOUS
10
0.490825
20
0.85702
11
0.493264
21
0.86471
0
LINE
8
BLACK
6
CONTINUOUS
10
0.493264
20
0.86471
11
0.497151
21
0.87178
0
LINE
8
BLACK
6
CONTINUOUS
10
0.497151
20
0.87178
11
0.502337
21
0.87796
0
LINE
8
BLACK
6
CONTINUOUS
10
0.502337
20
0.87796
11
0.508624
21
0.883016
0
LINE
8
BLACK
6
CONTINUOUS
10
0.508624
20
0.883016
11
0.515774
21
0.886754
0
LINE
8
BLACK
6
CONTINUOUS
10
0.515774
20
0.886754
11
0.523514
21
0.889032
0
LINE
8
BLACK
6
CONTINUOUS
10
0.523514
20
0.889032
11
0.531548
21
0.889763
0
LINE
8
BLACK
6
CONTINUOUS
10
0.531548
20
0.889763
11
0.539572
21
0.888919
0
LINE
8
BLACK
6
CONTINUOUS
10
0.539572
20
0.888919
11
0.547279
21
0.886534
0
LINE
8
BLACK
6
CONTINUOUS
10
0.547279
20
0.886534
11
0.554376
21
0.882696
0
LINE
8
BLACK
6
CONTINUOUS
10
0.554376
20
0.882696
11
0.560592
21
0.877554
0
LINE
8
BLACK
6
CONTINUOUS
10
0.560592
20
0.877554
11
0.565692
21
0.871302
0
LINE
8
BLACK
6
CONTINUOUS
10
0.565692
20
0.871302
11
0.569479
21
0.864178
0
LINE
8
BLACK
6
CONTINUOUS
10
0.569479
20
0.864178
11
0.570628
21
0.860372
0
LINE
8
BLACK
6
CONTINUOUS
10
0.570628
20
0.860372
11
0.572004
21
0.86471
0
LINE
8
BLACK
6
CONTINUOUS
10
0.572004
20
0.86471
11
0.575891
21
0.87178
0
LINE
8
BLACK
6
CONTINUOUS
10
0.575891
20
0.87178
11
0.581077
21
0.87796
0
LINE
8
BLACK
6
CONTINUOUS
10
0.581077
20
0.87796
11
0.587365
21
0.883016
0
LINE
8
BLACK
6
CONTINUOUS
10
0.587365
20
0.883016
11
0.594514
21
0.886754
0
LINE
8
BLACK
6
CONTINUOUS
10
0.594514
20
0.886754
11
0.602254
21
0.889032
0
LINE
8
BLACK
6
CONTINUOUS
10
0.602254
20
0.889032
11
0.610289
21
0.889763
0
LINE
8
BLACK
6
CONTINUOUS
10
0.610289
20
0.889763
11
0.618312
21
0.888919
0
LINE
8
BLACK
6
CONTINUOUS
10
2.18537
20
1.01683
11
2.19458
21
1.01519
0
LINE
8
BLACK
6
CONTINUOUS
10
2.19458
20
1.01519
11
2.2034
21
1.01207
0
LINE
8
BLACK
6
CONTINUOUS
10
2.2034
20
1.01207
11
2.21159
21
1.00755
0
LINE
8
BLACK
6
CONTINUOUS
10
2.21159
20
1.00755
11
2.21893
21
1.00175
0
LINE
8
BLACK
6
CONTINUOUS
10
2.21893
20
1.00175
11
2.22523
21
0.994831
0
LINE
8
BLACK
6
CONTINUOUS
10
2.22523
20
0.994831
11
2.23031
21
0.986976
0
LINE
8
BLACK
6
CONTINUOUS
10
2.23031
20
0.986976
11
2.23404
21
0.978397
0
LINE
8
BLACK
6
CONTINUOUS
10
2.23404
20
0.978397
11
2.23632
21
0.969324
0
LINE
8
BLACK
6
CONTINUOUS
10
2.23632
20
0.969324
11
2.23709
21
0.96
0
LINE
8
BLACK
6
CONTINUOUS
10
2.23709
20
0.96
11
2.23702
21
0.957211
0
LINE
8
BLACK
6
CONTINUOUS
10
2.23702
20
0.957211
11
2.2358
21
0.947936
0
LINE
8
BLACK
6
CONTINUOUS
10
2.2358
20
0.947936
11
2.23308
21
0.938985
0
LINE
8
BLACK
6
CONTINUOUS
10
2.23308
20
0.938985
11
2.22893
21
0.930598
0
LINE
8
BLACK
6
CONTINUOUS
10
2.22893
20
0.930598
11
2.22347
21
0.923001
0
LINE
8
BLACK
6
CONTINUOUS
10
2.22347
20
0.923001
11
2.21685
21
0.916397
0
LINE
8
BLACK
6
CONTINUOUS
10
2.21685
20
0.916397
11
2.20923
21
0.910965
0
LINE
8
BLACK
6
CONTINUOUS
10
2.20923
20
0.910965
11
2.20083
21
0.906849
0
LINE
8
BLACK
6
CONTINUOUS
10
2.20083
20
0.906849
11
2.19187
21
0.904161
0
LINE
8
BLACK
6
CONTINUOUS
10
2.19187
20
0.904161
11
2.18259
21
0.902972
0
LINE
8
BLACK
6
CONTINUOUS
10
2.18259
20
0.902972
11
2.17324
21
0.903315
0
LINE
8
BLACK
6
CONTINUOUS
10
2.17324
20
0.903315
11
2.16407
21
0.90518
0
LINE
8
BLACK
6
CONTINUOUS
10
2.16407
20
0.90518
11
2.15533
21
0.908517
0
LINE
8
BLACK
6
CONTINUOUS
10
2.15533
20
0.908517
11
2.14726
21
0.913237
0
LINE
8
BLACK
6
CONTINUOUS
10
2.14726
20
0.913237
11
2.14006
21
0.919213
0
LINE
8
BLACK
6
CONTINUOUS
10
2.14006
20
0.919213
11
2.13393
21
0.926284
0
LINE
8
BLACK
6
CONTINUOUS
10
2.13393
20
0.926284
11
2.12905
21
0.934261
0
LINE
8
BLACK
6
CONTINUOUS
10
2.12905
20
0.934261
11
2.12553
21
0.942929
0
LINE
8
BLACK
6
CONTINUOUS
10
2.12553
20
0.942929
11
2.12347
21
0.952055
0
LINE
8
BLACK
6
CONTINUOUS
10
2.12347
20
0.952055
11
2.12293
21
0.961395
0
LINE
8
BLACK
6
CONTINUOUS
10
2.12293
20
0.961395
11
2.12392
21
0.970697
0
LINE
8
BLACK
6
CONTINUOUS
10
2.12392
20
0.970697
11
2.12642
21
0.979712
0
LINE
8
BLACK
6
CONTINUOUS
10
2.12642
20
0.979712
11
2.13036
21
0.988197
0
LINE
8
BLACK
6
CONTINUOUS
10
2.13036
20
0.988197
11
2.13564
21
0.995926
0
LINE
8
BLACK
6
CONTINUOUS
10
2.13564
20
0.995926
11
2.1421
21
1.00269
0
LINE
8
BLACK
6
CONTINUOUS
10
2.1421
20
1.00269
11
2.14958
21
1.00831
0
LINE
8
BLACK
6
CONTINUOUS
10
2.14958
20
1.00831
11
2.15788
21
1.01263
0
LINE
8
BLACK
6
CONTINUOUS
10
2.15788
20
1.01263
11
2.16677
21
1.01553
0
LINE
8
BLACK
6
CONTINUOUS
10
2.16677
20
1.01553
11
2.17602
21
1.01695
0
LINE
8
BLACK
6
CONTINUOUS
10
2.17602
20
1.01695
11
2.18537
21
1.01683
0
LINE
8
BLACK
6
CONTINUOUS
10
0.436577
20
1.11205
11
0.447141
21
1.1096
0
LINE
8
BLACK
6
CONTINUOUS
10
0.447141
20
1.1096
11
0.457255
21
1.10569
0
LINE
8
BLACK
6
CONTINUOUS
10
0.457255
20
1.10569
11
0.466716
21
1.10039
0
LINE
8
BLACK
6
CONTINUOUS
10
0.466716
20
1.10039
11
0.475337
21
1.09381
0
LINE
8
BLACK
6
CONTINUOUS
10
0.475337
20
1.09381
11
0.482945
21
1.08608
0
LINE
8
BLACK
6
CONTINUOUS
10
0.482945
20
1.08608
11
0.489387
21
1.07736
0
LINE
8
BLACK
6
CONTINUOUS
10
0.489387
20
1.07736
11
0.494537
21
1.06781
0
LINE
8
BLACK
6
CONTINUOUS
10
0.494537
20
1.06781
11
0.49829
21
1.05764
0
LINE
8
BLACK
6
CONTINUOUS
10
0.49829
20
1.05764
11
0.500573
21
1.04704
0
LINE
8
BLACK
6
CONTINUOUS
10
0.500573
20
1.04704
11
0.501339
21
1.03622
0
LINE
8
BLACK
6
CONTINUOUS
10
0.501339
20
1.03622
11
0.501187
21
1.0314
0
LINE
8
BLACK
6
CONTINUOUS
10
0.501187
20
1.0314
11
0.499743
21
1.02065
0
LINE
8
BLACK
6
CONTINUOUS
10
0.499743
20
1.02065
11
0.4968
21
1.01022
0
LINE
8
BLACK
6
CONTINUOUS
10
0.4968
20
1.01022
11
0.492415
21
1.0003
0
LINE
8
BLACK
6
CONTINUOUS
10
0.492415
20
1.0003
11
0.486676
21
0.991095
0
LINE
8
BLACK
6
CONTINUOUS
10
0.486676
20
0.991095
11
0.479699
21
0.982794
0
LINE
8
BLACK
6
CONTINUOUS
10
0.479699
20
0.982794
11
0.471621
21
0.975559
0
LINE
8
BLACK
6
CONTINUOUS
10
0.471621
20
0.975559
11
0.462604
21
0.969534
0
LINE
8
BLACK
6
CONTINUOUS
10
0.462604
20
0.969534
11
0.452828
21
0.96484
0
LINE
8
BLACK
6
CONTINUOUS
10
0.452828
20
0.96484
11
0.442489
21
0.96157
0
LINE
8
BLACK
6
CONTINUOUS
10
0.442489
20
0.96157
11
0.431792
21
0.95979
0
LINE
8
BLACK
6
CONTINUOUS
10
0.431792
20
0.95979
11
0.42095
21
0.959534
0
LINE
8
BLACK
6
CONTINUOUS
10
0.42095
20
0.959534
11
0.410181
21
0.960809
0
LINE
8
BLACK
6
CONTINUOUS
10
0.410181
20
0.960809
11
0.399699
21
0.963588
0
LINE
8
BLACK
6
CONTINUOUS
10
0.399699
20
0.963588
11
0.389713
21
0.967816
0
LINE
8
BLACK
6
CONTINUOUS
10
0.389713
20
0.967816
11
0.380423
21
0.97341
0
LINE
8
BLACK
6
CONTINUOUS
10
0.380423
20
0.97341
11
0.372013
21
0.980256
0
LINE
8
BLACK
6
CONTINUOUS
10
0.372013
20
0.980256
11
0.364652
21
0.98822
0
LINE
8
BLACK
6
CONTINUOUS
10
0.364652
20
0.98822
11
0.358486
21
0.997141
0
LINE
8
BLACK
6
CONTINUOUS
10
0.358486
20
0.997141
11
0.353639
21
1.00684
0
LINE
8
BLACK
6
CONTINUOUS
10
0.353639
20
1.00684
11
0.350207
21
1.01713
0
LINE
8
BLACK
6
CONTINUOUS
10
0.350207
20
1.01713
11
0.348259
21
1.0278
0
LINE
8
BLACK
6
CONTINUOUS
10
0.348259
20
1.0278
11
0.347833
21
1.03863
0
LINE
8
BLACK
6
CONTINUOUS
10
0.347833
20
1.03863
11
0.348938
21
1.04942
0
LINE
8
BLACK
6
CONTINUOUS
10
0.348938
20
1.04942
11
0.351553
21
1.05994
0
LINE
8
BLACK
6
CONTINUOUS
10
0.351553
20
1.05994
11
0.355624
21
1.07
0
LINE
8
BLACK
6
CONTINUOUS
10
0.355624
20
1.07
11
0.361071
21
1.07937
0
LINE
8
BLACK
6
CONTINUOUS
10
0.361071
20
1.07937
11
0.367784
21
1.08789
0
LINE
8
BLACK
6
CONTINUOUS
10
0.367784
20
1.08789
11
0.375631
21
1.09537
0
LINE
8
BLACK
6
CONTINUOUS
10
0.375631
20
1.09537
11
0.384454
21
1.10168
0
LINE
8
BLACK
6
CONTINUOUS
10
0.384454
20
1.10168
11
0.394077
21
1.10668
0
LINE
8
BLACK
6
CONTINUOUS
10
0.394077
20
1.10668
11
0.404309
21
1.11027
0
LINE
8
BLACK
6
CONTINUOUS
10
0.404309
20
1.11027
11
0.414945
21
1.11239
0
LINE
8
BLACK
6
CONTINUOUS
10
0.414945
20
1.11239
11
0.425773
21
1.11298
0
LINE
8
BLACK
6
CONTINUOUS
10
0.425773
20
1.11298
11
0.436577
21
1.11205
0
LINE
8
BLACK
6
CONTINUOUS
10
0.803013
20
1.03727
11
0.805568
21
1.03557
0
LINE
8
BLACK
6
CONTINUOUS
10
0.805568
20
1.03557
11
0.807275
21
1.03301
0
LINE
8
BLACK
6
CONTINUOUS
10
0.807275
20
1.03301
11
0.807874
21
1.03
0
LINE
8
BLACK
6
CONTINUOUS
10
0.807874
20
1.03
11
0.807874
21
0.97
0
LINE
8
BLACK
6
CONTINUOUS
10
0.807874
20
0.97
11
0.807275
21
0.966987
0
LINE
8
BLACK
6
CONTINUOUS
10
0.807275
20
0.966987
11
0.805568
21
0.964432
0
LINE
8
BLACK
6
CONTINUOUS
10
0.805568
20
0.964432
11
0.803013
21
0.962725
0
LINE
8
BLACK
6
CONTINUOUS
10
0.803013
20
0.962725
11
0.8
21
0.962126
0
LINE
8
BLACK
6
CONTINUOUS
10
0.8
20
0.962126
11
0.74
21
0.962126
0
LINE
8
BLACK
6
CONTINUOUS
10
0.74
20
0.962126
11
0.736987
21
0.962725
0
LINE
8
BLACK
6
CONTINUOUS
10
0.736987
20
0.962725
11
0.734432
21
0.964432
0
LINE
8
BLACK
6
CONTINUOUS
10
0.734432
20
0.964432
11
0.732725
21
0.966987
0
LINE
8
BLACK
6
CONTINUOUS
10
0.732725
20
0.966987
11
0.732126
21
0.97
0
LINE
8
BLACK
6
CONTINUOUS
10
0.732126
20
0.97
11
0.732126
21
1.03
0
LINE
8
BLACK
6
CONTINUOUS
10
0.732126
20
1.03
11
0.732725
21
1.03301
0
LINE
8
BLACK
6
CONTINUOUS
10
0.732725
20
1.03301
11
0.734432
21
1.03557
0
LINE
8
BLACK
6
CONTINUOUS
10
0.734432
20
1.03557
11
0.736987
21
1.03727
0
LINE
8
BLACK
6
CONTINUOUS
10
0.736987
20
1.03727
11
0.74
21
1.03787
0
LINE
8
BLACK
6
CONTINUOUS
10
0.74
20
1.03787
11
0.8
21
1.03787
0
LINE
8
BLACK
6
CONTINUOUS
10
0.8
20
1.03787
11
0.803013
21
1.03727
0
LINE
8
BLACK
6
CONTINUOUS
10
1.10301
20
1.03727
11
1.10557
21
1.03557
0
LINE
8
BLACK
6
CONTINUOUS
10
1.10557
20
1.03557
11
1.10727
21
1.03301
0
LINE
8
BLACK
6
CONTINUOUS
10
1.10727
20
1.03301
11
1.10787
21
1.03
0
LINE
8
BLACK
6
CONTINUOUS
10
1.10787
20
1.03
11
1.10787
21
0.97
0
LINE
8
BLACK
6
CONTINUOUS
10
1.10787
20
0.97
11
1.10727
21
0.966987
0
LINE
8
BLACK
6
CONTINUOUS
10
1.10727
20
0.966987
11
1.10557
21
0.964432
0
LINE
8
BLACK
6
CONTINUOUS
10
1.10557
20
0.964432
11
1.10301
21
0.962725
0
LINE
8
BLACK
6
CONTINUOUS
10
1.10301
20
0.962725
11
1.1
21
0.962126
0
LINE
8
BLACK
6
CONTINUOUS
10
1.1
20
0.962126
11
1.04
21
0.962126
0
LINE
8
BLACK
6
CONTINUOUS
10
1.04
20
0.962126
11
1.03699
21
0.962725
0
LINE
8
BLACK
6
CONTINUOUS
10
1.03699
20
0.962725
11
1.03443
21
0.964432
0
LINE
8
BLACK
6
CONTINUOUS
10
1.03443
20
0.964432
11
1.03273
21
0.966987
0
LINE
8
BLACK
6
CONTINUOUS
10
1.03273
20
0.966987
11
1.03213
21
0.97
0
LINE
8
BLACK
6
CONTINUOUS
10
1.03213
20
0.97
11
1.03213
21
1.03
0
LINE
8
BLACK
6
CONTINUOUS
10
1.03213
20
1.03
11
1.03273
21
1.03301
0
LINE
8
BLACK
6
CONTINUOUS
10
1.03273
20
1.03301
11
1.03443
21
1.03557
0
LINE
8
BLACK
6
CONTINUOUS
10
1.03443
20
1.03557
11
1.03699
21
1.03727
0
LINE
8
BLACK
6
CONTINUOUS
10
1.03699
20
1.03727
11
1.04
21
1.03787
0
LINE
8
BLACK
6
CONTINUOUS
10
1.04
20
1.03787
11
1.1
21
1.03787
0
LINE
8
BLACK
6
CONTINUOUS
10
1.1
20
1.03787
11
1.10301
21
1.03727
0
LINE
8
BLACK
6
CONTINUOUS
10
0.903013
20
1.03727
11
0.905568
21
1.03557
0
LINE
8
BLACK
6
CONTINUOUS
10
0.905568
20
1.03557
11
0.907275
21
1.03301
0
LINE
8
BLACK
6
CONTINUOUS
10
0.907275
20
1.03301
11
0.907874
21
1.03
0
LINE
8
BLACK
6
CONTINUOUS
10
0.907874
20
1.03
11
0.907874
21
0.97
0
LINE
8
BLACK
6
CONTINUOUS
10
0.907874
20
0.97
11
0.907275
21
0.966987
0
LINE
8
BLACK
6
CONTINUOUS
10
0.907275
20
0.966987
11
0.905568
21
0.964432
0
LINE
8
BLACK
6
CONTINUOUS
10
0.905568
20
0.964432
11
0.903013
21
0.962725
0
LINE
8
BLACK
6
CONTINUOUS
10
0.903013
20
0.962725
11
0.9
21
0.962126
0
LINE
8
BLACK
6
CONTINUOUS
10
0.9
20
0.962126
11
0.84
21
0.962126
0
LINE
8
BLACK
6
CONTINUOUS
10
0.84
20
0.962126
11
0.836987
21
0.962725
0
LINE
8
BLACK
6
CONTINUOUS
10
0.836987
20
0.962725
11
0.834432
21
0.964432
0
LINE
8
BLACK
6
CONTINUOUS
10
0.834432
20
0.964432
11
0.832725
21
0.966987
0
LINE
8
BLACK
6
CONTINUOUS
10
0.832725
20
0.966987
11
0.832126
21
0.97
0
LINE
8
BLACK
6
CONTINUOUS
10
0.832126
20
0.97
11
0.832126
21
1.03
0
LINE
8
BLACK
6
CONTINUOUS
10
0.832126
20
1.03
11
0.832725
21
1.03301
0
LINE
8
BLACK
6
CONTINUOUS
10
0.832725
20
1.03301
11
0.834432
21
1.03557
0
LINE
8
BLACK
6
CONTINUOUS
10
0.834432
20
1.03557
11
0.836987
21
1.03727
0
LINE
8
BLACK
6
CONTINUOUS
10
0.836987
20
1.03727
11
0.84
21
1.03787
0
LINE
8
BLACK
6
CONTINUOUS
10
0.84
20
1.03787
11
0.9
21
1.03787
0
LINE
8
BLACK
6
CONTINUOUS
10
0.9
20
1.03787
11
0.903013
21
1.03727
0
LINE
8
BLACK
6
CONTINUOUS
10
1.00301
20
1.03727
11
1.00557
21
1.03557
0
LINE
8
BLACK
6
CONTINUOUS
10
1.00557
20
1.03557
11
1.00727
21
1.03301
0
LINE
8
BLACK
6
CONTINUOUS
10
1.00727
20
1.03301
11
1.00787
21
1.03
0
LINE
8
BLACK
6
CONTINUOUS
10
1.00787
20
1.03
11
1.00787
21
0.97
0
LINE
8
BLACK
6
CONTINUOUS
10
1.00787
20
0.97
11
1.00727
21
0.966987
0
LINE
8
BLACK
6
CONTINUOUS
10
1.00727
20
0.966987
11
1.00557
21
0.964432
0
LINE
8
BLACK
6
CONTINUOUS
10
1.00557
20
0.964432
11
1.00301
21
0.962725
0
LINE
8
BLACK
6
CONTINUOUS
10
1.00301
20
0.962725
11
1
21
0.962126
0
LINE
8
BLACK
6
CONTINUOUS
10
1
20
0.962126
11
0.94
21
0.962126
0
LINE
8
BLACK
6
CONTINUOUS
10
0.94
20
0.962126
11
0.936987
21
0.962725
0
LINE
8
BLACK
6
CONTINUOUS
10
0.936987
20
0.962725
11
0.934432
21
0.964432
0
LINE
8
BLACK
6
CONTINUOUS
10
0.934432
20
0.964432
11
0.932725
21
0.966987
0
LINE
8
BLACK
6
CONTINUOUS
10
0.932725
20
0.966987
11
0.932126
21
0.97
0
LINE
8
BLACK
6
CONTINUOUS
10
0.932126
20
0.97
11
0.932126
21
1.03
0
LINE
8
BLACK
6
CONTINUOUS
10
0.932126
20
1.03
11
0.932725
21
1.03301
0
LINE
8
BLACK
6
CONTINUOUS
10
0.932725
20
1.03301
11
0.934432
21
1.03557
0
LINE
8
BLACK
6
CONTINUOUS
10
0.934432
20
1.03557
11
0.936987
21
1.03727
0
LINE
8
BLACK
6
CONTINUOUS
10
0.936987
20
1.03727
11
0.94
21
1.03787
0
LINE
8
BLACK
6
CONTINUOUS
10
0.94
20
1.03787
11
1
21
1.03787
0
LINE
8
BLACK
6
CONTINUOUS
10
1
20
1.03787
11
1.00301
21
1.03727
0
LINE
8
BLACK
6
CONTINUOUS
10
2.08955
20
1.12027
11
2.09886
21
1.11804
0
LINE
8
BLACK
6
CONTINUOUS
10
2.09886
20
1.11804
11
2.1077
21
1.11437
0
LINE
8
BLACK
6
CONTINUOUS
10
2.1077
20
1.11437
11
2.11587
21
1.10937
0
LINE
8
BLACK
6
CONTINUOUS
10
2.11587
20
1.10937
11
2.12315
21
1.10315
0
LINE
8
BLACK
6
CONTINUOUS
10
2.12315
20
1.10315
11
2.12937
21
1.09587
0
LINE
8
BLACK
6
CONTINUOUS
10
2.12937
20
1.09587
11
2.13437
21
1.0877
0
LINE
8
BLACK
6
CONTINUOUS
10
2.13437
20
1.0877
11
2.13804
21
1.07886
0
LINE
8
BLACK
6
CONTINUOUS
10
2.13804
20
1.07886
11
2.14027
21
1.06955
0
LINE
8
BLACK
6
CONTINUOUS
10
2.14027
20
1.06955
11
2.14102
21
1.06
0
LINE
8
BLACK
6
CONTINUOUS
10
2.14102
20
1.06
11
2.14027
21
1.05045
0
LINE
8
BLACK
6
CONTINUOUS
10
2.14027
20
1.05045
11
2.13804
21
1.04114
0
LINE
8
BLACK
6
CONTINUOUS
10
2.13804
20
1.04114
11
2.13437
21
1.0323
0
LINE
8
BLACK
6
CONTINUOUS
10
2.13437
20
1.0323
11
2.12937
21
1.02413
0
LINE
8
BLACK
6
CONTINUOUS
10
2.12937
20
1.02413
11
2.12315
21
1.01685
0
LINE
8
BLACK
6
CONTINUOUS
10
2.12315
20
1.01685
11
2.11587
21
1.01063
0
LINE
8
BLACK
6
CONTINUOUS
10
2.11587
20
1.01063
11
2.1077
21
1.00563
0
LINE
8
BLACK
6
CONTINUOUS
10
2.1077
20
1.00563
11
2.09886
21
1.00196
0
LINE
8
BLACK
6
CONTINUOUS
10
2.09886
20
1.00196
11
2.08955
21
0.999728
0
LINE
8
BLACK
6
CONTINUOUS
10
2.08955
20
0.999728
11
2.08
21
0.998976
0
LINE
8
BLACK
6
CONTINUOUS
10
2.08
20
0.998976
11
2.07045
21
0.999728
0
LINE
8
BLACK
6
CONTINUOUS
10
2.07045
20
0.999728
11
2.06114
21
1.00196
0
LINE
8
BLACK
6
CONTINUOUS
10
2.06114
20
1.00196
11
2.0523
21
1.00563
0
LINE
8
BLACK
6
CONTINUOUS
10
2.0523
20
1.00563
11
2.04413
21
1.01063
0
LINE
8
BLACK
6
CONTINUOUS
10
2.04413
20
1.01063
11
2.03685
21
1.01685
0
LINE
8
BLACK
6
CONTINUOUS
10
2.03685
20
1.01685
11
2.03063
21
1.02413
0
LINE
8
BLACK
6
CONTINUOUS
10
2.03063
20
1.02413
11
2.02563
21
1.0323
0
LINE
8
BLACK
6
CONTINUOUS
10
2.02563
20
1.0323
11
2.02196
21
1.04114
0
LINE
8
BLACK
6
CONTINUOUS
10
2.02196
20
1.04114
11
2.01973
21
1.05045
0
LINE
8
BLACK
6
CONTINUOUS
10
2.01973
20
1.05045
11
2.01898
21
1.06
0
LINE
8
BLACK
6
CONTINUOUS
10
2.01898
20
1.06
11
2.01973
21
1.06955
0
LINE
8
BLACK
6
CONTINUOUS
10
2.01973
20
1.06955
11
2.02196
21
1.07886
0
LINE
8
BLACK
6
CONTINUOUS
10
2.02196
20
1.07886
11
2.02563
21
1.0877
0
LINE
8
BLACK
6
CONTINUOUS
10
2.02563
20
1.0877
11
2.03063
21
1.09587
0
LINE
8
BLACK
6
CONTINUOUS
10
2.03063
20
1.09587
11
2.03685
21
1.10315
0
LINE
8
BLACK
6
CONTINUOUS
10
2.03685
20
1.10315
11
2.04413
21
1.10937
0
LINE
8
BLACK
6
CONTINUOUS
10
2.04413
20
1.10937
11
2.0523
21
1.11437
0
LINE
8
BLACK
6
CONTINUOUS
10
2.0523
20
1.11437
11
2.06114
21
1.11804
0
LINE
8
BLACK
6
CONTINUOUS
10
2.06114
20
1.11804
11
2.07045
21
1.12027
0
LINE
8
BLACK
6
CONTINUOUS
10
2.07045
20
1.12027
11
2.08
21
1.12102
0
LINE
8
BLACK
6
CONTINUOUS
10
2.08
20
1.12102
11
2.08955
21
1.12027
0
LINE
8
BLACK
6
CONTINUOUS
10
2.28955
20
1.12027
11
2.29886
21
1.11804
0
LINE
8
BLACK
6
CONTINUOUS
10
2.29886
20
1.11804
11
2.3077
21
1.11437
0
LINE
8
BLACK
6
CONTINUOUS
10
2.3077
20
1.11437
11
2.31587
21
1.10937
0
LINE
8
BLACK
6
CONTINUOUS
10
2.31587
20
1.10937
11
2.32315
21
1.10315
0
LINE
8
BLACK
6
CONTINUOUS
10
2.32315
20
1.10315
11
2.32937
21
1.09587
0
LINE
8
BLACK
6
CONTINUOUS
10
2.32937
20
1.09587
11
2.33437
21
1.0877
0
LINE
8
BLACK
6
CONTINUOUS
10
2.33437
20
1.0877
11
2.33804
21
1.07886
0
LINE
8
BLACK
6
CONTINUOUS
10
2.33804
20
1.07886
11
2.34027
21
1.06955
0
LINE
8
BLACK
6
CONTINUOUS
10
2.34027
20
1.06955
11
2.34102
21
1.06
0
LINE
8
BLACK
6
CONTINUOUS
10
2.34102
20
1.06
11
2.34027
21
1.05045
0
LINE
8
BLACK
6
CONTINUOUS
10
2.34027
20
1.05045
11
2.33804
21
1.04114
0
LINE
8
BLACK
6
CONTINUOUS
10
2.33804
20
1.04114
11
2.33437
21
1.0323
0
LINE
8
BLACK
6
CONTINUOUS
10
2.33437
20
1.0323
11
2.32937
21
1.02413
0
LINE
8
BLACK
6
CONTINUOUS
10
2.32937
20
1.02413
11
2.32315
21
1.01685
0
LINE
8
BLACK
6
CONTINUOUS
10
2.32315
20
1.01685
11
2.31587
21
1.01063
0
LINE
8
BLACK
6
CONTINUOUS
10
2.31587
20
1.01063
11
2.3077
21
1.00563
0
LINE
8
BLACK
6
CONTINUOUS
10
2.3077
20
1.00563
11
2.29886
21
1.00196
0
LINE
8
BLACK
6
CONTINUOUS
10
2.29886
20
1.00196
11
2.28955
21
0.999728
0
LINE
8
BLACK
6
CONTINUOUS
10
2.28955
20
0.999728
11
2.28
21
0.998976
0
LINE
8
BLACK
6
CONTINUOUS
10
2.28
20
0.998976
11
2.27045
21
0.999728
0
LINE
8
BLACK
6
CONTINUOUS
10
2.27045
20
0.999728
11
2.26114
21
1.00196
0
LINE
8
BLACK
6
CONTINUOUS
10
2.26114
20
1.00196
11
2.2523
21
1.00563
0
LINE
8
BLACK
6
CONTINUOUS
10
2.2523
20
1.00563
11
2.24413
21
1.01063
0
LINE
8
BLACK
6
CONTINUOUS
10
2.24413
20
1.01063
11
2.23685
21
1.01685
0
LINE
8
BLACK
6
CONTINUOUS
10
2.23685
20
1.01685
11
2.23063
21
1.02413
0
LINE
8
BLACK
6
CONTINUOUS
10
2.23063
20
1.02413
11
2.22563
21
1.0323
0
LINE
8
BLACK
6
CONTINUOUS
10
2.22563
20
1.0323
11
2.22196
21
1.04114
0
LINE
8
BLACK
6
CONTINUOUS
10
2.22196
20
1.04114
11
2.21973
21
1.05045
0
LINE
8
BLACK
6
CONTINUOUS
10
2.21973
20
1.05045
11
2.21898
21
1.06
0
LINE
8
BLACK
6
CONTINUOUS
10
2.21898
20
1.06
11
2.21973
21
1.06955
0
LINE
8
BLACK
6
CONTINUOUS
10
2.21973
20
1.06955
11
2.22196
21
1.07886
0
LINE
8
BLACK
6
CONTINUOUS
10
2.22196
20
1.07886
11
2.22563
21
1.0877
0
LINE
8
BLACK
6
CONTINUOUS
10
2.22563
20
1.0877
11
2.23063
21
1.09587
0
LINE
8
BLACK
6
CONTINUOUS
10
2.23063
20
1.09587
11
2.23685
21
1.10315
0
LINE
8
BLACK
6
CONTINUOUS
10
2.23685
20
1.10315
11
2.24413
21
1.10937
0
LINE
8
BLACK
6
CONTINUOUS
10
2.24413
20
1.10937
11
2.2523
21
1.11437
0
LINE
8
BLACK
6
CONTINUOUS
10
2.2523
20
1.11437
11
2.26114
21
1.11804
0
LINE
8
BLACK
6
CONTINUOUS
10
2.26114
20
1.11804
11
2.27045
21
1.12027
0
LINE
8
BLACK
6
CONTINUOUS
10
2.27045
20
1.12027
11
2.28
21
1.12102
0
LINE
8
BLACK
6
CONTINUOUS
10
2.28
20
1.12102
11
2.28955
21
1.12027
0
LINE
8
BLACK
6
CONTINUOUS
10
0.803013
20
1.13727
11
0.805568
21
1.13557
0
LINE
8
BLACK
6
CONTINUOUS
10
0.805568
20
1.13557
11
0.807275
21
1.13301
0
LINE
8
BLACK
6
CONTINUOUS
10
0.807275
20
1.13301
11
0.807874
21
1.13
0
LINE
8
BLACK
6
CONTINUOUS
10
0.807874
20
1.13
11
0.807874
21
1.07
0
LINE
8
BLACK
6
CONTINUOUS
10
0.807874
20
1.07
11
0.807275
21
1.06699
0
LINE
8
BLACK
6
CONTINUOUS
10
0.807275
20
1.06699
11
0.805568
21
1.06443
0
LINE
8
BLACK
6
CONTINUOUS
10
0.805568
20
1.06443
11
0.803013
21
1.06273
0
LINE
8
BLACK
6
CONTINUOUS
10
0.803013
20
1.06273
11
0.8
21
1.06213
0
LINE
8
BLACK
6
CONTINUOUS
10
0.8
20
1.06213
11
0.74
21
1.06213
0
LINE
8
BLACK
6
CONTINUOUS
10
0.74
20
1.06213
11
0.736987
21
1.06273
0
LINE
8
BLACK
6
CONTINUOUS
10
0.736987
20
1.06273
11
0.734432
21
1.06443
0
LINE
8
BLACK
6
CONTINUOUS
10
0.734432
20
1.06443
11
0.732725
21
1.06699
0
LINE
8
BLACK
6
CONTINUOUS
10
0.732725
20
1.06699
11
0.732126
21
1.07
0
LINE
8
BLACK
6
CONTINUOUS
10
0.732126
20
1.07
11
0.732126
21
1.13
0
LINE
8
BLACK
6
CONTINUOUS
10
0.732126
20
1.13
11
0.732725
21
1.13301
0
LINE
8
BLACK
6
CONTINUOUS
10
0.732725
20
1.13301
11
0.734432
21
1.13557
0
LINE
8
BLACK
6
CONTINUOUS
10
0.734432
20
1.13557
11
0.736987
21
1.13727
0
LINE
8
BLACK
6
CONTINUOUS
10
0.736987
20
1.13727
11
0.74
21
1.13787
0
LINE
8
BLACK
6
CONTINUOUS
10
0.74
20
1.13787
11
0.8
21
1.13787
0
LINE
8
BLACK
6
CONTINUOUS
10
0.8
20
1.13787
11
0.803013
21
1.13727
0
LINE
8
BLACK
6
CONTINUOUS
10
1.10301
20
1.13727
11
1.10557
21
1.13557
0
LINE
8
BLACK
6
CONTINUOUS
10
1.10557
20
1.13557
11
1.10727
21
1.13301
0
LINE
8
BLACK
6
CONTINUOUS
10
1.10727
20
1.13301
11
1.10787
21
1.13
0
LINE
8
BLACK
6
CONTINUOUS
10
1.10787
20
1.13
11
1.10787
21
1.07
0
LINE
8
BLACK
6
CONTINUOUS
10
1.10787
20
1.07
11
1.10727
21
1.06699
0
LINE
8
BLACK
6
CONTINUOUS
10
1.10727
20
1.06699
11
1.10557
21
1.06443
0
LINE
8
BLACK
6
CONTINUOUS
10
1.10557
20
1.06443
11
1.10301
21
1.06273
0
LINE
8
BLACK
6
CONTINUOUS
10
1.10301
20
1.06273
11
1.1
21
1.06213
0
LINE
8
BLACK
6
CONTINUOUS
10
1.1
20
1.06213
11
1.04
21
1.06213
0
LINE
8
BLACK
6
CONTINUOUS
10
1.04
20
1.06213
11
1.03699
21
1.06273
0
LINE
8
BLACK
6
CONTINUOUS
10
1.03699
20
1.06273
11
1.03443
21
1.06443
0
LINE
8
BLACK
6
CONTINUOUS
10
1.03443
20
1.06443
11
1.03273
21
1.06699
0
LINE
8
BLACK
6
CONTINUOUS
10
1.03273
20
1.06699
11
1.03213
21
1.07
0
LINE
8
BLACK
6
CONTINUOUS
10
1.03213
20
1.07
11
1.03213
21
1.13
0
LINE
8
BLACK
6
CONTINUOUS
10
1.03213
20
1.13
11
1.03273
21
1.13301
0
LINE
8
BLACK
6
CONTINUOUS
10
1.03273
20
1.13301
11
1.03443
21
1.13557
0
LINE
8
BLACK
6
CONTINUOUS
10
1.03443
20
1.13557
11
1.03699
21
1.13727
0
LINE
8
BLACK
6
CONTINUOUS
10
1.03699
20
1.13727
11
1.04
21
1.13787
0
LINE
8
BLACK
6
CONTINUOUS
10
1.04
20
1.13787
11
1.1
21
1.13787
0
LINE
8
BLACK
6
CONTINUOUS
10
1.1
20
1.13787
11
1.10301
21
1.13727
0
LINE
8
BLACK
6
CONTINUOUS
10
0.903013
20
1.13727
11
0.905568
21
1.13557
0
LINE
8
BLACK
6
CONTINUOUS
10
0.905568
20
1.13557
11
0.907275
21
1.13301
0
LINE
8
BLACK
6
CONTINUOUS
10
0.907275
20
1.13301
11
0.907874
21
1.13
0
LINE
8
BLACK
6
CONTINUOUS
10
0.907874
20
1.13
11
0.907874
21
1.07
0
LINE
8
BLACK
6
CONTINUOUS
10
0.907874
20
1.07
11
0.907275
21
1.06699
0
LINE
8
BLACK
6
CONTINUOUS
10
0.907275
20
1.06699
11
0.905568
21
1.06443
0
LINE
8
BLACK
6
CONTINUOUS
10
0.905568
20
1.06443
11
0.903013
21
1.06273
0
LINE
8
BLACK
6
CONTINUOUS
10
0.903013
20
1.06273
11
0.9
21
1.06213
0
LINE
8
BLACK
6
CONTINUOUS
10
0.9
20
1.06213
11
0.84
21
1.06213
0
LINE
8
BLACK
6
CONTINUOUS
10
0.84
20
1.06213
11
0.836987
21
1.06273
0
LINE
8
BLACK
6
CONTINUOUS
10
0.836987
20
1.06273
11
0.834432
21
1.06443
0
LINE
8
BLACK
6
CONTINUOUS
10
0.834432
20
1.06443
11
0.832725
21
1.06699
0
LINE
8
BLACK
6
CONTINUOUS
10
0.832725
20
1.06699
11
0.832126
21
1.07
0
LINE
8
BLACK
6
CONTINUOUS
10
0.832126
20
1.07
11
0.832126
21
1.13
0
LINE
8
BLACK
6
CONTINUOUS
10
0.832126
20
1.13
11
0.832725
21
1.13301
0
LINE
8
BLACK
6
CONTINUOUS
10
0.832725
20
1.13301
11
0.834432
21
1.13557
0
LINE
8
BLACK
6
CONTINUOUS
10
0.834432
20
1.13557
11
0.836987
21
1.13727
0
LINE
8
BLACK
6
CONTINUOUS
10
0.836987
20
1.13727
11
0.84
21
1.13787
0
LINE
8
BLACK
6
CONTINUOUS
10
0.84
20
1.13787
11
0.9
21
1.13787
0
LINE
8
BLACK
6
CONTINUOUS
10
0.9
20
1.13787
11
0.903013
21
1.13727
0
LINE
8
BLACK
6
CONTINUOUS
10
1.00301
20
1.13727
11
1.00557
21
1.13557
0
LINE
8
BLACK
6
CONTINUOUS
10
1.00557
20
1.13557
11
1.00727
21
1.13301
0
LINE
8
BLACK
6
CONTINUOUS
10
1.00727
20
1.13301
11
1.00787
21
1.13
0
LINE
8
BLACK
6
CONTINUOUS
10
1.00787
20
1.13
11
1.00787
21
1.07
0
LINE
8
BLACK
6
CONTINUOUS
10
1.00787
20
1.07
11
1.00727
21
1.06699
0
LINE
8
BLACK
6
CONTINUOUS
10
1.00727
20
1.06699
11
1.00557
21
1.06443
0
LINE
8
BLACK
6
CONTINUOUS
10
1.00557
20
1.06443
11
1.00301
21
1.06273
0
LINE
8
BLACK
6
CONTINUOUS
10
1.00301
20
1.06273
11
1
21
1.06213
0
LINE
8
BLACK
6
CONTINUOUS
10
1
20
1.06213
11
0.94
21
1.06213
0
LINE
8
BLACK
6
CONTINUOUS
10
0.94
20
1.06213
11
0.936987
21
1.06273
0
LINE
8
BLACK
6
CONTINUOUS
10
0.936987
20
1.06273
11
0.934432
21
1.06443
0
LINE
8
BLACK
6
CONTINUOUS
10
0.934432
20
1.06443
11
0.932725
21
1.06699
0
LINE
8
BLACK
6
CONTINUOUS
10
0.932725
20
1.06699
11
0.932126
21
1.07
0
LINE
8
BLACK
6
CONTINUOUS
10
0.932126
20
1.07
11
0.932126
21
1.13
0
LINE
8
BLACK
6
CONTINUOUS
10
0.932126
20
1.13
11
0.932725
21
1.13301
0
LINE
8
BLACK
6
CONTINUOUS
10
0.932725
20
1.13301
11
0.934432
21
1.13557
0
LINE
8
BLACK
6
CONTINUOUS
10
0.934432
20
1.13557
11
0.936987
21
1.13727
0
LINE
8
BLACK
6
CONTINUOUS
10
0.936987
20
1.13727
11
0.94
21
1.13787
0
LINE
8
BLACK
6
CONTINUOUS
10
0.94
20
1.13787
11
1
21
1.13787
0
LINE
8
BLACK
6
CONTINUOUS
10
1
20
1.13787
11
1.00301
21
1.13727
0
LINE
8
BLACK
6
CONTINUOUS
10
0.489546
20
1.37027
11
0.498857
21
1.36804
0
LINE
8
BLACK
6
CONTINUOUS
10
0.498857
20
1.36804
11
0.507704
21
1.36437
0
LINE
8
BLACK
6
CONTINUOUS
10
0.507704
20
1.36437
11
0.515869
21
1.35937
0
LINE
8
BLACK
6
CONTINUOUS
10
0.515869
20
1.35937
11
0.52315
21
1.35315
0
LINE
8
BLACK
6
CONTINUOUS
10
0.52315
20
1.35315
11
0.529369
21
1.34587
0
LINE
8
BLACK
6
CONTINUOUS
10
0.529369
20
1.34587
11
0.534372
21
1.3377
0
LINE
8
BLACK
6
CONTINUOUS
10
0.534372
20
1.3377
11
0.538037
21
1.32886
0
LINE
8
BLACK
6
CONTINUOUS
10
0.538037
20
1.32886
11
0.540272
21
1.31955
0
LINE
8
BLACK
6
CONTINUOUS
10
0.540272
20
1.31955
11
0.541024
21
1.31
0
LINE
8
BLACK
6
CONTINUOUS
10
0.541024
20
1.31
11
0.540272
21
1.30045
0
LINE
8
BLACK
6
CONTINUOUS
10
0.540272
20
1.30045
11
0.538037
21
1.29114
0
LINE
8
BLACK
6
CONTINUOUS
10
0.538037
20
1.29114
11
0.534372
21
1.2823
0
LINE
8
BLACK
6
CONTINUOUS
10
0.534372
20
1.2823
11
0.529369
21
1.27413
0
LINE
8
BLACK
6
CONTINUOUS
10
0.529369
20
1.27413
11
0.52315
21
1.26685
0
LINE
8
BLACK
6
CONTINUOUS
10
0.52315
20
1.26685
11
0.515869
21
1.26063
0
LINE
8
BLACK
6
CONTINUOUS
10
0.515869
20
1.26063
11
0.507704
21
1.25563
0
LINE
8
BLACK
6
CONTINUOUS
10
0.507704
20
1.25563
11
0.498857
21
1.25196
0
LINE
8
BLACK
6
CONTINUOUS
10
0.498857
20
1.25196
11
0.489546
21
1.24973
0
LINE
8
BLACK
6
CONTINUOUS
10
0.489546
20
1.24973
11
0.48
21
1.24898
0
LINE
8
BLACK
6
CONTINUOUS
10
0.48
20
1.24898
11
0.470454
21
1.24973
0
LINE
8
BLACK
6
CONTINUOUS
10
0.470454
20
1.24973
11
0.461143
21
1.25196
0
LINE
8
BLACK
6
CONTINUOUS
10
0.461143
20
1.25196
11
0.452296
21
1.25563
0
LINE
8
BLACK
6
CONTINUOUS
10
0.452296
20
1.25563
11
0.444131
21
1.26063
0
LINE
8
BLACK
6
CONTINUOUS
10
0.444131
20
1.26063
11
0.43685
21
1.26685
0
LINE
8
BLACK
6
CONTINUOUS
10
0.43685
20
1.26685
11
0.430631
21
1.27413
0
LINE
8
BLACK
6
CONTINUOUS
10
0.430631
20
1.27413
11
0.425628
21
1.2823
0
LINE
8
BLACK
6
CONTINUOUS
10
0.425628
20
1.2823
11
0.421963
21
1.29114
0
LINE
8
BLACK
6
CONTINUOUS
10
0.421963
20
1.29114
11
0.419728
21
1.30045
0
LINE
8
BLACK
6
CONTINUOUS
10
0.419728
20
1.30045
11
0.418976
21
1.31
0
LINE
8
BLACK
6
CONTINUOUS
10
0.418976
20
1.31
11
0.419728
21
1.31955
0
LINE
8
BLACK
6
CONTINUOUS
10
0.419728
20
1.31955
11
0.421963
21
1.32886
0
LINE
8
BLACK
6
CONTINUOUS
10
0.421963
20
1.32886
11
0.425628
21
1.3377
0
LINE
8
BLACK
6
CONTINUOUS
10
0.425628
20
1.3377
11
0.430631
21
1.34587
0
LINE
8
BLACK
6
CONTINUOUS
10
0.430631
20
1.34587
11
0.43685
21
1.35315
0
LINE
8
BLACK
6
CONTINUOUS
10
0.43685
20
1.35315
11
0.444131
21
1.35937
0
LINE
8
BLACK
6
CONTINUOUS
10
0.444131
20
1.35937
11
0.452296
21
1.36437
0
LINE
8
BLACK
6
CONTINUOUS
10
0.452296
20
1.36437
11
0.461143
21
1.36804
0
LINE
8
BLACK
6
CONTINUOUS
10
0.461143
20
1.36804
11
0.470454
21
1.37027
0
LINE
8
BLACK
6
CONTINUOUS
10
0.470454
20
1.37027
11
0.48
21
1.37102
0
LINE
8
BLACK
6
CONTINUOUS
10
0.48
20
1.37102
11
0.489546
21
1.37027
0
LINE
8
BLACK
6
CONTINUOUS
10
0.639546
20
1.37027
11
0.648857
21
1.36804
0
LINE
8
BLACK
6
CONTINUOUS
10
0.648857
20
1.36804
11
0.657704
21
1.36437
0
LINE
8
BLACK
6
CONTINUOUS
10
0.657704
20
1.36437
11
0.665869
21
1.35937
0
LINE
8
BLACK
6
CONTINUOUS
10
0.665869
20
1.35937
11
0.67315
21
1.35315
0
LINE
8
BLACK
6
CONTINUOUS
10
0.67315
20
1.35315
11
0.679369
21
1.34587
0
LINE
8
BLACK
6
CONTINUOUS
10
0.679369
20
1.34587
11
0.684372
21
1.3377
0
LINE
8
BLACK
6
CONTINUOUS
10
0.684372
20
1.3377
11
0.688037
21
1.32886
0
LINE
8
BLACK
6
CONTINUOUS
10
0.688037
20
1.32886
11
0.690272
21
1.31955
0
LINE
8
BLACK
6
CONTINUOUS
10
0.690272
20
1.31955
11
0.691024
21
1.31
0
LINE
8
BLACK
6
CONTINUOUS
10
0.691024
20
1.31
11
0.690272
21
1.30045
0
LINE
8
BLACK
6
CONTINUOUS
10
0.690272
20
1.30045
11
0.688037
21
1.29114
0
LINE
8
BLACK
6
CONTINUOUS
10
0.688037
20
1.29114
11
0.684372
21
1.2823
0
LINE
8
BLACK
6
CONTINUOUS
10
0.684372
20
1.2823
11
0.679369
21
1.27413
0
LINE
8
BLACK
6
CONTINUOUS
10
0.679369
20
1.27413
11
0.67315
21
1.26685
0
LINE
8
BLACK
6
CONTINUOUS
10
0.67315
20
1.26685
11
0.665869
21
1.26063
0
LINE
8
BLACK
6
CONTINUOUS
10
0.665869
20
1.26063
11
0.657704
21
1.25563
0
LINE
8
BLACK
6
CONTINUOUS
10
0.657704
20
1.25563
11
0.648857
21
1.25196
0
LINE
8
BLACK
6
CONTINUOUS
10
0.648857
20
1.25196
11
0.639546
21
1.24973
0
LINE
8
BLACK
6
CONTINUOUS
10
0.639546
20
1.24973
11
0.63
21
1.24898
0
LINE
8
BLACK
6
CONTINUOUS
10
0.63
20
1.24898
11
0.620454
21
1.24973
0
LINE
8
BLACK
6
CONTINUOUS
10
0.620454
20
1.24973
11
0.611143
21
1.25196
0
LINE
8
BLACK
6
CONTINUOUS
10
0.611143
20
1.25196
11
0.602296
21
1.25563
0
LINE
8
BLACK
6
CONTINUOUS
10
0.602296
20
1.25563
11
0.594131
21
1.26063
0
LINE
8
BLACK
6
CONTINUOUS
10
0.594131
20
1.26063
11
0.58685
21
1.26685
0
LINE
8
BLACK
6
CONTINUOUS
10
0.58685
20
1.26685
11
0.580631
21
1.27413
0
LINE
8
BLACK
6
CONTINUOUS
10
0.580631
20
1.27413
11
0.575628
21
1.2823
0
LINE
8
BLACK
6
CONTINUOUS
10
0.575628
20
1.2823
11
0.571963
21
1.29114
0
LINE
8
BLACK
6
CONTINUOUS
10
0.571963
20
1.29114
11
0.569728
21
1.30045
0
LINE
8
BLACK
6
CONTINUOUS
10
0.569728
20
1.30045
11
0.568976
21
1.31
0
LINE
8
BLACK
6
CONTINUOUS
10
0.568976
20
1.31
11
0.569728
21
1.31955
0
LINE
8
BLACK
6
CONTINUOUS
10
0.569728
20
1.31955
11
0.571963
21
1.32886
0
LINE
8
BLACK
6
CONTINUOUS
10
0.571963
20
1.32886
11
0.575628
21
1.3377
0
LINE
8
BLACK
6
CONTINUOUS
10
0.575628
20
1.3377
11
0.580631
21
1.34587
0
LINE
8
BLACK
6
CONTINUOUS
10
0.580631
20
1.34587
11
0.58685
21
1.35315
0
LINE
8
BLACK
6
CONTINUOUS
10
0.58685
20
1.35315
11
0.594131
21
1.35937
0
LINE
8
BLACK
6
CONTINUOUS
10
0.594131
20
1.35937
11
0.602296
21
1.36437
0
LINE
8
BLACK
6
CONTINUOUS
10
0.602296
20
1.36437
11
0.611143
21
1.36804
0
LINE
8
BLACK
6
CONTINUOUS
10
0.611143
20
1.36804
11
0.620454
21
1.37027
0
LINE
8
BLACK
6
CONTINUOUS
10
0.620454
20
1.37027
11
0.63
21
1.37102
0
LINE
8
BLACK
6
CONTINUOUS
10
0.63
20
1.37102
11
0.639546
21
1.37027
0
LINE
8
BLACK
6
CONTINUOUS
10
0.919546
20
1.37153
11
0.928857
21
1.3693
0
LINE
8
BLACK
6
CONTINUOUS
10
0.928857
20
1.3693
11
0.937704
21
1.36563
0
LINE
8
BLACK
6
CONTINUOUS
10
0.937704
20
1.36563
11
0.945869
21
1.36063
0
LINE
8
BLACK
6
CONTINUOUS
10
0.945869
20
1.36063
11
0.95315
21
1.35441
0
LINE
8
BLACK
6
CONTINUOUS
10
0.95315
20
1.35441
11
0.959369
21
1.34713
0
LINE
8
BLACK
6
CONTINUOUS
10
0.959369
20
1.34713
11
0.964372
21
1.33896
0
LINE
8
BLACK
6
CONTINUOUS
10
0.964372
20
1.33896
11
0.968037
21
1.33012
0
LINE
8
BLACK
6
CONTINUOUS
10
0.968037
20
1.33012
11
0.970272
21
1.32081
0
LINE
8
BLACK
6
CONTINUOUS
10
0.970272
20
1.32081
11
0.971024
21
1.31126
0
LINE
8
BLACK
6
CONTINUOUS
10
0.971024
20
1.31126
11
0.970272
21
1.30171
0
LINE
8
BLACK
6
CONTINUOUS
10
0.970272
20
1.30171
11
0.968037
21
1.2924
0
LINE
8
BLACK
6
CONTINUOUS
10
0.968037
20
1.2924
11
0.964372
21
1.28356
0
LINE
8
BLACK
6
CONTINUOUS
10
0.964372
20
1.28356
11
0.959369
21
1.27539
0
LINE
8
BLACK
6
CONTINUOUS
10
0.959369
20
1.27539
11
0.95315
21
1.26811
0
LINE
8
BLACK
6
CONTINUOUS
10
0.95315
20
1.26811
11
0.945869
21
1.26189
0
LINE
8
BLACK
6
CONTINUOUS
10
0.945869
20
1.26189
11
0.937704
21
1.25689
0
LINE
8
BLACK
6
CONTINUOUS
10
0.937704
20
1.25689
11
0.928857
21
1.25322
0
LINE
8
BLACK
6
CONTINUOUS
10
0.928857
20
1.25322
11
0.919546
21
1.25099
0
LINE
8
BLACK
6
CONTINUOUS
10
0.919546
20
1.25099
11
0.91
21
1.25024
0
LINE
8
BLACK
6
CONTINUOUS
10
0.91
20
1.25024
11
0.900454
21
1.25099
0
LINE
8
BLACK
6
CONTINUOUS
10
0.900454
20
1.25099
11
0.891143
21
1.25322
0
LINE
8
BLACK
6
CONTINUOUS
10
0.891143
20
1.25322
11
0.882296
21
1.25689
0
LINE
8
BLACK
6
CONTINUOUS
10
0.882296
20
1.25689
11
0.874131
21
1.26189
0
LINE
8
BLACK
6
CONTINUOUS
10
0.874131
20
1.26189
11
0.86685
21
1.26811
0
LINE
8
BLACK
6
CONTINUOUS
10
0.86685
20
1.26811
11
0.860631
21
1.27539
0
LINE
8
BLACK
6
CONTINUOUS
10
0.860631
20
1.27539
11
0.855628
21
1.28356
0
LINE
8
BLACK
6
CONTINUOUS
10
0.855628
20
1.28356
11
0.851963
21
1.2924
0
LINE
8
BLACK
6
CONTINUOUS
10
0.851963
20
1.2924
11
0.849728
21
1.30171
0
LINE
8
BLACK
6
CONTINUOUS
10
0.849728
20
1.30171
11
0.848976
21
1.31126
0
LINE
8
BLACK
6
CONTINUOUS
10
0.848976
20
1.31126
11
0.849728
21
1.32081
0
LINE
8
BLACK
6
CONTINUOUS
10
0.849728
20
1.32081
11
0.851963
21
1.33012
0
LINE
8
BLACK
6
CONTINUOUS
10
0.851963
20
1.33012
11
0.855628
21
1.33896
0
LINE
8
BLACK
6
CONTINUOUS
10
0.855628
20
1.33896
11
0.860631
21
1.34713
0
LINE
8
BLACK
6
CONTINUOUS
10
0.860631
20
1.34713
11
0.86685
21
1.35441
0
LINE
8
BLACK
6
CONTINUOUS
10
0.86685
20
1.35441
11
0.874131
21
1.36063
0
LINE
8
BLACK
6
CONTINUOUS
10
0.874131
20
1.36063
11
0.882296
21
1.36563
0
LINE
8
BLACK
6
CONTINUOUS
10
0.882296
20
1.36563
11
0.891143
21
1.3693
0
LINE
8
BLACK
6
CONTINUOUS
10
0.891143
20
1.3693
11
0.900454
21
1.37153
0
LINE
8
BLACK
6
CONTINUOUS
10
0.900454
20
1.37153
11
0.91
21
1.37228
0
LINE
8
BLACK
6
CONTINUOUS
10
0.91
20
1.37228
11
0.919546
21
1.37153
0
LINE
8
BLACK
6
CONTINUOUS
10
0.779546
20
1.37153
11
0.788857
21
1.3693
0
LINE
8
BLACK
6
CONTINUOUS
10
0.788857
20
1.3693
11
0.797704
21
1.36563
0
LINE
8
BLACK
6
CONTINUOUS
10
0.797704
20
1.36563
11
0.805869
21
1.36063
0
LINE
8
BLACK
6
CONTINUOUS
10
0.805869
20
1.36063
11
0.81315
21
1.35441
0
LINE
8
BLACK
6
CONTINUOUS
10
0.81315
20
1.35441
11
0.819369
21
1.34713
0
LINE
8
BLACK
6
CONTINUOUS
10
0.819369
20
1.34713
11
0.824372
21
1.33896
0
LINE
8
BLACK
6
CONTINUOUS
10
0.824372
20
1.33896
11
0.828037
21
1.33012
0
LINE
8
BLACK
6
CONTINUOUS
10
0.828037
20
1.33012
11
0.830272
21
1.32081
0
LINE
8
BLACK
6
CONTINUOUS
10
0.830272
20
1.32081
11
0.831024
21
1.31126
0
LINE
8
BLACK
6
CONTINUOUS
10
0.831024
20
1.31126
11
0.830272
21
1.30171
0
LINE
8
BLACK
6
CONTINUOUS
10
0.830272
20
1.30171
11
0.828037
21
1.2924
0
LINE
8
BLACK
6
CONTINUOUS
10
0.828037
20
1.2924
11
0.824372
21
1.28356
0
LINE
8
BLACK
6
CONTINUOUS
10
0.824372
20
1.28356
11
0.819369
21
1.27539
0
LINE
8
BLACK
6
CONTINUOUS
10
0.819369
20
1.27539
11
0.81315
21
1.26811
0
LINE
8
BLACK
6
CONTINUOUS
10
0.81315
20
1.26811
11
0.805869
21
1.26189
0
LINE
8
BLACK
6
CONTINUOUS
10
0.805869
20
1.26189
11
0.797704
21
1.25689
0
LINE
8
BLACK
6
CONTINUOUS
10
0.797704
20
1.25689
11
0.788857
21
1.25322
0
LINE
8
BLACK
6
CONTINUOUS
10
0.788857
20
1.25322
11
0.779546
21
1.25099
0
LINE
8
BLACK
6
CONTINUOUS
10
0.779546
20
1.25099
11
0.77
21
1.25024
0
LINE
8
BLACK
6
CONTINUOUS
10
0.77
20
1.25024
11
0.760454
21
1.25099
0
LINE
8
BLACK
6
CONTINUOUS
10
0.760454
20
1.25099
11
0.751143
21
1.25322
0
LINE
8
BLACK
6
CONTINUOUS
10
0.751143
20
1.25322
11
0.742296
21
1.25689
0
LINE
8
BLACK
6
CONTINUOUS
10
0.742296
20
1.25689
11
0.734131
21
1.26189
0
LINE
8
BLACK
6
CONTINUOUS
10
0.734131
20
1.26189
11
0.72685
21
1.26811
0
LINE
8
BLACK
6
CONTINUOUS
10
0.72685
20
1.26811
11
0.720631
21
1.27539
0
LINE
8
BLACK
6
CONTINUOUS
10
0.720631
20
1.27539
11
0.715628
21
1.28356
0
LINE
8
BLACK
6
CONTINUOUS
10
0.715628
20
1.28356
11
0.711963
21
1.2924
0
LINE
8
BLACK
6
CONTINUOUS
10
0.711963
20
1.2924
11
0.709728
21
1.30171
0
LINE
8
BLACK
6
CONTINUOUS
10
0.709728
20
1.30171
11
0.708976
21
1.31126
0
LINE
8
BLACK
6
CONTINUOUS
10
0.708976
20
1.31126
11
0.709728
21
1.32081
0
LINE
8
BLACK
6
CONTINUOUS
10
0.709728
20
1.32081
11
0.711963
21
1.33012
0
LINE
8
BLACK
6
CONTINUOUS
10
0.711963
20
1.33012
11
0.715628
21
1.33896
0
LINE
8
BLACK
6
CONTINUOUS
10
0.715628
20
1.33896
11
0.720631
21
1.34713
0
LINE
8
BLACK
6
CONTINUOUS
10
0.720631
20
1.34713
11
0.72685
21
1.35441
0
LINE
8
BLACK
6
CONTINUOUS
10
0.72685
20
1.35441
11
0.734131
21
1.36063
0
LINE
8
BLACK
6
CONTINUOUS
10
0.734131
20
1.36063
11
0.742296
21
1.36563
0
LINE
8
BLACK
6
CONTINUOUS
10
0.742296
20
1.36563
11
0.751143
21
1.3693
0
LINE
8
BLACK
6
CONTINUOUS
10
0.751143
20
1.3693
11
0.760454
21
1.37153
0
LINE
8
BLACK
6
CONTINUOUS
10
0.760454
20
1.37153
11
0.77
21
1.37228
0
LINE
8
BLACK
6
CONTINUOUS
10
0.77
20
1.37228
11
0.779546
21
1.37153
0
LINE
8
BLACK
6
CONTINUOUS
10
0.214917
20
1.5251
11
0.228769
21
1.52266
0
LINE
8
BLACK
6
CONTINUOUS
10
0.228769
20
1.52266
11
0.242262
21
1.51868
0
LINE
8
BLACK
6
CONTINUOUS
10
0.242262
20
1.51868
11
0.255228
21
1.51323
0
LINE
8
BLACK
6
CONTINUOUS
10
0.255228
20
1.51323
11
0.267506
21
1.50637
0
LINE
8
BLACK
6
CONTINUOUS
10
0.267506
20
1.50637
11
0.278942
21
1.49818
0
LINE
8
BLACK
6
CONTINUOUS
10
0.278942
20
1.49818
11
0.289395
21
1.48877
0
LINE
8
BLACK
6
CONTINUOUS
10
0.289395
20
1.48877
11
0.298733
21
1.47825
0
LINE
8
BLACK
6
CONTINUOUS
10
0.298733
20
1.47825
11
0.306841
21
1.46676
0
LINE
8
BLACK
6
CONTINUOUS
10
0.306841
20
1.46676
11
0.313617
21
1.45444
0
LINE
8
BLACK
6
CONTINUOUS
10
0.313617
20
1.45444
11
0.318977
21
1.44143
0
LINE
8
BLACK
6
CONTINUOUS
10
0.318977
20
1.44143
11
0.322853
21
1.42791
0
LINE
8
BLACK
6
CONTINUOUS
10
0.322853
20
1.42791
11
0.325199
21
1.41404
0
LINE
8
BLACK
6
CONTINUOUS
10
0.325199
20
1.41404
11
0.325984
21
1.4
0
LINE
8
BLACK
6
CONTINUOUS
10
0.325984
20
1.4
11
0.325935
21
1.39648
0
LINE
8
BLACK
6
CONTINUOUS
10
0.325935
20
1.39648
11
0.324758
21
1.38247
0
LINE
8
BLACK
6
CONTINUOUS
10
0.324758
20
1.38247
11
0.322026
21
1.36867
0
LINE
8
BLACK
6
CONTINUOUS
10
0.322026
20
1.36867
11
0.317773
21
1.35526
0
LINE
8
BLACK
6
CONTINUOUS
10
0.317773
20
1.35526
11
0.312052
21
1.34241
0
LINE
8
BLACK
6
CONTINUOUS
10
0.312052
20
1.34241
11
0.304935
21
1.33028
0
LINE
8
BLACK
6
CONTINUOUS
10
0.304935
20
1.33028
11
0.29651
21
1.31902
0
LINE
8
BLACK
6
CONTINUOUS
10
0.29651
20
1.31902
11
0.286881
21
1.30877
0
LINE
8
BLACK
6
CONTINUOUS
10
0.286881
20
1.30877
11
0.27617
21
1.29965
0
LINE
8
BLACK
6
CONTINUOUS
10
0.27617
20
1.29965
11
0.264509
21
1.29178
0
LINE
8
BLACK
6
CONTINUOUS
10
0.264509
20
1.29178
11
0.252045
21
1.28527
0
LINE
8
BLACK
6
CONTINUOUS
10
0.252045
20
1.28527
11
0.238931
21
1.28018
0
LINE
8
BLACK
6
CONTINUOUS
10
0.238931
20
1.28018
11
0.225333
21
1.27659
0
LINE
8
BLACK
6
CONTINUOUS
10
0.225333
20
1.27659
11
0.211418
21
1.27453
0
LINE
8
BLACK
6
CONTINUOUS
10
0.211418
20
1.27453
11
0.197362
21
1.27404
0
LINE
8
BLACK
6
CONTINUOUS
10
0.197362
20
1.27404
11
0.183338
21
1.27512
0
LINE
8
BLACK
6
CONTINUOUS
10
0.183338
20
1.27512
11
0.169522
21
1.27776
0
LINE
8
BLACK
6
CONTINUOUS
10
0.169522
20
1.27776
11
0.156085
21
1.28192
0
LINE
8
BLACK
6
CONTINUOUS
10
0.156085
20
1.28192
11
0.143197
21
1.28755
0
LINE
8
BLACK
6
CONTINUOUS
10
0.143197
20
1.28755
11
0.131016
21
1.29458
0
LINE
8
BLACK
6
CONTINUOUS
10
0.131016
20
1.29458
11
0.119695
21
1.30293
0
LINE
8
BLACK
6
CONTINUOUS
10
0.119695
20
1.30293
11
0.109375
21
1.31248
0
LINE
8
BLACK
6
CONTINUOUS
10
0.109375
20
1.31248
11
0.100184
21
1.32313
0
LINE
8
BLACK
6
CONTINUOUS
10
0.100184
20
1.32313
11
0.0922376
21
1.33474
0
LINE
8
BLACK
6
CONTINUOUS
10
0.0922376
20
1.33474
11
0.0856343
21
1.34716
0
LINE
8
BLACK
6
CONTINUOUS
10
0.0856343
20
1.34716
11
0.0804566
21
1.36023
0
LINE
8
BLACK
6
CONTINUOUS
10
0.0804566
20
1.36023
11
0.0767688
21
1.37381
0
LINE
8
BLACK
6
CONTINUOUS
10
0.0767688
20
1.37381
11
0.074617
21
1.38771
0
LINE
8
BLACK
6
CONTINUOUS
10
0.074617
20
1.38771
11
0.074028
21
1.40176
0
LINE
8
BLACK
6
CONTINUOUS
10
0.074028
20
1.40176
11
0.0750092
21
1.41579
0
LINE
8
BLACK
6
CONTINUOUS
10
0.0750092
20
1.41579
11
0.0775482
21
1.42962
0
LINE
8
BLACK
6
CONTINUOUS
10
0.0775482
20
1.42962
11
0.0816135
21
1.44309
0
LINE
8
BLACK
6
CONTINUOUS
10
0.0816135
20
1.44309
11
0.0871544
21
1.45602
0
LINE
8
BLACK
6
CONTINUOUS
10
0.0871544
20
1.45602
11
0.0941019
21
1.46825
0
LINE
8
BLACK
6
CONTINUOUS
10
0.0941019
20
1.46825
11
0.102369
21
1.47963
0
LINE
8
BLACK
6
CONTINUOUS
10
0.102369
20
1.47963
11
0.111853
21
1.49001
0
LINE
8
BLACK
6
CONTINUOUS
10
0.111853
20
1.49001
11
0.122436
21
1.49928
0
LINE
8
BLACK
6
CONTINUOUS
10
0.122436
20
1.49928
11
0.133986
21
1.5073
0
LINE
8
BLACK
6
CONTINUOUS
10
0.133986
20
1.5073
11
0.146359
21
1.51399
0
LINE
8
BLACK
6
CONTINUOUS
10
0.146359
20
1.51399
11
0.1594
21
1.51926
0
LINE
8
BLACK
6
CONTINUOUS
10
0.1594
20
1.51926
11
0.172947
21
1.52305
0
LINE
8
BLACK
6
CONTINUOUS
10
0.172947
20
1.52305
11
0.186831
21
1.52529
0
LINE
8
BLACK
6
CONTINUOUS
10
0.186831
20
1.52529
11
0.20088
21
1.52598
0
LINE
8
BLACK
6
CONTINUOUS
10
0.20088
20
1.52598
11
0.214917
21
1.5251
0
LINE
8
BLACK
6
CONTINUOUS
10
2.21492
20
1.5251
11
2.22877
21
1.52266
0
LINE
8
BLACK
6
CONTINUOUS
10
2.22877
20
1.52266
11
2.24226
21
1.51868
0
LINE
8
BLACK
6
CONTINUOUS
10
2.24226
20
1.51868
11
2.25523
21
1.51323
0
LINE
8
BLACK
6
CONTINUOUS
10
2.25523
20
1.51323
11
2.26751
21
1.50637
0
LINE
8
BLACK
6
CONTINUOUS
10
2.26751
20
1.50637
11
2.27894
21
1.49818
0
LINE
8
BLACK
6
CONTINUOUS
10
2.27894
20
1.49818
11
2.28939
21
1.48877
0
LINE
8
BLACK
6
CONTINUOUS
10
2.28939
20
1.48877
11
2.29873
21
1.47825
0
LINE
8
BLACK
6
CONTINUOUS
10
2.29873
20
1.47825
11
2.30684
21
1.46676
0
LINE
8
BLACK
6
CONTINUOUS
10
2.30684
20
1.46676
11
2.31362
21
1.45444
0
LINE
8
BLACK
6
CONTINUOUS
10
2.31362
20
1.45444
11
2.31898
21
1.44143
0
LINE
8
BLACK
6
CONTINUOUS
10
2.31898
20
1.44143
11
2.32285
21
1.42791
0
LINE
8
BLACK
6
CONTINUOUS
10
2.32285
20
1.42791
11
2.3252
21
1.41404
0
LINE
8
BLACK
6
CONTINUOUS
10
2.3252
20
1.41404
11
2.32598
21
1.4
0
LINE
8
BLACK
6
CONTINUOUS
10
2.32598
20
1.4
11
2.32594
21
1.39648
0
LINE
8
BLACK
6
CONTINUOUS
10
2.32594
20
1.39648
11
2.32476
21
1.38247
0
LINE
8
BLACK
6
CONTINUOUS
10
2.32476
20
1.38247
11
2.32203
21
1.36867
0
LINE
8
BLACK
6
CONTINUOUS
10
2.32203
20
1.36867
11
2.31777
21
1.35526
0
LINE
8
BLACK
6
CONTINUOUS
10
2.31777
20
1.35526
11
2.31205
21
1.34241
0
LINE
8
BLACK
6
CONTINUOUS
10
2.31205
20
1.34241
11
2.30493
21
1.33028
0
LINE
8
BLACK
6
CONTINUOUS
10
2.30493
20
1.33028
11
2.29651
21
1.31902
0
LINE
8
BLACK
6
CONTINUOUS
10
2.29651
20
1.31902
11
2.28688
21
1.30877
0
LINE
8
BLACK
6
CONTINUOUS
10
2.28688
20
1.30877
11
2.27617
21
1.29965
0
LINE
8
BLACK
6
CONTINUOUS
10
2.27617
20
1.29965
11
2.26451
21
1.29178
0
LINE
8
BLACK
6
CONTINUOUS
10
2.26451
20
1.29178
11
2.25204
21
1.28527
0
LINE
8
BLACK
6
CONTINUOUS
10
2.25204
20
1.28527
11
2.23893
21
1.28018
0
LINE
8
BLACK
6
CONTINUOUS
10
2.23893
20
1.28018
11
2.22533
21
1.27659
0
LINE
8
BLACK
6
CONTINUOUS
10
2.22533
20
1.27659
11
2.21142
21
1.27453
0
LINE
8
BLACK
6
CONTINUOUS
10
2.21142
20
1.27453
11
2.19736
21
1.27404
0
LINE
8
BLACK
6
CONTINUOUS
10
2.19736
20
1.27404
11
2.18334
21
1.27512
0
LINE
8
BLACK
6
CONTINUOUS
10
2.18334
20
1.27512
11
2.16952
21
1.27776
0
LINE
8
BLACK
6
CONTINUOUS
10
2.16952
20
1.27776
11
2.15609
21
1.28192
0
LINE
8
BLACK
6
CONTINUOUS
10
2.15609
20
1.28192
11
2.1432
21
1.28755
0
LINE
8
BLACK
6
CONTINUOUS
10
2.1432
20
1.28755
11
2.13102
21
1.29458
0
LINE
8
BLACK
6
CONTINUOUS
10
2.13102
20
1.29458
11
2.11969
21
1.30293
0
LINE
8
BLACK
6
CONTINUOUS
10
2.11969
20
1.30293
11
2.10937
21
1.31248
0
LINE
8
BLACK
6
CONTINUOUS
10
2.10937
20
1.31248
11
2.10018
21
1.32313
0
LINE
8
BLACK
6
CONTINUOUS
10
2.10018
20
1.32313
11
2.09224
21
1.33474
0
LINE
8
BLACK
6
CONTINUOUS
10
2.09224
20
1.33474
11
2.08563
21
1.34716
0
LINE
8
BLACK
6
CONTINUOUS
10
2.08563
20
1.34716
11
2.08046
21
1.36023
0
LINE
8
BLACK
6
CONTINUOUS
10
2.08046
20
1.36023
11
2.07677
21
1.37381
0
LINE
8
BLACK
6
CONTINUOUS
10
2.07677
20
1.37381
11
2.07462
21
1.38771
0
LINE
8
BLACK
6
CONTINUOUS
10
2.07462
20
1.38771
11
2.07403
21
1.40176
0
LINE
8
BLACK
6
CONTINUOUS
10
2.07403
20
1.40176
11
2.07501
21
1.41579
0
LINE
8
BLACK
6
CONTINUOUS
10
2.07501
20
1.41579
11
2.07755
21
1.42962
0
LINE
8
BLACK
6
CONTINUOUS
10
2.07755
20
1.42962
11
2.08161
21
1.44309
0
LINE
8
BLACK
6
CONTINUOUS
10
2.08161
20
1.44309
11
2.08715
21
1.45602
0
LINE
8
BLACK
6
CONTINUOUS
10
2.08715
20
1.45602
11
2.0941
21
1.46825
0
LINE
8
BLACK
6
CONTINUOUS
10
2.0941
20
1.46825
11
2.10237
21
1.47963
0
LINE
8
BLACK
6
CONTINUOUS
10
2.10237
20
1.47963
11
2.11185
21
1.49001
0
LINE
8
BLACK
6
CONTINUOUS
10
2.11185
20
1.49001
11
2.12244
21
1.49928
0
LINE
8
BLACK
6
CONTINUOUS
10
2.12244
20
1.49928
11
2.13399
21
1.5073
0
LINE
8
BLACK
6
CONTINUOUS
10
2.13399
20
1.5073
11
2.14636
21
1.51399
0
LINE
8
BLACK
6
CONTINUOUS
10
2.14636
20
1.51399
11
2.1594
21
1.51926
0
LINE
8
BLACK
6
CONTINUOUS
10
2.1594
20
1.51926
11
2.17295
21
1.52305
0
LINE
8
BLACK
6
CONTINUOUS
10
2.17295
20
1.52305
11
2.18683
21
1.52529
0
LINE
8
BLACK
6
CONTINUOUS
10
2.18683
20
1.52529
11
2.20088
21
1.52598
0
LINE
8
BLACK
6
CONTINUOUS
10
2.20088
20
1.52598
11
2.21492
21
1.5251
0
LINE
8
BLACK
6
CONTINUOUS
10
1.59301
20
1.39727
11
1.59557
21
1.39557
0
LINE
8
BLACK
6
CONTINUOUS
10
1.59557
20
1.39557
11
1.59727
21
1.39301
0
LINE
8
BLACK
6
CONTINUOUS
10
1.59727
20
1.39301
11
1.59787
21
1.39
0
LINE
8
BLACK
6
CONTINUOUS
10
1.59787
20
1.39
11
1.59787
21
1.33
0
LINE
8
BLACK
6
CONTINUOUS
10
1.59787
20
1.33
11
1.59727
21
1.32699
0
LINE
8
BLACK
6
CONTINUOUS
10
1.59727
20
1.32699
11
1.59557
21
1.32443
0
LINE
8
BLACK
6
CONTINUOUS
10
1.59557
20
1.32443
11
1.59301
21
1.32273
0
LINE
8
BLACK
6
CONTINUOUS
10
1.59301
20
1.32273
11
1.59
21
1.32213
0
LINE
8
BLACK
6
CONTINUOUS
10
1.59
20
1.32213
11
1.53
21
1.32213
0
LINE
8
BLACK
6
CONTINUOUS
10
1.53
20
1.32213
11
1.52699
21
1.32273
0
LINE
8
BLACK
6
CONTINUOUS
10
1.52699
20
1.32273
11
1.52443
21
1.32443
0
LINE
8
BLACK
6
CONTINUOUS
10
1.52443
20
1.32443
11
1.52273
21
1.32699
0
LINE
8
BLACK
6
CONTINUOUS
10
1.52273
20
1.32699
11
1.52213
21
1.33
0
LINE
8
BLACK
6
CONTINUOUS
10
1.52213
20
1.33
11
1.52213
21
1.39
0
LINE
8
BLACK
6
CONTINUOUS
10
1.52213
20
1.39
11
1.52273
21
1.39301
0
LINE
8
BLACK
6
CONTINUOUS
10
1.52273
20
1.39301
11
1.52443
21
1.39557
0
LINE
8
BLACK
6
CONTINUOUS
10
1.52443
20
1.39557
11
1.52699
21
1.39727
0
LINE
8
BLACK
6
CONTINUOUS
10
1.52699
20
1.39727
11
1.53
21
1.39787
0
LINE
8
BLACK
6
CONTINUOUS
10
1.53
20
1.39787
11
1.59
21
1.39787
0
LINE
8
BLACK
6
CONTINUOUS
10
1.59
20
1.39787
11
1.59301
21
1.39727
0
LINE
8
BLACK
6
CONTINUOUS
10
1.39301
20
1.39727
11
1.39557
21
1.39557
0
LINE
8
BLACK
6
CONTINUOUS
10
1.39557
20
1.39557
11
1.39727
21
1.39301
0
LINE
8
BLACK
6
CONTINUOUS
10
1.39727
20
1.39301
11
1.39787
21
1.39
0
LINE
8
BLACK
6
CONTINUOUS
10
1.39787
20
1.39
11
1.39787
21
1.33
0
LINE
8
BLACK
6
CONTINUOUS
10
1.39787
20
1.33
11
1.39727
21
1.32699
0
LINE
8
BLACK
6
CONTINUOUS
10
1.39727
20
1.32699
11
1.39557
21
1.32443
0
LINE
8
BLACK
6
CONTINUOUS
10
1.39557
20
1.32443
11
1.39301
21
1.32273
0
LINE
8
BLACK
6
CONTINUOUS
10
1.39301
20
1.32273
11
1.39
21
1.32213
0
LINE
8
BLACK
6
CONTINUOUS
10
1.39
20
1.32213
11
1.33
21
1.32213
0
LINE
8
BLACK
6
CONTINUOUS
10
1.33
20
1.32213
11
1.32699
21
1.32273
0
LINE
8
BLACK
6
CONTINUOUS
10
1.32699
20
1.32273
11
1.32443
21
1.32443
0
LINE
8
BLACK
6
CONTINUOUS
10
1.32443
20
1.32443
11
1.32273
21
1.32699
0
LINE
8
BLACK
6
CONTINUOUS
10
1.32273
20
1.32699
11
1.32213
21
1.33
0
LINE
8
BLACK
6
CONTINUOUS
10
1.32213
20
1.33
11
1.32213
21
1.39
0
LINE
8
BLACK
6
CONTINUOUS
10
1.32213
20
1.39
11
1.32273
21
1.39301
0
LINE
8
BLACK
6
CONTINUOUS
10
1.32273
20
1.39301
11
1.32443
21
1.39557
0
LINE
8
BLACK
6
CONTINUOUS
10
1.32443
20
1.39557
11
1.32699
21
1.39727
0
LINE
8
BLACK
6
CONTINUOUS
10
1.32699
20
1.39727
11
1.33
21
1.39787
0
LINE
8
BLACK
6
CONTINUOUS
10
1.33
20
1.39787
11
1.39
21
1.39787
0
LINE
8
BLACK
6
CONTINUOUS
10
1.39
20
1.39787
11
1.39301
21
1.39727
0
LINE
8
BLACK
6
CONTINUOUS
10
1.49301
20
1.39727
11
1.49557
21
1.39557
0
LINE
8
BLACK
6
CONTINUOUS
10
1.49557
20
1.39557
11
1.49727
21
1.39301
0
LINE
8
BLACK
6
CONTINUOUS
10
1.49727
20
1.39301
11
1.49787
21
1.39
0
LINE
8
BLACK
6
CONTINUOUS
10
1.49787
20
1.39
11
1.49787
21
1.33
0
LINE
8
BLACK
6
CONTINUOUS
10
1.49787
20
1.33
11
1.49727
21
1.32699
0
LINE
8
BLACK
6
CONTINUOUS
10
1.49727
20
1.32699
11
1.49557
21
1.32443
0
LINE
8
BLACK
6
CONTINUOUS
10
1.49557
20
1.32443
11
1.49301
21
1.32273
0
LINE
8
BLACK
6
CONTINUOUS
10
1.49301
20
1.32273
11
1.49
21
1.32213
0
LINE
8
BLACK
6
CONTINUOUS
10
1.49
20
1.32213
11
1.43
21
1.32213
0
LINE
8
BLACK
6
CONTINUOUS
10
1.43
20
1.32213
11
1.42699
21
1.32273
0
LINE
8
BLACK
6
CONTINUOUS
10
1.42699
20
1.32273
11
1.42443
21
1.32443
0
LINE
8
BLACK
6
CONTINUOUS
10
1.42443
20
1.32443
11
1.42273
21
1.32699
0
LINE
8
BLACK
6
CONTINUOUS
10
1.42273
20
1.32699
11
1.42213
21
1.33
0
LINE
8
BLACK
6
CONTINUOUS
10
1.42213
20
1.33
11
1.42213
21
1.39
0
LINE
8
BLACK
6
CONTINUOUS
10
1.42213
20
1.39
11
1.42273
21
1.39301
0
LINE
8
BLACK
6
CONTINUOUS
10
1.42273
20
1.39301
11
1.42443
21
1.39557
0
LINE
8
BLACK
6
CONTINUOUS
10
1.42443
20
1.39557
11
1.42699
21
1.39727
0
LINE
8
BLACK
6
CONTINUOUS
10
1.42699
20
1.39727
11
1.43
21
1.39787
0
LINE
8
BLACK
6
CONTINUOUS
10
1.43
20
1.39787
11
1.49
21
1.39787
0
LINE
8
BLACK
6
CONTINUOUS
10
1.49
20
1.39787
11
1.49301
21
1.39727
0
LINE
8
BLACK
6
CONTINUOUS
10
1.80301
20
1.39727
11
1.80557
21
1.39557
0
LINE
8
BLACK
6
CONTINUOUS
10
1.80557
20
1.39557
11
1.80727
21
1.39301
0
LINE
8
BLACK
6
CONTINUOUS
10
1.80727
20
1.39301
11
1.80787
21
1.39
0
LINE
8
BLACK
6
CONTINUOUS
10
1.80787
20
1.39
11
1.80787
21
1.33
0
LINE
8
BLACK
6
CONTINUOUS
10
1.80787
20
1.33
11
1.80727
21
1.32699
0
LINE
8
BLACK
6
CONTINUOUS
10
1.80727
20
1.32699
11
1.80557
21
1.32443
0
LINE
8
BLACK
6
CONTINUOUS
10
1.80557
20
1.32443
11
1.80301
21
1.32273
0
LINE
8
BLACK
6
CONTINUOUS
10
1.80301
20
1.32273
11
1.8
21
1.32213
0
LINE
8
BLACK
6
CONTINUOUS
10
1.8
20
1.32213
11
1.74
21
1.32213
0
LINE
8
BLACK
6
CONTINUOUS
10
1.74
20
1.32213
11
1.73699
21
1.32273
0
LINE
8
BLACK
6
CONTINUOUS
10
1.73699
20
1.32273
11
1.73443
21
1.32443
0
LINE
8
BLACK
6
CONTINUOUS
10
1.73443
20
1.32443
11
1.73273
21
1.32699
0
LINE
8
BLACK
6
CONTINUOUS
10
1.73273
20
1.32699
11
1.73213
21
1.33
0
LINE
8
BLACK
6
CONTINUOUS
10
1.73213
20
1.33
11
1.73213
21
1.39
0
LINE
8
BLACK
6
CONTINUOUS
10
1.73213
20
1.39
11
1.73273
21
1.39301
0
LINE
8
BLACK
6
CONTINUOUS
10
1.73273
20
1.39301
11
1.73443
21
1.39557
0
LINE
8
BLACK
6
CONTINUOUS
10
1.73443
20
1.39557
11
1.73699
21
1.39727
0
LINE
8
BLACK
6
CONTINUOUS
10
1.73699
20
1.39727
11
1.74
21
1.39787
0
LINE
8
BLACK
6
CONTINUOUS
10
1.74
20
1.39787
11
1.8
21
1.39787
0
LINE
8
BLACK
6
CONTINUOUS
10
1.8
20
1.39787
11
1.80301
21
1.39727
0
LINE
8
BLACK
6
CONTINUOUS
10
1.19301
20
1.39727
11
1.19557
21
1.39557
0
LINE
8
BLACK
6
CONTINUOUS
10
1.19557
20
1.39557
11
1.19727
21
1.39301
0
LINE
8
BLACK
6
CONTINUOUS
10
1.19727
20
1.39301
11
1.19787
21
1.39
0
LINE
8
BLACK
6
CONTINUOUS
10
1.19787
20
1.39
11
1.19787
21
1.33
0
LINE
8
BLACK
6
CONTINUOUS
10
1.19787
20
1.33
11
1.19727
21
1.32699
0
LINE
8
BLACK
6
CONTINUOUS
10
1.19727
20
1.32699
11
1.19557
21
1.32443
0
LINE
8
BLACK
6
CONTINUOUS
10
1.19557
20
1.32443
11
1.19301
21
1.32273
0
LINE
8
BLACK
6
CONTINUOUS
10
1.19301
20
1.32273
11
1.19
21
1.32213
0
LINE
8
BLACK
6
CONTINUOUS
10
1.19
20
1.32213
11
1.13
21
1.32213
0
LINE
8
BLACK
6
CONTINUOUS
10
1.13
20
1.32213
11
1.12699
21
1.32273
0
LINE
8
BLACK
6
CONTINUOUS
10
1.12699
20
1.32273
11
1.12443
21
1.32443
0
LINE
8
BLACK
6
CONTINUOUS
10
1.12443
20
1.32443
11
1.12273
21
1.32699
0
LINE
8
BLACK
6
CONTINUOUS
10
1.12273
20
1.32699
11
1.12213
21
1.33
0
LINE
8
BLACK
6
CONTINUOUS
10
1.12213
20
1.33
11
1.12213
21
1.39
0
LINE
8
BLACK
6
CONTINUOUS
10
1.12213
20
1.39
11
1.12273
21
1.39301
0
LINE
8
BLACK
6
CONTINUOUS
10
1.12273
20
1.39301
11
1.12443
21
1.39557
0
LINE
8
BLACK
6
CONTINUOUS
10
1.12443
20
1.39557
11
1.12699
21
1.39727
0
LINE
8
BLACK
6
CONTINUOUS
10
1.12699
20
1.39727
11
1.13
21
1.39787
0
LINE
8
BLACK
6
CONTINUOUS
10
1.13
20
1.39787
11
1.19
21
1.39787
0
LINE
8
BLACK
6
CONTINUOUS
10
1.19
20
1.39787
11
1.19301
21
1.39727
0
LINE
8
BLACK
6
CONTINUOUS
10
1.90301
20
1.39727
11
1.90557
21
1.39557
0
LINE
8
BLACK
6
CONTINUOUS
10
1.90557
20
1.39557
11
1.90727
21
1.39301
0
LINE
8
BLACK
6
CONTINUOUS
10
1.90727
20
1.39301
11
1.90787
21
1.39
0
LINE
8
BLACK
6
CONTINUOUS
10
1.90787
20
1.39
11
1.90787
21
1.33
0
LINE
8
BLACK
6
CONTINUOUS
10
1.90787
20
1.33
11
1.90727
21
1.32699
0
LINE
8
BLACK
6
CONTINUOUS
10
1.90727
20
1.32699
11
1.90557
21
1.32443
0
LINE
8
BLACK
6
CONTINUOUS
10
1.90557
20
1.32443
11
1.90301
21
1.32273
0
LINE
8
BLACK
6
CONTINUOUS
10
1.90301
20
1.32273
11
1.9
21
1.32213
0
LINE
8
BLACK
6
CONTINUOUS
10
1.9
20
1.32213
11
1.84
21
1.32213
0
LINE
8
BLACK
6
CONTINUOUS
10
1.84
20
1.32213
11
1.83699
21
1.32273
0
LINE
8
BLACK
6
CONTINUOUS
10
1.83699
20
1.32273
11
1.83443
21
1.32443
0
LINE
8
BLACK
6
CONTINUOUS
10
1.83443
20
1.32443
11
1.83273
21
1.32699
0
LINE
8
BLACK
6
CONTINUOUS
10
1.83273
20
1.32699
11
1.83213
21
1.33
0
LINE
8
BLACK
6
CONTINUOUS
10
1.83213
20
1.33
11
1.83213
21
1.39
0
LINE
8
BLACK
6
CONTINUOUS
10
1.83213
20
1.39
11
1.83273
21
1.39301
0
LINE
8
BLACK
6
CONTINUOUS
10
1.83273
20
1.39301
11
1.83443
21
1.39557
0
LINE
8
BLACK
6
CONTINUOUS
10
1.83443
20
1.39557
11
1.83699
21
1.39727
0
LINE
8
BLACK
6
CONTINUOUS
10
1.83699
20
1.39727
11
1.84
21
1.39787
0
LINE
8
BLACK
6
CONTINUOUS
10
1.84
20
1.39787
11
1.9
21
1.39787
0
LINE
8
BLACK
6
CONTINUOUS
10
1.9
20
1.39787
11
1.90301
21
1.39727
0
LINE
8
BLACK
6
CONTINUOUS
10
2.00301
20
1.39727
11
2.00557
21
1.39557
0
LINE
8
BLACK
6
CONTINUOUS
10
2.00557
20
1.39557
11
2.00727
21
1.39301
0
LINE
8
BLACK
6
CONTINUOUS
10
2.00727
20
1.39301
11
2.00787
21
1.39
0
LINE
8
BLACK
6
CONTINUOUS
10
2.00787
20
1.39
11
2.00787
21
1.33
0
LINE
8
BLACK
6
CONTINUOUS
10
2.00787
20
1.33
11
2.00727
21
1.32699
0
LINE
8
BLACK
6
CONTINUOUS
10
2.00727
20
1.32699
11
2.00557
21
1.32443
0
LINE
8
BLACK
6
CONTINUOUS
10
2.00557
20
1.32443
11
2.00301
21
1.32273
0
LINE
8
BLACK
6
CONTINUOUS
10
2.00301
20
1.32273
11
2
21
1.32213
0
LINE
8
BLACK
6
CONTINUOUS
10
2
20
1.32213
11
1.94
21
1.32213
0
LINE
8
BLACK
6
CONTINUOUS
10
1.94
20
1.32213
11
1.93699
21
1.32273
0
LINE
8
BLACK
6
CONTINUOUS
10
1.93699
20
1.32273
11
1.93443
21
1.32443
0
LINE
8
BLACK
6
CONTINUOUS
10
1.93443
20
1.32443
11
1.93273
21
1.32699
0
LINE
8
BLACK
6
CONTINUOUS
10
1.93273
20
1.32699
11
1.93213
21
1.33
0
LINE
8
BLACK
6
CONTINUOUS
10
1.93213
20
1.33
11
1.93213
21
1.39
0
LINE
8
BLACK
6
CONTINUOUS
10
1.93213
20
1.39
11
1.93273
21
1.39301
0
LINE
8
BLACK
6
CONTINUOUS
10
1.93273
20
1.39301
11
1.93443
21
1.39557
0
LINE
8
BLACK
6
CONTINUOUS
10
1.93443
20
1.39557
11
1.93699
21
1.39727
0
LINE
8
BLACK
6
CONTINUOUS
10
1.93699
20
1.39727
11
1.94
21
1.39787
0
LINE
8
BLACK
6
CONTINUOUS
10
1.94
20
1.39787
11
2
21
1.39787
0
LINE
8
BLACK
6
CONTINUOUS
10
2
20
1.39787
11
2.00301
21
1.39727
0
LINE
8
BLACK
6
CONTINUOUS
10
1.29301
20
1.39727
11
1.29557
21
1.39557
0
LINE
8
BLACK
6
CONTINUOUS
10
1.29557
20
1.39557
11
1.29727
21
1.39301
0
LINE
8
BLACK
6
CONTINUOUS
10
1.29727
20
1.39301
11
1.29787
21
1.39
0
LINE
8
BLACK
6
CONTINUOUS
10
1.29787
20
1.39
11
1.29787
21
1.33
0
LINE
8
BLACK
6
CONTINUOUS
10
1.29787
20
1.33
11
1.29727
21
1.32699
0
LINE
8
BLACK
6
CONTINUOUS
10
1.29727
20
1.32699
11
1.29557
21
1.32443
0
LINE
8
BLACK
6
CONTINUOUS
10
1.29557
20
1.32443
11
1.29301
21
1.32273
0
LINE
8
BLACK
6
CONTINUOUS
10
1.29301
20
1.32273
11
1.29
21
1.32213
0
LINE
8
BLACK
6
CONTINUOUS
10
1.29
20
1.32213
11
1.23
21
1.32213
0
LINE
8
BLACK
6
CONTINUOUS
10
1.23
20
1.32213
11
1.22699
21
1.32273
0
LINE
8
BLACK
6
CONTINUOUS
10
1.22699
20
1.32273
11
1.22443
21
1.32443
0
LINE
8
BLACK
6
CONTINUOUS
10
1.22443
20
1.32443
11
1.22273
21
1.32699
0
LINE
8
BLACK
6
CONTINUOUS
10
1.22273
20
1.32699
11
1.22213
21
1.33
0
LINE
8
BLACK
6
CONTINUOUS
10
1.22213
20
1.33
11
1.22213
21
1.39
0
LINE
8
BLACK
6
CONTINUOUS
10
1.22213
20
1.39
11
1.22273
21
1.39301
0
LINE
8
BLACK
6
CONTINUOUS
10
1.22273
20
1.39301
11
1.22443
21
1.39557
0
LINE
8
BLACK
6
CONTINUOUS
10
1.22443
20
1.39557
11
1.22699
21
1.39727
0
LINE
8
BLACK
6
CONTINUOUS
10
1.22699
20
1.39727
11
1.23
21
1.39787
0
LINE
8
BLACK
6
CONTINUOUS
10
1.23
20
1.39787
11
1.29
21
1.39787
0
LINE
8
BLACK
6
CONTINUOUS
10
1.29
20
1.39787
11
1.29301
21
1.39727
0
LINE
8
BLACK
6
CONTINUOUS
10
1.59301
20
1.49727
11
1.59557
21
1.49557
0
LINE
8
BLACK
6
CONTINUOUS
10
1.59557
20
1.49557
11
1.59727
21
1.49301
0
LINE
8
BLACK
6
CONTINUOUS
10
1.59727
20
1.49301
11
1.59787
21
1.49
0
LINE
8
BLACK
6
CONTINUOUS
10
1.59787
20
1.49
11
1.59787
21
1.43
0
LINE
8
BLACK
6
CONTINUOUS
10
1.59787
20
1.43
11
1.59727
21
1.42699
0
LINE
8
BLACK
6
CONTINUOUS
10
1.59727
20
1.42699
11
1.59557
21
1.42443
0
LINE
8
BLACK
6
CONTINUOUS
10
1.59557
20
1.42443
11
1.59301
21
1.42273
0
LINE
8
BLACK
6
CONTINUOUS
10
1.59301
20
1.42273
11
1.59
21
1.42213
0
LINE
8
BLACK
6
CONTINUOUS
10
1.59
20
1.42213
11
1.53
21
1.42213
0
LINE
8
BLACK
6
CONTINUOUS
10
1.53
20
1.42213
11
1.52699
21
1.42273
0
LINE
8
BLACK
6
CONTINUOUS
10
1.52699
20
1.42273
11
1.52443
21
1.42443
0
LINE
8
BLACK
6
CONTINUOUS
10
1.52443
20
1.42443
11
1.52273
21
1.42699
0
LINE
8
BLACK
6
CONTINUOUS
10
1.52273
20
1.42699
11
1.52213
21
1.43
0
LINE
8
BLACK
6
CONTINUOUS
10
1.52213
20
1.43
11
1.52213
21
1.49
0
LINE
8
BLACK
6
CONTINUOUS
10
1.52213
20
1.49
11
1.52273
21
1.49301
0
LINE
8
BLACK
6
CONTINUOUS
10
1.52273
20
1.49301
11
1.52443
21
1.49557
0
LINE
8
BLACK
6
CONTINUOUS
10
1.52443
20
1.49557
11
1.52699
21
1.49727
0
LINE
8
BLACK
6
CONTINUOUS
10
1.52699
20
1.49727
11
1.53
21
1.49787
0
LINE
8
BLACK
6
CONTINUOUS
10
1.53
20
1.49787
11
1.59
21
1.49787
0
LINE
8
BLACK
6
CONTINUOUS
10
1.59
20
1.49787
11
1.59301
21
1.49727
0
LINE
8
BLACK
6
CONTINUOUS
10
1.90301
20
1.49727
11
1.90557
21
1.49557
0
LINE
8
BLACK
6
CONTINUOUS
10
1.90557
20
1.49557
11
1.90727
21
1.49301
0
LINE
8
BLACK
6
CONTINUOUS
10
1.90727
20
1.49301
11
1.90787
21
1.49
0
LINE
8
BLACK
6
CONTINUOUS
10
1.90787
20
1.49
11
1.90787
21
1.43
0
LINE
8
BLACK
6
CONTINUOUS
10
1.90787
20
1.43
11
1.90727
21
1.42699
0
LINE
8
BLACK
6
CONTINUOUS
10
1.90727
20
1.42699
11
1.90557
21
1.42443
0
LINE
8
BLACK
6
CONTINUOUS
10
1.90557
20
1.42443
11
1.90301
21
1.42273
0
LINE
8
BLACK
6
CONTINUOUS
10
1.90301
20
1.42273
11
1.9
21
1.42213
0
LINE
8
BLACK
6
CONTINUOUS
10
1.9
20
1.42213
11
1.84
21
1.42213
0
LINE
8
BLACK
6
CONTINUOUS
10
1.84
20
1.42213
11
1.83699
21
1.42273
0
LINE
8
BLACK
6
CONTINUOUS
10
1.83699
20
1.42273
11
1.83443
21
1.42443
0
LINE
8
BLACK
6
CONTINUOUS
10
1.83443
20
1.42443
11
1.83273
21
1.42699
0
LINE
8
BLACK
6
CONTINUOUS
10
1.83273
20
1.42699
11
1.83213
21
1.43
0
LINE
8
BLACK
6
CONTINUOUS
10
1.83213
20
1.43
11
1.83213
21
1.49
0
LINE
8
BLACK
6
CONTINUOUS
10
1.83213
20
1.49
11
1.83273
21
1.49301
0
LINE
8
BLACK
6
CONTINUOUS
10
1.83273
20
1.49301
11
1.83443
21
1.49557
0
LINE
8
BLACK
6
CONTINUOUS
10
1.83443
20
1.49557
11
1.83699
21
1.49727
0
LINE
8
BLACK
6
CONTINUOUS
10
1.83699
20
1.49727
11
1.84
21
1.49787
0
LINE
8
BLACK
6
CONTINUOUS
10
1.84
20
1.49787
11
1.9
21
1.49787
0
LINE
8
BLACK
6
CONTINUOUS
10
1.9
20
1.49787
11
1.90301
21
1.49727
0
LINE
8
BLACK
6
CONTINUOUS
10
1.19301
20
1.49727
11
1.19557
21
1.49557
0
LINE
8
BLACK
6
CONTINUOUS
10
1.19557
20
1.49557
11
1.19727
21
1.49301
0
LINE
8
BLACK
6
CONTINUOUS
10
1.19727
20
1.49301
11
1.19787
21
1.49
0
LINE
8
BLACK
6
CONTINUOUS
10
1.19787
20
1.49
11
1.19787
21
1.43
0
LINE
8
BLACK
6
CONTINUOUS
10
1.19787
20
1.43
11
1.19727
21
1.42699
0
LINE
8
BLACK
6
CONTINUOUS
10
1.19727
20
1.42699
11
1.19557
21
1.42443
0
LINE
8
BLACK
6
CONTINUOUS
10
1.19557
20
1.42443
11
1.19301
21
1.42273
0
LINE
8
BLACK
6
CONTINUOUS
10
1.19301
20
1.42273
11
1.19
21
1.42213
0
LINE
8
BLACK
6
CONTINUOUS
10
1.19
20
1.42213
11
1.13
21
1.42213
0
LINE
8
BLACK
6
CONTINUOUS
10
1.13
20
1.42213
11
1.12699
21
1.42273
0
LINE
8
BLACK
6
CONTINUOUS
10
1.12699
20
1.42273
11
1.12443
21
1.42443
0
LINE
8
BLACK
6
CONTINUOUS
10
1.12443
20
1.42443
11
1.12273
21
1.42699
0
LINE
8
BLACK
6
CONTINUOUS
10
1.12273
20
1.42699
11
1.12213
21
1.43
0
LINE
8
BLACK
6
CONTINUOUS
10
1.12213
20
1.43
11
1.12213
21
1.49
0
LINE
8
BLACK
6
CONTINUOUS
10
1.12213
20
1.49
11
1.12273
21
1.49301
0
LINE
8
BLACK
6
CONTINUOUS
10
1.12273
20
1.49301
11
1.12443
21
1.49557
0
LINE
8
BLACK
6
CONTINUOUS
10
1.12443
20
1.49557
11
1.12699
21
1.49727
0
LINE
8
BLACK
6
CONTINUOUS
10
1.12699
20
1.49727
11
1.13
21
1.49787
0
LINE
8
BLACK
6
CONTINUOUS
10
1.13
20
1.49787
11
1.19
21
1.49787
0
LINE
8
BLACK
6
CONTINUOUS
10
1.19
20
1.49787
11
1.19301
21
1.49727
0
LINE
8
BLACK
6
CONTINUOUS
10
1.80301
20
1.49727
11
1.80557
21
1.49557
0
LINE
8
BLACK
6
CONTINUOUS
10
1.80557
20
1.49557
11
1.80727
21
1.49301
0
LINE
8
BLACK
6
CONTINUOUS
10
1.80727
20
1.49301
11
1.80787
21
1.49
0
LINE
8
BLACK
6
CONTINUOUS
10
1.80787
20
1.49
11
1.80787
21
1.43
0
LINE
8
BLACK
6
CONTINUOUS
10
1.80787
20
1.43
11
1.80727
21
1.42699
0
LINE
8
BLACK
6
CONTINUOUS
10
1.80727
20
1.42699
11
1.80557
21
1.42443
0
LINE
8
BLACK
6
CONTINUOUS
10
1.80557
20
1.42443
11
1.80301
21
1.42273
0
LINE
8
BLACK
6
CONTINUOUS
10
1.80301
20
1.42273
11
1.8
21
1.42213
0
LINE
8
BLACK
6
CONTINUOUS
10
1.8
20
1.42213
11
1.74
21
1.42213
0
LINE
8
BLACK
6
CONTINUOUS
10
1.74
20
1.42213
11
1.73699
21
1.42273
0
LINE
8
BLACK
6
CONTINUOUS
10
1.73699
20
1.42273
11
1.73443
21
1.42443
0
LINE
8
BLACK
6
CONTINUOUS
10
1.73443
20
1.42443
11
1.73273
21
1.42699
0
LINE
8
BLACK
6
CONTINUOUS
10
1.73273
20
1.42699
11
1.73213
21
1.43
0
LINE
8
BLACK
6
CONTINUOUS
10
1.73213
20
1.43
11
1.73213
21
1.49
0
LINE
8
BLACK
6
CONTINUOUS
10
1.73213
20
1.49
11
1.73273
21
1.49301
0
LINE
8
BLACK
6
CONTINUOUS
10
1.73273
20
1.49301
11
1.73443
21
1.49557
0
LINE
8
BLACK
6
CONTINUOUS
10
1.73443
20
1.49557
11
1.73699
21
1.49727
0
LINE
8
BLACK
6
CONTINUOUS
10
1.73699
20
1.49727
11
1.74
21
1.49787
0
LINE
8
BLACK
6
CONTINUOUS
10
1.74
20
1.49787
11
1.8
21
1.49787
0
LINE
8
BLACK
6
CONTINUOUS
10
1.8
20
1.49787
11
1.80301
21
1.49727
0
LINE
8
BLACK
6
CONTINUOUS
10
2.00301
20
1.49727
11
2.00557
21
1.49557
0
LINE
8
BLACK
6
CONTINUOUS
10
2.00557
20
1.49557
11
2.00727
21
1.49301
0
LINE
8
BLACK
6
CONTINUOUS
10
2.00727
20
1.49301
11
2.00787
21
1.49
0
LINE
8
BLACK
6
CONTINUOUS
10
2.00787
20
1.49
11
2.00787
21
1.43
0
LINE
8
BLACK
6
CONTINUOUS
10
2.00787
20
1.43
11
2.00727
21
1.42699
0
LINE
8
BLACK
6
CONTINUOUS
10
2.00727
20
1.42699
11
2.00557
21
1.42443
0
LINE
8
BLACK
6
CONTINUOUS
10
2.00557
20
1.42443
11
2.00301
21
1.42273
0
LINE
8
BLACK
6
CONTINUOUS
10
2.00301
20
1.42273
11
2
21
1.42213
0
LINE
8
BLACK
6
CONTINUOUS
10
2
20
1.42213
11
1.94
21
1.42213
0
LINE
8
BLACK
6
CONTINUOUS
10
1.94
20
1.42213
11
1.93699
21
1.42273
0
LINE
8
BLACK
6
CONTINUOUS
10
1.93699
20
1.42273
11
1.93443
21
1.42443
0
LINE
8
BLACK
6
CONTINUOUS
10
1.93443
20
1.42443
11
1.93273
21
1.42699
0
LINE
8
BLACK
6
CONTINUOUS
10
1.93273
20
1.42699
11
1.93213
21
1.43
0
LINE
8
BLACK
6
CONTINUOUS
10
1.93213
20
1.43
11
1.93213
21
1.49
0
LINE
8
BLACK
6
CONTINUOUS
10
1.93213
20
1.49
11
1.93273
21
1.49301
0
LINE
8
BLACK
6
CONTINUOUS
10
1.93273
20
1.49301
11
1.93443
21
1.49557
0
LINE
8
BLACK
6
CONTINUOUS
10
1.93443
20
1.49557
11
1.93699
21
1.49727
0
LINE
8
BLACK
6
CONTINUOUS
10
1.93699
20
1.49727
11
1.94
21
1.49787
0
LINE
8
BLACK
6
CONTINUOUS
10
1.94
20
1.49787
11
2
21
1.49787
0
LINE
8
BLACK
6
CONTINUOUS
10
2
20
1.49787
11
2.00301
21
1.49727
0
LINE
8
BLACK
6
CONTINUOUS
10
1.49301
20
1.49727
11
1.49557
21
1.49557
0
LINE
8
BLACK
6
CONTINUOUS
10
1.49557
20
1.49557
11
1.49727
21
1.49301
0
LINE
8
BLACK
6
CONTINUOUS
10
1.49727
20
1.49301
11
1.49787
21
1.49
0
LINE
8
BLACK
6
CONTINUOUS
10
1.49787
20
1.49
11
1.49787
21
1.43
0
LINE
8
BLACK
6
CONTINUOUS
10
1.49787
20
1.43
11
1.49727
21
1.42699
0
LINE
8
BLACK
6
CONTINUOUS
10
1.49727
20
1.42699
11
1.49557
21
1.42443
0
LINE
8
BLACK
6
CONTINUOUS
10
1.49557
20
1.42443
11
1.49301
21
1.42273
0
LINE
8
BLACK
6
CONTINUOUS
10
1.49301
20
1.42273
11
1.49
21
1.42213
0
LINE
8
BLACK
6
CONTINUOUS
10
1.49
20
1.42213
11
1.43
21
1.42213
0
LINE
8
BLACK
6
CONTINUOUS
10
1.43
20
1.42213
11
1.42699
21
1.42273
0
LINE
8
BLACK
6
CONTINUOUS
10
1.42699
20
1.42273
11
1.42443
21
1.42443
0
LINE
8
BLACK
6
CONTINUOUS
10
1.42443
20
1.42443
11
1.42273
21
1.42699
0
LINE
8
BLACK
6
CONTINUOUS
10
1.42273
20
1.42699
11
1.42213
21
1.43
0
LINE
8
BLACK
6
CONTINUOUS
10
1.42213
20
1.43
11
1.42213
21
1.49
0
LINE
8
BLACK
6
CONTINUOUS
10
1.42213
20
1.49
11
1.42273
21
1.49301
0
LINE
8
BLACK
6
CONTINUOUS
10
1.42273
20
1.49301
11
1.42443
21
1.49557
0
LINE
8
BLACK
6
CONTINUOUS
10
1.42443
20
1.49557
11
1.42699
21
1.49727
0
LINE
8
BLACK
6
CONTINUOUS
10
1.42699
20
1.49727
11
1.43
21
1.49787
0
LINE
8
BLACK
6
CONTINUOUS
10
1.43
20
1.49787
11
1.49
21
1.49787
0
LINE
8
BLACK
6
CONTINUOUS
10
1.49
20
1.49787
11
1.49301
21
1.49727
0
LINE
8
BLACK
6
CONTINUOUS
10
1.39301
20
1.49727
11
1.39557
21
1.49557
0
LINE
8
BLACK
6
CONTINUOUS
10
1.39557
20
1.49557
11
1.39727
21
1.49301
0
LINE
8
BLACK
6
CONTINUOUS
10
1.39727
20
1.49301
11
1.39787
21
1.49
0
LINE
8
BLACK
6
CONTINUOUS
10
1.39787
20
1.49
11
1.39787
21
1.43
0
LINE
8
BLACK
6
CONTINUOUS
10
1.39787
20
1.43
11
1.39727
21
1.42699
0
LINE
8
BLACK
6
CONTINUOUS
10
1.39727
20
1.42699
11
1.39557
21
1.42443
0
LINE
8
BLACK
6
CONTINUOUS
10
1.39557
20
1.42443
11
1.39301
21
1.42273
0
LINE
8
BLACK
6
CONTINUOUS
10
1.39301
20
1.42273
11
1.39
21
1.42213
0
LINE
8
BLACK
6
CONTINUOUS
10
1.39
20
1.42213
11
1.33
21
1.42213
0
LINE
8
BLACK
6
CONTINUOUS
10
1.33
20
1.42213
11
1.32699
21
1.42273
0
LINE
8
BLACK
6
CONTINUOUS
10
1.32699
20
1.42273
11
1.32443
21
1.42443
0
LINE
8
BLACK
6
CONTINUOUS
10
1.32443
20
1.42443
11
1.32273
21
1.42699
0
LINE
8
BLACK
6
CONTINUOUS
10
1.32273
20
1.42699
11
1.32213
21
1.43
0
LINE
8
BLACK
6
CONTINUOUS
10
1.32213
20
1.43
11
1.32213
21
1.49
0
LINE
8
BLACK
6
CONTINUOUS
10
1.32213
20
1.49
11
1.32273
21
1.49301
0
LINE
8
BLACK
6
CONTINUOUS
10
1.32273
20
1.49301
11
1.32443
21
1.49557
0
LINE
8
BLACK
6
CONTINUOUS
10
1.32443
20
1.49557
11
1.32699
21
1.49727
0
LINE
8
BLACK
6
CONTINUOUS
10
1.32699
20
1.49727
11
1.33
21
1.49787
0
LINE
8
BLACK
6
CONTINUOUS
10
1.33
20
1.49787
11
1.39
21
1.49787
0
LINE
8
BLACK
6
CONTINUOUS
10
1.39
20
1.49787
11
1.39301
21
1.49727
0
LINE
8
BLACK
6
CONTINUOUS
10
1.29301
20
1.49727
11
1.29557
21
1.49557
0
LINE
8
BLACK
6
CONTINUOUS
10
1.29557
20
1.49557
11
1.29727
21
1.49301
0
LINE
8
BLACK
6
CONTINUOUS
10
1.29727
20
1.49301
11
1.29787
21
1.49
0
LINE
8
BLACK
6
CONTINUOUS
10
1.29787
20
1.49
11
1.29787
21
1.43
0
LINE
8
BLACK
6
CONTINUOUS
10
1.29787
20
1.43
11
1.29727
21
1.42699
0
LINE
8
BLACK
6
CONTINUOUS
10
1.29727
20
1.42699
11
1.29557
21
1.42443
0
LINE
8
BLACK
6
CONTINUOUS
10
1.29557
20
1.42443
11
1.29301
21
1.42273
0
LINE
8
BLACK
6
CONTINUOUS
10
1.29301
20
1.42273
11
1.29
21
1.42213
0
LINE
8
BLACK
6
CONTINUOUS
10
1.29
20
1.42213
11
1.23
21
1.42213
0
LINE
8
BLACK
6
CONTINUOUS
10
1.23
20
1.42213
11
1.22699
21
1.42273
0
LINE
8
BLACK
6
CONTINUOUS
10
1.22699
20
1.42273
11
1.22443
21
1.42443
0
LINE
8
BLACK
6
CONTINUOUS
10
1.22443
20
1.42443
11
1.22273
21
1.42699
0
LINE
8
BLACK
6
CONTINUOUS
10
1.22273
20
1.42699
11
1.22213
21
1.43
0
LINE
8
BLACK
6
CONTINUOUS
10
1.22213
20
1.43
11
1.22213
21
1.49
0
LINE
8
BLACK
6
CONTINUOUS
10
1.22213
20
1.49
11
1.22273
21
1.49301
0
LINE
8
BLACK
6
CONTINUOUS
10
1.22273
20
1.49301
11
1.22443
21
1.49557
0
LINE
8
BLACK
6
CONTINUOUS
10
1.22443
20
1.49557
11
1.22699
21
1.49727
0
LINE
8
BLACK
6
CONTINUOUS
10
1.22699
20
1.49727
11
1.23
21
1.49787
0
LINE
8
BLACK
6
CONTINUOUS
10
1.23
20
1.49787
11
1.29
21
1.49787
0
LINE
8
BLACK
6
CONTINUOUS
10
1.29
20
1.49787
11
1.29301
21
1.49727
  0
ENDSEC
  0
EOF
