  0
SECTION
  2
HEADER
  9
$ANGBASE
  50
0.0
  9
$ANGDIR
  70
1
  9
$MEASUREMENT
  70
0
  0
ENDSEC
  0
SECTION
  2
TABLES
  0
TABLE
  2
LTYPE
  70
4
  0
LTYPE
  5
40F
  2
CONTINUOUS
  70
0
  3
Solid line
  72
65
  73
0
  40
0.0
  0
LTYPE
  5
410
  2
DASHDOT
 70
0
  3
Dash Dot ____ _ ____ _
 72
65
 73
4
 40
2.0
 49
1.25
 49
-0.25
 49
0.25
 49
-0.25
  0
LTYPE
  5
411
  2
DASHED
 70
0
  3
Dashed __ __ __ __ __
 72
65
 73
2
 40
0.75
 49
0.5
 49
-0.25
  0
LTYPE
  5
43B
  2
DOTTED
 70
0
  3
Dotted .  .  .  .
 72
65
 73
2
 40
0.2
 49
0.0
 49
-0.2
  0
ENDTAB
  0
TABLE
  2
STYLE
  70
4
  0
STYLE
  2
KICAD
  70
0
  40
0
  41
1
  42
1
  50
0
  71
0
  3
isocp.shx
  0
STYLE
  2
KICADB
  70
0
  40
0
  41
1
  42
1
  50
0
  71
0
  3
isocp.shx
  0
STYLE
  2
KICADI
  70
0
  40
0
  41
1
  42
1
  50
15
  71
0
  3
isocp.shx
  0
STYLE
  2
KICADBI
  70
0
  40
0
  41
1
  42
1
  50
15
  71
0
  3
isocp.shx
  0
ENDTAB
  0
TABLE
  2
LAYER
  70
1
  0
LAYER
  2
BLACK
  70
0
  62
7
  6
CONTINUOUS
  0
ENDTAB
  0
ENDSEC
  0
SECTION
  2
ENTITIES
0
LINE
8
BLACK
6
CONTINUOUS
10
0.0176632
20
0.559632
11
0.0170866
21
0.561024
0
LINE
8
BLACK
6
CONTINUOUS
10
0.0170866
20
0.561024
11
0.0170866
21
1.0374
0
LINE
8
BLACK
6
CONTINUOUS
10
0.0170866
20
1.0374
11
0.0176632
21
1.03879
0
LINE
8
BLACK
6
CONTINUOUS
10
0.0176632
20
1.03879
11
0.0190551
21
1.03937
0
LINE
8
BLACK
6
CONTINUOUS
10
0.0190551
20
1.03937
11
0.668661
21
1.03937
0
LINE
8
BLACK
6
CONTINUOUS
10
0.668661
20
1.03937
11
0.670053
21
1.03879
0
LINE
8
BLACK
6
CONTINUOUS
10
0.670053
20
1.03879
11
0.67063
21
1.0374
0
LINE
8
BLACK
6
CONTINUOUS
10
0.67063
20
1.0374
11
0.67063
21
0.600394
0
LINE
8
BLACK
6
CONTINUOUS
10
0.67063
20
0.600394
11
0.670053
21
0.599002
0
LINE
8
BLACK
6
CONTINUOUS
10
0.670053
20
0.599002
11
0.630683
21
0.559632
0
LINE
8
BLACK
6
CONTINUOUS
10
0.630683
20
0.559632
11
0.629291
21
0.559055
0
LINE
8
BLACK
6
CONTINUOUS
10
0.629291
20
0.559055
11
0.0190551
21
0.559055
0
LINE
8
BLACK
6
CONTINUOUS
10
0.0190551
20
0.559055
11
0.0176632
21
0.559632
0
LINE
8
BLACK
6
CONTINUOUS
10
0.0210236
20
1.03543
11
0.0210236
21
0.562992
0
LINE
8
BLACK
6
CONTINUOUS
10
0.0210236
20
0.562992
11
0.628476
21
0.562992
0
LINE
8
BLACK
6
CONTINUOUS
10
0.628476
20
0.562992
11
0.666693
21
0.601209
0
LINE
8
BLACK
6
CONTINUOUS
10
0.666693
20
0.601209
11
0.666693
21
1.03543
0
LINE
8
BLACK
6
CONTINUOUS
10
0.666693
20
1.03543
11
0.0210236
21
1.03543
0
LINE
8
BLACK
6
CONTINUOUS
10
0.332997
20
0.82267
11
0.333688
21
0.820772
0
LINE
8
BLACK
6
CONTINUOUS
10
0.333688
20
0.820772
11
0.333688
21
0.792651
0
LINE
8
BLACK
6
CONTINUOUS
10
0.333688
20
0.792651
11
0.333534
21
0.791781
0
LINE
8
BLACK
6
CONTINUOUS
10
0.333534
20
0.791781
11
0.333536
21
0.791717
0
LINE
8
BLACK
6
CONTINUOUS
10
0.333536
20
0.791717
11
0.331661
21
0.786093
0
LINE
8
BLACK
6
CONTINUOUS
10
0.331661
20
0.786093
11
0.331173
21
0.785191
0
LINE
8
BLACK
6
CONTINUOUS
10
0.331173
20
0.785191
11
0.331023
21
0.785099
0
LINE
8
BLACK
6
CONTINUOUS
10
0.331023
20
0.785099
11
0.330948
21
0.784939
0
LINE
8
BLACK
6
CONTINUOUS
10
0.330948
20
0.784939
11
0.327199
21
0.781189
0
LINE
8
BLACK
6
CONTINUOUS
10
0.327199
20
0.781189
11
0.326358
21
0.780601
0
LINE
8
BLACK
6
CONTINUOUS
10
0.326358
20
0.780601
11
0.326183
21
0.780586
0
LINE
8
BLACK
6
CONTINUOUS
10
0.326183
20
0.780586
11
0.326044
21
0.780476
0
LINE
8
BLACK
6
CONTINUOUS
10
0.326044
20
0.780476
11
0.32042
21
0.778601
0
LINE
8
BLACK
6
CONTINUOUS
10
0.32042
20
0.778601
11
0.319547
21
0.778472
0
LINE
8
BLACK
6
CONTINUOUS
10
0.319547
20
0.778472
11
0.319486
21
0.77845
0
LINE
8
BLACK
6
CONTINUOUS
10
0.319486
20
0.77845
11
0.315737
21
0.77845
0
LINE
8
BLACK
6
CONTINUOUS
10
0.315737
20
0.77845
11
0.314727
21
0.778628
0
LINE
8
BLACK
6
CONTINUOUS
10
0.314727
20
0.778628
11
0.31318
21
0.779926
0
LINE
8
BLACK
6
CONTINUOUS
10
0.31318
20
0.779926
11
0.312829
21
0.781915
0
LINE
8
BLACK
6
CONTINUOUS
10
0.312829
20
0.781915
11
0.313839
21
0.783664
0
LINE
8
BLACK
6
CONTINUOUS
10
0.313839
20
0.783664
11
0.315737
21
0.784355
0
LINE
8
BLACK
6
CONTINUOUS
10
0.315737
20
0.784355
11
0.319007
21
0.784355
0
LINE
8
BLACK
6
CONTINUOUS
10
0.319007
20
0.784355
11
0.323516
21
0.785858
0
LINE
8
BLACK
6
CONTINUOUS
10
0.323516
20
0.785858
11
0.326279
21
0.788622
0
LINE
8
BLACK
6
CONTINUOUS
10
0.326279
20
0.788622
11
0.327782
21
0.79313
0
LINE
8
BLACK
6
CONTINUOUS
10
0.327782
20
0.79313
11
0.327782
21
0.820772
0
LINE
8
BLACK
6
CONTINUOUS
10
0.327782
20
0.820772
11
0.32796
21
0.821782
0
LINE
8
BLACK
6
CONTINUOUS
10
0.32796
20
0.821782
11
0.329259
21
0.82333
0
LINE
8
BLACK
6
CONTINUOUS
10
0.329259
20
0.82333
11
0.331248
21
0.82368
0
LINE
8
BLACK
6
CONTINUOUS
10
0.331248
20
0.82368
11
0.332997
21
0.82267
0
LINE
8
BLACK
6
CONTINUOUS
10
0.363616
20
0.823547
11
0.363751
21
0.823434
0
LINE
8
BLACK
6
CONTINUOUS
10
0.363751
20
0.823434
11
0.363926
21
0.823413
0
LINE
8
BLACK
6
CONTINUOUS
10
0.363926
20
0.823413
11
0.367676
21
0.821539
0
LINE
8
BLACK
6
CONTINUOUS
10
0.367676
20
0.821539
11
0.368385
21
0.821013
0
LINE
8
BLACK
6
CONTINUOUS
10
0.368385
20
0.821013
11
0.368443
21
0.820986
0
LINE
8
BLACK
6
CONTINUOUS
10
0.368443
20
0.820986
11
0.370318
21
0.819111
0
LINE
8
BLACK
6
CONTINUOUS
10
0.370318
20
0.819111
11
0.370824
21
0.818388
0
LINE
8
BLACK
6
CONTINUOUS
10
0.370824
20
0.818388
11
0.370871
21
0.818343
0
LINE
8
BLACK
6
CONTINUOUS
10
0.370871
20
0.818343
11
0.372746
21
0.814594
0
LINE
8
BLACK
6
CONTINUOUS
10
0.372746
20
0.814594
11
0.373038
21
0.813611
0
LINE
8
BLACK
6
CONTINUOUS
10
0.373038
20
0.813611
11
0.372997
21
0.813439
0
LINE
8
BLACK
6
CONTINUOUS
10
0.372997
20
0.813439
11
0.373058
21
0.813273
0
LINE
8
BLACK
6
CONTINUOUS
10
0.373058
20
0.813273
11
0.373058
21
0.809524
0
LINE
8
BLACK
6
CONTINUOUS
10
0.373058
20
0.809524
11
0.372904
21
0.808654
0
LINE
8
BLACK
6
CONTINUOUS
10
0.372904
20
0.808654
11
0.372906
21
0.80859
0
LINE
8
BLACK
6
CONTINUOUS
10
0.372906
20
0.80859
11
0.371031
21
0.802966
0
LINE
8
BLACK
6
CONTINUOUS
10
0.371031
20
0.802966
11
0.370543
21
0.802064
0
LINE
8
BLACK
6
CONTINUOUS
10
0.370543
20
0.802064
11
0.370393
21
0.801972
0
LINE
8
BLACK
6
CONTINUOUS
10
0.370393
20
0.801972
11
0.370318
21
0.801812
0
LINE
8
BLACK
6
CONTINUOUS
10
0.370318
20
0.801812
11
0.352862
21
0.784355
0
LINE
8
BLACK
6
CONTINUOUS
10
0.352862
20
0.784355
11
0.370105
21
0.784355
0
LINE
8
BLACK
6
CONTINUOUS
10
0.370105
20
0.784355
11
0.371115
21
0.784177
0
LINE
8
BLACK
6
CONTINUOUS
10
0.371115
20
0.784177
11
0.372662
21
0.782879
0
LINE
8
BLACK
6
CONTINUOUS
10
0.372662
20
0.782879
11
0.373013
21
0.78089
0
LINE
8
BLACK
6
CONTINUOUS
10
0.373013
20
0.78089
11
0.372003
21
0.77914
0
LINE
8
BLACK
6
CONTINUOUS
10
0.372003
20
0.77914
11
0.370105
21
0.77845
0
LINE
8
BLACK
6
CONTINUOUS
10
0.370105
20
0.77845
11
0.345733
21
0.77845
0
LINE
8
BLACK
6
CONTINUOUS
10
0.345733
20
0.77845
11
0.345098
21
0.778561
0
LINE
8
BLACK
6
CONTINUOUS
10
0.345098
20
0.778561
11
0.344969
21
0.77855
0
LINE
8
BLACK
6
CONTINUOUS
10
0.344969
20
0.77855
11
0.344904
21
0.778596
0
LINE
8
BLACK
6
CONTINUOUS
10
0.344904
20
0.778596
11
0.344723
21
0.778628
0
LINE
8
BLACK
6
CONTINUOUS
10
0.344723
20
0.778628
11
0.344042
21
0.779199
0
LINE
8
BLACK
6
CONTINUOUS
10
0.344042
20
0.779199
11
0.343314
21
0.779709
0
LINE
8
BLACK
6
CONTINUOUS
10
0.343314
20
0.779709
11
0.343279
21
0.779839
0
LINE
8
BLACK
6
CONTINUOUS
10
0.343279
20
0.779839
11
0.343176
21
0.779926
0
LINE
8
BLACK
6
CONTINUOUS
10
0.343176
20
0.779926
11
0.343021
21
0.780801
0
LINE
8
BLACK
6
CONTINUOUS
10
0.343021
20
0.780801
11
0.342792
21
0.78166
0
LINE
8
BLACK
6
CONTINUOUS
10
0.342792
20
0.78166
11
0.342849
21
0.781782
0
LINE
8
BLACK
6
CONTINUOUS
10
0.342849
20
0.781782
11
0.342825
21
0.781915
0
LINE
8
BLACK
6
CONTINUOUS
10
0.342825
20
0.781915
11
0.34327
21
0.782685
0
LINE
8
BLACK
6
CONTINUOUS
10
0.34327
20
0.782685
11
0.343645
21
0.78349
0
LINE
8
BLACK
6
CONTINUOUS
10
0.343645
20
0.78349
11
0.365649
21
0.805495
0
LINE
8
BLACK
6
CONTINUOUS
10
0.365649
20
0.805495
11
0.367152
21
0.810003
0
LINE
8
BLACK
6
CONTINUOUS
10
0.367152
20
0.810003
11
0.367152
21
0.812576
0
LINE
8
BLACK
6
CONTINUOUS
10
0.367152
20
0.812576
11
0.365803
21
0.815274
0
LINE
8
BLACK
6
CONTINUOUS
10
0.365803
20
0.815274
11
0.364606
21
0.816471
0
LINE
8
BLACK
6
CONTINUOUS
10
0.364606
20
0.816471
11
0.361909
21
0.81782
0
LINE
8
BLACK
6
CONTINUOUS
10
0.361909
20
0.81782
11
0.353929
21
0.81782
0
LINE
8
BLACK
6
CONTINUOUS
10
0.353929
20
0.81782
11
0.351232
21
0.816471
0
LINE
8
BLACK
6
CONTINUOUS
10
0.351232
20
0.816471
11
0.349696
21
0.814935
0
LINE
8
BLACK
6
CONTINUOUS
10
0.349696
20
0.814935
11
0.348856
21
0.814347
0
LINE
8
BLACK
6
CONTINUOUS
10
0.348856
20
0.814347
11
0.346844
21
0.814171
0
LINE
8
BLACK
6
CONTINUOUS
10
0.346844
20
0.814171
11
0.345189
21
0.815329
0
LINE
8
BLACK
6
CONTINUOUS
10
0.345189
20
0.815329
11
0.344666
21
0.81728
0
LINE
8
BLACK
6
CONTINUOUS
10
0.344666
20
0.81728
11
0.34552
21
0.819111
0
LINE
8
BLACK
6
CONTINUOUS
10
0.34552
20
0.819111
11
0.347395
21
0.820986
0
LINE
8
BLACK
6
CONTINUOUS
10
0.347395
20
0.820986
11
0.348118
21
0.821492
0
LINE
8
BLACK
6
CONTINUOUS
10
0.348118
20
0.821492
11
0.348162
21
0.821539
0
LINE
8
BLACK
6
CONTINUOUS
10
0.348162
20
0.821539
11
0.351912
21
0.823413
0
LINE
8
BLACK
6
CONTINUOUS
10
0.351912
20
0.823413
11
0.352894
21
0.823706
0
LINE
8
BLACK
6
CONTINUOUS
10
0.352894
20
0.823706
11
0.353066
21
0.823665
0
LINE
8
BLACK
6
CONTINUOUS
10
0.353066
20
0.823665
11
0.353232
21
0.823725
0
LINE
8
BLACK
6
CONTINUOUS
10
0.353232
20
0.823725
11
0.362606
21
0.823725
0
LINE
8
BLACK
6
CONTINUOUS
10
0.362606
20
0.823725
11
0.363616
21
0.823547
0
LINE
8
BLACK
6
CONTINUOUS
10
2.31818
20
1.10068
11
2.31831
21
1.1007
0
LINE
8
BLACK
6
CONTINUOUS
10
2.31831
20
1.1007
11
2.31842
21
1.10064
0
LINE
8
BLACK
6
CONTINUOUS
10
2.31842
20
1.10064
11
2.31881
21
1.10057
0
LINE
8
BLACK
6
CONTINUOUS
10
2.31881
20
1.10057
11
2.31939
21
1.10008
0
LINE
8
BLACK
6
CONTINUOUS
10
2.31939
20
1.10008
11
2.32006
21
1.09969
0
LINE
8
BLACK
6
CONTINUOUS
10
2.32006
20
1.09969
11
2.32015
21
1.09944
0
LINE
8
BLACK
6
CONTINUOUS
10
2.32015
20
1.09944
11
2.32035
21
1.09927
0
LINE
8
BLACK
6
CONTINUOUS
10
2.32035
20
1.09927
11
2.32049
21
1.09852
0
LINE
8
BLACK
6
CONTINUOUS
10
2.32049
20
1.09852
11
2.32075
21
1.0978
0
LINE
8
BLACK
6
CONTINUOUS
10
2.32075
20
1.0978
11
2.32075
21
0.822205
0
LINE
8
BLACK
6
CONTINUOUS
10
2.32075
20
0.822205
11
2.32068
21
0.821821
0
LINE
8
BLACK
6
CONTINUOUS
10
2.32068
20
0.821821
11
2.3207
21
0.821692
0
LINE
8
BLACK
6
CONTINUOUS
10
2.3207
20
0.821692
11
2.32064
21
0.821578
0
LINE
8
BLACK
6
CONTINUOUS
10
2.32064
20
0.821578
11
2.32057
21
0.821195
0
LINE
8
BLACK
6
CONTINUOUS
10
2.32057
20
0.821195
11
2.32008
21
0.820607
0
LINE
8
BLACK
6
CONTINUOUS
10
2.32008
20
0.820607
11
2.31969
21
0.819943
0
LINE
8
BLACK
6
CONTINUOUS
10
2.31969
20
0.819943
11
2.31944
21
0.819852
0
LINE
8
BLACK
6
CONTINUOUS
10
2.31944
20
0.819852
11
2.31927
21
0.819648
0
LINE
8
BLACK
6
CONTINUOUS
10
2.31927
20
0.819648
11
2.31852
21
0.819514
0
LINE
8
BLACK
6
CONTINUOUS
10
2.31852
20
0.819514
11
2.3178
21
0.819252
0
LINE
8
BLACK
6
CONTINUOUS
10
2.3178
20
0.819252
11
2.0422
21
0.819252
0
LINE
8
BLACK
6
CONTINUOUS
10
2.0422
20
0.819252
11
2.04182
21
0.81932
0
LINE
8
BLACK
6
CONTINUOUS
10
2.04182
20
0.81932
11
2.04169
21
0.819297
0
LINE
8
BLACK
6
CONTINUOUS
10
2.04169
20
0.819297
11
2.04158
21
0.819362
0
LINE
8
BLACK
6
CONTINUOUS
10
2.04158
20
0.819362
11
2.04119
21
0.81943
0
LINE
8
BLACK
6
CONTINUOUS
10
2.04119
20
0.81943
11
2.04061
21
0.819923
0
LINE
8
BLACK
6
CONTINUOUS
10
2.04061
20
0.819923
11
2.03994
21
0.820307
0
LINE
8
BLACK
6
CONTINUOUS
10
2.03994
20
0.820307
11
2.03985
21
0.820557
0
LINE
8
BLACK
6
CONTINUOUS
10
2.03985
20
0.820557
11
2.03965
21
0.820728
0
LINE
8
BLACK
6
CONTINUOUS
10
2.03965
20
0.820728
11
2.03951
21
0.821484
0
LINE
8
BLACK
6
CONTINUOUS
10
2.03951
20
0.821484
11
2.03925
21
0.822205
0
LINE
8
BLACK
6
CONTINUOUS
10
2.03925
20
0.822205
11
2.03925
21
1.0978
0
LINE
8
BLACK
6
CONTINUOUS
10
2.03925
20
1.0978
11
2.03932
21
1.09818
0
LINE
8
BLACK
6
CONTINUOUS
10
2.03932
20
1.09818
11
2.0393
21
1.09831
0
LINE
8
BLACK
6
CONTINUOUS
10
2.0393
20
1.09831
11
2.03936
21
1.09842
0
LINE
8
BLACK
6
CONTINUOUS
10
2.03936
20
1.09842
11
2.03943
21
1.09881
0
LINE
8
BLACK
6
CONTINUOUS
10
2.03943
20
1.09881
11
2.03992
21
1.09939
0
LINE
8
BLACK
6
CONTINUOUS
10
2.03992
20
1.09939
11
2.04031
21
1.10006
0
LINE
8
BLACK
6
CONTINUOUS
10
2.04031
20
1.10006
11
2.04056
21
1.10015
0
LINE
8
BLACK
6
CONTINUOUS
10
2.04056
20
1.10015
11
2.04073
21
1.10035
0
LINE
8
BLACK
6
CONTINUOUS
10
2.04073
20
1.10035
11
2.04148
21
1.10049
0
LINE
8
BLACK
6
CONTINUOUS
10
2.04148
20
1.10049
11
2.0422
21
1.10075
0
LINE
8
BLACK
6
CONTINUOUS
10
2.0422
20
1.10075
11
2.3178
21
1.10075
0
LINE
8
BLACK
6
CONTINUOUS
10
2.3178
20
1.10075
11
2.31818
21
1.10068
0
LINE
8
BLACK
6
CONTINUOUS
10
2.04516
20
0.877126
11
2.04516
21
0.825157
0
LINE
8
BLACK
6
CONTINUOUS
10
2.04516
20
0.825157
11
2.09713
21
0.825157
0
LINE
8
BLACK
6
CONTINUOUS
10
2.09713
20
0.825157
11
2.09713
21
0.836969
0
LINE
8
BLACK
6
CONTINUOUS
10
2.09713
20
0.836969
11
2.05992
21
0.836969
0
LINE
8
BLACK
6
CONTINUOUS
10
2.05992
20
0.836969
11
2.05954
21
0.837036
0
LINE
8
BLACK
6
CONTINUOUS
10
2.05954
20
0.837036
11
2.05941
21
0.837013
0
LINE
8
BLACK
6
CONTINUOUS
10
2.05941
20
0.837013
11
2.05929
21
0.837079
0
LINE
8
BLACK
6
CONTINUOUS
10
2.05929
20
0.837079
11
2.05891
21
0.837147
0
LINE
8
BLACK
6
CONTINUOUS
10
2.05891
20
0.837147
11
2.05832
21
0.83764
0
LINE
8
BLACK
6
CONTINUOUS
10
2.05832
20
0.83764
11
2.05766
21
0.838023
0
LINE
8
BLACK
6
CONTINUOUS
10
2.05766
20
0.838023
11
2.05757
21
0.838274
0
LINE
8
BLACK
6
CONTINUOUS
10
2.05757
20
0.838274
11
2.05736
21
0.838445
0
LINE
8
BLACK
6
CONTINUOUS
10
2.05736
20
0.838445
11
2.05723
21
0.8392
0
LINE
8
BLACK
6
CONTINUOUS
10
2.05723
20
0.8392
11
2.05697
21
0.839921
0
LINE
8
BLACK
6
CONTINUOUS
10
2.05697
20
0.839921
11
2.05697
21
0.877126
0
LINE
8
BLACK
6
CONTINUOUS
10
2.05697
20
0.877126
11
2.04516
21
0.877126
0
LINE
8
BLACK
6
CONTINUOUS
10
2.10303
20
1.09484
11
2.10303
21
1.03992
0
LINE
8
BLACK
6
CONTINUOUS
10
2.10303
20
1.03992
11
2.10296
21
1.03954
0
LINE
8
BLACK
6
CONTINUOUS
10
2.10296
20
1.03954
11
2.10299
21
1.03941
0
LINE
8
BLACK
6
CONTINUOUS
10
2.10299
20
1.03941
11
2.10292
21
1.03929
0
LINE
8
BLACK
6
CONTINUOUS
10
2.10292
20
1.03929
11
2.10285
21
1.03891
0
LINE
8
BLACK
6
CONTINUOUS
10
2.10285
20
1.03891
11
2.10236
21
1.03832
0
LINE
8
BLACK
6
CONTINUOUS
10
2.10236
20
1.03832
11
2.10198
21
1.03766
0
LINE
8
BLACK
6
CONTINUOUS
10
2.10198
20
1.03766
11
2.10173
21
1.03757
0
LINE
8
BLACK
6
CONTINUOUS
10
2.10173
20
1.03757
11
2.10156
21
1.03736
0
LINE
8
BLACK
6
CONTINUOUS
10
2.10156
20
1.03736
11
2.1008
21
1.03723
0
LINE
8
BLACK
6
CONTINUOUS
10
2.1008
20
1.03723
11
2.10008
21
1.03697
0
LINE
8
BLACK
6
CONTINUOUS
10
2.10008
20
1.03697
11
2.04516
21
1.03697
0
LINE
8
BLACK
6
CONTINUOUS
10
2.04516
20
1.03697
11
2.04516
21
0.883031
0
LINE
8
BLACK
6
CONTINUOUS
10
2.04516
20
0.883031
11
2.10008
21
0.883031
0
LINE
8
BLACK
6
CONTINUOUS
10
2.10008
20
0.883031
11
2.10046
21
0.882964
0
LINE
8
BLACK
6
CONTINUOUS
10
2.10046
20
0.882964
11
2.10059
21
0.882987
0
LINE
8
BLACK
6
CONTINUOUS
10
2.10059
20
0.882987
11
2.10071
21
0.882921
0
LINE
8
BLACK
6
CONTINUOUS
10
2.10071
20
0.882921
11
2.10109
21
0.882853
0
LINE
8
BLACK
6
CONTINUOUS
10
2.10109
20
0.882853
11
2.10168
21
0.88236
0
LINE
8
BLACK
6
CONTINUOUS
10
2.10168
20
0.88236
11
2.10234
21
0.881977
0
LINE
8
BLACK
6
CONTINUOUS
10
2.10234
20
0.881977
11
2.10243
21
0.881726
0
LINE
8
BLACK
6
CONTINUOUS
10
2.10243
20
0.881726
11
2.10264
21
0.881555
0
LINE
8
BLACK
6
CONTINUOUS
10
2.10264
20
0.881555
11
2.10277
21
0.8808
0
LINE
8
BLACK
6
CONTINUOUS
10
2.10277
20
0.8808
11
2.10303
21
0.880079
0
LINE
8
BLACK
6
CONTINUOUS
10
2.10303
20
0.880079
11
2.10303
21
0.825157
0
LINE
8
BLACK
6
CONTINUOUS
10
2.10303
20
0.825157
11
2.25697
21
0.825157
0
LINE
8
BLACK
6
CONTINUOUS
10
2.25697
20
0.825157
11
2.25697
21
0.880079
0
LINE
8
BLACK
6
CONTINUOUS
10
2.25697
20
0.880079
11
2.25704
21
0.880462
0
LINE
8
BLACK
6
CONTINUOUS
10
2.25704
20
0.880462
11
2.25701
21
0.880591
0
LINE
8
BLACK
6
CONTINUOUS
10
2.25701
20
0.880591
11
2.25708
21
0.880705
0
LINE
8
BLACK
6
CONTINUOUS
10
2.25708
20
0.880705
11
2.25715
21
0.881089
0
LINE
8
BLACK
6
CONTINUOUS
10
2.25715
20
0.881089
11
2.25764
21
0.881676
0
LINE
8
BLACK
6
CONTINUOUS
10
2.25764
20
0.881676
11
2.25802
21
0.882341
0
LINE
8
BLACK
6
CONTINUOUS
10
2.25802
20
0.882341
11
2.25827
21
0.882432
0
LINE
8
BLACK
6
CONTINUOUS
10
2.25827
20
0.882432
11
2.25844
21
0.882636
0
LINE
8
BLACK
6
CONTINUOUS
10
2.25844
20
0.882636
11
2.2592
21
0.882769
0
LINE
8
BLACK
6
CONTINUOUS
10
2.2592
20
0.882769
11
2.25992
21
0.883031
0
LINE
8
BLACK
6
CONTINUOUS
10
2.25992
20
0.883031
11
2.31484
21
0.883031
0
LINE
8
BLACK
6
CONTINUOUS
10
2.31484
20
0.883031
11
2.31484
21
1.03697
0
LINE
8
BLACK
6
CONTINUOUS
10
2.31484
20
1.03697
11
2.25992
21
1.03697
0
LINE
8
BLACK
6
CONTINUOUS
10
2.25992
20
1.03697
11
2.25954
21
1.03704
0
LINE
8
BLACK
6
CONTINUOUS
10
2.25954
20
1.03704
11
2.25941
21
1.03701
0
LINE
8
BLACK
6
CONTINUOUS
10
2.25941
20
1.03701
11
2.25929
21
1.03708
0
LINE
8
BLACK
6
CONTINUOUS
10
2.25929
20
1.03708
11
2.25891
21
1.03715
0
LINE
8
BLACK
6
CONTINUOUS
10
2.25891
20
1.03715
11
2.25832
21
1.03764
0
LINE
8
BLACK
6
CONTINUOUS
10
2.25832
20
1.03764
11
2.25766
21
1.03802
0
LINE
8
BLACK
6
CONTINUOUS
10
2.25766
20
1.03802
11
2.25757
21
1.03827
0
LINE
8
BLACK
6
CONTINUOUS
10
2.25757
20
1.03827
11
2.25736
21
1.03844
0
LINE
8
BLACK
6
CONTINUOUS
10
2.25736
20
1.03844
11
2.25723
21
1.0392
0
LINE
8
BLACK
6
CONTINUOUS
10
2.25723
20
1.0392
11
2.25697
21
1.03992
0
LINE
8
BLACK
6
CONTINUOUS
10
2.25697
20
1.03992
11
2.25697
21
1.09484
0
LINE
8
BLACK
6
CONTINUOUS
10
2.25697
20
1.09484
11
2.10303
21
1.09484
0
LINE
8
BLACK
6
CONTINUOUS
10
2.30303
20
0.877126
11
2.30303
21
0.839921
0
LINE
8
BLACK
6
CONTINUOUS
10
2.30303
20
0.839921
11
2.30296
21
0.839538
0
LINE
8
BLACK
6
CONTINUOUS
10
2.30296
20
0.839538
11
2.30299
21
0.839409
0
LINE
8
BLACK
6
CONTINUOUS
10
2.30299
20
0.839409
11
2.30292
21
0.839295
0
LINE
8
BLACK
6
CONTINUOUS
10
2.30292
20
0.839295
11
2.30285
21
0.838911
0
LINE
8
BLACK
6
CONTINUOUS
10
2.30285
20
0.838911
11
2.30236
21
0.838324
0
LINE
8
BLACK
6
CONTINUOUS
10
2.30236
20
0.838324
11
2.30198
21
0.837659
0
LINE
8
BLACK
6
CONTINUOUS
10
2.30198
20
0.837659
11
2.30173
21
0.837568
0
LINE
8
BLACK
6
CONTINUOUS
10
2.30173
20
0.837568
11
2.30156
21
0.837364
0
LINE
8
BLACK
6
CONTINUOUS
10
2.30156
20
0.837364
11
2.3008
21
0.837231
0
LINE
8
BLACK
6
CONTINUOUS
10
2.3008
20
0.837231
11
2.30008
21
0.836969
0
LINE
8
BLACK
6
CONTINUOUS
10
2.30008
20
0.836969
11
2.26287
21
0.836969
0
LINE
8
BLACK
6
CONTINUOUS
10
2.26287
20
0.836969
11
2.26287
21
0.825157
0
LINE
8
BLACK
6
CONTINUOUS
10
2.26287
20
0.825157
11
2.31484
21
0.825157
0
LINE
8
BLACK
6
CONTINUOUS
10
2.31484
20
0.825157
11
2.31484
21
0.877126
0
LINE
8
BLACK
6
CONTINUOUS
10
2.31484
20
0.877126
11
2.30303
21
0.877126
0
LINE
8
BLACK
6
CONTINUOUS
10
2.26287
20
0.877126
11
2.26287
21
0.842874
0
LINE
8
BLACK
6
CONTINUOUS
10
2.26287
20
0.842874
11
2.29713
21
0.842874
0
LINE
8
BLACK
6
CONTINUOUS
10
2.29713
20
0.842874
11
2.29713
21
0.877126
0
LINE
8
BLACK
6
CONTINUOUS
10
2.29713
20
0.877126
11
2.26287
21
0.877126
0
LINE
8
BLACK
6
CONTINUOUS
10
2.06287
20
0.877126
11
2.06287
21
0.842874
0
LINE
8
BLACK
6
CONTINUOUS
10
2.06287
20
0.842874
11
2.09713
21
0.842874
0
LINE
8
BLACK
6
CONTINUOUS
10
2.09713
20
0.842874
11
2.09713
21
0.877126
0
LINE
8
BLACK
6
CONTINUOUS
10
2.09713
20
0.877126
11
2.06287
21
0.877126
0
LINE
8
BLACK
6
CONTINUOUS
10
2.26287
20
1.07713
11
2.26287
21
1.04287
0
LINE
8
BLACK
6
CONTINUOUS
10
2.26287
20
1.04287
11
2.29713
21
1.04287
0
LINE
8
BLACK
6
CONTINUOUS
10
2.29713
20
1.04287
11
2.29713
21
1.07713
0
LINE
8
BLACK
6
CONTINUOUS
10
2.29713
20
1.07713
11
2.26287
21
1.07713
0
LINE
8
BLACK
6
CONTINUOUS
10
2.26287
20
1.09484
11
2.26287
21
1.08303
0
LINE
8
BLACK
6
CONTINUOUS
10
2.26287
20
1.08303
11
2.30008
21
1.08303
0
LINE
8
BLACK
6
CONTINUOUS
10
2.30008
20
1.08303
11
2.30046
21
1.08296
0
LINE
8
BLACK
6
CONTINUOUS
10
2.30046
20
1.08296
11
2.30059
21
1.08299
0
LINE
8
BLACK
6
CONTINUOUS
10
2.30059
20
1.08299
11
2.30071
21
1.08292
0
LINE
8
BLACK
6
CONTINUOUS
10
2.30071
20
1.08292
11
2.30109
21
1.08285
0
LINE
8
BLACK
6
CONTINUOUS
10
2.30109
20
1.08285
11
2.30168
21
1.08236
0
LINE
8
BLACK
6
CONTINUOUS
10
2.30168
20
1.08236
11
2.30234
21
1.08198
0
LINE
8
BLACK
6
CONTINUOUS
10
2.30234
20
1.08198
11
2.30243
21
1.08173
0
LINE
8
BLACK
6
CONTINUOUS
10
2.30243
20
1.08173
11
2.30264
21
1.08156
0
LINE
8
BLACK
6
CONTINUOUS
10
2.30264
20
1.08156
11
2.30277
21
1.0808
0
LINE
8
BLACK
6
CONTINUOUS
10
2.30277
20
1.0808
11
2.30303
21
1.08008
0
LINE
8
BLACK
6
CONTINUOUS
10
2.30303
20
1.08008
11
2.30303
21
1.04287
0
LINE
8
BLACK
6
CONTINUOUS
10
2.30303
20
1.04287
11
2.31484
21
1.04287
0
LINE
8
BLACK
6
CONTINUOUS
10
2.31484
20
1.04287
11
2.31484
21
1.09484
0
LINE
8
BLACK
6
CONTINUOUS
10
2.31484
20
1.09484
11
2.26287
21
1.09484
0
LINE
8
BLACK
6
CONTINUOUS
10
2.04516
20
1.09484
11
2.04516
21
1.04287
0
LINE
8
BLACK
6
CONTINUOUS
10
2.04516
20
1.04287
11
2.05697
21
1.04287
0
LINE
8
BLACK
6
CONTINUOUS
10
2.05697
20
1.04287
11
2.05697
21
1.08008
0
LINE
8
BLACK
6
CONTINUOUS
10
2.05697
20
1.08008
11
2.05704
21
1.08046
0
LINE
8
BLACK
6
CONTINUOUS
10
2.05704
20
1.08046
11
2.05701
21
1.08059
0
LINE
8
BLACK
6
CONTINUOUS
10
2.05701
20
1.08059
11
2.05708
21
1.08071
0
LINE
8
BLACK
6
CONTINUOUS
10
2.05708
20
1.08071
11
2.05715
21
1.08109
0
LINE
8
BLACK
6
CONTINUOUS
10
2.05715
20
1.08109
11
2.05764
21
1.08168
0
LINE
8
BLACK
6
CONTINUOUS
10
2.05764
20
1.08168
11
2.05802
21
1.08234
0
LINE
8
BLACK
6
CONTINUOUS
10
2.05802
20
1.08234
11
2.05827
21
1.08243
0
LINE
8
BLACK
6
CONTINUOUS
10
2.05827
20
1.08243
11
2.05844
21
1.08264
0
LINE
8
BLACK
6
CONTINUOUS
10
2.05844
20
1.08264
11
2.0592
21
1.08277
0
LINE
8
BLACK
6
CONTINUOUS
10
2.0592
20
1.08277
11
2.05992
21
1.08303
0
LINE
8
BLACK
6
CONTINUOUS
10
2.05992
20
1.08303
11
2.09713
21
1.08303
0
LINE
8
BLACK
6
CONTINUOUS
10
2.09713
20
1.08303
11
2.09713
21
1.09484
0
LINE
8
BLACK
6
CONTINUOUS
10
2.09713
20
1.09484
11
2.04516
21
1.09484
0
LINE
8
BLACK
6
CONTINUOUS
10
2.06287
20
1.07713
11
2.06287
21
1.04287
0
LINE
8
BLACK
6
CONTINUOUS
10
2.06287
20
1.04287
11
2.09713
21
1.04287
0
LINE
8
BLACK
6
CONTINUOUS
10
2.09713
20
1.04287
11
2.09713
21
1.07713
0
LINE
8
BLACK
6
CONTINUOUS
10
2.09713
20
1.07713
11
2.06287
21
1.07713
0
LINE
8
BLACK
6
CONTINUOUS
10
2.0949
20
0.982803
11
2.0986
21
0.993715
0
LINE
8
BLACK
6
CONTINUOUS
10
2.0986
20
0.993715
11
2.1037
21
1.00405
0
LINE
8
BLACK
6
CONTINUOUS
10
2.1037
20
1.00405
11
2.1101
21
1.01363
0
LINE
8
BLACK
6
CONTINUOUS
10
2.1101
20
1.01363
11
2.1177
21
1.0223
0
LINE
8
BLACK
6
CONTINUOUS
10
2.1177
20
1.0223
11
2.12637
21
1.0299
0
LINE
8
BLACK
6
CONTINUOUS
10
2.12637
20
1.0299
11
2.13595
21
1.0363
0
LINE
8
BLACK
6
CONTINUOUS
10
2.13595
20
1.0363
11
2.14628
21
1.0414
0
LINE
8
BLACK
6
CONTINUOUS
10
2.14628
20
1.0414
11
2.1572
21
1.0451
0
LINE
8
BLACK
6
CONTINUOUS
10
2.1572
20
1.0451
11
2.1685
21
1.04735
0
LINE
8
BLACK
6
CONTINUOUS
10
2.1685
20
1.04735
11
2.18
21
1.0481
0
LINE
8
BLACK
6
CONTINUOUS
10
2.18
20
1.0481
11
2.1915
21
1.04735
0
LINE
8
BLACK
6
CONTINUOUS
10
2.1915
20
1.04735
11
2.2028
21
1.0451
0
LINE
8
BLACK
6
CONTINUOUS
10
2.2028
20
1.0451
11
2.21372
21
1.0414
0
LINE
8
BLACK
6
CONTINUOUS
10
2.21372
20
1.0414
11
2.22405
21
1.0363
0
LINE
8
BLACK
6
CONTINUOUS
10
2.22405
20
1.0363
11
2.23363
21
1.0299
0
LINE
8
BLACK
6
CONTINUOUS
10
2.23363
20
1.0299
11
2.2423
21
1.0223
0
LINE
8
BLACK
6
CONTINUOUS
10
2.2423
20
1.0223
11
2.2499
21
1.01363
0
LINE
8
BLACK
6
CONTINUOUS
10
2.2499
20
1.01363
11
2.2563
21
1.00405
0
LINE
8
BLACK
6
CONTINUOUS
10
2.2563
20
1.00405
11
2.2614
21
0.993715
0
LINE
8
BLACK
6
CONTINUOUS
10
2.2614
20
0.993715
11
2.2651
21
0.982803
0
LINE
8
BLACK
6
CONTINUOUS
10
2.2651
20
0.982803
11
2.26735
21
0.9715
0
LINE
8
BLACK
6
CONTINUOUS
10
2.26735
20
0.9715
11
2.2681
21
0.96
0
LINE
8
BLACK
6
CONTINUOUS
10
2.2681
20
0.96
11
2.26735
21
0.9485
0
LINE
8
BLACK
6
CONTINUOUS
10
2.26735
20
0.9485
11
2.2651
21
0.937197
0
LINE
8
BLACK
6
CONTINUOUS
10
2.2651
20
0.937197
11
2.2614
21
0.926285
0
LINE
8
BLACK
6
CONTINUOUS
10
2.2614
20
0.926285
11
2.2563
21
0.915949
0
LINE
8
BLACK
6
CONTINUOUS
10
2.2563
20
0.915949
11
2.2499
21
0.906367
0
LINE
8
BLACK
6
CONTINUOUS
10
2.2499
20
0.906367
11
2.2423
21
0.897702
0
LINE
8
BLACK
6
CONTINUOUS
10
2.2423
20
0.897702
11
2.23363
21
0.890104
0
LINE
8
BLACK
6
CONTINUOUS
10
2.23363
20
0.890104
11
2.22405
21
0.883701
0
LINE
8
BLACK
6
CONTINUOUS
10
2.22405
20
0.883701
11
2.21372
21
0.878604
0
LINE
8
BLACK
6
CONTINUOUS
10
2.21372
20
0.878604
11
2.2028
21
0.8749
0
LINE
8
BLACK
6
CONTINUOUS
10
2.2028
20
0.8749
11
2.1915
21
0.872651
0
LINE
8
BLACK
6
CONTINUOUS
10
2.1915
20
0.872651
11
2.18
21
0.871898
0
LINE
8
BLACK
6
CONTINUOUS
10
2.18
20
0.871898
11
2.1685
21
0.872651
0
LINE
8
BLACK
6
CONTINUOUS
10
2.1685
20
0.872651
11
2.1572
21
0.8749
0
LINE
8
BLACK
6
CONTINUOUS
10
2.1572
20
0.8749
11
2.14628
21
0.878604
0
LINE
8
BLACK
6
CONTINUOUS
10
2.14628
20
0.878604
11
2.13595
21
0.883701
0
LINE
8
BLACK
6
CONTINUOUS
10
2.13595
20
0.883701
11
2.12637
21
0.890104
0
LINE
8
BLACK
6
CONTINUOUS
10
2.12637
20
0.890104
11
2.1177
21
0.897702
0
LINE
8
BLACK
6
CONTINUOUS
10
2.1177
20
0.897702
11
2.1101
21
0.906367
0
LINE
8
BLACK
6
CONTINUOUS
10
2.1101
20
0.906367
11
2.1037
21
0.915949
0
LINE
8
BLACK
6
CONTINUOUS
10
2.1037
20
0.915949
11
2.0986
21
0.926285
0
LINE
8
BLACK
6
CONTINUOUS
10
2.0986
20
0.926285
11
2.0949
21
0.937197
0
LINE
8
BLACK
6
CONTINUOUS
10
2.0949
20
0.937197
11
2.09265
21
0.9485
0
LINE
8
BLACK
6
CONTINUOUS
10
2.09265
20
0.9485
11
2.0919
21
0.96
0
LINE
8
BLACK
6
CONTINUOUS
10
2.0919
20
0.96
11
2.09195
21
0.960863
0
LINE
8
BLACK
6
CONTINUOUS
10
2.09195
20
0.960863
11
2.09265
21
0.9715
0
LINE
8
BLACK
6
CONTINUOUS
10
2.09265
20
0.9715
11
2.0949
21
0.982803
0
LINE
8
BLACK
6
CONTINUOUS
10
2.10042
20
0.938676
11
2.10405
21
0.928073
0
LINE
8
BLACK
6
CONTINUOUS
10
2.10405
20
0.928073
11
2.10908
21
0.918061
0
LINE
8
BLACK
6
CONTINUOUS
10
2.10908
20
0.918061
11
2.11543
21
0.908824
0
LINE
8
BLACK
6
CONTINUOUS
10
2.11543
20
0.908824
11
2.12298
21
0.900535
0
LINE
8
BLACK
6
CONTINUOUS
10
2.12298
20
0.900535
11
2.13157
21
0.893346
0
LINE
8
BLACK
6
CONTINUOUS
10
2.13157
20
0.893346
11
2.14107
21
0.88739
0
LINE
8
BLACK
6
CONTINUOUS
10
2.14107
20
0.88739
11
2.15128
21
0.882778
0
LINE
8
BLACK
6
CONTINUOUS
10
2.15128
20
0.882778
11
2.16203
21
0.879595
0
LINE
8
BLACK
6
CONTINUOUS
10
2.16203
20
0.879595
11
2.17311
21
0.8779
0
LINE
8
BLACK
6
CONTINUOUS
10
2.17311
20
0.8779
11
2.18431
21
0.877724
0
LINE
8
BLACK
6
CONTINUOUS
10
2.18431
20
0.877724
11
2.19544
21
0.87907
0
LINE
8
BLACK
6
CONTINUOUS
10
2.19544
20
0.87907
11
2.20628
21
0.881914
0
LINE
8
BLACK
6
CONTINUOUS
10
2.20628
20
0.881914
11
2.21663
21
0.886203
0
LINE
8
BLACK
6
CONTINUOUS
10
2.21663
20
0.886203
11
2.22631
21
0.891858
0
LINE
8
BLACK
6
CONTINUOUS
10
2.22631
20
0.891858
11
2.23513
21
0.898773
0
LINE
8
BLACK
6
CONTINUOUS
10
2.23513
20
0.898773
11
2.24293
21
0.906821
0
LINE
8
BLACK
6
CONTINUOUS
10
2.24293
20
0.906821
11
2.24956
21
0.915854
0
LINE
8
BLACK
6
CONTINUOUS
10
2.24956
20
0.915854
11
2.25491
21
0.925703
0
LINE
8
BLACK
6
CONTINUOUS
10
2.25491
20
0.925703
11
2.25887
21
0.936187
0
LINE
8
BLACK
6
CONTINUOUS
10
2.25887
20
0.936187
11
2.26137
21
0.947112
0
LINE
8
BLACK
6
CONTINUOUS
10
2.26137
20
0.947112
11
2.26237
21
0.958275
0
LINE
8
BLACK
6
CONTINUOUS
10
2.26237
20
0.958275
11
2.26239
21
0.96
0
LINE
8
BLACK
6
CONTINUOUS
10
2.26239
20
0.96
11
2.26163
21
0.971181
0
LINE
8
BLACK
6
CONTINUOUS
10
2.26163
20
0.971181
11
2.25935
21
0.982156
0
LINE
8
BLACK
6
CONTINUOUS
10
2.25935
20
0.982156
11
2.25561
21
0.992721
0
LINE
8
BLACK
6
CONTINUOUS
10
2.25561
20
0.992721
11
2.25047
21
1.00268
0
LINE
8
BLACK
6
CONTINUOUS
10
2.25047
20
1.00268
11
2.24403
21
1.01185
0
LINE
8
BLACK
6
CONTINUOUS
10
2.24403
20
1.01185
11
2.2364
21
1.02006
0
LINE
8
BLACK
6
CONTINUOUS
10
2.2364
20
1.02006
11
2.22773
21
1.02716
0
LINE
8
BLACK
6
CONTINUOUS
10
2.22773
20
1.02716
11
2.21817
21
1.03301
0
LINE
8
BLACK
6
CONTINUOUS
10
2.21817
20
1.03301
11
2.20791
21
1.03752
0
LINE
8
BLACK
6
CONTINUOUS
10
2.20791
20
1.03752
11
2.19713
21
1.04059
0
LINE
8
BLACK
6
CONTINUOUS
10
2.19713
20
1.04059
11
2.18603
21
1.04217
0
LINE
8
BLACK
6
CONTINUOUS
10
2.18603
20
1.04217
11
2.17483
21
1.04223
0
LINE
8
BLACK
6
CONTINUOUS
10
2.17483
20
1.04223
11
2.16372
21
1.04076
0
LINE
8
BLACK
6
CONTINUOUS
10
2.16372
20
1.04076
11
2.15291
21
1.03781
0
LINE
8
BLACK
6
CONTINUOUS
10
2.15291
20
1.03781
11
2.1426
21
1.03341
0
LINE
8
BLACK
6
CONTINUOUS
10
2.1426
20
1.03341
11
2.13298
21
1.02765
0
LINE
8
BLACK
6
CONTINUOUS
10
2.13298
20
1.02765
11
2.12423
21
1.02065
0
LINE
8
BLACK
6
CONTINUOUS
10
2.12423
20
1.02065
11
2.11652
21
1.01252
0
LINE
8
BLACK
6
CONTINUOUS
10
2.11652
20
1.01252
11
2.10998
21
1.00342
0
LINE
8
BLACK
6
CONTINUOUS
10
2.10998
20
1.00342
11
2.10473
21
0.993511
0
LINE
8
BLACK
6
CONTINUOUS
10
2.10473
20
0.993511
11
2.10088
21
0.982986
0
LINE
8
BLACK
6
CONTINUOUS
10
2.10088
20
0.982986
11
2.09849
21
0.972036
0
LINE
8
BLACK
6
CONTINUOUS
10
2.09849
20
0.972036
11
2.09762
21
0.960863
0
LINE
8
BLACK
6
CONTINUOUS
10
2.09762
20
0.960863
11
2.09826
21
0.949674
0
LINE
8
BLACK
6
CONTINUOUS
10
2.09826
20
0.949674
11
2.10042
21
0.938676
0
LINE
8
BLACK
6
CONTINUOUS
10
2.17558
20
0.990259
11
2.17575
21
0.990289
0
LINE
8
BLACK
6
CONTINUOUS
10
2.17575
20
0.990289
11
2.17649
21
0.98986
0
LINE
8
BLACK
6
CONTINUOUS
10
2.17649
20
0.98986
11
2.17728
21
0.989516
0
LINE
8
BLACK
6
CONTINUOUS
10
2.17728
20
0.989516
11
2.17735
21
0.989364
0
LINE
8
BLACK
6
CONTINUOUS
10
2.17735
20
0.989364
11
2.1775
21
0.989279
0
LINE
8
BLACK
6
CONTINUOUS
10
2.1775
20
0.989279
11
2.17779
21
0.988474
0
LINE
8
BLACK
6
CONTINUOUS
10
2.17779
20
0.988474
11
2.17817
21
0.987705
0
LINE
8
BLACK
6
CONTINUOUS
10
2.17817
20
0.987705
11
2.17813
21
0.987541
0
LINE
8
BLACK
6
CONTINUOUS
10
2.17813
20
0.987541
11
2.17819
21
0.987381
0
LINE
8
BLACK
6
CONTINUOUS
10
2.17819
20
0.987381
11
2.17819
21
0.940334
0
LINE
8
BLACK
6
CONTINUOUS
10
2.17819
20
0.940334
11
2.18952
21
0.940334
0
LINE
8
BLACK
6
CONTINUOUS
10
2.18952
20
0.940334
11
2.19053
21
0.940156
0
LINE
8
BLACK
6
CONTINUOUS
10
2.19053
20
0.940156
11
2.19208
21
0.938857
0
LINE
8
BLACK
6
CONTINUOUS
10
2.19208
20
0.938857
11
2.19243
21
0.936868
0
LINE
8
BLACK
6
CONTINUOUS
10
2.19243
20
0.936868
11
2.19142
21
0.935119
0
LINE
8
BLACK
6
CONTINUOUS
10
2.19142
20
0.935119
11
2.18952
21
0.934428
0
LINE
8
BLACK
6
CONTINUOUS
10
2.18952
20
0.934428
11
2.16095
21
0.934428
0
LINE
8
BLACK
6
CONTINUOUS
10
2.16095
20
0.934428
11
2.15994
21
0.934606
0
LINE
8
BLACK
6
CONTINUOUS
10
2.15994
20
0.934606
11
2.1584
21
0.935905
0
LINE
8
BLACK
6
CONTINUOUS
10
2.1584
20
0.935905
11
2.15804
21
0.937894
0
LINE
8
BLACK
6
CONTINUOUS
10
2.15804
20
0.937894
11
2.15905
21
0.939643
0
LINE
8
BLACK
6
CONTINUOUS
10
2.15905
20
0.939643
11
2.16095
21
0.940334
0
LINE
8
BLACK
6
CONTINUOUS
10
2.16095
20
0.940334
11
2.17229
21
0.940334
0
LINE
8
BLACK
6
CONTINUOUS
10
2.17229
20
0.940334
11
2.17229
21
0.977871
0
LINE
8
BLACK
6
CONTINUOUS
10
2.17229
20
0.977871
11
2.1678
21
0.973388
0
LINE
8
BLACK
6
CONTINUOUS
10
2.1678
20
0.973388
11
2.16708
21
0.972882
0
LINE
8
BLACK
6
CONTINUOUS
10
2.16708
20
0.972882
11
2.16703
21
0.972835
0
LINE
8
BLACK
6
CONTINUOUS
10
2.16703
20
0.972835
11
2.16227
21
0.970454
0
LINE
8
BLACK
6
CONTINUOUS
10
2.16227
20
0.970454
11
2.16129
21
0.970162
0
LINE
8
BLACK
6
CONTINUOUS
10
2.16129
20
0.970162
11
2.15933
21
0.970631
0
LINE
8
BLACK
6
CONTINUOUS
10
2.15933
20
0.970631
11
2.15812
21
0.972253
0
LINE
8
BLACK
6
CONTINUOUS
10
2.15812
20
0.972253
11
2.15824
21
0.97427
0
LINE
8
BLACK
6
CONTINUOUS
10
2.15824
20
0.97427
11
2.15963
21
0.975736
0
LINE
8
BLACK
6
CONTINUOUS
10
2.15963
20
0.975736
11
2.16397
21
0.977903
0
LINE
8
BLACK
6
CONTINUOUS
10
2.16397
20
0.977903
11
2.16818
21
0.982119
0
LINE
8
BLACK
6
CONTINUOUS
10
2.16818
20
0.982119
11
2.17278
21
0.989019
0
LINE
8
BLACK
6
CONTINUOUS
10
2.17278
20
0.989019
11
2.17349
21
0.98976
0
LINE
8
BLACK
6
CONTINUOUS
10
2.17349
20
0.98976
11
2.17365
21
0.989808
0
LINE
8
BLACK
6
CONTINUOUS
10
2.17365
20
0.989808
11
2.17376
21
0.989938
0
LINE
8
BLACK
6
CONTINUOUS
10
2.17376
20
0.989938
11
2.17461
21
0.990087
0
LINE
8
BLACK
6
CONTINUOUS
10
2.17461
20
0.990087
11
2.17543
21
0.990328
0
LINE
8
BLACK
6
CONTINUOUS
10
2.17543
20
0.990328
11
2.17558
21
0.990259
0
LINE
8
BLACK
6
CONTINUOUS
10
2.14179
20
0.989279
11
2.14248
21
0.987381
0
LINE
8
BLACK
6
CONTINUOUS
10
2.14248
20
0.987381
11
2.14248
21
0.951667
0
LINE
8
BLACK
6
CONTINUOUS
10
2.14248
20
0.951667
11
2.14232
21
0.950797
0
LINE
8
BLACK
6
CONTINUOUS
10
2.14232
20
0.950797
11
2.14233
21
0.950733
0
LINE
8
BLACK
6
CONTINUOUS
10
2.14233
20
0.950733
11
2.13994
21
0.94359
0
LINE
8
BLACK
6
CONTINUOUS
10
2.13994
20
0.94359
11
2.13946
21
0.942688
0
LINE
8
BLACK
6
CONTINUOUS
10
2.13946
20
0.942688
11
2.13931
21
0.942596
0
LINE
8
BLACK
6
CONTINUOUS
10
2.13931
20
0.942596
11
2.13923
21
0.942436
0
LINE
8
BLACK
6
CONTINUOUS
10
2.13923
20
0.942436
11
2.13447
21
0.937674
0
LINE
8
BLACK
6
CONTINUOUS
10
2.13447
20
0.937674
11
2.13363
21
0.937086
0
LINE
8
BLACK
6
CONTINUOUS
10
2.13363
20
0.937086
11
2.13345
21
0.93707
0
LINE
8
BLACK
6
CONTINUOUS
10
2.13345
20
0.93707
11
2.13331
21
0.936961
0
LINE
8
BLACK
6
CONTINUOUS
10
2.13331
20
0.936961
11
2.12617
21
0.93458
0
LINE
8
BLACK
6
CONTINUOUS
10
2.12617
20
0.93458
11
2.1253
21
0.93445
0
LINE
8
BLACK
6
CONTINUOUS
10
2.1253
20
0.93445
11
2.12524
21
0.934428
0
LINE
8
BLACK
6
CONTINUOUS
10
2.12524
20
0.934428
11
2.12048
21
0.934428
0
LINE
8
BLACK
6
CONTINUOUS
10
2.12048
20
0.934428
11
2.11947
21
0.934606
0
LINE
8
BLACK
6
CONTINUOUS
10
2.11947
20
0.934606
11
2.11792
21
0.935905
0
LINE
8
BLACK
6
CONTINUOUS
10
2.11792
20
0.935905
11
2.11757
21
0.937894
0
LINE
8
BLACK
6
CONTINUOUS
10
2.11757
20
0.937894
11
2.11858
21
0.939643
0
LINE
8
BLACK
6
CONTINUOUS
10
2.11858
20
0.939643
11
2.12048
21
0.940334
0
LINE
8
BLACK
6
CONTINUOUS
10
2.12048
20
0.940334
11
2.12476
21
0.940334
0
LINE
8
BLACK
6
CONTINUOUS
10
2.12476
20
0.940334
11
2.13079
21
0.942343
0
LINE
8
BLACK
6
CONTINUOUS
10
2.13079
20
0.942343
11
2.13456
21
0.946119
0
LINE
8
BLACK
6
CONTINUOUS
10
2.13456
20
0.946119
11
2.13657
21
0.952146
0
LINE
8
BLACK
6
CONTINUOUS
10
2.13657
20
0.952146
11
2.13657
21
0.987381
0
LINE
8
BLACK
6
CONTINUOUS
10
2.13657
20
0.987381
11
2.13675
21
0.988391
0
LINE
8
BLACK
6
CONTINUOUS
10
2.13675
20
0.988391
11
2.13805
21
0.989938
0
LINE
8
BLACK
6
CONTINUOUS
10
2.13805
20
0.989938
11
2.14004
21
0.990289
0
LINE
8
BLACK
6
CONTINUOUS
10
2.14004
20
0.990289
11
2.14179
21
0.989279
0
LINE
8
BLACK
6
CONTINUOUS
10
2.22863
20
0.990156
11
2.22876
21
0.990042
0
LINE
8
BLACK
6
CONTINUOUS
10
2.22876
20
0.990042
11
2.22894
21
0.990022
0
LINE
8
BLACK
6
CONTINUOUS
10
2.22894
20
0.990022
11
2.2337
21
0.987641
0
LINE
8
BLACK
6
CONTINUOUS
10
2.2337
20
0.987641
11
2.23441
21
0.987115
0
LINE
8
BLACK
6
CONTINUOUS
10
2.23441
20
0.987115
11
2.23447
21
0.987088
0
LINE
8
BLACK
6
CONTINUOUS
10
2.23447
20
0.987088
11
2.23685
21
0.984707
0
LINE
8
BLACK
6
CONTINUOUS
10
2.23685
20
0.984707
11
2.23736
21
0.983984
0
LINE
8
BLACK
6
CONTINUOUS
10
2.23736
20
0.983984
11
2.2374
21
0.98394
0
LINE
8
BLACK
6
CONTINUOUS
10
2.2374
20
0.98394
11
2.23978
21
0.979178
0
LINE
8
BLACK
6
CONTINUOUS
10
2.23978
20
0.979178
11
2.24008
21
0.978195
0
LINE
8
BLACK
6
CONTINUOUS
10
2.24008
20
0.978195
11
2.24004
21
0.978023
0
LINE
8
BLACK
6
CONTINUOUS
10
2.24004
20
0.978023
11
2.2401
21
0.977857
0
LINE
8
BLACK
6
CONTINUOUS
10
2.2401
20
0.977857
11
2.2401
21
0.975476
0
LINE
8
BLACK
6
CONTINUOUS
10
2.2401
20
0.975476
11
2.23992
21
0.974466
0
LINE
8
BLACK
6
CONTINUOUS
10
2.23992
20
0.974466
11
2.2398
21
0.974331
0
LINE
8
BLACK
6
CONTINUOUS
10
2.2398
20
0.974331
11
2.23978
21
0.974156
0
LINE
8
BLACK
6
CONTINUOUS
10
2.23978
20
0.974156
11
2.2374
21
0.969394
0
LINE
8
BLACK
6
CONTINUOUS
10
2.2374
20
0.969394
11
2.23688
21
0.968685
0
LINE
8
BLACK
6
CONTINUOUS
10
2.23688
20
0.968685
11
2.23685
21
0.968626
0
LINE
8
BLACK
6
CONTINUOUS
10
2.23685
20
0.968626
11
2.23447
21
0.966245
0
LINE
8
BLACK
6
CONTINUOUS
10
2.23447
20
0.966245
11
2.23405
21
0.965953
0
LINE
8
BLACK
6
CONTINUOUS
10
2.23405
20
0.965953
11
2.23441
21
0.965687
0
LINE
8
BLACK
6
CONTINUOUS
10
2.23441
20
0.965687
11
2.23447
21
0.965659
0
LINE
8
BLACK
6
CONTINUOUS
10
2.23447
20
0.965659
11
2.23685
21
0.963278
0
LINE
8
BLACK
6
CONTINUOUS
10
2.23685
20
0.963278
11
2.23736
21
0.962555
0
LINE
8
BLACK
6
CONTINUOUS
10
2.23736
20
0.962555
11
2.2374
21
0.962511
0
LINE
8
BLACK
6
CONTINUOUS
10
2.2374
20
0.962511
11
2.23978
21
0.957749
0
LINE
8
BLACK
6
CONTINUOUS
10
2.23978
20
0.957749
11
2.24008
21
0.956766
0
LINE
8
BLACK
6
CONTINUOUS
10
2.24008
20
0.956766
11
2.24004
21
0.956594
0
LINE
8
BLACK
6
CONTINUOUS
10
2.24004
20
0.956594
11
2.2401
21
0.956429
0
LINE
8
BLACK
6
CONTINUOUS
10
2.2401
20
0.956429
11
2.2401
21
0.946905
0
LINE
8
BLACK
6
CONTINUOUS
10
2.2401
20
0.946905
11
2.23992
21
0.945895
0
LINE
8
BLACK
6
CONTINUOUS
10
2.23992
20
0.945895
11
2.2398
21
0.94576
0
LINE
8
BLACK
6
CONTINUOUS
10
2.2398
20
0.94576
11
2.23978
21
0.945584
0
LINE
8
BLACK
6
CONTINUOUS
10
2.23978
20
0.945584
11
2.2374
21
0.940822
0
LINE
8
BLACK
6
CONTINUOUS
10
2.2374
20
0.940822
11
2.23688
21
0.940113
0
LINE
8
BLACK
6
CONTINUOUS
10
2.23688
20
0.940113
11
2.23685
21
0.940055
0
LINE
8
BLACK
6
CONTINUOUS
10
2.23685
20
0.940055
11
2.23447
21
0.937674
0
LINE
8
BLACK
6
CONTINUOUS
10
2.23447
20
0.937674
11
2.23375
21
0.937168
0
LINE
8
BLACK
6
CONTINUOUS
10
2.23375
20
0.937168
11
2.2337
21
0.937121
0
LINE
8
BLACK
6
CONTINUOUS
10
2.2337
20
0.937121
11
2.22894
21
0.93474
0
LINE
8
BLACK
6
CONTINUOUS
10
2.22894
20
0.93474
11
2.22796
21
0.934448
0
LINE
8
BLACK
6
CONTINUOUS
10
2.22796
20
0.934448
11
2.22778
21
0.934489
0
LINE
8
BLACK
6
CONTINUOUS
10
2.22778
20
0.934489
11
2.22762
21
0.934428
0
LINE
8
BLACK
6
CONTINUOUS
10
2.22762
20
0.934428
11
2.2181
21
0.934428
0
LINE
8
BLACK
6
CONTINUOUS
10
2.2181
20
0.934428
11
2.21709
21
0.934606
0
LINE
8
BLACK
6
CONTINUOUS
10
2.21709
20
0.934606
11
2.21695
21
0.93472
0
LINE
8
BLACK
6
CONTINUOUS
10
2.21695
20
0.93472
11
2.21677
21
0.93474
0
LINE
8
BLACK
6
CONTINUOUS
10
2.21677
20
0.93474
11
2.21201
21
0.937121
0
LINE
8
BLACK
6
CONTINUOUS
10
2.21201
20
0.937121
11
2.2113
21
0.937647
0
LINE
8
BLACK
6
CONTINUOUS
10
2.2113
20
0.937647
11
2.21125
21
0.937674
0
LINE
8
BLACK
6
CONTINUOUS
10
2.21125
20
0.937674
11
2.20886
21
0.940055
0
LINE
8
BLACK
6
CONTINUOUS
10
2.20886
20
0.940055
11
2.20836
21
0.940778
0
LINE
8
BLACK
6
CONTINUOUS
10
2.20836
20
0.940778
11
2.20831
21
0.940822
0
LINE
8
BLACK
6
CONTINUOUS
10
2.20831
20
0.940822
11
2.20593
21
0.945584
0
LINE
8
BLACK
6
CONTINUOUS
10
2.20593
20
0.945584
11
2.20564
21
0.946567
0
LINE
8
BLACK
6
CONTINUOUS
10
2.20564
20
0.946567
11
2.20568
21
0.946739
0
LINE
8
BLACK
6
CONTINUOUS
10
2.20568
20
0.946739
11
2.20562
21
0.946905
0
LINE
8
BLACK
6
CONTINUOUS
10
2.20562
20
0.946905
11
2.20562
21
0.956429
0
LINE
8
BLACK
6
CONTINUOUS
10
2.20562
20
0.956429
11
2.2058
21
0.957438
0
LINE
8
BLACK
6
CONTINUOUS
10
2.2058
20
0.957438
11
2.20591
21
0.957574
0
LINE
8
BLACK
6
CONTINUOUS
10
2.20591
20
0.957574
11
2.20593
21
0.957749
0
LINE
8
BLACK
6
CONTINUOUS
10
2.20593
20
0.957749
11
2.20831
21
0.962511
0
LINE
8
BLACK
6
CONTINUOUS
10
2.20831
20
0.962511
11
2.20884
21
0.96322
0
LINE
8
BLACK
6
CONTINUOUS
10
2.20884
20
0.96322
11
2.20886
21
0.963278
0
LINE
8
BLACK
6
CONTINUOUS
10
2.20886
20
0.963278
11
2.21125
21
0.965659
0
LINE
8
BLACK
6
CONTINUOUS
10
2.21125
20
0.965659
11
2.21166
21
0.965952
0
LINE
8
BLACK
6
CONTINUOUS
10
2.21166
20
0.965952
11
2.2113
21
0.966218
0
LINE
8
BLACK
6
CONTINUOUS
10
2.2113
20
0.966218
11
2.21125
21
0.966245
0
LINE
8
BLACK
6
CONTINUOUS
10
2.21125
20
0.966245
11
2.20886
21
0.968626
0
LINE
8
BLACK
6
CONTINUOUS
10
2.20886
20
0.968626
11
2.20836
21
0.96935
0
LINE
8
BLACK
6
CONTINUOUS
10
2.20836
20
0.96935
11
2.20831
21
0.969394
0
LINE
8
BLACK
6
CONTINUOUS
10
2.20831
20
0.969394
11
2.20593
21
0.974156
0
LINE
8
BLACK
6
CONTINUOUS
10
2.20593
20
0.974156
11
2.20564
21
0.975139
0
LINE
8
BLACK
6
CONTINUOUS
10
2.20564
20
0.975139
11
2.20568
21
0.97531
0
LINE
8
BLACK
6
CONTINUOUS
10
2.20568
20
0.97531
11
2.20562
21
0.975476
0
LINE
8
BLACK
6
CONTINUOUS
10
2.20562
20
0.975476
11
2.20562
21
0.977857
0
LINE
8
BLACK
6
CONTINUOUS
10
2.20562
20
0.977857
11
2.2058
21
0.978867
0
LINE
8
BLACK
6
CONTINUOUS
10
2.2058
20
0.978867
11
2.20591
21
0.979002
0
LINE
8
BLACK
6
CONTINUOUS
10
2.20591
20
0.979002
11
2.20593
21
0.979178
0
LINE
8
BLACK
6
CONTINUOUS
10
2.20593
20
0.979178
11
2.20831
21
0.98394
0
LINE
8
BLACK
6
CONTINUOUS
10
2.20831
20
0.98394
11
2.20884
21
0.984649
0
LINE
8
BLACK
6
CONTINUOUS
10
2.20884
20
0.984649
11
2.20886
21
0.984707
0
LINE
8
BLACK
6
CONTINUOUS
10
2.20886
20
0.984707
11
2.21125
21
0.987088
0
LINE
8
BLACK
6
CONTINUOUS
10
2.21125
20
0.987088
11
2.21197
21
0.987594
0
LINE
8
BLACK
6
CONTINUOUS
10
2.21197
20
0.987594
11
2.21201
21
0.987641
0
LINE
8
BLACK
6
CONTINUOUS
10
2.21201
20
0.987641
11
2.21677
21
0.990022
0
LINE
8
BLACK
6
CONTINUOUS
10
2.21677
20
0.990022
11
2.21776
21
0.990314
0
LINE
8
BLACK
6
CONTINUOUS
10
2.21776
20
0.990314
11
2.21793
21
0.990273
0
LINE
8
BLACK
6
CONTINUOUS
10
2.21793
20
0.990273
11
2.2181
21
0.990334
0
LINE
8
BLACK
6
CONTINUOUS
10
2.2181
20
0.990334
11
2.22762
21
0.990334
0
LINE
8
BLACK
6
CONTINUOUS
10
2.22762
20
0.990334
11
2.22863
21
0.990156
0
LINE
8
BLACK
6
CONTINUOUS
10
2.21879
20
0.963
11
2.21508
21
0.961145
0
LINE
8
BLACK
6
CONTINUOUS
10
2.21508
20
0.961145
11
2.21338
21
0.959441
0
LINE
8
BLACK
6
CONTINUOUS
10
2.21338
20
0.959441
11
2.21152
21
0.955731
0
LINE
8
BLACK
6
CONTINUOUS
10
2.21152
20
0.955731
11
2.21152
21
0.947602
0
LINE
8
BLACK
6
CONTINUOUS
10
2.21152
20
0.947602
11
2.21338
21
0.943892
0
LINE
8
BLACK
6
CONTINUOUS
10
2.21338
20
0.943892
11
2.21508
21
0.942189
0
LINE
8
BLACK
6
CONTINUOUS
10
2.21508
20
0.942189
11
2.21879
21
0.940334
0
LINE
8
BLACK
6
CONTINUOUS
10
2.21879
20
0.940334
11
2.22692
21
0.940334
0
LINE
8
BLACK
6
CONTINUOUS
10
2.22692
20
0.940334
11
2.23063
21
0.942189
0
LINE
8
BLACK
6
CONTINUOUS
10
2.23063
20
0.942189
11
2.23234
21
0.943892
0
LINE
8
BLACK
6
CONTINUOUS
10
2.23234
20
0.943892
11
2.23419
21
0.947602
0
LINE
8
BLACK
6
CONTINUOUS
10
2.23419
20
0.947602
11
2.23419
21
0.955732
0
LINE
8
BLACK
6
CONTINUOUS
10
2.23419
20
0.955732
11
2.23234
21
0.959441
0
LINE
8
BLACK
6
CONTINUOUS
10
2.23234
20
0.959441
11
2.23063
21
0.961145
0
LINE
8
BLACK
6
CONTINUOUS
10
2.23063
20
0.961145
11
2.22692
21
0.963
0
LINE
8
BLACK
6
CONTINUOUS
10
2.22692
20
0.963
11
2.21879
21
0.963
0
LINE
8
BLACK
6
CONTINUOUS
10
2.21879
20
0.984428
11
2.21508
21
0.982573
0
LINE
8
BLACK
6
CONTINUOUS
10
2.21508
20
0.982573
11
2.21338
21
0.98087
0
LINE
8
BLACK
6
CONTINUOUS
10
2.21338
20
0.98087
11
2.21152
21
0.97716
0
LINE
8
BLACK
6
CONTINUOUS
10
2.21152
20
0.97716
11
2.21152
21
0.976173
0
LINE
8
BLACK
6
CONTINUOUS
10
2.21152
20
0.976173
11
2.21338
21
0.972463
0
LINE
8
BLACK
6
CONTINUOUS
10
2.21338
20
0.972463
11
2.21508
21
0.97076
0
LINE
8
BLACK
6
CONTINUOUS
10
2.21508
20
0.97076
11
2.21879
21
0.968905
0
LINE
8
BLACK
6
CONTINUOUS
10
2.21879
20
0.968905
11
2.22692
21
0.968905
0
LINE
8
BLACK
6
CONTINUOUS
10
2.22692
20
0.968905
11
2.23063
21
0.97076
0
LINE
8
BLACK
6
CONTINUOUS
10
2.23063
20
0.97076
11
2.23234
21
0.972463
0
LINE
8
BLACK
6
CONTINUOUS
10
2.23234
20
0.972463
11
2.23419
21
0.976173
0
LINE
8
BLACK
6
CONTINUOUS
10
2.23419
20
0.976173
11
2.23419
21
0.97716
0
LINE
8
BLACK
6
CONTINUOUS
10
2.23419
20
0.97716
11
2.23234
21
0.98087
0
LINE
8
BLACK
6
CONTINUOUS
10
2.23234
20
0.98087
11
2.23063
21
0.982573
0
LINE
8
BLACK
6
CONTINUOUS
10
2.23063
20
0.982573
11
2.22692
21
0.984428
0
LINE
8
BLACK
6
CONTINUOUS
10
2.22692
20
0.984428
11
2.21879
21
0.984428
0
LINE
8
BLACK
6
CONTINUOUS
10
0.399236
20
1.13555
11
0.400784
21
1.13425
0
LINE
8
BLACK
6
CONTINUOUS
10
0.400784
20
1.13425
11
0.401134
21
1.13226
0
LINE
8
BLACK
6
CONTINUOUS
10
0.401134
20
1.13226
11
0.400124
21
1.13051
0
LINE
8
BLACK
6
CONTINUOUS
10
0.400124
20
1.13051
11
0.398226
21
1.12982
0
LINE
8
BLACK
6
CONTINUOUS
10
0.398226
20
1.12982
11
0.36823
21
1.12982
0
LINE
8
BLACK
6
CONTINUOUS
10
0.36823
20
1.12982
11
0.36722
21
1.13
0
LINE
8
BLACK
6
CONTINUOUS
10
0.36722
20
1.13
11
0.365673
21
1.13129
0
LINE
8
BLACK
6
CONTINUOUS
10
0.365673
20
1.13129
11
0.365322
21
1.13328
0
LINE
8
BLACK
6
CONTINUOUS
10
0.365322
20
1.13328
11
0.366332
21
1.13503
0
LINE
8
BLACK
6
CONTINUOUS
10
0.366332
20
1.13503
11
0.36823
21
1.13572
0
LINE
8
BLACK
6
CONTINUOUS
10
0.36823
20
1.13572
11
0.398226
21
1.13572
0
LINE
8
BLACK
6
CONTINUOUS
10
0.398226
20
1.13572
11
0.399236
21
1.13555
0
LINE
8
BLACK
6
CONTINUOUS
10
0.316606
20
1.17869
11
0.316671
21
1.17869
0
LINE
8
BLACK
6
CONTINUOUS
10
0.316671
20
1.17869
11
0.322295
21
1.17682
0
LINE
8
BLACK
6
CONTINUOUS
10
0.322295
20
1.17682
11
0.323197
21
1.17633
0
LINE
8
BLACK
6
CONTINUOUS
10
0.323197
20
1.17633
11
0.324254
21
1.17461
0
LINE
8
BLACK
6
CONTINUOUS
10
0.324254
20
1.17461
11
0.323958
21
1.17261
0
LINE
8
BLACK
6
CONTINUOUS
10
0.323958
20
1.17261
11
0.322446
21
1.17127
0
LINE
8
BLACK
6
CONTINUOUS
10
0.322446
20
1.17127
11
0.320427
21
1.17121
0
LINE
8
BLACK
6
CONTINUOUS
10
0.320427
20
1.17121
11
0.315258
21
1.17294
0
LINE
8
BLACK
6
CONTINUOUS
10
0.315258
20
1.17294
11
0.30706
21
1.17294
0
LINE
8
BLACK
6
CONTINUOUS
10
0.30706
20
1.17294
11
0.304362
21
1.17159
0
LINE
8
BLACK
6
CONTINUOUS
10
0.304362
20
1.17159
11
0.303165
21
1.17039
0
LINE
8
BLACK
6
CONTINUOUS
10
0.303165
20
1.17039
11
0.301817
21
1.16769
0
LINE
8
BLACK
6
CONTINUOUS
10
0.301817
20
1.16769
11
0.301817
21
1.16534
0
LINE
8
BLACK
6
CONTINUOUS
10
0.301817
20
1.16534
11
0.303165
21
1.16264
0
LINE
8
BLACK
6
CONTINUOUS
10
0.303165
20
1.16264
11
0.304362
21
1.16144
0
LINE
8
BLACK
6
CONTINUOUS
10
0.304362
20
1.16144
11
0.307394
21
1.15993
0
LINE
8
BLACK
6
CONTINUOUS
10
0.307394
20
1.15993
11
0.314578
21
1.15813
0
LINE
8
BLACK
6
CONTINUOUS
10
0.314578
20
1.15813
11
0.315044
21
1.15793
0
LINE
8
BLACK
6
CONTINUOUS
10
0.315044
20
1.15793
11
0.315183
21
1.15791
0
LINE
8
BLACK
6
CONTINUOUS
10
0.315183
20
1.15791
11
0.318932
21
1.15603
0
LINE
8
BLACK
6
CONTINUOUS
10
0.318932
20
1.15603
11
0.319641
21
1.15551
0
LINE
8
BLACK
6
CONTINUOUS
10
0.319641
20
1.15551
11
0.319699
21
1.15548
0
LINE
8
BLACK
6
CONTINUOUS
10
0.319699
20
1.15548
11
0.321574
21
1.15361
0
LINE
8
BLACK
6
CONTINUOUS
10
0.321574
20
1.15361
11
0.322081
21
1.15288
0
LINE
8
BLACK
6
CONTINUOUS
10
0.322081
20
1.15288
11
0.322127
21
1.15284
0
LINE
8
BLACK
6
CONTINUOUS
10
0.322127
20
1.15284
11
0.324002
21
1.14909
0
LINE
8
BLACK
6
CONTINUOUS
10
0.324002
20
1.14909
11
0.324294
21
1.14811
0
LINE
8
BLACK
6
CONTINUOUS
10
0.324294
20
1.14811
11
0.324253
21
1.14793
0
LINE
8
BLACK
6
CONTINUOUS
10
0.324253
20
1.14793
11
0.324314
21
1.14777
0
LINE
8
BLACK
6
CONTINUOUS
10
0.324314
20
1.14777
11
0.324314
21
1.14402
0
LINE
8
BLACK
6
CONTINUOUS
10
0.324314
20
1.14402
11
0.324136
21
1.14301
0
LINE
8
BLACK
6
CONTINUOUS
10
0.324136
20
1.14301
11
0.324022
21
1.14287
0
LINE
8
BLACK
6
CONTINUOUS
10
0.324022
20
1.14287
11
0.324002
21
1.1427
0
LINE
8
BLACK
6
CONTINUOUS
10
0.324002
20
1.1427
11
0.322127
21
1.13895
0
LINE
8
BLACK
6
CONTINUOUS
10
0.322127
20
1.13895
11
0.321601
21
1.13824
0
LINE
8
BLACK
6
CONTINUOUS
10
0.321601
20
1.13824
11
0.321574
21
1.13818
0
LINE
8
BLACK
6
CONTINUOUS
10
0.321574
20
1.13818
11
0.319699
21
1.13631
0
LINE
8
BLACK
6
CONTINUOUS
10
0.319699
20
1.13631
11
0.318976
21
1.1358
0
LINE
8
BLACK
6
CONTINUOUS
10
0.318976
20
1.1358
11
0.318932
21
1.13575
0
LINE
8
BLACK
6
CONTINUOUS
10
0.318932
20
1.13575
11
0.315183
21
1.13388
0
LINE
8
BLACK
6
CONTINUOUS
10
0.315183
20
1.13388
11
0.3142
21
1.13359
0
LINE
8
BLACK
6
CONTINUOUS
10
0.3142
20
1.13359
11
0.314028
21
1.13363
0
LINE
8
BLACK
6
CONTINUOUS
10
0.314028
20
1.13363
11
0.313862
21
1.13357
0
LINE
8
BLACK
6
CONTINUOUS
10
0.313862
20
1.13357
11
0.304488
21
1.13357
0
LINE
8
BLACK
6
CONTINUOUS
10
0.304488
20
1.13357
11
0.303619
21
1.13372
0
LINE
8
BLACK
6
CONTINUOUS
10
0.303619
20
1.13372
11
0.303554
21
1.13372
0
LINE
8
BLACK
6
CONTINUOUS
10
0.303554
20
1.13372
11
0.29793
21
1.13559
0
LINE
8
BLACK
6
CONTINUOUS
10
0.29793
20
1.13559
11
0.297028
21
1.13608
0
LINE
8
BLACK
6
CONTINUOUS
10
0.297028
20
1.13608
11
0.295971
21
1.1378
0
LINE
8
BLACK
6
CONTINUOUS
10
0.295971
20
1.1378
11
0.296267
21
1.1398
0
LINE
8
BLACK
6
CONTINUOUS
10
0.296267
20
1.1398
11
0.297779
21
1.14114
0
LINE
8
BLACK
6
CONTINUOUS
10
0.297779
20
1.14114
11
0.299798
21
1.1412
0
LINE
8
BLACK
6
CONTINUOUS
10
0.299798
20
1.1412
11
0.304967
21
1.13947
0
LINE
8
BLACK
6
CONTINUOUS
10
0.304967
20
1.13947
11
0.313165
21
1.13947
0
LINE
8
BLACK
6
CONTINUOUS
10
0.313165
20
1.13947
11
0.315862
21
1.14082
0
LINE
8
BLACK
6
CONTINUOUS
10
0.315862
20
1.14082
11
0.31706
21
1.14202
0
LINE
8
BLACK
6
CONTINUOUS
10
0.31706
20
1.14202
11
0.318408
21
1.14472
0
LINE
8
BLACK
6
CONTINUOUS
10
0.318408
20
1.14472
11
0.318408
21
1.14707
0
LINE
8
BLACK
6
CONTINUOUS
10
0.318408
20
1.14707
11
0.31706
21
1.14977
0
LINE
8
BLACK
6
CONTINUOUS
10
0.31706
20
1.14977
11
0.315862
21
1.15097
0
LINE
8
BLACK
6
CONTINUOUS
10
0.315862
20
1.15097
11
0.312831
21
1.15248
0
LINE
8
BLACK
6
CONTINUOUS
10
0.312831
20
1.15248
11
0.305647
21
1.15428
0
LINE
8
BLACK
6
CONTINUOUS
10
0.305647
20
1.15428
11
0.305181
21
1.15449
0
LINE
8
BLACK
6
CONTINUOUS
10
0.305181
20
1.15449
11
0.305042
21
1.1545
0
LINE
8
BLACK
6
CONTINUOUS
10
0.305042
20
1.1545
11
0.301293
21
1.15638
0
LINE
8
BLACK
6
CONTINUOUS
10
0.301293
20
1.15638
11
0.300584
21
1.1569
0
LINE
8
BLACK
6
CONTINUOUS
10
0.300584
20
1.1569
11
0.300525
21
1.15693
0
LINE
8
BLACK
6
CONTINUOUS
10
0.300525
20
1.15693
11
0.298651
21
1.1588
0
LINE
8
BLACK
6
CONTINUOUS
10
0.298651
20
1.1588
11
0.298144
21
1.15953
0
LINE
8
BLACK
6
CONTINUOUS
10
0.298144
20
1.15953
11
0.298098
21
1.15957
0
LINE
8
BLACK
6
CONTINUOUS
10
0.298098
20
1.15957
11
0.296223
21
1.16332
0
LINE
8
BLACK
6
CONTINUOUS
10
0.296223
20
1.16332
11
0.29593
21
1.1643
0
LINE
8
BLACK
6
CONTINUOUS
10
0.29593
20
1.1643
11
0.295971
21
1.16448
0
LINE
8
BLACK
6
CONTINUOUS
10
0.295971
20
1.16448
11
0.295911
21
1.16464
0
LINE
8
BLACK
6
CONTINUOUS
10
0.295911
20
1.16464
11
0.295911
21
1.16839
0
LINE
8
BLACK
6
CONTINUOUS
10
0.295911
20
1.16839
11
0.296089
21
1.1694
0
LINE
8
BLACK
6
CONTINUOUS
10
0.296089
20
1.1694
11
0.296203
21
1.16954
0
LINE
8
BLACK
6
CONTINUOUS
10
0.296203
20
1.16954
11
0.296223
21
1.16971
0
LINE
8
BLACK
6
CONTINUOUS
10
0.296223
20
1.16971
11
0.298098
21
1.17346
0
LINE
8
BLACK
6
CONTINUOUS
10
0.298098
20
1.17346
11
0.298623
21
1.17417
0
LINE
8
BLACK
6
CONTINUOUS
10
0.298623
20
1.17417
11
0.298651
21
1.17423
0
LINE
8
BLACK
6
CONTINUOUS
10
0.298651
20
1.17423
11
0.300525
21
1.1761
0
LINE
8
BLACK
6
CONTINUOUS
10
0.300525
20
1.1761
11
0.301249
21
1.17661
0
LINE
8
BLACK
6
CONTINUOUS
10
0.301249
20
1.17661
11
0.301293
21
1.17666
0
LINE
8
BLACK
6
CONTINUOUS
10
0.301293
20
1.17666
11
0.305042
21
1.17853
0
LINE
8
BLACK
6
CONTINUOUS
10
0.305042
20
1.17853
11
0.306025
21
1.17882
0
LINE
8
BLACK
6
CONTINUOUS
10
0.306025
20
1.17882
11
0.306197
21
1.17878
0
LINE
8
BLACK
6
CONTINUOUS
10
0.306197
20
1.17878
11
0.306363
21
1.17884
0
LINE
8
BLACK
6
CONTINUOUS
10
0.306363
20
1.17884
11
0.315737
21
1.17884
0
LINE
8
BLACK
6
CONTINUOUS
10
0.315737
20
1.17884
11
0.316606
21
1.17869
0
LINE
8
BLACK
6
CONTINUOUS
10
0.284253
20
1.17779
11
0.284944
21
1.17589
0
LINE
8
BLACK
6
CONTINUOUS
10
0.284944
20
1.17589
11
0.284944
21
1.14402
0
LINE
8
BLACK
6
CONTINUOUS
10
0.284944
20
1.14402
11
0.284766
21
1.14301
0
LINE
8
BLACK
6
CONTINUOUS
10
0.284766
20
1.14301
11
0.284652
21
1.14287
0
LINE
8
BLACK
6
CONTINUOUS
10
0.284652
20
1.14287
11
0.284632
21
1.1427
0
LINE
8
BLACK
6
CONTINUOUS
10
0.284632
20
1.1427
11
0.282757
21
1.13895
0
LINE
8
BLACK
6
CONTINUOUS
10
0.282757
20
1.13895
11
0.282231
21
1.13824
0
LINE
8
BLACK
6
CONTINUOUS
10
0.282231
20
1.13824
11
0.282204
21
1.13818
0
LINE
8
BLACK
6
CONTINUOUS
10
0.282204
20
1.13818
11
0.280329
21
1.13631
0
LINE
8
BLACK
6
CONTINUOUS
10
0.280329
20
1.13631
11
0.279606
21
1.1358
0
LINE
8
BLACK
6
CONTINUOUS
10
0.279606
20
1.1358
11
0.279562
21
1.13575
0
LINE
8
BLACK
6
CONTINUOUS
10
0.279562
20
1.13575
11
0.275812
21
1.13388
0
LINE
8
BLACK
6
CONTINUOUS
10
0.275812
20
1.13388
11
0.274829
21
1.13359
0
LINE
8
BLACK
6
CONTINUOUS
10
0.274829
20
1.13359
11
0.274658
21
1.13363
0
LINE
8
BLACK
6
CONTINUOUS
10
0.274658
20
1.13363
11
0.274492
21
1.13357
0
LINE
8
BLACK
6
CONTINUOUS
10
0.274492
20
1.13357
11
0.266993
21
1.13357
0
LINE
8
BLACK
6
CONTINUOUS
10
0.266993
20
1.13357
11
0.265983
21
1.13375
0
LINE
8
BLACK
6
CONTINUOUS
10
0.265983
20
1.13375
11
0.265848
21
1.13386
0
LINE
8
BLACK
6
CONTINUOUS
10
0.265848
20
1.13386
11
0.265672
21
1.13388
0
LINE
8
BLACK
6
CONTINUOUS
10
0.265672
20
1.13388
11
0.261923
21
1.13575
0
LINE
8
BLACK
6
CONTINUOUS
10
0.261923
20
1.13575
11
0.261214
21
1.13628
0
LINE
8
BLACK
6
CONTINUOUS
10
0.261214
20
1.13628
11
0.261155
21
1.13631
0
LINE
8
BLACK
6
CONTINUOUS
10
0.261155
20
1.13631
11
0.259281
21
1.13818
0
LINE
8
BLACK
6
CONTINUOUS
10
0.259281
20
1.13818
11
0.258774
21
1.13891
0
LINE
8
BLACK
6
CONTINUOUS
10
0.258774
20
1.13891
11
0.258728
21
1.13895
0
LINE
8
BLACK
6
CONTINUOUS
10
0.258728
20
1.13895
11
0.256853
21
1.1427
0
LINE
8
BLACK
6
CONTINUOUS
10
0.256853
20
1.1427
11
0.25656
21
1.14368
0
LINE
8
BLACK
6
CONTINUOUS
10
0.25656
20
1.14368
11
0.256601
21
1.14385
0
LINE
8
BLACK
6
CONTINUOUS
10
0.256601
20
1.14385
11
0.256541
21
1.14402
0
LINE
8
BLACK
6
CONTINUOUS
10
0.256541
20
1.14402
11
0.256541
21
1.17589
0
LINE
8
BLACK
6
CONTINUOUS
10
0.256541
20
1.17589
11
0.256719
21
1.1769
0
LINE
8
BLACK
6
CONTINUOUS
10
0.256719
20
1.1769
11
0.258017
21
1.17845
0
LINE
8
BLACK
6
CONTINUOUS
10
0.258017
20
1.17845
11
0.260007
21
1.1788
0
LINE
8
BLACK
6
CONTINUOUS
10
0.260007
20
1.1788
11
0.261756
21
1.17779
0
LINE
8
BLACK
6
CONTINUOUS
10
0.261756
20
1.17779
11
0.262447
21
1.17589
0
LINE
8
BLACK
6
CONTINUOUS
10
0.262447
20
1.17589
11
0.262447
21
1.14472
0
LINE
8
BLACK
6
CONTINUOUS
10
0.262447
20
1.14472
11
0.263795
21
1.14202
0
LINE
8
BLACK
6
CONTINUOUS
10
0.263795
20
1.14202
11
0.264992
21
1.14082
0
LINE
8
BLACK
6
CONTINUOUS
10
0.264992
20
1.14082
11
0.26769
21
1.13947
0
LINE
8
BLACK
6
CONTINUOUS
10
0.26769
20
1.13947
11
0.273795
21
1.13947
0
LINE
8
BLACK
6
CONTINUOUS
10
0.273795
20
1.13947
11
0.276492
21
1.14082
0
LINE
8
BLACK
6
CONTINUOUS
10
0.276492
20
1.14082
11
0.277689
21
1.14202
0
LINE
8
BLACK
6
CONTINUOUS
10
0.277689
20
1.14202
11
0.279038
21
1.14472
0
LINE
8
BLACK
6
CONTINUOUS
10
0.279038
20
1.14472
11
0.279038
21
1.17589
0
LINE
8
BLACK
6
CONTINUOUS
10
0.279038
20
1.17589
11
0.279216
21
1.1769
0
LINE
8
BLACK
6
CONTINUOUS
10
0.279216
20
1.1769
11
0.280515
21
1.17845
0
LINE
8
BLACK
6
CONTINUOUS
10
0.280515
20
1.17845
11
0.282504
21
1.1788
0
LINE
8
BLACK
6
CONTINUOUS
10
0.282504
20
1.1788
11
0.284253
21
1.17779
0
LINE
8
BLACK
6
CONTINUOUS
10
0.352367
20
1.17867
11
0.352502
21
1.17855
0
LINE
8
BLACK
6
CONTINUOUS
10
0.352502
20
1.17855
11
0.352678
21
1.17853
0
LINE
8
BLACK
6
CONTINUOUS
10
0.352678
20
1.17853
11
0.356427
21
1.17666
0
LINE
8
BLACK
6
CONTINUOUS
10
0.356427
20
1.17666
11
0.357136
21
1.17613
0
LINE
8
BLACK
6
CONTINUOUS
10
0.357136
20
1.17613
11
0.357195
21
1.1761
0
LINE
8
BLACK
6
CONTINUOUS
10
0.357195
20
1.1761
11
0.35907
21
1.17423
0
LINE
8
BLACK
6
CONTINUOUS
10
0.35907
20
1.17423
11
0.359576
21
1.17351
0
LINE
8
BLACK
6
CONTINUOUS
10
0.359576
20
1.17351
11
0.359623
21
1.17346
0
LINE
8
BLACK
6
CONTINUOUS
10
0.359623
20
1.17346
11
0.361497
21
1.16971
0
LINE
8
BLACK
6
CONTINUOUS
10
0.361497
20
1.16971
11
0.36179
21
1.16873
0
LINE
8
BLACK
6
CONTINUOUS
10
0.36179
20
1.16873
11
0.361749
21
1.16856
0
LINE
8
BLACK
6
CONTINUOUS
10
0.361749
20
1.16856
11
0.361809
21
1.16839
0
LINE
8
BLACK
6
CONTINUOUS
10
0.361809
20
1.16839
11
0.361809
21
1.16464
0
LINE
8
BLACK
6
CONTINUOUS
10
0.361809
20
1.16464
11
0.361631
21
1.16363
0
LINE
8
BLACK
6
CONTINUOUS
10
0.361631
20
1.16363
11
0.361518
21
1.1635
0
LINE
8
BLACK
6
CONTINUOUS
10
0.361518
20
1.1635
11
0.361497
21
1.16332
0
LINE
8
BLACK
6
CONTINUOUS
10
0.361497
20
1.16332
11
0.359623
21
1.15957
0
LINE
8
BLACK
6
CONTINUOUS
10
0.359623
20
1.15957
11
0.359097
21
1.15886
0
LINE
8
BLACK
6
CONTINUOUS
10
0.359097
20
1.15886
11
0.35907
21
1.1588
0
LINE
8
BLACK
6
CONTINUOUS
10
0.35907
20
1.1588
11
0.358187
21
1.15792
0
LINE
8
BLACK
6
CONTINUOUS
10
0.358187
20
1.15792
11
0.358817
21
1.15758
0
LINE
8
BLACK
6
CONTINUOUS
10
0.358817
20
1.15758
11
0.35891
21
1.15743
0
LINE
8
BLACK
6
CONTINUOUS
10
0.35891
20
1.15743
11
0.35907
21
1.15736
0
LINE
8
BLACK
6
CONTINUOUS
10
0.35907
20
1.15736
11
0.360944
21
1.15548
0
LINE
8
BLACK
6
CONTINUOUS
10
0.360944
20
1.15548
11
0.361451
21
1.15476
0
LINE
8
BLACK
6
CONTINUOUS
10
0.361451
20
1.15476
11
0.361497
21
1.15471
0
LINE
8
BLACK
6
CONTINUOUS
10
0.361497
20
1.15471
11
0.363372
21
1.15096
0
LINE
8
BLACK
6
CONTINUOUS
10
0.363372
20
1.15096
11
0.363665
21
1.14998
0
LINE
8
BLACK
6
CONTINUOUS
10
0.363665
20
1.14998
11
0.363624
21
1.14981
0
LINE
8
BLACK
6
CONTINUOUS
10
0.363624
20
1.14981
11
0.363684
21
1.14964
0
LINE
8
BLACK
6
CONTINUOUS
10
0.363684
20
1.14964
11
0.363684
21
1.14402
0
LINE
8
BLACK
6
CONTINUOUS
10
0.363684
20
1.14402
11
0.363506
21
1.14301
0
LINE
8
BLACK
6
CONTINUOUS
10
0.363506
20
1.14301
11
0.363392
21
1.14287
0
LINE
8
BLACK
6
CONTINUOUS
10
0.363392
20
1.14287
11
0.363372
21
1.1427
0
LINE
8
BLACK
6
CONTINUOUS
10
0.363372
20
1.1427
11
0.361497
21
1.13895
0
LINE
8
BLACK
6
CONTINUOUS
10
0.361497
20
1.13895
11
0.360971
21
1.13824
0
LINE
8
BLACK
6
CONTINUOUS
10
0.360971
20
1.13824
11
0.360944
21
1.13818
0
LINE
8
BLACK
6
CONTINUOUS
10
0.360944
20
1.13818
11
0.35907
21
1.13631
0
LINE
8
BLACK
6
CONTINUOUS
10
0.35907
20
1.13631
11
0.358346
21
1.1358
0
LINE
8
BLACK
6
CONTINUOUS
10
0.358346
20
1.1358
11
0.358302
21
1.13575
0
LINE
8
BLACK
6
CONTINUOUS
10
0.358302
20
1.13575
11
0.354553
21
1.13388
0
LINE
8
BLACK
6
CONTINUOUS
10
0.354553
20
1.13388
11
0.35357
21
1.13359
0
LINE
8
BLACK
6
CONTINUOUS
10
0.35357
20
1.13359
11
0.353398
21
1.13363
0
LINE
8
BLACK
6
CONTINUOUS
10
0.353398
20
1.13363
11
0.353232
21
1.13357
0
LINE
8
BLACK
6
CONTINUOUS
10
0.353232
20
1.13357
11
0.338234
21
1.13357
0
LINE
8
BLACK
6
CONTINUOUS
10
0.338234
20
1.13357
11
0.33785
21
1.13364
0
LINE
8
BLACK
6
CONTINUOUS
10
0.33785
20
1.13364
11
0.337721
21
1.13361
0
LINE
8
BLACK
6
CONTINUOUS
10
0.337721
20
1.13361
11
0.337608
21
1.13368
0
LINE
8
BLACK
6
CONTINUOUS
10
0.337608
20
1.13368
11
0.337224
21
1.13375
0
LINE
8
BLACK
6
CONTINUOUS
10
0.337224
20
1.13375
11
0.336636
21
1.13424
0
LINE
8
BLACK
6
CONTINUOUS
10
0.336636
20
1.13424
11
0.335972
21
1.13462
0
LINE
8
BLACK
6
CONTINUOUS
10
0.335972
20
1.13462
11
0.335881
21
1.13487
0
LINE
8
BLACK
6
CONTINUOUS
10
0.335881
20
1.13487
11
0.335677
21
1.13504
0
LINE
8
BLACK
6
CONTINUOUS
10
0.335677
20
1.13504
11
0.335544
21
1.1358
0
LINE
8
BLACK
6
CONTINUOUS
10
0.335544
20
1.1358
11
0.335281
21
1.13652
0
LINE
8
BLACK
6
CONTINUOUS
10
0.335281
20
1.13652
11
0.335281
21
1.17589
0
LINE
8
BLACK
6
CONTINUOUS
10
0.335281
20
1.17589
11
0.335349
21
1.17627
0
LINE
8
BLACK
6
CONTINUOUS
10
0.335349
20
1.17627
11
0.335326
21
1.1764
0
LINE
8
BLACK
6
CONTINUOUS
10
0.335326
20
1.1764
11
0.335392
21
1.17652
0
LINE
8
BLACK
6
CONTINUOUS
10
0.335392
20
1.17652
11
0.335459
21
1.1769
0
LINE
8
BLACK
6
CONTINUOUS
10
0.335459
20
1.1769
11
0.335952
21
1.17749
0
LINE
8
BLACK
6
CONTINUOUS
10
0.335952
20
1.17749
11
0.336336
21
1.17815
0
LINE
8
BLACK
6
CONTINUOUS
10
0.336336
20
1.17815
11
0.336586
21
1.17824
0
LINE
8
BLACK
6
CONTINUOUS
10
0.336586
20
1.17824
11
0.336758
21
1.17845
0
LINE
8
BLACK
6
CONTINUOUS
10
0.336758
20
1.17845
11
0.337513
21
1.17858
0
LINE
8
BLACK
6
CONTINUOUS
10
0.337513
20
1.17858
11
0.338234
21
1.17884
0
LINE
8
BLACK
6
CONTINUOUS
10
0.338234
20
1.17884
11
0.351357
21
1.17884
0
LINE
8
BLACK
6
CONTINUOUS
10
0.351357
20
1.17884
11
0.352367
21
1.17867
0
LINE
8
BLACK
6
CONTINUOUS
10
0.341187
20
1.15419
11
0.341187
21
1.13947
0
LINE
8
BLACK
6
CONTINUOUS
10
0.341187
20
1.13947
11
0.352535
21
1.13947
0
LINE
8
BLACK
6
CONTINUOUS
10
0.352535
20
1.13947
11
0.355233
21
1.14082
0
LINE
8
BLACK
6
CONTINUOUS
10
0.355233
20
1.14082
11
0.35643
21
1.14202
0
LINE
8
BLACK
6
CONTINUOUS
10
0.35643
20
1.14202
11
0.357778
21
1.14472
0
LINE
8
BLACK
6
CONTINUOUS
10
0.357778
20
1.14472
11
0.357778
21
1.14895
0
LINE
8
BLACK
6
CONTINUOUS
10
0.357778
20
1.14895
11
0.35643
21
1.15164
0
LINE
8
BLACK
6
CONTINUOUS
10
0.35643
20
1.15164
11
0.355387
21
1.15269
0
LINE
8
BLACK
6
CONTINUOUS
10
0.355387
20
1.15269
11
0.350878
21
1.15419
0
LINE
8
BLACK
6
CONTINUOUS
10
0.350878
20
1.15419
11
0.341187
21
1.15419
0
LINE
8
BLACK
6
CONTINUOUS
10
0.341187
20
1.17294
11
0.341187
21
1.1601
0
LINE
8
BLACK
6
CONTINUOUS
10
0.341187
20
1.1601
11
0.35066
21
1.1601
0
LINE
8
BLACK
6
CONTINUOUS
10
0.35066
20
1.1601
11
0.353358
21
1.16144
0
LINE
8
BLACK
6
CONTINUOUS
10
0.353358
20
1.16144
11
0.354555
21
1.16264
0
LINE
8
BLACK
6
CONTINUOUS
10
0.354555
20
1.16264
11
0.355904
21
1.16534
0
LINE
8
BLACK
6
CONTINUOUS
10
0.355904
20
1.16534
11
0.355904
21
1.16769
0
LINE
8
BLACK
6
CONTINUOUS
10
0.355904
20
1.16769
11
0.354555
21
1.17039
0
LINE
8
BLACK
6
CONTINUOUS
10
0.354555
20
1.17039
11
0.353358
21
1.17159
0
LINE
8
BLACK
6
CONTINUOUS
10
0.353358
20
1.17159
11
0.35066
21
1.17294
0
LINE
8
BLACK
6
CONTINUOUS
10
0.35066
20
1.17294
11
0.341187
21
1.17294
0
LINE
8
BLACK
6
CONTINUOUS
10
0.421734
20
1.17867
11
0.421869
21
1.17855
0
LINE
8
BLACK
6
CONTINUOUS
10
0.421869
20
1.17855
11
0.422044
21
1.17853
0
LINE
8
BLACK
6
CONTINUOUS
10
0.422044
20
1.17853
11
0.425794
21
1.17666
0
LINE
8
BLACK
6
CONTINUOUS
10
0.425794
20
1.17666
11
0.426503
21
1.17613
0
LINE
8
BLACK
6
CONTINUOUS
10
0.426503
20
1.17613
11
0.426561
21
1.1761
0
LINE
8
BLACK
6
CONTINUOUS
10
0.426561
20
1.1761
11
0.428436
21
1.17423
0
LINE
8
BLACK
6
CONTINUOUS
10
0.428436
20
1.17423
11
0.428942
21
1.17351
0
LINE
8
BLACK
6
CONTINUOUS
10
0.428942
20
1.17351
11
0.428989
21
1.17346
0
LINE
8
BLACK
6
CONTINUOUS
10
0.428989
20
1.17346
11
0.430864
21
1.16971
0
LINE
8
BLACK
6
CONTINUOUS
10
0.430864
20
1.16971
11
0.431156
21
1.16873
0
LINE
8
BLACK
6
CONTINUOUS
10
0.431156
20
1.16873
11
0.431115
21
1.16856
0
LINE
8
BLACK
6
CONTINUOUS
10
0.431115
20
1.16856
11
0.431175
21
1.16839
0
LINE
8
BLACK
6
CONTINUOUS
10
0.431175
20
1.16839
11
0.431175
21
1.16464
0
LINE
8
BLACK
6
CONTINUOUS
10
0.431175
20
1.16464
11
0.430997
21
1.16363
0
LINE
8
BLACK
6
CONTINUOUS
10
0.430997
20
1.16363
11
0.430884
21
1.1635
0
LINE
8
BLACK
6
CONTINUOUS
10
0.430884
20
1.1635
11
0.430864
21
1.16332
0
LINE
8
BLACK
6
CONTINUOUS
10
0.430864
20
1.16332
11
0.428989
21
1.15957
0
LINE
8
BLACK
6
CONTINUOUS
10
0.428989
20
1.15957
11
0.428463
21
1.15886
0
LINE
8
BLACK
6
CONTINUOUS
10
0.428463
20
1.15886
11
0.428436
21
1.1588
0
LINE
8
BLACK
6
CONTINUOUS
10
0.428436
20
1.1588
11
0.427554
21
1.15792
0
LINE
8
BLACK
6
CONTINUOUS
10
0.427554
20
1.15792
11
0.428183
21
1.15758
0
LINE
8
BLACK
6
CONTINUOUS
10
0.428183
20
1.15758
11
0.428276
21
1.15743
0
LINE
8
BLACK
6
CONTINUOUS
10
0.428276
20
1.15743
11
0.428436
21
1.15736
0
LINE
8
BLACK
6
CONTINUOUS
10
0.428436
20
1.15736
11
0.430311
21
1.15548
0
LINE
8
BLACK
6
CONTINUOUS
10
0.430311
20
1.15548
11
0.430817
21
1.15476
0
LINE
8
BLACK
6
CONTINUOUS
10
0.430817
20
1.15476
11
0.430864
21
1.15471
0
LINE
8
BLACK
6
CONTINUOUS
10
0.430864
20
1.15471
11
0.432739
21
1.15096
0
LINE
8
BLACK
6
CONTINUOUS
10
0.432739
20
1.15096
11
0.433031
21
1.14998
0
LINE
8
BLACK
6
CONTINUOUS
10
0.433031
20
1.14998
11
0.43299
21
1.14981
0
LINE
8
BLACK
6
CONTINUOUS
10
0.43299
20
1.14981
11
0.43305
21
1.14964
0
LINE
8
BLACK
6
CONTINUOUS
10
0.43305
20
1.14964
11
0.43305
21
1.14402
0
LINE
8
BLACK
6
CONTINUOUS
10
0.43305
20
1.14402
11
0.432872
21
1.14301
0
LINE
8
BLACK
6
CONTINUOUS
10
0.432872
20
1.14301
11
0.432759
21
1.14287
0
LINE
8
BLACK
6
CONTINUOUS
10
0.432759
20
1.14287
11
0.432739
21
1.1427
0
LINE
8
BLACK
6
CONTINUOUS
10
0.432739
20
1.1427
11
0.430864
21
1.13895
0
LINE
8
BLACK
6
CONTINUOUS
10
0.430864
20
1.13895
11
0.430338
21
1.13824
0
LINE
8
BLACK
6
CONTINUOUS
10
0.430338
20
1.13824
11
0.430311
21
1.13818
0
LINE
8
BLACK
6
CONTINUOUS
10
0.430311
20
1.13818
11
0.428436
21
1.13631
0
LINE
8
BLACK
6
CONTINUOUS
10
0.428436
20
1.13631
11
0.427713
21
1.1358
0
LINE
8
BLACK
6
CONTINUOUS
10
0.427713
20
1.1358
11
0.427668
21
1.13575
0
LINE
8
BLACK
6
CONTINUOUS
10
0.427668
20
1.13575
11
0.423919
21
1.13388
0
LINE
8
BLACK
6
CONTINUOUS
10
0.423919
20
1.13388
11
0.422936
21
1.13359
0
LINE
8
BLACK
6
CONTINUOUS
10
0.422936
20
1.13359
11
0.422764
21
1.13363
0
LINE
8
BLACK
6
CONTINUOUS
10
0.422764
20
1.13363
11
0.422598
21
1.13357
0
LINE
8
BLACK
6
CONTINUOUS
10
0.422598
20
1.13357
11
0.4076
21
1.13357
0
LINE
8
BLACK
6
CONTINUOUS
10
0.4076
20
1.13357
11
0.407217
21
1.13364
0
LINE
8
BLACK
6
CONTINUOUS
10
0.407217
20
1.13364
11
0.407088
21
1.13361
0
LINE
8
BLACK
6
CONTINUOUS
10
0.407088
20
1.13361
11
0.406974
21
1.13368
0
LINE
8
BLACK
6
CONTINUOUS
10
0.406974
20
1.13368
11
0.40659
21
1.13375
0
LINE
8
BLACK
6
CONTINUOUS
10
0.40659
20
1.13375
11
0.406003
21
1.13424
0
LINE
8
BLACK
6
CONTINUOUS
10
0.406003
20
1.13424
11
0.405338
21
1.13462
0
LINE
8
BLACK
6
CONTINUOUS
10
0.405338
20
1.13462
11
0.405247
21
1.13487
0
LINE
8
BLACK
6
CONTINUOUS
10
0.405247
20
1.13487
11
0.405043
21
1.13504
0
LINE
8
BLACK
6
CONTINUOUS
10
0.405043
20
1.13504
11
0.40491
21
1.1358
0
LINE
8
BLACK
6
CONTINUOUS
10
0.40491
20
1.1358
11
0.404648
21
1.13652
0
LINE
8
BLACK
6
CONTINUOUS
10
0.404648
20
1.13652
11
0.404648
21
1.17589
0
LINE
8
BLACK
6
CONTINUOUS
10
0.404648
20
1.17589
11
0.404715
21
1.17627
0
LINE
8
BLACK
6
CONTINUOUS
10
0.404715
20
1.17627
11
0.404692
21
1.1764
0
LINE
8
BLACK
6
CONTINUOUS
10
0.404692
20
1.1764
11
0.404758
21
1.17652
0
LINE
8
BLACK
6
CONTINUOUS
10
0.404758
20
1.17652
11
0.404826
21
1.1769
0
LINE
8
BLACK
6
CONTINUOUS
10
0.404826
20
1.1769
11
0.405319
21
1.17749
0
LINE
8
BLACK
6
CONTINUOUS
10
0.405319
20
1.17749
11
0.405702
21
1.17815
0
LINE
8
BLACK
6
CONTINUOUS
10
0.405702
20
1.17815
11
0.405953
21
1.17824
0
LINE
8
BLACK
6
CONTINUOUS
10
0.405953
20
1.17824
11
0.406124
21
1.17845
0
LINE
8
BLACK
6
CONTINUOUS
10
0.406124
20
1.17845
11
0.406879
21
1.17858
0
LINE
8
BLACK
6
CONTINUOUS
10
0.406879
20
1.17858
11
0.4076
21
1.17884
0
LINE
8
BLACK
6
CONTINUOUS
10
0.4076
20
1.17884
11
0.420724
21
1.17884
0
LINE
8
BLACK
6
CONTINUOUS
10
0.420724
20
1.17884
11
0.421734
21
1.17867
0
LINE
8
BLACK
6
CONTINUOUS
10
0.410553
20
1.15419
11
0.410553
21
1.13947
0
LINE
8
BLACK
6
CONTINUOUS
10
0.410553
20
1.13947
11
0.421901
21
1.13947
0
LINE
8
BLACK
6
CONTINUOUS
10
0.421901
20
1.13947
11
0.424599
21
1.14082
0
LINE
8
BLACK
6
CONTINUOUS
10
0.424599
20
1.14082
11
0.425796
21
1.14202
0
LINE
8
BLACK
6
CONTINUOUS
10
0.425796
20
1.14202
11
0.427145
21
1.14472
0
LINE
8
BLACK
6
CONTINUOUS
10
0.427145
20
1.14472
11
0.427145
21
1.14895
0
LINE
8
BLACK
6
CONTINUOUS
10
0.427145
20
1.14895
11
0.425796
21
1.15164
0
LINE
8
BLACK
6
CONTINUOUS
10
0.425796
20
1.15164
11
0.424753
21
1.15269
0
LINE
8
BLACK
6
CONTINUOUS
10
0.424753
20
1.15269
11
0.420244
21
1.15419
0
LINE
8
BLACK
6
CONTINUOUS
10
0.420244
20
1.15419
11
0.410553
21
1.15419
0
LINE
8
BLACK
6
CONTINUOUS
10
0.410553
20
1.17294
11
0.410553
21
1.1601
0
LINE
8
BLACK
6
CONTINUOUS
10
0.410553
20
1.1601
11
0.420027
21
1.1601
0
LINE
8
BLACK
6
CONTINUOUS
10
0.420027
20
1.1601
11
0.422724
21
1.16144
0
LINE
8
BLACK
6
CONTINUOUS
10
0.422724
20
1.16144
11
0.423921
21
1.16264
0
LINE
8
BLACK
6
CONTINUOUS
10
0.423921
20
1.16264
11
0.42527
21
1.16534
0
LINE
8
BLACK
6
CONTINUOUS
10
0.42527
20
1.16534
11
0.42527
21
1.16769
0
LINE
8
BLACK
6
CONTINUOUS
10
0.42527
20
1.16769
11
0.423921
21
1.17039
0
LINE
8
BLACK
6
CONTINUOUS
10
0.423921
20
1.17039
11
0.422724
21
1.17159
0
LINE
8
BLACK
6
CONTINUOUS
10
0.422724
20
1.17159
11
0.420027
21
1.17294
0
LINE
8
BLACK
6
CONTINUOUS
10
0.420027
20
1.17294
11
0.410553
21
1.17294
0
LINE
8
BLACK
6
CONTINUOUS
10
0.712647
20
0.737774
11
0.715138
21
0.753151
0
LINE
8
BLACK
6
CONTINUOUS
10
0.715138
20
0.753151
11
0.719117
21
0.768213
0
LINE
8
BLACK
6
CONTINUOUS
10
0.719117
20
0.768213
11
0.724547
21
0.782814
0
LINE
8
BLACK
6
CONTINUOUS
10
0.724547
20
0.782814
11
0.731376
21
0.796815
0
LINE
8
BLACK
6
CONTINUOUS
10
0.731376
20
0.796815
11
0.739539
21
0.810083
0
LINE
8
BLACK
6
CONTINUOUS
10
0.739539
20
0.810083
11
0.748957
21
0.822492
0
LINE
8
BLACK
6
CONTINUOUS
10
0.748957
20
0.822492
11
0.759542
21
0.833922
0
LINE
8
BLACK
6
CONTINUOUS
10
0.759542
20
0.833922
11
0.771191
21
0.844265
0
LINE
8
BLACK
6
CONTINUOUS
10
0.771191
20
0.844265
11
0.783794
21
0.853421
0
LINE
8
BLACK
6
CONTINUOUS
10
0.783794
20
0.853421
11
0.79723
21
0.861304
0
LINE
8
BLACK
6
CONTINUOUS
10
0.79723
20
0.861304
11
0.811372
21
0.867838
0
LINE
8
BLACK
6
CONTINUOUS
10
0.811372
20
0.867838
11
0.826083
21
0.872961
0
LINE
8
BLACK
6
CONTINUOUS
10
0.826083
20
0.872961
11
0.841225
21
0.876625
0
LINE
8
BLACK
6
CONTINUOUS
10
0.841225
20
0.876625
11
0.856651
21
0.878793
0
LINE
8
BLACK
6
CONTINUOUS
10
0.856651
20
0.878793
11
0.872216
21
0.879445
0
LINE
8
BLACK
6
CONTINUOUS
10
0.872216
20
0.879445
11
0.887769
21
0.878575
0
LINE
8
BLACK
6
CONTINUOUS
10
0.887769
20
0.878575
11
0.903164
21
0.876192
0
LINE
8
BLACK
6
CONTINUOUS
10
0.903164
20
0.876192
11
0.918253
21
0.872318
0
LINE
8
BLACK
6
CONTINUOUS
10
0.918253
20
0.872318
11
0.932891
21
0.86699
0
LINE
8
BLACK
6
CONTINUOUS
10
0.932891
20
0.86699
11
0.94694
21
0.860259
0
LINE
8
BLACK
6
CONTINUOUS
10
0.94694
20
0.860259
11
0.960265
21
0.852189
0
LINE
8
BLACK
6
CONTINUOUS
10
0.960265
20
0.852189
11
0.972739
21
0.842857
0
LINE
8
BLACK
6
CONTINUOUS
10
0.972739
20
0.842857
11
0.984243
21
0.832353
0
LINE
8
BLACK
6
CONTINUOUS
10
0.984243
20
0.832353
11
0.994666
21
0.820776
0
LINE
8
BLACK
6
CONTINUOUS
10
0.994666
20
0.820776
11
1.00391
21
0.808238
0
LINE
8
BLACK
6
CONTINUOUS
10
1.00391
20
0.808238
11
1.01189
21
0.794857
0
LINE
8
BLACK
6
CONTINUOUS
10
1.01189
20
0.794857
11
1.01852
21
0.780761
0
LINE
8
BLACK
6
CONTINUOUS
10
1.01852
20
0.780761
11
1.02375
21
0.766086
0
LINE
8
BLACK
6
CONTINUOUS
10
1.02375
20
0.766086
11
1.02751
21
0.75097
0
LINE
8
BLACK
6
CONTINUOUS
10
1.02751
20
0.75097
11
1.02979
21
0.735559
0
LINE
8
BLACK
6
CONTINUOUS
10
1.02979
20
0.735559
11
1.03055
21
0.72
0
LINE
8
BLACK
6
CONTINUOUS
10
1.03055
20
0.72
11
1.03049
21
0.715548
0
LINE
8
BLACK
6
CONTINUOUS
10
1.03049
20
0.715548
11
1.02929
21
0.700016
0
LINE
8
BLACK
6
CONTINUOUS
10
1.02929
20
0.700016
11
1.02659
21
0.684674
0
LINE
8
BLACK
6
CONTINUOUS
10
1.02659
20
0.684674
11
1.0224
21
0.66967
0
LINE
8
BLACK
6
CONTINUOUS
10
1.0224
20
0.66967
11
1.01677
21
0.655146
0
LINE
8
BLACK
6
CONTINUOUS
10
1.01677
20
0.655146
11
1.00974
21
0.641242
0
LINE
8
BLACK
6
CONTINUOUS
10
1.00974
20
0.641242
11
1.0014
21
0.628089
0
LINE
8
BLACK
6
CONTINUOUS
10
1.0014
20
0.628089
11
0.991804
21
0.615813
0
LINE
8
BLACK
6
CONTINUOUS
10
0.991804
20
0.615813
11
0.981061
21
0.604532
0
LINE
8
BLACK
6
CONTINUOUS
10
0.981061
20
0.604532
11
0.969269
21
0.594353
0
LINE
8
BLACK
6
CONTINUOUS
10
0.969269
20
0.594353
11
0.956539
21
0.585373
0
LINE
8
BLACK
6
CONTINUOUS
10
0.956539
20
0.585373
11
0.942994
21
0.577678
0
LINE
8
BLACK
6
CONTINUOUS
10
0.942994
20
0.577678
11
0.928763
21
0.571342
0
LINE
8
BLACK
6
CONTINUOUS
10
0.928763
20
0.571342
11
0.913981
21
0.566425
0
LINE
8
BLACK
6
CONTINUOUS
10
0.913981
20
0.566425
11
0.89879
21
0.562974
0
LINE
8
BLACK
6
CONTINUOUS
10
0.89879
20
0.562974
11
0.883335
21
0.561021
0
LINE
8
BLACK
6
CONTINUOUS
10
0.883335
20
0.561021
11
0.867763
21
0.560586
0
LINE
8
BLACK
6
CONTINUOUS
10
0.867763
20
0.560586
11
0.852223
21
0.561673
0
LINE
8
BLACK
6
CONTINUOUS
10
0.852223
20
0.561673
11
0.836863
21
0.564271
0
LINE
8
BLACK
6
CONTINUOUS
10
0.836863
20
0.564271
11
0.82183
21
0.568355
0
LINE
8
BLACK
6
CONTINUOUS
10
0.82183
20
0.568355
11
0.807267
21
0.573887
0
LINE
8
BLACK
6
CONTINUOUS
10
0.807267
20
0.573887
11
0.793314
21
0.580814
0
LINE
8
BLACK
6
CONTINUOUS
10
0.793314
20
0.580814
11
0.780103
21
0.589069
0
LINE
8
BLACK
6
CONTINUOUS
10
0.780103
20
0.589069
11
0.76776
21
0.598574
0
LINE
8
BLACK
6
CONTINUOUS
10
0.76776
20
0.598574
11
0.756404
21
0.609238
0
LINE
8
BLACK
6
CONTINUOUS
10
0.756404
20
0.609238
11
0.746143
21
0.620959
0
LINE
8
BLACK
6
CONTINUOUS
10
0.746143
20
0.620959
11
0.737075
21
0.633625
0
LINE
8
BLACK
6
CONTINUOUS
10
0.737075
20
0.633625
11
0.729286
21
0.647116
0
LINE
8
BLACK
6
CONTINUOUS
10
0.729286
20
0.647116
11
0.722851
21
0.661303
0
LINE
8
BLACK
6
CONTINUOUS
10
0.722851
20
0.661303
11
0.71783
21
0.67605
0
LINE
8
BLACK
6
CONTINUOUS
10
0.71783
20
0.67605
11
0.714273
21
0.691216
0
LINE
8
BLACK
6
CONTINUOUS
10
0.714273
20
0.691216
11
0.712213
21
0.706658
0
LINE
8
BLACK
6
CONTINUOUS
10
0.712213
20
0.706658
11
0.711728
21
0.720544
0
LINE
8
BLACK
6
CONTINUOUS
10
0.711728
20
0.720544
11
0.711669
21
0.722226
0
LINE
8
BLACK
6
CONTINUOUS
10
0.711669
20
0.722226
11
0.712647
21
0.737774
0
LINE
8
BLACK
6
CONTINUOUS
10
0.718463
20
0.689222
11
0.722354
21
0.673955
0
LINE
8
BLACK
6
CONTINUOUS
10
0.722354
20
0.673955
11
0.727769
21
0.659159
0
LINE
8
BLACK
6
CONTINUOUS
10
0.727769
20
0.659159
11
0.734651
21
0.644985
0
LINE
8
BLACK
6
CONTINUOUS
10
0.734651
20
0.644985
11
0.74293
21
0.63158
0
LINE
8
BLACK
6
CONTINUOUS
10
0.74293
20
0.63158
11
0.752522
21
0.61908
0
LINE
8
BLACK
6
CONTINUOUS
10
0.752522
20
0.61908
11
0.763328
21
0.607614
0
LINE
8
BLACK
6
CONTINUOUS
10
0.763328
20
0.607614
11
0.775237
21
0.597298
0
LINE
8
BLACK
6
CONTINUOUS
10
0.775237
20
0.597298
11
0.788127
21
0.588238
0
LINE
8
BLACK
6
CONTINUOUS
10
0.788127
20
0.588238
11
0.801867
21
0.580527
0
LINE
8
BLACK
6
CONTINUOUS
10
0.801867
20
0.580527
11
0.816317
21
0.574245
0
LINE
8
BLACK
6
CONTINUOUS
10
0.816317
20
0.574245
11
0.831326
21
0.569454
0
LINE
8
BLACK
6
CONTINUOUS
10
0.831326
20
0.569454
11
0.846744
21
0.566205
0
LINE
8
BLACK
6
CONTINUOUS
10
0.846744
20
0.566205
11
0.86241
21
0.564531
0
LINE
8
BLACK
6
CONTINUOUS
10
0.86241
20
0.564531
11
0.878166
21
0.564449
0
LINE
8
BLACK
6
CONTINUOUS
10
0.878166
20
0.564449
11
0.893849
21
0.565959
0
LINE
8
BLACK
6
CONTINUOUS
10
0.893849
20
0.565959
11
0.9093
21
0.569046
0
LINE
8
BLACK
6
CONTINUOUS
10
0.9093
20
0.569046
11
0.924359
21
0.573679
0
LINE
8
BLACK
6
CONTINUOUS
10
0.924359
20
0.573679
11
0.938873
21
0.57981
0
LINE
8
BLACK
6
CONTINUOUS
10
0.938873
20
0.57981
11
0.952693
21
0.587376
0
LINE
8
BLACK
6
CONTINUOUS
10
0.952693
20
0.587376
11
0.965678
21
0.5963
0
LINE
8
BLACK
6
CONTINUOUS
10
0.965678
20
0.5963
11
0.977694
21
0.606491
0
LINE
8
BLACK
6
CONTINUOUS
10
0.977694
20
0.606491
11
0.988619
21
0.617844
0
LINE
8
BLACK
6
CONTINUOUS
10
0.988619
20
0.617844
11
0.998341
21
0.630243
0
LINE
8
BLACK
6
CONTINUOUS
10
0.998341
20
0.630243
11
1.00676
21
0.643561
0
LINE
8
BLACK
6
CONTINUOUS
10
1.00676
20
0.643561
11
1.01379
21
0.657661
0
LINE
8
BLACK
6
CONTINUOUS
10
1.01379
20
0.657661
11
1.01936
21
0.6724
0
LINE
8
BLACK
6
CONTINUOUS
10
1.01936
20
0.6724
11
1.02341
21
0.687626
0
LINE
8
BLACK
6
CONTINUOUS
10
1.02341
20
0.687626
11
1.0259
21
0.703183
0
LINE
8
BLACK
6
CONTINUOUS
10
1.0259
20
0.703183
11
1.02681
21
0.718913
0
LINE
8
BLACK
6
CONTINUOUS
10
1.02681
20
0.718913
11
1.02681
21
0.72
0
LINE
8
BLACK
6
CONTINUOUS
10
1.02681
20
0.72
11
1.02602
21
0.735736
0
LINE
8
BLACK
6
CONTINUOUS
10
1.02602
20
0.735736
11
1.02363
21
0.75131
0
LINE
8
BLACK
6
CONTINUOUS
10
1.02363
20
0.75131
11
1.01969
21
0.766564
0
LINE
8
BLACK
6
CONTINUOUS
10
1.01969
20
0.766564
11
1.01422
21
0.781341
0
LINE
8
BLACK
6
CONTINUOUS
10
1.01422
20
0.781341
11
1.00729
21
0.795491
0
LINE
8
BLACK
6
CONTINUOUS
10
1.00729
20
0.795491
11
0.998965
21
0.808867
0
LINE
8
BLACK
6
CONTINUOUS
10
0.998965
20
0.808867
11
0.98933
21
0.821333
0
LINE
8
BLACK
6
CONTINUOUS
10
0.98933
20
0.821333
11
0.978484
21
0.832762
0
LINE
8
BLACK
6
CONTINUOUS
10
0.978484
20
0.832762
11
0.966539
21
0.843036
0
LINE
8
BLACK
6
CONTINUOUS
10
0.966539
20
0.843036
11
0.953617
21
0.852051
0
LINE
8
BLACK
6
CONTINUOUS
10
0.953617
20
0.852051
11
0.93985
21
0.859714
0
LINE
8
BLACK
6
CONTINUOUS
10
0.93985
20
0.859714
11
0.925379
21
0.865946
0
LINE
8
BLACK
6
CONTINUOUS
10
0.925379
20
0.865946
11
0.910352
21
0.870684
0
LINE
8
BLACK
6
CONTINUOUS
10
0.910352
20
0.870684
11
0.894924
21
0.873879
0
LINE
8
BLACK
6
CONTINUOUS
10
0.894924
20
0.873879
11
0.879252
21
0.875498
0
LINE
8
BLACK
6
CONTINUOUS
10
0.879252
20
0.875498
11
0.863496
21
0.875526
0
LINE
8
BLACK
6
CONTINUOUS
10
0.863496
20
0.875526
11
0.847818
21
0.873961
0
LINE
8
BLACK
6
CONTINUOUS
10
0.847818
20
0.873961
11
0.832378
21
0.87082
0
LINE
8
BLACK
6
CONTINUOUS
10
0.832378
20
0.87082
11
0.817335
21
0.866134
0
LINE
8
BLACK
6
CONTINUOUS
10
0.817335
20
0.866134
11
0.802843
21
0.859953
0
LINE
8
BLACK
6
CONTINUOUS
10
0.802843
20
0.859953
11
0.789049
21
0.852338
0
LINE
8
BLACK
6
CONTINUOUS
10
0.789049
20
0.852338
11
0.776096
21
0.843369
0
LINE
8
BLACK
6
CONTINUOUS
10
0.776096
20
0.843369
11
0.764115
21
0.833136
0
LINE
8
BLACK
6
CONTINUOUS
10
0.764115
20
0.833136
11
0.753229
21
0.821745
0
LINE
8
BLACK
6
CONTINUOUS
10
0.753229
20
0.821745
11
0.743551
21
0.809313
0
LINE
8
BLACK
6
CONTINUOUS
10
0.743551
20
0.809313
11
0.735178
21
0.795965
0
LINE
8
BLACK
6
CONTINUOUS
10
0.735178
20
0.795965
11
0.728197
21
0.781841
0
LINE
8
BLACK
6
CONTINUOUS
10
0.728197
20
0.781841
11
0.722679
21
0.767083
0
LINE
8
BLACK
6
CONTINUOUS
10
0.722679
20
0.767083
11
0.718681
21
0.751842
0
LINE
8
BLACK
6
CONTINUOUS
10
0.718681
20
0.751842
11
0.716244
21
0.736276
0
LINE
8
BLACK
6
CONTINUOUS
10
0.716244
20
0.736276
11
0.715392
21
0.720544
0
LINE
8
BLACK
6
CONTINUOUS
10
0.715392
20
0.720544
11
0.716134
21
0.704805
0
LINE
8
BLACK
6
CONTINUOUS
10
0.716134
20
0.704805
11
0.718463
21
0.689222
0
LINE
8
BLACK
6
CONTINUOUS
10
0.991658
20
0.668341
11
0.992235
21
0.666949
0
LINE
8
BLACK
6
CONTINUOUS
10
0.992235
20
0.666949
11
0.992235
21
0.653169
0
LINE
8
BLACK
6
CONTINUOUS
10
0.992235
20
0.653169
11
1.00601
21
0.653169
0
LINE
8
BLACK
6
CONTINUOUS
10
1.00601
20
0.653169
11
1.00741
21
0.652593
0
LINE
8
BLACK
6
CONTINUOUS
10
1.00741
20
0.652593
11
1.00798
21
0.651201
0
LINE
8
BLACK
6
CONTINUOUS
10
1.00798
20
0.651201
11
1.00741
21
0.649809
0
LINE
8
BLACK
6
CONTINUOUS
10
1.00741
20
0.649809
11
1.00601
21
0.649232
0
LINE
8
BLACK
6
CONTINUOUS
10
1.00601
20
0.649232
11
0.992235
21
0.649232
0
LINE
8
BLACK
6
CONTINUOUS
10
0.992235
20
0.649232
11
0.992235
21
0.635453
0
LINE
8
BLACK
6
CONTINUOUS
10
0.992235
20
0.635453
11
0.991658
21
0.634061
0
LINE
8
BLACK
6
CONTINUOUS
10
0.991658
20
0.634061
11
0.990266
21
0.633484
0
LINE
8
BLACK
6
CONTINUOUS
10
0.990266
20
0.633484
11
0.988874
21
0.634061
0
LINE
8
BLACK
6
CONTINUOUS
10
0.988874
20
0.634061
11
0.988298
21
0.635453
0
LINE
8
BLACK
6
CONTINUOUS
10
0.988298
20
0.635453
11
0.988298
21
0.649232
0
LINE
8
BLACK
6
CONTINUOUS
10
0.988298
20
0.649232
11
0.974518
21
0.649232
0
LINE
8
BLACK
6
CONTINUOUS
10
0.974518
20
0.649232
11
0.973126
21
0.649809
0
LINE
8
BLACK
6
CONTINUOUS
10
0.973126
20
0.649809
11
0.97255
21
0.651201
0
LINE
8
BLACK
6
CONTINUOUS
10
0.97255
20
0.651201
11
0.973126
21
0.652593
0
LINE
8
BLACK
6
CONTINUOUS
10
0.973126
20
0.652593
11
0.974518
21
0.653169
0
LINE
8
BLACK
6
CONTINUOUS
10
0.974518
20
0.653169
11
0.988298
21
0.653169
0
LINE
8
BLACK
6
CONTINUOUS
10
0.988298
20
0.653169
11
0.988298
21
0.666949
0
LINE
8
BLACK
6
CONTINUOUS
10
0.988298
20
0.666949
11
0.988874
21
0.668341
0
LINE
8
BLACK
6
CONTINUOUS
10
0.988874
20
0.668341
11
0.990266
21
0.668917
0
LINE
8
BLACK
6
CONTINUOUS
10
0.990266
20
0.668917
11
0.991658
21
0.668341
0
LINE
8
BLACK
6
CONTINUOUS
10
0.891133
20
0.744438
11
0.8913
21
0.744468
0
LINE
8
BLACK
6
CONTINUOUS
10
0.8913
20
0.744468
11
0.892042
21
0.744039
0
LINE
8
BLACK
6
CONTINUOUS
10
0.892042
20
0.744039
11
0.892827
21
0.743695
0
LINE
8
BLACK
6
CONTINUOUS
10
0.892827
20
0.743695
11
0.892902
21
0.743543
0
LINE
8
BLACK
6
CONTINUOUS
10
0.892902
20
0.743543
11
0.893049
21
0.743458
0
LINE
8
BLACK
6
CONTINUOUS
10
0.893049
20
0.743458
11
0.893342
21
0.742652
0
LINE
8
BLACK
6
CONTINUOUS
10
0.893342
20
0.742652
11
0.893722
21
0.741884
0
LINE
8
BLACK
6
CONTINUOUS
10
0.893722
20
0.741884
11
0.893682
21
0.741719
0
LINE
8
BLACK
6
CONTINUOUS
10
0.893682
20
0.741719
11
0.89374
21
0.74156
0
LINE
8
BLACK
6
CONTINUOUS
10
0.89374
20
0.74156
11
0.89374
21
0.705142
0
LINE
8
BLACK
6
CONTINUOUS
10
0.89374
20
0.705142
11
0.902036
21
0.705142
0
LINE
8
BLACK
6
CONTINUOUS
10
0.902036
20
0.705142
11
0.903046
21
0.704964
0
LINE
8
BLACK
6
CONTINUOUS
10
0.903046
20
0.704964
11
0.904593
21
0.703666
0
LINE
8
BLACK
6
CONTINUOUS
10
0.904593
20
0.703666
11
0.904944
21
0.701677
0
LINE
8
BLACK
6
CONTINUOUS
10
0.904944
20
0.701677
11
0.903934
21
0.699928
0
LINE
8
BLACK
6
CONTINUOUS
10
0.903934
20
0.699928
11
0.902036
21
0.699237
0
LINE
8
BLACK
6
CONTINUOUS
10
0.902036
20
0.699237
11
0.879539
21
0.699237
0
LINE
8
BLACK
6
CONTINUOUS
10
0.879539
20
0.699237
11
0.878529
21
0.699415
0
LINE
8
BLACK
6
CONTINUOUS
10
0.878529
20
0.699415
11
0.876982
21
0.700713
0
LINE
8
BLACK
6
CONTINUOUS
10
0.876982
20
0.700713
11
0.876631
21
0.702702
0
LINE
8
BLACK
6
CONTINUOUS
10
0.876631
20
0.702702
11
0.877641
21
0.704452
0
LINE
8
BLACK
6
CONTINUOUS
10
0.877641
20
0.704452
11
0.879539
21
0.705142
0
LINE
8
BLACK
6
CONTINUOUS
10
0.879539
20
0.705142
11
0.887835
21
0.705142
0
LINE
8
BLACK
6
CONTINUOUS
10
0.887835
20
0.705142
11
0.887835
21
0.732556
0
LINE
8
BLACK
6
CONTINUOUS
10
0.887835
20
0.732556
11
0.885376
21
0.730098
0
LINE
8
BLACK
6
CONTINUOUS
10
0.885376
20
0.730098
11
0.884653
21
0.729592
0
LINE
8
BLACK
6
CONTINUOUS
10
0.884653
20
0.729592
11
0.884609
21
0.729545
0
LINE
8
BLACK
6
CONTINUOUS
10
0.884609
20
0.729545
11
0.880859
21
0.72767
0
LINE
8
BLACK
6
CONTINUOUS
10
0.880859
20
0.72767
11
0.879876
21
0.727378
0
LINE
8
BLACK
6
CONTINUOUS
10
0.879876
20
0.727378
11
0.877912
21
0.727847
0
LINE
8
BLACK
6
CONTINUOUS
10
0.877912
20
0.727847
11
0.876709
21
0.729469
0
LINE
8
BLACK
6
CONTINUOUS
10
0.876709
20
0.729469
11
0.87683
21
0.731486
0
LINE
8
BLACK
6
CONTINUOUS
10
0.87683
20
0.731486
11
0.878218
21
0.732952
0
LINE
8
BLACK
6
CONTINUOUS
10
0.878218
20
0.732952
11
0.881539
21
0.734613
0
LINE
8
BLACK
6
CONTINUOUS
10
0.881539
20
0.734613
11
0.884743
21
0.737817
0
LINE
8
BLACK
6
CONTINUOUS
10
0.884743
20
0.737817
11
0.888331
21
0.743198
0
LINE
8
BLACK
6
CONTINUOUS
10
0.888331
20
0.743198
11
0.889039
21
0.743939
0
LINE
8
BLACK
6
CONTINUOUS
10
0.889039
20
0.743939
11
0.889202
21
0.743987
0
LINE
8
BLACK
6
CONTINUOUS
10
0.889202
20
0.743987
11
0.889311
21
0.744117
0
LINE
8
BLACK
6
CONTINUOUS
10
0.889311
20
0.744117
11
0.890155
21
0.744266
0
LINE
8
BLACK
6
CONTINUOUS
10
0.890155
20
0.744266
11
0.890977
21
0.744506
0
LINE
8
BLACK
6
CONTINUOUS
10
0.890977
20
0.744506
11
0.891133
21
0.744438
0
LINE
8
BLACK
6
CONTINUOUS
10
0.857911
20
0.744359
11
0.857975
21
0.744361
0
LINE
8
BLACK
6
CONTINUOUS
10
0.857975
20
0.744361
11
0.8636
21
0.742486
0
LINE
8
BLACK
6
CONTINUOUS
10
0.8636
20
0.742486
11
0.864501
21
0.741998
0
LINE
8
BLACK
6
CONTINUOUS
10
0.864501
20
0.741998
11
0.864594
21
0.741848
0
LINE
8
BLACK
6
CONTINUOUS
10
0.864594
20
0.741848
11
0.864754
21
0.741773
0
LINE
8
BLACK
6
CONTINUOUS
10
0.864754
20
0.741773
11
0.866629
21
0.739898
0
LINE
8
BLACK
6
CONTINUOUS
10
0.866629
20
0.739898
11
0.867217
21
0.739058
0
LINE
8
BLACK
6
CONTINUOUS
10
0.867217
20
0.739058
11
0.867393
21
0.737046
0
LINE
8
BLACK
6
CONTINUOUS
10
0.867393
20
0.737046
11
0.866234
21
0.735391
0
LINE
8
BLACK
6
CONTINUOUS
10
0.866234
20
0.735391
11
0.864283
21
0.734869
0
LINE
8
BLACK
6
CONTINUOUS
10
0.864283
20
0.734869
11
0.862453
21
0.735722
0
LINE
8
BLACK
6
CONTINUOUS
10
0.862453
20
0.735722
11
0.861071
21
0.737104
0
LINE
8
BLACK
6
CONTINUOUS
10
0.861071
20
0.737104
11
0.856562
21
0.738607
0
LINE
8
BLACK
6
CONTINUOUS
10
0.856562
20
0.738607
11
0.853771
21
0.738607
0
LINE
8
BLACK
6
CONTINUOUS
10
0.853771
20
0.738607
11
0.849263
21
0.737104
0
LINE
8
BLACK
6
CONTINUOUS
10
0.849263
20
0.737104
11
0.846345
21
0.734186
0
LINE
8
BLACK
6
CONTINUOUS
10
0.846345
20
0.734186
11
0.844829
21
0.731155
0
LINE
8
BLACK
6
CONTINUOUS
10
0.844829
20
0.731155
11
0.843121
21
0.724323
0
LINE
8
BLACK
6
CONTINUOUS
10
0.843121
20
0.724323
11
0.843121
21
0.719426
0
LINE
8
BLACK
6
CONTINUOUS
10
0.843121
20
0.719426
11
0.844829
21
0.712594
0
LINE
8
BLACK
6
CONTINUOUS
10
0.844829
20
0.712594
11
0.846345
21
0.709563
0
LINE
8
BLACK
6
CONTINUOUS
10
0.846345
20
0.709563
11
0.849263
21
0.706645
0
LINE
8
BLACK
6
CONTINUOUS
10
0.849263
20
0.706645
11
0.853771
21
0.705142
0
LINE
8
BLACK
6
CONTINUOUS
10
0.853771
20
0.705142
11
0.856562
21
0.705142
0
LINE
8
BLACK
6
CONTINUOUS
10
0.856562
20
0.705142
11
0.861071
21
0.706645
0
LINE
8
BLACK
6
CONTINUOUS
10
0.861071
20
0.706645
11
0.862453
21
0.708027
0
LINE
8
BLACK
6
CONTINUOUS
10
0.862453
20
0.708027
11
0.863293
21
0.708615
0
LINE
8
BLACK
6
CONTINUOUS
10
0.863293
20
0.708615
11
0.865305
21
0.708791
0
LINE
8
BLACK
6
CONTINUOUS
10
0.865305
20
0.708791
11
0.866959
21
0.707633
0
LINE
8
BLACK
6
CONTINUOUS
10
0.866959
20
0.707633
11
0.867482
21
0.705682
0
LINE
8
BLACK
6
CONTINUOUS
10
0.867482
20
0.705682
11
0.866629
21
0.703851
0
LINE
8
BLACK
6
CONTINUOUS
10
0.866629
20
0.703851
11
0.864754
21
0.701977
0
LINE
8
BLACK
6
CONTINUOUS
10
0.864754
20
0.701977
11
0.863914
21
0.701388
0
LINE
8
BLACK
6
CONTINUOUS
10
0.863914
20
0.701388
11
0.863738
21
0.701373
0
LINE
8
BLACK
6
CONTINUOUS
10
0.863738
20
0.701373
11
0.8636
21
0.701263
0
LINE
8
BLACK
6
CONTINUOUS
10
0.8636
20
0.701263
11
0.857975
21
0.699389
0
LINE
8
BLACK
6
CONTINUOUS
10
0.857975
20
0.699389
11
0.857102
21
0.699259
0
LINE
8
BLACK
6
CONTINUOUS
10
0.857102
20
0.699259
11
0.857042
21
0.699237
0
LINE
8
BLACK
6
CONTINUOUS
10
0.857042
20
0.699237
11
0.853292
21
0.699237
0
LINE
8
BLACK
6
CONTINUOUS
10
0.853292
20
0.699237
11
0.852423
21
0.69939
0
LINE
8
BLACK
6
CONTINUOUS
10
0.852423
20
0.69939
11
0.852358
21
0.699389
0
LINE
8
BLACK
6
CONTINUOUS
10
0.852358
20
0.699389
11
0.846734
21
0.701263
0
LINE
8
BLACK
6
CONTINUOUS
10
0.846734
20
0.701263
11
0.845832
21
0.701752
0
LINE
8
BLACK
6
CONTINUOUS
10
0.845832
20
0.701752
11
0.84574
21
0.701902
0
LINE
8
BLACK
6
CONTINUOUS
10
0.84574
20
0.701902
11
0.84558
21
0.701977
0
LINE
8
BLACK
6
CONTINUOUS
10
0.84558
20
0.701977
11
0.84183
21
0.705726
0
LINE
8
BLACK
6
CONTINUOUS
10
0.84183
20
0.705726
11
0.841324
21
0.706449
0
LINE
8
BLACK
6
CONTINUOUS
10
0.841324
20
0.706449
11
0.841277
21
0.706494
0
LINE
8
BLACK
6
CONTINUOUS
10
0.841277
20
0.706494
11
0.839402
21
0.710243
0
LINE
8
BLACK
6
CONTINUOUS
10
0.839402
20
0.710243
11
0.839257
21
0.710731
0
LINE
8
BLACK
6
CONTINUOUS
10
0.839257
20
0.710731
11
0.839179
21
0.710847
0
LINE
8
BLACK
6
CONTINUOUS
10
0.839179
20
0.710847
11
0.837304
21
0.718346
0
LINE
8
BLACK
6
CONTINUOUS
10
0.837304
20
0.718346
11
0.837263
21
0.718934
0
LINE
8
BLACK
6
CONTINUOUS
10
0.837263
20
0.718934
11
0.837216
21
0.719063
0
LINE
8
BLACK
6
CONTINUOUS
10
0.837216
20
0.719063
11
0.837216
21
0.724687
0
LINE
8
BLACK
6
CONTINUOUS
10
0.837216
20
0.724687
11
0.837318
21
0.725267
0
LINE
8
BLACK
6
CONTINUOUS
10
0.837318
20
0.725267
11
0.837304
21
0.725403
0
LINE
8
BLACK
6
CONTINUOUS
10
0.837304
20
0.725403
11
0.839179
21
0.732902
0
LINE
8
BLACK
6
CONTINUOUS
10
0.839179
20
0.732902
11
0.839386
21
0.733368
0
LINE
8
BLACK
6
CONTINUOUS
10
0.839386
20
0.733368
11
0.839402
21
0.733506
0
LINE
8
BLACK
6
CONTINUOUS
10
0.839402
20
0.733506
11
0.841277
21
0.737256
0
LINE
8
BLACK
6
CONTINUOUS
10
0.841277
20
0.737256
11
0.841803
21
0.737965
0
LINE
8
BLACK
6
CONTINUOUS
10
0.841803
20
0.737965
11
0.84183
21
0.738023
0
LINE
8
BLACK
6
CONTINUOUS
10
0.84183
20
0.738023
11
0.84558
21
0.741773
0
LINE
8
BLACK
6
CONTINUOUS
10
0.84558
20
0.741773
11
0.84642
21
0.742361
0
LINE
8
BLACK
6
CONTINUOUS
10
0.84642
20
0.742361
11
0.846596
21
0.742377
0
LINE
8
BLACK
6
CONTINUOUS
10
0.846596
20
0.742377
11
0.846734
21
0.742486
0
LINE
8
BLACK
6
CONTINUOUS
10
0.846734
20
0.742486
11
0.852358
21
0.744361
0
LINE
8
BLACK
6
CONTINUOUS
10
0.852358
20
0.744361
11
0.853231
21
0.744491
0
LINE
8
BLACK
6
CONTINUOUS
10
0.853231
20
0.744491
11
0.853292
21
0.744513
0
LINE
8
BLACK
6
CONTINUOUS
10
0.853292
20
0.744513
11
0.857042
21
0.744513
0
LINE
8
BLACK
6
CONTINUOUS
10
0.857042
20
0.744513
11
0.857911
21
0.744359
  0
ENDSEC
  0
EOF
