  0
SECTION
  2
HEADER
  9
$ANGBASE
  50
0.0
  9
$ANGDIR
  70
1
  9
$MEASUREMENT
  70
0
  0
ENDSEC
  0
SECTION
  2
TABLES
  0
TABLE
  2
LTYPE
  70
4
  0
LTYPE
  5
40F
  2
CONTINUOUS
  70
0
  3
Solid line
  72
65
  73
0
  40
0.0
  0
LTYPE
  5
410
  2
DASHDOT
 70
0
  3
Dash Dot ____ _ ____ _
 72
65
 73
4
 40
2.0
 49
1.25
 49
-0.25
 49
0.25
 49
-0.25
  0
LTYPE
  5
411
  2
DASHED
 70
0
  3
Dashed __ __ __ __ __
 72
65
 73
2
 40
0.75
 49
0.5
 49
-0.25
  0
LTYPE
  5
43B
  2
DOTTED
 70
0
  3
Dotted .  .  .  .
 72
65
 73
2
 40
0.2
 49
0.0
 49
-0.2
  0
ENDTAB
  0
TABLE
  2
STYLE
  70
4
  0
STYLE
  2
KICAD
  70
0
  40
0
  41
1
  42
1
  50
0
  71
0
  3
isocp.shx
  0
STYLE
  2
KICADB
  70
0
  40
0
  41
1
  42
1
  50
0
  71
0
  3
isocp.shx
  0
STYLE
  2
KICADI
  70
0
  40
0
  41
1
  42
1
  50
15
  71
0
  3
isocp.shx
  0
STYLE
  2
KICADBI
  70
0
  40
0
  41
1
  42
1
  50
15
  71
0
  3
isocp.shx
  0
ENDTAB
  0
TABLE
  2
LAYER
  70
1
  0
LAYER
  2
BLACK
  70
0
  62
7
  6
CONTINUOUS
  0
ENDTAB
  0
ENDSEC
  0
SECTION
  2
ENTITIES
0
LINE
8
BLACK
6
CONTINUOUS
10
-0.00132591
20
0.472926
11
-0.00161417
21
0.473622
0
LINE
8
BLACK
6
CONTINUOUS
10
-0.00161417
20
0.473622
11
-0.00161417
21
1.1248
0
LINE
8
BLACK
6
CONTINUOUS
10
-0.00161417
20
1.1248
11
-0.00132591
21
1.1255
0
LINE
8
BLACK
6
CONTINUOUS
10
-0.00132591
20
1.1255
11
-0.000629921
21
1.12579
0
LINE
8
BLACK
6
CONTINUOUS
10
-0.000629921
20
1.12579
11
0.688346
21
1.12579
0
LINE
8
BLACK
6
CONTINUOUS
10
0.688346
20
1.12579
11
0.689042
21
1.1255
0
LINE
8
BLACK
6
CONTINUOUS
10
0.689042
20
1.1255
11
0.689331
21
1.1248
0
LINE
8
BLACK
6
CONTINUOUS
10
0.689331
20
1.1248
11
0.689331
21
0.473622
0
LINE
8
BLACK
6
CONTINUOUS
10
0.689331
20
0.473622
11
0.689042
21
0.472926
0
LINE
8
BLACK
6
CONTINUOUS
10
0.689042
20
0.472926
11
0.688346
21
0.472638
0
LINE
8
BLACK
6
CONTINUOUS
10
0.688346
20
0.472638
11
-0.000629921
21
0.472638
0
LINE
8
BLACK
6
CONTINUOUS
10
-0.000629921
20
0.472638
11
-0.00132591
21
0.472926
0
LINE
8
BLACK
6
CONTINUOUS
10
0.000354331
20
1.12382
11
0.000354331
21
0.474606
0
LINE
8
BLACK
6
CONTINUOUS
10
0.000354331
20
0.474606
11
0.687362
21
0.474606
0
LINE
8
BLACK
6
CONTINUOUS
10
0.687362
20
0.474606
11
0.687362
21
1.12382
0
LINE
8
BLACK
6
CONTINUOUS
10
0.687362
20
1.12382
11
0.000354331
21
1.12382
0
LINE
8
BLACK
6
CONTINUOUS
10
0.704122
20
0.741094
11
0.706849
21
0.756715
0
LINE
8
BLACK
6
CONTINUOUS
10
0.706849
20
0.756715
11
0.711033
21
0.77201
0
LINE
8
BLACK
6
CONTINUOUS
10
0.711033
20
0.77201
11
0.716638
21
0.786843
0
LINE
8
BLACK
6
CONTINUOUS
10
0.716638
20
0.786843
11
0.723614
21
0.801083
0
LINE
8
BLACK
6
CONTINUOUS
10
0.723614
20
0.801083
11
0.731899
21
0.814603
0
LINE
8
BLACK
6
CONTINUOUS
10
0.731899
20
0.814603
11
0.74142
21
0.827283
0
LINE
8
BLACK
6
CONTINUOUS
10
0.74142
20
0.827283
11
0.752091
21
0.839011
0
LINE
8
BLACK
6
CONTINUOUS
10
0.752091
20
0.839011
11
0.763819
21
0.849683
0
LINE
8
BLACK
6
CONTINUOUS
10
0.763819
20
0.849683
11
0.7765
21
0.859204
0
LINE
8
BLACK
6
CONTINUOUS
10
0.7765
20
0.859204
11
0.79002
21
0.867489
0
LINE
8
BLACK
6
CONTINUOUS
10
0.79002
20
0.867489
11
0.80426
21
0.874465
0
LINE
8
BLACK
6
CONTINUOUS
10
0.80426
20
0.874465
11
0.819093
21
0.88007
0
LINE
8
BLACK
6
CONTINUOUS
10
0.819093
20
0.88007
11
0.834387
21
0.884254
0
LINE
8
BLACK
6
CONTINUOUS
10
0.834387
20
0.884254
11
0.850008
21
0.88698
0
LINE
8
BLACK
6
CONTINUOUS
10
0.850008
20
0.88698
11
0.865816
21
0.888224
0
LINE
8
BLACK
6
CONTINUOUS
10
0.865816
20
0.888224
11
0.88167
21
0.887975
0
LINE
8
BLACK
6
CONTINUOUS
10
0.88167
20
0.887975
11
0.897431
21
0.886235
0
LINE
8
BLACK
6
CONTINUOUS
10
0.897431
20
0.886235
11
0.912959
21
0.883019
0
LINE
8
BLACK
6
CONTINUOUS
10
0.912959
20
0.883019
11
0.928114
21
0.878357
0
LINE
8
BLACK
6
CONTINUOUS
10
0.928114
20
0.878357
11
0.942764
21
0.872289
0
LINE
8
BLACK
6
CONTINUOUS
10
0.942764
20
0.872289
11
0.956778
21
0.864869
0
LINE
8
BLACK
6
CONTINUOUS
10
0.956778
20
0.864869
11
0.970031
21
0.856163
0
LINE
8
BLACK
6
CONTINUOUS
10
0.970031
20
0.856163
11
0.982406
21
0.846249
0
LINE
8
BLACK
6
CONTINUOUS
10
0.982406
20
0.846249
11
0.993793
21
0.835214
0
LINE
8
BLACK
6
CONTINUOUS
10
0.993793
20
0.835214
11
1.00409
21
0.823157
0
LINE
8
BLACK
6
CONTINUOUS
10
1.00409
20
0.823157
11
1.01321
21
0.810183
0
LINE
8
BLACK
6
CONTINUOUS
10
1.01321
20
0.810183
11
1.02107
21
0.79641
0
LINE
8
BLACK
6
CONTINUOUS
10
1.02107
20
0.79641
11
1.02759
21
0.781958
0
LINE
8
BLACK
6
CONTINUOUS
10
1.02759
20
0.781958
11
1.03273
21
0.766956
0
LINE
8
BLACK
6
CONTINUOUS
10
1.03273
20
0.766956
11
1.03643
21
0.751538
0
LINE
8
BLACK
6
CONTINUOUS
10
1.03643
20
0.751538
11
1.03866
21
0.735839
0
LINE
8
BLACK
6
CONTINUOUS
10
1.03866
20
0.735839
11
1.03941
21
0.72
0
LINE
8
BLACK
6
CONTINUOUS
10
1.03941
20
0.72
11
1.03908
21
0.709432
0
LINE
8
BLACK
6
CONTINUOUS
10
1.03908
20
0.709432
11
1.03734
21
0.693671
0
LINE
8
BLACK
6
CONTINUOUS
10
1.03734
20
0.693671
11
1.03412
21
0.678144
0
LINE
8
BLACK
6
CONTINUOUS
10
1.03412
20
0.678144
11
1.02946
21
0.662988
0
LINE
8
BLACK
6
CONTINUOUS
10
1.02946
20
0.662988
11
1.02339
21
0.648338
0
LINE
8
BLACK
6
CONTINUOUS
10
1.02339
20
0.648338
11
1.01597
21
0.634325
0
LINE
8
BLACK
6
CONTINUOUS
10
1.01597
20
0.634325
11
1.00727
21
0.621072
0
LINE
8
BLACK
6
CONTINUOUS
10
1.00727
20
0.621072
11
0.997351
21
0.608697
0
LINE
8
BLACK
6
CONTINUOUS
10
0.997351
20
0.608697
11
0.986316
21
0.597309
0
LINE
8
BLACK
6
CONTINUOUS
10
0.986316
20
0.597309
11
0.974259
21
0.587011
0
LINE
8
BLACK
6
CONTINUOUS
10
0.974259
20
0.587011
11
0.961286
21
0.577894
0
LINE
8
BLACK
6
CONTINUOUS
10
0.961286
20
0.577894
11
0.947512
21
0.570037
0
LINE
8
BLACK
6
CONTINUOUS
10
0.947512
20
0.570037
11
0.93306
21
0.563512
0
LINE
8
BLACK
6
CONTINUOUS
10
0.93306
20
0.563512
11
0.918059
21
0.558376
0
LINE
8
BLACK
6
CONTINUOUS
10
0.918059
20
0.558376
11
0.90264
21
0.554674
0
LINE
8
BLACK
6
CONTINUOUS
10
0.90264
20
0.554674
11
0.886941
21
0.55244
0
LINE
8
BLACK
6
CONTINUOUS
10
0.886941
20
0.55244
11
0.871102
21
0.551693
0
LINE
8
BLACK
6
CONTINUOUS
10
0.871102
20
0.551693
11
0.855263
21
0.55244
0
LINE
8
BLACK
6
CONTINUOUS
10
0.855263
20
0.55244
11
0.839565
21
0.554674
0
LINE
8
BLACK
6
CONTINUOUS
10
0.839565
20
0.554674
11
0.824146
21
0.558376
0
LINE
8
BLACK
6
CONTINUOUS
10
0.824146
20
0.558376
11
0.809144
21
0.563512
0
LINE
8
BLACK
6
CONTINUOUS
10
0.809144
20
0.563512
11
0.794693
21
0.570037
0
LINE
8
BLACK
6
CONTINUOUS
10
0.794693
20
0.570037
11
0.780919
21
0.577894
0
LINE
8
BLACK
6
CONTINUOUS
10
0.780919
20
0.577894
11
0.767946
21
0.587011
0
LINE
8
BLACK
6
CONTINUOUS
10
0.767946
20
0.587011
11
0.755888
21
0.597309
0
LINE
8
BLACK
6
CONTINUOUS
10
0.755888
20
0.597309
11
0.744853
21
0.608697
0
LINE
8
BLACK
6
CONTINUOUS
10
0.744853
20
0.608697
11
0.734939
21
0.621072
0
LINE
8
BLACK
6
CONTINUOUS
10
0.734939
20
0.621072
11
0.726233
21
0.634325
0
LINE
8
BLACK
6
CONTINUOUS
10
0.726233
20
0.634325
11
0.718814
21
0.648338
0
LINE
8
BLACK
6
CONTINUOUS
10
0.718814
20
0.648338
11
0.712745
21
0.662988
0
LINE
8
BLACK
6
CONTINUOUS
10
0.712745
20
0.662988
11
0.708083
21
0.678144
0
LINE
8
BLACK
6
CONTINUOUS
10
0.708083
20
0.678144
11
0.704867
21
0.693671
0
LINE
8
BLACK
6
CONTINUOUS
10
0.704867
20
0.693671
11
0.703127
21
0.709432
0
LINE
8
BLACK
6
CONTINUOUS
10
0.703127
20
0.709432
11
0.702879
21
0.725231
0
LINE
8
BLACK
6
CONTINUOUS
10
0.702879
20
0.725231
11
0.702878
21
0.725287
0
LINE
8
BLACK
6
CONTINUOUS
10
0.702878
20
0.725287
11
0.704122
21
0.741094
0
LINE
8
BLACK
6
CONTINUOUS
10
0.706625
20
0.693949
11
0.709807
21
0.678586
0
LINE
8
BLACK
6
CONTINUOUS
10
0.709807
20
0.678586
11
0.71442
21
0.663591
0
LINE
8
BLACK
6
CONTINUOUS
10
0.71442
20
0.663591
11
0.720424
21
0.649096
0
LINE
8
BLACK
6
CONTINUOUS
10
0.720424
20
0.649096
11
0.727765
21
0.635231
0
LINE
8
BLACK
6
CONTINUOUS
10
0.727765
20
0.635231
11
0.736379
21
0.622118
0
LINE
8
BLACK
6
CONTINUOUS
10
0.736379
20
0.622118
11
0.746188
21
0.609874
0
LINE
8
BLACK
6
CONTINUOUS
10
0.746188
20
0.609874
11
0.757107
21
0.598607
0
LINE
8
BLACK
6
CONTINUOUS
10
0.757107
20
0.598607
11
0.769037
21
0.588418
0
LINE
8
BLACK
6
CONTINUOUS
10
0.769037
20
0.588418
11
0.781873
21
0.579396
0
LINE
8
BLACK
6
CONTINUOUS
10
0.781873
20
0.579396
11
0.795501
21
0.571623
0
LINE
8
BLACK
6
CONTINUOUS
10
0.795501
20
0.571623
11
0.8098
21
0.565167
0
LINE
8
BLACK
6
CONTINUOUS
10
0.8098
20
0.565167
11
0.824643
21
0.560085
0
LINE
8
BLACK
6
CONTINUOUS
10
0.824643
20
0.560085
11
0.839898
21
0.556422
0
LINE
8
BLACK
6
CONTINUOUS
10
0.839898
20
0.556422
11
0.855431
21
0.554212
0
LINE
8
BLACK
6
CONTINUOUS
10
0.855431
20
0.554212
11
0.871102
21
0.553473
0
LINE
8
BLACK
6
CONTINUOUS
10
0.871102
20
0.553473
11
0.886774
21
0.554212
0
LINE
8
BLACK
6
CONTINUOUS
10
0.886774
20
0.554212
11
0.902306
21
0.556422
0
LINE
8
BLACK
6
CONTINUOUS
10
0.902306
20
0.556422
11
0.917562
21
0.560085
0
LINE
8
BLACK
6
CONTINUOUS
10
0.917562
20
0.560085
11
0.932405
21
0.565167
0
LINE
8
BLACK
6
CONTINUOUS
10
0.932405
20
0.565167
11
0.946704
21
0.571623
0
LINE
8
BLACK
6
CONTINUOUS
10
0.946704
20
0.571623
11
0.960332
21
0.579396
0
LINE
8
BLACK
6
CONTINUOUS
10
0.960332
20
0.579396
11
0.973168
21
0.588418
0
LINE
8
BLACK
6
CONTINUOUS
10
0.973168
20
0.588418
11
0.985098
21
0.598607
0
LINE
8
BLACK
6
CONTINUOUS
10
0.985098
20
0.598607
11
0.996016
21
0.609874
0
LINE
8
BLACK
6
CONTINUOUS
10
0.996016
20
0.609874
11
1.00583
21
0.622118
0
LINE
8
BLACK
6
CONTINUOUS
10
1.00583
20
0.622118
11
1.01444
21
0.635231
0
LINE
8
BLACK
6
CONTINUOUS
10
1.01444
20
0.635231
11
1.02178
21
0.649096
0
LINE
8
BLACK
6
CONTINUOUS
10
1.02178
20
0.649096
11
1.02778
21
0.663591
0
LINE
8
BLACK
6
CONTINUOUS
10
1.02778
20
0.663591
11
1.0324
21
0.678586
0
LINE
8
BLACK
6
CONTINUOUS
10
1.0324
20
0.678586
11
1.03558
21
0.693949
0
LINE
8
BLACK
6
CONTINUOUS
10
1.03558
20
0.693949
11
1.0373
21
0.709544
0
LINE
8
BLACK
6
CONTINUOUS
10
1.0373
20
0.709544
11
1.03763
21
0.72
0
LINE
8
BLACK
6
CONTINUOUS
10
1.03763
20
0.72
11
1.03689
21
0.735672
0
LINE
8
BLACK
6
CONTINUOUS
10
1.03689
20
0.735672
11
1.03468
21
0.751204
0
LINE
8
BLACK
6
CONTINUOUS
10
1.03468
20
0.751204
11
1.03102
21
0.76646
0
LINE
8
BLACK
6
CONTINUOUS
10
1.03102
20
0.76646
11
1.02594
21
0.781303
0
LINE
8
BLACK
6
CONTINUOUS
10
1.02594
20
0.781303
11
1.01948
21
0.795602
0
LINE
8
BLACK
6
CONTINUOUS
10
1.01948
20
0.795602
11
1.01171
21
0.80923
0
LINE
8
BLACK
6
CONTINUOUS
10
1.01171
20
0.80923
11
1.00268
21
0.822066
0
LINE
8
BLACK
6
CONTINUOUS
10
1.00268
20
0.822066
11
0.992495
21
0.833996
0
LINE
8
BLACK
6
CONTINUOUS
10
0.992495
20
0.833996
11
0.981229
21
0.844914
0
LINE
8
BLACK
6
CONTINUOUS
10
0.981229
20
0.844914
11
0.968985
21
0.854723
0
LINE
8
BLACK
6
CONTINUOUS
10
0.968985
20
0.854723
11
0.955872
21
0.863337
0
LINE
8
BLACK
6
CONTINUOUS
10
0.955872
20
0.863337
11
0.942006
21
0.870678
0
LINE
8
BLACK
6
CONTINUOUS
10
0.942006
20
0.870678
11
0.927511
21
0.876682
0
LINE
8
BLACK
6
CONTINUOUS
10
0.927511
20
0.876682
11
0.912516
21
0.881295
0
LINE
8
BLACK
6
CONTINUOUS
10
0.912516
20
0.881295
11
0.897153
21
0.884477
0
LINE
8
BLACK
6
CONTINUOUS
10
0.897153
20
0.884477
11
0.881559
21
0.886199
0
LINE
8
BLACK
6
CONTINUOUS
10
0.881559
20
0.886199
11
0.865872
21
0.886445
0
LINE
8
BLACK
6
CONTINUOUS
10
0.865872
20
0.886445
11
0.850231
21
0.885214
0
LINE
8
BLACK
6
CONTINUOUS
10
0.850231
20
0.885214
11
0.834776
21
0.882517
0
LINE
8
BLACK
6
CONTINUOUS
10
0.834776
20
0.882517
11
0.819643
21
0.878377
0
LINE
8
BLACK
6
CONTINUOUS
10
0.819643
20
0.878377
11
0.804966
21
0.872831
0
LINE
8
BLACK
6
CONTINUOUS
10
0.804966
20
0.872831
11
0.790877
21
0.865929
0
LINE
8
BLACK
6
CONTINUOUS
10
0.790877
20
0.865929
11
0.7775
21
0.857731
0
LINE
8
BLACK
6
CONTINUOUS
10
0.7775
20
0.857731
11
0.764954
21
0.848311
0
LINE
8
BLACK
6
CONTINUOUS
10
0.764954
20
0.848311
11
0.75335
21
0.837753
0
LINE
8
BLACK
6
CONTINUOUS
10
0.75335
20
0.837753
11
0.742791
21
0.826148
0
LINE
8
BLACK
6
CONTINUOUS
10
0.742791
20
0.826148
11
0.733371
21
0.813602
0
LINE
8
BLACK
6
CONTINUOUS
10
0.733371
20
0.813602
11
0.725173
21
0.800225
0
LINE
8
BLACK
6
CONTINUOUS
10
0.725173
20
0.800225
11
0.718271
21
0.786136
0
LINE
8
BLACK
6
CONTINUOUS
10
0.718271
20
0.786136
11
0.712726
21
0.77146
0
LINE
8
BLACK
6
CONTINUOUS
10
0.712726
20
0.77146
11
0.708586
21
0.756327
0
LINE
8
BLACK
6
CONTINUOUS
10
0.708586
20
0.756327
11
0.705888
21
0.740871
0
LINE
8
BLACK
6
CONTINUOUS
10
0.705888
20
0.740871
11
0.704657
21
0.725231
0
LINE
8
BLACK
6
CONTINUOUS
10
0.704657
20
0.725231
11
0.704904
21
0.709544
0
LINE
8
BLACK
6
CONTINUOUS
10
0.704904
20
0.709544
11
0.706625
21
0.693949
  0
ENDSEC
  0
EOF
