<?xml version='1.0' encoding='ASCII' standalone='yes'?>
<svg xmlns:svg="http://www.w3.org/2000/svg" xmlns="http://www.w3.org/2000/svg" xmlns:xlink="http://www.w3.org/1999/xlink" version="1.1" width="29.700220cm" height="21.000720cm" viewBox="0 0 2970022 2100072">
<title>SVG Picture created as GPS02B-B_Fab.svg date 2023/02/14 08:11:15 </title>
  <desc>Picture generated by PCBNEW </desc>
<g style="fill:#000084; fill-opacity:1.000000;stroke:#000084; stroke-opacity:1.000000; stroke-linecap:round; stroke-linejoin:round;" transform="translate(0 0) scale(1 1)">
</g>
<g style="fill:#000084; fill-opacity:0.0;  stroke:#000084; stroke-width:0.000000; stroke-opacity:1;  stroke-linecap:round; stroke-linejoin:round;">
</g>
<g style="fill:#000084; fill-opacity:0.01;  stroke:#000084; stroke-width:3778.242678; stroke-opacity:1;  stroke-linecap:round; stroke-linejoin:round;">
<g transform="rotate(-90.000000 1390554.923731 1241144.797878)">
<text x="1390554.923731" y="1249799.609594" transform="scale(-1 1) translate(-2781109.847462 0)" textLength="33794.931308" font-size="23079.486377" lengthAdjust="spacingAndGlyphs" text-anchor="middle" opacity="0.01" style="font-family:monospace">C3</text>
</g>
<g class="stroked-text"><desc>C3</desc>
<path d="M1396736 1238259 L1397561 1237435 L1398385 1234962 L1398385 1233314 L1397561 1230841 L1395912 1229192 L1394264 1228368 L1390967 1227544 L1388494 1227544 L1385197 1228368 L1383548 1229192 L1381900 1230841 L1381075 1233314 L1381075 1234962 L1381900 1237435 L1382724 1238259 "/>
<path d="M1381075 1244029 L1381075 1254745 L1387669 1248975 L1387669 1251448 L1388494 1253096 L1389318 1253920 L1390967 1254745 L1395088 1254745 L1396736 1253920 L1397561 1253096 L1398385 1251448 L1398385 1246502 L1397561 1244854 L1396736 1244029 "/>
</g><g transform="rotate(-90.000000 1414718.103647 1245538.103318)">
<text x="1414718.103647" y="1254192.915033" transform="scale(-1 1) translate(-2829436.207294 0)" textLength="42071.538233" font-size="23079.486377" lengthAdjust="spacingAndGlyphs" text-anchor="middle" opacity="0.01" style="font-family:monospace">1uF</text>
</g>
<g class="stroked-text"><desc>1uF</desc>
<path d="M1422548 1235234 L1422548 1225343 "/>
<path d="M1422548 1230289 L1405239 1230289 L1407711 1228640 L1409360 1226992 L1410184 1225343 "/>
<path d="M1411008 1250071 L1422548 1250071 "/>
<path d="M1411008 1242653 L1420075 1242653 L1421724 1243477 L1422548 1245125 L1422548 1247598 L1421724 1249247 L1420900 1250071 "/>
<path d="M1413481 1264084 L1413481 1258314 "/>
<path d="M1422548 1258314 L1405239 1258314 L1405239 1266556 "/>
</g><g transform="rotate(-90.000000 1869425.216618 542609.233025)">
<text x="1869425.216618" y="551264.044740" transform="scale(-1 1) translate(-3738850.433236 0)" textLength="28883.250420" font-size="23079.486377" lengthAdjust="spacingAndGlyphs" text-anchor="middle" opacity="0.01" style="font-family:monospace">C6</text>
</g>
<g class="stroked-text"><desc>C6</desc>
<path d="M1875607 539724 L1876431 538900 L1877255 536427 L1877255 534778 L1876431 532305 L1874782 530657 L1873134 529833 L1869837 529008 L1867364 529008 L1864067 529833 L1862418 530657 L1860770 532305 L1859946 534778 L1859946 536427 L1860770 538900 L1861594 539724 "/>
<path d="M1859946 554561 L1859946 551264 L1860770 549615 L1861594 548791 L1864067 547142 L1867364 546318 L1873958 546318 L1875607 547142 L1876431 547966 L1877255 549615 L1877255 552912 L1876431 554561 L1875607 555385 L1873958 556209 L1869837 556209 L1868188 555385 L1867364 554561 L1866540 552912 L1866540 549615 L1867364 547966 L1868188 547142 L1869837 546318 "/>
</g><g transform="rotate(-90.000000 1845262.036701 538215.927585)">
<text x="1845262.036701" y="546870.739301" transform="scale(-1 1) translate(-3690524.073403 0)" textLength="42071.538233" font-size="23079.486377" lengthAdjust="spacingAndGlyphs" text-anchor="middle" opacity="0.01" style="font-family:monospace">1uF</text>
</g>
<g class="stroked-text"><desc>1uF</desc>
<path d="M1853092 527912 L1853092 518021 "/>
<path d="M1853092 522967 L1835782 522967 L1838255 521318 L1839904 519669 L1840728 518021 "/>
<path d="M1841552 542749 L1853092 542749 "/>
<path d="M1841552 535331 L1850619 535331 L1852268 536155 L1853092 537803 L1853092 540276 L1852268 541925 L1851444 542749 "/>
<path d="M1844025 556761 L1844025 550992 "/>
<path d="M1853092 550992 L1835782 550992 L1835782 559234 "/>
</g><text x="2190136.513689" y="643523.458966" transform="scale(-1 1) translate(-4380273.027378 0)" textLength="28883.250420" font-size="23079.486377" lengthAdjust="spacingAndGlyphs" text-anchor="middle" opacity="0.01" style="font-family:monospace">C7</text>
<g class="stroked-text"><desc>C7</desc>
<path d="M2193021 641050 L2193845 641874 L2196318 642699 L2197967 642699 L2200439 641874 L2202088 640226 L2202912 638577 L2203736 635280 L2203736 632807 L2202912 629510 L2202088 627862 L2200439 626213 L2197967 625389 L2196318 625389 L2193845 626213 L2193021 627038 "/>
<path d="M2187251 625389 L2175711 625389 L2183130 642699 "/>
</g><text x="2194529.819128" y="619360.279050" transform="scale(-1 1) translate(-4389059.638257 0)" textLength="58556.915297" font-size="23079.486377" lengthAdjust="spacingAndGlyphs" text-anchor="middle" opacity="0.01" style="font-family:monospace">47pF</text>
<g class="stroked-text"><desc>47pF</desc>
<path d="M2214724 606996 L2214724 618536 "/>
<path d="M2218845 600402 L2222967 612766 L2212251 612766 "/>
<path d="M2207305 601226 L2195766 601226 L2203184 618536 "/>
<path d="M2189172 606996 L2189172 624305 "/>
<path d="M2189172 607820 L2187523 606996 L2184226 606996 L2182577 607820 L2181753 608644 L2180929 610293 L2180929 615238 L2181753 616887 L2182577 617711 L2184226 618536 L2187523 618536 L2189172 617711 "/>
<path d="M2167741 609469 L2173510 609469 "/>
<path d="M2173510 618536 L2173510 601226 L2165268 601226 "/>
</g></g>
<g style="fill:#000084; fill-opacity:0.01;  stroke:#000084; stroke-width:5188.943432; stroke-opacity:1;  stroke-linecap:round; stroke-linejoin:round;">
<text x="1353211.827496" y="935533.326195" transform="scale(-1 1) translate(-2706423.654993 0)" textLength="62626.914967" font-size="46123.930089" lengthAdjust="spacingAndGlyphs" text-anchor="middle" opacity="0.01" style="font-family:monospace">D1</text>
<g class="stroked-text"><desc>D1</desc>
<path d="M1378744 933886 L1378744 899293 L1370508 899293 L1365566 900940 L1362271 904234 L1360624 907529 L1358977 914118 L1358977 919060 L1360624 925649 L1362271 928944 L1365566 932238 L1370508 933886 L1378744 933886 "/>
<path d="M1326031 933886 L1345799 933886 "/>
<path d="M1335915 933886 L1335915 899293 L1339209 904234 L1342504 907529 L1345799 909176 "/>
</g><text x="1111580.028333" y="1423190.229961" transform="scale(-1 1) translate(-2223160.056667 0)" textLength="60793.003986" font-size="46123.930089" lengthAdjust="spacingAndGlyphs" text-anchor="middle" opacity="0.01" style="font-family:monospace">D2</text>
<g class="stroked-text"><desc>D2</desc>
<path d="M1137112 1421542 L1137112 1386949 L1128876 1386949 L1123934 1388597 L1120640 1391891 L1118992 1395186 L1117345 1401775 L1117345 1406717 L1118992 1413306 L1120640 1416601 L1123934 1419895 L1128876 1421542 L1137112 1421542 "/>
<path d="M1104167 1390244 L1102519 1388597 L1099225 1386949 L1090988 1386949 L1087694 1388597 L1086047 1390244 L1084399 1393539 L1084399 1396833 L1086047 1401775 L1105814 1421542 L1084399 1421542 "/>
</g><g transform="rotate(-90.000000 819864.547162 463090.404573)">
<text x="819864.547162" y="485056.931770" transform="scale(-1 1) translate(-1639729.094323 0)" textLength="37187.427931" font-size="58577.394327" lengthAdjust="spacingAndGlyphs" text-anchor="middle" opacity="0.01" style="font-family:monospace">K</text>
</g>
<g class="stroked-text"><desc>K</desc>
<path d="M839738 451584 L795805 451584 "/>
<path d="M839738 476688 L814634 457860 "/>
<path d="M795805 476688 L820910 451584 "/>
</g><g transform="rotate(-90.000000 821621.869337 659031.827167)">
<text x="821621.869337" y="680998.354364" transform="scale(-1 1) translate(-1643243.738675 0)" textLength="79028.438705" font-size="58577.394327" lengthAdjust="spacingAndGlyphs" text-anchor="middle" opacity="0.01" style="font-family:monospace">D3</text>
</g>
<g class="stroked-text"><desc>D3</desc>
<path d="M841496 626605 L797563 626605 L797563 637065 L799655 643341 L803839 647525 L808023 649617 L816391 651709 L822667 651709 L831036 649617 L835220 647525 L839404 643341 L841496 637065 L841496 626605 "/>
<path d="M797563 666354 L797563 693550 L814299 678906 L814299 685182 L816391 689366 L818483 691458 L822667 693550 L833128 693550 L837312 691458 L839404 689366 L841496 685182 L841496 672630 L839404 668446 L837312 666354 "/>
</g><g transform="rotate(-90.000000 951663.710342 463090.404573)">
<text x="951663.710342" y="485056.931770" transform="scale(-1 1) translate(-1903327.420683 0)" textLength="37187.427931" font-size="58577.394327" lengthAdjust="spacingAndGlyphs" text-anchor="middle" opacity="0.01" style="font-family:monospace">K</text>
</g>
<g class="stroked-text"><desc>K</desc>
<path d="M971538 451584 L927605 451584 "/>
<path d="M971538 476688 L946433 457860 "/>
<path d="M927605 476688 L952709 451584 "/>
</g><g transform="rotate(-90.000000 957814.337957 659031.827167)">
<text x="957814.337957" y="680998.354364" transform="scale(-1 1) translate(-1915628.675913 0)" textLength="79028.438705" font-size="58577.394327" lengthAdjust="spacingAndGlyphs" text-anchor="middle" opacity="0.01" style="font-family:monospace">D5</text>
</g>
<g class="stroked-text"><desc>D5</desc>
<path d="M977688 626605 L933755 626605 L933755 637065 L935847 643341 L940031 647525 L944215 649617 L952584 651709 L958860 651709 L967228 649617 L971412 647525 L975596 643341 L977688 637065 L977688 626605 "/>
<path d="M933755 691458 L933755 670538 L954676 668446 L952584 670538 L950492 674722 L950492 685182 L952584 689366 L954676 691458 L958860 693550 L969320 693550 L973504 691458 L975596 689366 L977688 685182 L977688 674722 L975596 670538 L973504 668446 "/>
</g><g transform="rotate(-90.000000 1197688.814944 461983.429974)">
<text x="1197688.814944" y="483949.957171" transform="scale(-1 1) translate(-2395377.629888 0)" textLength="37187.427931" font-size="58577.394327" lengthAdjust="spacingAndGlyphs" text-anchor="middle" opacity="0.01" style="font-family:monospace">K</text>
</g>
<g class="stroked-text"><desc>K</desc>
<path d="M1217563 450477 L1173630 450477 "/>
<path d="M1217563 475581 L1192458 456753 "/>
<path d="M1173630 475581 L1198734 450477 "/>
</g><g transform="rotate(-90.000000 1199446.137120 654638.521728)">
<text x="1199446.137120" y="676605.048924" transform="scale(-1 1) translate(-2398892.274240 0)" textLength="79028.438705" font-size="58577.394327" lengthAdjust="spacingAndGlyphs" text-anchor="middle" opacity="0.01" style="font-family:monospace">D6</text>
</g>
<g class="stroked-text"><desc>D6</desc>
<path d="M1219320 622211 L1175387 622211 L1175387 632671 L1177479 638948 L1181663 643132 L1185847 645224 L1194215 647316 L1200492 647316 L1208860 645224 L1213044 643132 L1217228 638948 L1219320 632671 L1219320 622211 "/>
<path d="M1175387 684973 L1175387 676605 L1177479 672420 L1179571 670328 L1185847 666144 L1194215 664052 L1210952 664052 L1215136 666144 L1217228 668236 L1219320 672420 L1219320 680789 L1217228 684973 L1215136 687065 L1210952 689157 L1200492 689157 L1196308 687065 L1194215 684973 L1192123 680789 L1192123 672420 L1194215 668236 L1196308 666144 L1200492 664052 "/>
</g></g>
<g style="fill:#000084; fill-opacity:0.01;  stroke:#000084; stroke-width:4151.154746; stroke-opacity:1;  stroke-linecap:round; stroke-linejoin:round;">
<text x="1133650.334399" y="1323078.214674" transform="scale(-1 1) translate(-2267300.668797 0)" textLength="42013.975554" font-size="36899.130234" lengthAdjust="spacingAndGlyphs" text-anchor="middle" opacity="0.01" style="font-family:monospace">L1</text>
<g class="stroked-text"><desc>L1</desc>
<path d="M1138262 1321760 L1151440 1321760 L1151440 1294086 "/>
<path d="M1114541 1321760 L1130355 1321760 "/>
<path d="M1122448 1321760 L1122448 1294086 L1125084 1298039 L1127720 1300675 L1130355 1301993 "/>
</g></g>
<g style="fill:#000084; fill-opacity:0.0;  stroke:#000084; stroke-width:1383.718249; stroke-opacity:1;  stroke-linecap:round; stroke-linejoin:round;">
<g transform="rotate(-90.000000 2106681.006820 813800.713274)">
<text x="2106681.006820" y="818124.832801" transform="scale(-1 1) translate(-4213362.013640 0)" textLength="9840.865812" font-size="11530.973874" lengthAdjust="spacingAndGlyphs" text-anchor="middle" opacity="0.01" style="font-family:monospace">L2</text>
</g>
<g class="stroked-text"><desc>L2</desc>
<path d="M2110593 812359 L2110593 808241 L2101945 808241 "/>
<path d="M2102768 814830 L2102356 815242 L2101945 816065 L2101945 818124 L2102356 818948 L2102768 819360 L2103592 819772 L2104415 819772 L2105651 819360 L2110593 814418 L2110593 819772 "/>
</g></g>
<g style="fill:#000084; fill-opacity:0.01;  stroke:#000084; stroke-width:3778.242678; stroke-opacity:1;  stroke-linecap:round; stroke-linejoin:round;">
<g transform="rotate(-90.000000 1412521.450927 1113738.940138)">
<text x="1412521.450927" y="1122393.751853" transform="scale(-1 1) translate(-2825042.901855 0)" textLength="31996.132178" font-size="23079.486377" lengthAdjust="spacingAndGlyphs" text-anchor="middle" opacity="0.01" style="font-family:monospace">R1</text>
</g>
<g class="stroked-text"><desc>R1</desc>
<path d="M1420351 1110854 L1412109 1105084 "/>
<path d="M1420351 1100962 L1403042 1100962 L1403042 1107556 L1403866 1109205 L1404690 1110029 L1406339 1110854 L1408812 1110854 L1410460 1110029 L1411285 1109205 L1412109 1107556 L1412109 1100962 "/>
<path d="M1420351 1127339 L1420351 1117448 "/>
<path d="M1420351 1122393 L1403042 1122393 L1405515 1120745 L1407163 1119096 L1407987 1117448 "/>
</g><g transform="rotate(-90.000000 1388358.271011 1109345.634698)">
<text x="1388358.271011" y="1118000.446414" transform="scale(-1 1) translate(-2776716.542022 0)" textLength="45368.627483" font-size="23079.486377" lengthAdjust="spacingAndGlyphs" text-anchor="middle" opacity="0.01" style="font-family:monospace">22R</text>
</g>
<g class="stroked-text"><desc>22R</desc>
<path d="M1380527 1087502 L1379703 1088326 L1378879 1089975 L1378879 1094096 L1379703 1095745 L1380527 1096569 L1382176 1097393 L1383824 1097393 L1386297 1096569 L1396188 1086678 L1396188 1097393 "/>
<path d="M1380527 1103987 L1379703 1104812 L1378879 1106460 L1378879 1110582 L1379703 1112230 L1380527 1113054 L1382176 1113879 L1383824 1113879 L1386297 1113054 L1396188 1103163 L1396188 1113879 "/>
<path d="M1396188 1131188 L1387946 1125418 "/>
<path d="M1396188 1121297 L1378879 1121297 L1378879 1127891 L1379703 1129540 L1380527 1130364 L1382176 1131188 L1384649 1131188 L1386297 1130364 L1387121 1129540 L1387946 1127891 L1387946 1121297 "/>
</g><text x="2036370.823312" y="1390385.383652" transform="scale(-1 1) translate(-4072741.646625 0)" textLength="28883.250420" font-size="23079.486377" lengthAdjust="spacingAndGlyphs" text-anchor="middle" opacity="0.01" style="font-family:monospace">R2</text>
<g class="stroked-text"><desc>R2</desc>
<path d="M2039255 1389561 L2045025 1381318 "/>
<path d="M2049146 1389561 L2049146 1372251 L2042552 1372251 L2040904 1373075 L2040080 1373900 L2039255 1375548 L2039255 1378021 L2040080 1379669 L2040904 1380494 L2042552 1381318 L2049146 1381318 "/>
<path d="M2032661 1373900 L2031837 1373075 L2030188 1372251 L2026067 1372251 L2024418 1373075 L2023594 1373900 L2022770 1375548 L2022770 1377197 L2023594 1379669 L2033485 1389561 L2022770 1389561 "/>
</g><text x="2040764.128752" y="1366222.203736" transform="scale(-1 1) translate(-4081528.257503 0)" textLength="42071.538233" font-size="23079.486377" lengthAdjust="spacingAndGlyphs" text-anchor="middle" opacity="0.01" style="font-family:monospace">10k</text>
<g class="stroked-text"><desc>10k</desc>
<path d="M2051067 1365397 L2060958 1365397 "/>
<path d="M2056013 1365397 L2056013 1348088 L2057661 1350561 L2059310 1352209 L2060958 1353033 "/>
<path d="M2040351 1348088 L2038703 1348088 L2037054 1348912 L2036230 1349736 L2035406 1351385 L2034582 1354682 L2034582 1358803 L2035406 1362100 L2036230 1363749 L2037054 1364573 L2038703 1365397 L2040351 1365397 L2042000 1364573 L2042824 1363749 L2043649 1362100 L2044473 1358803 L2044473 1354682 L2043649 1351385 L2042824 1349736 L2042000 1348912 L2040351 1348088 "/>
<path d="M2027163 1365397 L2027163 1348088 "/>
<path d="M2025515 1358803 L2020569 1365397 "/>
<path d="M2020569 1353858 L2027163 1360452 "/>
</g><text x="1913358.271011" y="1368418.856456" transform="scale(-1 1) translate(-3826716.542022 0)" textLength="28883.250420" font-size="23079.486377" lengthAdjust="spacingAndGlyphs" text-anchor="middle" opacity="0.01" style="font-family:monospace">R3</text>
<g class="stroked-text"><desc>R3</desc>
<path d="M1916243 1367594 L1922013 1359351 "/>
<path d="M1926134 1367594 L1926134 1350284 L1919540 1350284 L1917891 1351109 L1917067 1351933 L1916243 1353582 L1916243 1356054 L1917067 1357703 L1917891 1358527 L1919540 1359351 L1926134 1359351 "/>
<path d="M1910473 1350284 L1899757 1350284 L1905527 1356879 L1903054 1356879 L1901406 1357703 L1900582 1358527 L1899757 1360176 L1899757 1364297 L1900582 1365946 L1901406 1366770 L1903054 1367594 L1908000 1367594 L1909649 1366770 L1910473 1365946 "/>
</g><text x="1908964.965572" y="1392582.036372" transform="scale(-1 1) translate(-3817929.931144 0)" textLength="42071.538233" font-size="23079.486377" lengthAdjust="spacingAndGlyphs" text-anchor="middle" opacity="0.01" style="font-family:monospace">10k</text>
<g class="stroked-text"><desc>10k</desc>
<path d="M1919268 1391757 L1929159 1391757 "/>
<path d="M1924213 1391757 L1924213 1374448 L1925862 1376920 L1927510 1378569 L1929159 1379393 "/>
<path d="M1908552 1374448 L1906904 1374448 L1905255 1375272 L1904431 1376096 L1903607 1377745 L1902782 1381042 L1902782 1385163 L1903607 1388460 L1904431 1390109 L1905255 1390933 L1906904 1391757 L1908552 1391757 L1910201 1390933 L1911025 1390109 L1911849 1388460 L1912674 1385163 L1912674 1381042 L1911849 1377745 L1911025 1376096 L1910201 1375272 L1908552 1374448 "/>
<path d="M1895364 1391757 L1895364 1374448 "/>
<path d="M1893716 1385163 L1888770 1391757 "/>
<path d="M1888770 1380218 L1895364 1386812 "/>
</g><text x="1645366.639212" y="621556.931770" transform="scale(-1 1) translate(-3290733.278424 0)" textLength="28883.250420" font-size="23079.486377" lengthAdjust="spacingAndGlyphs" text-anchor="middle" opacity="0.01" style="font-family:monospace">R4</text>
<g class="stroked-text"><desc>R4</desc>
<path d="M1648251 620732 L1654021 612490 "/>
<path d="M1658142 620732 L1658142 603423 L1651548 603423 L1649900 604247 L1649075 605071 L1648251 606720 L1648251 609192 L1649075 610841 L1649900 611665 L1651548 612490 L1658142 612490 "/>
<path d="M1633414 609192 L1633414 620732 "/>
<path d="M1637536 602598 L1641657 614962 L1630941 614962 "/>
</g><text x="1640973.333773" y="645720.111686" transform="scale(-1 1) translate(-3281946.667545 0)" textLength="45368.627483" font-size="23079.486377" lengthAdjust="spacingAndGlyphs" text-anchor="middle" opacity="0.01" style="font-family:monospace">33R</text>
<g class="stroked-text"><desc>33R</desc>
<path d="M1663640 627586 L1652925 627586 L1658695 634180 L1656222 634180 L1654573 635004 L1653749 635828 L1652925 637477 L1652925 641598 L1653749 643247 L1654573 644071 L1656222 644895 L1661167 644895 L1662816 644071 L1663640 643247 "/>
<path d="M1647155 627586 L1636439 627586 L1642209 634180 L1639736 634180 L1638088 635004 L1637264 635828 L1636439 637477 L1636439 641598 L1637264 643247 L1638088 644071 L1639736 644895 L1644682 644895 L1646331 644071 L1647155 643247 "/>
<path d="M1619130 644895 L1624900 636653 "/>
<path d="M1629021 644895 L1629021 627586 L1622427 627586 L1620778 628410 L1619954 629234 L1619130 630883 L1619130 633356 L1619954 635004 L1620778 635828 L1622427 636653 L1629021 636653 "/>
</g><g transform="rotate(-90.000000 1706872.915363 1307044.379468)">
<text x="1706872.915363" y="1315699.191184" transform="scale(-1 1) translate(-3413745.830725 0)" textLength="28883.250420" font-size="23079.486377" lengthAdjust="spacingAndGlyphs" text-anchor="middle" opacity="0.01" style="font-family:monospace">R6</text>
</g>
<g class="stroked-text"><desc>R6</desc>
<path d="M1714703 1304159 L1706460 1298389 "/>
<path d="M1714703 1294268 L1697393 1294268 L1697393 1300862 L1698218 1302510 L1699042 1303335 L1700690 1304159 L1703163 1304159 L1704812 1303335 L1705636 1302510 L1706460 1300862 L1706460 1294268 "/>
<path d="M1697393 1318996 L1697393 1315699 L1698218 1314050 L1699042 1313226 L1701515 1311577 L1704812 1310753 L1711406 1310753 L1713054 1311577 L1713879 1312402 L1714703 1314050 L1714703 1317347 L1713879 1318996 L1713054 1319820 L1711406 1320644 L1707285 1320644 L1705636 1319820 L1704812 1318996 L1703987 1317347 L1703987 1314050 L1704812 1312402 L1705636 1311577 L1707285 1310753 "/>
</g><g transform="rotate(-90.000000 1731036.095279 1311437.684908)">
<text x="1731036.095279" y="1320092.496623" transform="scale(-1 1) translate(-3462072.190558 0)" textLength="45368.627483" font-size="23079.486377" lengthAdjust="spacingAndGlyphs" text-anchor="middle" opacity="0.01" style="font-family:monospace">33R</text>
</g>
<g class="stroked-text"><desc>33R</desc>
<path d="M1721557 1288770 L1721557 1299485 L1728151 1293715 L1728151 1296188 L1728975 1297837 L1729799 1298661 L1731448 1299485 L1735569 1299485 L1737218 1298661 L1738042 1297837 L1738866 1296188 L1738866 1291243 L1738042 1289594 L1737218 1288770 "/>
<path d="M1721557 1305255 L1721557 1315971 L1728151 1310201 L1728151 1312674 L1728975 1314322 L1729799 1315146 L1731448 1315971 L1735569 1315971 L1737218 1315146 L1738042 1314322 L1738866 1312674 L1738866 1307728 L1738042 1306079 L1737218 1305255 "/>
<path d="M1738866 1333280 L1730623 1327510 "/>
<path d="M1738866 1323389 L1721557 1323389 L1721557 1329983 L1722381 1331632 L1723205 1332456 L1724854 1333280 L1727326 1333280 L1728975 1332456 L1729799 1331632 L1730623 1329983 L1730623 1323389 "/>
</g><g transform="rotate(-90.000000 1619006.806576 1307044.379468)">
<text x="1619006.806576" y="1315699.191184" transform="scale(-1 1) translate(-3238013.613152 0)" textLength="28883.250420" font-size="23079.486377" lengthAdjust="spacingAndGlyphs" text-anchor="middle" opacity="0.01" style="font-family:monospace">R7</text>
</g>
<g class="stroked-text"><desc>R7</desc>
<path d="M1626837 1304159 L1618594 1298389 "/>
<path d="M1626837 1294268 L1609527 1294268 L1609527 1300862 L1610351 1302510 L1611176 1303335 L1612824 1304159 L1615297 1304159 L1616946 1303335 L1617770 1302510 L1618594 1300862 L1618594 1294268 "/>
<path d="M1609527 1309929 L1609527 1321469 L1626837 1314050 "/>
</g><g transform="rotate(-90.000000 1643169.986492 1311437.684908)">
<text x="1643169.986492" y="1320092.496623" transform="scale(-1 1) translate(-3286339.972985 0)" textLength="45368.627483" font-size="23079.486377" lengthAdjust="spacingAndGlyphs" text-anchor="middle" opacity="0.01" style="font-family:monospace">33R</text>
</g>
<g class="stroked-text"><desc>33R</desc>
<path d="M1633690 1288770 L1633690 1299485 L1640285 1293715 L1640285 1296188 L1641109 1297837 L1641933 1298661 L1643582 1299485 L1647703 1299485 L1649351 1298661 L1650176 1297837 L1651000 1296188 L1651000 1291243 L1650176 1289594 L1649351 1288770 "/>
<path d="M1633690 1305255 L1633690 1315971 L1640285 1310201 L1640285 1312674 L1641109 1314322 L1641933 1315146 L1643582 1315971 L1647703 1315971 L1649351 1315146 L1650176 1314322 L1651000 1312674 L1651000 1307728 L1650176 1306079 L1649351 1305255 "/>
<path d="M1651000 1333280 L1642757 1327510 "/>
<path d="M1651000 1323389 L1633690 1323389 L1633690 1329983 L1634515 1331632 L1635339 1332456 L1636987 1333280 L1639460 1333280 L1641109 1332456 L1641933 1331632 L1642757 1329983 L1642757 1323389 "/>
</g><text x="1939718.103647" y="1311305.885744" transform="scale(-1 1) translate(-3879436.207294 0)" textLength="28883.250420" font-size="23079.486377" lengthAdjust="spacingAndGlyphs" text-anchor="middle" opacity="0.01" style="font-family:monospace">R8</text>
<g class="stroked-text"><desc>R8</desc>
<path d="M1942603 1310481 L1948372 1302238 "/>
<path d="M1952494 1310481 L1952494 1293172 L1945900 1293172 L1944251 1293996 L1943427 1294820 L1942603 1296469 L1942603 1298941 L1943427 1300590 L1944251 1301414 L1945900 1302238 L1952494 1302238 "/>
<path d="M1932711 1300590 L1934360 1299766 L1935184 1298941 L1936008 1297293 L1936008 1296469 L1935184 1294820 L1934360 1293996 L1932711 1293172 L1929414 1293172 L1927766 1293996 L1926941 1294820 L1926117 1296469 L1926117 1297293 L1926941 1298941 L1927766 1299766 L1929414 1300590 L1932711 1300590 L1934360 1301414 L1935184 1302238 L1936008 1303887 L1936008 1307184 L1935184 1308833 L1934360 1309657 L1932711 1310481 L1929414 1310481 L1927766 1309657 L1926941 1308833 L1926117 1307184 L1926117 1303887 L1926941 1302238 L1927766 1301414 L1929414 1300590 "/>
</g><text x="1944111.409086" y="1287142.705828" transform="scale(-1 1) translate(-3888222.818173 0)" textLength="45368.627483" font-size="23079.486377" lengthAdjust="spacingAndGlyphs" text-anchor="middle" opacity="0.01" style="font-family:monospace">33R</text>
<g class="stroked-text"><desc>33R</desc>
<path d="M1966778 1269008 L1956063 1269008 L1961833 1275602 L1959360 1275602 L1957711 1276427 L1956887 1277251 L1956063 1278900 L1956063 1283021 L1956887 1284669 L1957711 1285494 L1959360 1286318 L1964305 1286318 L1965954 1285494 L1966778 1284669 "/>
<path d="M1950293 1269008 L1939577 1269008 L1945347 1275602 L1942874 1275602 L1941226 1276427 L1940402 1277251 L1939577 1278900 L1939577 1283021 L1940402 1284669 L1941226 1285494 L1942874 1286318 L1947820 1286318 L1949469 1285494 L1950293 1284669 "/>
<path d="M1922268 1286318 L1928038 1278075 "/>
<path d="M1932159 1286318 L1932159 1269008 L1925565 1269008 L1923916 1269833 L1923092 1270657 L1922268 1272305 L1922268 1274778 L1923092 1276427 L1923916 1277251 L1925565 1278075 L1932159 1278075 "/>
</g><g transform="rotate(-90.000000 1794739.024149 1307044.379468)">
<text x="1794739.024149" y="1315699.191184" transform="scale(-1 1) translate(-3589478.048298 0)" textLength="28883.250420" font-size="23079.486377" lengthAdjust="spacingAndGlyphs" text-anchor="middle" opacity="0.01" style="font-family:monospace">R9</text>
</g>
<g class="stroked-text"><desc>R9</desc>
<path d="M1802569 1304159 L1794326 1298389 "/>
<path d="M1802569 1294268 L1785259 1294268 L1785259 1300862 L1786084 1302510 L1786908 1303335 L1788556 1304159 L1791029 1304159 L1792678 1303335 L1793502 1302510 L1794326 1300862 L1794326 1294268 "/>
<path d="M1802569 1312402 L1802569 1315699 L1801745 1317347 L1800921 1318171 L1798448 1319820 L1795151 1320644 L1788556 1320644 L1786908 1319820 L1786084 1318996 L1785259 1317347 L1785259 1314050 L1786084 1312402 L1786908 1311577 L1788556 1310753 L1792678 1310753 L1794326 1311577 L1795151 1312402 L1795975 1314050 L1795975 1317347 L1795151 1318996 L1794326 1319820 L1792678 1320644 "/>
</g><g transform="rotate(-90.000000 1818902.204065 1311437.684908)">
<text x="1818902.204065" y="1320092.496623" transform="scale(-1 1) translate(-3637804.408131 0)" textLength="45368.627483" font-size="23079.486377" lengthAdjust="spacingAndGlyphs" text-anchor="middle" opacity="0.01" style="font-family:monospace">33R</text>
</g>
<g class="stroked-text"><desc>33R</desc>
<path d="M1809423 1288770 L1809423 1299485 L1816017 1293715 L1816017 1296188 L1816841 1297837 L1817665 1298661 L1819314 1299485 L1823435 1299485 L1825084 1298661 L1825908 1297837 L1826732 1296188 L1826732 1291243 L1825908 1289594 L1825084 1288770 "/>
<path d="M1809423 1305255 L1809423 1315971 L1816017 1310201 L1816017 1312674 L1816841 1314322 L1817665 1315146 L1819314 1315971 L1823435 1315971 L1825084 1315146 L1825908 1314322 L1826732 1312674 L1826732 1307728 L1825908 1306079 L1825084 1305255 "/>
<path d="M1826732 1333280 L1818490 1327510 "/>
<path d="M1826732 1323389 L1809423 1323389 L1809423 1329983 L1810247 1331632 L1811071 1332456 L1812720 1333280 L1815192 1333280 L1816841 1332456 L1817665 1331632 L1818490 1329983 L1818490 1323389 "/>
</g><g transform="rotate(-90.000000 832605.132936 366877.015452)">
<text x="832605.132936" y="375531.827167" transform="scale(-1 1) translate(-1665210.265872 0)" textLength="45368.627483" font-size="23079.486377" lengthAdjust="spacingAndGlyphs" text-anchor="middle" opacity="0.01" style="font-family:monospace">R10</text>
</g>
<g class="stroked-text"><desc>R10</desc>
<path d="M840435 355749 L832192 349979 "/>
<path d="M840435 345858 L823126 345858 L823126 352452 L823950 354100 L824774 354925 L826423 355749 L828895 355749 L830544 354925 L831368 354100 L832192 352452 L832192 345858 "/>
<path d="M840435 372234 L840435 362343 "/>
<path d="M840435 367289 L823126 367289 L825598 365640 L827247 363992 L828071 362343 "/>
<path d="M823126 382950 L823126 384598 L823950 386247 L824774 387071 L826423 387895 L829720 388720 L833841 388720 L837138 387895 L838787 387071 L839611 386247 L840435 384598 L840435 382950 L839611 381301 L838787 380477 L837138 379653 L833841 378828 L829720 378828 L826423 379653 L824774 380477 L823950 381301 L823126 382950 "/>
</g><g transform="rotate(-90.000000 808441.953019 362483.710012)">
<text x="808441.953019" y="371138.521728" transform="scale(-1 1) translate(-1616883.906039 0)" textLength="61853.969954" font-size="23079.486377" lengthAdjust="spacingAndGlyphs" text-anchor="middle" opacity="0.01" style="font-family:monospace">620R</text>
</g>
<g class="stroked-text"><desc>620R</desc>
<path d="M798962 340640 L798962 337343 L799787 335695 L800611 334870 L803084 333222 L806381 332397 L812975 332397 L814623 333222 L815448 334046 L816272 335695 L816272 338992 L815448 340640 L814623 341464 L812975 342289 L808854 342289 L807205 341464 L806381 340640 L805557 338992 L805557 335695 L806381 334046 L807205 333222 L808854 332397 "/>
<path d="M800611 348883 L799787 349707 L798962 351356 L798962 355477 L799787 357125 L800611 357950 L802259 358774 L803908 358774 L806381 357950 L816272 348059 L816272 358774 "/>
<path d="M798962 369489 L798962 371138 L799787 372787 L800611 373611 L802259 374435 L805557 375259 L809678 375259 L812975 374435 L814623 373611 L815448 372787 L816272 371138 L816272 369489 L815448 367841 L814623 367017 L812975 366192 L809678 365368 L805557 365368 L802259 366192 L800611 367017 L799787 367841 L798962 369489 "/>
<path d="M816272 392569 L808029 386799 "/>
<path d="M816272 382678 L798962 382678 L798962 389272 L799787 390920 L800611 391745 L802259 392569 L804732 392569 L806381 391745 L807205 390920 L808029 389272 L808029 382678 "/>
</g><text x="2067123.961388" y="661096.680723" transform="scale(-1 1) translate(-4134247.922775 0)" textLength="45368.627483" font-size="23079.486377" lengthAdjust="spacingAndGlyphs" text-anchor="middle" opacity="0.01" style="font-family:monospace">R11</text>
<g class="stroked-text"><desc>R11</desc>
<path d="M2078251 660272 L2084021 652029 "/>
<path d="M2088142 660272 L2088142 642962 L2081548 642962 L2079900 643787 L2079075 644611 L2078251 646259 L2078251 648732 L2079075 650381 L2079900 651205 L2081548 652029 L2088142 652029 "/>
<path d="M2061766 660272 L2071657 660272 "/>
<path d="M2066711 660272 L2066711 642962 L2068360 645435 L2070008 647084 L2071657 647908 "/>
<path d="M2045280 660272 L2055172 660272 "/>
<path d="M2050226 660272 L2050226 642962 L2051875 645435 L2053523 647084 L2055172 647908 "/>
</g><text x="2071517.266827" y="636933.500807" transform="scale(-1 1) translate(-4143034.533654 0)" textLength="45368.627483" font-size="23079.486377" lengthAdjust="spacingAndGlyphs" text-anchor="middle" opacity="0.01" style="font-family:monospace">10R</text>
<g class="stroked-text"><desc>10R</desc>
<path d="M2083469 636109 L2093360 636109 "/>
<path d="M2088414 636109 L2088414 618799 L2090063 621272 L2091711 622920 L2093360 623745 "/>
<path d="M2072753 618799 L2071105 618799 L2069456 619623 L2068632 620448 L2067808 622096 L2066983 625393 L2066983 629515 L2067808 632812 L2068632 634460 L2069456 635284 L2071105 636109 L2072753 636109 L2074402 635284 L2075226 634460 L2076050 632812 L2076874 629515 L2076874 625393 L2076050 622096 L2075226 620448 L2074402 619623 L2072753 618799 "/>
<path d="M2049674 636109 L2055444 627866 "/>
<path d="M2059565 636109 L2059565 618799 L2052971 618799 L2051322 619623 L2050498 620448 L2049674 622096 L2049674 624569 L2050498 626218 L2051322 627042 L2052971 627866 L2059565 627866 "/>
</g><g transform="rotate(-90.000000 964404.296116 369073.668171)">
<text x="964404.296116" y="377728.479887" transform="scale(-1 1) translate(-1928808.592231 0)" textLength="45368.627483" font-size="23079.486377" lengthAdjust="spacingAndGlyphs" text-anchor="middle" opacity="0.01" style="font-family:monospace">R13</text>
</g>
<g class="stroked-text"><desc>R13</desc>
<path d="M972234 357946 L963992 352176 "/>
<path d="M972234 348054 L954925 348054 L954925 354648 L955749 356297 L956573 357121 L958222 357946 L960695 357946 L962343 357121 L963167 356297 L963992 354648 L963992 348054 "/>
<path d="M972234 374431 L972234 364540 "/>
<path d="M972234 369485 L954925 369485 L957398 367837 L959046 366188 L959870 364540 "/>
<path d="M954925 380201 L954925 390916 L961519 385146 L961519 387619 L962343 389268 L963167 390092 L964816 390916 L968937 390916 L970586 390092 L971410 389268 L972234 387619 L972234 382674 L971410 381025 L970586 380201 "/>
</g><g transform="rotate(-90.000000 940241.116199 364680.362732)">
<text x="940241.116199" y="373335.174447" transform="scale(-1 1) translate(-1880482.232399 0)" textLength="61853.969954" font-size="23079.486377" lengthAdjust="spacingAndGlyphs" text-anchor="middle" opacity="0.01" style="font-family:monospace">620R</text>
</g>
<g class="stroked-text"><desc>620R</desc>
<path d="M930762 342837 L930762 339540 L931586 337891 L932410 337067 L934883 335418 L938180 334594 L944774 334594 L946423 335418 L947247 336243 L948071 337891 L948071 341188 L947247 342837 L946423 343661 L944774 344485 L940653 344485 L939004 343661 L938180 342837 L937356 341188 L937356 337891 L938180 336243 L939004 335418 L940653 334594 "/>
<path d="M932410 351079 L931586 351904 L930762 353552 L930762 357674 L931586 359322 L932410 360146 L934059 360971 L935707 360971 L938180 360146 L948071 350255 L948071 360971 "/>
<path d="M930762 371686 L930762 373335 L931586 374983 L932410 375807 L934059 376632 L937356 377456 L941477 377456 L944774 376632 L946423 375807 L947247 374983 L948071 373335 L948071 371686 L947247 370038 L946423 369213 L944774 368389 L941477 367565 L937356 367565 L934059 368389 L932410 369213 L931586 370038 L930762 371686 "/>
<path d="M948071 394766 L939828 388996 "/>
<path d="M948071 384874 L930762 384874 L930762 391469 L931586 393117 L932410 393941 L934059 394766 L936531 394766 L938180 393941 L939004 393117 L939828 391469 L939828 384874 "/>
</g></g>
<g style="fill:#000084; fill-opacity:0.0;  stroke:#000084; stroke-width:5188.943432; stroke-opacity:1;  stroke-linecap:round; stroke-linejoin:round;">
<g transform="rotate(-90.000000 1798250.209205 948989.986163)">
<text x="1798250.209205" y="966286.464270" transform="scale(-1 1) translate(-3596500.418410 0)" textLength="248769.951899" font-size="46123.930089" lengthAdjust="spacingAndGlyphs" text-anchor="middle" opacity="0.01" style="font-family:monospace">NEO-M8P</text>
</g>
<g class="stroked-text"><desc>NEO-M8P</desc>
<path d="M1813899 830385 L1779306 830385 L1813899 850152 L1779306 850152 "/>
<path d="M1795779 866625 L1795779 878156 "/>
<path d="M1813899 883098 L1813899 866625 L1779306 866625 L1779306 883098 "/>
<path d="M1779306 904513 L1779306 911102 L1780953 914397 L1784248 917691 L1790837 919338 L1802368 919338 L1808957 917691 L1812252 914397 L1813899 911102 L1813899 904513 L1812252 901218 L1808957 897924 L1802368 896276 L1790837 896276 L1784248 897924 L1780953 901218 L1779306 904513 "/>
<path d="M1800721 934164 L1800721 960520 "/>
<path d="M1813899 976993 L1779306 976993 L1804015 988524 L1779306 1000055 L1813899 1000055 "/>
<path d="M1794131 1021470 L1792484 1018175 L1790837 1016528 L1787542 1014881 L1785895 1014881 L1782601 1016528 L1780953 1018175 L1779306 1021470 L1779306 1028059 L1780953 1031354 L1782601 1033001 L1785895 1034648 L1787542 1034648 L1790837 1033001 L1792484 1031354 L1794131 1028059 L1794131 1021470 L1795779 1018175 L1797426 1016528 L1800721 1014881 L1807310 1014881 L1810604 1016528 L1812252 1018175 L1813899 1021470 L1813899 1028059 L1812252 1031354 L1810604 1033001 L1807310 1034648 L1800721 1034648 L1797426 1033001 L1795779 1031354 L1794131 1028059 "/>
<path d="M1813899 1049474 L1779306 1049474 L1779306 1062652 L1780953 1065947 L1782601 1067594 L1785895 1069241 L1790837 1069241 L1794131 1067594 L1795779 1065947 L1797426 1062652 L1797426 1049474 "/>
</g><g transform="rotate(-90.000000 1742901.479261 948989.986163)">
<text x="1742901.479261" y="966286.464270" transform="scale(-1 1) translate(-3485802.958521 0)" textLength="62440.285968" font-size="46123.930089" lengthAdjust="spacingAndGlyphs" text-anchor="middle" opacity="0.01" style="font-family:monospace">U3</text>
</g>
<g class="stroked-text"><desc>U3</desc>
<path d="M1723957 922633 L1751961 922633 L1755256 924280 L1756903 925928 L1758550 929222 L1758550 935811 L1756903 939106 L1755256 940753 L1751961 942400 L1723957 942400 "/>
<path d="M1723957 955579 L1723957 976993 L1737135 965462 L1737135 970404 L1738783 973699 L1740430 975346 L1743725 976993 L1751961 976993 L1755256 975346 L1756903 973699 L1758550 970404 L1758550 960520 L1756903 957226 L1755256 955579 "/>
</g></g>
<g style="fill:#000084; fill-opacity:0.01;  stroke:#000084; stroke-width:3778.242678; stroke-opacity:1;  stroke-linecap:round; stroke-linejoin:round;">
<text x="1351015.174777" y="1364025.551016" transform="scale(-1 1) translate(-2702030.349554 0)" textLength="27049.339439" font-size="23079.486377" lengthAdjust="spacingAndGlyphs" text-anchor="middle" opacity="0.01" style="font-family:monospace">C2</text>
<g class="stroked-text"><desc>C2</desc>
<path d="M1353900 1361552 L1354724 1362377 L1357197 1363201 L1358845 1363201 L1361318 1362377 L1362967 1360728 L1363791 1359079 L1364615 1355782 L1364615 1353310 L1363791 1350013 L1362967 1348364 L1361318 1346715 L1358845 1345891 L1357197 1345891 L1354724 1346715 L1353900 1347540 "/>
<path d="M1347305 1347540 L1346481 1346715 L1344833 1345891 L1340711 1345891 L1339063 1346715 L1338238 1347540 L1337414 1349188 L1337414 1350837 L1338238 1353310 L1348130 1363201 L1337414 1363201 "/>
</g><text x="1355408.480216" y="1339862.371100" transform="scale(-1 1) translate(-2710816.960432 0)" textLength="58556.915297" font-size="23079.486377" lengthAdjust="spacingAndGlyphs" text-anchor="middle" opacity="0.01" style="font-family:monospace">10uF</text>
<g class="stroked-text"><desc>10uF</desc>
<path d="M1373954 1339038 L1383845 1339038 "/>
<path d="M1378900 1339038 L1378900 1321728 L1380548 1324201 L1382197 1325849 L1383845 1326674 "/>
<path d="M1363239 1321728 L1361590 1321728 L1359941 1322552 L1359117 1323377 L1358293 1325025 L1357469 1328322 L1357469 1332443 L1358293 1335741 L1359117 1337389 L1359941 1338213 L1361590 1339038 L1363239 1339038 L1364887 1338213 L1365711 1337389 L1366536 1335741 L1367360 1332443 L1367360 1328322 L1366536 1325025 L1365711 1323377 L1364887 1322552 L1363239 1321728 "/>
<path d="M1342632 1327498 L1342632 1339038 "/>
<path d="M1350050 1327498 L1350050 1336565 L1349226 1338213 L1347577 1339038 L1345105 1339038 L1343456 1338213 L1342632 1337389 "/>
<path d="M1328619 1329971 L1334389 1329971 "/>
<path d="M1334389 1339038 L1334389 1321728 L1326146 1321728 "/>
</g></g>
<g style="fill:#000084; fill-opacity:0.01;  stroke:#000084; stroke-width:2594.471716; stroke-opacity:1;  stroke-linecap:round; stroke-linejoin:round;">
<text x="1298381.991895" y="1244690.575890" transform="scale(-1 1) translate(-2596763.983791 0)" textLength="29681.240734" font-size="23061.947748" lengthAdjust="spacingAndGlyphs" text-anchor="middle" opacity="0.01" style="font-family:monospace">U2</text>
<g class="stroked-text"><desc>U2</desc>
<path d="M1311560 1226570 L1311560 1240572 L1310736 1242219 L1309912 1243043 L1308265 1243866 L1304971 1243866 L1303323 1243043 L1302500 1242219 L1301676 1240572 L1301676 1226570 "/>
<path d="M1294263 1228217 L1293440 1227394 L1291792 1226570 L1287674 1226570 L1286027 1227394 L1285203 1228217 L1284380 1229865 L1284380 1231512 L1285203 1233983 L1295087 1243866 L1284380 1243866 "/>
</g></g>
<g style="fill:#000084; fill-opacity:0.0;  stroke:#000084; stroke-width:3778.242678; stroke-opacity:1;  stroke-linecap:round; stroke-linejoin:round;">
<g transform="rotate(-90.000000 1781559.107831 590935.592857)">
<text x="1781559.107831" y="599590.404573" transform="scale(-1 1) translate(-3563118.215662 0)" textLength="30422.152670" font-size="23079.486377" lengthAdjust="spacingAndGlyphs" text-anchor="middle" opacity="0.01" style="font-family:monospace">R5</text>
</g>
<g class="stroked-text"><desc>R5</desc>
<path d="M1789389 588050 L1781146 582280 "/>
<path d="M1789389 578159 L1772080 578159 L1772080 584753 L1772904 586402 L1773728 587226 L1775377 588050 L1777849 588050 L1779498 587226 L1780322 586402 L1781146 584753 L1781146 578159 "/>
<path d="M1772080 603711 L1772080 595469 L1780322 594644 L1779498 595469 L1778674 597117 L1778674 601238 L1779498 602887 L1780322 603711 L1781971 604536 L1786092 604536 L1787741 603711 L1788565 602887 L1789389 601238 L1789389 597117 L1788565 595469 L1787741 594644 "/>
</g><g transform="rotate(-90.000000 1757395.927915 586542.287418)">
<text x="1757395.927915" y="595197.099134" transform="scale(-1 1) translate(-3514791.855830 0)" textLength="45368.627483" font-size="23079.486377" lengthAdjust="spacingAndGlyphs" text-anchor="middle" opacity="0.01" style="font-family:monospace">33R</text>
</g>
<g class="stroked-text"><desc>33R</desc>
<path d="M1747916 563874 L1747916 574590 L1754510 568820 L1754510 571293 L1755335 572941 L1756159 573766 L1757808 574590 L1761929 574590 L1763577 573766 L1764402 572941 L1765226 571293 L1765226 566347 L1764402 564699 L1763577 563874 "/>
<path d="M1747916 580360 L1747916 591075 L1754510 585305 L1754510 587778 L1755335 589427 L1756159 590251 L1757808 591075 L1761929 591075 L1763577 590251 L1764402 589427 L1765226 587778 L1765226 582833 L1764402 581184 L1763577 580360 "/>
<path d="M1765226 608385 L1756983 602615 "/>
<path d="M1765226 598494 L1747916 598494 L1747916 605088 L1748741 606736 L1749565 607561 L1751213 608385 L1753686 608385 L1755335 607561 L1756159 606736 L1756983 605088 L1756983 598494 "/>
</g><g transform="rotate(-90.000000 1482814.337957 1307044.379468)">
<text x="1482814.337957" y="1315699.191184" transform="scale(-1 1) translate(-2965628.675913 0)" textLength="28883.250420" font-size="23079.486377" lengthAdjust="spacingAndGlyphs" text-anchor="middle" opacity="0.01" style="font-family:monospace">C4</text>
</g>
<g class="stroked-text"><desc>C4</desc>
<path d="M1488996 1304159 L1489820 1303335 L1490644 1300862 L1490644 1299213 L1489820 1296741 L1488172 1295092 L1486523 1294268 L1483226 1293443 L1480753 1293443 L1477456 1294268 L1475808 1295092 L1474159 1296741 L1473335 1299213 L1473335 1300862 L1474159 1303335 L1474983 1304159 "/>
<path d="M1479105 1318996 L1490644 1318996 "/>
<path d="M1472510 1314874 L1484875 1310753 L1484875 1321469 "/>
</g><g transform="rotate(-90.000000 1458651.158040 1302651.074029)">
<text x="1458651.158040" y="1311305.885744" transform="scale(-1 1) translate(-2917302.316081 0)" textLength="75042.257767" font-size="23079.486377" lengthAdjust="spacingAndGlyphs" text-anchor="middle" opacity="0.01" style="font-family:monospace">100nF</text>
</g>
<g class="stroked-text"><desc>100nF</desc>
<path d="M1466481 1275862 L1466481 1265971 "/>
<path d="M1466481 1270916 L1449172 1270916 L1451644 1269268 L1453293 1267619 L1454117 1265971 "/>
<path d="M1449172 1286577 L1449172 1288226 L1449996 1289874 L1450820 1290699 L1452469 1291523 L1455766 1292347 L1459887 1292347 L1463184 1291523 L1464833 1290699 L1465657 1289874 L1466481 1288226 L1466481 1286577 L1465657 1284929 L1464833 1284105 L1463184 1283280 L1459887 1282456 L1455766 1282456 L1452469 1283280 L1450820 1284105 L1449996 1284929 L1449172 1286577 "/>
<path d="M1449172 1303063 L1449172 1304711 L1449996 1306360 L1450820 1307184 L1452469 1308008 L1455766 1308833 L1459887 1308833 L1463184 1308008 L1464833 1307184 L1465657 1306360 L1466481 1304711 L1466481 1303063 L1465657 1301414 L1464833 1300590 L1463184 1299766 L1459887 1298941 L1455766 1298941 L1452469 1299766 L1450820 1300590 L1449996 1301414 L1449172 1303063 "/>
<path d="M1454941 1316251 L1466481 1316251 "/>
<path d="M1456590 1316251 L1455766 1317075 L1454941 1318724 L1454941 1321197 L1455766 1322845 L1457414 1323669 L1466481 1323669 "/>
<path d="M1457414 1337682 L1457414 1331912 "/>
<path d="M1466481 1331912 L1449172 1331912 L1449172 1340155 "/>
</g></g>
<g style="fill:#000084; fill-opacity:0.0;  stroke:#000084; stroke-width:2594.471716; stroke-opacity:1;  stroke-linecap:round; stroke-linejoin:round;">
<g transform="rotate(-90.000000 1117460.830890 940203.375284)">
<text x="1117460.830890" y="948851.614338" transform="scale(-1 1) translate(-2234921.661780 0)" textLength="29681.240734" font-size="23061.947748" lengthAdjust="spacingAndGlyphs" text-anchor="middle" opacity="0.01" style="font-family:monospace">U1</text>
</g>
<g class="stroked-text"><desc>U1</desc>
<path d="M1107988 927025 L1121990 927025 L1123638 927848 L1124461 928672 L1125285 930319 L1125285 933614 L1124461 935261 L1123638 936085 L1121990 936908 L1107988 936908 "/>
<path d="M1125285 954205 L1125285 944321 "/>
<path d="M1125285 949263 L1107988 949263 L1110459 947616 L1112107 945968 L1112930 944321 "/>
</g></g>
<g style="fill:#000084; fill-opacity:0.0;  stroke:#000084; stroke-width:3778.242678; stroke-opacity:1;  stroke-linecap:round; stroke-linejoin:round;">
<g transform="rotate(-90.000000 1553107.224986 1307044.379468)">
<text x="1553107.224986" y="1315699.191184" transform="scale(-1 1) translate(-3106214.449972 0)" textLength="30422.152670" font-size="23079.486377" lengthAdjust="spacingAndGlyphs" text-anchor="middle" opacity="0.01" style="font-family:monospace">C5</text>
</g>
<g class="stroked-text"><desc>C5</desc>
<path d="M1559289 1304159 L1560113 1303335 L1560937 1300862 L1560937 1299213 L1560113 1296741 L1558464 1295092 L1556816 1294268 L1553519 1293443 L1551046 1293443 L1547749 1294268 L1546100 1295092 L1544452 1296741 L1543628 1299213 L1543628 1300862 L1544452 1303335 L1545276 1304159 "/>
<path d="M1543628 1319820 L1543628 1311577 L1551870 1310753 L1551046 1311577 L1550222 1313226 L1550222 1317347 L1551046 1318996 L1551870 1319820 L1553519 1320644 L1557640 1320644 L1559289 1319820 L1560113 1318996 L1560937 1317347 L1560937 1313226 L1560113 1311577 L1559289 1310753 "/>
</g><g transform="rotate(-90.000000 1528944.045070 1302651.074029)">
<text x="1528944.045070" y="1311305.885744" transform="scale(-1 1) translate(-3057888.090139 0)" textLength="42071.538233" font-size="23079.486377" lengthAdjust="spacingAndGlyphs" text-anchor="middle" opacity="0.01" style="font-family:monospace">1uF</text>
</g>
<g class="stroked-text"><desc>1uF</desc>
<path d="M1536774 1292347 L1536774 1282456 "/>
<path d="M1536774 1287402 L1519464 1287402 L1521937 1285753 L1523586 1284105 L1524410 1282456 "/>
<path d="M1525234 1307184 L1536774 1307184 "/>
<path d="M1525234 1299766 L1534301 1299766 L1535950 1300590 L1536774 1302238 L1536774 1304711 L1535950 1306360 L1535126 1307184 "/>
<path d="M1527707 1321197 L1527707 1315427 "/>
<path d="M1536774 1315427 L1519464 1315427 L1519464 1323669 "/>
</g><g transform="rotate(-90.000000 1847458.689421 415203.375284)">
<text x="1847458.689421" y="423858.187000" transform="scale(-1 1) translate(-3694917.378842 0)" textLength="45368.627483" font-size="23079.486377" lengthAdjust="spacingAndGlyphs" text-anchor="middle" opacity="0.01" style="font-family:monospace">R15</text>
</g>
<g class="stroked-text"><desc>R15</desc>
<path d="M1855289 404075 L1847046 398305 "/>
<path d="M1855289 394184 L1837979 394184 L1837979 400778 L1838803 402427 L1839628 403251 L1841276 404075 L1843749 404075 L1845397 403251 L1846222 402427 L1847046 400778 L1847046 394184 "/>
<path d="M1855289 420561 L1855289 410669 "/>
<path d="M1855289 415615 L1837979 415615 L1840452 413966 L1842100 412318 L1842925 410669 "/>
<path d="M1837979 436222 L1837979 427979 L1846222 427155 L1845397 427979 L1844573 429628 L1844573 433749 L1845397 435397 L1846222 436222 L1847870 437046 L1851992 437046 L1853640 436222 L1854464 435397 L1855289 433749 L1855289 429628 L1854464 427979 L1853640 427155 "/>
</g><g transform="rotate(-90.000000 1871621.869337 419596.680723)">
<text x="1871621.869337" y="428251.492439" transform="scale(-1 1) translate(-3743243.738675 0)" textLength="42071.538233" font-size="23079.486377" lengthAdjust="spacingAndGlyphs" text-anchor="middle" opacity="0.01" style="font-family:monospace">10k</text>
</g>
<g class="stroked-text"><desc>10k</desc>
<path d="M1879452 409293 L1879452 399402 "/>
<path d="M1879452 404347 L1862142 404347 L1864615 402699 L1866264 401050 L1867088 399402 "/>
<path d="M1862142 420008 L1862142 421657 L1862967 423305 L1863791 424130 L1865439 424954 L1868736 425778 L1872858 425778 L1876155 424954 L1877803 424130 L1878628 423305 L1879452 421657 L1879452 420008 L1878628 418360 L1877803 417536 L1876155 416711 L1872858 415887 L1868736 415887 L1865439 416711 L1863791 417536 L1862967 418360 L1862142 420008 "/>
<path d="M1879452 433197 L1862142 433197 "/>
<path d="M1872858 434845 L1879452 439791 "/>
<path d="M1867912 439791 L1874506 433197 "/>
</g><g transform="rotate(-90.000000 1087416.848417 366877.015452)">
<text x="1087416.848417" y="375531.827167" transform="scale(-1 1) translate(-2174833.696834 0)" textLength="45368.627483" font-size="23079.486377" lengthAdjust="spacingAndGlyphs" text-anchor="middle" opacity="0.01" style="font-family:monospace">R12</text>
</g>
<g class="stroked-text"><desc>R12</desc>
<path d="M1095247 355749 L1087004 349979 "/>
<path d="M1095247 345858 L1077937 345858 L1077937 352452 L1078762 354100 L1079586 354925 L1081234 355749 L1083707 355749 L1085356 354925 L1086180 354100 L1087004 352452 L1087004 345858 "/>
<path d="M1095247 372234 L1095247 362343 "/>
<path d="M1095247 367289 L1077937 367289 L1080410 365640 L1082059 363992 L1082883 362343 "/>
<path d="M1079586 378828 L1078762 379653 L1077937 381301 L1077937 385423 L1078762 387071 L1079586 387895 L1081234 388720 L1082883 388720 L1085356 387895 L1095247 378004 L1095247 388720 "/>
</g><g transform="rotate(-90.000000 1063253.668501 362483.710012)">
<text x="1063253.668501" y="371138.521728" transform="scale(-1 1) translate(-2126507.337001 0)" textLength="61853.969954" font-size="23079.486377" lengthAdjust="spacingAndGlyphs" text-anchor="middle" opacity="0.01" style="font-family:monospace">620R</text>
</g>
<g class="stroked-text"><desc>620R</desc>
<path d="M1053774 340640 L1053774 337343 L1054598 335695 L1055423 334870 L1057895 333222 L1061192 332397 L1067787 332397 L1069435 333222 L1070259 334046 L1071084 335695 L1071084 338992 L1070259 340640 L1069435 341464 L1067787 342289 L1063665 342289 L1062017 341464 L1061192 340640 L1060368 338992 L1060368 335695 L1061192 334046 L1062017 333222 L1063665 332397 "/>
<path d="M1055423 348883 L1054598 349707 L1053774 351356 L1053774 355477 L1054598 357125 L1055423 357950 L1057071 358774 L1058720 358774 L1061192 357950 L1071084 348059 L1071084 358774 "/>
<path d="M1053774 369489 L1053774 371138 L1054598 372787 L1055423 373611 L1057071 374435 L1060368 375259 L1064490 375259 L1067787 374435 L1069435 373611 L1070259 372787 L1071084 371138 L1071084 369489 L1070259 367841 L1069435 367017 L1067787 366192 L1064490 365368 L1060368 365368 L1057071 366192 L1055423 367017 L1054598 367841 L1053774 369489 "/>
<path d="M1071084 392569 L1062841 386799 "/>
<path d="M1071084 382678 L1053774 382678 L1053774 389272 L1054598 390920 L1055423 391745 L1057071 392569 L1059544 392569 L1061192 391745 L1062017 390920 L1062841 389272 L1062841 382678 "/>
</g></g>
<g style="fill:#000084; fill-opacity:0.0;  stroke:#000084; stroke-width:5188.943432; stroke-opacity:1;  stroke-linecap:round; stroke-linejoin:round;">
<g transform="rotate(-90.000000 1076433.584819 654638.521728)">
<text x="1076433.584819" y="676605.048924" transform="scale(-1 1) translate(-2152867.169637 0)" textLength="80862.349685" font-size="58577.394327" lengthAdjust="spacingAndGlyphs" text-anchor="middle" opacity="0.01" style="font-family:monospace">D4</text>
</g>
<g class="stroked-text"><desc>D4</desc>
<path d="M1096308 622211 L1052374 622211 L1052374 632671 L1054467 638948 L1058651 643132 L1062835 645224 L1071203 647316 L1077479 647316 L1085847 645224 L1090031 643132 L1094215 638948 L1096308 632671 L1096308 622211 "/>
<path d="M1067019 684973 L1096308 684973 "/>
<path d="M1050282 674513 L1081663 664052 L1081663 691249 "/>
</g><g transform="rotate(-90.000000 1074676.262643 461983.429974)">
<text x="1074676.262643" y="483949.957171" transform="scale(-1 1) translate(-2149352.525286 0)" textLength="37187.427931" font-size="58577.394327" lengthAdjust="spacingAndGlyphs" text-anchor="middle" opacity="0.01" style="font-family:monospace">K</text>
</g>
<g class="stroked-text"><desc>K</desc>
<path d="M1094550 450477 L1050617 450477 "/>
<path d="M1094550 475581 L1069446 456753 "/>
<path d="M1050617 475581 L1075722 450477 "/>
</g></g>
<g style="fill:#000084; fill-opacity:0.0;  stroke:#000084; stroke-width:3778.242678; stroke-opacity:1;  stroke-linecap:round; stroke-linejoin:round;">
<g transform="rotate(-90.000000 1187978.572135 365389.518334)">
<text x="1187978.572135" y="374044.330050" transform="scale(-1 1) translate(-2375957.144269 0)" textLength="43534.716502" font-size="23079.486377" lengthAdjust="spacingAndGlyphs" text-anchor="middle" opacity="0.01" style="font-family:monospace">R16</text>
</g>
<g class="stroked-text"><desc>R16</desc>
<path d="M1195809 354261 L1187566 348492 "/>
<path d="M1195809 344370 L1178499 344370 L1178499 350964 L1179323 352613 L1180148 353437 L1181796 354261 L1184269 354261 L1185917 353437 L1186742 352613 L1187566 350964 L1187566 344370 "/>
<path d="M1195809 370747 L1195809 360856 "/>
<path d="M1195809 365801 L1178499 365801 L1180972 364153 L1182620 362504 L1183445 360856 "/>
<path d="M1178499 385584 L1178499 382287 L1179323 380638 L1180148 379814 L1182620 378165 L1185917 377341 L1192512 377341 L1194160 378165 L1194984 378989 L1195809 380638 L1195809 383935 L1194984 385584 L1194160 386408 L1192512 387232 L1188390 387232 L1186742 386408 L1185917 385584 L1185093 383935 L1185093 380638 L1185917 378989 L1186742 378165 L1188390 377341 "/>
</g><g transform="rotate(-90.000000 1212141.752051 369782.823774)">
<text x="1212141.752051" y="378437.635489" transform="scale(-1 1) translate(-2424283.504102 0)" textLength="61853.969954" font-size="23079.486377" lengthAdjust="spacingAndGlyphs" text-anchor="middle" opacity="0.01" style="font-family:monospace">220R</text>
</g>
<g class="stroked-text"><desc>220R</desc>
<path d="M1204311 339697 L1203486 340521 L1202662 342169 L1202662 346291 L1203486 347939 L1204311 348764 L1205959 349588 L1207608 349588 L1210081 348764 L1219972 338872 L1219972 349588 "/>
<path d="M1204311 356182 L1203486 357006 L1202662 358655 L1202662 362776 L1203486 364425 L1204311 365249 L1205959 366073 L1207608 366073 L1210081 365249 L1219972 355358 L1219972 366073 "/>
<path d="M1202662 376789 L1202662 378437 L1203486 380086 L1204311 380910 L1205959 381734 L1209256 382559 L1213378 382559 L1216675 381734 L1218323 380910 L1219148 380086 L1219972 378437 L1219972 376789 L1219148 375140 L1218323 374316 L1216675 373492 L1213378 372667 L1209256 372667 L1205959 373492 L1204311 374316 L1203486 375140 L1202662 376789 "/>
<path d="M1219972 399868 L1211729 394098 "/>
<path d="M1219972 389977 L1202662 389977 L1202662 396571 L1203486 398220 L1204311 399044 L1205959 399868 L1208432 399868 L1210081 399044 L1210905 398220 L1211729 396571 L1211729 389977 "/>
</g><g transform="rotate(-90.000000 1304729.799361 564471.981353)">
<text x="1304729.799361" y="573126.793068" transform="scale(-1 1) translate(-2609459.598722 0)" textLength="45368.627483" font-size="23079.486377" lengthAdjust="spacingAndGlyphs" text-anchor="middle" opacity="0.01" style="font-family:monospace">R14</text>
</g>
<g class="stroked-text"><desc>R14</desc>
<path d="M1312560 553344 L1304317 547574 "/>
<path d="M1312560 543453 L1295250 543453 L1295250 550047 L1296074 551695 L1296899 552520 L1298547 553344 L1301020 553344 L1302669 552520 L1303493 551695 L1304317 550047 L1304317 543453 "/>
<path d="M1312560 569829 L1312560 559938 "/>
<path d="M1312560 564884 L1295250 564884 L1297723 563235 L1299372 561587 L1300196 559938 "/>
<path d="M1301020 584666 L1312560 584666 "/>
<path d="M1294426 580545 L1306790 576423 L1306790 587139 "/>
</g><g transform="rotate(-90.000000 1280566.619445 560078.675913)">
<text x="1280566.619445" y="568733.487629" transform="scale(-1 1) translate(-2561133.238889 0)" textLength="61853.969954" font-size="23079.486377" lengthAdjust="spacingAndGlyphs" text-anchor="middle" opacity="0.01" style="font-family:monospace">220R</text>
</g>
<g class="stroked-text"><desc>220R</desc>
<path d="M1272736 529992 L1271911 530817 L1271087 532465 L1271087 536587 L1271911 538235 L1272736 539059 L1274384 539884 L1276033 539884 L1278505 539059 L1288397 529168 L1288397 539884 "/>
<path d="M1272736 546478 L1271911 547302 L1271087 548951 L1271087 553072 L1271911 554720 L1272736 555545 L1274384 556369 L1276033 556369 L1278505 555545 L1288397 545654 L1288397 556369 "/>
<path d="M1271087 567084 L1271087 568733 L1271911 570382 L1272736 571206 L1274384 572030 L1277681 572854 L1281803 572854 L1285100 572030 L1286748 571206 L1287572 570382 L1288397 568733 L1288397 567084 L1287572 565436 L1286748 564612 L1285100 563787 L1281803 562963 L1277681 562963 L1274384 563787 L1272736 564612 L1271911 565436 L1271087 567084 "/>
<path d="M1288397 590164 L1280154 584394 "/>
<path d="M1288397 580273 L1271087 580273 L1271087 586867 L1271911 588515 L1272736 589340 L1274384 590164 L1276857 590164 L1278505 589340 L1279330 588515 L1280154 586867 L1280154 580273 "/>
</g></g>
<g style="fill:#000084; fill-opacity:0.0;  stroke:#000084; stroke-width:2594.471716; stroke-opacity:1;  stroke-linecap:round; stroke-linejoin:round;">
<g transform="rotate(-90.000000 1300492.162224 364680.362732)">
<text x="1300492.162224" y="373328.601786" transform="scale(-1 1) translate(-2600984.324449 0)" textLength="29681.240734" font-size="23061.947748" lengthAdjust="spacingAndGlyphs" text-anchor="middle" opacity="0.01" style="font-family:monospace">Q1</text>
</g>
<g class="stroked-text"><desc>Q1</desc>
<path d="M1309964 363033 L1309140 361385 L1307493 359738 L1305022 357267 L1304198 355620 L1304198 353973 "/>
<path d="M1308316 354796 L1307493 353149 L1305845 351502 L1302551 350678 L1296785 350678 L1293491 351502 L1291843 353149 L1291020 354796 L1291020 358091 L1291843 359738 L1293491 361385 L1296785 362209 L1302551 362209 L1305845 361385 L1307493 359738 L1308316 358091 L1308316 354796 "/>
<path d="M1308316 378682 L1308316 368798 "/>
<path d="M1308316 373740 L1291020 373740 L1293491 372093 L1295138 370445 L1295962 368798 "/>
</g></g>
<g style="fill:#000084; fill-opacity:0.0;  stroke:#000084; stroke-width:5188.943432; stroke-opacity:1;  stroke-linecap:round; stroke-linejoin:round;">
<path d="M1427898 1293864 L1427898 1258718 "/>
<path d="M1375178 1258718 L1375178 1293864 "/>
<path d="M1427898 1223571 L1427898 1188425 "/>
<path d="M1375178 1293864 L1427898 1293864 "/>
<path d="M1375178 1188425 L1375178 1223571 "/>
<path d="M1427898 1188425 L1375178 1188425 "/>
<path d="M1884801 489889 L1832082 489889 "/>
<path d="M1884801 595328 L1884801 560182 "/>
<path d="M1884801 525036 L1884801 489889 "/>
<path d="M1832082 560182 L1832082 595328 "/>
<path d="M1832082 595328 L1884801 595328 "/>
<path d="M1832082 489889 L1832082 525036 "/>
<path d="M2137416 650245 L2172563 650245 "/>
<path d="M2172563 597525 L2137416 597525 "/>
<path d="M2242856 597525 L2207709 597525 "/>
<path d="M2207709 650245 L2242856 650245 "/>
<path d="M2137416 597525 L2137416 650245 "/>
<path d="M2242856 650245 L2242856 597525 "/>
</g>
<g style="fill:#000084; fill-opacity:0.0;  stroke:#000084; stroke-width:3459.295622; stroke-opacity:1;  stroke-linecap:round; stroke-linejoin:round;">
<path d="M1439382 1058718 L1439382 954939 "/>
<path d="M1439382 954939 L1280255 954939 "/>
<path d="M1439382 1058718 L1280255 1058718 "/>
<path d="M1337353 1006794 L1306160 1006794 "/>
<path d="M1377156 980873 L1377156 1034471 "/>
<path d="M1337353 1006794 L1377156 1034471 "/>
<path d="M1337353 1034471 L1337353 979116 "/>
<path d="M1280255 954939 L1280255 1058718 "/>
<path d="M1337353 1006794 L1377156 980873 "/>
<path d="M1377156 1006794 L1411687 1006794 "/>
<path d="M1083937 1488867 L1139293 1488867 "/>
<path d="M1111615 1488867 L1111615 1457674 "/>
<path d="M1059690 1590896 L1163469 1590896 "/>
<path d="M1163469 1590896 L1163469 1431769 "/>
<path d="M1111615 1528670 L1111615 1563201 "/>
<path d="M1163469 1431769 L1059690 1431769 "/>
<path d="M1111615 1488867 L1137535 1528670 "/>
<path d="M1137535 1528670 L1083937 1528670 "/>
<path d="M1111615 1488867 L1083937 1528670 "/>
<path d="M1059690 1590896 L1059690 1431769 "/>
</g>
<g style="fill:#000084; fill-opacity:0.0;  stroke:#000084; stroke-width:5188.943432; stroke-opacity:1;  stroke-linecap:round; stroke-linejoin:round;">
<path d="M870826 440245 L772416 440245 "/>
<path d="M772416 614220 L870826 614220 "/>
<path d="M870826 612462 L870826 441123 "/>
<path d="M772416 442881 L772416 614220 "/>
<path d="M904216 442881 L904216 614220 "/>
<path d="M1002626 440245 L904216 440245 "/>
<path d="M1002626 612462 L1002626 441123 "/>
<path d="M904216 614220 L1002626 614220 "/>
<path d="M1248651 439138 L1150241 439138 "/>
<path d="M1150241 613113 L1248651 613113 "/>
<path d="M1150241 441774 L1150241 613113 "/>
<path d="M1248651 611355 L1248651 440016 "/>
</g>
<g style="fill:#000084; fill-opacity:0.0;  stroke:#000084; stroke-width:3459.295622; stroke-opacity:1;  stroke-linecap:round; stroke-linejoin:round;">
<path d="M1188999 1352482 L1188999 1265999 "/>
<path d="M1078301 1352482 L1188999 1352482 "/>
<path d="M1078301 1265999 L1078301 1352482 "/>
<path d="M1188999 1265999 L1078301 1265999 "/>
<path d="M2115329 796504 L2098032 796504 "/>
<path d="M2115329 831097 L2115329 796504 "/>
<path d="M2098032 796504 L2098032 831097 "/>
<path d="M2098032 831097 L2115329 831097 "/>
</g>
<g style="fill:#000084; fill-opacity:0.0;  stroke:#000084; stroke-width:5188.943432; stroke-opacity:1;  stroke-linecap:round; stroke-linejoin:round;">
<path d="M1427898 1061019 L1375178 1061019 "/>
<path d="M1427898 1166458 L1427898 1131312 "/>
<path d="M1375178 1131312 L1375178 1166458 "/>
<path d="M1427898 1096165 L1427898 1061019 "/>
<path d="M1375178 1166458 L1427898 1166458 "/>
<path d="M1375178 1061019 L1375178 1096165 "/>
<path d="M1983651 1344387 L1983651 1397107 "/>
<path d="M2089090 1344387 L2053944 1344387 "/>
<path d="M2018797 1344387 L1983651 1344387 "/>
<path d="M1983651 1397107 L2018797 1397107 "/>
<path d="M2089090 1397107 L2089090 1344387 "/>
<path d="M2053944 1397107 L2089090 1397107 "/>
<path d="M1966077 1397107 L1966077 1344387 "/>
<path d="M1860638 1397107 L1895785 1397107 "/>
<path d="M1895785 1344387 L1860638 1344387 "/>
<path d="M1966077 1344387 L1930931 1344387 "/>
<path d="M1860638 1344387 L1860638 1397107 "/>
<path d="M1930931 1397107 L1966077 1397107 "/>
<path d="M1592646 650245 L1627793 650245 "/>
<path d="M1698086 650245 L1698086 597525 "/>
<path d="M1662939 650245 L1698086 650245 "/>
<path d="M1698086 597525 L1662939 597525 "/>
<path d="M1592646 597525 L1592646 650245 "/>
<path d="M1627793 597525 L1592646 597525 "/>
<path d="M1744216 1254324 L1691496 1254324 "/>
<path d="M1691496 1324617 L1691496 1359764 "/>
<path d="M1691496 1254324 L1691496 1289471 "/>
<path d="M1744216 1359764 L1744216 1324617 "/>
<path d="M1744216 1289471 L1744216 1254324 "/>
<path d="M1691496 1359764 L1744216 1359764 "/>
<path d="M1603630 1324617 L1603630 1359764 "/>
<path d="M1656349 1289471 L1656349 1254324 "/>
<path d="M1603630 1254324 L1603630 1289471 "/>
<path d="M1656349 1359764 L1656349 1324617 "/>
<path d="M1603630 1359764 L1656349 1359764 "/>
<path d="M1656349 1254324 L1603630 1254324 "/>
<path d="M1922144 1265307 L1886998 1265307 "/>
<path d="M1886998 1318027 L1922144 1318027 "/>
<path d="M1992437 1265307 L1957291 1265307 "/>
<path d="M1957291 1318027 L1992437 1318027 "/>
<path d="M1992437 1318027 L1992437 1265307 "/>
<path d="M1886998 1265307 L1886998 1318027 "/>
<path d="M1779362 1359764 L1832082 1359764 "/>
<path d="M1832082 1254324 L1779362 1254324 "/>
<path d="M1832082 1289471 L1832082 1254324 "/>
<path d="M1779362 1254324 L1779362 1289471 "/>
<path d="M1832082 1359764 L1832082 1324617 "/>
<path d="M1779362 1324617 L1779362 1359764 "/>
<path d="M847981 314157 L795262 314157 "/>
<path d="M795262 419596 L847981 419596 "/>
<path d="M847981 349303 L847981 314157 "/>
<path d="M847981 419596 L847981 384450 "/>
<path d="M795262 314157 L795262 349303 "/>
<path d="M795262 384450 L795262 419596 "/>
<path d="M2049550 615098 L2014404 615098 "/>
<path d="M2084697 667818 L2119843 667818 "/>
<path d="M2014404 615098 L2014404 667818 "/>
<path d="M2014404 667818 L2049550 667818 "/>
<path d="M2119843 615098 L2084697 615098 "/>
<path d="M2119843 667818 L2119843 615098 "/>
<path d="M979780 351500 L979780 316354 "/>
<path d="M979780 421793 L979780 386646 "/>
<path d="M927061 421793 L979780 421793 "/>
<path d="M979780 316354 L927061 316354 "/>
<path d="M927061 316354 L927061 351500 "/>
<path d="M927061 386646 L927061 421793 "/>
</g>
<g style="fill:#000084; fill-opacity:0.0;  stroke:#000084; stroke-width:3459.295622; stroke-opacity:1;  stroke-linecap:round; stroke-linejoin:round;">
<path d="M1542262 737972 L1528425 769106 "/>
<path d="M1493832 737972 L1493832 1160007 "/>
<path d="M2047319 737972 L2047319 1160007 "/>
<path d="M1514587 737972 L1528425 769106 "/>
<path d="M1493832 1160007 L2047319 1160007 "/>
<path d="M1493832 737972 L2047319 737972 "/>
</g>
<g style="fill:#000084; fill-opacity:0.0;  stroke:#000084; stroke-width:5188.943432; stroke-opacity:1;  stroke-linecap:round; stroke-linejoin:round;">
<path d="M1333441 1318027 L1298295 1318027 "/>
<path d="M1403734 1370747 L1403734 1318027 "/>
<path d="M1298295 1318027 L1298295 1370747 "/>
<path d="M1298295 1370747 L1333441 1370747 "/>
<path d="M1403734 1318027 L1368588 1318027 "/>
<path d="M1368588 1370747 L1403734 1370747 "/>
</g>
<g style="fill:#000084; fill-opacity:0.0;  stroke:#000084; stroke-width:3459.295622; stroke-opacity:1;  stroke-linecap:round; stroke-linejoin:round;">
<path d="M1352001 1204908 L1244762 1204908 "/>
<path d="M1352001 1204908 L1352001 1244690 "/>
<path d="M1329515 1267175 L1352001 1244690 "/>
<path d="M1244762 1204908 L1244762 1267175 "/>
<path d="M1329515 1267175 L1244762 1267175 "/>
</g>
<g style="fill:#000084; fill-opacity:0.0;  stroke:#000084; stroke-width:5188.943432; stroke-opacity:1;  stroke-linecap:round; stroke-linejoin:round;">
<path d="M1796935 573362 L1796935 538215 "/>
<path d="M1744216 538215 L1744216 573362 "/>
<path d="M1744216 608508 L1744216 643655 "/>
<path d="M1744216 643655 L1796935 643655 "/>
<path d="M1796935 538215 L1744216 538215 "/>
<path d="M1796935 643655 L1796935 608508 "/>
<path d="M1445471 1359764 L1498190 1359764 "/>
<path d="M1498190 1289471 L1498190 1254324 "/>
<path d="M1445471 1254324 L1445471 1289471 "/>
<path d="M1498190 1359764 L1498190 1324617 "/>
<path d="M1498190 1254324 L1445471 1254324 "/>
<path d="M1445471 1324617 L1445471 1359764 "/>
</g>
<g style="fill:#000084; fill-opacity:0.0;  stroke:#000084; stroke-width:3459.295622; stroke-opacity:1;  stroke-linecap:round; stroke-linejoin:round;">
<path d="M1148594 909069 L1148594 993822 "/>
<path d="M1086327 886584 L1126109 886584 "/>
<path d="M1086327 993822 L1148594 993822 "/>
<path d="M1086327 886584 L1086327 993822 "/>
<path d="M1148594 909069 L1126109 886584 "/>
</g>
<g style="fill:#000084; fill-opacity:0.0;  stroke:#000084; stroke-width:5188.943432; stroke-opacity:1;  stroke-linecap:round; stroke-linejoin:round;">
<path d="M1568483 1359764 L1568483 1324617 "/>
<path d="M1515764 1254324 L1515764 1289471 "/>
<path d="M1568483 1254324 L1515764 1254324 "/>
<path d="M1568483 1289471 L1568483 1254324 "/>
<path d="M1515764 1324617 L1515764 1359764 "/>
<path d="M1515764 1359764 L1568483 1359764 "/>
<path d="M1884801 362483 L1832082 362483 "/>
<path d="M1884801 397630 L1884801 362483 "/>
<path d="M1832082 432776 L1832082 467923 "/>
<path d="M1832082 467923 L1884801 467923 "/>
<path d="M1832082 362483 L1832082 397630 "/>
<path d="M1884801 467923 L1884801 432776 "/>
<path d="M1050073 384450 L1050073 419596 "/>
<path d="M1050073 419596 L1102793 419596 "/>
<path d="M1102793 419596 L1102793 384450 "/>
<path d="M1102793 349303 L1102793 314157 "/>
<path d="M1050073 314157 L1050073 349303 "/>
<path d="M1102793 314157 L1050073 314157 "/>
<path d="M1125638 439138 L1027228 439138 "/>
<path d="M1027228 613113 L1125638 613113 "/>
<path d="M1125638 611355 L1125638 440016 "/>
<path d="M1027228 441774 L1027228 613113 "/>
<path d="M1172602 312669 L1172602 347816 "/>
<path d="M1172602 382962 L1172602 418109 "/>
<path d="M1225321 418109 L1225321 382962 "/>
<path d="M1225321 347816 L1225321 312669 "/>
<path d="M1225321 312669 L1172602 312669 "/>
<path d="M1172602 418109 L1225321 418109 "/>
<path d="M1267386 617191 L1320106 617191 "/>
<path d="M1267386 582045 L1267386 617191 "/>
<path d="M1320106 546898 L1320106 511752 "/>
<path d="M1320106 617191 L1320106 582045 "/>
<path d="M1320106 511752 L1267386 511752 "/>
<path d="M1267386 511752 L1267386 546898 "/>
</g>
<g style="fill:#000084; fill-opacity:0.0;  stroke:#000084; stroke-width:3459.295622; stroke-opacity:1;  stroke-linecap:round; stroke-linejoin:round;">
<path d="M1324707 331817 L1305681 312099 "/>
<path d="M1305681 312099 L1276277 312099 "/>
<path d="M1324707 331817 L1324707 416569 "/>
<path d="M1276277 312099 L1276277 417261 "/>
<path d="M1324707 417261 L1276277 417261 "/>
<g>
</g>
<g>
</g>
<g>
</g>
<g>
</g>
<g>
</g>
<g>
</g>
<g>
</g>
<g>
</g>
<g>
</g>
<g>
</g>
<g>
</g>
<g>
</g>
<g>
</g>
<g>
</g>
<g>
</g>
<g>
</g>
<g>
</g>
<g>
</g>
<g>
</g>
<g>
</g>
<g>
</g>
<g>
</g>
<g>
</g>
<g>
</g>
<g>
</g>
<g>
</g>
<g>
</g>
<g>
</g>
<g>
</g>
<g>
</g>
<g>
</g>
<g>
</g>
<g>
</g>
<g>
</g>
<g>
</g>
<g>
</g>
<g>
</g>
<g>
</g>
<g>
</g>
<g>
</g>
<g>
</g>
<g>
</g>
<g>
</g>
<g>
</g>
<g>
</g>
<g>
</g>
<g>
</g>
<g>
</g>
<g>
</g>
<g>
</g>
<g>
</g>
<g>
</g>
<g>
</g>
<g>
</g>
<g>
</g>
<g>
</g>
<g>
</g>
<g>
</g>
<g>
</g>
<g>
</g>
<g>
</g>
<g>
</g>
<g>
</g>
<g>
</g>
<g>
</g>
<g>
</g>
<g>
</g>
</g> 
<svg:g><svg:g><svg:title>SVG Picture created as GPS02B-Edge_Cuts.svg date 2023/02/14 08:11:15 </svg:title>
  <svg:desc>Picture generated by PCBNEW </svg:desc>
<svg:g style="fill:#C2C200; fill-opacity:1.000000;stroke:#C2C200; stroke-opacity:1.000000; stroke-linecap:round; stroke-linejoin:round;" transform="translate(0 0) scale(1 1)">
</svg:g>
<svg:g style="fill:#C2C200; fill-opacity:0.0;  stroke:#C2C200; stroke-width:0.000000; stroke-opacity:1;  stroke-linecap:round; stroke-linejoin:round;">
</svg:g>
<svg:g style="fill:#C2C200; fill-opacity:0.0;  stroke:#C2C200; stroke-width:5188.943432; stroke-opacity:1;  stroke-linecap:round; stroke-linejoin:round;">
<svg:path d="M408651 1669492 L408651 281207 "/>
<svg:path d="M408651 1669492 L2499864 1669492 "/>
<svg:path d="M2499864 281207 L408651 281207 "/>
<svg:path d="M2499864 281207 L2499864 1669492 "/>
<svg:g>
</svg:g>
<svg:g>
</svg:g>
<svg:g>
</svg:g>
<svg:g>
</svg:g>
<svg:g>
</svg:g>
<svg:g>
</svg:g>
<svg:g>
</svg:g>
<svg:g>
</svg:g>
<svg:g>
</svg:g>
<svg:g>
</svg:g>
<svg:g>
</svg:g>
<svg:g>
</svg:g>
<svg:g>
</svg:g>
<svg:g>
</svg:g>
<svg:g>
</svg:g>
<svg:g>
</svg:g>
<svg:g>
</svg:g>
<svg:g>
</svg:g>
<svg:g>
</svg:g>
<svg:g>
</svg:g>
<svg:g>
</svg:g>
<svg:g>
</svg:g>
<svg:g>
</svg:g>
<svg:g>
</svg:g>
<svg:g>
</svg:g>
<svg:g>
</svg:g>
<svg:g>
</svg:g>
<svg:g>
</svg:g>
<svg:g>
</svg:g>
<svg:g>
</svg:g>
<svg:g>
</svg:g>
<svg:g>
</svg:g>
<svg:g>
</svg:g>
<svg:g>
</svg:g>
<svg:g>
</svg:g>
<svg:g>
</svg:g>
<svg:g>
</svg:g>
<svg:g>
</svg:g>
<svg:g>
</svg:g>
<svg:g>
</svg:g>
<svg:g>
</svg:g>
<svg:g>
</svg:g>
<svg:g>
</svg:g>
<svg:g>
</svg:g>
<svg:g>
</svg:g>
<svg:g>
</svg:g>
<svg:g>
</svg:g>
<svg:g>
</svg:g>
<svg:g>
</svg:g>
<svg:g>
</svg:g>
<svg:g>
</svg:g>
<svg:g>
</svg:g>
<svg:g>
</svg:g>
<svg:g>
</svg:g>
<svg:g>
</svg:g>
<svg:g>
</svg:g>
<svg:g>
</svg:g>
<svg:g>
</svg:g>
<svg:g>
</svg:g>
<svg:g>
</svg:g>
<svg:g>
</svg:g>
<svg:g>
</svg:g>
<svg:g>
</svg:g>
<svg:g>
</svg:g>
<svg:g>
</svg:g>
<svg:g>
</svg:g>
<svg:g>
</svg:g>
</svg:g> 
</svg:g></svg:g></svg>
