<?xml version='1.0' encoding='ASCII' standalone='yes'?>
<svg xmlns:svg="http://www.w3.org/2000/svg" xmlns="http://www.w3.org/2000/svg" xmlns:xlink="http://www.w3.org/1999/xlink" version="1.1" width="29.700220cm" height="21.000720cm" viewBox="0 0 2970022 2100072">
<title>SVG Picture created as GPS02B-B_Fab.svg date 2023/05/25 07:25:29 </title>
  <desc>Picture generated by PCBNEW </desc>
<g style="fill:#000084; fill-opacity:1.000000;stroke:#000084; stroke-opacity:1.000000; stroke-linecap:round; stroke-linejoin:round;" transform="translate(0 0) scale(1 1)">
</g>
<g style="fill:#000084; fill-opacity:0.0;  stroke:#000084; stroke-width:0.000000; stroke-opacity:1;  stroke-linecap:round; stroke-linejoin:round;">
</g>
<g style="fill:#000084; fill-opacity:0.01;  stroke:#000084; stroke-width:5352.684730; stroke-opacity:1;  stroke-linecap:round; stroke-linejoin:round;">
<g transform="rotate(-90.000000 1394762.223689 1426591.143527)">
<text x="1394762.223689" y="1438852.525989" transform="scale(-1 1) translate(-2789524.447378 0)" textLength="47877.711462" font-size="32697.003564" lengthAdjust="spacingAndGlyphs" text-anchor="middle" opacity="0.01" style="font-family:monospace">C3</text>
</g>
<g class="stroked-text"><desc>C3</desc>
<path d="M1403520 1422504 L1404688 1421336 L1405855 1417833 L1405855 1415497 L1404688 1411994 L1402352 1409658 L1400017 1408491 L1395346 1407323 L1391842 1407323 L1387171 1408491 L1384836 1409658 L1382500 1411994 L1381333 1415497 L1381333 1417833 L1382500 1421336 L1383668 1422504 "/>
<path d="M1381333 1430678 L1381333 1445859 L1390675 1437684 L1390675 1441188 L1391842 1443523 L1393010 1444691 L1395346 1445859 L1401184 1445859 L1403520 1444691 L1404688 1443523 L1405855 1441188 L1405855 1434181 L1404688 1431846 L1403520 1430678 "/>
</g><g transform="rotate(-90.000000 1428994.509752 1432815.195538)">
<text x="1428994.509752" y="1445076.578001" transform="scale(-1 1) translate(-2857989.019504 0)" textLength="59603.286360" font-size="32697.003564" lengthAdjust="spacingAndGlyphs" text-anchor="middle" opacity="0.01" style="font-family:monospace">1uF</text>
</g>
<g class="stroked-text"><desc>1uF</desc>
<path d="M1440088 1418218 L1440088 1404205 "/>
<path d="M1440088 1411211 L1415565 1411211 L1419068 1408876 L1421404 1406540 L1422571 1404205 "/>
<path d="M1423739 1439237 L1440088 1439237 "/>
<path d="M1423739 1428728 L1436584 1428728 L1438920 1429895 L1440088 1432231 L1440088 1435734 L1438920 1438070 L1437752 1439237 "/>
<path d="M1427242 1459089 L1427242 1450915 "/>
<path d="M1440088 1450915 L1415565 1450915 L1415565 1462592 "/>
</g><g transform="rotate(-90.000000 2073183.892941 436966.873701)">
<text x="2073183.892941" y="449228.256163" transform="scale(-1 1) translate(-4146367.785882 0)" textLength="40919.270321" font-size="32697.003564" lengthAdjust="spacingAndGlyphs" text-anchor="middle" opacity="0.01" style="font-family:monospace">C6</text>
</g>
<g class="stroked-text"><desc>C6</desc>
<path d="M2081942 432879 L2083109 431712 L2084277 428208 L2084277 425873 L2083109 422370 L2080774 420034 L2078438 418866 L2073767 417699 L2070264 417699 L2065593 418866 L2063258 420034 L2060922 422370 L2059754 425873 L2059754 428208 L2060922 431712 L2062090 432879 "/>
<path d="M2059754 453899 L2059754 449228 L2060922 446892 L2062090 445725 L2065593 443389 L2070264 442221 L2079606 442221 L2081942 443389 L2083109 444557 L2084277 446892 L2084277 451563 L2083109 453899 L2081942 455067 L2079606 456234 L2073767 456234 L2071432 455067 L2070264 453899 L2069096 451563 L2069096 446892 L2070264 444557 L2071432 443389 L2073767 442221 "/>
</g><g transform="rotate(-90.000000 2038951.606878 430742.821689)">
<text x="2038951.606878" y="443004.204152" transform="scale(-1 1) translate(-4077903.213755 0)" textLength="59603.286360" font-size="32697.003564" lengthAdjust="spacingAndGlyphs" text-anchor="middle" opacity="0.01" style="font-family:monospace">1uF</text>
</g>
<g class="stroked-text"><desc>1uF</desc>
<path d="M2050045 416145 L2050045 402132 "/>
<path d="M2050045 409139 L2025522 409139 L2029025 406803 L2031361 404468 L2032528 402132 "/>
<path d="M2033696 437165 L2050045 437165 "/>
<path d="M2033696 426655 L2046541 426655 L2048877 427823 L2050045 430158 L2050045 433662 L2048877 435997 L2047709 437165 "/>
<path d="M2037199 457017 L2037199 448843 "/>
<path d="M2050045 448843 L2025522 448843 L2025522 460520 "/>
</g><text x="2527539.689779" y="579933.348404" transform="scale(-1 1) translate(-5055079.379558 0)" textLength="40919.270321" font-size="32697.003564" lengthAdjust="spacingAndGlyphs" text-anchor="middle" opacity="0.01" style="font-family:monospace">C7</text>
<g class="stroked-text"><desc>C7</desc>
<path d="M2531626 576430 L2532794 577597 L2536297 578765 L2538633 578765 L2542136 577597 L2544472 575262 L2545639 572926 L2546807 568255 L2546807 564752 L2545639 560081 L2544472 557746 L2542136 555410 L2538633 554242 L2536297 554242 L2532794 555410 L2531626 556578 "/>
<path d="M2523452 554242 L2507104 554242 L2517613 578765 "/>
</g><text x="2533763.741791" y="545701.062341" transform="scale(-1 1) translate(-5067527.483581 0)" textLength="82958.330913" font-size="32697.003564" lengthAdjust="spacingAndGlyphs" text-anchor="middle" opacity="0.01" style="font-family:monospace">47pF</text>
<g class="stroked-text"><desc>47pF</desc>
<path d="M2562373 528184 L2562373 544533 "/>
<path d="M2568212 518842 L2574051 536359 L2558870 536359 "/>
<path d="M2551863 520010 L2535515 520010 L2546025 544533 "/>
<path d="M2526173 528184 L2526173 552707 "/>
<path d="M2526173 529352 L2523837 528184 L2519166 528184 L2516831 529352 L2515663 530520 L2514495 532855 L2514495 539862 L2515663 542197 L2516831 543365 L2519166 544533 L2523837 544533 L2526173 543365 "/>
<path d="M2495811 531688 L2503986 531688 "/>
<path d="M2503986 544533 L2503986 520010 L2492308 520010 "/>
</g></g>
<g style="fill:#000084; fill-opacity:0.01;  stroke:#000084; stroke-width:7351.242533; stroke-opacity:1;  stroke-linecap:round; stroke-linejoin:round;">
<text x="1341857.781591" y="993627.462460" transform="scale(-1 1) translate(-2683715.563183 0)" textLength="88724.351507" font-size="65344.361737" lengthAdjust="spacingAndGlyphs" text-anchor="middle" opacity="0.01" style="font-family:monospace">D1</text>
<g class="stroked-text"><desc>D1</desc>
<path d="M1378030 991293 L1378030 942285 L1366361 942285 L1359360 944619 L1354693 949286 L1352359 953954 L1350025 963289 L1350025 970290 L1352359 979625 L1354693 984292 L1359360 988960 L1366361 991293 L1378030 991293 "/>
<path d="M1303351 991293 L1331355 991293 "/>
<path d="M1317353 991293 L1317353 942285 L1322021 949286 L1326688 953954 L1331355 956287 "/>
</g><text x="999534.920960" y="1684497.235735" transform="scale(-1 1) translate(-1999069.841919 0)" textLength="86126.226362" font-size="65344.361737" lengthAdjust="spacingAndGlyphs" text-anchor="middle" opacity="0.01" style="font-family:monospace">D2</text>
<g class="stroked-text"><desc>D2</desc>
<path d="M1035707 1682163 L1035707 1633155 L1024039 1633155 L1017037 1635488 L1012370 1640156 L1010036 1644823 L1007702 1654158 L1007702 1661159 L1010036 1670494 L1012370 1675162 L1017037 1679829 L1024039 1682163 L1035707 1682163 "/>
<path d="M989033 1637822 L986699 1635488 L982031 1633155 L970363 1633155 L965695 1635488 L963362 1637822 L961028 1642490 L961028 1647157 L963362 1654158 L991366 1682163 L961028 1682163 "/>
</g><g transform="rotate(-90.000000 586257.867397 324311.532293)">
<text x="586257.867397" y="355431.792350" transform="scale(-1 1) translate(-1172515.734794 0)" textLength="52683.904822" font-size="82987.343817" lengthAdjust="spacingAndGlyphs" text-anchor="middle" opacity="0.01" style="font-family:monospace">K</text>
</g>
<g class="stroked-text"><desc>K</desc>
<path d="M614414 308010 L552173 308010 "/>
<path d="M614414 343576 L578848 316901 "/>
<path d="M552173 343576 L587739 308010 "/>
</g><g transform="rotate(-90.000000 588747.488202 601904.252005)">
<text x="588747.488202" y="633024.512062" transform="scale(-1 1) translate(-1177494.976403 0)" textLength="111960.599980" font-size="82987.343817" lengthAdjust="spacingAndGlyphs" text-anchor="middle" opacity="0.01" style="font-family:monospace">D3</text>
</g>
<g class="stroked-text"><desc>D3</desc>
<path d="M616903 555964 L554663 555964 L554663 570783 L557627 579675 L563554 585603 L569482 588567 L581337 591530 L590229 591530 L602084 588567 L608012 585603 L613940 579675 L616903 570783 L616903 555964 "/>
<path d="M554663 612277 L554663 650807 L578374 630060 L578374 638952 L581337 644879 L584301 647843 L590229 650807 L605048 650807 L610976 647843 L613940 644879 L616903 638952 L616903 621169 L613940 615241 L610976 612277 "/>
</g><g transform="rotate(-90.000000 772979.427742 324311.532293)">
<text x="772979.427742" y="355431.792350" transform="scale(-1 1) translate(-1545958.855483 0)" textLength="52683.904822" font-size="82987.343817" lengthAdjust="spacingAndGlyphs" text-anchor="middle" opacity="0.01" style="font-family:monospace">K</text>
</g>
<g class="stroked-text"><desc>K</desc>
<path d="M801135 308010 L738895 308010 "/>
<path d="M801135 343576 L765569 316901 "/>
<path d="M738895 343576 L774461 308010 "/>
</g><g transform="rotate(-90.000000 781693.100558 601904.252005)">
<text x="781693.100558" y="633024.512062" transform="scale(-1 1) translate(-1563386.201115 0)" textLength="111960.599980" font-size="82987.343817" lengthAdjust="spacingAndGlyphs" text-anchor="middle" opacity="0.01" style="font-family:monospace">D5</text>
</g>
<g class="stroked-text"><desc>D5</desc>
<path d="M809849 555964 L747608 555964 L747608 570783 L750572 579675 L756500 585603 L762428 588567 L774283 591530 L783175 591530 L795030 588567 L800958 585603 L806885 579675 L809849 570783 L809849 555964 "/>
<path d="M747608 647843 L747608 618205 L777247 615241 L774283 618205 L771319 624133 L771319 638952 L774283 644879 L777247 647843 L783175 650807 L797994 650807 L803921 647843 L806885 644879 L809849 638952 L809849 624133 L806885 618205 L803921 615241 "/>
</g><g transform="rotate(-90.000000 1121526.340385 322743.267219)">
<text x="1121526.340385" y="353863.527276" transform="scale(-1 1) translate(-2243052.680770 0)" textLength="52683.904822" font-size="82987.343817" lengthAdjust="spacingAndGlyphs" text-anchor="middle" opacity="0.01" style="font-family:monospace">K</text>
</g>
<g class="stroked-text"><desc>K</desc>
<path d="M1149682 306442 L1087442 306442 "/>
<path d="M1149682 342008 L1114116 315333 "/>
<path d="M1087442 342008 L1123008 306442 "/>
</g><g transform="rotate(-90.000000 1124015.961189 595680.199993)">
<text x="1124015.961189" y="626800.460051" transform="scale(-1 1) translate(-2248031.922379 0)" textLength="111960.599980" font-size="82987.343817" lengthAdjust="spacingAndGlyphs" text-anchor="middle" opacity="0.01" style="font-family:monospace">D6</text>
</g>
<g class="stroked-text"><desc>D6</desc>
<path d="M1152172 549740 L1089931 549740 L1089931 564559 L1092895 573451 L1098823 579379 L1104751 582342 L1116606 585306 L1125497 585306 L1137353 582342 L1143280 579379 L1149208 573451 L1152172 564559 L1152172 549740 "/>
<path d="M1089931 638655 L1089931 626800 L1092895 620872 L1095859 617908 L1104751 611981 L1116606 609017 L1140317 609017 L1146244 611981 L1149208 614945 L1152172 620872 L1152172 632728 L1149208 638655 L1146244 641619 L1140317 644583 L1125497 644583 L1119570 641619 L1116606 638655 L1113642 632728 L1113642 620872 L1116606 614945 L1119570 611981 L1125497 609017 "/>
</g></g>
<g style="fill:#000084; fill-opacity:0.01;  stroke:#000084; stroke-width:5880.994027; stroke-opacity:1;  stroke-linecap:round; stroke-linejoin:round;">
<text x="1030802.205868" y="1542667.263127" transform="scale(-1 1) translate(-2061604.411736 0)" textLength="59521.736576" font-size="52275.469786" lengthAdjust="spacingAndGlyphs" text-anchor="middle" opacity="0.01" style="font-family:monospace">L1</text>
<g class="stroked-text"><desc>L1</desc>
<path d="M1037336 1540800 L1056006 1540800 L1056006 1501593 "/>
<path d="M1003730 1540800 L1026134 1540800 "/>
<path d="M1014932 1540800 L1014932 1501593 L1018666 1507194 L1022400 1510928 L1026134 1512795 "/>
</g></g>
<g style="fill:#000084; fill-opacity:0.0;  stroke:#000084; stroke-width:1960.331342; stroke-opacity:1;  stroke-linecap:round; stroke-linejoin:round;">
<g transform="rotate(-90.000000 2409307.205703 821167.312630)">
<text x="2409307.205703" y="827293.348074" transform="scale(-1 1) translate(-4818614.411406 0)" textLength="13941.680473" font-size="16336.078182" lengthAdjust="spacingAndGlyphs" text-anchor="middle" opacity="0.01" style="font-family:monospace">L2</text>
</g>
<g class="stroked-text"><desc>L2</desc>
<path d="M2414849 819125 L2414849 813290 L2402597 813290 "/>
<path d="M2403764 822625 L2403181 823209 L2402597 824376 L2402597 827293 L2403181 828460 L2403764 829043 L2404931 829627 L2406098 829627 L2407848 829043 L2414849 822042 L2414849 829627 "/>
</g></g>
<g style="fill:#000084; fill-opacity:0.01;  stroke:#000084; stroke-width:5352.684730; stroke-opacity:1;  stroke-linecap:round; stroke-linejoin:round;">
<g transform="rotate(-90.000000 1425882.483746 1246093.635194)">
<text x="1425882.483746" y="1258355.017656" transform="scale(-1 1) translate(-2851764.967493 0)" textLength="45329.329725" font-size="32697.003564" lengthAdjust="spacingAndGlyphs" text-anchor="middle" opacity="0.01" style="font-family:monospace">R1</text>
</g>
<g class="stroked-text"><desc>R1</desc>
<path d="M1436976 1242006 L1425298 1233832 "/>
<path d="M1436976 1227993 L1412453 1227993 L1412453 1237335 L1413621 1239671 L1414788 1240838 L1417124 1242006 L1420627 1242006 L1422963 1240838 L1424130 1239671 L1425298 1237335 L1425298 1227993 "/>
<path d="M1436976 1265361 L1436976 1251348 "/>
<path d="M1436976 1258355 L1412453 1258355 L1415956 1256019 L1418292 1253684 L1419459 1251348 "/>
</g><g transform="rotate(-90.000000 1391650.197683 1239869.583182)">
<text x="1391650.197683" y="1252130.965645" transform="scale(-1 1) translate(-2783300.395366 0)" textLength="64274.314874" font-size="32697.003564" lengthAdjust="spacingAndGlyphs" text-anchor="middle" opacity="0.01" style="font-family:monospace">22R</text>
</g>
<g class="stroked-text"><desc>22R</desc>
<path d="M1380556 1208924 L1379388 1210091 L1378221 1212427 L1378221 1218266 L1379388 1220601 L1380556 1221769 L1382892 1222937 L1385227 1222937 L1388730 1221769 L1402743 1207756 L1402743 1222937 "/>
<path d="M1380556 1232279 L1379388 1233446 L1378221 1235782 L1378221 1241621 L1379388 1243956 L1380556 1245124 L1382892 1246292 L1385227 1246292 L1388730 1245124 L1402743 1231111 L1402743 1246292 "/>
<path d="M1402743 1270814 L1391066 1262640 "/>
<path d="M1402743 1256801 L1378221 1256801 L1378221 1266144 L1379388 1268479 L1380556 1269647 L1382892 1270814 L1386395 1270814 L1388730 1269647 L1389898 1268479 L1391066 1266144 L1391066 1256801 "/>
</g><text x="2309697.869377" y="1638022.190357" transform="scale(-1 1) translate(-4619395.738754 0)" textLength="40919.270321" font-size="32697.003564" lengthAdjust="spacingAndGlyphs" text-anchor="middle" opacity="0.01" style="font-family:monospace">R2</text>
<g class="stroked-text"><desc>R2</desc>
<path d="M2313784 1636854 L2321959 1625176 "/>
<path d="M2327798 1636854 L2327798 1612331 L2318455 1612331 L2316120 1613499 L2314952 1614667 L2313784 1617002 L2313784 1620505 L2314952 1622841 L2316120 1624009 L2318455 1625176 L2327798 1625176 "/>
<path d="M2304442 1614667 L2303275 1613499 L2300939 1612331 L2295100 1612331 L2292765 1613499 L2291597 1614667 L2290429 1617002 L2290429 1619338 L2291597 1622841 L2305610 1636854 L2290429 1636854 "/>
</g><text x="2315921.921389" y="1603789.904294" transform="scale(-1 1) translate(-4631843.842777 0)" textLength="59603.286360" font-size="32697.003564" lengthAdjust="spacingAndGlyphs" text-anchor="middle" opacity="0.01" style="font-family:monospace">10k</text>
<g class="stroked-text"><desc>10k</desc>
<path d="M2330518 1602622 L2344531 1602622 "/>
<path d="M2337525 1602622 L2337525 1578099 L2339860 1581602 L2342196 1583938 L2344531 1585105 "/>
<path d="M2315338 1578099 L2313002 1578099 L2310667 1579267 L2309499 1580434 L2308331 1582770 L2307163 1587441 L2307163 1593280 L2308331 1597951 L2309499 1600286 L2310667 1601454 L2313002 1602622 L2315338 1602622 L2317673 1601454 L2318841 1600286 L2320009 1597951 L2321176 1593280 L2321176 1587441 L2320009 1582770 L2318841 1580434 L2317673 1579267 L2315338 1578099 "/>
<path d="M2296654 1602622 L2296654 1578099 "/>
<path d="M2294318 1593280 L2287312 1602622 "/>
<path d="M2287312 1586273 L2296654 1595615 "/>
</g><text x="2135424.413056" y="1606901.930299" transform="scale(-1 1) translate(-4270848.826111 0)" textLength="40919.270321" font-size="32697.003564" lengthAdjust="spacingAndGlyphs" text-anchor="middle" opacity="0.01" style="font-family:monospace">R3</text>
<g class="stroked-text"><desc>R3</desc>
<path d="M2139511 1605734 L2147685 1594056 "/>
<path d="M2153524 1605734 L2153524 1581211 L2144182 1581211 L2141846 1582379 L2140679 1583546 L2139511 1585882 L2139511 1589385 L2140679 1591721 L2141846 1592888 L2144182 1594056 L2153524 1594056 "/>
<path d="M2131337 1581211 L2116156 1581211 L2124330 1590553 L2120827 1590553 L2118492 1591721 L2117324 1592888 L2116156 1595224 L2116156 1601063 L2117324 1603398 L2118492 1604566 L2120827 1605734 L2127834 1605734 L2130169 1604566 L2131337 1603398 "/>
</g><text x="2129200.361044" y="1641134.216362" transform="scale(-1 1) translate(-4258400.722088 0)" textLength="59603.286360" font-size="32697.003564" lengthAdjust="spacingAndGlyphs" text-anchor="middle" opacity="0.01" style="font-family:monospace">10k</text>
<g class="stroked-text"><desc>10k</desc>
<path d="M2143797 1639966 L2157810 1639966 "/>
<path d="M2150803 1639966 L2150803 1615443 L2153139 1618946 L2155474 1621282 L2157810 1622450 "/>
<path d="M2128616 1615443 L2126280 1615443 L2123945 1616611 L2122777 1617779 L2121609 1620114 L2120442 1624785 L2120442 1630624 L2121609 1635295 L2122777 1637631 L2123945 1638798 L2126280 1639966 L2128616 1639966 L2130951 1638798 L2132119 1637631 L2133287 1635295 L2134455 1630624 L2134455 1624785 L2133287 1620114 L2132119 1617779 L2130951 1616611 L2128616 1615443 "/>
<path d="M2109932 1639966 L2109932 1615443 "/>
<path d="M2107596 1630624 L2100590 1639966 "/>
<path d="M2100590 1623617 L2109932 1632959 "/>
</g><text x="1755757.240355" y="548813.088347" transform="scale(-1 1) translate(-3511514.480710 0)" textLength="40919.270321" font-size="32697.003564" lengthAdjust="spacingAndGlyphs" text-anchor="middle" opacity="0.01" style="font-family:monospace">R4</text>
<g class="stroked-text"><desc>R4</desc>
<path d="M1759844 547645 L1768018 535967 "/>
<path d="M1773857 547645 L1773857 523122 L1764515 523122 L1762179 524290 L1761012 525458 L1759844 527793 L1759844 531296 L1761012 533632 L1762179 534800 L1764515 535967 L1773857 535967 "/>
<path d="M1738824 531296 L1738824 547645 "/>
<path d="M1744663 521954 L1750502 539471 L1735321 539471 "/>
</g><text x="1749533.188344" y="583045.374410" transform="scale(-1 1) translate(-3499066.376687 0)" textLength="64274.314874" font-size="32697.003564" lengthAdjust="spacingAndGlyphs" text-anchor="middle" opacity="0.01" style="font-family:monospace">33R</text>
<g class="stroked-text"><desc>33R</desc>
<path d="M1781646 557354 L1766465 557354 L1774639 566696 L1771136 566696 L1768801 567864 L1767633 569032 L1766465 571367 L1766465 577206 L1767633 579542 L1768801 580709 L1771136 581877 L1778143 581877 L1780478 580709 L1781646 579542 "/>
<path d="M1758291 557354 L1743110 557354 L1751284 566696 L1747781 566696 L1745446 567864 L1744278 569032 L1743110 571367 L1743110 577206 L1744278 579542 L1745446 580709 L1747781 581877 L1754788 581877 L1757123 580709 L1758291 579542 "/>
<path d="M1718587 581877 L1726762 570200 "/>
<path d="M1732600 581877 L1732600 557354 L1723258 557354 L1720923 558522 L1719755 559690 L1718587 562025 L1718587 565529 L1719755 567864 L1720923 569032 L1723258 570200 L1732600 570200 "/>
</g><g transform="rotate(-90.000000 1842893.968516 1519951.923699)">
<text x="1842893.968516" y="1532213.306162" transform="scale(-1 1) translate(-3685787.937032 0)" textLength="40919.270321" font-size="32697.003564" lengthAdjust="spacingAndGlyphs" text-anchor="middle" opacity="0.01" style="font-family:monospace">R6</text>
</g>
<g class="stroked-text"><desc>R6</desc>
<path d="M1853987 1515864 L1842310 1507690 "/>
<path d="M1853987 1501851 L1829464 1501851 L1829464 1511193 L1830632 1513529 L1831800 1514697 L1834135 1515864 L1837639 1515864 L1839974 1514697 L1841142 1513529 L1842310 1511193 L1842310 1501851 "/>
<path d="M1829464 1536884 L1829464 1532213 L1830632 1529877 L1831800 1528710 L1835303 1526374 L1839974 1525206 L1849316 1525206 L1851652 1526374 L1852819 1527542 L1853987 1529877 L1853987 1534548 L1852819 1536884 L1851652 1538052 L1849316 1539219 L1843477 1539219 L1841142 1538052 L1839974 1536884 L1838806 1534548 L1838806 1529877 L1839974 1527542 L1841142 1526374 L1843477 1525206 "/>
</g><g transform="rotate(-90.000000 1877126.254579 1526175.975710)">
<text x="1877126.254579" y="1538437.358173" transform="scale(-1 1) translate(-3754252.509158 0)" textLength="64274.314874" font-size="32697.003564" lengthAdjust="spacingAndGlyphs" text-anchor="middle" opacity="0.01" style="font-family:monospace">33R</text>
</g>
<g class="stroked-text"><desc>33R</desc>
<path d="M1863697 1494062 L1863697 1509243 L1873039 1501069 L1873039 1504572 L1874206 1506908 L1875374 1508075 L1877710 1509243 L1883548 1509243 L1885884 1508075 L1887052 1506908 L1888219 1504572 L1888219 1497566 L1887052 1495230 L1885884 1494062 "/>
<path d="M1863697 1517417 L1863697 1532598 L1873039 1524424 L1873039 1527927 L1874206 1530263 L1875374 1531430 L1877710 1532598 L1883548 1532598 L1885884 1531430 L1887052 1530263 L1888219 1527927 L1888219 1520921 L1887052 1518585 L1885884 1517417 "/>
<path d="M1888219 1557121 L1876542 1548947 "/>
<path d="M1888219 1543108 L1863697 1543108 L1863697 1552450 L1864864 1554785 L1866032 1555953 L1868368 1557121 L1871871 1557121 L1874206 1555953 L1875374 1554785 L1876542 1552450 L1876542 1543108 "/>
</g><g transform="rotate(-90.000000 1718412.928286 1519951.923699)">
<text x="1718412.928286" y="1532213.306162" transform="scale(-1 1) translate(-3436825.856572 0)" textLength="40919.270321" font-size="32697.003564" lengthAdjust="spacingAndGlyphs" text-anchor="middle" opacity="0.01" style="font-family:monospace">R7</text>
</g>
<g class="stroked-text"><desc>R7</desc>
<path d="M1729506 1515864 L1717829 1507690 "/>
<path d="M1729506 1501851 L1704983 1501851 L1704983 1511193 L1706151 1513529 L1707319 1514697 L1709654 1515864 L1713158 1515864 L1715493 1514697 L1716661 1513529 L1717829 1511193 L1717829 1501851 "/>
<path d="M1704983 1524039 L1704983 1540387 L1729506 1529877 "/>
</g><g transform="rotate(-90.000000 1752645.214349 1526175.975710)">
<text x="1752645.214349" y="1538437.358173" transform="scale(-1 1) translate(-3505290.428699 0)" textLength="64274.314874" font-size="32697.003564" lengthAdjust="spacingAndGlyphs" text-anchor="middle" opacity="0.01" style="font-family:monospace">33R</text>
</g>
<g class="stroked-text"><desc>33R</desc>
<path d="M1739216 1494062 L1739216 1509243 L1748558 1501069 L1748558 1504572 L1749725 1506908 L1750893 1508075 L1753229 1509243 L1759067 1509243 L1761403 1508075 L1762571 1506908 L1763738 1504572 L1763738 1497566 L1762571 1495230 L1761403 1494062 "/>
<path d="M1739216 1517417 L1739216 1532598 L1748558 1524424 L1748558 1527927 L1749725 1530263 L1750893 1531430 L1753229 1532598 L1759067 1532598 L1761403 1531430 L1762571 1530263 L1763738 1527927 L1763738 1520921 L1762571 1518585 L1761403 1517417 "/>
<path d="M1763738 1557121 L1752061 1548947 "/>
<path d="M1763738 1543108 L1739216 1543108 L1739216 1552450 L1740383 1554785 L1741551 1555953 L1743887 1557121 L1747390 1557121 L1749725 1555953 L1750893 1554785 L1752061 1552450 L1752061 1543108 "/>
</g><text x="2172768.725125" y="1525989.254150" transform="scale(-1 1) translate(-4345537.450249 0)" textLength="40919.270321" font-size="32697.003564" lengthAdjust="spacingAndGlyphs" text-anchor="middle" opacity="0.01" style="font-family:monospace">R8</text>
<g class="stroked-text"><desc>R8</desc>
<path d="M2176855 1524821 L2185030 1513144 "/>
<path d="M2190868 1524821 L2190868 1500298 L2181526 1500298 L2179191 1501466 L2178023 1502634 L2176855 1504969 L2176855 1508473 L2178023 1510808 L2179191 1511976 L2181526 1513144 L2190868 1513144 "/>
<path d="M2162842 1510808 L2165178 1509640 L2166346 1508473 L2167513 1506137 L2167513 1504969 L2166346 1502634 L2165178 1501466 L2162842 1500298 L2158171 1500298 L2155836 1501466 L2154668 1502634 L2153500 1504969 L2153500 1506137 L2154668 1508473 L2155836 1509640 L2158171 1510808 L2162842 1510808 L2165178 1511976 L2166346 1513144 L2167513 1515479 L2167513 1520150 L2166346 1522486 L2165178 1523653 L2162842 1524821 L2158171 1524821 L2155836 1523653 L2154668 1522486 L2153500 1520150 L2153500 1515479 L2154668 1513144 L2155836 1511976 L2158171 1510808 "/>
</g><text x="2178992.777136" y="1491756.968087" transform="scale(-1 1) translate(-4357985.554272 0)" textLength="64274.314874" font-size="32697.003564" lengthAdjust="spacingAndGlyphs" text-anchor="middle" opacity="0.01" style="font-family:monospace">33R</text>
<g class="stroked-text"><desc>33R</desc>
<path d="M2211105 1466066 L2195925 1466066 L2204099 1475408 L2200596 1475408 L2198260 1476576 L2197092 1477743 L2195925 1480079 L2195925 1485918 L2197092 1488253 L2198260 1489421 L2200596 1490589 L2207602 1490589 L2209938 1489421 L2211105 1488253 "/>
<path d="M2187750 1466066 L2172570 1466066 L2180744 1475408 L2177241 1475408 L2174905 1476576 L2173737 1477743 L2172570 1480079 L2172570 1485918 L2173737 1488253 L2174905 1489421 L2177241 1490589 L2184247 1490589 L2186583 1489421 L2187750 1488253 "/>
<path d="M2148047 1490589 L2156221 1478911 "/>
<path d="M2162060 1490589 L2162060 1466066 L2152718 1466066 L2150382 1467234 L2149215 1468401 L2148047 1470737 L2148047 1474240 L2149215 1476576 L2150382 1477743 L2152718 1478911 L2162060 1478911 "/>
</g><g transform="rotate(-90.000000 1967375.008746 1519951.923699)">
<text x="1967375.008746" y="1532213.306162" transform="scale(-1 1) translate(-3934750.017491 0)" textLength="40919.270321" font-size="32697.003564" lengthAdjust="spacingAndGlyphs" text-anchor="middle" opacity="0.01" style="font-family:monospace">R9</text>
</g>
<g class="stroked-text"><desc>R9</desc>
<path d="M1978468 1515864 L1966791 1507690 "/>
<path d="M1978468 1501851 L1953945 1501851 L1953945 1511193 L1955113 1513529 L1956281 1514697 L1958616 1515864 L1962120 1515864 L1964455 1514697 L1965623 1513529 L1966791 1511193 L1966791 1501851 "/>
<path d="M1978468 1527542 L1978468 1532213 L1977300 1534548 L1976133 1535716 L1972629 1538052 L1967958 1539219 L1958616 1539219 L1956281 1538052 L1955113 1536884 L1953945 1534548 L1953945 1529877 L1955113 1527542 L1956281 1526374 L1958616 1525206 L1964455 1525206 L1966791 1526374 L1967958 1527542 L1969126 1529877 L1969126 1534548 L1967958 1536884 L1966791 1538052 L1964455 1539219 "/>
</g><g transform="rotate(-90.000000 2001607.294809 1526175.975710)">
<text x="2001607.294809" y="1538437.358173" transform="scale(-1 1) translate(-4003214.589618 0)" textLength="64274.314874" font-size="32697.003564" lengthAdjust="spacingAndGlyphs" text-anchor="middle" opacity="0.01" style="font-family:monospace">33R</text>
</g>
<g class="stroked-text"><desc>33R</desc>
<path d="M1988178 1494062 L1988178 1509243 L1997520 1501069 L1997520 1504572 L1998687 1506908 L1999855 1508075 L2002191 1509243 L2008029 1509243 L2010365 1508075 L2011533 1506908 L2012700 1504572 L2012700 1497566 L2011533 1495230 L2010365 1494062 "/>
<path d="M1988178 1517417 L1988178 1532598 L1997520 1524424 L1997520 1527927 L1998687 1530263 L1999855 1531430 L2002191 1532598 L2008029 1532598 L2010365 1531430 L2011533 1530263 L2012700 1527927 L2012700 1520921 L2011533 1518585 L2010365 1517417 "/>
<path d="M2012700 1557121 L2001023 1548947 "/>
<path d="M2012700 1543108 L1988178 1543108 L1988178 1552450 L1989345 1554785 L1990513 1555953 L1992849 1557121 L1996352 1557121 L1998687 1555953 L1999855 1554785 L2001023 1552450 L2001023 1543108 "/>
</g><g transform="rotate(-90.000000 604307.618230 188004.793241)">
<text x="604307.618230" y="200266.175704" transform="scale(-1 1) translate(-1208615.236461 0)" textLength="64274.314874" font-size="32697.003564" lengthAdjust="spacingAndGlyphs" text-anchor="middle" opacity="0.01" style="font-family:monospace">R10</text>
</g>
<g class="stroked-text"><desc>R10</desc>
<path d="M615401 172240 L603723 164065 "/>
<path d="M615401 158227 L590878 158227 L590878 167569 L592046 169904 L593213 171072 L595549 172240 L599052 172240 L601388 171072 L602555 169904 L603723 167569 L603723 158227 "/>
<path d="M615401 195595 L615401 181582 "/>
<path d="M615401 188588 L590878 188588 L594381 186253 L596717 183917 L597884 181582 "/>
<path d="M590878 210775 L590878 213111 L592046 215446 L593213 216614 L595549 217782 L600220 218950 L606059 218950 L610730 217782 L613065 216614 L614233 215446 L615401 213111 L615401 210775 L614233 208440 L613065 207272 L610730 206104 L606059 204937 L600220 204937 L595549 206104 L593213 207272 L592046 208440 L590878 210775 "/>
</g><g transform="rotate(-90.000000 570075.332167 181780.741230)">
<text x="570075.332167" y="194042.123692" transform="scale(-1 1) translate(-1140150.664335 0)" textLength="87629.310419" font-size="32697.003564" lengthAdjust="spacingAndGlyphs" text-anchor="middle" opacity="0.01" style="font-family:monospace">620R</text>
</g>
<g class="stroked-text"><desc>620R</desc>
<path d="M556646 150835 L556646 146164 L557813 143828 L558981 142661 L562484 140325 L567155 139157 L576497 139157 L578833 140325 L580001 141493 L581168 143828 L581168 148499 L580001 150835 L578833 152003 L576497 153170 L570659 153170 L568323 152003 L567155 150835 L565988 148499 L565988 143828 L567155 141493 L568323 140325 L570659 139157 "/>
<path d="M558981 162512 L557813 163680 L556646 166016 L556646 171854 L557813 174190 L558981 175358 L561317 176525 L563652 176525 L567155 175358 L581168 161345 L581168 176525 "/>
<path d="M556646 191706 L556646 194042 L557813 196377 L558981 197545 L561317 198713 L565988 199880 L571826 199880 L576497 198713 L578833 197545 L580001 196377 L581168 194042 L581168 191706 L580001 189371 L578833 188203 L576497 187035 L571826 185867 L565988 185867 L561317 187035 L558981 188203 L557813 189371 L556646 191706 "/>
<path d="M581168 224403 L569491 216229 "/>
<path d="M581168 210390 L556646 210390 L556646 219732 L557813 222068 L558981 223235 L561317 224403 L564820 224403 L567155 223235 L568323 222068 L569491 219732 L569491 210390 "/>
</g><text x="2353266.233458" y="604829.556450" transform="scale(-1 1) translate(-4706532.466915 0)" textLength="64274.314874" font-size="32697.003564" lengthAdjust="spacingAndGlyphs" text-anchor="middle" opacity="0.01" style="font-family:monospace">R11</text>
<g class="stroked-text"><desc>R11</desc>
<path d="M2369030 603661 L2377205 591984 "/>
<path d="M2383043 603661 L2383043 579139 L2373701 579139 L2371366 580306 L2370198 581474 L2369030 583810 L2369030 587313 L2370198 589648 L2371366 590816 L2373701 591984 L2383043 591984 "/>
<path d="M2345675 603661 L2359688 603661 "/>
<path d="M2352682 603661 L2352682 579139 L2355017 582642 L2357353 584977 L2359688 586145 "/>
<path d="M2322320 603661 L2336333 603661 "/>
<path d="M2329327 603661 L2329327 579139 L2331662 582642 L2333998 584977 L2336333 586145 "/>
</g><text x="2359490.285469" y="570597.270387" transform="scale(-1 1) translate(-4718980.570938 0)" textLength="64274.314874" font-size="32697.003564" lengthAdjust="spacingAndGlyphs" text-anchor="middle" opacity="0.01" style="font-family:monospace">10R</text>
<g class="stroked-text"><desc>10R</desc>
<path d="M2376422 569429 L2390435 569429 "/>
<path d="M2383429 569429 L2383429 544906 L2385764 548410 L2388100 550745 L2390435 551913 "/>
<path d="M2361241 544906 L2358906 544906 L2356570 546074 L2355403 547242 L2354235 549577 L2353067 554248 L2353067 560087 L2354235 564758 L2355403 567094 L2356570 568261 L2358906 569429 L2361241 569429 L2363577 568261 L2364745 567094 L2365912 564758 L2367080 560087 L2367080 554248 L2365912 549577 L2364745 547242 L2363577 546074 L2361241 544906 "/>
<path d="M2328544 569429 L2336719 557752 "/>
<path d="M2342557 569429 L2342557 544906 L2333215 544906 L2330880 546074 L2329712 547242 L2328544 549577 L2328544 553081 L2329712 555416 L2330880 556584 L2333215 557752 L2342557 557752 "/>
</g><g transform="rotate(-90.000000 791029.178575 191116.819247)">
<text x="791029.178575" y="203378.201710" transform="scale(-1 1) translate(-1582058.357150 0)" textLength="64274.314874" font-size="32697.003564" lengthAdjust="spacingAndGlyphs" text-anchor="middle" opacity="0.01" style="font-family:monospace">R13</text>
</g>
<g class="stroked-text"><desc>R13</desc>
<path d="M802122 175352 L790445 167177 "/>
<path d="M802122 161339 L777600 161339 L777600 170681 L778767 173016 L779935 174184 L782271 175352 L785774 175352 L788109 174184 L789277 173016 L790445 170681 L790445 161339 "/>
<path d="M802122 198707 L802122 184694 "/>
<path d="M802122 191700 L777600 191700 L781103 189365 L783438 187029 L784606 184694 "/>
<path d="M777600 206881 L777600 222062 L786942 213887 L786942 217391 L788109 219726 L789277 220894 L791613 222062 L797451 222062 L799787 220894 L800955 219726 L802122 217391 L802122 210384 L800955 208049 L799787 206881 "/>
</g><g transform="rotate(-90.000000 756796.892512 184892.767235)">
<text x="756796.892512" y="197154.149698" transform="scale(-1 1) translate(-1513593.785024 0)" textLength="87629.310419" font-size="32697.003564" lengthAdjust="spacingAndGlyphs" text-anchor="middle" opacity="0.01" style="font-family:monospace">620R</text>
</g>
<g class="stroked-text"><desc>620R</desc>
<path d="M743367 153947 L743367 149276 L744535 146940 L745703 145773 L749206 143437 L753877 142269 L763219 142269 L765555 143437 L766722 144605 L767890 146940 L767890 151611 L766722 153947 L765555 155115 L763219 156282 L757380 156282 L755045 155115 L753877 153947 L752709 151611 L752709 146940 L753877 144605 L755045 143437 L757380 142269 "/>
<path d="M745703 165624 L744535 166792 L743367 169128 L743367 174966 L744535 177302 L745703 178470 L748038 179637 L750374 179637 L753877 178470 L767890 164457 L767890 179637 "/>
<path d="M743367 194818 L743367 197154 L744535 199489 L745703 200657 L748038 201825 L752709 202992 L758548 202992 L763219 201825 L765555 200657 L766722 199489 L767890 197154 L767890 194818 L766722 192483 L765555 191315 L763219 190147 L758548 188979 L752709 188979 L748038 190147 L745703 191315 L744535 192483 L743367 194818 "/>
<path d="M767890 227515 L756213 219341 "/>
<path d="M767890 213502 L743367 213502 L743367 222844 L744535 225180 L745703 226347 L748038 227515 L751541 227515 L753877 226347 L755045 225180 L756213 222844 L756213 213502 "/>
</g></g>
<g style="fill:#000084; fill-opacity:0.0;  stroke:#000084; stroke-width:7351.242533; stroke-opacity:1;  stroke-linecap:round; stroke-linejoin:round;">
<g transform="rotate(-90.000000 1972349.349526 1012691.684763)">
<text x="1972349.349526" y="1037195.826540" transform="scale(-1 1) translate(-3944698.699053 0)" textLength="352435.572918" font-size="65344.361737" lengthAdjust="spacingAndGlyphs" text-anchor="middle" opacity="0.01" style="font-family:monospace">NEO-M8P</text>
</g>
<g class="stroked-text"><desc>NEO-M8P</desc>
<path d="M1994519 844663 L1945511 844663 L1994519 872668 L1945511 872668 "/>
<path d="M1968848 896005 L1968848 912341 "/>
<path d="M1994519 919342 L1994519 896005 L1945511 896005 L1945511 919342 "/>
<path d="M1945511 949681 L1945511 959015 L1947845 963683 L1952512 968350 L1961847 970684 L1978183 970684 L1987518 968350 L1992185 963683 L1994519 959015 L1994519 949681 L1992185 945013 L1987518 940346 L1978183 938012 L1961847 938012 L1952512 940346 L1947845 945013 L1945511 949681 "/>
<path d="M1975849 991688 L1975849 1029027 "/>
<path d="M1994519 1052365 L1945511 1052365 L1980517 1068701 L1945511 1085037 L1994519 1085037 "/>
<path d="M1966515 1115375 L1964181 1110708 L1961847 1108374 L1957180 1106040 L1954846 1106040 L1950178 1108374 L1947845 1110708 L1945511 1115375 L1945511 1124710 L1947845 1129378 L1950178 1131711 L1954846 1134045 L1957180 1134045 L1961847 1131711 L1964181 1129378 L1966515 1124710 L1966515 1115375 L1968848 1110708 L1971182 1108374 L1975849 1106040 L1985184 1106040 L1989852 1108374 L1992185 1110708 L1994519 1115375 L1994519 1124710 L1992185 1129378 L1989852 1131711 L1985184 1134045 L1975849 1134045 L1971182 1131711 L1968848 1129378 L1966515 1124710 "/>
<path d="M1994519 1155049 L1945511 1155049 L1945511 1173718 L1947845 1178386 L1950178 1180720 L1954846 1183053 L1961847 1183053 L1966515 1180720 L1968848 1178386 L1971182 1173718 L1971182 1155049 "/>
</g><g transform="rotate(-90.000000 1893936.095838 1012691.684763)">
<text x="1893936.095838" y="1037195.826540" transform="scale(-1 1) translate(-3787872.191677 0)" textLength="88459.951817" font-size="65344.361737" lengthAdjust="spacingAndGlyphs" text-anchor="middle" opacity="0.01" style="font-family:monospace">U3</text>
</g>
<g class="stroked-text"><desc>U3</desc>
<path d="M1867098 975352 L1906771 975352 L1911439 977685 L1913772 980019 L1916106 984686 L1916106 994021 L1913772 998689 L1911439 1001023 L1906771 1003356 L1867098 1003356 "/>
<path d="M1867098 1022026 L1867098 1052365 L1885768 1036028 L1885768 1043030 L1888101 1047697 L1890435 1050031 L1895102 1052365 L1906771 1052365 L1911439 1050031 L1913772 1047697 L1916106 1043030 L1916106 1029027 L1913772 1024360 L1911439 1022026 "/>
</g></g>
<g style="fill:#000084; fill-opacity:0.01;  stroke:#000084; stroke-width:5352.684730; stroke-opacity:1;  stroke-linecap:round; stroke-linejoin:round;">
<text x="1338745.755586" y="1600677.878288" transform="scale(-1 1) translate(-2677491.511171 0)" textLength="38321.145177" font-size="32697.003564" lengthAdjust="spacingAndGlyphs" text-anchor="middle" opacity="0.01" style="font-family:monospace">C2</text>
<g class="stroked-text"><desc>C2</desc>
<path d="M1342832 1597174 L1344000 1598342 L1347503 1599510 L1349839 1599510 L1353342 1598342 L1355678 1596006 L1356845 1593671 L1358013 1589000 L1358013 1585497 L1356845 1580826 L1355678 1578490 L1353342 1576155 L1349839 1574987 L1347503 1574987 L1344000 1576155 L1342832 1577322 "/>
<path d="M1333490 1577322 L1332323 1576155 L1329987 1574987 L1324148 1574987 L1321813 1576155 L1320645 1577322 L1319477 1579658 L1319477 1581993 L1320645 1585497 L1334658 1599510 L1319477 1599510 "/>
</g><text x="1344969.807597" y="1566445.592225" transform="scale(-1 1) translate(-2689939.615194 0)" textLength="82958.330913" font-size="32697.003564" lengthAdjust="spacingAndGlyphs" text-anchor="middle" opacity="0.01" style="font-family:monospace">10uF</text>
<g class="stroked-text"><desc>10uF</desc>
<path d="M1371244 1565277 L1385257 1565277 "/>
<path d="M1378250 1565277 L1378250 1540755 L1380586 1544258 L1382921 1546593 L1385257 1547761 "/>
<path d="M1356063 1540755 L1353727 1540755 L1351392 1541922 L1350224 1543090 L1349056 1545426 L1347889 1550097 L1347889 1555935 L1349056 1560606 L1350224 1562942 L1351392 1564110 L1353727 1565277 L1356063 1565277 L1358398 1564110 L1359566 1562942 L1360734 1560606 L1361902 1555935 L1361902 1550097 L1360734 1545426 L1359566 1543090 L1358398 1541922 L1356063 1540755 "/>
<path d="M1326869 1548929 L1326869 1565277 "/>
<path d="M1337379 1548929 L1337379 1561774 L1336211 1564110 L1333876 1565277 L1330372 1565277 L1328037 1564110 L1326869 1562942 "/>
<path d="M1307017 1552432 L1315192 1552432 "/>
<path d="M1315192 1565277 L1315192 1540755 L1303514 1540755 "/>
</g></g>
<g style="fill:#000084; fill-opacity:0.01;  stroke:#000084; stroke-width:3675.621267; stroke-opacity:1;  stroke-linecap:round; stroke-linejoin:round;">
<text x="1264179.652157" y="1431614.492591" transform="scale(-1 1) translate(-2528359.304313 0)" textLength="42049.793406" font-size="32672.156364" lengthAdjust="spacingAndGlyphs" text-anchor="middle" opacity="0.01" style="font-family:monospace">U2</text>
<g class="stroked-text"><desc>U2</desc>
<path d="M1282849 1405943 L1282849 1425780 L1281682 1428113 L1280515 1429280 L1278182 1430447 L1273514 1430447 L1271180 1429280 L1270013 1428113 L1268847 1425780 L1268847 1405943 "/>
<path d="M1258345 1408277 L1257178 1407110 L1254844 1405943 L1249010 1405943 L1246676 1407110 L1245509 1408277 L1244342 1410610 L1244342 1412944 L1245509 1416445 L1259512 1430447 L1244342 1430447 "/>
</g></g>
<g style="fill:#000084; fill-opacity:0.0;  stroke:#000084; stroke-width:5352.684730; stroke-opacity:1;  stroke-linecap:round; stroke-linejoin:round;">
<g transform="rotate(-90.000000 1948702.852711 505431.445827)">
<text x="1948702.852711" y="517692.828289" transform="scale(-1 1) translate(-3897405.705422 0)" textLength="43099.452823" font-size="32697.003564" lengthAdjust="spacingAndGlyphs" text-anchor="middle" opacity="0.01" style="font-family:monospace">R5</text>
</g>
<g class="stroked-text"><desc>R5</desc>
<path d="M1959796 501344 L1948118 493170 "/>
<path d="M1959796 487331 L1935273 487331 L1935273 496673 L1936441 499008 L1937609 500176 L1939944 501344 L1943447 501344 L1945783 500176 L1946951 499008 L1948118 496673 L1948118 487331 "/>
<path d="M1935273 523531 L1935273 511854 L1946951 510686 L1945783 511854 L1944615 514189 L1944615 520028 L1945783 522363 L1946951 523531 L1949286 524699 L1955125 524699 L1957460 523531 L1958628 522363 L1959796 520028 L1959796 514189 L1958628 511854 L1957460 510686 "/>
</g><g transform="rotate(-90.000000 1914470.566648 499207.393815)">
<text x="1914470.566648" y="511468.776278" transform="scale(-1 1) translate(-3828941.133296 0)" textLength="64274.314874" font-size="32697.003564" lengthAdjust="spacingAndGlyphs" text-anchor="middle" opacity="0.01" style="font-family:monospace">33R</text>
</g>
<g class="stroked-text"><desc>33R</desc>
<path d="M1901041 467094 L1901041 482275 L1910383 474100 L1910383 477604 L1911551 479939 L1912718 481107 L1915054 482275 L1920893 482275 L1923228 481107 L1924396 479939 L1925564 477604 L1925564 470597 L1924396 468262 L1923228 467094 "/>
<path d="M1901041 490449 L1901041 505630 L1910383 497455 L1910383 500959 L1911551 503294 L1912718 504462 L1915054 505630 L1920893 505630 L1923228 504462 L1924396 503294 L1925564 500959 L1925564 493952 L1924396 491617 L1923228 490449 "/>
<path d="M1925564 530152 L1913886 521978 "/>
<path d="M1925564 516139 L1901041 516139 L1901041 525481 L1902209 527817 L1903376 528985 L1905712 530152 L1909215 530152 L1911551 528985 L1912718 527817 L1913886 525481 L1913886 516139 "/>
</g><g transform="rotate(-90.000000 1525467.315930 1519951.923699)">
<text x="1525467.315930" y="1532213.306162" transform="scale(-1 1) translate(-3050934.631860 0)" textLength="40919.270321" font-size="32697.003564" lengthAdjust="spacingAndGlyphs" text-anchor="middle" opacity="0.01" style="font-family:monospace">C4</text>
</g>
<g class="stroked-text"><desc>C4</desc>
<path d="M1534225 1515864 L1535393 1514697 L1536560 1511193 L1536560 1508858 L1535393 1505355 L1533057 1503019 L1530722 1501851 L1526051 1500684 L1522547 1500684 L1517876 1501851 L1515541 1503019 L1513205 1505355 L1512038 1508858 L1512038 1511193 L1513205 1514697 L1514373 1515864 "/>
<path d="M1520212 1536884 L1536560 1536884 "/>
<path d="M1510870 1531045 L1528386 1525206 L1528386 1540387 "/>
</g><g transform="rotate(-90.000000 1491235.029867 1513727.871687)">
<text x="1491235.029867" y="1525989.254150" transform="scale(-1 1) translate(-2982470.059734 0)" textLength="106313.326458" font-size="32697.003564" lengthAdjust="spacingAndGlyphs" text-anchor="middle" opacity="0.01" style="font-family:monospace">100nF</text>
</g>
<g class="stroked-text"><desc>100nF</desc>
<path d="M1502328 1475776 L1502328 1461762 "/>
<path d="M1502328 1468769 L1477805 1468769 L1481309 1466433 L1483644 1464098 L1484812 1461762 "/>
<path d="M1477805 1490956 L1477805 1493292 L1478973 1495627 L1480141 1496795 L1482476 1497963 L1487147 1499130 L1492986 1499130 L1497657 1497963 L1499993 1496795 L1501160 1495627 L1502328 1493292 L1502328 1490956 L1501160 1488621 L1499993 1487453 L1497657 1486285 L1492986 1485118 L1487147 1485118 L1482476 1486285 L1480141 1487453 L1478973 1488621 L1477805 1490956 "/>
<path d="M1477805 1514311 L1477805 1516647 L1478973 1518982 L1480141 1520150 L1482476 1521318 L1487147 1522486 L1492986 1522486 L1497657 1521318 L1499993 1520150 L1501160 1518982 L1502328 1516647 L1502328 1514311 L1501160 1511976 L1499993 1510808 L1497657 1509640 L1492986 1508473 L1487147 1508473 L1482476 1509640 L1480141 1510808 L1478973 1511976 L1477805 1514311 "/>
<path d="M1485980 1532995 L1502328 1532995 "/>
<path d="M1488315 1532995 L1487147 1534163 L1485980 1536499 L1485980 1540002 L1487147 1542337 L1489483 1543505 L1502328 1543505 "/>
<path d="M1489483 1563357 L1489483 1555183 "/>
<path d="M1502328 1555183 L1477805 1555183 L1477805 1566860 "/>
</g></g>
<g style="fill:#000084; fill-opacity:0.0;  stroke:#000084; stroke-width:3675.621267; stroke-opacity:1;  stroke-linecap:round; stroke-linejoin:round;">
<g transform="rotate(-90.000000 1007866.329164 1000243.580740)">
<text x="1007866.329164" y="1012495.651629" transform="scale(-1 1) translate(-2015732.658328 0)" textLength="42049.793406" font-size="32672.156364" lengthAdjust="spacingAndGlyphs" text-anchor="middle" opacity="0.01" style="font-family:monospace">U1</text>
</g>
<g class="stroked-text"><desc>U1</desc>
<path d="M994447 981573 L1014284 981573 L1016617 982740 L1017784 983907 L1018951 986241 L1018951 990908 L1017784 993242 L1016617 994409 L1014284 995576 L994447 995576 "/>
<path d="M1018951 1020080 L1018951 1006077 "/>
<path d="M1018951 1013079 L994447 1013079 L997947 1010745 L1000281 1008411 L1001448 1006077 "/>
</g></g>
<g style="fill:#000084; fill-opacity:0.0;  stroke:#000084; stroke-width:5352.684730; stroke-opacity:1;  stroke-linecap:round; stroke-linejoin:round;">
<g transform="rotate(-90.000000 1625052.148114 1519951.923699)">
<text x="1625052.148114" y="1532213.306162" transform="scale(-1 1) translate(-3250104.296228 0)" textLength="43099.452823" font-size="32697.003564" lengthAdjust="spacingAndGlyphs" text-anchor="middle" opacity="0.01" style="font-family:monospace">C5</text>
</g>
<g class="stroked-text"><desc>C5</desc>
<path d="M1633810 1515864 L1634977 1514697 L1636145 1511193 L1636145 1508858 L1634977 1505355 L1632642 1503019 L1630307 1501851 L1625635 1500684 L1622132 1500684 L1617461 1501851 L1615126 1503019 L1612790 1505355 L1611622 1508858 L1611622 1511193 L1612790 1514697 L1613958 1515864 "/>
<path d="M1611622 1538052 L1611622 1526374 L1623300 1525206 L1622132 1526374 L1620965 1528710 L1620965 1534548 L1622132 1536884 L1623300 1538052 L1625635 1539219 L1631474 1539219 L1633810 1538052 L1634977 1536884 L1636145 1534548 L1636145 1528710 L1634977 1526374 L1633810 1525206 "/>
</g><g transform="rotate(-90.000000 1590819.862051 1513727.871687)">
<text x="1590819.862051" y="1525989.254150" transform="scale(-1 1) translate(-3181639.724102 0)" textLength="59603.286360" font-size="32697.003564" lengthAdjust="spacingAndGlyphs" text-anchor="middle" opacity="0.01" style="font-family:monospace">1uF</text>
</g>
<g class="stroked-text"><desc>1uF</desc>
<path d="M1601913 1499130 L1601913 1485118 "/>
<path d="M1601913 1492124 L1577390 1492124 L1580893 1489788 L1583229 1487453 L1584397 1485118 "/>
<path d="M1585564 1520150 L1601913 1520150 "/>
<path d="M1585564 1509640 L1598410 1509640 L1600745 1510808 L1601913 1513144 L1601913 1516647 L1600745 1518982 L1599577 1520150 "/>
<path d="M1589068 1540002 L1589068 1531828 "/>
<path d="M1601913 1531828 L1577390 1531828 L1577390 1543505 "/>
</g><g transform="rotate(-90.000000 2042063.632883 256469.365367)">
<text x="2042063.632883" y="268730.747830" transform="scale(-1 1) translate(-4084127.265767 0)" textLength="64274.314874" font-size="32697.003564" lengthAdjust="spacingAndGlyphs" text-anchor="middle" opacity="0.01" style="font-family:monospace">R15</text>
</g>
<g class="stroked-text"><desc>R15</desc>
<path d="M2053157 240704 L2041479 232530 "/>
<path d="M2053157 226691 L2028634 226691 L2028634 236033 L2029802 238369 L2030969 239537 L2033305 240704 L2036808 240704 L2039144 239537 L2040311 238369 L2041479 236033 L2041479 226691 "/>
<path d="M2053157 264059 L2053157 250046 "/>
<path d="M2053157 257053 L2028634 257053 L2032137 254717 L2034473 252382 L2035640 250046 "/>
<path d="M2028634 286247 L2028634 274569 L2040311 273401 L2039144 274569 L2037976 276905 L2037976 282743 L2039144 285079 L2040311 286247 L2042647 287414 L2048486 287414 L2050821 286247 L2051989 285079 L2053157 282743 L2053157 276905 L2051989 274569 L2050821 273401 "/>
</g><g transform="rotate(-90.000000 2076295.918947 262693.417379)">
<text x="2076295.918947" y="274954.799842" transform="scale(-1 1) translate(-4152591.837893 0)" textLength="59603.286360" font-size="32697.003564" lengthAdjust="spacingAndGlyphs" text-anchor="middle" opacity="0.01" style="font-family:monospace">10k</text>
</g>
<g class="stroked-text"><desc>10k</desc>
<path d="M2087389 248096 L2087389 234083 "/>
<path d="M2087389 241090 L2062866 241090 L2066370 238754 L2068705 236419 L2069873 234083 "/>
<path d="M2062866 263277 L2062866 265612 L2064034 267948 L2065202 269116 L2067537 270283 L2072208 271451 L2078047 271451 L2082718 270283 L2085054 269116 L2086221 267948 L2087389 265612 L2087389 263277 L2086221 260941 L2085054 259774 L2082718 258606 L2078047 257438 L2072208 257438 L2067537 258606 L2065202 259774 L2064034 260941 L2062866 263277 "/>
<path d="M2087389 281961 L2062866 281961 "/>
<path d="M2078047 284296 L2087389 291303 "/>
<path d="M2071041 291303 L2080383 281961 "/>
</g><g transform="rotate(-90.000000 965302.634897 188004.793241)">
<text x="965302.634897" y="200266.175704" transform="scale(-1 1) translate(-1930605.269793 0)" textLength="64274.314874" font-size="32697.003564" lengthAdjust="spacingAndGlyphs" text-anchor="middle" opacity="0.01" style="font-family:monospace">R12</text>
</g>
<g class="stroked-text"><desc>R12</desc>
<path d="M976396 172240 L964718 164065 "/>
<path d="M976396 158227 L951873 158227 L951873 167569 L953041 169904 L954208 171072 L956544 172240 L960047 172240 L962383 171072 L963550 169904 L964718 167569 L964718 158227 "/>
<path d="M976396 195595 L976396 181582 "/>
<path d="M976396 188588 L951873 188588 L955376 186253 L957712 183917 L958880 181582 "/>
<path d="M954208 204937 L953041 206104 L951873 208440 L951873 214279 L953041 216614 L954208 217782 L956544 218950 L958880 218950 L962383 217782 L976396 203769 L976396 218950 "/>
</g><g transform="rotate(-90.000000 931070.348833 181780.741230)">
<text x="931070.348833" y="194042.123692" transform="scale(-1 1) translate(-1862140.697667 0)" textLength="87629.310419" font-size="32697.003564" lengthAdjust="spacingAndGlyphs" text-anchor="middle" opacity="0.01" style="font-family:monospace">620R</text>
</g>
<g class="stroked-text"><desc>620R</desc>
<path d="M917641 150835 L917641 146164 L918808 143828 L919976 142661 L923479 140325 L928150 139157 L937492 139157 L939828 140325 L940996 141493 L942163 143828 L942163 148499 L940996 150835 L939828 152003 L937492 153170 L931654 153170 L929318 152003 L928150 150835 L926983 148499 L926983 143828 L928150 141493 L929318 140325 L931654 139157 "/>
<path d="M919976 162512 L918808 163680 L917641 166016 L917641 171854 L918808 174190 L919976 175358 L922312 176525 L924647 176525 L928150 175358 L942163 161345 L942163 176525 "/>
<path d="M917641 191706 L917641 194042 L918808 196377 L919976 197545 L922312 198713 L926983 199880 L932821 199880 L937492 198713 L939828 197545 L940996 196377 L942163 194042 L942163 191706 L940996 189371 L939828 188203 L937492 187035 L932821 185867 L926983 185867 L922312 187035 L919976 188203 L918808 189371 L917641 191706 "/>
<path d="M942163 224403 L930486 216229 "/>
<path d="M942163 210390 L917641 210390 L917641 219732 L918808 222068 L919976 223235 L922312 224403 L925815 224403 L928150 223235 L929318 222068 L930486 219732 L930486 210390 "/>
</g></g>
<g style="fill:#000084; fill-opacity:0.0;  stroke:#000084; stroke-width:7351.242533; stroke-opacity:1;  stroke-linecap:round; stroke-linejoin:round;">
<g transform="rotate(-90.000000 949742.504868 595680.199993)">
<text x="949742.504868" y="626800.460051" transform="scale(-1 1) translate(-1899485.009736 0)" textLength="114558.725125" font-size="82987.343817" lengthAdjust="spacingAndGlyphs" text-anchor="middle" opacity="0.01" style="font-family:monospace">D4</text>
</g>
<g class="stroked-text"><desc>D4</desc>
<path d="M977898 549740 L915658 549740 L915658 564559 L918622 573451 L924549 579379 L930477 582342 L942332 585306 L951224 585306 L963079 582342 L969007 579379 L974935 573451 L977898 564559 L977898 549740 "/>
<path d="M936405 638655 L977898 638655 "/>
<path d="M912694 623836 L957152 609017 L957152 647547 "/>
</g><g transform="rotate(-90.000000 947252.884063 322743.267219)">
<text x="947252.884063" y="353863.527276" transform="scale(-1 1) translate(-1894505.768126 0)" textLength="52683.904822" font-size="82987.343817" lengthAdjust="spacingAndGlyphs" text-anchor="middle" opacity="0.01" style="font-family:monospace">K</text>
</g>
<g class="stroked-text"><desc>K</desc>
<path d="M975409 306442 L913168 306442 "/>
<path d="M975409 342008 L939843 315333 "/>
<path d="M913168 342008 L948734 306442 "/>
</g></g>
<g style="fill:#000084; fill-opacity:0.0;  stroke:#000084; stroke-width:5352.684730; stroke-opacity:1;  stroke-linecap:round; stroke-linejoin:round;">
<g transform="rotate(-90.000000 1107769.715191 185897.437048)">
<text x="1107769.715191" y="198158.819511" transform="scale(-1 1) translate(-2215539.430382 0)" textLength="61676.189730" font-size="32697.003564" lengthAdjust="spacingAndGlyphs" text-anchor="middle" opacity="0.01" style="font-family:monospace">R16</text>
</g>
<g class="stroked-text"><desc>R16</desc>
<path d="M1118863 170132 L1107185 161958 "/>
<path d="M1118863 156119 L1094340 156119 L1094340 165461 L1095508 167797 L1096676 168965 L1099011 170132 L1102514 170132 L1104850 168965 L1106018 167797 L1107185 165461 L1107185 156119 "/>
<path d="M1118863 193487 L1118863 179474 "/>
<path d="M1118863 186481 L1094340 186481 L1097843 184145 L1100179 181810 L1101347 179474 "/>
<path d="M1094340 214507 L1094340 209836 L1095508 207500 L1096676 206333 L1100179 203997 L1104850 202829 L1114192 202829 L1116527 203997 L1117695 205165 L1118863 207500 L1118863 212171 L1117695 214507 L1116527 215675 L1114192 216842 L1108353 216842 L1106018 215675 L1104850 214507 L1103682 212171 L1103682 207500 L1104850 205165 L1106018 203997 L1108353 202829 "/>
</g><g transform="rotate(-90.000000 1142002.001254 192121.489060)">
<text x="1142002.001254" y="204382.871522" transform="scale(-1 1) translate(-2284004.002508 0)" textLength="87629.310419" font-size="32697.003564" lengthAdjust="spacingAndGlyphs" text-anchor="middle" opacity="0.01" style="font-family:monospace">220R</text>
</g>
<g class="stroked-text"><desc>220R</desc>
<path d="M1130908 149498 L1129740 150666 L1128572 153001 L1128572 158840 L1129740 161176 L1130908 162343 L1133243 163511 L1135579 163511 L1139082 162343 L1153095 148330 L1153095 163511 "/>
<path d="M1130908 172853 L1129740 174021 L1128572 176356 L1128572 182195 L1129740 184531 L1130908 185698 L1133243 186866 L1135579 186866 L1139082 185698 L1153095 171685 L1153095 186866 "/>
<path d="M1128572 202047 L1128572 204382 L1129740 206718 L1130908 207886 L1133243 209053 L1137914 210221 L1143753 210221 L1148424 209053 L1150760 207886 L1151927 206718 L1153095 204382 L1153095 202047 L1151927 199711 L1150760 198544 L1148424 197376 L1143753 196208 L1137914 196208 L1133243 197376 L1130908 198544 L1129740 199711 L1128572 202047 "/>
<path d="M1153095 234744 L1141418 226570 "/>
<path d="M1153095 220731 L1128572 220731 L1128572 230073 L1129740 232408 L1130908 233576 L1133243 234744 L1136747 234744 L1139082 233576 L1140250 232408 L1141418 230073 L1141418 220731 "/>
</g><g transform="rotate(-90.000000 1273172.672189 467940.108907)">
<text x="1273172.672189" y="480201.491370" transform="scale(-1 1) translate(-2546345.344378 0)" textLength="64274.314874" font-size="32697.003564" lengthAdjust="spacingAndGlyphs" text-anchor="middle" opacity="0.01" style="font-family:monospace">R14</text>
</g>
<g class="stroked-text"><desc>R14</desc>
<path d="M1284266 452175 L1272588 444001 "/>
<path d="M1284266 438162 L1259743 438162 L1259743 447504 L1260911 449839 L1262079 451007 L1264414 452175 L1267917 452175 L1270253 451007 L1271421 449839 L1272588 447504 L1272588 438162 "/>
<path d="M1284266 475530 L1284266 461517 "/>
<path d="M1284266 468523 L1259743 468523 L1263246 466188 L1265582 463853 L1266750 461517 "/>
<path d="M1267917 496550 L1284266 496550 "/>
<path d="M1258575 490711 L1276092 484872 L1276092 500053 "/>
</g><g transform="rotate(-90.000000 1238940.386126 461716.056896)">
<text x="1238940.386126" y="473977.439358" transform="scale(-1 1) translate(-2477880.772252 0)" textLength="87629.310419" font-size="32697.003564" lengthAdjust="spacingAndGlyphs" text-anchor="middle" opacity="0.01" style="font-family:monospace">220R</text>
</g>
<g class="stroked-text"><desc>220R</desc>
<path d="M1227846 419093 L1226679 420260 L1225511 422596 L1225511 428435 L1226679 430770 L1227846 431938 L1230182 433106 L1232517 433106 L1236020 431938 L1250033 417925 L1250033 433106 "/>
<path d="M1227846 442448 L1226679 443615 L1225511 445951 L1225511 451790 L1226679 454125 L1227846 455293 L1230182 456461 L1232517 456461 L1236020 455293 L1250033 441280 L1250033 456461 "/>
<path d="M1225511 471641 L1225511 473977 L1226679 476312 L1227846 477480 L1230182 478648 L1234853 479816 L1240691 479816 L1245362 478648 L1247698 477480 L1248866 476312 L1250033 473977 L1250033 471641 L1248866 469306 L1247698 468138 L1245362 466970 L1240691 465803 L1234853 465803 L1230182 466970 L1227846 468138 L1226679 469306 L1225511 471641 "/>
<path d="M1250033 504339 L1238356 496164 "/>
<path d="M1250033 490325 L1225511 490325 L1225511 499667 L1226679 502003 L1227846 503171 L1230182 504339 L1233685 504339 L1236020 503171 L1237188 502003 L1238356 499667 L1238356 490325 "/>
</g></g>
<g style="fill:#000084; fill-opacity:0.0;  stroke:#000084; stroke-width:3675.621267; stroke-opacity:1;  stroke-linecap:round; stroke-linejoin:round;">
<g transform="rotate(-90.000000 1267169.157454 184892.767235)">
<text x="1267169.157454" y="197144.838124" transform="scale(-1 1) translate(-2534338.314907 0)" textLength="42049.793406" font-size="32672.156364" lengthAdjust="spacingAndGlyphs" text-anchor="middle" opacity="0.01" style="font-family:monospace">Q1</text>
</g>
<g class="stroked-text"><desc>Q1</desc>
<path d="M1280588 182559 L1279421 180225 L1277087 177891 L1273586 174391 L1272420 172057 L1272420 169723 "/>
<path d="M1278254 170890 L1277087 168556 L1274753 166222 L1270086 165056 L1261918 165056 L1257250 166222 L1254917 168556 L1253750 170890 L1253750 175557 L1254917 177891 L1257250 180225 L1261918 181392 L1270086 181392 L1274753 180225 L1277087 177891 L1278254 175557 L1278254 170890 "/>
<path d="M1278254 204729 L1278254 190727 "/>
<path d="M1278254 197728 L1253750 197728 L1257250 195394 L1259584 193060 L1260751 190727 "/>
</g></g>
<g style="fill:#000084; fill-opacity:0.0;  stroke:#000084; stroke-width:7351.242533; stroke-opacity:1;  stroke-linecap:round; stroke-linejoin:round;">
<path d="M1447666 1501279 L1447666 1451487 "/>
<path d="M1372978 1451487 L1372978 1501279 "/>
<path d="M1447666 1401694 L1447666 1351902 "/>
<path d="M1372978 1501279 L1447666 1501279 "/>
<path d="M1372978 1351902 L1372978 1401694 "/>
<path d="M1447666 1351902 L1372978 1351902 "/>
<path d="M2094968 362278 L2020279 362278 "/>
<path d="M2094968 511655 L2094968 461863 "/>
<path d="M2094968 412070 L2094968 362278 "/>
<path d="M2020279 461863 L2020279 511655 "/>
<path d="M2020279 511655 L2094968 511655 "/>
<path d="M2020279 362278 L2020279 412070 "/>
<path d="M2452851 589456 L2502643 589456 "/>
<path d="M2502643 514767 L2452851 514767 "/>
<path d="M2602228 514767 L2552435 514767 "/>
<path d="M2552435 589456 L2602228 589456 "/>
<path d="M2452851 514767 L2452851 589456 "/>
<path d="M2602228 589456 L2602228 514767 "/>
</g>
<g style="fill:#000084; fill-opacity:0.0;  stroke:#000084; stroke-width:4900.828355; stroke-opacity:1;  stroke-linecap:round; stroke-linejoin:round;">
<path d="M1463937 1168145 L1463937 1021121 "/>
<path d="M1463937 1021121 L1238499 1021121 "/>
<path d="M1463937 1168145 L1238499 1168145 "/>
<path d="M1319390 1094583 L1275199 1094583 "/>
<path d="M1375780 1057861 L1375780 1133795 "/>
<path d="M1319390 1094583 L1375780 1133795 "/>
<path d="M1319390 1133795 L1319390 1055372 "/>
<path d="M1238499 1021121 L1238499 1168145 "/>
<path d="M1319390 1094583 L1375780 1057861 "/>
<path d="M1375780 1094583 L1424701 1094583 "/>
<path d="M960373 1777542 L1038796 1777542 "/>
<path d="M999584 1777542 L999584 1733351 "/>
<path d="M926022 1922089 L1073047 1922089 "/>
<path d="M1073047 1922089 L1073047 1696651 "/>
<path d="M999584 1833932 L999584 1882853 "/>
<path d="M1073047 1696651 L926022 1696651 "/>
<path d="M999584 1777542 L1036306 1833932 "/>
<path d="M1036306 1833932 L960373 1833932 "/>
<path d="M999584 1777542 L960373 1833932 "/>
<path d="M926022 1922089 L926022 1696651 "/>
</g>
<g style="fill:#000084; fill-opacity:0.0;  stroke:#000084; stroke-width:7351.242533; stroke-opacity:1;  stroke-linecap:round; stroke-linejoin:round;">
<path d="M658456 291946 L519038 291946 "/>
<path d="M519038 538418 L658456 538418 "/>
<path d="M658456 535929 L658456 293191 "/>
<path d="M519038 295680 L519038 538418 "/>
<path d="M705759 295680 L705759 538418 "/>
<path d="M845178 291946 L705759 291946 "/>
<path d="M845178 535929 L845178 293191 "/>
<path d="M705759 538418 L845178 538418 "/>
<path d="M1193725 290378 L1054306 290378 "/>
<path d="M1054306 536850 L1193725 536850 "/>
<path d="M1054306 294112 L1054306 536850 "/>
<path d="M1193725 534361 L1193725 291623 "/>
</g>
<g style="fill:#000084; fill-opacity:0.0;  stroke:#000084; stroke-width:4900.828355; stroke-opacity:1;  stroke-linecap:round; stroke-linejoin:round;">
<path d="M1109215 1584324 L1109215 1461803 "/>
<path d="M952388 1584324 L1109215 1584324 "/>
<path d="M952388 1461803 L952388 1584324 "/>
<path d="M1109215 1461803 L952388 1461803 "/>
<path d="M2421559 796663 L2397055 796663 "/>
<path d="M2421559 845671 L2421559 796663 "/>
<path d="M2397055 796663 L2397055 845671 "/>
<path d="M2397055 845671 L2421559 845671 "/>
</g>
<g style="fill:#000084; fill-opacity:0.0;  stroke:#000084; stroke-width:7351.242533; stroke-opacity:1;  stroke-linecap:round; stroke-linejoin:round;">
<path d="M1447666 1171405 L1372978 1171405 "/>
<path d="M1447666 1320782 L1447666 1270989 "/>
<path d="M1372978 1270989 L1372978 1320782 "/>
<path d="M1447666 1221197 L1447666 1171405 "/>
<path d="M1372978 1320782 L1447666 1320782 "/>
<path d="M1372978 1171405 L1372978 1221197 "/>
<path d="M2235009 1572856 L2235009 1647544 "/>
<path d="M2384386 1572856 L2334594 1572856 "/>
<path d="M2284801 1572856 L2235009 1572856 "/>
<path d="M2235009 1647544 L2284801 1647544 "/>
<path d="M2384386 1647544 L2384386 1572856 "/>
<path d="M2334594 1647544 L2384386 1647544 "/>
<path d="M2210113 1647544 L2210113 1572856 "/>
<path d="M2060735 1647544 L2110528 1647544 "/>
<path d="M2110528 1572856 L2060735 1572856 "/>
<path d="M2210113 1572856 L2160320 1572856 "/>
<path d="M2060735 1572856 L2060735 1647544 "/>
<path d="M2160320 1647544 L2210113 1647544 "/>
<path d="M1681068 589456 L1730861 589456 "/>
<path d="M1830445 589456 L1830445 514767 "/>
<path d="M1780653 589456 L1830445 589456 "/>
<path d="M1830445 514767 L1780653 514767 "/>
<path d="M1681068 514767 L1681068 589456 "/>
<path d="M1730861 514767 L1681068 514767 "/>
<path d="M1895798 1445263 L1821109 1445263 "/>
<path d="M1821109 1544848 L1821109 1594640 "/>
<path d="M1821109 1445263 L1821109 1495055 "/>
<path d="M1895798 1594640 L1895798 1544848 "/>
<path d="M1895798 1495055 L1895798 1445263 "/>
<path d="M1821109 1594640 L1895798 1594640 "/>
<path d="M1696628 1544848 L1696628 1594640 "/>
<path d="M1771317 1495055 L1771317 1445263 "/>
<path d="M1696628 1445263 L1696628 1495055 "/>
<path d="M1771317 1594640 L1771317 1544848 "/>
<path d="M1696628 1594640 L1771317 1594640 "/>
<path d="M1771317 1445263 L1696628 1445263 "/>
<path d="M2147872 1460823 L2098080 1460823 "/>
<path d="M2098080 1535512 L2147872 1535512 "/>
<path d="M2247457 1460823 L2197664 1460823 "/>
<path d="M2197664 1535512 L2247457 1535512 "/>
<path d="M2247457 1535512 L2247457 1460823 "/>
<path d="M2098080 1460823 L2098080 1535512 "/>
<path d="M1945590 1594640 L2020279 1594640 "/>
<path d="M2020279 1445263 L1945590 1445263 "/>
<path d="M2020279 1495055 L2020279 1445263 "/>
<path d="M1945590 1445263 L1945590 1495055 "/>
<path d="M2020279 1594640 L2020279 1544848 "/>
<path d="M1945590 1544848 L1945590 1594640 "/>
<path d="M626091 113316 L551403 113316 "/>
<path d="M551403 262693 L626091 262693 "/>
<path d="M626091 163108 L626091 113316 "/>
<path d="M626091 262693 L626091 212901 "/>
<path d="M551403 113316 L551403 163108 "/>
<path d="M551403 212901 L551403 262693 "/>
<path d="M2328370 539663 L2278577 539663 "/>
<path d="M2378162 614352 L2427954 614352 "/>
<path d="M2278577 539663 L2278577 614352 "/>
<path d="M2278577 614352 L2328370 614352 "/>
<path d="M2427954 539663 L2378162 539663 "/>
<path d="M2427954 614352 L2427954 539663 "/>
<path d="M812813 166220 L812813 116428 "/>
<path d="M812813 265805 L812813 216013 "/>
<path d="M738124 265805 L812813 265805 "/>
<path d="M812813 116428 L738124 116428 "/>
<path d="M738124 116428 L738124 166220 "/>
<path d="M738124 216013 L738124 265805 "/>
</g>
<g style="fill:#000084; fill-opacity:0.0;  stroke:#000084; stroke-width:4900.828355; stroke-opacity:1;  stroke-linecap:round; stroke-linejoin:round;">
<path d="M1609688 713741 L1590084 757848 "/>
<path d="M1541076 713741 L1541076 1311642 "/>
<path d="M2325208 713741 L2325208 1311642 "/>
<path d="M1570481 713741 L1590084 757848 "/>
<path d="M1541076 1311642 L2325208 1311642 "/>
<path d="M1541076 713741 L2325208 713741 "/>
</g>
<g style="fill:#000084; fill-opacity:0.0;  stroke:#000084; stroke-width:7351.242533; stroke-opacity:1;  stroke-linecap:round; stroke-linejoin:round;">
<path d="M1313849 1535512 L1264057 1535512 "/>
<path d="M1413434 1610200 L1413434 1535512 "/>
<path d="M1264057 1535512 L1264057 1610200 "/>
<path d="M1264057 1610200 L1313849 1610200 "/>
<path d="M1413434 1535512 L1363641 1535512 "/>
<path d="M1363641 1610200 L1413434 1610200 "/>
</g>
<g style="fill:#000084; fill-opacity:0.0;  stroke:#000084; stroke-width:4900.828355; stroke-opacity:1;  stroke-linecap:round; stroke-linejoin:round;">
<path d="M1340142 1375254 L1188216 1375254 "/>
<path d="M1340142 1375254 L1340142 1431614 "/>
<path d="M1308287 1463469 L1340142 1431614 "/>
<path d="M1188216 1375254 L1188216 1463469 "/>
<path d="M1308287 1463469 L1188216 1463469 "/>
</g>
<g style="fill:#000084; fill-opacity:0.0;  stroke:#000084; stroke-width:7351.242533; stroke-opacity:1;  stroke-linecap:round; stroke-linejoin:round;">
<path d="M1970487 480535 L1970487 430742 "/>
<path d="M1895798 430742 L1895798 480535 "/>
<path d="M1895798 530327 L1895798 580120 "/>
<path d="M1895798 580120 L1970487 580120 "/>
<path d="M1970487 430742 L1895798 430742 "/>
<path d="M1970487 580120 L1970487 530327 "/>
<path d="M1472562 1594640 L1547251 1594640 "/>
<path d="M1547251 1495055 L1547251 1445263 "/>
<path d="M1472562 1445263 L1472562 1495055 "/>
<path d="M1547251 1594640 L1547251 1544848 "/>
<path d="M1547251 1445263 L1472562 1445263 "/>
<path d="M1472562 1544848 L1472562 1594640 "/>
</g>
<g style="fill:#000084; fill-opacity:0.0;  stroke:#000084; stroke-width:4900.828355; stroke-opacity:1;  stroke-linecap:round; stroke-linejoin:round;">
<path d="M1051973 956136 L1051973 1076206 "/>
<path d="M963758 924280 L1020118 924280 "/>
<path d="M963758 1076206 L1051973 1076206 "/>
<path d="M963758 924280 L963758 1076206 "/>
<path d="M1051973 956136 L1020118 924280 "/>
</g>
<g style="fill:#000084; fill-opacity:0.0;  stroke:#000084; stroke-width:7351.242533; stroke-opacity:1;  stroke-linecap:round; stroke-linejoin:round;">
<path d="M1646836 1594640 L1646836 1544848 "/>
<path d="M1572147 1445263 L1572147 1495055 "/>
<path d="M1646836 1445263 L1572147 1445263 "/>
<path d="M1646836 1495055 L1646836 1445263 "/>
<path d="M1572147 1544848 L1572147 1594640 "/>
<path d="M1572147 1594640 L1646836 1594640 "/>
<path d="M2094968 181780 L2020279 181780 "/>
<path d="M2094968 231573 L2094968 181780 "/>
<path d="M2020279 281365 L2020279 331157 "/>
<path d="M2020279 331157 L2094968 331157 "/>
<path d="M2020279 181780 L2020279 231573 "/>
<path d="M2094968 331157 L2094968 281365 "/>
<path d="M912398 212901 L912398 262693 "/>
<path d="M912398 262693 L987086 262693 "/>
<path d="M987086 262693 L987086 212901 "/>
<path d="M987086 163108 L987086 113316 "/>
<path d="M912398 113316 L912398 163108 "/>
<path d="M987086 113316 L912398 113316 "/>
<path d="M1019451 290378 L880033 290378 "/>
<path d="M880033 536850 L1019451 536850 "/>
<path d="M1019451 534361 L1019451 291623 "/>
<path d="M880033 294112 L880033 536850 "/>
<path d="M1085985 111208 L1085985 161001 "/>
<path d="M1085985 210793 L1085985 260586 "/>
<path d="M1160674 260586 L1160674 210793 "/>
<path d="M1160674 161001 L1160674 111208 "/>
<path d="M1160674 111208 L1085985 111208 "/>
<path d="M1085985 260586 L1160674 260586 "/>
<path d="M1220268 542628 L1294956 542628 "/>
<path d="M1220268 492836 L1220268 542628 "/>
<path d="M1294956 443043 L1294956 393251 "/>
<path d="M1294956 542628 L1294956 492836 "/>
<path d="M1294956 393251 L1220268 393251 "/>
<path d="M1220268 393251 L1220268 443043 "/>
</g>
<g style="fill:#000084; fill-opacity:0.0;  stroke:#000084; stroke-width:4900.828355; stroke-opacity:1;  stroke-linecap:round; stroke-linejoin:round;">
<path d="M1301474 138334 L1274520 110400 "/>
<path d="M1274520 110400 L1232863 110400 "/>
<path d="M1301474 138334 L1301474 258405 "/>
<path d="M1232863 110400 L1232863 259385 "/>
<path d="M1301474 259385 L1232863 259385 "/>
<g>
</g>
<g>
</g>
<g>
</g>
<g>
</g>
<g>
</g>
<g>
</g>
<g>
</g>
<g>
</g>
<g>
</g>
<g>
</g>
<g>
</g>
<g>
</g>
<g>
</g>
<g>
</g>
<g>
</g>
<g>
</g>
<g>
</g>
<g>
</g>
<g>
</g>
<g>
</g>
<g>
</g>
<g>
</g>
<g>
</g>
<g>
</g>
<g>
</g>
<g>
</g>
<g>
</g>
<g>
</g>
<g>
</g>
<g>
</g>
<g>
</g>
<g>
</g>
<g>
</g>
<g>
</g>
<g>
</g>
<g>
</g>
<g>
</g>
<g>
</g>
<g>
</g>
<g>
</g>
<g>
</g>
<g>
</g>
<g>
</g>
<g>
</g>
<g>
</g>
<g>
</g>
<g>
</g>
<g>
</g>
<g>
</g>
<g>
</g>
<g>
</g>
<g>
</g>
<g>
</g>
<g>
</g>
<g>
</g>
<g>
</g>
<g>
</g>
<g>
</g>
<g>
</g>
<g>
</g>
<g>
</g>
<g>
</g>
<g>
</g>
<g>
</g>
<g>
</g>
<g>
</g>
<g>
</g>
</g> 
<svg:g><svg:g><svg:title>SVG Picture created as GPS02B-Edge_Cuts.svg date 2023/05/25 07:25:29 </svg:title>
  <svg:desc>Picture generated by PCBNEW </svg:desc>
<svg:g style="fill:#C2C200; fill-opacity:1.000000;stroke:#C2C200; stroke-opacity:1.000000; stroke-linecap:round; stroke-linejoin:round;" transform="translate(0 0) scale(1 1)">
</svg:g>
<svg:g style="fill:#C2C200; fill-opacity:0.0;  stroke:#C2C200; stroke-width:0.000000; stroke-opacity:1;  stroke-linecap:round; stroke-linejoin:round;">
</svg:g>
<svg:g style="fill:#C2C200; fill-opacity:0.0;  stroke:#C2C200; stroke-width:7351.242533; stroke-opacity:1;  stroke-linecap:round; stroke-linejoin:round;">
<svg:path d="M3686 2033436 L3686 66635 "/>
<svg:path d="M3686 2033436 L2966335 2033436 "/>
<svg:path d="M2966335 66635 L3686 66635 "/>
<svg:path d="M2966335 66635 L2966335 2033436 "/>
<svg:g>
</svg:g>
<svg:g>
</svg:g>
<svg:g>
</svg:g>
<svg:g>
</svg:g>
<svg:g>
</svg:g>
<svg:g>
</svg:g>
<svg:g>
</svg:g>
<svg:g>
</svg:g>
<svg:g>
</svg:g>
<svg:g>
</svg:g>
<svg:g>
</svg:g>
<svg:g>
</svg:g>
<svg:g>
</svg:g>
<svg:g>
</svg:g>
<svg:g>
</svg:g>
<svg:g>
</svg:g>
<svg:g>
</svg:g>
<svg:g>
</svg:g>
<svg:g>
</svg:g>
<svg:g>
</svg:g>
<svg:g>
</svg:g>
<svg:g>
</svg:g>
<svg:g>
</svg:g>
<svg:g>
</svg:g>
<svg:g>
</svg:g>
<svg:g>
</svg:g>
<svg:g>
</svg:g>
<svg:g>
</svg:g>
<svg:g>
</svg:g>
<svg:g>
</svg:g>
<svg:g>
</svg:g>
<svg:g>
</svg:g>
<svg:g>
</svg:g>
<svg:g>
</svg:g>
<svg:g>
</svg:g>
<svg:g>
</svg:g>
<svg:g>
</svg:g>
<svg:g>
</svg:g>
<svg:g>
</svg:g>
<svg:g>
</svg:g>
<svg:g>
</svg:g>
<svg:g>
</svg:g>
<svg:g>
</svg:g>
<svg:g>
</svg:g>
<svg:g>
</svg:g>
<svg:g>
</svg:g>
<svg:g>
</svg:g>
<svg:g>
</svg:g>
<svg:g>
</svg:g>
<svg:g>
</svg:g>
<svg:g>
</svg:g>
<svg:g>
</svg:g>
<svg:g>
</svg:g>
<svg:g>
</svg:g>
<svg:g>
</svg:g>
<svg:g>
</svg:g>
<svg:g>
</svg:g>
<svg:g>
</svg:g>
<svg:g>
</svg:g>
<svg:g>
</svg:g>
<svg:g>
</svg:g>
<svg:g>
</svg:g>
<svg:g>
</svg:g>
<svg:g>
</svg:g>
<svg:g>
</svg:g>
<svg:g>
</svg:g>
<svg:g>
</svg:g>
</svg:g> 
</svg:g></svg:g></svg>
